<svg viewBox="0 0 576 512"><path d="m528.91 178.82 47.09-51.24h-104.34a326.11 326.11 0 0 0 -367 0h-104.66l47.09 51.24a143.911 143.911 0 0 0 194.77 211.91l46.14 50.2 46.11-50.17a143.94 143.94 0 0 0 241.77-105.58h-.03a143.56 143.56 0 0 0 -46.94-106.36zm-384.85 203.75a97.39 97.39 0 1 1 97.39-97.39 97.39 97.39 0 0 1 -97.39 97.39zm143.94-100.2c0-64.09-46.62-119.08-108.09-142.59a281 281 0 0 1 216.17 0c-61.47 23.52-108.08 78.51-108.08 142.59zm143.88 100.2h-.01a97.405 97.405 0 1 1 .01 0zm-287.82-148.45h-.01a51.06 51.06 0 1 0 51.06 51.06v-.11a51 51 0 0 0 -51.05-50.95zm287.82 0a51.06 51.06 0 1 0 51.06 51.06 51.06 51.06 0 0 0 -51.06-51.06z"/></svg>