<svg viewBox="0 0 576 512"><path d="m192 440h-32v-48h32zm-32-368v48h32v-48zm96 160v48h32v-48zm-96 0v48h32v-48zm96 208h160v-48h-160zm96-160h128v-48h-128zm192-280a32 32 0 0 0 -32 32v464a16 16 0 0 0 16 16h32a16 16 0 0 0 16-16v-464a32 32 0 0 0 -32-32zm-128 72h-160v48h160zm-384-72a32 32 0 0 0 -32 32v464a16 16 0 0 0 16 16h32a16 16 0 0 0 16-16v-464a32 32 0 0 0 -32-32z" opacity=".4"/><path d="m144 32h-32a16 16 0 0 0 -16 16v96a16 16 0 0 0 16 16h32a16 16 0 0 0 16-16v-96a16 16 0 0 0 -16-16zm96 0h-32a16 16 0 0 0 -16 16v96a16 16 0 0 0 16 16h32a16 16 0 0 0 16-16v-96a16 16 0 0 0 -16-16zm-96 160h-32a16 16 0 0 0 -16 16v96a16 16 0 0 0 16 16h32a16 16 0 0 0 16-16v-96a16 16 0 0 0 -16-16zm192 0h-32a16 16 0 0 0 -16 16v96a16 16 0 0 0 16 16h32a16 16 0 0 0 16-16v-96a16 16 0 0 0 -16-16zm-96 0h-32a16 16 0 0 0 -16 16v96a16 16 0 0 0 16 16h32a16 16 0 0 0 16-16v-96a16 16 0 0 0 -16-16zm224-160h-32a16 16 0 0 0 -16 16v96a16 16 0 0 0 16 16h32a16 16 0 0 0 16-16v-96a16 16 0 0 0 -16-16zm-320 320h-32a16 16 0 0 0 -16 16v96a16 16 0 0 0 16 16h32a16 16 0 0 0 16-16v-96a16 16 0 0 0 -16-16zm96 0h-32a16 16 0 0 0 -16 16v96a16 16 0 0 0 16 16h32a16 16 0 0 0 16-16v-96a16 16 0 0 0 -16-16zm224 0h-32a16 16 0 0 0 -16 16v96a16 16 0 0 0 16 16h32a16 16 0 0 0 16-16v-96a16 16 0 0 0 -16-16z"/></svg>