<svg viewBox="0 0 512 512"><path d="m352 256a24 24 0 1 0 24 24 24 24 0 0 0 -24-24zm-194.48 16h37l-18.52-53.22zm306.48-208h-416a48 48 0 0 0 -48 48v288a48 48 0 0 0 48 48h416a48 48 0 0 0 48-48v-288a48 48 0 0 0 -48-48zm-213.42 288h-16.94a16 16 0 0 1 -15.12-10.75l-7.37-21.25h-70.29l-7.38 21.25a16 16 0 0 1 -15.12 10.75h-16.94a16 16 0 0 1 -15.12-21.25l53.7-154.63a24 24 0 0 1 22.67-16.12h26.66a24 24 0 0 1 22.67 16.13l53.69 154.62a16 16 0 0 1 -15.11 21.25zm173.42-16a16 16 0 0 1 -16 16h-16a15.74 15.74 0 0 1 -12-5.68 72 72 0 1 1 -28-138.32 71.05 71.05 0 0 1 24 4.42v-36.42a16 16 0 0 1 16-16h16a16 16 0 0 1 16 16z" opacity=".4"/><path d="m212 176.13a24 24 0 0 0 -22.67-16.13h-26.66a24 24 0 0 0 -22.67 16.12l-53.7 154.63a16 16 0 0 0 15.12 21.25h16.94a16 16 0 0 0 15.12-10.75l7.38-21.25h70.29l7.37 21.25a16 16 0 0 0 15.12 10.75h16.94a16 16 0 0 0 15.11-21.25zm-54.48 95.87 18.48-53.22 18.48 53.22zm250.48-112h-16a16 16 0 0 0 -16 16v36.42a71.05 71.05 0 0 0 -24-4.42 72 72 0 1 0 28 138.32 15.74 15.74 0 0 0 12 5.68h16a16 16 0 0 0 16-16v-160a16 16 0 0 0 -16-16zm-56 144a24 24 0 1 1 24-24 24 24 0 0 1 -24 24z"/></svg>