<svg viewBox="0 0 576 512"><path d="m216 424a40 40 0 0 1 -40 40h-6.22c-20 0-38.19-13.88-41.28-33.61-2.88-18.41 6.92-34.22 21.84-41.47 5.73-2.78 9.66-8.25 9.66-14.63v-17.62a16.1 16.1 0 0 0 -21.42-15.17 87.55 87.55 0 0 0 -57.88 93.74c5.56 44.58 45.85 76.76 90.78 76.76h4.52a88 88 0 0 0 88-88v-168h-48zm221.42-114.5a16.1 16.1 0 0 0 -21.42 15.17v17.62c0 6.38 3.93 11.85 9.66 14.63 14.92 7.25 24.72 23.06 21.84 41.47-3.09 19.73-21.3 33.61-41.27 33.61h-6.23a40 40 0 0 1 -40-40v-136h-48v136a88 88 0 0 0 88 88h4.53c44.92 0 85.21-32.18 90.77-76.76a87.55 87.55 0 0 0 -57.88-93.74zm-373.42-181.5v32h448v-32z" opacity=".4"/><path d="m544 0h-512a32 32 0 0 0 -32 32v160a32 32 0 0 0 32 32h512a32 32 0 0 0 32-32v-160a32 32 0 0 0 -32-32zm-32 160h-448v-32h448z"/></svg>