<svg viewBox="0 0 384 512"><path d="m304 432v32h-224v-32zm32-48h-288a16 16 0 0 0 -16 16v96a16 16 0 0 0 16 16h288a16 16 0 0 0 16-16v-96a16 16 0 0 0 -16-16z" opacity=".4"/><path d="m378.94 321.41-94.24-97.41h49.22c15.3 0 23.66-16.6 13.86-27.53l-113.33-126.47a47.45 47.45 0 0 0 5.55-22 48 48 0 0 0 -96 0 47.45 47.45 0 0 0 5.55 22l-113.33 126.47c-9.8 10.93-1.44 27.53 13.86 27.53h49.22l-94.24 97.41c-11.75 12.15-1.72 30.59 16.64 30.59h138.3v32h64v-32h138.3c18.36 0 28.39-18.44 16.64-30.59zm-186.94-257.41a16 16 0 1 1 16-16 16 16 0 0 1 -16 16z"/></svg>