<svg viewBox="0 0 512 512"><path d="m435.25 422a222.7 222.7 0 0 0 44.75-134c0-123.71-100.3-224-224-224s-224 100.29-224 224a222.7 222.7 0 0 0 44.79 134l-40.1 40.09a16 16 0 0 0 0 22.63l22.62 22.62a16 16 0 0 0 22.63 0l40.06-40.12a222.82 222.82 0 0 0 268 0l40.1 40.09a16 16 0 0 0 22.63 0l22.62-22.62a16 16 0 0 0 0-22.63zm-67.25-126a16 16 0 0 1 -16 16h-72v72a16 16 0 0 1 -16 16h-16a16 16 0 0 1 -16-16v-72h-72a16 16 0 0 1 -16-16v-16a16 16 0 0 1 16-16h72v-72a16 16 0 0 1 16-16h16a16 16 0 0 1 16 16v72h72a16 16 0 0 1 16 16z" opacity=".4"/><path d="m352 264h-72v-72a16 16 0 0 0 -16-16h-16a16 16 0 0 0 -16 16v72h-72a16 16 0 0 0 -16 16v16a16 16 0 0 0 16 16h72v72a16 16 0 0 0 16 16h16a16 16 0 0 0 16-16v-72h72a16 16 0 0 0 16-16v-16a16 16 0 0 0 -16-16zm-256-264a96 96 0 0 0 -96 96 94.81 94.81 0 0 0 15.3 51.26l145.9-121.58a95.61 95.61 0 0 0 -65.2-25.68zm320 0a95.68 95.68 0 0 0 -65.18 25.66l145.9 121.57a94.93 94.93 0 0 0 15.28-51.23 96 96 0 0 0 -96-96z"/></svg>