<svg viewBox="0 0 512 512"><path d="m434.55 422a223.27 223.27 0 0 0 44.61-134c0-123.71-99.9-224-223.14-224s-223.14 100.29-223.14 224a223.27 223.27 0 0 0 44.61 134l-39.95 40.06a16.05 16.05 0 0 0 0 22.63l22.54 22.62a15.89 15.89 0 0 0 22.54 0l39.94-40.09a221.27 221.27 0 0 0 266.92 0l39.94 40.09a15.89 15.89 0 0 0 22.54 0l22.53-22.62a16 16 0 0 0 0-22.63zm-178.55-6a32 32 0 1 1 31.88-32 31.91 31.91 0 0 1 -31.88 32zm38.05-238.4-12.75 128a15.91 15.91 0 0 1 -15.82 14.4h-18.93a15.92 15.92 0 0 1 -15.84-14.4l-12.71-128a16 16 0 0 1 15.8-17.6h44.42a15.92 15.92 0 0 1 15.84 17.6z" opacity=".4"/><path d="m1 96a95.11 95.11 0 0 0 15.24 51.26l145.33-121.58a95 95 0 0 0 -64.95-25.68c-52.79 0-95.62 43-95.62 96zm414.38-96a95.09 95.09 0 0 0 -64.93 25.66l145.33 121.57a95.13 95.13 0 0 0 15.22-51.23c0-53-42.83-96-95.62-96zm-159.38 352a32 32 0 1 0 31.88 32 31.91 31.91 0 0 0 -31.88-32zm22.21-192h-44.41a16 16 0 0 0 -15.8 17.6l12.76 128a15.92 15.92 0 0 0 15.79 14.4h18.93a15.91 15.91 0 0 0 15.83-14.4l12.75-128a15.92 15.92 0 0 0 -15.84-17.6z"/></svg>