<svg viewBox="0 0 512 512"><path d="m434.55 422a223.27 223.27 0 0 0 44.61-134c0-123.71-99.91-224-223.14-224s-223.14 100.29-223.14 224a223.21 223.21 0 0 0 44.61 134l-39.95 40.06a16.05 16.05 0 0 0 0 22.63l22.54 22.62a15.89 15.89 0 0 0 22.54 0l39.94-40.09a221.25 221.25 0 0 0 266.91 0l39.95 40.09a15.89 15.89 0 0 0 22.54 0l22.53-22.62a16 16 0 0 0 0-22.63zm-96.15-199-96.4 121h77.77a16 16 0 0 1 15.93 16v16a16 16 0 0 1 -15.93 16h-127.54a24 24 0 0 1 -18.67-39l96.44-121h-77.77a16 16 0 0 1 -15.94-16v-16a16 16 0 0 1 15.94-16h127.51a24 24 0 0 1 18.66 39z" opacity=".4"/><path d="m319.74 184h-127.51a16 16 0 0 0 -15.94 16v16a16 16 0 0 0 15.94 16h77.77l-96.44 121a24 24 0 0 0 18.67 39h127.51a16 16 0 0 0 15.93-16v-16a16 16 0 0 0 -15.93-16h-77.74l96.4-121a24 24 0 0 0 -18.66-39zm-318.74-88a95.11 95.11 0 0 0 15.24 51.26l145.33-121.58a95 95 0 0 0 -64.95-25.68c-52.79 0-95.62 43-95.62 96zm414.38-96a95.09 95.09 0 0 0 -64.93 25.66l145.32 121.57a95.14 95.14 0 0 0 15.23-51.23c0-53-42.84-96-95.62-96z"/></svg>