<svg viewBox="0 0 512 512"><path d="m474.49 462.06-39.94-40.06a223.25 223.25 0 0 0 44.61-134c0-123.71-99.9-224-223.14-224s-223.14 100.29-223.14 224a223.25 223.25 0 0 0 44.61 134l-39.95 40.06a16.05 16.05 0 0 0 0 22.63l22.54 22.62a15.9 15.9 0 0 0 22.47.07l.07-.07 39.94-40.09a221.26 221.26 0 0 0 266.92 0l39.94 40.09a15.9 15.9 0 0 0 22.47.07l.07-.07 22.53-22.62a16 16 0 0 0 0-22.63zm-128.49-106.55-20 25a16 16 0 0 1 -22.49 2.5l-64.51-51.62a40 40 0 0 1 -15-31.23v-124.16a16 16 0 0 1 16-16h32a16 16 0 0 1 16 16v112.62l55.5 44.38a16 16 0 0 1 2.5 22.51z" opacity=".4"/><path d="m1 96a95.08 95.08 0 0 0 15.24 51.26l145.33-121.58a95 95 0 0 0 -64.95-25.68c-52.79 0-95.62 43-95.62 96zm342.5 237-55.5-44.38v-112.62a16 16 0 0 0 -16-16h-32a16 16 0 0 0 -16 16v124.16a40 40 0 0 0 15 31.23l64.51 51.61a16 16 0 0 0 22.49-2.5l20-25a16 16 0 0 0 -2.5-22.5zm71.88-333a95.08 95.08 0 0 0 -64.93 25.66l145.33 121.57a95.13 95.13 0 0 0 15.22-51.23c0-53-42.83-96-95.62-96z"/></svg>