<svg viewBox="0 0 512 512"><path d="m480 160h-448a32 32 0 0 0 -31.87 34.9l26.19 288a32 32 0 0 0 31.86 29.1h395.64a32 32 0 0 0 31.86-29.1l26.19-288a32 32 0 0 0 -31.87-34.9zm-224 312.89c-94.26 0-174.39-54.53-179.2-125.15-5.09-74.64 75.02-138.34 179.2-138.34s184.29 63.7 179.2 138.34c-4.81 70.63-84.93 125.15-179.2 125.15z" opacity=".4"/><path d="m480 24a24 24 0 0 0 -24-24h-400a24 24 0 0 0 -24 24v24h448zm-8 56h-432a24 24 0 0 0 -24 24v24h480v-24a24 24 0 0 0 -24-24zm-216 129.4c-104.18 0-184.29 63.7-179.19 138.34 4.81 70.62 84.94 125.15 179.2 125.15s174.38-54.52 179.19-125.15c5.09-74.64-75.02-138.34-179.2-138.34zm0 160.06c-16.36 0-29.73-9.68-29.86-21.72s13.23-22.09 29.86-22.09 30 9.93 29.87 22.09-13.51 21.72-29.87 21.72z"/></svg>