<svg viewBox="0 0 640 512"><path d="m64.36 215.74a39.94 39.94 0 0 0 -16.36 32.26v56a16 16 0 0 1 -16 16h-16a16 16 0 0 1 -16-16v-56a88 88 0 0 1 88-88h.45a95.57 95.57 0 0 0 -24.09 55.74zm567.64-183.74h-100.07a52.6 52.6 0 0 1 -10.28 8.3c5.11 5.38 9.91 10.47 13.69 14.5a31.76 31.76 0 0 1 8.58 21.8v6.74l92.49-36.69a8 8 0 0 0 -4.41-14.65z" opacity=".4"/><path d="m535.34 54.8c-3.78-4-8.58-9.12-13.69-14.5 11.06-6.84 19.5-17.49 22.18-30.66a8.09 8.09 0 0 0 -7.93-9.64h-120c-69.23 0-127.9 64-127.9 128h-.08c-63.92 0-104.2-36.78-127.66-90.27-3.22-7.35-13.61-7.76-17-.5a158.37 158.37 0 0 0 -15.26 67.87c0 67 51 136.25 128 150.9-96.87 0-138.75-73.3-153.39-109a96 96 0 0 0 -8.16 147.09l-25.63 68.39a63.94 63.94 0 0 0 -2.16 38l24.85 99.41a16 16 0 0 0 15.49 12.11h66a16 16 0 0 0 15.52-19.88l-26.33-105.26 23.81-63.59 102 22.31v150.42a16 16 0 0 0 16 16h64a16 16 0 0 0 16-16v-177.78a111.55 111.55 0 0 0 32-78.22c0-.22-.07-.42-.08-.64v-102.47l16 7.11 18.9 37.7a32 32 0 0 0 40.49 15.37l32.55-13a32 32 0 0 0 20.14-29.76l-.06-77.71a31.76 31.76 0 0 0 -8.6-21.8zm-55.42 41.2a16 16 0 1 1 16-16 16 16 0 0 1 -16 16z"/></svg>