<svg viewBox="0 0 448 512"><path d="m224 0c-123.71875 0-224 88.0293-224 232.45117 0 111.77735 134.21484 224.59766 194.86328 269.87305a48.70766 48.70766 0 0 0 58.27344 0c60.64844-45.27539 194.86328-158.0957 194.86328-269.87305 0-144.42187-100.28125-232.45117-224-232.45117zm-48 320h-32a80.00021 80.00021 0 0 1 -80-80 15.99954 15.99954 0 0 1 16-16h32a79.999 79.999 0 0 1 80 80 16.00079 16.00079 0 0 1 -16 16zm128 0h-32a16.00079 16.00079 0 0 1 -16-16 79.999 79.999 0 0 1 80-80h32a15.99954 15.99954 0 0 1 16 16 80.00021 80.00021 0 0 1 -80 80z" opacity=".4"/><path d="m112 224h-32a15.99954 15.99954 0 0 0 -16 16 80.00021 80.00021 0 0 0 80 80h32a16.00079 16.00079 0 0 0 16-16 79.999 79.999 0 0 0 -80-80zm256 0h-32a79.999 79.999 0 0 0 -80 80 16.00079 16.00079 0 0 0 16 16h32a80.00021 80.00021 0 0 0 80-80 15.99954 15.99954 0 0 0 -16-16z"/></svg>