<svg viewBox="0 0 640 512"><path d="m528 352h-31.46l-82.81-64h114.27a16 16 0 0 1 16 16v32a16 16 0 0 1 -16 16zm-432-48v32a16 16 0 0 0 16 16h175.21l-82.8-64h-92.41a16 16 0 0 0 -16 16zm432-208a16 16 0 0 0 16-16v-32a16 16 0 0 0 -16-16h-416a15.82 15.82 0 0 0 -15 11.18l68.31 52.82zm-416 320a16 16 0 0 0 -16 16v32a16 16 0 0 0 16 16h340.83l-82.83-64zm416-256h-279.88l82.81 64h197.07a16 16 0 0 0 16-16v-32a16 16 0 0 0 -16-16z" opacity=".4"/><path d="m633.82 458.1-588.36-454.72a16 16 0 0 0 -22.46 2.81l-19.63 25.27a16 16 0 0 0 2.81 22.45l588.36 454.72a16 16 0 0 0 22.46-2.81l19.64-25.27a16 16 0 0 0 -2.82-22.45z"/></svg>