<svg viewBox="0 0 448 512"><path d="m416 112a32.09 32.09 0 0 0 -32 32v72a8 8 0 0 1 -8 8h-16a8 8 0 0 1 -8-8v-152a32 32 0 0 0 -64 0v152a8 8 0 0 1 -8 8h-16a8 8 0 0 1 -8-8v-184a32 32 0 0 0 -64 0v184a8 8 0 0 1 -8 8h-16a8 8 0 0 1 -8-8v-152a32 32 0 1 0 -64 0v241l-23.6-32.49a40 40 0 0 0 -64.73 47.03l125.61 172.66a48.08 48.08 0 0 0 38.8 19.8h197.62a47.93 47.93 0 0 0 46.7-37l26.5-112.68a201.29 201.29 0 0 0 5.1-42.32v-176a32.09 32.09 0 0 0 -32-32zm-240 176a16 16 0 1 1 -16 16 16 16 0 0 1 16-16zm0 127.92a16 16 0 1 1 16-16 16 16 0 0 1 -16 16zm64 32.08a16 16 0 1 1 16-16 16 16 0 0 1 -16 16zm0-96.07a16 16 0 1 1 16-16 16 16 0 0 1 -16 16zm64 32.07a16 16 0 1 1 16-16 16 16 0 0 1 -16 16zm32 63.91a16 16 0 1 1 16-16 16 16 0 0 1 -16 16zm32-127.91a16 16 0 1 1 16-16 16 16 0 0 1 -16 16z" opacity=".4"/><path d="m176 288a16 16 0 1 0 16 16 16 16 0 0 0 -16-16zm64 128a16 16 0 1 0 16 16 16 16 0 0 0 -16-16zm64-64a16 16 0 1 0 16 16 16 16 0 0 0 -16-16zm64-64a16 16 0 1 0 16 16 16 16 0 0 0 -16-16z"/></svg>