<svg viewBox="0 0 640 512"><path d="m464 352a80 80 0 1 0 80 80 80 80 0 0 0 -80-80zm-288 0a80 80 0 1 0 80 80 80 80 0 0 0 -80-80zm120-224h-56v-56a8 8 0 0 0 -8-8h-48a8 8 0 0 0 -8 8v56h-56a8 8 0 0 0 -8 8v48a8 8 0 0 0 8 8h56v56a8 8 0 0 0 8 8h48a8 8 0 0 0 8-8v-56h56a8 8 0 0 0 8-8v-48a8 8 0 0 0 -8-8z" opacity=".4"/><path d="m624 352h-16v-108.1a48 48 0 0 0 -14.1-33.9l-99.9-99.9a48 48 0 0 0 -33.9-14.1h-44.1v-48a48 48 0 0 0 -48-48h-320a48 48 0 0 0 -48 48v320a48 48 0 0 0 48 48h18.16c7.84-54.07 53.62-96 109.84-96s102.54 41.86 110.38 96h67.24c7.85-54.14 54.1-96 110.38-96s102 41.93 109.84 96h50.16a16 16 0 0 0 16-16v-32a16 16 0 0 0 -16-16zm-320-168a8 8 0 0 1 -8 8h-56v56a8 8 0 0 1 -8 8h-48a8 8 0 0 1 -8-8v-56h-56a8 8 0 0 1 -8-8v-48a8 8 0 0 1 8-8h56v-56a8 8 0 0 1 8-8h48a8 8 0 0 1 8 8v56h56a8 8 0 0 1 8 8zm256 72h-144v-112h44.1l99.9 99.9z"/></svg>