<svg viewBox="0 0 512 512"><path d="m321 403a16 16 0 1 0 -16-16 16 16 0 0 0 16 16zm-64-128a16 16 0 0 0 16-16h-32a16 16 0 0 0 16 16zm-32 96a16 16 0 1 0 -16-16 16 16 0 0 0 16 16zm32-64a16 16 0 1 0 16 16 16 16 0 0 0 -16-16zm0 96a16 16 0 1 0 -16-16 16 16 0 0 0 16 16zm32-32a16 16 0 1 0 -16-16 16 16 0 0 0 16 16zm64 0a16 16 0 1 0 -16-16 16 16 0 0 0 16 16zm32 32a16 16 0 1 0 -16-16 16 16 0 0 0 16 16zm-64-128a16 16 0 0 0 16-16h-32a16 16 0 0 0 16 16zm0 32a16 16 0 1 0 16 16 16 16 0 0 0 -16-16zm32 0a16 16 0 1 0 -16-16 16 16 0 0 0 16 16zm-64 0a16 16 0 1 0 -16-16 16 16 0 0 0 16 16zm-160 0a16 16 0 1 0 16 16 16 16 0 0 0 -16-16zm-32 32a16 16 0 1 0 16 16 16 16 0 0 0 -16-16zm288-32a16 16 0 1 0 16 16 16 16 0 0 0 -16-16zm-256 96a16 16 0 1 0 -16-16 16 16 0 0 0 16 16zm288-96a16 16 0 1 0 -16-16 16 16 0 0 0 16 16zm-224-32a16 16 0 0 0 16-16h-32a16 16 0 0 0 16 16zm-32 32a16 16 0 1 0 -16-16 16 16 0 0 0 16 16zm64 0a16 16 0 1 0 -16-16 16 16 0 0 0 16 16zm-32 0a16 16 0 1 0 16 16 16 16 0 0 0 -16-16zm0 96a16 16 0 1 0 -16-16 16 16 0 0 0 16 16zm-32-32a16 16 0 1 0 -16-16 16 16 0 0 0 16 16zm-32-96a16 16 0 0 0 16-16h-32a16 16 0 0 0 16 16zm224 128a16 16 0 1 0 16 16 16 16 0 0 0 -16-16zm-32 32a16 16 0 0 0 -16 16h32a16 16 0 0 0 -16-16zm-64 0a16 16 0 0 0 -16 16h32a16 16 0 0 0 -16-16zm32-32a16 16 0 1 0 16 16 16 16 0 0 0 -16-16zm96 32a16 16 0 0 0 -16 16h32a16 16 0 0 0 -16-16zm32-32a16 16 0 1 0 16 16 16 16 0 0 0 -16-16zm16-144a16 16 0 0 0 16 16v-16zm-208 144a16 16 0 1 0 16 16 16 16 0 0 0 -16-16zm208-80a16 16 0 0 0 16 16v-32a16 16 0 0 0 -16 16zm0 64a16 16 0 0 0 16 16v-32a16 16 0 0 0 -16 16zm-48-112a16 16 0 0 0 16-16h-32a16 16 0 0 0 16 16zm48 176h16v-16a16 16 0 0 0 -16 16zm-352-192h-16v16a16 16 0 0 0 16-16zm0 64a16 16 0 0 0 -16-16v32a16 16 0 0 0 16-16zm336 48a16 16 0 1 0 -16-16 16 16 0 0 0 16 16zm-320-64a16 16 0 1 0 -16-16 16 16 0 0 0 16 16zm-16 80a16 16 0 0 0 -16-16v32a16 16 0 0 0 16-16zm48 48a16 16 0 0 0 -16 16h32a16 16 0 0 0 -16-16zm-64 0v16h16a16 16 0 0 0 -16-16zm128 0a16 16 0 0 0 -16 16h32a16 16 0 0 0 -16-16zm-32-32a16 16 0 1 0 16 16 16 16 0 0 0 -16-16zm-64 0a16 16 0 1 0 16 16 16 16 0 0 0 -16-16zm160-352c26.89 0 54 14.79 76.25 32h70.25c-24.75-27.29-80.99-80-146.5-80s-121.75 52.71-146.5 80h70.25c22.25-17.21 49.37-32 76.25-32z" opacity=".4"/><path d="m465 83h-416a48 48 0 0 0 -48 48v336a48 48 0 0 0 48 48h416a48 48 0 0 0 48-48v-336a48 48 0 0 0 -48-48zm-120 64a24 24 0 1 1 -24 24 24 24 0 0 1 24-24zm-176 0a24 24 0 1 1 -24 24 24 24 0 0 1 24-24zm-80 0a24 24 0 1 1 -24 24 24 24 0 0 1 24-24zm360 304h-384v-192h384zm-24-256a24 24 0 1 1 24-24 24 24 0 0 1 -24 24z"/></svg>