<svg viewBox="0 0 576 512"><path d="m372 192h-52v-5.47a96 96 0 0 0 64-90.53c0-52.22-42.36-95.25-94.58-96a96 96 0 0 0 -33.42 186.54v5.46h-52a12 12 0 0 0 -12 12v40a12 12 0 0 0 12 12h168a12 12 0 0 0 12-12v-40a12 12 0 0 0 -12-12zm-84-128a32 32 0 1 1 -32 32 32 32 0 0 1 32-32z" opacity=".4"/><path d="m564 352h-32.51c-21.86 102.62-136.88 160-243.49 160-106.41 0-221.58-57.27-243.46-160h-32.54a12 12 0 0 1 -8.51-20.49l67.26-67a12.07 12.07 0 0 1 17 0l67.26 67a12 12 0 0 1 -8.46 20.49h-35.26c20.37 54.34 85.47 86.62 144.61 94v-158h64.22v158c59.36-7.43 124.26-39.7 144.62-94h-35.26a12 12 0 0 1 -8.48-20.49l67.26-67a12.07 12.07 0 0 1 17 0l67.26 67a12 12 0 0 1 -8.52 20.49z"/></svg>