<svg viewBox="0 0 576 512"><path d="m384 64c0 2.3-3.3 6.1-9.1 10.3a117.38 117.38 0 0 1 16.6 27.1c15.24-10.5 24.5-23.4 24.5-37.4 0-35.3-57.3-64-128-64s-128 28.7-128 64c0 14 9.3 26.9 24.5 37.4a108.79 108.79 0 0 1 16.6-27.1c-5.8-4.1-9.1-7.9-9.1-10.3 0-8 34-32 96-32s96 24 96 32zm187.77 389.1-38.17-78.6a49.38 49.38 0 0 1 0-43.1c4.79-9.8 8.69-16.7 11.89-22.1 9.51-16.6 14.51-26.5 14.51-53.3 0-51.1-46.87-96-100.35-96a93 93 0 0 0 -66.26 28.1l-72.54 73.27a103.63 103.63 0 0 1 60 52.13l99.15 198.5h55.6a40.29 40.29 0 0 0 34.18-19 41.12 41.12 0 0 0 1.99-39.9zm-455.43-293.1c-53.48 0-100.34 44.9-100.34 96 0 26.8 5 36.7 14.52 53.3 3.2 5.4 7.1 12.3 11.89 22.1a49.38 49.38 0 0 1 0 43.1l-38.18 78.6a41.12 41.12 0 0 0 2 39.9 40.29 40.29 0 0 0 34.17 19h55.6l99.22-198.5a103.63 103.63 0 0 1 60-52.13l-72.62-73.27a93 93 0 0 0 -66.26-28.1z" opacity=".4"/><path d="m288 224a80 80 0 1 0 -80-80 80 80 0 0 0 80 80zm93.4 89.54a104.58 104.58 0 0 0 -186.8 0l-98.6 198.46h384z"/></svg>