<svg viewBox="0 0 512 512"><path d="m424.17 80.61c-18.13-3-51.9 6.18-72.49 17.69-17-9.52-42.45-17-61.15-17.79 1.82 2.21 3.83 4.17 5.5 6.58 20.84 30.15 25.74 72.3 22.17 104.91h159.8c5.25-39.47-5.16-102.65-53.83-111.39zm-213.64-30.14c11.29-12.19 14.47-32.03 13.22-50.22-12.88-.86-35.67-.12-50 13.28-16.55 16.6-13.75 46.36-13.24 50.22 18.49 1.25 37.77-1.85 50.02-13.28zm191.69 0c11.29-12.19 14.43-32 13.22-50.22-12.88-.86-35.67-.12-50 13.28-16.53 16.6-13.77 46.36-13.22 50.22 18.45 1.25 37.78-1.85 50-13.28zm-169.74 30.14c-18.13-3-51.9 6.18-72.48 17.69-20.66-11.56-54.43-20.71-72.48-17.69-48.61 8.73-58.99 72.27-53.82 111.39h252.6c5.26-39.47-5.15-102.65-53.82-111.39z" opacity=".4"/><path d="m496 224h-480a16 16 0 0 0 -16 16v112h512v-112a16 16 0 0 0 -16-16zm-432 80a16 16 0 1 1 16-16 16 16 0 0 1 -16 16zm384 0a16 16 0 1 1 16-16 16 16 0 0 1 -16 16zm-448 192a16 16 0 0 0 16 16h480a16 16 0 0 0 16-16v-112h-512zm448-64a16 16 0 1 1 -16 16 16 16 0 0 1 16-16zm-384 0a16 16 0 1 1 -16 16 16 16 0 0 1 16-16z"/></svg>