<svg viewBox="0 0 512 512"><path d="m440 256-34.68 32h-117.32v117.34l-32 34.66-32-34.68v-117.32h-117.34l-34.66-32 34.68-32h117.32v-117.34l32-34.66 32 34.67v117.33h117.34z" opacity=".4"/><path d="m128.57 170.71-.46-.47-10.83-10.84a24 24 0 0 0 -33.93 0l-74 74a32 32 0 0 0 0 45.24l74 74a24 24 0 0 0 33.93 0l10.83-10.84.46-.47a24 24 0 0 0 -.93-33.92l-55.64-51.41 55.66-51.37a24 24 0 0 0 .91-33.92zm374.05 62.67-74-74a24 24 0 0 0 -33.93 0l-10.83 10.84-.46.47a24 24 0 0 0 .93 33.92l55.67 51.39-55.66 51.37a24 24 0 0 0 -.93 33.92l.46.47 10.83 10.84a24 24 0 0 0 33.93 0l74-74a32 32 0 0 0 0-45.24zm-160.86 150.51-.47-.46a24 24 0 0 0 -33.92.93l-51.37 55.64-51.37-55.66a24 24 0 0 0 -33.92-.93l-.47.46-10.84 10.85a24 24 0 0 0 0 33.93l74 74a32 32 0 0 0 45.24 0l74-74a24 24 0 0 0 0-33.93zm-63.14-374.51a32 32 0 0 0 -45.24 0l-74 74a24 24 0 0 0 0 33.93l10.84 10.83.47.46a24 24 0 0 0 33.92-.93l51.39-55.67 51.37 55.66a24 24 0 0 0 33.92.93l.47-.46 10.84-10.83a24 24 0 0 0 0-33.93z"/></svg>