<svg viewBox="0 0 512 512"><path d="m256 8c-137 0-248 111-248 248s111 248 248 248 248-111 248-248-111-248-248-248zm128 280.33a12.08 12.08 0 0 1 -12 12.1h-115.84v71.41c0 10.79-12.89 16.24-20.48 8.57l-114.16-115.89a12.08 12.08 0 0 1 0-17l114.16-115.93c7.49-7.67 20.48-2.22 20.48 8.57v71.51h115.84a12.08 12.08 0 0 1 12 12.1z" opacity=".4"/><path d="m384 223.77v64.56a12.08 12.08 0 0 1 -12 12.1h-115.84v71.41c0 10.79-12.89 16.24-20.48 8.57l-114.16-115.89a12.08 12.08 0 0 1 0-17l114.16-115.93c7.49-7.67 20.48-2.22 20.48 8.57v71.51h115.84a12.08 12.08 0 0 1 12 12.1z"/></svg>