<svg viewBox="0 0 512 512"><path d="m256 8c-137 0-248 111-248 248s111 248 248 248 248-111 248-248-111-248-248-248zm134.48 256.52-114.16 115.89c-7.49 7.67-20.48 2.22-20.48-8.57v-71.51h-115.84a12.08 12.08 0 0 1 -12-12.1v-64.56a12.08 12.08 0 0 1 12-12.1h115.84v-71.41c0-10.79 12.89-16.24 20.48-8.57l114.16 115.89a12.08 12.08 0 0 1 0 17.04z" opacity=".4"/><path d="m128 288.23v-64.56a12.08 12.08 0 0 1 12-12.1h115.84v-71.41c0-10.79 12.89-16.24 20.48-8.57l114.16 115.89a12.08 12.08 0 0 1 0 17l-114.16 115.93c-7.49 7.67-20.48 2.22-20.48-8.57v-71.51h-115.84a12.08 12.08 0 0 1 -12-12.1z"/></svg>