<svg viewBox="0 0 512 512"><path d="m405.66 288h-299.32l-33.77-32 33.77-32h299.32l33.77 32z" opacity=".4"/><path d="m358.59 146.37a23.93 23.93 0 0 0 .94 33.92l79.9 75.71-79.9 75.71a23.93 23.93 0 0 0 -.94 33.92l11.31 11.37a24.15 24.15 0 0 0 34.1 0l98.65-98.36a31.92 31.92 0 0 0 0-45.24l-98.65-98.4a24.15 24.15 0 0 0 -34.05 0zm-205.18 219.26a23.93 23.93 0 0 0 -.94-33.92l-79.9-75.71 79.9-75.71a23.93 23.93 0 0 0 .94-33.92l-11.31-11.37a24.15 24.15 0 0 0 -34 0l-98.7 98.38a31.92 31.92 0 0 0 0 45.24l98.65 98.38a24.15 24.15 0 0 0 34.05 0z"/></svg>