<svg viewBox="0 0 256 512"><path d="m160 106.34v299.32l-32 33.77-32-33.77v-299.32l32-33.77z" opacity=".4"/><path d="m18.37 153.41a23.93 23.93 0 0 0 33.92-.94l75.71-79.9 75.71 79.9a23.93 23.93 0 0 0 33.92.94l11.37-11.31a24.15 24.15 0 0 0 0-34l-98.38-98.7a31.92 31.92 0 0 0 -45.24 0l-98.38 98.65a24.15 24.15 0 0 0 0 34.05zm219.26 205.18a23.93 23.93 0 0 0 -33.92.94l-75.71 79.9-75.71-79.9a23.93 23.93 0 0 0 -33.92-.94l-11.37 11.31a24.15 24.15 0 0 0 0 34.1l98.36 98.65a31.92 31.92 0 0 0 45.24 0l98.4-98.65a24.15 24.15 0 0 0 0-34.05z"/></svg>