<svg viewBox="0 0 512 512"><path d="m256 8c-137 0-248 111-248 248s111 248 248 248 248-111 248-248-111-248-248-248zm160 256a23.94 23.94 0 0 1 -24 24h-182.6l75.5 72.4a24 24 0 0 1 .4 34.3l-11 10.9a23.9 23.9 0 0 1 -33.9 0l-132.7-132.7a23.9 23.9 0 0 1 0-33.9l132.7-132.6a23.9 23.9 0 0 1 33.9 0l11 10.9a24 24 0 0 1 -.4 34.3l-75.5 72.4h182.6a23.94 23.94 0 0 1 24 24z" opacity=".4"/><path d="m285.3 394.7-11 10.9a23.9 23.9 0 0 1 -33.9 0l-132.7-132.7a23.9 23.9 0 0 1 0-33.9l132.7-132.6a23.9 23.9 0 0 1 33.9 0l11 10.9a24 24 0 0 1 -.4 34.3l-75.5 72.4h182.6a23.94 23.94 0 0 1 24 24v16a23.94 23.94 0 0 1 -24 24h-182.6l75.5 72.4a24 24 0 0 1 .4 34.3z"/></svg>