<svg viewBox="0 0 512 512"><path d="m384 288h-96v96h-64v-96h-96v-64h96v-96h64v96h96z" opacity=".4"/><path d="m504.93 239.07-79.7-79c-15.23-15.07-41.23-4.4-41.23 16.93v158c0 21.34 26 32 41.23 16.93l79.7-79 .2-.2a23.8 23.8 0 0 0 -.2-33.66zm-418.16-79-79.7 79-.2.2a23.8 23.8 0 0 0 .2 33.66l79.7 79c15.23 15.07 41.23 4.4 41.23-16.93v-158c0-21.34-26-32-41.23-16.93zm248.23 223.93h-158c-21.34 0-32 26-16.93 41.23l79 79.7.2.2a23.8 23.8 0 0 0 33.66-.2l79-79.7c15.07-15.23 4.4-41.23-16.93-41.23zm-62.07-376.93-.2-.2a23.8 23.8 0 0 0 -33.66.2l-79 79.7c-15.07 15.23-4.4 41.23 16.93 41.23h158c21.34 0 32-26 16.93-41.23z"/></svg>