<svg viewBox="0 0 384 512"><path d="m360 480h-336a23.94 23.94 0 0 1 -24-23.88v-16.12a23.94 23.94 0 0 1 23.88-24h336.12a23.94 23.94 0 0 1 24 23.88v16.12a23.94 23.94 0 0 1 -23.88 24z" opacity=".4"/><path d="m327.87 190.52 17.06 17a23.86 23.86 0 0 1 .17 33.74l-.17.17-135.93 135.57a24 24 0 0 1 -33.94.06l-.06-.06-135.93-135.57a23.86 23.86 0 0 1 -.17-33.74l.17-.17 17.06-17a24 24 0 0 1 33.94-.06l.06.06 65.81 65.61v-200.13a24 24 0 0 1 24-24h24.14a24 24 0 0 1 24.07 23.93v200.2l65.85-65.61a23.91 23.91 0 0 1 33.8-.07z"/></svg>