<svg viewBox="0 0 448 512"><path d="m400 32h-352a48 48 0 0 0 -48 48v352a48 48 0 0 0 48 48h352a48 48 0 0 0 48-48v-352a48 48 0 0 0 -48-48zm-40.52 232.57-115.16 115.85c-7.49 7.66-20.32 2.21-20.32-8.57v-71.49h-116a12.07 12.07 0 0 1 -12-12.1v-64.52a12.07 12.07 0 0 1 12-12.1h116v-71.49c0-10.78 12.83-16.23 20.32-8.57l115.16 116a12.08 12.08 0 0 1 0 16.99z" opacity=".4"/><path d="m96 288.26v-64.52a12.07 12.07 0 0 1 12-12.1h116v-71.49c0-10.78 12.83-16.23 20.32-8.57l115.16 116a12.08 12.08 0 0 1 0 17l-115.16 115.84c-7.49 7.66-20.32 2.21-20.32-8.57v-71.49h-116a12.07 12.07 0 0 1 -12-12.1z"/></svg>