<svg viewBox="0 0 512 512"><path d="m256 8c-137 0-248 111-248 248s111 248 248 248 248-111 248-248-111-248-248-248zm148.3 265-132.7 132.6a23.9 23.9 0 0 1 -33.9 0l-11-10.9a24 24 0 0 1 .4-34.3l75.5-72.4h-182.6a23.94 23.94 0 0 1 -24-24v-16a23.94 23.94 0 0 1 24-24h182.6l-75.5-72.4a24.15 24.15 0 0 1 -.4-34.4l11-10.9a23.9 23.9 0 0 1 33.9 0l132.7 132.8a23.9 23.9 0 0 1 0 33.9z" opacity=".4"/><path d="m226.7 117.2 11-10.9a23.9 23.9 0 0 1 33.9 0l132.7 132.8a23.9 23.9 0 0 1 0 33.9l-132.7 132.6a23.9 23.9 0 0 1 -33.9 0l-11-10.9a24 24 0 0 1 .4-34.3l75.5-72.4h-182.6a23.94 23.94 0 0 1 -24-24v-16a23.94 23.94 0 0 1 24-24h182.6l-75.5-72.4a24.15 24.15 0 0 1 -.4-34.4z"/></svg>