<svg viewBox="0 0 448 512"><path d="m400 32h-352a48 48 0 0 0 -48 48v352a48 48 0 0 0 48 48h352a48 48 0 0 0 48-48v-352a48 48 0 0 0 -48-48zm-48 256.26a12.07 12.07 0 0 1 -12 12.1h-116v71.49c0 10.78-12.83 16.23-20.32 8.57l-115.16-115.95a12.08 12.08 0 0 1 0-17l115.16-115.89c7.49-7.66 20.32-2.21 20.32 8.57v71.49h116a12.07 12.07 0 0 1 12 12.1z" opacity=".4"/><path d="m352 223.74v64.52a12.07 12.07 0 0 1 -12 12.1h-116v71.49c0 10.78-12.83 16.23-20.32 8.57l-115.16-115.95a12.08 12.08 0 0 1 0-17l115.16-115.89c7.49-7.66 20.32-2.21 20.32 8.57v71.49h116a12.07 12.07 0 0 1 12 12.1z"/></svg>