<svg viewBox="0 0 512 512"><path d="m256 8c-137 0-248 111-248 248s111 248 248 248 248-111 248-248-111-248-248-248zm115.84 248.16h-71.51v115.84a12.08 12.08 0 0 1 -12.1 12h-64.56a12.08 12.08 0 0 1 -12.1-12v-115.84h-71.41c-10.79 0-16.24-12.89-8.57-20.48l115.89-114.16a12.08 12.08 0 0 1 17 0l115.93 114.16c7.67 7.49 2.22 20.48-8.57 20.48z" opacity=".4"/><path d="m288.23 384h-64.56a12.08 12.08 0 0 1 -12.1-12v-115.84h-71.41c-10.79 0-16.24-12.89-8.57-20.48l115.89-114.16a12.08 12.08 0 0 1 17 0l115.93 114.16c7.67 7.49 2.22 20.48-8.57 20.48h-71.51v115.84a12.08 12.08 0 0 1 -12.1 12z"/></svg>