<svg viewBox="0 0 512 512"><path d="m256 8c-137 0-248 111-248 248s111 248 248 248 248-111 248-248-111-248-248-248zm124.41 268.32-115.89 114.16a12.08 12.08 0 0 1 -17 0l-115.93-114.16c-7.67-7.49-2.22-20.48 8.57-20.48h71.51v-115.84a12.08 12.08 0 0 1 12.1-12h64.56a12.08 12.08 0 0 1 12.1 12v115.84h71.41c10.79 0 16.24 12.89 8.57 20.48z" opacity=".4"/><path d="m223.77 128h64.56a12.08 12.08 0 0 1 12.1 12v115.84h71.41c10.79 0 16.24 12.89 8.57 20.48l-115.89 114.16a12.08 12.08 0 0 1 -17 0l-115.93-114.16c-7.67-7.49-2.22-20.48 8.57-20.48h71.51v-115.84a12.08 12.08 0 0 1 12.1-12z"/></svg>