<svg viewBox="0 0 448 512"><path d="m400 32h-352a48 48 0 0 0 -48 48v352a48 48 0 0 0 48 48h352a48 48 0 0 0 48-48v-352a48 48 0 0 0 -48-48zm-26.4 239.6-132.7 132.7a23.9 23.9 0 0 1 -33.9 0l-132.6-132.7a23.9 23.9 0 0 1 0-33.9l10.9-11a24 24 0 0 1 34.3.4l72.4 75.5v-182.6a23.94 23.94 0 0 1 24-24h16a23.94 23.94 0 0 1 24 24v182.6l72.4-75.5a24 24 0 0 1 34.3-.4l10.9 11a23.9 23.9 0 0 1 0 33.9z" opacity=".4"/><path d="m328.4 227.1a24 24 0 0 1 34.3-.4l10.9 11a23.9 23.9 0 0 1 0 33.9l-132.7 132.7a23.9 23.9 0 0 1 -33.9 0l-132.6-132.7a23.9 23.9 0 0 1 0-33.9l10.9-11a24 24 0 0 1 34.3.4l72.4 75.5v-182.6a23.94 23.94 0 0 1 24-24h16a23.94 23.94 0 0 1 24 24v182.6z"/></svg>