<svg viewBox="0 0 448 512"><path d="m400 32h-352a48 48 0 0 0 -48 48v352a48 48 0 0 0 48 48h352a48 48 0 0 0 48-48v-352a48 48 0 0 0 -48-48zm-51.58 244.32-116 115.16a12.08 12.08 0 0 1 -17 0l-115.84-115.16c-7.66-7.49-2.21-20.32 8.57-20.32h71.49v-116a12.07 12.07 0 0 1 12.1-12h64.52a12.07 12.07 0 0 1 12.1 12v116h71.49c10.78 0 16.23 12.83 8.57 20.32z" opacity=".4"/><path d="m191.74 128h64.52a12.07 12.07 0 0 1 12.1 12v116h71.49c10.78 0 16.23 12.83 8.57 20.32l-116 115.16a12.08 12.08 0 0 1 -17 0l-115.84-115.16c-7.66-7.49-2.21-20.32 8.57-20.32h71.49v-116a12.07 12.07 0 0 1 12.1-12z"/></svg>