<svg viewBox="0 0 512 512"><path d="m256 8c-137 0-248 111-248 248s111 248 248 248 248-111 248-248-111-248-248-248zm149.6 266.3-10.9 11a24 24 0 0 1 -34.3-.4l-72.4-75.5v182.6a23.94 23.94 0 0 1 -24 24h-16a23.94 23.94 0 0 1 -24-24v-182.6l-72.4 75.5a24.15 24.15 0 0 1 -34.4.4l-10.9-11a23.9 23.9 0 0 1 0-33.9l132.8-132.7a23.9 23.9 0 0 1 33.9 0l132.6 132.7a23.9 23.9 0 0 1 0 33.9z" opacity=".4"/><path d="m117.2 285.3-10.9-11a23.9 23.9 0 0 1 0-33.9l132.8-132.7a23.9 23.9 0 0 1 33.9 0l132.6 132.7a23.9 23.9 0 0 1 0 33.9l-10.9 11a24 24 0 0 1 -34.3-.4l-72.4-75.5v182.6a23.94 23.94 0 0 1 -24 24h-16a23.94 23.94 0 0 1 -24-24v-182.6l-72.4 75.5a24.15 24.15 0 0 1 -34.4.4z"/></svg>