<svg viewBox="0 0 512 512"><path d="m479 177.64-.41.23-182.5 100.45 3.45 209.17a24 24 0 0 1 -23.48 24.51h-39.55a24 24 0 0 1 -24-24v-.52l3.49-209.48-182.53-100.09a24 24 0 0 1 -9.47-32.59l.25-.45 19.5-33.74a24.07 24.07 0 0 1 32.89-8.75l.38.23 178.98 105.39 179-105.39a24.07 24.07 0 0 1 33.05 8.12l.23.4 19.5 33.74a24 24 0 0 1 -8.78 32.77z" opacity=".4"/><path d="m488 366.68-.25.45-19.5 33.74a24.07 24.07 0 0 1 -32.89 8.75l-.38-.23-178.98-105.39-179 105.39a24.07 24.07 0 0 1 -33-8.12l-.23-.4-19.5-33.74a24 24 0 0 1 8.83-32.77l.41-.23 182.4-100.45-3.45-209.17a24 24 0 0 1 23.48-24.51h39.55a24 24 0 0 1 24 24v.52l-3.49 209.48 182.53 100.09a24 24 0 0 1 9.47 32.59z"/></svg>