<svg viewBox="0 0 448 512"><path d="m96 448c-19.2 0-32-12.8-32-32s16-32 32-32h319.33c-1.93 16.24-1.76 48.38.53 64z" opacity=".4"/><path d="m224 97.31c-7.69 7.45-20.77 34.42-23.43 78.69h46.87c-2.67-44.26-15.75-71.24-23.44-78.69zm94.38 110.69h-39.09c-1.49 27-6.54 51.35-14.21 70.41a95.85 95.85 0 0 0 53.3-70.41zm0-32a95.87 95.87 0 0 0 -53.3-70.41c7.68 19.06 12.72 43.41 14.21 70.41zm-135.46 102.41c-7.68-19.06-12.72-43.41-14.21-70.41h-39.09a95.85 95.85 0 0 0 53.3 70.41zm64.51-70.41h-46.87c2.66 44.26 15.74 71.24 23.43 78.69 7.7-7.45 20.78-34.43 23.44-78.69zm-151.43 176h328a24 24 0 0 0 24-24v-328a32 32 0 0 0 -32-32h-320a96 96 0 0 0 -96 96v320a96 96 0 0 0 96 96h328a24 24 0 0 0 24-24v-16a24 24 0 0 0 -24-24h-328c-19.2 0-32-12.8-32-32s16-32 32-32zm128-320a128 128 0 1 1 -128 128 128 128 0 0 1 128-128zm-41.08 41.59a95.85 95.85 0 0 0 -53.3 70.41h39.09c1.49-27 6.53-51.35 14.21-70.41z"/></svg>