<svg viewBox="0 0 448 512"><path d="m424.37305 55.69141c-16.07905-16.07227-38.86426-23.69141-65.79053-23.69141-38.75488 0-86.14893 16.127-134.58252 45.14453a493.86641 493.86641 0 0 0 -58.042 41.03711c-25.37548 20.69336-51.38134 44.41016-80.20165 79.73436a374.25237 374.25237 0 0 0 35.70263 58.082 505.23427 505.23427 0 0 1 102.54102-102.34175 377.23937 377.23937 0 0 1 58.042-35.47266c70.01221-34.334 95.22461-19.07421 97.0625-17.23632 9.54248 9.543 7.67432 46.94531-16.86084 96.96875a492.27615 492.27615 0 0 1 40.82177 58.08398c49.21094-82.08008 60.52734-161.09961 21.30762-200.30859zm-200.37305 302.65039a377.44678 377.44678 0 0 1 -58.042 35.47461c-70.01221 34.334-95.22461 19.07421-97.0625 17.23632-9.54248-9.543-7.67432-46.94335 16.86084-96.96875a492.27615 492.27615 0 0 1 -40.82177-58.08398c-49.21094 82.08008-60.52734 161.09961-21.30757 200.30664 16.07905 16.07422 38.86421 23.69336 65.79048 23.69336 38.75488 0 86.14893-16.127 134.58252-45.14453a493.86641 493.86641 0 0 0 58.042-41.03711c25.38965-20.70508 51.42285-44.45606 80.20166-79.73438a373.962 373.962 0 0 0 -35.70266-58.08398 505.23427 505.23427 0 0 1 -102.541 102.3418z" opacity=".4"/><path d="m224 287.98828a31.99414 31.99414 0 1 0 -32-31.99414 31.98908 31.98908 0 0 0 32 31.99414zm-102.53906-31.99023a374.13921 374.13921 0 0 1 -35.70264-58.08205c-24.53906-50.02344-26.40625-87.42579-16.86328-96.9668 1.83984-1.83789 27.05078-17.10156 97.062 17.23242a494.241 494.241 0 0 1 58.04298-41.03709c-48.4375-29.01367-95.83594-45.14453-134.58154-45.14453-26.9336 0-49.707 7.61523-65.793 23.69141-39.21872 39.20898-27.90232 118.22851 21.30862 200.30859a492.0174 492.0174 0 0 0 40.82422 58.084c28.79639 35.30274 54.85889 59.07227 80.19873 79.73243a377.429 377.429 0 0 0 58.04297-35.47463 505.131 505.131 0 0 1 -102.53906-102.34375zm281.60498.00195a492.0174 492.0174 0 0 0 -40.82422-58.084c-28.84326-35.35547-54.89795-59.10352-80.19873-79.73243a377.4073 377.4073 0 0 0 -58.04297 35.47268 505.20556 505.20556 0 0 1 102.53906 102.34375 373.849 373.849 0 0 1 35.70264 58.084c24.53906 50.02149 26.40625 87.42383 16.86328 96.9668-1.83984 1.83789-27.05078 17.10156-97.062-17.23242a494.241 494.241 0 0 1 -58.04298 41.03709c48.4375 29.01367 95.83594 45.14453 134.58154 45.14453 26.9336 0 49.707-7.61523 65.793-23.69336 39.21872-39.20703 27.90232-118.22656-21.30862-200.30664z"/></svg>