<svg viewBox="0 0 448 512"><path d="m439.1958 128c-28.32861-50.55957-107.19189-40.97363-118.63135-39.73633a352.05546 352.05546 0 0 1 20.15625 62.92969c36.69434-1.16992 44.45166 8.4043 44.67627 8.80469 3.37158 6.01367-1.80517 24.11718-16.6206 47.3789-6.82129-6.47656-13.88135-12.89648-21.4336-19.16406a492.30786 492.30786 0 0 1 0 135.57422c7.55225-6.26758 14.61621-12.6875 21.4336-19.16406 14.81543 23.25976 19.99218 41.36523 16.62063 47.37695-.22461.40039-8.00976 9.981-44.67627 8.80664a352.10663 352.10663 0 0 1 -20.15625 62.92969c11.13864 1.20508 90.25046 10.90576 118.63132-39.73633 18.75342-33.4668 6.61035-80.60156-27.51709-128.00195 34.12744-47.40039 46.27051-94.53125 27.51709-127.99805zm-215.1958 56.2793c21.61426 10.52978 35.104 17.4497 62.35107 37.02343-5.688-73.38916-27.21826-113.52832-30.03271-119.09179-10.61914 3.38672-21.42969 7.4707-32.31836 11.95506-10.88867-4.48633-21.69922-8.57032-32.31836-11.957a328.8272 328.8272 0 0 0 -64.24609-13.94726c-11.11621-1.20315-90.25196-10.90432-118.63135 39.73826-18.75342 33.4668-6.61035 80.59766 27.51709 127.99805-34.12744 47.40039-46.27051 94.53515-27.51709 128.00195 28.3291 50.55615 107.19238 40.97363 118.63135 39.73633a329.0303 329.0303 0 0 0 64.24609-13.94727c10.61914-3.38672 21.42969-7.4707 32.31836-11.95508 10.89258 4.48633 21.69922 8.56836 32.31836 11.95508 2.80518-5.54687 24.34375-45.689 30.03271-119.09179-27.26757 19.58837-40.96386 26.60644-62.35107 37.02148-21.42285-10.43213-35.10938-17.45166-62.35107-37.02148a372.06341 372.06341 0 0 1 -41.67579-34.69727 372.06341 372.06341 0 0 1 41.67579-34.69727c27.21972-19.55373 40.92578-26.58984 62.35107-37.02343zm-79.46 171.64843a212.85585 212.85585 0 0 1 -37.26074 4.87891c-36.66256 1.17436-44.45162-8.40478-44.67626-8.80464-3.37158-6.01367 1.80517-24.11914 16.6206-47.3789 6.81739 6.47656 13.88135 12.89648 21.4336 19.16406a475.19526 475.19526 0 0 0 43.8828 32.14057zm-43.88277-167.71484c-7.55223 6.26758-14.61623 12.6875-21.4336 19.16411-14.81543-23.25981-19.99218-41.36528-16.62063-47.377.22412-.40039 8.00293-9.98047 44.68017-8.80859a212.81514 212.81514 0 0 1 37.25684 4.8789 475.56925 475.56925 0 0 0 -43.88278 32.14258z" opacity=".4"/><path d="m100.65723 323.78711c1.75 12.76367 3.9458 25.13281 6.62207 37.01953a212.85585 212.85585 0 0 0 37.2607-4.87891 475.19526 475.19526 0 0 1 -43.88277-32.14062zm19.31591-67.78711a372.06341 372.06341 0 0 0 41.67579 34.69727c-2.27539-29.40479-2.16016-41.4795 0-69.39454a372.06341 372.06341 0 0 0 -41.67579 34.69727zm-12.68994-104.80859c-2.67627 11.88671-4.876 24.25586-6.626 37.02148a475.56925 475.56925 0 0 1 43.8828-32.14258 212.81514 212.81514 0 0 0 -37.2568-4.8789zm240.05957 37.02148c-1.75-12.76562-3.9458-25.13477-6.62207-37.01953a352.05546 352.05546 0 0 0 -20.15625-62.92969c-23.47265-53.98242-57.9834-88.26367-96.56445-88.26367s-73.0918 34.28125-96.56445 88.26172a328.8272 328.8272 0 0 1 64.24609 13.94728c12.4668-24.64845 25.40283-38.209 32.31836-38.209s19.85547 13.56055 32.31836 38.21094c2.80469 5.54443 24.34473 45.69726 30.03271 119.09179 2.27539 29.40479 2.16016 41.4795 0 69.39454-5.688 73.38916-27.21679 113.52441-30.03271 119.09179-12.46289 24.64844-25.40283 38.21094-32.31836 38.21094s-19.85156-13.56055-32.31836-38.21094a329.0303 329.0303 0 0 1 -64.24609 13.94727c23.47265 53.98242 57.98345 88.26367 96.56445 88.26367s73.0918-34.28125 96.56445-88.26367a352.10663 352.10663 0 0 0 20.15625-62.92969c2.67627-11.88672 4.87207-24.25586 6.62207-37.01953a492.286 492.286 0 0 0 0-135.57422zm-91.3291 67.78711a32.01367 32.01367 0 1 0 -32.01367 32 32.06879 32.06879 0 0 0 32.01367-32z"/></svg>