<svg viewBox="0 0 384 512"><path d="m382.78 448.69-58.78-144.46a40.63 40.63 0 0 1 -22.23 15.62c-21.77 5.93-23.51 4.59-38.77 20.15a39.72 39.72 0 0 1 -49.73 5.82 39.68 39.68 0 0 0 -42.53 0 39.73 39.73 0 0 1 -49.74-5.82c-14.73-15-16.4-14-38.73-20.12a40.54 40.54 0 0 1 -22.07-15.4l-59 144.22a16 16 0 0 0 15.43 22l52.69-2 36.22 38.3a16 16 0 0 0 22.62.61 16.23 16.23 0 0 0 3.84-5.61l60.15-147.1 59.85 147.1a16 16 0 0 0 26.43 5l36.25-38.28 52.69 2a16 16 0 0 0 16.63-15.39 16.23 16.23 0 0 0 -1.22-6.64zm-190.78-208.69a64 64 0 1 0 -64-64 64 64 0 0 0 64 64z" opacity=".4"/><path d="m366.62 152.72a41.51 41.51 0 0 0 -10.42-39.59c-20.41-20.77-18.47-17.35-25.95-45.74a40.66 40.66 0 0 0 -28.47-29c-27.88-7.61-24.52-5.62-45-26.41a39.79 39.79 0 0 0 -38.78-10.59c-27.92 7.6-24 7.6-51.95 0a39.8 39.8 0 0 0 -38.89 10.61c-20.41 20.78-17 18.8-44.94 26.41a40.66 40.66 0 0 0 -28.47 29c-7.47 28.39-5.54 25-25.95 45.75a41.46 41.46 0 0 0 -10.42 39.58c7.47 28.36 7.48 24.4 0 52.82a41.52 41.52 0 0 0 10.42 39.57c20.41 20.78 18.47 17.35 26 45.75a40.64 40.64 0 0 0 28.47 29c22.33 6.12 24 5.12 38.73 20.12a39.74 39.74 0 0 0 49.74 5.82 39.68 39.68 0 0 1 42.53 0 39.73 39.73 0 0 0 49.73-5.82c15.28-15.55 17-14.21 38.79-20.14a40.64 40.64 0 0 0 28.47-29c7.48-28.4 5.54-25 25.95-45.75a41.49 41.49 0 0 0 10.42-39.58c-7.48-28.36-7.49-24.4-.01-52.81zm-174.62 119.28a96 96 0 1 1 96-96 96 96 0 0 1 -96 96z"/></svg>