<svg viewBox="0 0 512 512"><path d="m512 160.92c-6.84-61.76-33.6-116.63-73.06-156.22-9.21-9.25-23.89-4.12-27.06 9-12 49.67-47.25 88.27-91.88 101.23v154.18c44.63 13 79.85 51.56 91.88 101.23 3.17 13.08 17.85 18.21 27.06 9 39.46-39.59 66.22-94.45 73.06-156.22l-62.76-31.12zm-411-147.26c-3.14-13.08-17.68-18.2-26.8-8.96-45.53 46.13-74.2 112.92-74.2 187.3s28.67 141.17 74.2 187.3c9.13 9.25 23.66 4.12 26.8-9 11.92-49.67 46.79-88.27 91-101.23v-154.18c-44.21-12.96-79.08-51.56-91-101.23z" opacity=".4"/><path d="m288 80v416a16 16 0 0 1 -16 16h-32a16 16 0 0 1 -16-16v-416a16 16 0 0 1 16-16h32a16 16 0 0 1 16 16z"/></svg>