<svg viewBox="0 0 384 512"><path d="m272.07 288v48l-56.07 64h-48l-55.93-64-.07-48z" opacity=".4"/><path d="m192 160a80 80 0 1 0 -80-80 80 80 0 0 0 80 80zm-52.46 259 28.46-19-55.93-64v-.06l-.07.06-57.33 49a40 40 0 0 0 -3 59.24l56 56a40 40 0 1 0 56.56-56.56zm236.46-275.81a39.81 39.81 0 0 0 -55.86-7.88l-40.5 28.39a152.31 152.31 0 0 1 -175.28 0l-40.47-28.39a40 40 0 0 0 -48 63.9q1 .78 2.13 1.5l40.49 28.5a231.24 231.24 0 0 0 53.49 27.89v30.9h160v-30.9a231.24 231.24 0 0 0 53.49-27.89l40.51-28.5q1.09-.72 2.13-1.5a40.08 40.08 0 0 0 7.87-56.02zm-47.67 241.81-56.33-49-56 64 27.46 19-24.74 24.75a40 40 0 1 0 56.57 56.56l56-56a40 40 0 0 0 -3-59.24z"/></svg>