<svg viewBox="0 0 512 512"><path d="m96 384a64 64 0 1 0 64 64 64 64 0 0 0 -64-64zm256 0a64 64 0 1 0 64 64 64 64 0 0 0 -64-64zm-261.2-376.39c-55.5 44.3-90.8 110.39-90.8 184.39h256l-111.2-175c-11.3-17.79-37.2-22.79-54-9.39z" opacity=".4"/><path d="m496 96h-48a64.06 64.06 0 0 0 -64 64v64h-384a191.44 191.44 0 0 0 56.82 136.34 96.07 96.07 0 0 1 129.68 55.58c1.83.05 3.66.08 5.5.08h64c1.84 0 3.67 0 5.5-.08a96.07 96.07 0 0 1 129.68-55.58 191.44 191.44 0 0 0 56.82-136.34v-64h48a16 16 0 0 0 16-16v-32a16 16 0 0 0 -16-16z"/></svg>