<svg viewBox="0 0 448 512"><path d="m320 320h-192a32 32 0 0 0 -32 32v32h256v-32a32 32 0 0 0 -32-32zm-184-112h176a8 8 0 0 0 8-8v-16a8 8 0 0 0 -8-8h-176a8 8 0 0 0 -8 8v16a8 8 0 0 0 8 8z" opacity=".4"/><path d="m96 512h256v-96h-256zm224-432h-8v-24a56.06 56.06 0 0 0 -56-56h-64a56.06 56.06 0 0 0 -56 56v24h-8a128 128 0 0 0 -128 128v240a64 64 0 0 0 64 64v-160a64.07 64.07 0 0 1 64-64h192a64.07 64.07 0 0 1 64 64v160a64 64 0 0 0 64-64v-240a128 128 0 0 0 -128-128zm-136-24a8 8 0 0 1 8-8h64a8 8 0 0 1 8 8v24h-80zm136 144a8 8 0 0 1 -8 8h-176a8 8 0 0 1 -8-8v-16a8 8 0 0 1 8-8h176a8 8 0 0 1 8 8z"/></svg>