<svg viewBox="0 0 640 512"><path d="m576 64h-370.74a64 64 0 0 0 -45.26 18.75l-150.62 150.62a32 32 0 0 0 0 45.25l150.62 150.63a64 64 0 0 0 45.25 18.75h370.75a64 64 0 0 0 64-64v-256a64 64 0 0 0 -64-64zm-84.69 254.06a16 16 0 0 1 0 22.63l-22.62 22.62a16 16 0 0 1 -22.63 0l-62.06-62.06-62.06 62.06a16 16 0 0 1 -22.63 0l-22.62-22.62a16 16 0 0 1 0-22.63l62.06-62.06-62.06-62.06a16 16 0 0 1 0-22.63l22.62-22.62a16 16 0 0 1 22.63 0l62.06 62.06 62.06-62.06a16 16 0 0 1 22.63 0l22.62 22.62a16 16 0 0 1 0 22.63l-62.06 62.06z" opacity=".4"/><path d="m491.31 318.06a16 16 0 0 1 0 22.63l-22.62 22.62a16 16 0 0 1 -22.63 0l-62.06-62.06-62.06 62.06a16 16 0 0 1 -22.63 0l-22.62-22.62a16 16 0 0 1 0-22.63l62.06-62.06-62.06-62.06a16 16 0 0 1 0-22.63l22.62-22.62a16 16 0 0 1 22.63 0l62.06 62.06 62.06-62.06a16 16 0 0 1 22.63 0l22.62 22.62a16 16 0 0 1 0 22.63l-62.06 62.06z"/></svg>