<svg viewBox="0 0 576 512"><path d="m448 192a32 32 0 0 0 -32-32h-96v-64a96 96 0 0 0 -192 0v64h-96a32 32 0 0 0 -32 32v256a32 32 0 0 0 32 32h128v-224a32 32 0 0 1 32-32h256zm-176-32h-96v-64a48 48 0 0 1 96 0zm200 160h-16a8 8 0 0 0 -8 8v24a64.07 64.07 0 0 1 -70.38 63.69c-33.25-3.23-57.62-33.12-57.62-66.53v-21.16a8 8 0 0 0 -8-8h-16a8 8 0 0 0 -8 8v20.66c0 48.79 35 92.32 83.37 98.53a96.12 96.12 0 0 0 108.63-95.19v-24a8 8 0 0 0 -8-8z" opacity=".4"/><path d="m544 256h-320a32 32 0 0 0 -32 32v192a32 32 0 0 0 32 32h320a32 32 0 0 0 32-32v-192a32 32 0 0 0 -32-32zm-64 96a96.12 96.12 0 0 1 -108.63 95.19c-48.37-6.19-83.37-49.74-83.37-98.53v-20.66a8 8 0 0 1 8-8h16a8 8 0 0 1 8 8v21.16c0 33.41 24.37 63.3 57.62 66.53a64.07 64.07 0 0 0 70.38-63.69v-24a8 8 0 0 1 8-8h16a8 8 0 0 1 8 8z"/></svg>