<svg viewBox="0 0 512 512"><path d="m239.69 218 16.31-51.28 16.29 51.28 44.95-28.62-20 49.87 52.57 7.38-46.91 25.12 35.61 39.93-51.89-11.3 2 53.79-32.62-42.49-32.59 42.49 2-53.79-51.89 11.3 35.6-39.93-46.92-25.17 52.57-7.38-20-49.87z" opacity=".4"/><path d="m496.25 202.52-110-15.44 41.82-104.34c6.67-16.64-11.6-32.18-26.59-22.63l-94 59.89-34.13-107.18a18.15 18.15 0 0 0 -34.7 0l-34.09 107.18-94-59.89c-15-9.55-33.25 6-26.59 22.63l41.82 104.34-110 15.43c-17.54 2.46-21.68 26.27-6 34.67l98.16 52.66-74.55 83.55c-10.92 12.25-1.72 30.93 13.29 30.93a18.79 18.79 0 0 0 4.07-.45l108.57-23.65-4.11 112.55a18.32 18.32 0 0 0 18.41 19.23 17.65 17.65 0 0 0 14.2-7.18l68.17-88.91 68.18 88.9a17.64 17.64 0 0 0 14.2 7.18 18.32 18.32 0 0 0 18.41-19.22l-4.11-112.55 108.57 23.65c17.36 3.76 29.21-17.2 17.35-30.49l-74.48-83.54 98.16-52.66c15.65-8.39 11.51-32.18-6.03-34.66zm-157.74 109.16-51.89-11.3 2 53.79-32.62-42.49-32.59 42.49 2-53.79-51.89 11.3 35.6-39.93-46.92-25.17 52.57-7.38-20-49.87 44.92 28.67 16.31-51.28 16.29 51.28 44.95-28.62-20 49.87 52.57 7.38-46.91 25.12z"/></svg>