<svg viewBox="0 0 640 512"><path d="m544 464v32a16 16 0 0 1 -16 16h-416a16 16 0 0 1 -16-16v-32a16 16 0 0 1 16-16h176v-294.75a80.06 80.06 0 0 1 -46.39-57.25h-129.61a16 16 0 0 1 -16-16v-32a16 16 0 0 1 16-16h144.36a79.28 79.28 0 0 1 127.28 0h144.36a16 16 0 0 1 16 16v32a16 16 0 0 1 -16 16h-129.61a80.06 80.06 0 0 1 -46.39 57.25v294.75h176a16 16 0 0 1 16 16z" opacity=".4"/><path d="m256 336c0-16.18 1.34-8.73-85-181.51-17.65-35.29-68.19-35.36-85.87 0-87.19 174.26-85.13 165.84-85.13 181.51 0 44.18 57.31 80 128 80s128-35.82 128-80zm-128-160 72 144h-144zm512 160c0-16.18 1.34-8.73-85.05-181.51-17.65-35.29-68.19-35.36-85.87 0-87.14 174.26-85.08 165.84-85.08 181.51 0 44.18 57.31 80 128 80s128-35.82 128-80zm-200-16 72-144 72 144z"/></svg>