<svg viewBox="0 0 640 512"><path d="m544 464v32a16 16 0 0 1 -16 16h-224a16 16 0 0 1 -16-16v-342.75a80.48 80.48 0 0 1 -13-7.12l-142 47.63a16 16 0 0 1 -20.26-10.08l-10.17-30.34a16 16 0 0 1 10.08-20.26l128.35-43.08a79.06 79.06 0 0 1 -1-10 80 80 0 0 1 80-80c29.69 0 55.3 16.36 69.11 40.37l117.89-39.53a16 16 0 0 1 20.26 10.08l10.17 30.34a16 16 0 0 1 -10.08 20.26l-132 44.26a79.94 79.94 0 0 1 -43.35 47.47v294.75h176a16 16 0 0 1 16 16z" opacity=".4"/><path d="m640 304c0-16.18 1.34-8.73-85.05-181.51-17.65-35.29-68.19-35.36-85.87 0-87.14 174.26-85.08 165.84-85.08 181.51 0 44.18 57.31 80 128 80s128-35.82 128-80zm-200-16 72-144 72 144zm-269.07-37.51c-17.65-35.29-68.19-35.36-85.87 0-87.12 174.26-85.06 165.84-85.06 181.51 0 44.18 57.31 80 128 80s128-35.82 128-80c0-16.18 1.32-8.73-85.07-181.51zm-114.93 165.51 72-144 72 144z"/></svg>