<svg viewBox="0 0 384 512"><path d="m360 0h-336a23.94 23.94 0 0 0 -24 24v464a23.94 23.94 0 0 0 24 24h336a23.94 23.94 0 0 0 24-24v-464a23.94 23.94 0 0 0 -24-24zm-232 400a16 16 0 0 1 -16 16h-32a16 16 0 0 1 -16-16v-32a16 16 0 0 1 16-16h32a16 16 0 0 1 16 16zm0-128a16 16 0 0 1 -16 16h-32a16 16 0 0 1 -16-16v-32a16 16 0 0 1 16-16h32a16 16 0 0 1 16 16zm0-128a16 16 0 0 1 -16 16h-32a16 16 0 0 1 -16-16v-32a16 16 0 0 1 16-16h32a16 16 0 0 1 16 16zm192 248a8 8 0 0 1 -8 8h-144a8 8 0 0 1 -8-8v-16a8 8 0 0 1 8-8h144a8 8 0 0 1 8 8zm0-128a8 8 0 0 1 -8 8h-144a8 8 0 0 1 -8-8v-16a8 8 0 0 1 8-8h144a8 8 0 0 1 8 8zm0-128a8 8 0 0 1 -8 8h-144a8 8 0 0 1 -8-8v-16a8 8 0 0 1 8-8h144a8 8 0 0 1 8 8z" opacity=".4"/><path d="m112 352h-32a16 16 0 0 0 -16 16v32a16 16 0 0 0 16 16h32a16 16 0 0 0 16-16v-32a16 16 0 0 0 -16-16zm0-128h-32a16 16 0 0 0 -16 16v32a16 16 0 0 0 16 16h32a16 16 0 0 0 16-16v-32a16 16 0 0 0 -16-16zm0-128h-32a16 16 0 0 0 -16 16v32a16 16 0 0 0 16 16h32a16 16 0 0 0 16-16v-32a16 16 0 0 0 -16-16z"/></svg>