<svg viewBox="0 0 512 512"><path d="m192 200a120 120 0 1 1 -120 120 120.13 120.13 0 0 1 120-120m0-48a168 168 0 1 0 168 168 168 168 0 0 0 -168-168z" opacity=".4"/><path d="m194.34 381.66 11.31-11.31a8 8 0 0 0 0-11.32l-52.65-52.68a8 8 0 0 0 -11.32 0l-11.31 11.31a8 8 0 0 0 0 11.31l52.63 52.69a8 8 0 0 0 11.34 0zm308.29-342.66-29.58-29.63a32 32 0 0 0 -45.26 0l-46.31 46.32a35.26 35.26 0 0 0 -8.48 13.79l-12.19 36.59-74.81 74.72a168.81 168.81 0 0 1 45.29 45.21l74.88-74.88 36.35-12.12a35.12 35.12 0 0 0 13.79-8.52l46.32-46.31a32 32 0 0 0 0-45.17zm-446.15 182.48a168.39 168.39 0 0 1 37-37l-.23-.23a26.18 26.18 0 0 0 -37 37zm0 197-.23.22a26.18 26.18 0 1 0 37 37l.23-.23a168 168 0 0 1 -37-36.95zm-30.3-124.7a26.18 26.18 0 0 0 0 52.36h.46c-1.35-8.55-2.64-17.14-2.64-26.14s1.29-17.59 2.64-26.18zm301.34 124.7a168 168 0 0 1 -37 37l.23.23a26.18 26.18 0 1 0 37-37zm30.3-124.7h-.46c1.35 8.63 2.64 17.22 2.64 26.22s-1.29 17.59-2.64 26.18h.46a26.18 26.18 0 0 0 0-52.36zm-192 191.54v.46a26.18 26.18 0 0 0 52.36 0v-.46c-8.59 1.39-17.18 2.68-26.18 2.68s-17.59-1.29-26.18-2.64zm26.18-357.32a26.18 26.18 0 0 0 -26.18 26.18v.46c8.59-1.35 17.18-2.64 26.18-2.64s17.59 1.29 26.18 2.64v-.46a26.19 26.19 0 0 0 -26.18-26.18z"/></svg>