<svg viewBox="0 0 640 512"><path d="m144 448h-80v-80a16 16 0 0 0 -16-16h-32a16 16 0 0 0 -16 16v128a16 16 0 0 0 16 16h128a16 16 0 0 0 16-16v-32a16 16 0 0 0 -16-16zm0-448h-128a16 16 0 0 0 -16 16v128a16 16 0 0 0 16 16h32a16 16 0 0 0 16-16v-80h80a16 16 0 0 0 16-16v-32a16 16 0 0 0 -16-16zm480 0h-128a16 16 0 0 0 -16 16v32a16 16 0 0 0 16 16h80v80a16 16 0 0 0 16 16h32a16 16 0 0 0 16-16v-128a16 16 0 0 0 -16-16zm0 352h-32a16 16 0 0 0 -16 16v80h-80a16 16 0 0 0 -16 16v32a16 16 0 0 0 16 16h128a16 16 0 0 0 16-16v-128a16 16 0 0 0 -16-16z" opacity=".4"/><path d="m184 128h-48a8 8 0 0 0 -8 8v240a8 8 0 0 0 8 8h48a8 8 0 0 0 8-8v-240a8 8 0 0 0 -8-8zm64 0h-16a8 8 0 0 0 -8 8v240a8 8 0 0 0 8 8h16a8 8 0 0 0 8-8v-240a8 8 0 0 0 -8-8zm160 0h-48a8 8 0 0 0 -8 8v240a8 8 0 0 0 8 8h48a8 8 0 0 0 8-8v-240a8 8 0 0 0 -8-8zm-96 0h-16a8 8 0 0 0 -8 8v240a8 8 0 0 0 8 8h16a8 8 0 0 0 8-8v-240a8 8 0 0 0 -8-8zm192 0h-48a8 8 0 0 0 -8 8v240a8 8 0 0 0 8 8h48a8 8 0 0 0 8-8v-240a8 8 0 0 0 -8-8z"/></svg>