<svg viewBox="0 0 512 512"><path d="m179.71 447.73h8.86v-383.73h-8.86zm36 0h8.86v-383.73h-8.86zm-116.85 0h8.85v-383.73h-8.85zm-72 0h9.14v-383.73h-9.14zm467.14-383.73v384h18v-384zm-53.71 383.73h26.85v-383.73h-26.85zm-144 0h18v-383.73h-18zm72 0h18v-383.73h-18z" opacity=".4"/><path d="m134.86 447.73h17.71v-383.73h-17.71zm62.85 0h8.86v-383.73h-8.86zm-197.71.27h18v-384h-18zm54-.27h8.86v-383.73h-8.86zm341.14 0h18v-383.73h-18zm80.86-383.73v383.73h9.14v-383.73zm-224.57 383.73h18v-383.73h-18zm80.86 0h18v-383.73h-18z"/></svg>