<svg viewBox="0 0 640 512"><path d="m280 0h-48a8 8 0 0 0 -8 8v152h64v-152a8 8 0 0 0 -8-8zm-128 0h-80a8 8 0 0 0 -8 8v152h96v-152a8 8 0 0 0 -8-8zm-88 504a8 8 0 0 0 8 8h80a8 8 0 0 0 8-8v-152h-96zm408-504h-48a8 8 0 0 0 -8 8v152h64v-152a8 8 0 0 0 -8-8zm96 0h-48a8 8 0 0 0 -8 8v152h64v-152a8 8 0 0 0 -8-8zm-192 0h-16a8 8 0 0 0 -8 8v152h32v-152a8 8 0 0 0 -8-8zm136 504a8 8 0 0 0 8 8h48a8 8 0 0 0 8-8v-152h-64zm-288 0a8 8 0 0 0 8 8h48a8 8 0 0 0 8-8v-152h-64zm192 0a8 8 0 0 0 8 8h48a8 8 0 0 0 8-8v-152h-64zm-64 0a8 8 0 0 0 8 8h16a8 8 0 0 0 8-8v-152h-32z" opacity=".4"/><path d="m640 232v48a8 8 0 0 1 -8 8h-624a8 8 0 0 1 -8-8v-48a8 8 0 0 1 8-8h624a8 8 0 0 1 8 8z"/></svg>