<svg viewBox="0 0 496 512"><path d="m441.77 101.1a213.51 213.51 0 0 0 -44 60.42l-.12.24-28.75-14 .09-.19a245.85 245.85 0 0 1 51.14-70.07c-96.22-92.83-248.73-92.64-344.73.41a244.73 244.73 0 0 1 50.72 68.79l-28.61 14.2a212.83 212.83 0 0 0 -43.58-59.31 248 248 0 0 0 .33 309.22 213.57 213.57 0 0 0 43.91-60.36l.11-.24 28.72 14.05-.09.19a245.76 245.76 0 0 1 -51.12 70c96.2 92.86 248.71 92.72 344.73-.32a244.66 244.66 0 0 1 -50.76-68.83l28.65-14.25a212.72 212.72 0 0 0 43.59 59.41 248.06 248.06 0 0 0 -.34-309.36zm-302.52 233.39-30.33-10.2a212.09 212.09 0 0 0 11.08-67.77 214.18 214.18 0 0 0 -11.69-69.79l30.26-10.4a245.62 245.62 0 0 1 13.43 80.19 243.74 243.74 0 0 1 -12.75 77.97zm218.13 1.14a245.26 245.26 0 0 1 -.67-158.16l30.29 10.2a213.39 213.39 0 0 0 .6 137.56z" opacity=".4"/><path d="m98.17 350.45a214.1 214.1 0 0 1 -43.91 60.36 250.37 250.37 0 0 0 21.56 23.67 245.93 245.93 0 0 0 51.13-70l.09-.19-28.76-14zm-.66-189.55 28.65-14.25a244.73 244.73 0 0 0 -50.72-68.79 249.19 249.19 0 0 0 -21.52 23.71 213.3 213.3 0 0 1 43.59 59.33zm300.28.62a213.51 213.51 0 0 1 44-60.42 250.36 250.36 0 0 0 -21.57-23.66 245.73 245.73 0 0 0 -51.22 70.08l-.09.19 28.75 14zm-21.79 93.92a212.18 212.18 0 0 1 11-67.77l-30.33-10.2a245.26 245.26 0 0 0 .67 158.16l30.26-10.4a213.85 213.85 0 0 1 -11.71-69.79zm22.5 95.63-28.7 14.25a244.59 244.59 0 0 0 50.77 68.84 250.19 250.19 0 0 0 21.51-23.7 212.63 212.63 0 0 1 -43.63-59.39zm-290.18-164.34a214.44 214.44 0 0 1 11.68 69.79 212.1 212.1 0 0 1 -11.09 67.77l30.33 10.2a243.61 243.61 0 0 0 12.76-78 245.62 245.62 0 0 0 -13.43-80.19z"/></svg>