<svg viewBox="0 0 640 512"><path d="m192 176h256v-48h-256zm446.83 26.76c-.7-2.04-67.51-202.76-318.83-202.76s-318.13 200.72-318.83 202.76c-1.6 10.39-1.1-8.66-1.1 132.35 0 23.23 13.6 44 34.71 52.78l104.22 43.71-8.85-143.6h-26.15a40 40 0 0 1 -40-40v-32a40 40 0 0 1 40-40h56v-80h320v80h56a40 40 0 0 1 40 40v32a40 40 0 0 1 -40 40h-26.15l-8.85 143.6 104.21-43.71c21.11-8.76 34.71-29.55 34.71-52.78.01-141.01.51-121.96-1.09-132.35z" opacity=".4"/><path d="m445.27 319.9-36.64-31.9h-47.07l-41.56 41.4-41.56-41.4h-47.07l-36.64 31.9-2.51-31.9h-32.22l18.27 224 75.73-71.6 66 71.6 66.05-71.6 75.68 71.6 18.27-224h-32.22zm-240.5 124.3-4.32-53.5 30 27.9zm48.38-48.2-46.88-43.6 48.79-42.5 42.25 42.1zm66.85 62.1-43.36-40.3 43.36-43.2 43.36 43.2zm22.69-106.1 42.25-42.1 48.79 42.5-46.88 43.6zm92.54 92.2-25.69-25.6 30-27.9zm100.77-236.2h-432a8 8 0 0 0 -8 8v32a8 8 0 0 0 8 8h432a8 8 0 0 0 8-8v-32a8 8 0 0 0 -8-8z"/></svg>