<svg viewBox="0 0 496 512"><path d="m216 10.05a247 247 0 0 0 -131.67 59.65l79.89 79.89a212.33 212.33 0 0 0 51.78-139.54zm-29.11 162.21 61.11 61.11 163.67-163.67a247 247 0 0 0 -163.67-61.7v2a244.13 244.13 0 0 1 -61.11 162.26zm93.11 329.74a247 247 0 0 0 131.67-59.7l-79.89-79.89a212.38 212.38 0 0 0 -51.78 139.59zm154.3-409.67-163.67 163.67 61.11 61.11a244.18 244.18 0 0 1 162.26-61.11h2a247 247 0 0 0 -61.7-163.67zm0 327.34a247 247 0 0 0 59.7-131.67 212.33 212.33 0 0 0 -139.54 51.78zm-125.19-79.93-61.11-61.11-163.67 163.67a247 247 0 0 0 163.67 61.7v-2a244.13 244.13 0 0 1 61.11-162.26zm-247.41-247.41a247 247 0 0 0 -59.65 131.67 212.33 212.33 0 0 0 139.54-51.78zm102.56 102.56a244.13 244.13 0 0 1 -162.26 61.11h-2a247 247 0 0 0 61.7 163.67l163.67-163.67z" opacity=".4"/><path d="m280 502a249.84 249.84 0 0 1 -32 2v-2a244.13 244.13 0 0 1 61.11-162.26l-61.11-61.11-163.67 163.67a249.14 249.14 0 0 1 -22.63-22.63l163.67-163.67-61.11-61.11a244.13 244.13 0 0 1 -162.26 61.11h-2a249.89 249.89 0 0 1 2.05-32 212.33 212.33 0 0 0 139.54-51.78l-79.89-79.89a249.14 249.14 0 0 1 22.63-22.63l79.89 79.89a212.33 212.33 0 0 0 51.78-139.54 249.89 249.89 0 0 1 32-2.05v2a244.13 244.13 0 0 1 -61.11 162.26l61.11 61.11 163.67-163.67a249.14 249.14 0 0 1 22.63 22.63l-163.67 163.67 61.11 61.11a244.18 244.18 0 0 1 162.26-61.11h2a249.84 249.84 0 0 1 -2 32 212.33 212.33 0 0 0 -139.54 51.78l79.89 79.89a249.14 249.14 0 0 1 -22.63 22.63l-79.89-79.89a212.39 212.39 0 0 0 -51.83 139.59z"/></svg>