<svg viewBox="0 0 640 512"><path d="m411.83 175.3-91.83 55.1-91.83-55.1 27.83-111.3 42.66 32h42.67l42.67-32z" opacity=".4"/><path d="m640 320-49.63-16.54a64 64 0 0 0 -73.49 25.21l-36.88 55.33-11.82-11.82a64 64 0 0 0 -90.51 0 65.74 65.74 0 0 0 -5.95 6.86l-51.72 68.96-51.72-69a64 64 0 0 0 -89.6-12.8 64.73 64.73 0 0 0 -6.86 5.95l-11.82 11.85-36.89-55.33a64 64 0 0 0 -73.49-25.21l-49.62 16.54 81.55-190.31a32 32 0 0 1 42-16.8 32.58 32.58 0 0 1 3.86 2l192.59 115.51 192.56-115.53a32 32 0 0 1 43.91 11 32.58 32.58 0 0 1 2 3.86z"/></svg>