<svg viewBox="0 0 512 512"><path d="m80 256h-48v-186.75a69.25 69.25 0 0 1 118.22-49l19.26 19.27c29.9-13.13 59.11-7.61 79.73 8.62l.17-.17a16 16 0 0 1 22.62.03l11.31 11.31a16 16 0 0 1 0 22.63l-105.37 105.37a16 16 0 0 1 -22.63 0l-11.31-11.31a16 16 0 0 1 0-22.62l.17-.17c-16.23-20.62-21.75-49.85-8.62-79.73l-19.27-19.26a21.26 21.26 0 0 0 -36.28 15.03z" opacity=".4"/><path d="m32 384a95.4 95.4 0 0 0 32 71.09v40.91a16 16 0 0 0 16 16h32a16 16 0 0 0 16-16v-16h256v16a16 16 0 0 0 16 16h32a16 16 0 0 0 16-16v-40.91a95.4 95.4 0 0 0 32-71.09v-48h-448zm464-128h-480a16 16 0 0 0 -16 16v16a16 16 0 0 0 16 16h480a16 16 0 0 0 16-16v-16a16 16 0 0 0 -16-16z"/></svg>