<svg viewBox="0 0 640 512"><path d="m64 160h92.28l7.66-64h-115.94a48 48 0 0 0 -48 48v224a48 48 0 0 0 48 48h180.61l14.17-64h-178.78zm552 0h-8v-16a48 48 0 0 0 -48-48h-154.62l-9.95 48h33.35a65.73 65.73 0 0 1 43.11 16h72.11v64h32v64h-32v64h-116.83l-36.62 64h169.45a48 48 0 0 0 48-48v-16h8a24 24 0 0 0 24-24v-144a24 24 0 0 0 -24-24z" opacity=".4"/><path d="m445.39 223.52-140.77 246a19 19 0 0 1 -16.62 10.48c-12.26 0-21.55-12.56-18.67-25.84l36.84-166.39h-95c-11.6 0-20.56-11.18-19-23.77l25.6-213.78c1.23-10.43 9.41-18.22 19.03-18.22h108.8c12.6 0 21.8 13.09 18.55 26.41l-27.69 133.59h92.32c14.78 0 24.01 17.55 16.61 31.52z"/></svg>