<svg viewBox="0 0 448 512"><path d="m368 96h-48v-40a24 24 0 0 0 -24-24h-272a24 24 0 0 0 -24 24v400a24 24 0 0 0 24 24h272a24 24 0 0 0 24-24v-42.11l80.61-36a80.08 80.08 0 0 0 47.39-73v-128.89a80.09 80.09 0 0 0 -80-80zm-240 272a16 16 0 0 1 -32 0v-224a16 16 0 0 1 32 0zm96 0a16 16 0 0 1 -32 0v-224a16 16 0 0 1 32 0zm160-63.14a16 16 0 0 1 -9.48 14.61l-54.52 24.33v-183.8h48a16 16 0 0 1 16 16z" opacity=".4"/><path d="m208 128a16 16 0 0 0 -16 16v224a16 16 0 0 0 32 0v-224a16 16 0 0 0 -16-16zm-96 0a16 16 0 0 0 -16 16v224a16 16 0 0 0 32 0v-224a16 16 0 0 0 -16-16z"/></svg>