<svg viewBox="0 0 640 512"><path d="m486.36 344.13a48 48 0 1 1 75.23 58.14zm-214.36-184.13a47.69 47.69 0 0 0 -18.87 3.88l66.33 51.26a48 48 0 0 0 -47.46-55.14zm78.19 240.67-284.19-219.67a209.13 209.13 0 0 0 -2 27c0 114.88 93.12 208 208 208a207.23 207.23 0 0 0 78.19-15.33zm-78.19 47.33a238.41 238.41 0 0 1 -144-48.46v80.46a32 32 0 0 0 32 32h224a32 32 0 0 0 32-32v-28.47l-37.66-29.11a236.49 236.49 0 0 1 -106.34 25.58zm-46.21-305.26a80 80 0 0 1 121 93.54l103 79.63a207 207 0 0 0 30.21-107.91c0-114.88-93.12-208-208-208a207.34 207.34 0 0 0 -149.22 63.13z" opacity=".4"/><path d="m633.82 458.09-588.35-454.71a16 16 0 0 0 -22.47 2.79l-19.63 25.29a16 16 0 0 0 2.81 22.45l588.34 454.71a16 16 0 0 0 22.48-2.79l19.64-25.27a16 16 0 0 0 -2.82-22.47z"/></svg>