<svg viewBox="0 0 640 512"><path d="m370 416h-241.9c-19.12 0-32-15.6-32.1-32a31.24 31.24 0 0 1 8.61-21.71c16.21-17.42 44-42.79 52.62-110.75zm173.64-27.59a32.49 32.49 0 0 0 .36-4.41 31.23 31.23 0 0 0 -8.61-21.71c-19.32-20.76-55.47-52-55.47-154.29 0-77.7-54.48-139.9-127.94-155.16v-20.84a32 32 0 1 0 -64 0v20.84c-40.31 8.37-74.89 30.89-97.9 62.33zm-223.64 123.59a64 64 0 0 0 64-64h-128a64 64 0 0 0 64 64z" opacity=".4"/><path d="m633.82 458.09-588.35-454.71a16 16 0 0 0 -22.47 2.79l-19.63 25.29a16 16 0 0 0 2.81 22.45l588.34 454.71a16 16 0 0 0 22.48-2.79l19.64-25.27a16 16 0 0 0 -2.82-22.47z"/></svg>