<svg viewBox="0 0 640 512"><path d="m117.3 119.08c-.8 2.1-14.7 40.5-15.4 42.71-29.2 80.31-66.4 94.55-87.4 105.28-20.1 10.33-19.5 40.71 3 48.93l243.3 88.84c8.4-19.25 19.5-45.72-3.3-108.49l-15.5-42.78c-27.9-76.91 5-161 73.7-200.34a130.82 130.82 0 0 0 -27.4-14.17c-69.25-25.19-145.77 10.62-171 80.02zm426.47 291.92-115.67 42a63.76 63.76 0 0 0 115.67-42z" opacity=".4"/><path d="m137.85 444.14a63.73 63.73 0 0 0 73.83-23.2l-115.45-42.11a63.78 63.78 0 0 0 41.62 65.31zm487.7-145.14c-21-10.73-58.33-25-87.44-105.28-.8-2.2-14.7-40.61-15.4-42.72-25.31-69.37-101.83-105.16-171.07-79.9s-104.92 102-79.73 171.37c.8 2.11 14.81 40.52 15.61 42.72 29.21 80.32 9.7 115.22.5 137-8.8 20.76 11.21 43.72 33.72 35.5l300.71-109.69c20.55-7.55 24.9-37.74 3.1-49z"/></svg>