<svg viewBox="0 0 640 512"><path d="m368 32h-96a32 32 0 0 0 -32 32v96a32 32 0 0 0 32 32h96a32 32 0 0 0 32-32v-96a32 32 0 0 0 -32-32zm-208 288h-96a32 32 0 0 0 -32 32v96a32 32 0 0 0 32 32h96a32 32 0 0 0 32-32v-96a32 32 0 0 0 -32-32zm416 0h-96a32 32 0 0 0 -32 32v96a32 32 0 0 0 32 32h96a32 32 0 0 0 32-32v-96a32 32 0 0 0 -32-32z" opacity=".4"/><path d="m208 88h-84.75a64 64 0 1 0 0 48h79.75a232.21 232.21 0 0 0 -109.56 152h49.4a183.69 183.69 0 0 1 71-101.56 63.28 63.28 0 0 1 -5.84-26.44zm368-40a63.93 63.93 0 0 0 -59.25 40h-84.75v72a63.43 63.43 0 0 1 -5.88 26.44 183.69 183.69 0 0 1 71 101.56h49.4a232.21 232.21 0 0 0 -109.52-152h79.73a64 64 0 1 0 59.27-88z"/></svg>