<svg viewBox="0 0 448 512"><path d="m96 448c-19.2 0-32-12.8-32-32s16-32 32-32h319.33c-1.93 16.24-1.76 48.38.53 64z" opacity=".4"/><path d="m96 384h328a24 24 0 0 0 24-24v-328a32 32 0 0 0 -32-32h-320a96 96 0 0 0 -96 96v320a96 96 0 0 0 96 96h328a24 24 0 0 0 24-24v-16a24 24 0 0 0 -24-24h-328c-19.2 0-32-12.8-32-32s16-32 32-32zm48-240a16 16 0 0 1 16-16h48v-48a16 16 0 0 1 16-16h32a16 16 0 0 1 16 16v48h48a16 16 0 0 1 16 16v32a16 16 0 0 1 -16 16h-48v112a16 16 0 0 1 -16 16h-32a16 16 0 0 1 -16-16v-112h-48a16 16 0 0 1 -16-16z"/></svg>