<svg viewBox="0 0 640 512"><path d="m255 304h-48.61a79.82 79.82 0 0 0 -19.64-38.23l25.88-41.77a127.74 127.74 0 0 1 42.37 80zm257-112a127.54 127.54 0 0 0 -45.93 8.5l26.07 42a80.25 80.25 0 1 1 -40.74 25.37l-26.09-42a128 128 0 1 0 86.69-33.87zm-310.7 160a80 80 0 1 1 -56.2-110.14l26.21-42.34a128 128 0 1 0 80.69 152.48z" opacity=".4"/><path d="m495.83 339.45a16 16 0 0 0 22 5.16l13.6-8.44a16 16 0 0 0 5.15-22l-148.19-238.83a24 24 0 0 0 -20.39-11.34h-64a16 16 0 0 0 -16 16v16a16 16 0 0 0 16 16h50.65l14.9 24h-113.55v-16a16 16 0 0 0 -16-16h-87.46c-13.44 0-24.77 11-24.53 24.44a24 24 0 0 0 23.99 23.56h48.73l-101.13 163.37a24 24 0 0 0 20.4 36.63h184a24 24 0 0 0 20.41-11.37l86-138.86zm-205.2-35.45h-127.54l74.28-120h127.55z"/></svg>