<svg viewBox="0 0 640 512"><path d="m512 256a128 128 0 1 0 128 128 128 128 0 0 0 -128-128zm0 192a64 64 0 1 1 64-64 64 64 0 0 1 -64 64zm-384-192a128 128 0 1 0 128 128 128 128 0 0 0 -128-128zm0 192a64 64 0 1 1 64-64 64 64 0 0 1 -64 64z" opacity=".4"/><path d="m400 96a48 48 0 1 0 -48-48 48 48 0 0 0 48 48zm80 64h-52.78l-71.22-57a31.94 31.94 0 0 0 -40.81.68l-112 96a32 32 0 0 0 3.08 50.92l81.73 54.52v110.88a32 32 0 0 0 64 0v-128a32 32 0 0 0 -14.25-26.62l-41.36-27.57 58.25-49.92 41.36 33.11a31.9 31.9 0 0 0 20 7h64a32 32 0 0 0 0-64z"/></svg>