<svg viewBox="0 0 640 512"><path d="m191.34 49.88-58.12 48.76c-6.38 5.55-7 15.54-1.34 22.34l40.83 49.18c5.65 6.8 15.39 7.81 21.77 2.26l104.32-88.91c6.38-5.54 7-15.54 1.35-22.33-28.15-33.95-76.91-39.02-108.81-11.3zm48.66 302.12h-5.2a110.19 110.19 0 0 0 -8.65-20.89l3.67-3.67a16 16 0 0 0 0-22.63l-22.63-22.63a16 16 0 0 0 -22.63 0l-3.67 3.67a110.45 110.45 0 0 0 -20.89-8.65v-5.2a16 16 0 0 0 -16-16h-32a16 16 0 0 0 -16 16v5.2a110.19 110.19 0 0 0 -20.89 8.65l-3.67-3.67a16 16 0 0 0 -22.63 0l-22.63 22.63a16 16 0 0 0 0 22.63l3.67 3.67a110.45 110.45 0 0 0 -8.65 20.89h-5.2a16 16 0 0 0 -16 16v32a16 16 0 0 0 16 16h5.2a110.19 110.19 0 0 0 8.65 20.89l-3.67 3.67a16 16 0 0 0 0 22.63l22.63 22.63a16 16 0 0 0 22.63 0l3.67-3.67a110.94 110.94 0 0 0 20.89 8.65v5.2a16 16 0 0 0 16 16h32a16 16 0 0 0 16-16v-5.2a110.56 110.56 0 0 0 20.9-8.65l3.66 3.67a16 16 0 0 0 22.63 0l22.63-22.63a16 16 0 0 0 0-22.63l-3.67-3.67a110.45 110.45 0 0 0 8.66-20.89h5.19a16 16 0 0 0 16-16v-32a16 16 0 0 0 -16-16zm-112 96a64 64 0 1 1 64-64 64 64 0 0 1 -64 64zm496-96h-5.2a110.19 110.19 0 0 0 -8.65-20.89l3.67-3.67a16 16 0 0 0 0-22.63l-22.63-22.63a16 16 0 0 0 -22.63 0l-3.66 3.67a110.81 110.81 0 0 0 -20.9-8.65v-5.2a16 16 0 0 0 -16-16h-32a16 16 0 0 0 -16 16v5.2a110.47 110.47 0 0 0 -20.89 8.65l-3.66-3.67a16 16 0 0 0 -22.63 0l-22.63 22.63a16 16 0 0 0 0 22.63l3.67 3.67a110.45 110.45 0 0 0 -8.67 20.89h-5.19a16 16 0 0 0 -16 16v32a16 16 0 0 0 16 16h5.2a110.19 110.19 0 0 0 8.65 20.89l-3.67 3.67a16 16 0 0 0 0 22.63l22.63 22.63a16 16 0 0 0 22.63 0l3.66-3.67a110.94 110.94 0 0 0 20.9 8.65v5.2a16 16 0 0 0 16 16h32a16 16 0 0 0 16-16v-5.2a110.56 110.56 0 0 0 20.9-8.65l3.67 3.67a16 16 0 0 0 22.63 0l22.63-22.63a16 16 0 0 0 0-22.63l-3.67-3.67a110.45 110.45 0 0 0 8.64-20.89h5.2a16 16 0 0 0 16-16v-32a16 16 0 0 0 -16-16zm-112 96a64 64 0 1 1 64-64 64 64 0 0 1 -64 64z" opacity=".4"/><path d="m400 96a48 48 0 1 0 -48-48 48 48 0 0 0 48 48zm-4 121a32 32 0 0 0 20 7h64a32 32 0 0 0 0-64h-52.78l-71.22-57a31.94 31.94 0 0 0 -40.81.68l-112 96a32 32 0 0 0 3.07 50.92l81.74 54.52v110.88a32 32 0 0 0 64 0v-128a32 32 0 0 0 -14.25-26.62l-41.35-27.57 58.24-49.92z"/></svg>