<svg viewBox="0 0 448 512"><path d="m373.5 384c-28 0-31.39 32-74.75 32-43.55 0-46.6-32-74.75-32-27.28 0-31.66 32-74.5 32-43.5 0-46.8-32-74.75-32s-31.39 32-74.75 32v96h448v-96c-43.25 0-47-32-74.5-32zm-277.5-288c17.75 0 32-13.5 32-40s-20-56-32-56c0 41-32 33-32 64a31.9 31.9 0 0 0 32 32zm128 0c17.75 0 32-13.5 32-40s-20-56-32-56c0 41-32 33-32 64a31.9 31.9 0 0 0 32 32zm128 0c17.75 0 32-13.5 32-40s-20-56-32-56c0 41-32 33-32 64a31.9 31.9 0 0 0 32 32z" opacity=".4"/><path d="m448 384c-28 0-31.26-32-74.5-32-43.43 0-46.83 32-74.75 32-27.7 0-31.45-32-74.75-32-42.84 0-47.22 32-74.5 32-28.15 0-31.2-32-74.75-32s-46.65 32-74.75 32v-80a48 48 0 0 1 48-48h16v-144h64v144h64v-144h64v144h64v-144h64v144h16a48 48 0 0 1 48 48z"/></svg>