<svg viewBox="0 0 512 512"><path d="m512 464v32a16 16 0 0 1 -16 16h-368c-70.83 0-128.41-57.83-128-128.75.41-70.63 58.78-127.25 129.41-127.25h302.59a80.09 80.09 0 0 1 80 80.79c-.43 44-37 79.21-81 79.21h-303a32 32 0 0 1 -32-32.9c.48-17.43 15.22-31.1 32.66-31.1h303.34a16 16 0 0 0 16-16.81c-.42-8.59-7.84-15.19-16.44-15.19h-303.56a64.06 64.06 0 0 0 -64 65c.53 35.12 29.84 63 65 63h367a16 16 0 0 1 16 16z" opacity=".4"/><path d="m512 96s-.07 179.79-.28 233.47a80.1 80.1 0 0 0 -79.72-73.47h-302.59c-70.63 0-129 56.62-129.41 127.25v.73-287.98a96.14 96.14 0 0 1 96-96h320a96.14 96.14 0 0 1 96 96z"/></svg>