<svg viewBox="0 0 576 512"><path d="m497.46 288-17.46 64h-288v-352h384l-17.45 64h-166.55a8 8 0 0 0 -8 8v16a8 8 0 0 0 8 8h157.82l-17.45 64h-140.37a8 8 0 0 0 -8 8v16a8 8 0 0 0 8 8h131.64l-17.45 64h-114.19a8 8 0 0 0 -8 8v16a8 8 0 0 0 8 8z" opacity=".4"/><path d="m158.8 335-25.8-63.25a16.79 16.79 0 0 0 -17.24-10.26l-45 4.42a214.78 214.78 0 0 1 0-147.72l45 4.42a16.81 16.81 0 0 0 17.24-10.26l25.8-63.26a16.3 16.3 0 0 0 -6.68-20.09l-39.28-24.08c-14.33-8.79-32.75-5.42-43.84 7.08a269.64 269.64 0 0 0 2.09 362.49c9.87 10.8 29.12 12.48 41.66 4.8l39.4-24.18a16.3 16.3 0 0 0 6.65-20.11zm321.2 49h-288a64 64 0 0 0 -64 64v32a32 32 0 0 0 32 32h352a32 32 0 0 0 32-32v-32a64 64 0 0 0 -64-64zm-144 96a32 32 0 1 1 32-32 32 32 0 0 1 -32 32zm56-192h105.46l8.72-32h-114.18a8 8 0 0 0 -8 8v16a8 8 0 0 0 8 8zm0-96h131.64l8.72-32h-140.36a8 8 0 0 0 -8 8v16a8 8 0 0 0 8 8zm0-128a8 8 0 0 0 -8 8v16a8 8 0 0 0 8 8h157.81l8.73-32z"/></svg>