<svg viewBox="0 0 512 512"><path d="m328 288a8 8 0 0 1 -8-8v-16a8 8 0 0 1 8-8h114.18l17.46-64h-131.64a8 8 0 0 1 -8-8v-16a8 8 0 0 1 8-8h140.36l17.46-64h-157.82a8 8 0 0 1 -8-8v-16a8 8 0 0 1 8-8h166.55l17.45-64h-464a48 48 0 0 0 -48 48v160a48 48 0 0 0 48 48h103.27l8.73 96h256l17.45-64zm-264-96v-128h69.82l11.64 128z" opacity=".4"/><path d="m416 384h-256a64 64 0 0 0 -64 64v32a32 32 0 0 0 32 32h320a32 32 0 0 0 32-32v-32a64 64 0 0 0 -64-64zm-128 96a32 32 0 1 1 32-32 32 32 0 0 1 -32 32zm40-288h131.64l8.72-32h-140.36a8 8 0 0 0 -8 8v16a8 8 0 0 0 8 8zm0 96h105.46l8.72-32h-114.18a8 8 0 0 0 -8 8v16a8 8 0 0 0 8 8zm0-224a8 8 0 0 0 -8 8v16a8 8 0 0 0 8 8h157.81l8.73-32z"/></svg>