<svg viewBox="0 0 384 512"><path d="m380.15 510.84a8 8 0 0 1 -11-2.68l-125.32-206.44a31.91 31.91 0 0 0 13-9.48l126 207.61a8 8 0 0 1 -2.68 11z" opacity=".4"/><path d="m142.8 314.34-32.54 89.48 36.12 88.29a32 32 0 0 0 59.24-24.23zm-46.8-226.34a44 44 0 1 0 -44-44 44 44 0 0 0 44 44zm154.84 169.13-120-152a23.91 23.91 0 0 0 -18.84-9.13h-32a23.9 23.9 0 0 0 -18.94 9.24l-61.06 78.53v95.69c0 13.46 11 24.79 24.46 24.54a24 24 0 0 0 23.54-24v-79.77l16-20.57v140.7l-54.07 148.69a32 32 0 0 0 59.91 22.51c.08-.21.16-.42.23-.63l65.93-181.29v-107.2l-31.41-39.82a4 4 0 0 1 6.27-5l102.3 129.22c9.15 11.59 24.37 11.34 33.71 4a24 24 0 0 0 4-33.71z"/></svg>