<svg viewBox="0 0 512 512"><path d="m511.9 303c-8.5-163.18-139.7-294.38-302.9-303a16.1 16.1 0 0 0 -17 16v31.6a15.84 15.84 0 0 0 15 15.9c129.4 7 233.4 112 240.9 241.5a16 16 0 0 0 15.9 15h32.1a16.1 16.1 0 0 0 16-17zm-302.6-207a16.13 16.13 0 0 0 -17.3 16.1v32.1a15.94 15.94 0 0 0 14.8 15.9c76.8 6.3 138 68.2 144.9 145.2a16.07 16.07 0 0 0 15.9 14.7h32.2a16.19 16.19 0 0 0 16.1-17.3c-8.4-110.08-96.5-198.18-206.6-206.7z" opacity=".4"/><path d="m172.2 226.82c75.5 15 129.9 89.3 112.5 172.2-11.4 54.3-55.3 98.3-109.7 109.7-92.9 19.5-175-51.2-175-140.72v-248a23.94 23.94 0 0 1 24-24h48a23.94 23.94 0 0 1 24 24v248a48 48 0 1 0 64.7-45c-9.6-3.6-16.7-11.8-16.7-22v-50.4c0-14.9 13.6-26.7 28.2-23.8z"/></svg>