<svg viewBox="0 0 512 512"><path d="m500 60h-24a12 12 0 0 0 0 24h24a12 12 0 0 0 0-24zm-60-60a12 12 0 0 0 -12 12v24a12 12 0 0 0 24 0v-24a12 12 0 0 0 -12-12zm33.9 55 17-17a12 12 0 0 0 -17-17l-17 17a12 12 0 0 0 17 17zm-67.8 0a12 12 0 0 0 17-17l-17-17a12 12 0 0 0 -17 17zm67.8 34a12 12 0 0 0 -17 17l17 17a12 12 0 0 0 17-17zm-102.5 34.5 17.1 17 52-52-17.1-17z" opacity=".4"/><path d="m415 200.9a23.9 23.9 0 0 0 0-33.9l-70.1-70a23.9 23.9 0 0 0 -33.9 0l-17.4 17.4a207.35 207.35 0 0 0 -85.6-18.4c-114.9 0-208 93.1-208 208s93.1 207.9 208 207.9 208-93.1 208-208a207.35 207.35 0 0 0 -18.4-85.6zm-239 7.1a64.06 64.06 0 0 0 -64 64 16 16 0 0 1 -32 0 96.15 96.15 0 0 1 96-96 16 16 0 0 1 0 32z"/></svg>