<svg viewBox="0 0 640 512"><path d="m598.88 244.56a12.79 12.79 0 0 0 0 22.88 74.38 74.38 0 0 1 41.12 66.56v7.64a74.38 74.38 0 0 1 -145 23.5c-6.53-19.6-10.73-45.14-38.11-45.14h-273.83c-26.51 0-30.43 22.11-38.11 45.14a74.38 74.38 0 0 1 -144.95-23.53v-7.61a74.39 74.39 0 0 1 41.12-66.53 12.79 12.79 0 0 0 0-22.88 74.39 74.39 0 0 1 -41.12-66.59v-7.64a74.38 74.38 0 0 1 145-23.53c6.53 19.6 10.73 45.14 38.11 45.14h273.82c26.51 0 30.43-22.11 38.11-45.14a74.39 74.39 0 0 1 145 23.53v7.64a74.39 74.39 0 0 1 -41.12 66.53z" opacity=".4"/></svg>