<svg viewBox="0 0 640 512"><path d="m598.88 171.44a74.38 74.38 0 0 1 41.12 66.56v7.64a74.38 74.38 0 0 1 -144.94 23.53l-7.75-23.26a32 32 0 0 0 -30.31-21.91h-105l32-64-32-64h105a32 32 0 0 0 30.36-21.88l7.75-23.26a74.38 74.38 0 0 1 144.89 23.53v7.61a74.39 74.39 0 0 1 -41.12 66.53 12.79 12.79 0 0 0 0 22.91z" opacity=".4"/><path d="m320 282.51-64-26.51-26.5-64-63 63a32 32 0 0 1 -36.94 6l-21.93-11a74.39 74.39 0 0 0 -85.84 119.13l5.4 5.4a74.39 74.39 0 0 0 76.12 18 12.79 12.79 0 0 1 16.18 16.18 74.39 74.39 0 0 0 18 76.12l5.4 5.4a74.39 74.39 0 0 0 119.11-85.9l-11-21.93a32 32 0 0 1 6-36.94z"/></svg>