<svg viewBox="0 0 448 512"><path d="m48 384c0-25.42 5.87-46.53 14.74-64h258.52c8.87 17.47 14.74 38.58 14.74 64a143 143 0 0 1 -19.08 71.36 16.86 16.86 0 0 1 -14.42 8.64h-221a16.86 16.86 0 0 1 -14.42-8.64 143 143 0 0 1 -19.08-71.36z" opacity=".4"/><path d="m443.31 217.37-52.69-52.69a16 16 0 0 0 -22.63 0l-11.31 11.32a16 16 0 0 0 0 22.63l9.38 9.38-39.41 39.41a193.53 193.53 0 0 0 -38.65-29.52v-154.16h16a16 16 0 0 0 16-16v-31.74a16 16 0 0 0 -16-16l-224 .26a16 16 0 0 0 -16 16v31.74a16 16 0 0 0 16 16h16v153.89c-57.33 33.21-96 95.11-96 166.11a190.15 190.15 0 0 0 25.5 95.34 64.77 64.77 0 0 0 56 32.66h221a64.75 64.75 0 0 0 56-32.66 191 191 0 0 0 -1.94-194l43.44-43.4 9.38 9.38a16 16 0 0 0 22.63 0l11.3-11.32a16 16 0 0 0 0-22.63zm-126.39 238a16.86 16.86 0 0 1 -14.42 8.63h-221a16.86 16.86 0 0 1 -14.42-8.64 143 143 0 0 1 -19.08-71.36c0-93.78 79.85-129.09 96-138.44v-181.37h96v181.37c16.15 9.35 96 44.66 96 138.44a143 143 0 0 1 -19.08 71.36z"/></svg>