<svg viewBox="0 0 576 512"><path d="m96 0h-64a32 32 0 0 0 -32 32v64h128v-64a32 32 0 0 0 -32-32zm-96 384h128v-256h-128zm0 96a32 32 0 0 0 32 32h64a32 32 0 0 0 32-32v-64h-128zm513.62-17.78-112.54-419.51-60.26 16.14 112.35 418.8c.11.39.2.79.29 1.18l60.29-16.15c-.04-.15-.09-.3-.13-.46zm-353.62 17.78a32 32 0 0 0 32 32h64a32 32 0 0 0 32-32v-64h-128zm96-480h-64a32 32 0 0 0 -32 32v64h124.79l-8-29.65a23.94 23.94 0 0 1 11.17-27v-7.35a32 32 0 0 0 -31.96-32zm-96 384h128v-256h-128z" opacity=".4"/><path d="m0 416h128v-32h-128zm0-288h128v-32h-128zm575.17 317.65-114.78-427.87a23.89 23.89 0 0 0 -29.18-17h-.09l-15.39 4.22a24 24 0 0 0 -16.9 29.36l114.79 427.86a23.89 23.89 0 0 0 29.18 17h.09l15.38-4.22a24 24 0 0 0 16.9-29.35zm-415.17-29.65h128v-32h-128zm178.39-366.22a23.89 23.89 0 0 0 -29.18-17h-.09l-15.39 4.22a24 24 0 0 0 -16.9 29.36l8 29.65h-124.83v32h128v-20.01l103.62 386.22a23.89 23.89 0 0 0 29.18 17h.09l15.38-4.22a24 24 0 0 0 16.9-29.33z"/></svg>