<svg viewBox="0 0 576 512"><path d="m576 62.75v337.84c0 16.23-13.13 29.77-30 30.66-49.47 2.6-149.52 12.1-218.7 46.92-10.65 5.36-23.28-1.94-23.28-13.49v-363.87a15.37 15.37 0 0 1 7.27-13.17c67.24-41.16 176.16-52.48 231-55.59 18.35-1.05 33.71 12.95 33.71 30.7z" opacity=".4"/><path d="m264.73 87.64c-67.23-41.16-176.15-52.47-230.95-55.59-18.42-1.05-33.78 12.95-33.78 30.7v337.85c0 16.24 13.13 29.78 30 30.66 49.49 2.6 149.59 12.11 218.77 46.95 10.62 5.35 23.21-1.94 23.21-13.46v-364.12a15.05 15.05 0 0 0 -7.25-12.99z"/></svg>