<svg viewBox="0 0 640 512"><path d="m160 0h-64a32 32 0 0 0 -32 32v76.33a160.25 160.25 0 0 1 128 0v-76.33a32 32 0 0 0 -32-32zm64 480a32 32 0 0 0 32 32h64a32 32 0 0 0 32-32v-64h-128zm353.62-17.78-112.54-419.51-60.26 16.14 112.35 418.8c.11.39.2.79.29 1.18l60.29-16.15c-.04-.15-.09-.3-.13-.46zm-513.62-60.54v78.32a32 32 0 0 0 32 32h64a32 32 0 0 0 32-32v-78.32a160.33 160.33 0 0 1 -128 0zm191-49.36a160.35 160.35 0 0 1 -31 30.68v1h128v-256.16l-126.7.16a160 160 0 0 1 29.7 224.32zm65-352.32h-64a32 32 0 0 0 -32 32v64h124.79l-8-29.65a23.94 23.94 0 0 1 11.17-27v-7.35a32 32 0 0 0 -31.96-32z" opacity=".4"/><path d="m128 127a128 128 0 1 0 128 128 128 128 0 0 0 -128-128zm64 144a5.33 5.33 0 0 1 -5.33 5.33h-37.34v37.34a5.33 5.33 0 0 1 -5.33 5.33h-32a5.33 5.33 0 0 1 -5.33-5.33v-37.33h-37.34a5.33 5.33 0 0 1 -5.33-5.34v-32a5.33 5.33 0 0 1 5.33-5.33h37.34v-37.33a5.33 5.33 0 0 1 5.33-5.34h32a5.33 5.33 0 0 1 5.33 5.33v37.34h37.34a5.33 5.33 0 0 1 5.33 5.33zm210.39-221.22a23.89 23.89 0 0 0 -29.18-17h-.09l-15.39 4.22a24 24 0 0 0 -16.9 29.36l8 29.65h-124.83v32h128v-20.01l103.62 386.22a23.89 23.89 0 0 0 29.18 17h.09l15.38-4.22a24 24 0 0 0 16.9-29.33zm236.78 395.87-114.78-427.87a23.89 23.89 0 0 0 -29.18-17h-.09l-15.39 4.22a24 24 0 0 0 -16.9 29.36l114.79 427.86a23.89 23.89 0 0 0 29.18 17h.09l15.38-4.22a24 24 0 0 0 16.9-29.35zm-415.17-29.65h128v-32h-128z"/></svg>