<svg viewBox="0 0 448 512"><path d="m96 448c-19.2 0-32-12.8-32-32s16-32 32-32h319.33c-1.93 16.24-1.76 48.38.53 64z" opacity=".4"/><path d="m96 384h328a24 24 0 0 0 24-24v-328a32 32 0 0 0 -32-32h-320a96 96 0 0 0 -96 96v320a96 96 0 0 0 96 96h328a24 24 0 0 0 24-24v-16a24 24 0 0 0 -24-24h-328c-19.2 0-32-12.8-32-32s16-32 32-32zm144-320a64 64 0 1 1 -64 64 64 64 0 0 1 64-64zm-112 217.6c0-31.81 30.09-57.6 67.2-57.6h5a103.22 103.22 0 0 0 79.7 0h5c37.11 0 67.2 25.79 67.2 57.6v19.2c0 10.61-10 19.2-22.4 19.2h-179.3c-12.4 0-22.4-8.6-22.4-19.2z"/></svg>