<svg viewBox="0 0 640 512"><path d="m592 160h-544a48 48 0 0 0 -48 48v256a48 48 0 0 0 48 48h544a48 48 0 0 0 48-48v-256a48 48 0 0 0 -48-48zm-416 288a112 112 0 1 1 112-112 112.12 112.12 0 0 1 -112 112zm288 0a112 112 0 1 1 112-112 112.12 112.12 0 0 1 -112 112z" opacity=".4"/><path d="m552 0h-464a56.07 56.07 0 0 0 -56 56v106.94a47.5 47.5 0 0 1 16-2.94h32v-104a8 8 0 0 1 8-8h464a8 8 0 0 1 8 8v104h32a47.5 47.5 0 0 1 16 2.94v-106.94a56.06 56.06 0 0 0 -56-56zm-296 144a16 16 0 0 0 -16-16h-32a16 16 0 0 0 -16 16v16h64zm192 0a16 16 0 0 0 -16-16h-32a16 16 0 0 0 -16 16v16h64zm-96 0a16 16 0 0 0 -16-16h-32a16 16 0 0 0 -16 16v16h64zm112 80a112 112 0 1 0 112 112 112.12 112.12 0 0 0 -112-112zm0 176a64 64 0 1 1 64-64 64.07 64.07 0 0 1 -64 64zm-288-176a112 112 0 1 0 112 112 112.12 112.12 0 0 0 -112-112zm0 176a64 64 0 1 1 64-64 64.07 64.07 0 0 1 -64 64z"/></svg>