<svg viewBox="0 0 448 512"><path d="m240 416h-32a16 16 0 0 0 -16 16v32a16 16 0 0 0 16 16h32a16 16 0 0 0 16-16v-32a16 16 0 0 0 -16-16zm-96 0h-32a16 16 0 0 0 -16 16v32a16 16 0 0 0 16 16h32a16 16 0 0 0 16-16v-32a16 16 0 0 0 -16-16zm192 0h-32a16 16 0 0 0 -16 16v32a16 16 0 0 0 16 16h32a16 16 0 0 0 16-16v-32a16 16 0 0 0 -16-16zm96-192h-32a16 16 0 0 0 -16 16v32a16 16 0 0 0 16 16h32a16 16 0 0 0 16-16v-32a16 16 0 0 0 -16-16zm0 96h-32a16 16 0 0 0 -16 16v32a16 16 0 0 0 16 16h32a16 16 0 0 0 16-16v-32a16 16 0 0 0 -16-16zm0 96h-32a16 16 0 0 0 -16 16v32a16 16 0 0 0 16 16h32a16 16 0 0 0 16-16v-32a16 16 0 0 0 -16-16zm0-288h-32a16 16 0 0 0 -16 16v32a16 16 0 0 0 16 16h32a16 16 0 0 0 16-16v-32a16 16 0 0 0 -16-16z" opacity=".4"/><path d="m432 32h-400a32 32 0 0 0 -32 32v400a16 16 0 0 0 16 16h32a16 16 0 0 0 16-16v-368h368a16 16 0 0 0 16-16v-32a16 16 0 0 0 -16-16z"/></svg>