<svg viewBox="0 0 448 512"><path d="m208 96h32a16 16 0 0 0 16-16v-32a16 16 0 0 0 -16-16h-32a16 16 0 0 0 -16 16v32a16 16 0 0 0 16 16zm96 0h32a16 16 0 0 0 16-16v-32a16 16 0 0 0 -16-16h-32a16 16 0 0 0 -16 16v32a16 16 0 0 0 16 16zm-192 0h32a16 16 0 0 0 16-16v-32a16 16 0 0 0 -16-16h-32a16 16 0 0 0 -16 16v32a16 16 0 0 0 16 16zm-96 192h32a16 16 0 0 0 16-16v-32a16 16 0 0 0 -16-16h-32a16 16 0 0 0 -16 16v32a16 16 0 0 0 16 16zm0-96h32a16 16 0 0 0 16-16v-32a16 16 0 0 0 -16-16h-32a16 16 0 0 0 -16 16v32a16 16 0 0 0 16 16zm0-96h32a16 16 0 0 0 16-16v-32a16 16 0 0 0 -16-16h-32a16 16 0 0 0 -16 16v32a16 16 0 0 0 16 16zm0 288h32a16 16 0 0 0 16-16v-32a16 16 0 0 0 -16-16h-32a16 16 0 0 0 -16 16v32a16 16 0 0 0 16 16z" opacity=".4"/><path d="m432 32h-32a16 16 0 0 0 -16 16v368h-368a16 16 0 0 0 -16 16v32a16 16 0 0 0 16 16h400a32 32 0 0 0 32-32v-400a16 16 0 0 0 -16-16z"/></svg>