<svg viewBox="0 0 512 512"><path d="m282.33 150.47 46.61-46.61a255.3 255.3 0 0 0 -275.1.73l-3.9-3.9a16 16 0 0 0 -22.63 0l-22.62 22.62a16 16 0 0 0 0 22.63l141.09 141.06 45.22-45.22-90.54-90.58a192.49 192.49 0 0 1 181.87-.73zm125.08 307a255.3 255.3 0 0 0 .73-275.1l-46.61 46.63a192.51 192.51 0 0 1 -.73 181.88l-90.58-90.58-45.22 45.26 141.72 141.76a16 16 0 0 0 22.63 0l22.65-22.63a16 16 0 0 0 0-22.63z" opacity=".4"/><path d="m511.71 18.78-25.71 128.59a15.7 15.7 0 0 1 -26.49 8l-34.51-34.45-250.61 250.64 16.61 49.7a20.56 20.56 0 0 1 -5 21l-63.68 63.74a20.56 20.56 0 0 1 -34-8l-18.59-55.72-55.66-18.55a20.56 20.56 0 0 1 -8-34l63.63-63.73a20.58 20.58 0 0 1 21-5l49.7 16.57 250.68-250.57-34.47-34.48a15.7 15.7 0 0 1 8-26.49l128.61-25.72a15.72 15.72 0 0 1 18.49 18.47z"/></svg>