<svg viewBox="0 0 448 512"><path d="m133.17 160c.8-35.8 20.9-59.1 18.8-96-1.9-34.2-22.7-63.9-55.97-64-33.4.1-54.1 29.8-56 64-2.1 36.9 18 60.2 18.8 96zm181.6 0h74.4c.8-35.7 20.9-59.1 18.8-96-1.9-34.3-22.6-63.9-56-64-33.3.1-54.1 29.8-56 64-2.1 36.9 18 60.2 18.8 96zm128.9 160c-10.8-48.1-39.9-82.8-50.7-128h-81.9c-10.8 45.2-39.9 79.9-50.7 128-11.5 51.1.6 140.5 26.7 192h130c26-51.5 38-141 26.6-192zm-306.8-128h-81.8c-10.8 45.2-40 79.9-50.7 128-11.5 51.1.5 140.5 26.6 192h130.03c26.1-51.5 38.1-140.9 26.7-192-10.83-48.1-40.03-82.8-50.83-128z" opacity=".4"/><path d="m59 160-4 32h82l-4-32zm330 0h-74l-4 32h82z"/></svg>