<svg viewBox="0 0 448 512"><path d="m0 192v256a32 32 0 0 0 32 32h384a32 32 0 0 0 32-32v-256zm240 223.9v16.1a8 8 0 0 1 -8 8h-16a8 8 0 0 1 -8-8v-16.3a57.66 57.66 0 0 1 -31.4-11.3 8 8 0 0 1 -.6-12.1l11.8-11.2a8.13 8.13 0 0 1 10.1-.7 24.4 24.4 0 0 0 12.8 3.7h28.1c6.5 0 11.8-5.9 11.8-13.2 0-6-3.6-11.2-8.8-12.7l-45-13.5c-18.6-5.6-31.6-23.4-31.6-43.4 0-24.5 19-44.4 42.7-45.1v-16.2a8 8 0 0 1 8-8h16a8 8 0 0 1 8 8v16.3a57.66 57.66 0 0 1 31.4 11.3 8 8 0 0 1 .6 12.1l-11.7 11.3a8.13 8.13 0 0 1 -10.1.7 24.4 24.4 0 0 0 -12.8-3.7h-28.1c-6.5 0-11.8 5.9-11.8 13.2 0 6 3.6 11.2 8.8 12.7l45 13.5c18.6 5.6 31.6 23.4 31.6 43.4-.1 24.5-19.2 44.5-42.8 45.1z" opacity=".4"/><path d="m208 32h-120.9a32 32 0 0 0 -30.4 21.9l-56.3 104.9c.4.5.5.7.9 1.2h206.7zm43.2 295.4-45-13.5c-5.2-1.5-8.8-6.7-8.8-12.7 0-7.3 5.3-13.2 11.8-13.2h28.1a24.4 24.4 0 0 1 12.8 3.7 8.13 8.13 0 0 0 10.1-.7l11.7-11.3a8 8 0 0 0 -.6-12.1 57.66 57.66 0 0 0 -31.4-11.3v-16.3a8 8 0 0 0 -8-8h-16a8 8 0 0 0 -8 8v16.2c-23.7.7-42.7 20.6-42.7 45.1 0 20 13 37.8 31.6 43.4l45 13.5c5.2 1.5 8.8 6.7 8.8 12.7 0 7.3-5.3 13.2-11.8 13.2h-28.1a24.4 24.4 0 0 1 -12.8-3.7 8.13 8.13 0 0 0 -10.1.7l-11.8 11.2a8 8 0 0 0 .6 12.1 57.66 57.66 0 0 0 31.4 11.3v16.3a8 8 0 0 0 8 8h16a8 8 0 0 0 8-8v-16.1c23.6-.6 42.7-20.6 42.8-45.1 0-20-13-37.8-31.6-43.4zm140.1-273.5a32 32 0 0 0 -30.4-21.9h-120.9v128h206.7c.4-.5.5-.7.9-1.2z"/></svg>