<svg viewBox="0 0 448 512"><path d="m0 192v256a32 32 0 0 0 32 32h384a32 32 0 0 0 32-32v-256zm305.1 149.2-72.6 71.4a12.2 12.2 0 0 1 -17 0l-72.6-71.4a49.59 49.59 0 0 1 3.7-74.2c20.5-16.7 51.1-13.7 70 4.8l7.4 7.3 7.4-7.3c18.8-18.5 49.4-21.5 70-4.8a49.66 49.66 0 0 1 3.7 74.2z" opacity=".4"/><path d="m301.4 267c-20.6-16.7-51.2-13.7-70 4.8l-7.4 7.3-7.4-7.3c-18.9-18.5-49.5-21.5-70-4.8a49.59 49.59 0 0 0 -3.7 74.2l72.6 71.4a12.2 12.2 0 0 0 17 0l72.6-71.4a49.66 49.66 0 0 0 -3.7-74.2zm89.9-213.1a32 32 0 0 0 -30.4-21.9h-120.9v128h206.7c.4-.5.5-.7.9-1.2zm-183.3-21.9h-120.9a32 32 0 0 0 -30.4 21.9l-56.3 104.9c.4.5.5.7.9 1.2h206.7z"/></svg>