<svg viewBox="0 0 448 512"><path d="m416 32h-384a32 32 0 0 0 -32 32v384a32 32 0 0 0 32 32h384a32 32 0 0 0 32-32v-384a32 32 0 0 0 -32-32zm-96 160c0 47.5-34.6 86.7-80 94.4v97.6h40a8 8 0 0 1 8 8v16a8 8 0 0 1 -8 8h-112a8 8 0 0 1 -8-8v-16a8 8 0 0 1 8-8h40v-97.6a95.78 95.78 0 0 1 -80-94.4v-80a16 16 0 0 1 16-16h160a16 16 0 0 1 16 16z" opacity=".4"/><path d="m320 192c0 47.5-34.6 86.7-80 94.4v97.6h40a8 8 0 0 1 8 8v16a8 8 0 0 1 -8 8h-112a8 8 0 0 1 -8-8v-16a8 8 0 0 1 8-8h40v-97.6a95.78 95.78 0 0 1 -80-94.4v-80a16 16 0 0 1 16-16h60.4l24.5 27.6-64 32 91 68.4-37-59.6 64-32-22.8-36.4h43.9a16 16 0 0 1 16 16z"/></svg>