<svg viewBox="0 0 640 512"><path d="m439 254.14 137-39.14v178a32.07 32.07 0 0 1 -24.2 31l-216.4 54.1a65 65 0 0 1 -31 0l-216.16-54.1a31.9 31.9 0 0 1 -24.24-31v-178l137 39.2a46 46 0 0 0 13.3 1.9 48.64 48.64 0 0 0 41.5-23.5l64.2-106.6 64.3 106.6a48.47 48.47 0 0 0 41.4 23.4 46 46 0 0 0 13.3-1.86z" opacity=".4"/><path d="m638.34 143.84-51.5-102.84a16.33 16.33 0 0 0 -16.7-8.9l-250.14 31.9 91.7 152.1a16.44 16.44 0 0 0 18.5 7.3l197.9-56.5a16.47 16.47 0 0 0 10.24-23.06zm-585.1-102.84-51.5 102.84a16.3 16.3 0 0 0 10.1 23l197.9 56.5a16.44 16.44 0 0 0 18.5-7.3l91.76-152.04-250.16-31.86a16.34 16.34 0 0 0 -16.6 8.86z"/></svg>