<svg viewBox="0 0 640 512"><path d="m448 128c-106 0-192 86-192 192s86 192 192 192 192-86 192-192-86-192-192-192zm114.1 147.8-131 130a11 11 0 0 1 -15.6-.1l-75.7-76.3a11 11 0 0 1 .1-15.6l26-25.8a11 11 0 0 1 15.6.1l42.1 42.5 97.2-96.4a11 11 0 0 1 15.6.1l25.8 26a11 11 0 0 1 -.1 15.5z" opacity=".4"/><path d="m240 0h-141.4a47.87 47.87 0 0 0 -45.5 32.8l-50.6 151.8c-.8 2.4-.8 4.9-1.2 7.4h238.7zm208 80a221.93 221.93 0 0 1 27.2 1.7l-16.3-48.8a47.83 47.83 0 0 0 -45.5-32.9h-141.4v157.4c43.9-47.5 106.4-77.4 176-77.4zm-240 240a238.53 238.53 0 0 1 20.2-96h-228.2v240a48 48 0 0 0 48 48h256.6c-58.5-43.8-96.6-113.4-96.6-192zm354.2-59.7-25.8-26a11 11 0 0 0 -15.6-.1l-97.2 96.4-42.1-42.5a11 11 0 0 0 -15.6-.1l-26 25.8a11 11 0 0 0 -.1 15.6l75.7 76.3a11 11 0 0 0 15.6.1l131-130a11 11 0 0 0 .1-15.5z"/></svg>