<svg viewBox="0 0 640 512"><path d="m439 382.1 137-39.1v82a32.07 32.07 0 0 1 -24.2 31l-216.4 54.1a65 65 0 0 1 -31 0l-216.16-54.1a31.9 31.9 0 0 1 -24.24-31v-82l137.1 39.2c28.6 8.2 48.3-10.9 54.7-21.6l64.2-106.6 64.3 106.6c6.54 10.8 26.24 29.7 54.7 21.5z" opacity=".4"/><path d="m194.24 143.7a63.28 63.28 0 0 1 -2.24-15.7 64 64 0 1 1 128 0 62.84 62.84 0 0 1 -8.2 30.7l8.2 1 155.34-19.7 35.66-98.3a16 16 0 0 0 -9.6-20.5l-55.46-20.2a16 16 0 0 0 -20.5 9.6l-41.7 114.4c-1.74-69.3-58-125-127.74-125a128 128 0 0 0 -128 128c0 2.5.6 4.9.7 7.4zm444.1 128.1-51.5-102.8a16.33 16.33 0 0 0 -16.7-8.9l-250.14 31.9 91.7 152.1a16.44 16.44 0 0 0 18.5 7.3l197.9-56.5a16.47 16.47 0 0 0 10.24-23.1zm-585.1-102.8-51.5 102.8a16.3 16.3 0 0 0 10.1 23l197.9 56.5a16.44 16.44 0 0 0 18.5-7.3l91.76-152-250.16-31.9a16.34 16.34 0 0 0 -16.6 8.9z"/></svg>