<svg viewBox="0 0 448 512"><path d="m416 32h-384a32 32 0 0 0 -32 32v384a32 32 0 0 0 32 32h384a32 32 0 0 0 32-32v-384a32 32 0 0 0 -32-32zm-358.2 147 64-80a8.28 8.28 0 0 1 12.5 0l64 80a8 8 0 0 1 -6.2 13h-32v112a16 16 0 0 1 -16 16h-32a16 16 0 0 1 -16-16v-112h-32.1a8 8 0 0 1 -6.2-13zm326.2 229a8 8 0 0 1 -8 8h-304a8 8 0 0 1 -8-8v-16a8 8 0 0 1 8-8h304a8 8 0 0 1 8 8zm0-216h-32v112a16 16 0 0 1 -16 16h-32a16 16 0 0 1 -16-16v-112h-32a8 8 0 0 1 -6.2-13l64-80a8.28 8.28 0 0 1 12.5 0l64 80a8.05 8.05 0 0 1 -6.3 13z" opacity=".4"/><path d="m134.3 99a8.28 8.28 0 0 0 -12.5 0l-64 80a8 8 0 0 0 6.2 13h32.1v112a16 16 0 0 0 16 16h32a16 16 0 0 0 16-16v-112h32a8 8 0 0 0 6.2-13zm256 80-64-80a8.28 8.28 0 0 0 -12.5 0l-64 80a8 8 0 0 0 6.2 13h32v112a16 16 0 0 0 16 16h32a16 16 0 0 0 16-16v-112h32a8.05 8.05 0 0 0 6.3-13z"/></svg>