<svg viewBox="0 0 576 512"><path d="m480 288v96l-32-21.3-32 21.3v-96zm-160-288v96l-32-21.3-32 21.3v-96zm-160 288v96l-32-21.3-32 21.3v-96z" opacity=".4"/><path d="m560 288h-80v96l-32-21.3-32 21.3v-96h-80a16 16 0 0 0 -16 16v192a16 16 0 0 0 16 16h224a16 16 0 0 0 16-16v-192a16 16 0 0 0 -16-16zm-384-64h224a16 16 0 0 0 16-16v-192a16 16 0 0 0 -16-16h-80v96l-32-21.3-32 21.3v-96h-80a16 16 0 0 0 -16 16v192a16 16 0 0 0 16 16zm64 64h-80v96l-32-21.3-32 21.3v-96h-80a16 16 0 0 0 -16 16v192a16 16 0 0 0 16 16h224a16 16 0 0 0 16-16v-192a16 16 0 0 0 -16-16z"/></svg>