<svg viewBox="0 0 576 512"><path d="m320 0v88a8 8 0 0 1 -8 8h-48a8 8 0 0 1 -8-8v-88zm160 288v88a8 8 0 0 1 -8 8h-48a8 8 0 0 1 -8-8v-88zm-320 0v88a8 8 0 0 1 -8 8h-48a8 8 0 0 1 -8-8v-88z" opacity=".4"/><path d="m176 224h224a16 16 0 0 0 16-16v-192a16 16 0 0 0 -16-16h-80v88a8 8 0 0 1 -8 8h-48a8 8 0 0 1 -8-8v-88h-80a16 16 0 0 0 -16 16v192a16 16 0 0 0 16 16zm384 64h-80v88a8 8 0 0 1 -8 8h-48a8 8 0 0 1 -8-8v-88h-80a16 16 0 0 0 -16 16v192a16 16 0 0 0 16 16h224a16 16 0 0 0 16-16v-192a16 16 0 0 0 -16-16zm-320 0h-80v88a8 8 0 0 1 -8 8h-48a8 8 0 0 1 -8-8v-88h-80a16 16 0 0 0 -16 16v192a16 16 0 0 0 16 16h224a16 16 0 0 0 16-16v-192a16 16 0 0 0 -16-16z"/></svg>