<svg viewBox="0 0 448 512"><path d="m352 400v80a32 32 0 0 1 -32 32h-256a32 32 0 0 1 -32-32v-80h133.3l-40.5 30.4a8.09 8.09 0 0 0 -1.6 11.2l9.6 12.8a8 8 0 0 0 11.2 1.6l48-36 48 36a8 8 0 0 0 11.2-1.6l9.6-12.8a8.08 8.08 0 0 0 -1.6-11.2l-40.5-30.4z" opacity=".4"/><path d="m15.8 286.7a1161.36 1161.36 0 0 1 -15.8-190.8c0-52.8 43.3-95.9 96-95.9h192a96 96 0 0 1 96 96v32.2c-29.1 0-67.6-5.6-96 32.5v-.5h-146.8a92.8 92.8 0 0 1 -60.5-22.3 8 8 0 0 0 -10.9.4l-11.3 11.3a8 8 0 0 0 .4 11.7 124.45 124.45 0 0 0 82.3 30.8h132.5a84.28 84.28 0 0 0 -1.6 16 80.12 80.12 0 0 0 71.2 79.5 8 8 0 0 0 8.8-8v-16a8.17 8.17 0 0 0 -6.9-8.1 47.9 47.9 0 0 1 -41.1-48.4c.5-26.3 22.5-47.1 48.8-47.1h31.1a64.06 64.06 0 0 1 64 64c0 13.8 2.8 61.1-37.5 101.5l-58.5 58.5v16h-133.3l40.5-30.4a8.09 8.09 0 0 0 1.6-11.2l-9.6-12.8a8 8 0 0 0 -11.2-1.6l-48 36-48-36a8 8 0 0 0 -11.2 1.6l-9.6 12.8a8 8 0 0 0 1.6 11.2l40.5 30.4h-133.3v-16z"/></svg>