<svg viewBox="0 0 576 512"><path d="m566.64 233.37a32 32 0 0 1 0 45.25l-45.25 45.25a32 32 0 0 0 -9.39 22.64v37.49a96 96 0 0 1 -96 96h-48a16 16 0 0 1 -16-16v-32a16 16 0 0 1 16-16h48a32 32 0 0 0 32-32v-37.48a96 96 0 0 1 28.13-67.89l22.63-22.63-22.62-22.62a96 96 0 0 1 -28.14-67.91v-37.47a32 32 0 0 0 -32-32h-48a16 16 0 0 1 -16-16v-32a16 16 0 0 1 16-16h48a96 96 0 0 1 96 96v37.48a32 32 0 0 0 9.38 22.65l45.25 45.24z" opacity=".4"/><path d="m208 32h-48a96 96 0 0 0 -96 96v37.48a32.12 32.12 0 0 1 -9.38 22.65l-45.24 45.24a32 32 0 0 0 0 45.25l45.25 45.25a32.05 32.05 0 0 1 9.37 22.64v37.49a96 96 0 0 0 96 96h48a16 16 0 0 0 16-16v-32a16 16 0 0 0 -16-16h-48a32 32 0 0 1 -32-32v-37.48a96 96 0 0 0 -28.13-67.89l-22.61-22.63 22.63-22.63a96 96 0 0 0 28.11-67.89v-37.48a32 32 0 0 1 32-32h48a16 16 0 0 0 16-16v-32a16 16 0 0 0 -16-16z"/></svg>