<svg viewBox="0 0 576 512"><path d="m272 439.93a71.81 71.81 0 0 1 -140 22.78 70.91 70.91 0 0 1 -84-70.77 72.51 72.51 0 0 1 1.42-14.1 80 80 0 0 1 -49.42-73.84c0-29.66 16.34-55.26 40.34-69.07a79.05 79.05 0 0 1 -8.34-34.93 80 80 0 0 1 49.66-74 63.6 63.6 0 0 1 62.34-78c.75 0 1.45.2 2.2.22a63.87 63.87 0 0 1 125.8 15.78zm304-135.93c0-29.66-16.34-55.26-40.34-69.07a79.05 79.05 0 0 0 8.34-34.93 80 80 0 0 0 -49.66-74 63.6 63.6 0 0 0 -62.34-78c-.75 0-1.45.2-2.2.22a63.87 63.87 0 0 0 -125.8 15.78v375.9a71.81 71.81 0 0 0 140 22.78 71.73 71.73 0 0 0 82.61-84.87 80 80 0 0 0 49.39-73.81z" opacity=".4"/><path d="m304 439.93a8 8 0 0 1 -8 8h-16a8 8 0 0 1 -8-8v-367.93a8 8 0 0 1 8-8h16a8 8 0 0 1 8 8z"/></svg>