<svg viewBox="0 0 576 512"><path d="m288 0c-180 0-288 93.4-288 169.14 0 30.3 24.24 54.86 64 54.86v256c0 17.67 16.12 32 36 32h376c19.88 0 36-14.33 36-32v-256c39.76 0 64-24.56 64-54.86 0-75.74-108-169.14-288-169.14zm-136 448a24 24 0 1 1 24-24 24 24 0 0 1 -24 24zm0-96a24 24 0 1 1 24-24 24 24 0 0 1 -24 24zm96 96a24 24 0 1 1 24-24 24 24 0 0 1 -24 24z" opacity=".4"/><path d="m152 400a24 24 0 1 0 24 24 24 24 0 0 0 -24-24zm0-96a24 24 0 1 0 24 24 24 24 0 0 0 -24-24zm96 96a24 24 0 1 0 24 24 24 24 0 0 0 -24-24z"/></svg>