<svg viewBox="0 0 640 512"><path d="m184.67 64h-33.73a16 16 0 0 0 -15.41 11.23 188.52 188.52 0 0 0 0 105.53 16 16 0 0 0 15.41 11.24h33.73a15.76 15.76 0 0 0 14.86-21.18 125.2 125.2 0 0 1 0-85.64 15.75 15.75 0 0 0 -14.86-21.18zm-94.75-40.66a15.83 15.83 0 0 0 -13.92-23.34h-35.37a16.18 16.18 0 0 0 -14.74 9.31 285.66 285.66 0 0 0 -25.89 118.69c0 24.75 3.12 68.33 26.69 118.86a16.1 16.1 0 0 0 14.61 9.14h34.84a15.84 15.84 0 0 0 14-23.37c-49.83-93.32-16.76-178.15-.22-209.29zm524.14-14a16.17 16.17 0 0 0 -14.73-9.34h-35.42a15.81 15.81 0 0 0 -14 23.25c18.27 34.29 48.42 119.42.28 209.23a15.87 15.87 0 0 0 13.89 23.52h35.23a16.17 16.17 0 0 0 14.69-9.29 284.5 284.5 0 0 0 0-237.42zm-125 54.66h-33.73a15.76 15.76 0 0 0 -14.86 21.18 125.2 125.2 0 0 1 0 85.64 15.75 15.75 0 0 0 14.86 21.18h33.73a16 16 0 0 0 15.41-11.24 188.48 188.48 0 0 0 0-105.52 15.94 15.94 0 0 0 -15.41-11.24z" opacity=".4"/><path d="m503.26 477.53-130.5-313.41a64 64 0 1 0 -105.52 0l-130.5 313.41a16 16 0 0 0 8.61 20.92l29.51 12.31a16 16 0 0 0 20.91-8.61l49.23-118.15h150l49.2 118.15a16 16 0 0 0 20.91 8.61l29.51-12.31a16 16 0 0 0 8.64-20.92zm-231.64-157.53 48.38-116.19 48.38 116.19z"/></svg>