<svg viewBox="0 0 512 512"><path d="m369 112h-224a112 112 0 0 1 224 0z" opacity=".4"/><path d="m512 288.9c-.48 17.43-15.22 31.1-32.66 31.1h-55.34v16a143.4 143.4 0 0 1 -13.6 61.14l60.23 60.23a32 32 0 0 1 -45.26 45.26l-54.73-54.74a143.42 143.42 0 0 1 -90.64 32.11v-244a12 12 0 0 0 -12-12h-24a12 12 0 0 0 -12 12v244a143.42 143.42 0 0 1 -90.64-32.11l-54.73 54.74a32 32 0 0 1 -45.26-45.26l60.23-60.23a143.4 143.4 0 0 1 -13.6-61.14v-16h-55.33c-17.44 0-32.18-13.67-32.67-31.1a32 32 0 0 1 32-32.9h56v-58.74l-46.63-46.63a32 32 0 0 1 45.26-45.26l54.62 54.63h229.49l54.63-54.63a32 32 0 0 1 45.26 45.26l-46.63 46.63v58.74h56a32 32 0 0 1 32 32.9z"/></svg>