<svg viewBox="0 0 448 512"><path d="m180 160h-40a12 12 0 0 0 -12 12v40a12 12 0 0 0 12 12h40a12 12 0 0 0 12-12v-40a12 12 0 0 0 -12-12zm0 96h-40a12 12 0 0 0 -12 12v40a12 12 0 0 0 12 12h40a12 12 0 0 0 12-12v-40a12 12 0 0 0 -12-12zm0-192h-40a12 12 0 0 0 -12 12v40a12 12 0 0 0 12 12h40a12 12 0 0 0 12-12v-40a12 12 0 0 0 -12-12zm128 0h-40a12 12 0 0 0 -12 12v40a12 12 0 0 0 12 12h40a12 12 0 0 0 12-12v-40a12 12 0 0 0 -12-12zm0 96h-40a12 12 0 0 0 -12 12v40a12 12 0 0 0 12 12h40a12 12 0 0 0 12-12v-40a12 12 0 0 0 -12-12zm0 96h-40a12 12 0 0 0 -12 12v40a12 12 0 0 0 12 12h40a12 12 0 0 0 12-12v-40a12 12 0 0 0 -12-12z" opacity=".4"/><path d="m436 480h-20v-456a24 24 0 0 0 -24-24h-336a24 24 0 0 0 -24 24v456h-20a12 12 0 0 0 -12 12v20h448v-20a12 12 0 0 0 -12-12zm-308-404a12 12 0 0 1 12-12h40a12 12 0 0 1 12 12v40a12 12 0 0 1 -12 12h-40a12 12 0 0 1 -12-12zm0 96a12 12 0 0 1 12-12h40a12 12 0 0 1 12 12v40a12 12 0 0 1 -12 12h-40a12 12 0 0 1 -12-12zm52 148h-40a12 12 0 0 1 -12-12v-40a12 12 0 0 1 12-12h40a12 12 0 0 1 12 12v40a12 12 0 0 1 -12 12zm76 160h-64v-84a12 12 0 0 1 12-12h40a12 12 0 0 1 12 12zm64-172a12 12 0 0 1 -12 12h-40a12 12 0 0 1 -12-12v-40a12 12 0 0 1 12-12h40a12 12 0 0 1 12 12zm0-96a12 12 0 0 1 -12 12h-40a12 12 0 0 1 -12-12v-40a12 12 0 0 1 12-12h40a12 12 0 0 1 12 12zm0-96a12 12 0 0 1 -12 12h-40a12 12 0 0 1 -12-12v-40a12 12 0 0 1 12-12h40a12 12 0 0 1 12 12z"/></svg>