<svg viewBox="0 0 576 512"><path d="m544 448c0 9.22-7.08 32-32 32a32 32 0 0 1 -20-7l-85-68a242.82 242.82 0 0 0 -119-50.79v-228.37a242.86 242.86 0 0 0 119-50.79l85-68.05a31.93 31.93 0 0 1 20-7c25 0 32 23.26 32 32z" opacity=".4"/><path d="m544 184.88v110.24a63.47 63.47 0 0 0 0-110.24zm-544 7.12v96a64 64 0 0 0 64 64h33.7a243 243 0 0 0 -2.18 32 253.32 253.32 0 0 0 25.56 110.94c5.19 10.69 16.52 17.06 28.4 17.06h74.28c26.05 0 41.69-29.84 25.9-50.56a127.35 127.35 0 0 1 -26.15-77.44 121 121 0 0 1 4.41-32h28.08v-224h-192a64 64 0 0 0 -64 64z"/></svg>