<svg viewBox="0 0 496 512"><path d="m248 320a64.07 64.07 0 0 1 -64-64c0-28.95 19.45-53.19 45.88-61.07l55.12-55.14-2.12-6.38c-11.15-3.17-22.7-5.41-34.88-5.41a128 128 0 1 0 128 128c0-12.18-2.24-23.73-5.42-34.89l-6.37-2.11-55.14 55.14a63.85 63.85 0 0 1 -61.07 45.86zm236.43-138.9-35.5 35.5a52.13 52.13 0 0 1 -19.17 12.07c15.9 101.19-53.24 196.1-154.43 212s-196.1-53.25-212-154.43 53.25-196.1 154.43-212a185.71 185.71 0 0 1 57.88.05 52 52 0 0 1 11.76-19.22l35.5-35.5a247.87 247.87 0 0 0 -74.9-11.57c-137 0-248 111-248 248s111 248 248 248 248-111 248-248a247.87 247.87 0 0 0 -11.57-74.9z" opacity=".4"/><path d="m310 77.7 63.68-63.7a20.56 20.56 0 0 1 34 8l18.55 55.65 55.66 18.55a20.56 20.56 0 0 1 8 34l-63.59 63.8a20.58 20.58 0 0 1 -21 5l-49.7-16.57-90.6 90.57a24 24 0 0 1 -34-34l90.59-90.59-16.59-49.7a20.58 20.58 0 0 1 5-21.01z"/></svg>