<svg viewBox="0 0 640 512"><path d="m336 128h-129.27l20-80h45.27a16 16 0 0 0 16-16v-16a16 16 0 0 0 -16-16h-51.5a40 40 0 0 0 -38.81 30.3l-24.43 97.7h-141.26a16 16 0 0 0 -16 16v32a16 16 0 0 0 16 16h320a16 16 0 0 0 16-16v-32a16 16 0 0 0 -16-16zm-44.62 96h-253.11l25.78 258.29a31.87 31.87 0 0 0 31.95 29.71h160a31.59 31.59 0 0 0 13.65-3.36 79.55 79.55 0 0 1 -13.65-44.64 47.93 47.93 0 0 1 17-36.61 63.91 63.91 0 0 1 4.58-91.27 64 64 0 0 1 -14-17.9 64.71 64.71 0 0 1 3.74-66.82c6.68-9.87 15.04-18.86 24.06-27.4z" opacity=".4"/><path d="m624 448h-320a16 16 0 0 0 -16 16 48 48 0 0 0 48 48h256a48 48 0 0 0 48-48 16 16 0 0 0 -16-16zm-304.73-128h289.46c25.35 0 40-29.27 25.54-50.59-29.47-43.28-94.33-77.34-170.27-77.41s-140.79 34.13-170.26 77.41c-14.53 21.32.19 50.59 25.53 50.59zm224.73-80a16 16 0 1 1 -16 16 16 16 0 0 1 16-16zm-80-16a16 16 0 1 1 -16 16 16 16 0 0 1 16-16zm-80 16a16 16 0 1 1 -16 16 16 16 0 0 1 16-16zm-64 176h288a32 32 0 0 0 0-64h-288a32 32 0 0 0 0 64z"/></svg>