<svg viewBox="0 0 512 512"><path d="m351.83 224c-15.22 0-30 2.53-44.54 6.32-28.96 80.13-105.64 137.68-195.72 137.68a207 207 0 0 1 -110.85-32.24c-3.72 33.8 6.86 68.88 32.74 94.74l47.54 47.5a116.21 116.21 0 0 0 164.22 0l216-215.73a175.25 175.25 0 0 0 -109.39-38.27zm-64.07-64a174.85 174.85 0 0 0 -38.33-109.28l-216 215.73a115.42 115.42 0 0 0 -24.43 36.38 175.23 175.23 0 0 0 102.57 33.17c97.14 0 176.19-78.95 176.19-176z" opacity=".4"/><path d="m505.26 153.88a80 80 0 0 1 6.74 32.12c0 22-9.37 42-24.29 56.75a207.26 207.26 0 0 0 -135.88-50.75 210 210 0 0 0 -35.22 3 204.24 204.24 0 0 0 -47.61-170.74c14.8-14.89 34.74-24.26 56.8-24.26a80 80 0 0 1 32.2 6.73 74.19 74.19 0 0 1 101.69 45.53 74.13 74.13 0 0 1 52.31 70.74 73.17 73.17 0 0 1 -6.74 30.88z"/></svg>