<svg viewBox="0 0 512 512"><path d="m64 480a32 32 0 0 0 32 32h32a32 32 0 0 0 32-32v-32h-96zm288-32v32a32 32 0 0 0 32 32h32a32 32 0 0 0 32-32v-32zm-240-288v64a32 32 0 0 0 32 32h96v-128h-96a32 32 0 0 0 -32 32zm288 64v-64a32 32 0 0 0 -32-32h-96v128h96a32 32 0 0 0 32-32z" opacity=".4"/><path d="m488 112h-24v-32c0-44.8-92.11-80-208-80s-208 35.2-208 80v32h-24a24 24 0 0 0 -24 24v80a24 24 0 0 0 24 24h24v20.9c-9.39 5.57-16 15.38-16 27.1v128a32 32 0 0 0 32 32h384a32 32 0 0 0 32-32v-128c0-11.72-6.61-21.52-16-27.1v-20.9h24a24 24 0 0 0 24-24v-80a24 24 0 0 0 -24-24zm-328-40a8 8 0 0 1 8-8h176a8 8 0 0 1 8 8v16a8 8 0 0 1 -8 8h-176a8 8 0 0 1 -8-8zm-48 312a32 32 0 1 1 32-32 32 32 0 0 1 -32 32zm128-128h-96a32 32 0 0 1 -32-32v-64a32 32 0 0 1 32-32h96zm32-128h96a32 32 0 0 1 32 32v64a32 32 0 0 1 -32 32h-96zm128 256a32 32 0 1 1 32-32 32 32 0 0 1 -32 32z"/></svg>