<svg viewBox="0 0 512 512"><path d="m96 160v96a32 32 0 0 0 32 32h112v-160h-112a32 32 0 0 0 -32 32zm320 96v-96a32 32 0 0 0 -32-32h-112v160h112a32 32 0 0 0 32-32zm-352 224a32 32 0 0 0 32 32h32a32 32 0 0 0 32-32v-32h-96zm288-32v32a32 32 0 0 0 32 32h32a32 32 0 0 0 32-32v-32z" opacity=".4"/><path d="m488 128h-8v-48c0-44.8-99.2-80-224-80s-224 35.2-224 80v48h-8a24 24 0 0 0 -24 24v80a24 24 0 0 0 24 24h8v160a32 32 0 0 0 32 32h384a32 32 0 0 0 32-32v-160h8a24 24 0 0 0 24-24v-80a24 24 0 0 0 -24-24zm-376 272a32 32 0 1 1 32-32 32 32 0 0 1 -32 32zm128-112h-112a32 32 0 0 1 -32-32v-96a32 32 0 0 1 32-32h112zm-72-192a8 8 0 0 1 -8-8v-16a8 8 0 0 1 8-8h176a8 8 0 0 1 8 8v16a8 8 0 0 1 -8 8zm104 32h112a32 32 0 0 1 32 32v96a32 32 0 0 1 -32 32h-112zm128 272a32 32 0 1 1 32-32 32 32 0 0 1 -32 32z"/></svg>