<svg viewBox="0 0 512 512"><path d="m352 448v32a32 32 0 0 0 32 32h32a32 32 0 0 0 32-32v-32zm-288 32a32 32 0 0 0 32 32h32a32 32 0 0 0 32-32v-32h-96zm64-192h256a32 32 0 0 0 32-32v-128a32 32 0 0 0 -32-32h-256a32 32 0 0 0 -32 32v128a32 32 0 0 0 32 32z" opacity=".4"/><path d="m488 128h-8v-48c0-44.8-99.2-80-224-80s-224 35.2-224 80v48h-8a24 24 0 0 0 -24 24v80a24 24 0 0 0 24 24h8v160a32 32 0 0 0 32 32h384a32 32 0 0 0 32-32v-160h8a24 24 0 0 0 24-24v-80a24 24 0 0 0 -24-24zm-392 0a32 32 0 0 1 32-32h256a32 32 0 0 1 32 32v128a32 32 0 0 1 -32 32h-256a32 32 0 0 1 -32-32zm16 272a32 32 0 1 1 32-32 32 32 0 0 1 -32 32zm288 0a32 32 0 1 1 32-32 32 32 0 0 1 -32 32z"/></svg>