<svg viewBox="0 0 640 512"><path d="m496 224a144 144 0 1 0 144 144 143.92 143.92 0 0 0 -144-144zm64 150.29a9.74 9.74 0 0 1 -9.71 9.71h-60.57a9.74 9.74 0 0 1 -9.71-9.71v-76.57a9.74 9.74 0 0 1 9.71-9.71h12.57a9.74 9.74 0 0 1 9.71 9.71v54.28h38.29a9.74 9.74 0 0 1 9.71 9.71z" opacity=".4"/><path d="m326.82 320h-118.82a16 16 0 0 1 -16-16v-48h-192v144c0 25.6 22.4 48 48 48h291.43a173.64 173.64 0 0 1 -12.61-128zm185.18-127.19v-48.81c0-25.6-22.4-48-48-48h-80v-48c0-25.6-22.4-48-48-48h-160c-25.6 0-48 22.4-48 48v48h-80c-25.6 0-48 22.4-48 48v80h395.12a174.92 174.92 0 0 1 100.88-32c5.4 0 10.72.33 16 .81zm-192-96.81h-128v-32h128zm230.29 256h-38.29v-54.28a9.74 9.74 0 0 0 -9.71-9.71h-12.57a9.74 9.74 0 0 0 -9.71 9.71v76.57a9.74 9.74 0 0 0 9.71 9.71h60.57a9.74 9.74 0 0 0 9.71-9.71v-12.58a9.74 9.74 0 0 0 -9.71-9.71z"/></svg>