<svg viewBox="0 0 512 512"><path d="m0 480a32 32 0 0 0 32 32h448a32 32 0 0 0 32-32v-224h-512zm160-112a16 16 0 0 1 16-16h160a16 16 0 0 1 16 16v40a8 8 0 0 1 -8 8h-16a8 8 0 0 1 -8-8v-24h-128v24a8 8 0 0 1 -8 8h-16a8 8 0 0 1 -8-8zm320-368h-448a32 32 0 0 0 -32 32v192h512v-192a32 32 0 0 0 -32-32zm-128 152a8 8 0 0 1 -8 8h-16a8 8 0 0 1 -8-8v-24h-128v24a8 8 0 0 1 -8 8h-16a8 8 0 0 1 -8-8v-40a16 16 0 0 1 16-16h160a16 16 0 0 1 16 16z" opacity=".4"/><path d="m336 96h-160a16 16 0 0 0 -16 16v40a8 8 0 0 0 8 8h16a8 8 0 0 0 8-8v-24h128v24a8 8 0 0 0 8 8h16a8 8 0 0 0 8-8v-40a16 16 0 0 0 -16-16zm0 256h-160a16 16 0 0 0 -16 16v40a8 8 0 0 0 8 8h16a8 8 0 0 0 8-8v-24h128v24a8 8 0 0 0 8 8h16a8 8 0 0 0 8-8v-40a16 16 0 0 0 -16-16z"/></svg>