<svg viewBox="0 0 448 512"><path d="m0 192v272a48 48 0 0 0 48 48h352a48 48 0 0 0 48-48v-272zm328 180a12 12 0 0 1 -12 12h-184a12 12 0 0 1 -12-12v-40a12 12 0 0 1 12-12h184a12 12 0 0 1 12 12zm-24-244h32a16 16 0 0 0 16-16v-96a16 16 0 0 0 -16-16h-32a16 16 0 0 0 -16 16v96a16 16 0 0 0 16 16zm-192 0h32a16 16 0 0 0 16-16v-96a16 16 0 0 0 -16-16h-32a16 16 0 0 0 -16 16v96a16 16 0 0 0 16 16z" opacity=".4"/><path d="m316 320h-184a12 12 0 0 0 -12 12v40a12 12 0 0 0 12 12h184a12 12 0 0 0 12-12v-40a12 12 0 0 0 -12-12zm84-256h-48v48a16 16 0 0 1 -16 16h-32a16 16 0 0 1 -16-16v-48h-128v48a16 16 0 0 1 -16 16h-32a16 16 0 0 1 -16-16v-48h-48a48 48 0 0 0 -48 48v80h448v-80a48 48 0 0 0 -48-48z"/></svg>