<svg viewBox="0 0 448 512"><path d="m0 192v272a48 48 0 0 0 48 48h352a48 48 0 0 0 48-48v-272zm384 144a16 16 0 0 1 -16 16h-288a16 16 0 0 1 -16-16v-64a16 16 0 0 1 16-16h288a16 16 0 0 1 16 16zm-80-208h32a16 16 0 0 0 16-16v-96a16 16 0 0 0 -16-16h-32a16 16 0 0 0 -16 16v96a16 16 0 0 0 16 16zm-192 0h32a16 16 0 0 0 16-16v-96a16 16 0 0 0 -16-16h-32a16 16 0 0 0 -16 16v96a16 16 0 0 0 16 16z" opacity=".4"/><path d="m448 112v80h-448v-80a48 48 0 0 1 48-48h48v48a16 16 0 0 0 16 16h32a16 16 0 0 0 16-16v-48h128v48a16 16 0 0 0 16 16h32a16 16 0 0 0 16-16v-48h48a48 48 0 0 1 48 48z"/></svg>