<svg viewBox="0 0 448 512"><path d="m0 192v272a48 48 0 0 0 48 48h352a48 48 0 0 0 48-48v-272zm324.13 141.91a11.92 11.92 0 0 1 -3.53 6.89l-39.6 38.6 9.4 54.6a12 12 0 0 1 -17.4 12.6l-49-25.8-48.9 25.8a12 12 0 0 1 -17.4-12.6l9.4-54.6-39.6-38.6a12 12 0 0 1 6.6-20.5l54.7-8 24.5-49.6a12 12 0 0 1 21.5 0l24.5 49.6 54.7 8a12 12 0 0 1 10.13 13.61zm-20.13-205.91h32a16 16 0 0 0 16-16v-96a16 16 0 0 0 -16-16h-32a16 16 0 0 0 -16 16v96a16 16 0 0 0 16 16zm-192 0h32a16 16 0 0 0 16-16v-96a16 16 0 0 0 -16-16h-32a16 16 0 0 0 -16 16v96a16 16 0 0 0 16 16z" opacity=".4"/><path d="m314 320.3-54.7-8-24.5-49.6a12 12 0 0 0 -21.5 0l-24.5 49.6-54.7 8a12 12 0 0 0 -6.6 20.5l39.6 38.6-9.4 54.6a12 12 0 0 0 17.4 12.6l48.9-25.8 49 25.8a12 12 0 0 0 17.4-12.6l-9.4-54.6 39.6-38.6a12 12 0 0 0 -6.6-20.5zm86-256.3h-48v48a16 16 0 0 1 -16 16h-32a16 16 0 0 1 -16-16v-48h-128v48a16 16 0 0 1 -16 16h-32a16 16 0 0 1 -16-16v-48h-48a48 48 0 0 0 -48 48v80h448v-80a48 48 0 0 0 -48-48z"/></svg>