<svg viewBox="0 0 448 512"><path d="m0 192v272a48 48 0 0 0 48 48h352a48 48 0 0 0 48-48v-272zm274.43 163.57-95 95-48.23 5.43a10.17 10.17 0 0 1 -11.2-9 9.93 9.93 0 0 1 0-2.18l5.4-48.2 95-95a5.07 5.07 0 0 1 7.17 0l46.8 46.8a5.07 5.07 0 0 1 .06 7.15zm55.67-55.67-26 26a5.07 5.07 0 0 1 -7.17 0l-46.8-46.8a5.07 5.07 0 0 1 0-7.17l26-26a20.22 20.22 0 0 1 28.6 0l25.4 25.4a20.22 20.22 0 0 1 -.03 28.57zm-218.1-171.9h32a16 16 0 0 0 16-16v-96a16 16 0 0 0 -16-16h-32a16 16 0 0 0 -16 16v96a16 16 0 0 0 16 16zm192 0h32a16 16 0 0 0 16-16v-96a16 16 0 0 0 -16-16h-32a16 16 0 0 0 -16 16v96a16 16 0 0 0 16 16z" opacity=".4"/><path d="m330.1 271.3-25.4-25.4a20.22 20.22 0 0 0 -28.6 0l-26 26a5.07 5.07 0 0 0 0 7.17l46.8 46.8a5.07 5.07 0 0 0 7.17 0l26-26a20.22 20.22 0 0 0 0-28.6zm-55.7 77.1-46.8-46.8a5.07 5.07 0 0 0 -7.17 0l-95 95-5.43 48.2a10.17 10.17 0 0 0 9 11.2 9.93 9.93 0 0 0 2.18 0l48.2-5.4 95-95a5.07 5.07 0 0 0 0-7.17zm125.6-284.4h-48v48a16 16 0 0 1 -16 16h-32a16 16 0 0 1 -16-16v-48h-128v48a16 16 0 0 1 -16 16h-32a16 16 0 0 1 -16-16v-48h-48a48 48 0 0 0 -48 48v80h448v-80a48 48 0 0 0 -48-48z"/></svg>