<svg viewBox="0 0 448 512"><path d="m0 192v272a48 48 0 0 0 48 48h352a48 48 0 0 0 48-48v-272zm317.4 208.1a12 12 0 0 1 0 17l-28.3 28.3a12 12 0 0 1 -17 0l-48.1-48.1-48.1 48.1a12 12 0 0 1 -17 0l-28.3-28.3a12 12 0 0 1 0-17l48.1-48.1-48.1-48.1a12 12 0 0 1 0-17l28.3-28.3a12 12 0 0 1 17 0l48.1 48.1 48.1-48.1a12 12 0 0 1 17 0l28.3 28.3a12 12 0 0 1 0 17l-48.1 48.1zm-13.4-272.1h32a16 16 0 0 0 16-16v-96a16 16 0 0 0 -16-16h-32a16 16 0 0 0 -16 16v96a16 16 0 0 0 16 16zm-192 0h32a16 16 0 0 0 16-16v-96a16 16 0 0 0 -16-16h-32a16 16 0 0 0 -16 16v96a16 16 0 0 0 16 16z" opacity=".4"/><path d="m317.43 286.93-28.3-28.3a12 12 0 0 0 -17 0l-48.13 48.07-48.1-48.1a12 12 0 0 0 -17 0l-28.3 28.3a12 12 0 0 0 0 17l48.1 48.1-48.1 48.1a12 12 0 0 0 0 17l28.3 28.3a12 12 0 0 0 17 0l48.1-48.1 48.1 48.1a12 12 0 0 0 17 0l28.3-28.3a12 12 0 0 0 0-17l-48.1-48.1 48.1-48.1a12 12 0 0 0 .03-16.97zm82.57-222.93h-48v48a16 16 0 0 1 -16 16h-32a16 16 0 0 1 -16-16v-48h-128v48a16 16 0 0 1 -16 16h-32a16 16 0 0 1 -16-16v-48h-48a48 48 0 0 0 -48 48v80h448v-80a48 48 0 0 0 -48-48z"/></svg>