<svg viewBox="0 0 448 512"><path d="m0 192v272a48 48 0 0 0 48 48h352a48 48 0 0 0 48-48v-272zm196.18 48h55.02a12 12 0 0 1 12 12v.83l-7.2 112a12 12 0 0 1 -12 11.17h-40a12 12 0 0 1 -12-11.2l-7.2-112a12.1 12.1 0 0 1 11.38-12.8zm27.82 232a40 40 0 1 1 40-40 40 40 0 0 1 -40 40zm-112-344h32a16 16 0 0 0 16-16v-96a16 16 0 0 0 -16-16h-32a16 16 0 0 0 -16 16v96a16 16 0 0 0 16 16zm192 0h32a16 16 0 0 0 16-16v-96a16 16 0 0 0 -16-16h-32a16 16 0 0 0 -16 16v96a16 16 0 0 0 16 16z" opacity=".4"/><path d="m224 392a40 40 0 1 0 40 40 40 40 0 0 0 -40-40zm-20-16h40a12 12 0 0 0 12-11.2l7.2-112a12 12 0 0 0 -11.2-12.8h-55.2a12.1 12.1 0 0 0 -12 12.18v.62l7.2 112a12 12 0 0 0 12 11.2zm196-312h-48v48a16 16 0 0 1 -16 16h-32a16 16 0 0 1 -16-16v-48h-128v48a16 16 0 0 1 -16 16h-32a16 16 0 0 1 -16-16v-48h-48a48 48 0 0 0 -48 48v80h448v-80a48 48 0 0 0 -48-48z"/></svg>