<svg viewBox="0 0 576 512"><path d="m336.2 160h-240.2v-32a32 32 0 0 1 32-32h176a16 16 0 0 0 16-16v-32a16 16 0 0 0 -16-16h-176a96 96 0 0 0 -96 96v34.89a47.66 47.66 0 0 0 -32 44.91v224.4a47.81 47.81 0 0 0 47.8 47.8h288.4a47.81 47.81 0 0 0 47.8-47.8v-224.4a47.81 47.81 0 0 0 -47.8-47.8zm-16.2 89.6a6.41 6.41 0 0 1 -6.4 6.4h-243.2a6.41 6.41 0 0 1 -6.4-6.4v-19.2a6.41 6.41 0 0 1 6.4-6.4h243.2a6.41 6.41 0 0 1 6.4 6.4z" opacity=".4"/><path d="m525.59 165.7-109.59 75.6v157.4l109.59 75.5c21.21 14.6 50.41-.29 50.41-25.79v-256.91c0-25.41-29.09-40.41-50.41-25.8zm-211.99 58.3h-243.2a6.41 6.41 0 0 0 -6.4 6.4v19.2a6.41 6.41 0 0 0 6.4 6.4h243.2a6.41 6.41 0 0 0 6.4-6.4v-19.2a6.41 6.41 0 0 0 -6.4-6.4z"/></svg>