<svg viewBox="0 0 576 512"><path d="m368.2 288h-352.2a16 16 0 0 0 -16 16v32a16 16 0 0 0 16 16h48v112.2a47.81 47.81 0 0 0 47.8 47.8h256.4a47.81 47.81 0 0 0 47.8-47.8v-128.4a47.81 47.81 0 0 0 -47.8-47.8zm-240.2-96a64 64 0 1 0 -64-64 64.07 64.07 0 0 0 64 64zm224 0a64 64 0 1 0 -64-64 64.07 64.07 0 0 0 64 64z" opacity=".4"/><path d="m535.68 260.59-87.68 60.48v125.93l87.68 60.4c17 11.68 40.32-.23 40.32-20.64v-205.53c0-20.33-23.27-32.33-40.32-20.64zm-183.68-260.59c-48.57 0-90.31 27.37-112 67.24-21.69-39.87-63.43-67.24-112-67.24a128 128 0 0 0 0 256h224a128 128 0 0 0 0-256zm-224 192a64 64 0 1 1 64-64 64.07 64.07 0 0 1 -64 64zm224 0a64 64 0 1 1 64-64 64.07 64.07 0 0 1 -64 64z"/></svg>