<svg viewBox="0 0 576 512"><path d="m570.63 343.94-58.63-87.94v-176a48 48 0 0 0 -48-48h-352a48 48 0 0 0 -48 48v176l-58.62 87.94a31.8 31.8 0 0 0 -3.81 8.06h572.86a32.12 32.12 0 0 0 -3.8-8.06zm-282.63-87.94a64 64 0 1 1 64-64 64.1 64.1 0 0 1 -64 64zm152-112a8 8 0 0 1 -8 8h-32a8 8 0 0 1 -8-8v-32a8 8 0 0 1 8-8h32a8 8 0 0 1 8 8z" opacity=".4"/><path d="m574.43 352h-572.86a31.76 31.76 0 0 0 -1.57 9.69v86.31a32 32 0 0 0 32 32h512a32 32 0 0 0 32-32v-86.31a31.76 31.76 0 0 0 -1.57-9.69zm-94.43 56a8 8 0 0 1 -8 8h-368a8 8 0 0 1 -8-8v-16a8 8 0 0 1 8-8h368a8 8 0 0 1 8 8zm-192-152a64 64 0 1 0 -64-64 64.1 64.1 0 0 0 64 64z"/></svg>