<svg viewBox="0 0 640 512"><path d="m480 0c-165.8 1.62-164.47 39.53-157.88 72.44 3.47 17.35 7.44 35.26 11.74 53.32 32.89-7 81.71-13.93 146.74-13.93 64.28 0 112.74 6.76 145.61 13.7 4.28-18 8.22-35.8 11.68-53.09 6.59-32.91 7.92-70.82-157.89-72.44zm-94 294.9c28.24 70.05 61.05 121 93.88 121h.12c32.87-.09 65.71-51.07 94-121.18-23.91-3.86-55-7-93.5-7-39.04.03-70.5 3.18-94.5 7.18zm-97.19 114.1c-27.59 27.57-47.55 52-61.81 71.83 69.55 29.6 128.78 42.42 152 19.22l.08-.09c23.17-23.3 10.35-82.55-19.25-152.13-19.61 14.17-43.83 33.94-71.02 61.17zm-41-263.5c-18.62-27.94-44.5-55.68-162.89 60.38-116.08 118.33-88.32 144.19-60.38 162.81 14.72 9.81 30.19 19.67 46 29.39 18.31-28.19 47.93-67.59 93.91-113.57 45.45-45.44 84.55-74.91 112.65-93.25-9.69-15.74-19.5-31.12-29.28-45.78z" opacity=".4"/><path d="m480.6 143.83c-61.87 0-108 6.6-139 13.15 12.58 48.29 27.69 96.43 44.41 137.92 24-3.92 55.46-7.11 94.5-7.11 38.49 0 69.59 3.1 93.5 7 16.73-41.47 31.85-89.63 44.44-138-31-6.57-76.75-13-137.85-13zm-293.51 163.31c-43.75 43.74-71.7 81-89 107.55 43.06 25.31 87.8 48.62 128.91 66.14 14.24-19.76 34.2-44.23 61.79-71.82 27.22-27.21 51.41-47 71-61.18-17.5-41.15-40.87-85.89-66.15-129-26.42 17.25-63.36 45-106.57 88.27z"/></svg>