<svg viewBox="0 0 512 512"><path d="m86.71 355.33 122.12 76.32 75.66-45-122.1-76.31zm-71.14 42.27a32 32 0 0 0 -11 43.9l32.8 54.9a32.05 32.05 0 0 0 27.5 15.6 32.7 32.7 0 0 0 16.4-4.5l96.62-57.45-122.13-76.33zm249.3-259.8a32.05 32.05 0 0 0 27.5 15.6 32.7 32.7 0 0 0 16.4-4.5l18.91-11.27-41.13-123.38a160 160 0 0 0 -16 8.35l-27.48 16.4a32 32 0 0 0 -11 43.9zm95.54-8.8 93.11-93.11a160.26 160.26 0 0 0 -136.65-31.89l41.5 124.51c.69.14 1.37.28 2.04.49zm137.06-37a162.39 162.39 0 0 0 -21.26-33.58l-92.74 92.73c.26.89.48 1.79.66 2.69l123.2 41.07c8.27-33.67 5.82-69.75-9.86-102.91zm-304.13 200 122.09 76.3 75.65-45-122.08-76.3zm175.83-104.5-69.17 41.12 122 76.28 6.55-3.9a173 173 0 0 0 68.17-75.89l-123-41a32 32 0 0 1 -4.55 3.39z" opacity=".4"/><path d="m336.27 132.5a31.46 31.46 0 0 1 16.4-4.5 31.89 31.89 0 0 1 5.7.52l-41.5-124.52a159.24 159.24 0 0 0 -30.32 10.24l41.13 123.38zm-280.51 241.22 122.13 76.33 30.94-18.4-122.12-76.32zm324.41-230.12a31.62 31.62 0 0 1 3.3 7.55l92.74-92.73a159.17 159.17 0 0 0 -22.69-22.57l-93.11 93.15a32 32 0 0 1 19.76 14.6zm-217.78 166.76 122.1 76.31 30.94-18.4-122.09-76.27zm106.61-63.36 122.06 76.28 30.94-18.38-122-76.28zm115.11-93.17a32.2 32.2 0 0 1 -10.35 30.28l123 41a167.3 167.3 0 0 0 10.59-30.2z"/></svg>