<svg viewBox="0 0 640 512"><path d="m428.07 254.18 13.53 33.82h-243.2l13.53-33.82a48 48 0 0 1 44.57-30.18h127a48 48 0 0 1 44.57 30.18zm-276.07 193.82a63.71 63.71 0 0 1 -40-14.06v46.06a32 32 0 0 0 32 32h32a32 32 0 0 0 32-32v-32zm479.76-279.77-300.09-165.23a24 24 0 0 0 -23.34 0l-300.09 165.23a16 16 0 0 0 -6.24 21.77l7.8 14a16 16 0 0 0 21.79 6.22l288.41-158.69 288.41 158.73a16 16 0 0 0 21.79-6.26l7.8-14a16 16 0 0 0 -6.24-21.77zm-143.76 279.77h-56v32a32 32 0 0 0 32 32h32a32 32 0 0 0 32-32v-46.06a63.71 63.71 0 0 1 -40 14.06z" opacity=".4"/><path d="m512.49 292.91-5.07-12.67-19.93-49.83a111.47 111.47 0 0 0 -104-70.4h-127a111.46 111.46 0 0 0 -104 70.4l-19.93 49.82-5.07 12.67a64 64 0 0 0 -39.49 59.1v32a64 64 0 0 0 64 64h336a64 64 0 0 0 64-64v-32a64 64 0 0 0 -39.51-59.09zm-300.56-38.73a48 48 0 0 1 44.57-30.18h127a48 48 0 0 1 44.57 30.17l13.53 33.83h-243.2zm-51.93 145.62c-19.2 0-32-12.76-32-31.9s12.8-31.9 32-31.9 48 28.71 48 47.85-28.8 15.95-48 15.95zm352-31.9c0 19.14-12.8 31.9-32 31.9s-48 3.19-48-15.95 28.8-47.85 48-47.85 32 12.76 32 31.9z"/></svg>