<svg viewBox="0 0 512 512"><path d="m176 64h-96a16 16 0 0 0 -16 16v48h128v-48a16 16 0 0 0 -16-16zm256 0h-96a16 16 0 0 0 -16 16v48h128v-48a16 16 0 0 0 -16-16z" opacity=".4"/><path d="m480 128h-448a32 32 0 0 0 -32 32v256a32 32 0 0 0 32 32h448a32 32 0 0 0 32-32v-256a32 32 0 0 0 -32-32zm-288 136a8 8 0 0 1 -8 8h-112a8 8 0 0 1 -8-8v-16a8 8 0 0 1 8-8h112a8 8 0 0 1 8 8zm256 0a8 8 0 0 1 -8 8h-40v40a8 8 0 0 1 -8 8h-16a8 8 0 0 1 -8-8v-40h-40a8 8 0 0 1 -8-8v-16a8 8 0 0 1 8-8h40v-40a8 8 0 0 1 8-8h16a8 8 0 0 1 8 8v40h40a8 8 0 0 1 8 8z"/></svg>