<svg viewBox="0 0 640 512"><path d="m176 0c-98 0-176 27.66-176 62.86v259.81a29.33 29.33 0 0 0 29.34 29.33h10.66v32a32 32 0 0 0 32 32h23.17a32 32 0 0 0 32-32v-32h67c4.63-24.49 18.73-46.08 40-59.29l18-49.48a134.44 134.44 0 0 1 9.6-19.23h-69.77v-144h81.34a14.67 14.67 0 0 1 14.66 14.67v98.07a131.26 131.26 0 0 1 64-30.56v-99.32c0-35.2-77.95-62.86-176-62.86zm-96 312a24 24 0 1 1 24-24 24 24 0 0 1 -24 24zm80-88h-81.34a14.67 14.67 0 0 1 -14.66-14.67v-114.66a14.67 14.67 0 0 1 14.66-14.67h81.34z" opacity=".4"/><path d="m604.58 315.56-4.58-11.36-17.87-49.08a99.92 99.92 0 0 0 -93.2-63.12h-113.86a99.92 99.92 0 0 0 -93.23 63.12l-17.84 49.08-4.55 11.36a57.39 57.39 0 0 0 -35.42 53v28.69a57 57 0 0 0 21.52 44.46v38.29a32 32 0 0 0 32 32h22.07a32 32 0 0 0 32-32v-32h200.79v32a32 32 0 0 0 32 32h22.07a32 32 0 0 0 32-32v-38.3a57 57 0 0 0 21.52-44.46v-28.69a57.39 57.39 0 0 0 -35.42-52.99zm-269.47-31.56c6.53-16.92 22.36-28 40-28h113.82c17.6 0 33.42 11.1 40 28l12.07 36h-218zm-35.11 123.85c-14.4 0-24-9.57-24-23.92s9.6-23.93 24-23.93 36 21.53 36 35.89-21.6 11.96-36 11.96zm264 0c-14.4 0-36 2.39-36-12s21.6-35.85 36-35.85 24 9.57 24 23.93-9.6 23.92-24 23.92z"/></svg>