<svg viewBox="0 0 640 512"><path d="m545.44 262.61-247.93-63.75 31.71-43.3a48 48 0 0 1 50.68-18.12l123 31.62a48 48 0 0 1 35.66 40.32zm-334.1-109.53 10.71-14.32 32.15-43c2.48-3.31 5.2-6.35 7.91-9.4l11.33-56.16a9 9 0 0 0 -14.62-8.77l-60.4 49.71a9.06 9.06 0 0 1 -13.29-2l-43.3-65.09a9.05 9.05 0 0 0 -16.55 4.14l-7.55 77.86a9.05 9.05 0 0 1 -10.8 8l-76.68-15.44a9.05 9.05 0 0 0 -8.78 14.62l49.71 60.41a9.06 9.06 0 0 1 -2 13.29l-65.13 43.3a9 9 0 0 0 4.14 16.54l77.86 7.55a9 9 0 0 1 8 10.79l-15.44 76.68a9 9 0 0 0 14.62 8.77l35.2-29a94.29 94.29 0 0 1 2.41-34.39l12.42-46.37a96.46 96.46 0 0 1 68.08-67.72zm336.77 291.92-46.49-12-8 31a32 32 0 0 0 23 39l31 8a32 32 0 0 0 39-23l12-46.49a32.9 32.9 0 0 0 .88-5.14 63.82 63.82 0 0 1 -51.39 8.63zm-340.91-87.64a63.8 63.8 0 0 1 -40.8-32.36 32.23 32.23 0 0 0 -1.71 4.93l-11.95 46.47a32 32 0 0 0 23 39l31 8a32 32 0 0 0 39-23l8-31z" opacity=".4"/><path d="m612.8 284.4-10.8-83.24a111.45 111.45 0 0 0 -83.18-94.08l-123-31.62a111.47 111.47 0 0 0 -118.25 42.28l-49.57 67.72a63.85 63.85 0 0 0 -54.9 47.54l-4 15.5-8 31a64 64 0 0 0 46 77.92l341.01 87.58a64 64 0 0 0 77.89-46l8-31 4-15.5a63.84 63.84 0 0 0 -25.2-68.1zm-283.58-128.84a48 48 0 0 1 50.68-18.12l123 31.63a48 48 0 0 1 35.65 40.31l6.9 53.23-247.94-63.75zm-90.55 143.61c-18.59-4.78-27.81-20.33-23-38.87s20.34-27.7 38.93-22.92 39.34 39.76 34.57 58.29-31.9 8.33-50.5 3.5zm309.92 79.68c-18.59-4.78-47.28-8.86-42.51-27.4s39.81-39.17 58.4-34.39 27.82 20.33 23 38.87-20.29 27.7-38.89 22.92z"/></svg>