<svg viewBox="0 0 512 512"><path d="m144 448v32a32 32 0 0 1 -32 32h-32a32 32 0 0 1 -32-32v-46.06a63.71 63.71 0 0 0 40 14.06zm175.5-224h-127a48 48 0 0 0 -44.57 30.17l-13.53 33.83h243.2l-13.53-33.82a48 48 0 0 0 -44.57-30.18zm104.5 224h-56v32a32 32 0 0 0 32 32h32a32 32 0 0 0 32-32v-46.06a63.71 63.71 0 0 1 -40 14.06zm79.91-344h-56l-24-24 24-24h56a8.09 8.09 0 0 0 7.25-11.64 79.52 79.52 0 0 0 -86.85-42.87c-25.65 4.86-46.72 23-57.05 46.51h-222.26c-12.37-28.17-40.19-48-72.93-48a79.48 79.48 0 0 0 -71.23 44.37 8.09 8.09 0 0 0 7.25 11.63h56l24 24-24 24h-56a8.09 8.09 0 0 0 -7.25 11.64 79.52 79.52 0 0 0 86.84 42.87c25.65-4.86 46.73-23 57-46.51h222.32c12.38 28.17 40.2 48 72.94 48a79.48 79.48 0 0 0 71.23-44.37 8.08 8.08 0 0 0 -7.26-11.63z" opacity=".4"/><path d="m448.49 292.91-5.07-12.67-19.93-49.83a111.47 111.47 0 0 0 -104-70.4h-127a111.46 111.46 0 0 0 -104 70.4l-19.91 49.82-5.07 12.67a64 64 0 0 0 -39.51 59.1v32a64 64 0 0 0 64 64h336a64 64 0 0 0 64-64v-32a64 64 0 0 0 -39.51-59.09zm-300.56-38.73a48 48 0 0 1 44.57-30.18h127a48 48 0 0 1 44.57 30.17l13.53 33.83h-243.2zm-51.93 145.62c-19.2 0-32-12.76-32-31.9s12.8-31.9 32-31.9 48 28.71 48 47.85-28.8 15.95-48 15.95zm352-31.9c0 19.14-12.8 31.9-32 31.9s-48 3.19-48-15.95 28.8-47.85 48-47.85 32 12.76 32 31.9z"/></svg>