<svg viewBox="0 0 464 512"><path d="m349.33 85.33c0-23.56 42.67-85.33 42.67-85.33s42.67 61.77 42.67 85.33a42.67 42.67 0 0 1 -85.34 0zm50.67 362.67h-56v32a32 32 0 0 0 32 32h32a32 32 0 0 0 32-32v-46.06a63.67 63.67 0 0 1 -40 14.06zm-168-320a42.66 42.66 0 0 0 42.67-42.65c0-23.59-42.67-85.35-42.67-85.35s-42.67 61.77-42.67 85.33a42.69 42.69 0 0 0 42.67 42.67zm108.07 126.18a48 48 0 0 0 -44.57-30.18h-127a48 48 0 0 0 -44.57 30.17l-13.53 33.83h243.2zm-268.07-126.18a42.66 42.66 0 0 0 42.67-42.65c0-23.59-42.67-85.35-42.67-85.35s-42.67 61.77-42.67 85.33a42.69 42.69 0 0 0 42.67 42.67zm-8 320a63.67 63.67 0 0 1 -40-14.06v46.06a32 32 0 0 0 32 32h32a32 32 0 0 0 32-32v-32z" opacity=".4"/><path d="m424.49 292.91-5.07-12.67-19.93-49.83a111.47 111.47 0 0 0 -104-70.4h-127a111.45 111.45 0 0 0 -104 70.4l-19.91 49.82-5.07 12.67a64 64 0 0 0 -39.51 59.1v32a64 64 0 0 0 64 64h336a64 64 0 0 0 64-64v-32a64 64 0 0 0 -39.51-59.09zm-300.56-38.73a48 48 0 0 1 44.57-30.18h127a48 48 0 0 1 44.57 30.17l13.53 33.83h-243.2zm-51.93 145.62c-19.2 0-32-12.76-32-31.9s12.8-31.9 32-31.9 48 28.71 48 47.85-28.8 15.95-48 15.95zm352-31.9c0 19.14-12.8 31.9-32 31.9s-48 3.19-48-15.95 28.8-47.85 48-47.85 32 12.76 32 31.9z"/></svg>