<svg viewBox="0 0 480 512"><path d="m176.5 128h127a48 48 0 0 1 44.57 30.17l19.93 49.83h-256l19.93-49.83a48 48 0 0 1 44.57-30.17zm239.5 256h-48v32a32 32 0 0 0 32 32h32a32 32 0 0 0 32-32v-48a31.28 31.28 0 0 0 -.43-5.2 63.81 63.81 0 0 1 -47.57 21.2zm-352 0a63.81 63.81 0 0 1 -47.57-21.2 31.28 31.28 0 0 0 -.43 5.2v48a32 32 0 0 0 32 32h32a32 32 0 0 0 32-32v-32z" opacity=".4"/><path d="m438.66 212.33-31.17-77.93a111.47 111.47 0 0 0 -103.99-70.4h-127a111.47 111.47 0 0 0 -104 70.4l-31.16 77.93a63.88 63.88 0 0 0 -41.34 59.67v48a64 64 0 0 0 64 64h352a64 64 0 0 0 64-64v-48a63.88 63.88 0 0 0 -41.34-59.67zm-306.73-54.16a48 48 0 0 1 44.57-30.17h127a48 48 0 0 1 44.57 30.17l19.93 49.83h-256zm-51.93 161.63c-19.2 0-32-12.76-32-31.9s12.8-31.9 32-31.9 48 28.71 48 47.85-28.8 15.95-48 15.95zm320 0c-19.2 0-48 3.19-48-15.95s28.8-47.85 48-47.85 32 12.76 32 31.9-12.8 31.9-32 31.9z"/></svg>