<svg viewBox="0 0 576 512"><path d="m329.76 150.49-216.3 94.28-27.93 12.23-2-55.14a49.27 49.27 0 0 1 29.79-46.89l65.2-28.42 56-24.39a50.64 50.64 0 0 1 55.26 9.83zm-169.96 271.91-45.79 20a67.43 67.43 0 0 1 -54.33-.15 33.22 33.22 0 0 0 1.78 5.07l20.26 45.08a33.57 33.57 0 0 0 44 16.78l30.53-13.31a32.7 32.7 0 0 0 17-43.39zm326.48-166.12a65.93 65.93 0 0 1 -36.44 39.72l-45.84 20 13.55 30a33.58 33.58 0 0 0 44 16.77l30.53-13.3a32.71 32.71 0 0 0 17-43.39l-20.2-45.08a32.85 32.85 0 0 0 -2.6-4.72z" opacity=".4"/><path d="m575.67 492.44c-9.07-43.75-48.42-76.67-95.58-76.67s-86.51 32.92-95.58 76.67c-2.06 9.92 5.84 19.27 16.13 19.27h158.9c10.28 0 18.19-9.36 16.13-19.27zm-91.78-283.23-13.5-30.09-6.76-15c-11.53-25.7-37.74-40.31-64.62-38.9l-62.63-60.3a117.56 117.56 0 0 0 -128.92-22.98l-121.16 52.81c-43.95 19.16-71.23 62.11-69.51 109.43l3.15 86.22a65 65 0 0 0 -14.25 73.29l6.75 15 13.5 30.08c14.92 33.23 54.35 48.29 88.06 33.59l335.84-146.36c33.72-14.71 48.97-53.57 34.05-86.79zm-381.71 166.15c-18.32 8-35.92 1.31-44-16.69s-1.25-35.31 17.06-43.29 57.92 7 66 25-20.74 26.99-39.06 34.98zm-16.65-118.36-2-55.14a49.27 49.27 0 0 1 29.79-46.89l121.16-52.81a50.64 50.64 0 0 1 55.26 9.82l40 38.56zm322-14.66c-18.32 8-44.45 23-52.53 5s7.28-57 25.6-64.94 35.92-1.31 44 16.68 1.2 35.22-17.12 43.21z"/></svg>