<svg viewBox="0 0 640 512"><path d="m144 320a80 80 0 1 0 80 80 80 80 0 0 0 -80-80zm352 0a80 80 0 1 0 80 80 80 80 0 0 0 -80-80zm-126.76-224h-89.24v96h166zm-252.31 96h115.07v-96h-76.67z" opacity=".4"/><path d="m16 384h17.14a112 112 0 0 1 221.72 0h130.28a112 112 0 0 1 221.72 0h17.14a16 16 0 0 0 16-16v-80a96 96 0 0 0 -96-96h-16l-108.78-136a64 64 0 0 0 -50-24h-213.89a64 64 0 0 0 -59.42 40.23l-47.91 122.03a63.85 63.85 0 0 0 -48 61.74v112a16 16 0 0 0 16 16zm264-288h89.24l76.76 96h-166zm-124.67 0h76.67v96h-115.07z"/></svg>