<svg viewBox="0 0 512 512"><path d="m319.5 128a48 48 0 0 1 44.57 30.17l19.93 49.83h-256l19.93-49.83a48 48 0 0 1 44.57-30.17zm-239.5 256a63.82 63.82 0 0 1 -47.57-21.2 31.82 31.82 0 0 0 -.43 5.2v48a32 32 0 0 0 32 32h32a32 32 0 0 0 32-32v-32zm352 0h-48v32a32 32 0 0 0 32 32h32a32 32 0 0 0 32-32v-48a31.82 31.82 0 0 0 -.43-5.2 63.82 63.82 0 0 1 -47.57 21.2z" opacity=".4"/><path d="m500 176h-59.88l-16.64-41.6a111.43 111.43 0 0 0 -103.98-70.4h-127a111.47 111.47 0 0 0 -104 70.4l-16.63 41.6h-59.87a12 12 0 0 0 -11.63 14.91l6 24a12 12 0 0 0 11.63 9.09h20.08a63.55 63.55 0 0 0 -22.08 48v48a64 64 0 0 0 64 64h352a64 64 0 0 0 64-64v-48a63.58 63.58 0 0 0 -22.07-48h20.07a12 12 0 0 0 11.64-9.09l6-24a12 12 0 0 0 -11.64-14.91zm-352.07-17.83a48 48 0 0 1 44.57-30.17h127a48 48 0 0 1 44.57 30.17l19.93 49.83h-256zm-51.93 97.83c19.2 0 48 28.71 48 47.85s-28.8 15.95-48 15.95-32-12.8-32-31.9 12.8-31.9 32-31.9zm272 47.85c0-19.14 28.8-47.85 48-47.85s32 12.76 32 31.9-12.8 31.9-32 31.9-48 3.2-48-15.95z"/></svg>