<svg viewBox="0 0 640 512"><path d="m256 192v-64a32 32 0 0 0 -32-32h-128a32 32 0 0 0 -32 32v64a32 32 0 0 0 32 32h128a32 32 0 0 0 32-32zm160-96h-64a32 32 0 0 0 -32 32v155.71a171.28 171.28 0 0 1 23.42 36.29h104.58v-192a32 32 0 0 0 -32-32zm0 144a16 16 0 1 1 16-16 16 16 0 0 1 -16 16zm-224 64a88 88 0 1 0 88 88 88 88 0 0 0 -88-88z" opacity=".4"/><path d="m624 320h-48v-160a160 160 0 0 0 -160-160h-352a64 64 0 0 0 -64 64v256a64 64 0 0 0 64 64h8.81c4.19-62.47 55.66-112 119.19-112s115 49.53 119.19 112h312.81a16 16 0 0 0 16-16v-32a16 16 0 0 0 -16-16zm-368-128a32 32 0 0 1 -32 32h-128a32 32 0 0 1 -32-32v-64a32 32 0 0 1 32-32h128a32 32 0 0 1 32 32zm192 128h-104.58a171.28 171.28 0 0 0 -23.42-36.29v-155.71a32 32 0 0 1 32-32h64a32 32 0 0 1 32 32z"/></svg>