<svg viewBox="0 0 576 512"><path d="m552 64h-392.79l52.36 256h293.15a24 24 0 0 0 23.4-18.68l47.27-208a24 24 0 0 0 -18.08-28.72 23.69 23.69 0 0 0 -5.31-.6zm-107.58 132.48-67.83 72a12.27 12.27 0 0 1 -17.18 0l-67.83-72c-7.65-7.55-2.23-20.48 8.59-20.48h43.54v-52a12.07 12.07 0 0 1 12.14-12h24.29a12.07 12.07 0 0 1 12.15 12v52h43.54c10.82 0 16.24 12.93 8.59 20.48z" opacity=".4"/><path d="m504.42 405.6 5.52-24.28a24 24 0 0 0 -23.4-29.32h-268.42l-68.12-332.81a24 24 0 0 0 -23.47-19.19h-102.53a24 24 0 0 0 -24 24v16a24 24 0 0 0 24 24h69.88l70.25 343.43a56 56 0 1 0 67.05 8.57h209.64a56 56 0 1 0 63.6-10.4zm-145-137.12a12.27 12.27 0 0 0 17.18 0l67.83-72c7.65-7.55 2.23-20.48-8.59-20.48h-43.55v-52a12.07 12.07 0 0 0 -12.15-12h-24.29a12.07 12.07 0 0 0 -12.14 12v52h-43.54c-10.82 0-16.24 12.93-8.59 20.48z"/></svg>