<svg viewBox="0 0 576 512"><path d="m552 64h-392.79l52.36 256h293.15a24 24 0 0 0 23.4-18.68l47.27-208a24 24 0 0 0 -18.08-28.72 23.69 23.69 0 0 0 -5.31-.6zm-104 136a16 16 0 0 1 -16 16h-40v40a16 16 0 0 1 -16 16h-16a16 16 0 0 1 -16-16v-40h-40a16 16 0 0 1 -16-16v-16a16 16 0 0 1 16-16h40v-40a16 16 0 0 1 16-16h16a16 16 0 0 1 16 16v40h40a16 16 0 0 1 16 16z" opacity=".4"/><path d="m504.42 405.6 5.52-24.28a24 24 0 0 0 -23.4-29.32h-268.42l-68.12-332.81a24 24 0 0 0 -23.47-19.19h-102.53a24 24 0 0 0 -24 24v16a24 24 0 0 0 24 24h69.88l70.25 343.43a56 56 0 1 0 67.05 8.57h209.64a56 56 0 1 0 63.6-10.4zm-200.42-189.6h40v40a16 16 0 0 0 16 16h16a16 16 0 0 0 16-16v-40h40a16 16 0 0 0 16-16v-16a16 16 0 0 0 -16-16h-40v-40a16 16 0 0 0 -16-16h-16a16 16 0 0 0 -16 16v40h-40a16 16 0 0 0 -16 16v16a16 16 0 0 0 16 16z"/></svg>