<svg viewBox="0 0 512 512"><path d="m296.1 232a16 16 0 0 0 -16 16v16a16 16 0 0 0 16 16h16a16 16 0 0 0 16-16v-16a16 16 0 0 0 -16-16zm-48 128h16a16 16 0 0 0 16-16v-16a16 16 0 0 0 -16-16h-16a16 16 0 0 0 -16 16v16a16 16 0 0 0 16 16zm-16-112a16 16 0 0 0 -16-16h-16a16 16 0 0 0 -16 16v16a16 16 0 0 0 16 16h16a16 16 0 0 0 16-16zm-96 0a16 16 0 0 0 -16-16h-16a16 16 0 0 0 -16 16v16a16 16 0 0 0 16 16h16a16 16 0 0 0 16-16zm48 96v-16a16 16 0 0 0 -16-16h-16a16 16 0 0 0 -16 16v16a16 16 0 0 0 16 16h16a16 16 0 0 0 16-16zm160 88h-176a8 8 0 0 0 -8 8v16a8 8 0 0 0 8 8h176a8 8 0 0 0 8-8v-16a8 8 0 0 0 -8-8zm16-120h-16a16 16 0 0 0 -16 16v16a16 16 0 0 0 16 16h16a16 16 0 0 0 16-16v-16a16 16 0 0 0 -16-16zm48-80h-16a16 16 0 0 0 -16 16v16a16 16 0 0 0 16 16h16a16 16 0 0 0 16-16v-16a16 16 0 0 0 -16-16zm-264.1-40 64 .1v-64h96a16 16 0 0 0 16-16v-96.1a16 16 0 0 0 -16-16h-256a16 16 0 0 0 -16 16v96a16 16 0 0 0 16 16h96zm-62-108v-40h188v40z" opacity=".4"/><path d="m511.2 378.8-26.7-160a32 32 0 0 0 -31.6-26.7l-244.9-.1v.06l-47.54-.06h-101.26a32.09 32.09 0 0 0 -31.6 26.7l-26.7 160a62 62 0 0 0 -.9 10.5v90.8a32 32 0 0 0 32 32h448a32 32 0 0 0 32-32v-90.7a53.09 53.09 0 0 0 -.8-10.5zm-231.1-130.8a16 16 0 0 1 16-16h16a16 16 0 0 1 16 16v16a16 16 0 0 1 -16 16h-16a16 16 0 0 1 -16-16zm-32 64h16a16 16 0 0 1 16 16v16a16 16 0 0 1 -16 16h-16a16 16 0 0 1 -16-16v-16a16 16 0 0 1 16-16zm-64-64a16 16 0 0 1 16-16h16a16 16 0 0 1 16 16v16a16 16 0 0 1 -16 16h-16a16 16 0 0 1 -16-16zm-64 32h-16a16 16 0 0 1 -16-16v-16a16 16 0 0 1 16-16h16a16 16 0 0 1 16 16v16a16 16 0 0 1 -16 16zm16 64v-16a16 16 0 0 1 16-16h16a16 16 0 0 1 16 16v16a16 16 0 0 1 -16 16h-16a16 16 0 0 1 -16-16zm216 112a8 8 0 0 1 -8 8h-176a8 8 0 0 1 -8-8v-16a8 8 0 0 1 8-8h176a8 8 0 0 1 8 8zm24-112a16 16 0 0 1 -16 16h-16a16 16 0 0 1 -16-16v-16a16 16 0 0 1 16-16h16a16 16 0 0 1 16 16zm48-80a16 16 0 0 1 -16 16h-16a16 16 0 0 1 -16-16v-16a16 16 0 0 1 16-16h16a16 16 0 0 1 16 16z"/></svg>