<svg viewBox="0 0 576 512"><path d="m564.8 259.9-57.2-25.15-153.78 96.11 150.68 66.25a18.74 18.74 0 0 0 24.69-9.61l45.22-102.91a18.74 18.74 0 0 0 -9.61-24.69zm-426.99 140.1h-73.81v-32a16 16 0 0 0 -16-16h-32a16 16 0 0 0 -16 16v128a16 16 0 0 0 16 16h32a16 16 0 0 0 16-16v-32h96a32 32 0 0 0 30-20.77l46.85-124.94-59.17-24.51z" opacity=".4"/><path d="m4.23 183 95.34-166.87a32 32 0 0 1 39.67-13.84l378.2 166.29c24.33 9.73 27.29 43 5.08 56.85l-189.29 118.3a32 32 0 0 1 -27.89 2.94l-284.26-117.74a32 32 0 0 1 -16.85-45.93z"/></svg>