<svg viewBox="0 0 512 512"><path d="m458.63 255.92 46-45c13.71-13 7.34-36-10.66-40.34l-62.66-16 17.69-62c5-17.85-11.84-34.67-29.69-29.67l-62 17.65-16-62.67c-4.22-17.69-27.56-24.17-40.31-10.66l-45 46.35-45-46.35c-12.63-13.36-36-7.23-40.31 10.66l-16 62.67-62-17.65c-17.82-5-34.63 11.82-29.69 29.67l17.69 62-62.66 16c-18 4.3-24.37 27.36-10.66 40.34l46 45-46 45c-13.68 12.99-7.31 36.08 10.69 40.35l62.66 16-17.72 62c-5 17.84 11.84 34.67 29.69 29.67l62-17.67 16 62.67c4.43 18.58 27.68 24 40.31 10.67l45-46 45 46c12.5 13.49 36 7.49 40.31-10.67l16-62.67 62 17.67c17.85 5 34.66-11.83 29.66-29.67l-17.66-62 62.66-16c18-4.31 24.37-27.38 10.66-40.35zm-39.84 32.79a12 12 0 0 1 -5.43 20.2l-45.95 11.73 12.71 44.63a12 12 0 0 1 -14.83 14.83l-44.58-12.71-11.74 46a12 12 0 0 1 -20.2 5.43l-32.77-33.48-32.75 33.47a12 12 0 0 1 -20.25-5.43l-11.74-46-44.53 12.72a12 12 0 0 1 -14.83-14.83l12.74-44.63-46-11.73a12 12 0 0 1 -5.43-20.2l33.46-32.71-33.47-32.79a12 12 0 0 1 5.43-20.21l46-11.73-12.73-44.67a12 12 0 0 1 14.83-14.83l44.61 12.71 11.66-45.48a12 12 0 0 1 20.24-5.4l32.76 33.79 32.82-33.81a12 12 0 0 1 20.24 5.42l11.61 45.5 44.58-12.7a12 12 0 0 1 14.83 14.83l-12.71 44.63 46 11.74a12 12 0 0 1 5.43 20.2l-33.46 32.8z" opacity=".4"/><path d="m418.79 288.71a12 12 0 0 1 -5.43 20.2l-45.95 11.73 12.71 44.63a12 12 0 0 1 -14.83 14.83l-44.58-12.71-11.74 46a12 12 0 0 1 -20.2 5.43l-32.77-33.48-32.75 33.47a12 12 0 0 1 -20.25-5.43l-11.74-46-44.53 12.72a12 12 0 0 1 -14.83-14.83l12.74-44.63-46-11.73a12 12 0 0 1 -5.43-20.2l33.46-32.71-33.47-32.79a12 12 0 0 1 5.43-20.21l46-11.73-12.73-44.67a12 12 0 0 1 14.83-14.83l44.61 12.71 11.66-45.48a12 12 0 0 1 20.24-5.4l32.76 33.79 32.82-33.81a12 12 0 0 1 20.24 5.42l11.61 45.5 44.58-12.7a12 12 0 0 1 14.83 14.83l-12.71 44.63 46 11.74a12 12 0 0 1 5.43 20.2l-33.46 32.8z"/></svg>