<svg viewBox="0 0 448 512"><path d="m352 256h-256v-192a64 64 0 0 1 64-64h128a64 64 0 0 1 64 64z" opacity=".4"/><path d="m64 224v-64a32 32 0 0 0 -64 0v64a32 32 0 0 0 64 0zm352-96a32 32 0 0 0 -32 32v64a32 32 0 0 0 64 0v-64a32 32 0 0 0 -32-32zm-12.33 181.88a32 32 0 0 0 -30.36-21.88h-298.62a32 32 0 0 0 -30.36 21.88l-10.67 32a32 32 0 0 0 30.34 42.12h128v67.36c-28.27 6-51 19.69-61.85 37.21-6.41 10.34 2.41 23.43 15 23.43h157.68c12.61 0 21.44-13.09 15-23.43-10.83-17.52-33.57-31.2-61.83-37.21v-67.36h128a32 32 0 0 0 30.36-42.12z"/></svg>