<svg viewBox="0 0 640 512"><path d="m640 49.59v316.82c0 27.34-21.53 49.59-48 49.59h-248.21c-.9-2.53-1.86-5.05-2.9-7.54a144.52 144.52 0 0 0 -42.38-56.46h277.49v-288h-352v49.1a127 127 0 0 0 -59.46-17h-.33c-1.4 0-2.8-.08-4.21-.08v-46.43c0-27.34 21.53-49.59 48-49.59h384c26.47 0 48 22.25 48 49.59z" opacity=".4"/><path d="m208 352a22.88 22.88 0 0 0 -7.06 1.09 131.91 131.91 0 0 1 -40.94 6.91 132 132 0 0 1 -40.95-6.91 22.82 22.82 0 0 0 -7-1.09 112 112 0 0 0 -112.05 112.62c.14 26.26 21.73 47.38 48 47.38h224c26.27 0 47.86-21.12 48-47.38a112 112 0 0 0 -112-112.62zm-48-32a96 96 0 1 0 -96-96 96 96 0 0 0 96 96zm64-256v49.09a129 129 0 0 1 26.51 20.4 128 128 0 0 1 0 181 132.13 132.13 0 0 1 -10.14 9.14 143.89 143.89 0 0 1 58.14 28.37h85.49v-64h128v64h64v-288z"/></svg>