<svg viewBox="0 0 544 512"><path d="m379.86 443.87c6.85 6.85 6.33 18.48-1.57 24.08a238.14 238.14 0 0 1 -135.29 44.05c-128.17 1.59-238.5-103.49-242.86-231.63-4.24-124.77 86.86-228.88 206.02-245.72 9.45-1.34 17.84 6.51 17.84 16.06v237.29z" opacity=".4"/><path d="m512 223.2c-8.28-119.46-103.74-214.92-223.2-223.2-9.12-.59-16.8 7.1-16.8 16.24v223.76h223.77c9.14 0 16.82-7.68 16.23-16.8zm15.79 64.8h-237.29l158 158c6 6 16 6.53 22.19.68a239.5 239.5 0 0 0 73.13-140.86c1.37-9.43-6.48-17.82-16.03-17.82z"/></svg>