<svg viewBox="0 0 512 512"><path d="m512 400v32a16 16 0 0 1 -16 16h-464a32 32 0 0 1 -32-32v-336a16 16 0 0 1 16-16h32a16 16 0 0 1 16 16v304h432a16 16 0 0 1 16 16z" opacity=".4"/><path d="m275.2 96h-38.4c-6.4 0-12.8 6.4-12.8 12.8v198.4c0 6.4 6.4 12.8 12.8 12.8h38.4c6.4 0 12.8-6.4 12.8-12.8v-198.4c0-6.4-6.4-12.8-12.8-12.8zm-96 128h-38.4c-6.4 0-12.8 6.4-12.8 12.8v70.4c0 6.4 6.4 12.8 12.8 12.8h38.4c6.4 0 12.8-6.4 12.8-12.8v-70.4c0-6.4-6.4-12.8-12.8-12.8zm288-160h-38.4c-6.4 0-12.8 6.4-12.8 12.8v230.4c0 6.4 6.4 12.8 12.8 12.8h38.4c6.4 0 12.8-6.4 12.8-12.8v-230.4c0-6.4-6.4-12.8-12.8-12.8zm-96 96h-38.4c-6.4 0-12.8 6.4-12.8 12.8v134.4c0 6.4 6.4 12.8 12.8 12.8h38.4c6.4 0 12.8-6.4 12.8-12.8v-134.4c0-6.4-6.4-12.8-12.8-12.8z"/></svg>