<svg viewBox="0 0 448 512"><path d="m400 32h-352a48 48 0 0 0 -48 48v352a48 48 0 0 0 48 48h352a48 48 0 0 0 48-48v-352a48 48 0 0 0 -48-48zm-20.69 165.94-184 184a16 16 0 0 1 -22.62 0l-104-104a16 16 0 0 1 0-22.63l22.62-22.62a16 16 0 0 1 22.63 0l70.06 70.06 150.06-150.06a16 16 0 0 1 22.63 0l22.62 22.62a16 16 0 0 1 0 22.63z" opacity=".4"/><path d="m195.31 381.94a16 16 0 0 1 -22.62 0l-104-104a16 16 0 0 1 0-22.63l22.62-22.62a16 16 0 0 1 22.63 0l70.06 70.05 150.06-150a16 16 0 0 1 22.63 0l22.62 22.62a16 16 0 0 1 0 22.63l-184 184z"/></svg>