<svg viewBox="0 0 512 512"><path d="m166.57 282.71-122.57-123.5a17.87 17.87 0 0 1 .18-25.2l42.1-41.77a17.87 17.87 0 0 1 25.2.18l68.23 68.77 157.16-156.08a17.88 17.88 0 0 1 25.21.18l41.92 42.12a17.88 17.88 0 0 1 -.18 25.21l-212.04 210.27a17.88 17.88 0 0 1 -25.21-.18z" opacity=".4"/><path d="m504.5 172a25.86 25.86 0 0 1 0 36.42l-294.4 296.04a25.48 25.48 0 0 1 -36.2 0l-166.4-167.36a25.84 25.84 0 0 1 0-36.41l36.2-36.41a25.48 25.48 0 0 1 36.2 0l112.1 112.72 240.1-241.46a25.5 25.5 0 0 1 36.2 0z"/></svg>