<svg viewBox="0 0 512 512"><path d="m58.6 224h394.7c34.6 0 54.6-43.9 34.8-75.9-40.1-64.9-128.6-116-232.1-116.1-103.5.1-192 51.2-232.2 116.1-19.8 32 .3 75.9 34.8 75.9zm325.4-112a16 16 0 1 1 -16 16 16 16 0 0 1 16-16zm-128-32a16 16 0 1 1 -16 16 16 16 0 0 1 16-16zm-128 32a16 16 0 1 1 -16 16 16 16 0 0 1 16-16zm352 272h-448a16 16 0 0 0 -16 16v16a64.06 64.06 0 0 0 64 64h352a64.06 64.06 0 0 0 64-64v-16a16 16 0 0 0 -16-16z" opacity=".4"/><path d="m512 304a48 48 0 0 1 -48 48h-416a48 48 0 0 1 0-96h176l96 64 96-64h48a48 48 0 0 1 48 48z"/></svg>