<svg viewBox="0 0 640 512"><path d="m519.48 243a12 12 0 0 0 -17 0l-50.9 50.89a12 12 0 0 0 0 17l5.66 5.66a12 12 0 0 0 17 0l50.9-50.9a12 12 0 0 0 0-17zm-339.19-18.86h-8a12 12 0 0 0 -12 12v72a12 12 0 0 0 12 12h8a12 12 0 0 0 12-12v-72a12 12 0 0 0 -12-12zm59.77-192.14h-128a16 16 0 0 0 -16 16v15.94a16 16 0 0 0 16 16h40.19v48.06h48v-48.06h39.81a16 16 0 0 0 16-16v-15.94a16 16 0 0 0 -16-16zm287.94 64h-128a16 16 0 0 0 -16 16v16h160v-16a16 16 0 0 0 -16-16z" opacity=".4"/><path d="m600 128h-560a40 40 0 0 0 -40 40v272a40 40 0 0 0 40 40h560a40 40 0 0 0 40-40v-272a40 40 0 0 0 -40-40zm-423.71 288.06a112 112 0 1 1 112-111.95 111.95 111.95 0 0 1 -112 111.95zm288 0a112 112 0 1 1 112-111.95 111.95 111.95 0 0 1 -112 111.95z"/></svg>