<svg viewBox="0 0 512 512"><path d="m512 256v-64h-64v64zm-64-256h-64v64h64zm64 128v-64h-64v64zm-256 64h-64v64h64zm64-192h-64v64h64zm192 384v-64h-64v64zm0 128v-64h-64v64zm-256-384v-64h-64v64zm-192 384h64v-64h-64zm128 0h64v-64h-64zm-192-128v64h64v-64zm320 128h64v-64h-64zm-320-384v64h64v-64zm0-128v64h64v-64zm0 256v64h64v-64zm192-256h-64v64h64zm192 320h64v-64h-64zm-128-64v64h64v-64zm-128-64h-64v64h64zm64 128v64h64v-64zm128 0v64h64v-64zm-192 0h-64v64h64zm0-256h-64v64h64zm256 128h64v-64h-64zm-256 192v64h64v-64zm192-128h64v-64h-64zm128 128h-64v64h64zm-256-128h-64v64h64zm128-64v-64h-64v64zm-64 192v64h64v-64zm128-256v-64h-64v64zm-192 0h-64v64h64z" opacity=".4"/><path d="m256 0h-64v64h64zm-256 64v64h64v-64zm128-64h-64v64h64zm64 256v64h64v-64zm-192-64v64h64v-64zm384-192h-64v64h64zm128 0h-64v64h64zm-384 256h-64v64h64zm384 192v-64h-64v64zm0-128v-64h-64v64zm-128 192h64v-64h-64zm128-320v-64h-64v64zm-384 320h64v-64h-64zm-128 0h64v-64h-64zm256 0h64v-64h-64zm-256-192v64h64v-64zm320-192v-64h-64v64zm-64 128h64v-64h-64zm-64 128v64h64v-64zm128-64h64v-64h-64zm0-128h64v-64h-64zm0 192v64h64v-64zm-256 0v64h64v-64zm128-256v-64h-64v64zm192 256h64v-64h-64zm-128-192v-64h-64v64zm128-128v64h64v-64zm-128 256v64h64v-64zm-64-128h-64v64h64zm192 64h64v-64h-64zm-256-128h-64v64h64zm0 192v64h64v-64z"/></svg>