<svg viewBox="0 0 320 512"><path d="m279.16 459.58-23.16-11.58v-16a16 16 0 0 0 -16-16h-160a16 16 0 0 0 -16 16v16l-23.15 11.58a16 16 0 0 0 -8.85 14.31v22.11a16 16 0 0 0 16 16h224a16 16 0 0 0 16-16v-22.11a16 16 0 0 0 -8.84-14.31z" opacity=".4"/><path d="m106 208h-10a16 16 0 0 0 -16 16v16a16 16 0 0 0 16 16h15.94a535.78 535.78 0 0 1 -15.94 128h128a535.78 535.78 0 0 1 -15.94-128h15.94a16 16 0 0 0 16-16v-16a16 16 0 0 0 -16-16h-10l33.89-90.38a16 16 0 0 0 -15-21.62h-56.89v-32h24a8 8 0 0 0 8-8v-16a8 8 0 0 0 -8-8h-24v-24a8 8 0 0 0 -8-8h-16a8 8 0 0 0 -8 8v24h-24a8 8 0 0 0 -8 8v16a8 8 0 0 0 8 8h24v32h-56.91a16 16 0 0 0 -15 21.62z"/></svg>