<svg viewBox="0 0 640 512"><path d="m231.12 243a12 12 0 0 0 -17 0l-50.89 50.89a12 12 0 0 0 0 17l5.65 5.66a12 12 0 0 0 17 0l50.89-50.9a12 12 0 0 0 0-17zm236.7-18.84h-8a12 12 0 0 0 -12 12v72a12 12 0 0 0 12 12h8a12 12 0 0 0 12-12v-72a12 12 0 0 0 -12-12.02zm-227.91-128.16h-128a16 16 0 0 0 -16 16v16h160v-16a16 16 0 0 0 -16-16zm288.09-64h-128a16 16 0 0 0 -16 16v16a16 16 0 0 0 16 16h39.75v48h48v-48h40.25a16 16 0 0 0 16-16v-16a16 16 0 0 0 -16-16z" opacity=".4"/><path d="m600 128h-560a40.17 40.17 0 0 0 -40 40.11v271.89a40 40 0 0 0 40 40h560a40 40 0 0 0 40-40v-271.89a40.17 40.17 0 0 0 -40-40.11zm-424.07 288.06a112 112 0 1 1 112-111.95 111.95 111.95 0 0 1 -112 111.95zm287.89 0a112 112 0 1 1 112-111.95 111.95 111.95 0 0 1 -112 111.95z"/></svg>