<svg viewBox="0 0 256 512"><path d="m247.16 459.58-23.16-11.58v-16a16 16 0 0 0 -16-16h-160a16 16 0 0 0 -16 16v16l-23.15 11.58a16 16 0 0 0 -8.85 14.31v22.11a16 16 0 0 0 16 16h224a16 16 0 0 0 16-16v-22.11a16 16 0 0 0 -8.84-14.31z" opacity=".4"/><path d="m64 288h14.89a535.84 535.84 0 0 1 -14.89 96h128a535.84 535.84 0 0 1 -14.89-96h14.89a16 16 0 0 0 16-16v-16a16 16 0 0 0 -16-16h-11.67c16-6.67 26.48-25.09 26.48-50.43 0-19.32-7.2-42.34-17.73-63.33l-48.59 48.59a4 4 0 0 1 -5.66 0l-5.66-5.66a4 4 0 0 1 0-5.65l51.83-51.82c-10.22-16.81-22.2-31.22-33.86-39.33 8.17-2.78 12.86-10.52 12.86-19.64 0-11.45-8.08-20.73-19.53-20.73h-24.94c-11.45 0-19.53 9.28-19.53 20.73 0 9.12 4.69 16.86 12.87 19.64-28.58 19.87-59.68 76.75-59.68 117.2 0 25.34 10.49 43.76 26.48 50.43h-11.67a16 16 0 0 0 -16 16v16a16 16 0 0 0 16 16z"/></svg>