<svg viewBox="0 0 320 512"><path d="m320 473.89v22.11a16 16 0 0 1 -16 16h-288a16 16 0 0 1 -16-16v-22.11a16 16 0 0 1 8.85-14.31l23.15-11.58v-16a16 16 0 0 1 16-16h224a16 16 0 0 1 16 16v16l23.16 11.58a16 16 0 0 1 8.84 14.31z" opacity=".4"/><path d="m45.55 235.52 28.83 12.86a22.59 22.59 0 0 0 17.67.34l9.09-3.65a22.79 22.79 0 0 0 13.33-14.62l6.53-21.87a17.09 17.09 0 0 1 8.92-11.15l14.2-5.43v37.21a28.58 28.58 0 0 1 -16.9 26.09l-46.54 23.7c-39.81 20.22-48.26 73.42-16.68 105h192c7-7.85 16-18.31 16-32v-148.84c0-76.54-62.62-139.16-139.16-139.16h-92.32a8.54 8.54 0 0 0 -8.52 8.56 12.14 12.14 0 0 0 1.27 5.44l10.1 20.28-6.37 6.35a17.21 17.21 0 0 0 -5 12.11v97.9a22.86 22.86 0 0 0 13.55 20.88zm34.52-107.52a16 16 0 1 1 -15.94 16 16 16 0 0 1 15.94-16z"/></svg>