<svg viewBox="0 0 512 512"><path d="m285.6 273-194.81 194a24 24 0 0 1 -33.88.1l-.1-.1-22.74-22.7a24 24 0 0 1 0-33.85l154.32-154.45-154.32-154.45a23.8 23.8 0 0 1 -.07-33.75l.11-.1 22.7-22.7a24 24 0 0 1 33.88-.1l.1.1 194.81 194a24.09 24.09 0 0 1 0 34z" opacity=".4"/><path d="m478 273-194.81 194a24 24 0 0 1 -33.87.1l-.1-.1-22.75-22.7a23.81 23.81 0 0 1 -.1-33.75l.1-.1 154.33-154.45-154.33-154.45a24 24 0 0 1 0-33.85l22.75-22.7a24 24 0 0 1 33.87-.1.94.94 0 0 1 .1.1l194.81 194a24.09 24.09 0 0 1 0 34z"/></svg>