<svg viewBox="0 0 448 512"><path d="m400 32h-352a48 48 0 0 0 -48 48v352a48 48 0 0 0 48 48h352a48 48 0 0 0 48-48v-352a48 48 0 0 0 -48-48zm-70.06 241-135.51 135.48a24 24 0 0 1 -33.94 0l-17-17a24 24 0 0 1 0-33.94l101.6-101.54-101.57-101.57a24 24 0 0 1 0-33.94l17-17a24 24 0 0 1 33.94 0l135.48 135.51a24 24 0 0 1 0 34z" opacity=".4"/><path d="m143.52 154.43a24 24 0 0 1 0-33.94l17-17a24 24 0 0 1 33.94 0l135.48 135.51a24 24 0 0 1 0 33.94l-135.51 135.54a24 24 0 0 1 -33.94 0l-17-17a24 24 0 0 1 0-33.94l101.6-101.54z"/></svg>