<svg viewBox="0 0 512 512"><path d="m256 8c-137 0-248 111-248 248s111 248 248 248 248-111 248-248-111-248-248-248zm113.9 265-135.5 135.5a23.9 23.9 0 0 1 -33.9 0l-17-17a23.9 23.9 0 0 1 0-33.9l101.6-101.6-101.6-101.6a23.9 23.9 0 0 1 0-33.9l17-17a23.9 23.9 0 0 1 33.9 0l135.5 135.5a24 24 0 0 1 0 34z" opacity=".4"/><path d="m369.9 273-135.5 135.5a23.9 23.9 0 0 1 -33.9 0l-17-17a23.9 23.9 0 0 1 0-33.9l101.6-101.6-101.6-101.6a23.9 23.9 0 0 1 0-33.9l17-17a23.9 23.9 0 0 1 33.9 0l135.5 135.5a24 24 0 0 1 0 34z"/></svg>