<svg viewBox="0 0 512 512"><path d="m226.56 239 194-194a23.84 23.84 0 0 1 33.73-.1l.1.1 22.61 22.7a24.06 24.06 0 0 1 0 33.85l-153.64 154.45 153.58 154.45a23.87 23.87 0 0 1 .1 33.75l-.1.1-22.65 22.7a23.84 23.84 0 0 1 -33.73.1l-.1-.1-193.9-194a24.17 24.17 0 0 1 0-34z" opacity=".4"/><path d="m35 239 194-194a23.84 23.84 0 0 1 33.73-.1l.1.1 22.61 22.7a23.87 23.87 0 0 1 .1 33.75l-.1.1-153.68 154.45 153.68 154.45a24.06 24.06 0 0 1 0 33.85l-22.65 22.7a23.84 23.84 0 0 1 -33.73.1l-.1-.1-193.96-194a24.17 24.17 0 0 1 0-34z"/></svg>