<svg viewBox="0 0 448 512"><path d="m400 32h-352a48 48 0 0 0 -48 48v352a48 48 0 0 0 48 48h352a48 48 0 0 0 48-48v-352a48 48 0 0 0 -48-48zm-23.51 194.43-135.49 135.51a24 24 0 0 1 -33.94 0l-135.54-135.51a24 24 0 0 1 0-33.94l17-17a24 24 0 0 1 33.94 0l101.54 101.6 101.57-101.58a24 24 0 0 1 33.95 0l17 17a24 24 0 0 1 -.03 33.92z" opacity=".4"/><path d="m71.52 192.49 17-17a24 24 0 0 1 33.94 0l101.54 101.6 101.57-101.58a24 24 0 0 1 33.95 0l17 17a24 24 0 0 1 0 34l-135.52 135.43a24 24 0 0 1 -33.94 0l-135.54-135.51a24 24 0 0 1 0-33.94z"/></svg>