<svg viewBox="0 0 448 512"><path d="m400 32h-352a48 48 0 0 0 -48 48v352a48 48 0 0 0 48 48h352a48 48 0 0 0 48-48v-352a48 48 0 0 0 -48-48zm-95.51 325.57a24 24 0 0 1 0 33.95l-17 17a24 24 0 0 1 -33.95 0l-135.48-135.52a24 24 0 0 1 0-33.94l135.51-135.54a24 24 0 0 1 33.95 0l17 17a24 24 0 0 1 0 33.94l-101.61 101.54z" opacity=".4"/><path d="m118.06 239 135.51-135.48a24 24 0 0 1 33.95 0l17 17a24 24 0 0 1 0 33.94l-101.61 101.54 101.58 101.57a24 24 0 0 1 0 33.95l-17 17a24 24 0 0 1 -33.95 0l-135.48-135.52a24 24 0 0 1 0-34z"/></svg>