<svg viewBox="0 0 640 512"><path d="m620.61 366.54-108.61-46.54v192h112a16 16 0 0 0 16-16v-100a32 32 0 0 0 -19.39-29.46zm-620.61 29.46v100a16 16 0 0 0 16 16h112v-192l-108.61 46.54a32 32 0 0 0 -19.39 29.46z" opacity=".4"/><path d="m480 274.12v237.88h-96v-96a64 64 0 0 0 -128 0v96h-96v-237.88a32 32 0 0 1 15.54-27.44l112.46-67.48v-51.2h-48a16 16 0 0 1 -16-16v-32a16 16 0 0 1 16-16h48v-48a16 16 0 0 1 16-16h32a16 16 0 0 1 16 16v48h48a16 16 0 0 1 16 16v32a16 16 0 0 1 -16 16h-48v51.2l112.46 67.48a32 32 0 0 1 15.54 27.44z"/></svg>