<svg viewBox="0 0 512 512"><path d="m504 257.28v.23c-.58 136.49-111.56 246.73-248 246.49v-64a184.09 184.09 0 0 0 177.16-134.42c27.44-97.84-29.63-199.41-127.47-226.85a24 24 0 0 1 -17.69-23.07v-16.66a24 24 0 0 1 30-23.22c107.4 27.65 186.61 125.38 186 241.5z" opacity=".4"/><path d="m256 439.93v64c-136.44.31-247.42-109.93-248-246.42v-.23c-.61-116.12 78.6-213.85 186-241.5a24 24 0 0 1 30 23.22v16.66a24 24 0 0 1 -17.69 23.07c-97.84 27.44-154.91 129-127.47 226.85a184.07 184.07 0 0 0 177.16 134.35z"/></svg>