<svg viewBox="0 0 640 512"><path d="m630.13 129.22a16 16 0 0 0 -17.44 3.47l-43.31 43.31h-468.18a32 32 0 0 0 -10.13 1.64l-80.13 26.71a16 16 0 0 0 -10.94 15.18v72.94a16 16 0 0 0 10.94 15.18l80.13 26.71a32 32 0 0 0 10.13 1.64h468.18l43.31 43.31a16 16 0 0 0 27.31-11.31v-224a16 16 0 0 0 -9.87-14.78zm-358.13 150.78a24 24 0 1 1 24-24 24 24 0 0 1 -24 24zm96 0a24 24 0 1 1 24-24 24 24 0 0 1 -24 24zm96 0a24 24 0 1 1 24-24 24 24 0 0 1 -24 24z" opacity=".4"/><path d="m368 232a24 24 0 1 0 24 24 24 24 0 0 0 -24-24zm-96 0a24 24 0 1 0 24 24 24 24 0 0 0 -24-24zm232-120h-272a8 8 0 0 0 -8 8v16a8 8 0 0 0 8 8h24v32h32v-32h64v32h32v-32h64v32h32v-32h24a8 8 0 0 0 8-8v-16a8 8 0 0 0 -8-8zm-40 120a24 24 0 1 0 24 24 24 24 0 0 0 -24-24z"/></svg>