<svg viewBox="0 0 512 512"><path d="m7 224.51c-5-2.37-9.4 4.09-5.49 8l85.12 85.13a32 32 0 0 1 9.37 22.63v43.73h43.74a32 32 0 0 1 22.63 9.37l117.14 117.16c3.86 3.86 10.32-.56 8-5.49-81.11-171.93-224.15-253.78-280.51-280.53zm504.51 56.49c-81.11-171.89-224.15-253.74-280.51-280.49-5-2.37-9.4 4.09-5.49 8l21.13 21.12a32 32 0 0 1 9.36 22.63v43.74h43.74a32 32 0 0 1 22.63 9.37l52.26 52.26a32 32 0 0 1 9.37 22.63v43.74h43.73a32 32 0 0 1 22.63 9.37l53.16 53.16c3.86 3.86 10.32-.53 7.99-5.53z" opacity=".4"/><path d="m2.67 15.13c-6.95-6.95.87-18.43 9.75-14.22a1010.5 1010.5 0 0 1 104.47 58.09 32.4 32.4 0 0 0 17.11 5h58v31.29a31.44 31.44 0 0 0 12.27 25c105.31 81.65 224.13 204 306.86 379.3 4.14 8.77-7.34 16.62-14.2 9.76l-84-84a32 32 0 0 0 -22.64-9.35h-38.29v-38.29a32 32 0 0 0 -9.37-22.63l-89.71-89.71a32 32 0 0 0 -22.63-9.37h-38.29v-38.28a32 32 0 0 0 -9.37-22.63z"/></svg>