<svg viewBox="0 0 576 512"><path d="m288 115-218.52 192.72c-1.62 1.46-3.69 2.14-5.47 3.35v184.93a16 16 0 0 0 16 16h415.99a16 16 0 0 0 16-16v-184.89c-1.7-1.16-3.72-1.82-5.26-3.2zm96 261a8 8 0 0 1 -8 8h-56v56a8 8 0 0 1 -8 8h-48a8 8 0 0 1 -8-8v-56h-56a8 8 0 0 1 -8-8v-48a8 8 0 0 1 8-8h56v-56a8 8 0 0 1 8-8h48a8 8 0 0 1 8 8v56h56a8 8 0 0 1 8 8z" opacity=".4"/><path d="m570.7 236.29-255.94-226a39.85 39.85 0 0 0 -53.45 0l-256 226a16 16 0 0 0 -1.21 22.59l21.41 23.82a16 16 0 0 0 22.59 1.21l229.33-202.27a16 16 0 0 1 21.17 0l229.32 202.27a16 16 0 0 0 22.6-1.2l21.4-23.82a16 16 0 0 0 -1.22-22.6zm-194.7 83.71h-56v-56a8 8 0 0 0 -8-8h-48a8 8 0 0 0 -8 8v56h-56a8 8 0 0 0 -8 8v48a8 8 0 0 0 8 8h56v56a8 8 0 0 0 8 8h48a8 8 0 0 0 8-8v-56h56a8 8 0 0 0 8-8v-48a8 8 0 0 0 -8-8z"/></svg>