<svg viewBox="0 0 384 512"><path d="m336 63h-80v1a64 64 0 0 1 64 64h-256a64 64 0 0 1 64-64v-1h-80a48 48 0 0 0 -48 48v352a48 48 0 0 0 48 48h288a48 48 0 0 0 48-48v-352a48 48 0 0 0 -48-48zm-144 129a64 64 0 1 1 -64 64 64 64 0 0 1 64-64zm112 236.8c0 10.61-10 19.2-22.4 19.2h-179.2c-12.4 0-22.4-8.6-22.4-19.2v-19.2c0-31.81 30.09-57.6 67.2-57.6h5a103.22 103.22 0 0 0 79.7 0h5c37.11 0 67.2 25.79 67.2 57.6z" opacity=".4"/><path d="m236.9 352h-5a103.22 103.22 0 0 1 -79.7 0h-5c-37.11 0-67.2 25.79-67.2 57.6v19.2c0 10.6 10 19.2 22.4 19.2h179.2c12.4 0 22.4-8.59 22.4-19.2l.1-19.2c0-31.81-30.1-57.6-67.2-57.6zm-108.9-96a64 64 0 1 0 64-64 64 64 0 0 0 -64 64zm128-192a64 64 0 0 0 -128 0 64 64 0 0 0 -64 64h256a64 64 0 0 0 -64-64zm-64 24a24 24 0 1 1 24-24 23.94 23.94 0 0 1 -24 24z"/></svg>