<svg viewBox="0 0 384 512"><path d="m336 63h-80a64 64 0 0 1 64 64h-256a64 64 0 0 1 64-64h-80a48 48 0 0 0 -48 48v352a48 48 0 0 0 48 48h288a48 48 0 0 0 48-48v-352a48 48 0 0 0 -48-48zm-32 369-11.31 11.31a16 16 0 0 1 -22.63 0l-30.06-30.06-30.06 30.06a16 16 0 0 1 -22.63 0l-11.31-11.31a16 16 0 0 1 0-22.63l30.06-30.06-59.32-59.31h-18.74v48a16 16 0 0 1 -16 16h-16a16 16 0 0 1 -16-16v-160a16 16 0 0 1 16-16h80a63.8 63.8 0 0 1 30.54 119.92l33.46 33.46 29.9-29.9a16 16 0 0 1 22.63 0l11.3 11.31a16 16 0 0 1 0 22.63l-29.9 29.9 30.07 30.06a16 16 0 0 1 0 22.62zm-112-176a16 16 0 0 1 -16 16h-48v-32h48a16 16 0 0 1 16 16z" opacity=".4"/><path d="m273.93 379.32 29.9-29.9a16 16 0 0 0 0-22.63l-11.3-11.31a16 16 0 0 0 -22.63 0l-29.9 29.9-33.46-33.46a63.8 63.8 0 0 0 -30.54-119.92h-80a16 16 0 0 0 -16 16v160a16 16 0 0 0 16 16h16a16 16 0 0 0 16-16v-48h18.74l59.32 59.31-30.06 30.06a16 16 0 0 0 0 22.63l11.31 11.31a16 16 0 0 0 22.63 0l30.06-30.06 30.06 30.06a16 16 0 0 0 22.63 0l11.31-11.31a16 16 0 0 0 0-22.62zm-97.93-107.32h-48v-32h48a16 16 0 0 1 0 32zm80-209a64 64 0 0 0 -128 0 64 64 0 0 0 -64 64h256a64 64 0 0 0 -64-64zm-64 24a24 24 0 1 1 24-24 23.94 23.94 0 0 1 -24 24z"/></svg>