<svg viewBox="0 0 384 512"><path d="m336 64h-80a64 64 0 0 1 64 64h-256a64 64 0 0 1 64-64h-80a48 48 0 0 0 -48 48v352a48 48 0 0 0 48 48h288a48 48 0 0 0 48-48v-352a48 48 0 0 0 -48-48zm-240 360a24 24 0 1 1 24-24 23.94 23.94 0 0 1 -24 24zm0-96a24 24 0 1 1 24-24 23.94 23.94 0 0 1 -24 24zm0-96a24 24 0 1 1 24-24 23.94 23.94 0 0 1 -24 24zm224 176a8 8 0 0 1 -8 8h-144a8 8 0 0 1 -8-8v-16a8 8 0 0 1 8-8h144a8 8 0 0 1 8 8zm0-96a8 8 0 0 1 -8 8h-144a8 8 0 0 1 -8-8v-16a8 8 0 0 1 8-8h144a8 8 0 0 1 8 8zm0-96a8 8 0 0 1 -8 8h-144a8 8 0 0 1 -8-8v-16a8 8 0 0 1 8-8h144a8 8 0 0 1 8 8z" opacity=".4"/><path d="m96 376a24 24 0 1 0 24 24 23.94 23.94 0 0 0 -24-24zm0-96a24 24 0 1 0 24 24 23.94 23.94 0 0 0 -24-24zm0-96a24 24 0 1 0 24 24 23.94 23.94 0 0 0 -24-24zm160-120a64 64 0 0 0 -128 0 64 64 0 0 0 -64 64h256a64 64 0 0 0 -64-64zm-64 24a24 24 0 1 1 24-24 23.94 23.94 0 0 1 -24 24z"/></svg>