<svg viewBox="0 0 384 512"><path d="m336 64h-80a64 64 0 0 1 64 64h-256a64 64 0 0 1 64-64h-80a48 48 0 0 0 -48 48v352a48 48 0 0 0 48 48h288a48 48 0 0 0 48-48v-352a48 48 0 0 0 -48-48zm-22.8 207.8-143 141.8a12 12 0 0 1 -17-.1l-82.6-83.3a12 12 0 0 1 .1-17l28.4-28.2a12 12 0 0 1 17 .1l46 46.4 106-105.2a12 12 0 0 1 17 .1l28.2 28.4a12 12 0 0 1 -.1 17z" opacity=".4"/><path d="m285.1 226.4a12 12 0 0 0 -17-.1l-106 105.2-46-46.4a12 12 0 0 0 -17-.1l-28.4 28.2a12 12 0 0 0 -.1 17l82.6 83.3a12 12 0 0 0 17 .1l143-141.8a12 12 0 0 0 .1-17zm-29.1-162.4a64 64 0 0 0 -128 0 64 64 0 0 0 -64 64h256a64 64 0 0 0 -64-64zm-64 24a24 24 0 1 1 24-24 23.94 23.94 0 0 1 -24 24z"/></svg>