<svg viewBox="0 0 512 512"><path d="m87.2 353.7a16.12 16.12 0 0 0 -21.5 7.2l-64 128a16 16 0 0 0 7.2 21.5 16.88 16.88 0 0 0 7.2 1.7 16 16 0 0 0 14.3-8.8l64-128a16.23 16.23 0 0 0 -7.2-21.6zm256 0a16.12 16.12 0 0 0 -21.5 7.2l-64 128a16 16 0 0 0 7.2 21.5 16.88 16.88 0 0 0 7.2 1.7 16 16 0 0 0 14.3-8.8l64-128a16.23 16.23 0 0 0 -7.2-21.6zm148.8 78.3-27.9-16 27.9-16a8 8 0 0 0 2.9-10.9l-8-13.9a8 8 0 0 0 -10.9-2.9l-28 16.1v-28.4a8 8 0 0 0 -8-8h-16a8 8 0 0 0 -8 8v28.4l-28-16.1a8 8 0 0 0 -10.9 2.9l-8 13.9a8 8 0 0 0 2.9 10.9l27.9 16-27.9 16a8 8 0 0 0 -2.9 10.9l8 13.9a8 8 0 0 0 10.9 2.9l28-16.1v28.4a8 8 0 0 0 8 8h16a8 8 0 0 0 8-8v-28.4l28 16.1a8 8 0 0 0 10.9-2.9l8-13.9a8 8 0 0 0 -2.9-10.9zm-253.1-42.9-8-13.9a8 8 0 0 0 -10.9-2.9l-28 16.1v-28.4a8 8 0 0 0 -8-8h-16a8 8 0 0 0 -8 8v28.4l-28-16.1a8 8 0 0 0 -10.9 2.9l-8 13.9a8 8 0 0 0 2.9 10.9l27.9 16-27.9 16a8 8 0 0 0 -2.9 10.9l8 13.9a8 8 0 0 0 10.9 2.9l28-16.1v28.4a8 8 0 0 0 8 8h16a8 8 0 0 0 8-8v-28.4l28 16.1a8 8 0 0 0 10.9-2.9l8-13.9a8 8 0 0 0 -2.9-10.9l-27.9-16 27.9-16a8 8 0 0 0 2.9-10.9z" opacity=".4"/><path d="m416 320h-320a96 96 0 0 1 -96-96c0-42.5 27.8-78.2 66.1-90.8a113.72 113.72 0 0 1 -2.1-21.2 111.94 111.94 0 0 1 112-112c43.3 0 80.4 24.8 99 60.8 14.7-17.5 36.4-28.8 61-28.8a80 80 0 0 1 80 80 78.09 78.09 0 0 1 -1.6 16.2c.5 0 1-.2 1.6-.2a96 96 0 0 1 0 192z"/></svg>