<svg viewBox="0 0 640 512"><path d="m161.6 288h-65.6a96 96 0 0 1 0-192c.6 0 1.1.2 1.6.2 7.7-54.3 54-96.2 110.4-96.2a111.61 111.61 0 0 1 104.5 72.7 95.07 95.07 0 0 1 39.5-8.7 96 96 0 0 1 96 96 93 93 0 0 1 -7 34.7 110.5 110.5 0 0 0 -31.6 11.8 142.54 142.54 0 0 0 -105.4-46.5c-73.9 0-134.3 56.2-142.4 128z" opacity=".4"/><path d="m640 416a96 96 0 0 1 -96 96h-320a96 96 0 0 1 -96-96c0-42.5 27.8-78.2 66.1-90.8a113.72 113.72 0 0 1 -2.1-21.2 111.94 111.94 0 0 1 112-112c43.2 0 80.4 24.9 99 60.8 14.7-17.5 36.4-28.8 61-28.8a80 80 0 0 1 80 80 78.09 78.09 0 0 1 -1.6 16.2c.5 0 1-.2 1.6-.2a96 96 0 0 1 96 96z"/></svg>