<svg viewBox="0 0 640 512"><path d="m537.59 226.59a96 96 0 0 0 -142.9-114.39 160 160 0 0 0 -298.69 79.8c0 2.7.09 5.41.19 8.09a144 144 0 0 0 47.81 279.91h368a128 128 0 0 0 25.59-253.41zm-153.59 125.41c0 17.67-21.5 32-48 32s-48-14.33-48-32 21.5-32 48-32a69.82 69.82 0 0 1 16 2v-76.36l-96 37.52v100.84c0 17.67-21.5 32-48 32s-48-14.33-48-32 21.5-32 48-32a69.82 69.82 0 0 1 16 2v-114.75a16 16 0 0 1 11.19-15.25l128-47.25a16 16 0 0 1 20.81 15.25z" opacity=".4"/><path d="m208 352a69.82 69.82 0 0 1 16 2v-114.75a16 16 0 0 1 11.19-15.25l128-47.25a16 16 0 0 1 20.81 15.25v160c0 17.67-21.5 32-48 32s-48-14.33-48-32 21.5-32 48-32a69.82 69.82 0 0 1 16 2v-76.36l-96 37.52v100.84c0 17.67-21.5 32-48 32s-48-14.33-48-32 21.5-32 48-32z"/></svg>