<svg viewBox="0 0 576 512"><path d="m430.8 304.9a125.07 125.07 0 0 1 26.9 20.3c29.4-32.4 71.3-53.2 118.3-53.2v-64a223.38 223.38 0 0 0 -156.8 64.3 94.09 94.09 0 0 1 11.6 32.6zm-192.2-131.3a142.8 142.8 0 0 1 56.6 31c64.4-85.2 166.1-140.6 280.8-140.6v-64c-138.9 0-261.8 68.7-337.4 173.6zm87.2 51.5c7.4-.8 36.7-5.4 68.4 18.9a255.37 255.37 0 0 1 181.8-76v-64c-101.3 0-191.6 47.4-250.2 121.1z" opacity=".4"/><path d="m399.2 325.6c37.6 13 64.8 48.4 64.8 90.4a96 96 0 0 1 -96 96h-272a96 96 0 0 1 -96-96c0-50.6 39.2-91.6 88.9-95.3-.2-2.9-.9-5.7-.9-8.7a111.87 111.87 0 0 1 213.9-46 63.81 63.81 0 0 1 98.1 54 53.91 53.91 0 0 1 -.8 5.6z"/></svg>