<svg viewBox="0 0 640 512"><path d="m366.8 61.89-87.8 29.29-41.5-82.78a15.13 15.13 0 0 0 -27.1 0l-41.4 82.78-87.9-29.29a15.23 15.23 0 0 0 -19.2 19.19l29.3 87.79-82.8 41.49a15.12 15.12 0 0 0 0 27.09l82.8 41.4-29.3 87.78a15.16 15.16 0 0 0 19.2 19.19l76.1-25.29a129 129 0 0 1 23.6-33.53 110.27 110.27 0 0 1 -36-24 112 112 0 1 1 180.7-125.53 143.5 143.5 0 0 1 30.7-7.5l29.8-88.89a15.16 15.16 0 0 0 -19.2-19.19zm-142.8 78.11a83.85 83.85 0 0 0 -16.1 166.17 128.29 128.29 0 0 1 25.2-11.7 144.12 144.12 0 0 1 67.4-105 84.15 84.15 0 0 0 -76.5-49.47z" opacity=".4"/><path d="m575.2 325.64c37.6 13 64.8 48.29 64.8 90.38a96 96 0 0 1 -96 96h-272a96 96 0 0 1 -96-96c0-50.59 39.3-91.58 88.9-95.28-.2-2.9-.9-5.7-.9-8.7a112 112 0 0 1 112-112c45.4 0 84.3 27.2 101.9 66a63.81 63.81 0 0 1 98.1 53.96 53.91 53.91 0 0 1 -.8 5.6z"/></svg>