<svg viewBox="0 0 512 512"><path d="m183.89 370.13a15.88 15.88 0 0 0 -21.8 6l-64 112a15.91 15.91 0 0 0 6 21.79 16 16 0 0 0 21.8-6l64-112a16 16 0 0 0 -6-21.79zm95.3-.4a16 16 0 0 0 -21.5 7.2l-16 32a16 16 0 0 0 7.2 21.5 16.88 16.88 0 0 0 7.2 1.7 16 16 0 0 0 14.3-8.8l16-32a16.23 16.23 0 0 0 -7.2-21.6zm-192 0a16 16 0 0 0 -21.5 7.2l-16 32a16 16 0 0 0 7.2 21.5 16.88 16.88 0 0 0 7.2 1.7 16 16 0 0 0 14.3-8.8l16-32a16.23 16.23 0 0 0 -7.19-21.6zm384 0a16 16 0 0 0 -21.5 7.2l-16 32a16 16 0 0 0 7.19 21.5 16.88 16.88 0 0 0 7.2 1.7 16 16 0 0 0 14.3-8.8l16-32a16.23 16.23 0 0 0 -7.2-21.6zm-95.29.4a15.88 15.88 0 0 0 -21.8 6l-64 112a15.91 15.91 0 0 0 6 21.79 16 16 0 0 0 21.8-6l64-112a16 16 0 0 0 -6.01-21.79zm-343.9 77.87a32 32 0 1 0 32 32 32 32 0 0 0 -32-32zm192 0a32 32 0 1 0 32 32 32 32 0 0 0 -32-32zm192 0a32 32 0 1 0 32 32 32 32 0 0 0 -32-32z" opacity=".4"/><path d="m512 224a96 96 0 0 1 -96 96h-320a96 96 0 0 1 -96-96c0-42.5 27.8-78.2 66.1-90.8a113.72 113.72 0 0 1 -2.1-21.2 111.94 111.94 0 0 1 112-112c43.3 0 80.4 24.8 99 60.8 14.7-17.5 36.4-28.8 61-28.8a80 80 0 0 1 80 80 78.09 78.09 0 0 1 -1.6 16.2c.5 0 1-.2 1.6-.2a96 96 0 0 1 96 96z"/></svg>