<svg viewBox="0 0 512 512"><path d="m126.9 389.1-8-13.9a8 8 0 0 0 -10.9-2.9l-28 16.1v-28.4a8 8 0 0 0 -8-8h-16a8 8 0 0 0 -8 8v28.4l-28-16.1a8 8 0 0 0 -10.9 2.9l-8 13.9a8 8 0 0 0 2.9 10.9l27.9 16-27.9 16a8 8 0 0 0 -2.9 10.9l8 13.9a8 8 0 0 0 10.9 2.9l28-16.1v28.4a8 8 0 0 0 8 8h16a8 8 0 0 0 8-8v-28.4l28 16.1a8 8 0 0 0 10.9-2.9l8-13.9a8 8 0 0 0 -2.9-10.9l-27.9-16 27.9-16a8 8 0 0 0 2.9-10.9zm192 32-8-13.9a8 8 0 0 0 -10.9-2.9l-28 16.1v-28.4a8 8 0 0 0 -8-8h-16a8 8 0 0 0 -8 8v28.4l-28-16.1a8 8 0 0 0 -10.9 2.9l-8 13.9a8 8 0 0 0 2.9 10.9l27.9 16-27.9 16a8 8 0 0 0 -2.9 10.9l8 13.9a8 8 0 0 0 10.9 2.9l28-16.1v28.4a8 8 0 0 0 8 8h16a8 8 0 0 0 8-8v-28.4l28 16.1a8 8 0 0 0 10.9-2.9l8-13.9a8 8 0 0 0 -2.9-10.9l-27.9-16 27.9-16a8 8 0 0 0 2.9-10.9zm189.1 10.9-27.9-16 27.9-16a8 8 0 0 0 2.9-10.9l-8-13.9a8 8 0 0 0 -10.9-2.9l-28 16.1v-28.4a8 8 0 0 0 -8-8h-16a8 8 0 0 0 -8 8v28.4l-28-16.1a8 8 0 0 0 -10.9 2.9l-8 13.9a8 8 0 0 0 2.9 10.9l27.9 16-27.9 16a8 8 0 0 0 -2.9 10.9l8 13.9a8 8 0 0 0 10.9 2.9l28-16.1v28.4a8 8 0 0 0 8 8h16a8 8 0 0 0 8-8v-28.4l28 16.1a8 8 0 0 0 10.9-2.9l8-13.9a8 8 0 0 0 -2.9-10.9z" opacity=".4"/><path d="m0 224c0-42.5 27.8-78.2 66.1-90.8a113.72 113.72 0 0 1 -2.1-21.2 111.94 111.94 0 0 1 112-112c43.3 0 80.4 24.8 99 60.8 14.7-17.5 36.4-28.8 61-28.8a80 80 0 0 1 80 80 78.09 78.09 0 0 1 -1.6 16.2c.5 0 1-.2 1.6-.2a96 96 0 0 1 0 192h-320a96 96 0 0 1 -96-96z"/></svg>