<svg viewBox="0 0 512 512"><path d="m183.9 370.1a15.88 15.88 0 0 0 -21.8 6l-64 112a15.92 15.92 0 0 0 6 21.8 16 16 0 0 0 21.8-6l64-112a16 16 0 0 0 -6-21.8zm96 0a15.88 15.88 0 0 0 -21.8 6l-64 112a15.92 15.92 0 0 0 6 21.8 16 16 0 0 0 21.8-6l64-112a16 16 0 0 0 -6-21.8zm-192 0a15.88 15.88 0 0 0 -21.8 6l-64 112a15.92 15.92 0 0 0 6 21.8 16 16 0 0 0 21.8-6l64-112a16 16 0 0 0 -5.99-21.8zm384 0a15.88 15.88 0 0 0 -21.8 6l-64 112a15.92 15.92 0 0 0 6 21.8 16 16 0 0 0 21.8-6l64-112a16 16 0 0 0 -6.01-21.8zm-96 0a15.88 15.88 0 0 0 -21.8 6l-64 112a15.92 15.92 0 0 0 6 21.8 16 16 0 0 0 21.8-6l64-112a16 16 0 0 0 -6.01-21.8z" opacity=".4"/><path d="m512 224a96 96 0 0 1 -96 96h-320a96 96 0 0 1 -96-96c0-42.5 27.8-78.2 66.1-90.8a113.72 113.72 0 0 1 -2.1-21.2 112 112 0 0 1 112-112c43.3 0 80.4 24.8 99 60.8 14.7-17.5 36.4-28.8 61-28.8a80 80 0 0 1 80 80 78.09 78.09 0 0 1 -1.6 16.2c.5 0 1-.2 1.6-.2a96 96 0 0 1 96 96z"/></svg>