<svg viewBox="0 0 640 512"><path d="m638.48 257.87a159.19 159.19 0 0 1 -103.92 62.13 124.64 124.64 0 0 0 -61.37-27.16 111.65 111.65 0 0 0 -88.77-62.12 113.15 113.15 0 0 0 -32.06-62.37c0-.7-.24-1.3-.27-2-2.96-88.82 66.01-163.23 153.91-166.26a155.62 155.62 0 0 1 29.15 1.72 7.56 7.56 0 0 1 2.85 13.88 126.31 126.31 0 0 0 -59.51 111.7c2.62 78.77 75.59 136.11 152.4 118.57 6.75-1.54 11.76 6.24 7.59 11.91z" opacity=".4"/><path d="m448 320h-1.6a79.68 79.68 0 0 0 -139.44-35.2c-18.61-35.9-55.82-60.8-99-60.8-58.38 0-105.7 44.7-110.96 101.6-37.85 12.9-65.16 48.3-65.16 90.4a96 96 0 0 0 96 96h320.16a96 96 0 1 0 0-192zm-380-16.59c14.79-64.66 71.51-111.31 139-111.31a141.46 141.46 0 0 1 104.88 46.55 110.61 110.61 0 0 1 36.91-12.92c-6.76-37.34-39.1-65.66-78.11-65.66h-17.54a79.53 79.53 0 0 0 -156 0h-17.54c-44 0-79.6 35.83-79.6 80.08a80 80 0 0 0 50.75 74.47 131.22 131.22 0 0 1 17.25-11.21z"/></svg>