<svg viewBox="0 0 640 512"><path d="m314.45 53.1-75.29 25.1-35.49-71a13 13 0 0 0 -23.3 0l-35.49 71-75.29-25.1a13.06 13.06 0 0 0 -16.5 16.5l25.1 75.3-71 35.5a13 13 0 0 0 0 23.3l71 35.5-25.1 75.3a13.06 13.06 0 0 0 16.5 16.5l42.69-14.2a124.47 124.47 0 0 1 20.1-13.6 141.91 141.91 0 0 1 10.5-29.1 94.9 94.9 0 0 1 -18.7-150 96.18 96.18 0 0 1 135.78 0 93.93 93.93 0 0 1 24.1 42.4 110.08 110.08 0 0 1 20.59-18.6l26.35-78.4a13 13 0 0 0 -16.55-16.4zm-122.38 74.9a63.78 63.78 0 0 0 -32.3 118.9 141.32 141.32 0 0 1 96.23-53.5c0-.5.1-.9.1-1.4a64.06 64.06 0 0 0 -64.03-64z" opacity=".4"/><path d="m512 320h-1.6a80 80 0 0 0 -78.4-64c-24.6 0-46.3 11.3-61 28.8-18.6-35.9-55.8-60.8-99-60.8-58.3 0-105.6 44.7-110.9 101.6-37.8 12.9-65.1 48.3-65.1 90.4a96 96 0 0 0 96 96h320a96 96 0 0 0 0-192zm48-160h-17.58a80 80 0 0 0 -156.78 0h-17.64a79.77 79.77 0 0 0 -66.19 35.1 142.52 142.52 0 0 1 75.59 43.3 110.34 110.34 0 0 1 54.6-14.5 112.41 112.41 0 0 1 102.09 65.9 127.06 127.06 0 0 1 55 24.4 79.81 79.81 0 0 0 -29.09-154.2z"/></svg>