<svg viewBox="0 0 640 512"><path d="m537.6 226.6a96.11 96.11 0 0 0 -89.6-130.6 95.51 95.51 0 0 0 -53.3 16.2 160 160 0 0 0 -298.7 79.8c0 2.7.1 5.4.2 8.1a144 144 0 0 0 47.8 279.9h368a128 128 0 0 0 25.6-253.4zm-144.2 61.4h-65.4v112a16 16 0 0 1 -16 16h-48a16 16 0 0 1 -16-16v-112h-65.4a16 16 0 0 1 -11.3-27.3l105.4-105.4a16.06 16.06 0 0 1 22.6 0l105.4 105.4c10.1 10.1 2.9 27.3-11.3 27.3z" opacity=".4"/><path d="m393.4 288h-65.4v112a16 16 0 0 1 -16 16h-48a16 16 0 0 1 -16-16v-112h-65.4a16 16 0 0 1 -11.3-27.3l105.4-105.4a16.06 16.06 0 0 1 22.6 0l105.4 105.4c10.1 10.1 2.9 27.3-11.3 27.3z"/></svg>