<svg viewBox="0 0 640 512"><path d="m537.6 226.6a96.11 96.11 0 0 0 -89.6-130.6 95.51 95.51 0 0 0 -53.3 16.2 160 160 0 0 0 -298.7 79.8c0 2.7.1 5.4.2 8.1a144 144 0 0 0 47.8 279.9h368a128 128 0 0 0 25.6-253.4zm-139.9 93-92.7 92.7a23.9 23.9 0 0 1 -33.9 0l-92.7-92.7a23.9 23.9 0 0 1 0-33.9l10.8-10.8a24.09 24.09 0 0 1 34.5.5l32.4 34.5v-125.9a23.94 23.94 0 0 1 24-24h16a23.94 23.94 0 0 1 24 24v125.9l32.4-34.5a24 24 0 0 1 34.5-.5l10.8 10.8a24.18 24.18 0 0 1 -.1 33.9z" opacity=".4"/><path d="m397.7 319.6-92.7 92.7a23.9 23.9 0 0 1 -33.9 0l-92.7-92.7a23.9 23.9 0 0 1 0-33.9l10.8-10.8a24.09 24.09 0 0 1 34.5.5l32.4 34.5v-125.9a23.94 23.94 0 0 1 24-24h16a23.94 23.94 0 0 1 24 24v125.9l32.4-34.5a24 24 0 0 1 34.5-.5l10.8 10.8a24.18 24.18 0 0 1 -.1 33.9z"/></svg>