<svg viewBox="0 0 512 512"><path d="m512 292a124 124 0 0 1 -124 124c-41.36 0-77.55-20.54-100-51.69v-92.31a16 16 0 0 0 -16-16h-32a16 16 0 0 0 -16 16v92.31c-22.45 31.15-58.64 51.69-100 51.69a124 124 0 0 1 0-248c5.8 0 11.36.94 16.95 1.71a124 124 0 1 1 230.1 0c5.59-.77 11.15-1.71 16.95-1.71a124 124 0 0 1 124 124z" opacity=".4"/><path d="m367.31 486.59a32 32 0 0 1 -31.31 25.41h-160a32 32 0 0 1 -13-61.3c52.19-23.2 60.91-38.9 61-75.61v-103.09a16 16 0 0 1 16-16h32a16 16 0 0 1 16 16v103.09c.19 37.5 9.41 52.61 61 75.61a32.09 32.09 0 0 1 18.31 35.89z"/></svg>