<svg viewBox="0 0 640 512"><path d="m422.12 18.16a12 12 0 0 1 8.2 14.9l-136.5 470.2a12 12 0 0 1 -14.89 8.2l-61-17.7a12 12 0 0 1 -8.2-14.9l136.5-470.2a12 12 0 0 1 14.89-8.2z" opacity=".4"/><path d="m636.23 247.26-144.11-135.2a12.11 12.11 0 0 0 -17 .5l-43.5 46.44a12 12 0 0 0 .81 17.2l90.57 79.8-90.59 79.7a11.92 11.92 0 0 0 -.81 17.2l43.5 46.4a12 12 0 0 0 17 .6l144.11-135.1a11.94 11.94 0 0 0 .02-17.54zm-427.8-88.2-43.5-46.4a12 12 0 0 0 -17-.5l-144.11 135a11.94 11.94 0 0 0 0 17.5l144.11 135.1a11.92 11.92 0 0 0 17-.5l43.5-46.4a12 12 0 0 0 -.81-17.2l-90.62-79.66 90.6-79.7a11.92 11.92 0 0 0 .83-17.24z"/></svg>