<svg viewBox="0 0 512 512"><path d="m424.06 171.86-271.86.63c-53.57 39.58-88.2 101.9-88.2 172.13 0 51.47 18.62 84.77 49.64 117.71a57.17 57.17 0 0 0 41.52 17.67h265.68a57.08 57.08 0 0 0 41.45-17.6c31-32.95 49.69-66.24 49.71-117.72 0-69.55-33.59-132.86-87.94-172.82zm-6 244.14h-260.06c-22.34-24.35-30-42.72-30-71.38 0-41.12 17-79.62 47.3-108.18l225.81-.53a148.57 148.57 0 0 1 46.89 108.75c0 28.64-7.63 47.01-29.95 71.34z" opacity=".4"/><path d="m130.55 320a146 146 0 0 0 -2.55 24.62c0 28.66 7.62 47 30 71.38h260.05c22.32-24.33 29.95-42.7 29.95-71.34a150.45 150.45 0 0 0 -2.5-24.66zm293.51-148.14 55.94-139.86h-392a88 88 0 0 0 -88 88v88a16 16 0 0 0 16 16h32a16 16 0 0 0 16-16v-72a40 40 0 0 1 40-40h17.6l30.6 76.49z"/></svg>