<svg viewBox="0 0 384 512"><path d="m288 192a16 16 0 0 1 -16 16h-56v128a16 16 0 0 1 -16 16h-16a16 16 0 0 1 -16-16v-128h-56a16 16 0 0 1 -16-16v-16a16 16 0 0 1 16-16h56v-48a16 16 0 0 1 16-16h16a16 16 0 0 1 16 16v48h56a16 16 0 0 1 16 16z" opacity=".4"/><path d="m374.44 115.19-107.73-105.82a32.93 32.93 0 0 0 -23-9.37h-103.38a32.89 32.89 0 0 0 -23 9.37l-107.79 105.82a31.61 31.61 0 0 0 -8.54 30.39l87.1 342.18a32.49 32.49 0 0 0 31.59 24.24h144.62a32.47 32.47 0 0 0 31.61-24.24l87.08-342.18a31.67 31.67 0 0 0 -8.56-30.39zm-86.44 76.81a16 16 0 0 1 -16 16h-56v128a16 16 0 0 1 -16 16h-16a16 16 0 0 1 -16-16v-128h-56a16 16 0 0 1 -16-16v-16a16 16 0 0 1 16-16h56v-48a16 16 0 0 1 16-16h16a16 16 0 0 1 16 16v48h56a16 16 0 0 1 16 16z"/></svg>