<svg viewBox="0 0 512 512"><path d="m0 208c0-79.56 114.67-144 256-144s256 64.44 256 144-114.67 144-256 144-256-64.44-256-144z" opacity=".4"/><path d="m0 320c0 27.77 18 53.37 48 74.33v-64.33c-18.85-12-35.4-25.36-48-40.38zm80 92.51c27.09 12.89 59.66 22.81 96 28.8v-64.31c-35.39-6-67.81-15.88-96-29zm384-82.51v64.32c30.05-21 48-46.56 48-74.33v-30.36c-12.6 15.02-29.15 28.37-48 40.37zm-128 111.31c36.34-6 68.91-15.91 96-28.8v-64.51c-28.19 13.12-60.61 23-96 29zm-128-60.11v64.09c15.62 1.51 31.49 2.71 48 2.71s32.38-1.2 48-2.71v-64.09a477.2 477.2 0 0 1 -48 2.8 477.2 477.2 0 0 1 -48-2.8z"/></svg>