<svg viewBox="0 0 512 512"><path d="m416 311.4c57.3-11.1 96-31.7 96-55.4v-42.7c-23.2 16.4-57.3 27.6-96 34.5zm-4.7-95.1c60-10.8 100.7-32 100.7-56.3v-42.7c-35.5 25.1-96.5 38.6-160.7 41.8 29.5 14.3 51.2 33.5 60 57.2zm100.7-152.3c0-35.3-86-64-192-64s-192 28.7-192 64 86 64 192 64 192-28.7 192-64z" opacity=".4"/><path d="m192 320c106 0 192-35.8 192-80s-86-80-192-80-192 35.8-192 80 86 80 192 80zm-192 85.3v42.7c0 35.3 86 64 192 64s192-28.7 192-64v-42.7c-41.3 29.1-116.8 42.7-192 42.7s-150.7-13.6-192-42.7zm0-104.9v51.6c0 35.3 86 64 192 64s192-28.7 192-64v-51.6c-41.3 34-116.9 51.6-192 51.6s-150.7-17.6-192-51.6z"/></svg>