<svg viewBox="0 0 512 512"><path d="m491.12794.70921c-38.6972 11.5936-111.77976 34.29644-187.67439 61.2961-2.09343-6.99991-3.99939-13.49983-5.5929-18.59351a16.058 16.058 0 0 0 -22.90274-9.49988c-42.39976 22.09347-152.77349 82.59271-214.37343 142.4982-1.09359 1-2.49962 2-3.49947 3a194.83045 194.83045 0 1 0 275.56719 275.4965c.99985-1 1.9997-2.40622 2.99954-3.49995 59.78772-61.6086 120.3722-172.10721 142.47819-214.40356a16.06158 16.06158 0 0 0 -9.49854-22.906c-5.20233-1.59373-11.6076-3.5-18.60653-5.59368 26.99587-75.999 49.69552-148.99813 61.30311-187.70077a16.18325 16.18325 0 0 0 -20.20003-20.09345zm-175.7934 299.64662-50.586 49.33337 11.92787 69.72764a15.3022 15.3022 0 0 1 -22.19583 16.13651l-62.52168-32.92735-62.52168 32.92732c-11.07253 5.93743-24.32831-3.5312-22.19582-16.13651l11.99816-69.72764-50.59382-49.33334a15.31416 15.31416 0 0 1 8.46746-26.13639l69.85258-10.19714 31.26475-63.46795a15.29578 15.29578 0 0 1 27.45673 0l31.26474 63.46795 69.85259 10.19714a15.34634 15.34634 0 0 1 8.52995 26.13639z" opacity=".4"/><path d="m77.1132 274.21944 69.85258-10.19714 31.26475-63.46795a15.29578 15.29578 0 0 1 27.45673 0l31.26474 63.46795 69.85259 10.19714a15.34634 15.34634 0 0 1 8.52994 26.13639l-50.586 49.33337 11.92787 69.72764a15.3022 15.3022 0 0 1 -22.19583 16.13651l-62.52167-32.92735-62.52168 32.92732c-11.07253 5.93743-24.32831-3.5312-22.19582-16.13651l11.99816-69.72764-50.59382-49.33334a15.31416 15.31416 0 0 1 8.46746-26.13639z"/></svg>