<svg viewBox="0 0 512 512"><path d="m448 0h-384a64.05 64.05 0 0 0 -64 64v288a64.06 64.06 0 0 0 64 64h96v84a12 12 0 0 0 19.09 9.7l124.91-93.7h144a64.06 64.06 0 0 0 64-64v-288a64.05 64.05 0 0 0 -64-64zm-96 256c0 17.68-21.5 32-48 32s-48-14.32-48-32 21.5-32 48-32a69.27 69.27 0 0 1 16 1.95v-76.32l-96 37.52v100.85c0 17.67-21.5 32-48 32s-48-14.33-48-32 21.5-32 48-32a69.27 69.27 0 0 1 16 2v-114.76a16 16 0 0 1 11.19-15.24l128-47.24a16 16 0 0 1 20.81 15.24z" opacity=".4"/><path d="m176 256a69.82 69.82 0 0 1 16 2v-114.75a16 16 0 0 1 11.19-15.25l128-47.25a16 16 0 0 1 20.81 15.25v160c0 17.67-21.5 32-48 32s-48-14.33-48-32 21.5-32 48-32a69.82 69.82 0 0 1 16 2v-76.36l-96 37.52v100.84c0 17.67-21.5 32-48 32s-48-14.33-48-32 21.5-32 48-32z"/></svg>