<svg viewBox="0 0 576 512"><path d="m415.5 192c0-88.37-93.12-160-208-160s-208 71.63-208 160c0 34.27 14.13 65.95 38 92-13.39 30.22-35.5 54.16-35.8 54.5a8 8 0 0 0 5.8 13.5c36.58 0 66.93-12.25 88.73-25 32.2 15.74 70.29 25 111.27 25 114.88 0 208-71.63 208-160zm-224 96v-16.29a57.26 57.26 0 0 1 -31.37-11.35 8 8 0 0 1 -.57-12.14l11.75-11.22a8.21 8.21 0 0 1 10.13-.73 24.08 24.08 0 0 0 12.82 3.73h28.11c6.5 0 11.8-5.92 11.8-13.19 0-5.95-3.61-11.19-8.77-12.73l-45-13.5c-18.59-5.58-31.58-23.42-31.58-43.39 0-24.52 19.05-44.44 42.67-45.07v-16.12a8 8 0 0 1 8-8h16a8 8 0 0 1 8 8v16.29a57.18 57.18 0 0 1 31.37 11.35 8 8 0 0 1 .57 12.14l-11.75 11.22a8.21 8.21 0 0 1 -10.13.73 24 24 0 0 0 -12.82-3.73h-28.11c-6.5 0-11.8 5.92-11.8 13.19 0 5.95 3.61 11.19 8.77 12.73l45 13.5c18.59 5.58 31.58 23.42 31.58 43.39 0 24.53-19.05 44.44-42.67 45.07v16.12a8 8 0 0 1 -8 8h-16a8 8 0 0 1 -8-8z" opacity=".4"/><path d="m537.51 412c23.86-26 38-57.72 38-92 0-66.94-53.49-124.2-129.33-148.07a155.17 155.17 0 0 1 1.32 20.07c0 105.87-107.66 192-240 192a298.24 298.24 0 0 1 -31.73-1.88c31.53 57.51 105.5 97.88 191.73 97.88 41 0 79.07-9.24 111.27-25 21.8 12.73 52.15 25 88.73 25a8 8 0 0 0 5.79-13.51c-.29-.33-22.42-24.24-35.78-54.49zm-346-124a8 8 0 0 0 8 8h16a8 8 0 0 0 8-8v-16.12c23.62-.63 42.67-20.54 42.67-45.07 0-20-13-37.81-31.58-43.39l-45-13.5c-5.16-1.54-8.77-6.78-8.77-12.73 0-7.27 5.3-13.19 11.8-13.19h28.11a24 24 0 0 1 12.82 3.72 8.21 8.21 0 0 0 10.13-.73l11.75-11.21a8 8 0 0 0 -.57-12.14 57.18 57.18 0 0 0 -31.37-11.35v-16.29a8 8 0 0 0 -8-8h-16a8 8 0 0 0 -8 8v16.12c-23.62.63-42.67 20.55-42.67 45.07 0 20 13 37.81 31.58 43.39l45 13.5c5.16 1.54 8.77 6.78 8.77 12.73 0 7.27-5.3 13.19-11.8 13.19h-28.12a24.08 24.08 0 0 1 -12.82-3.72 8.21 8.21 0 0 0 -10.13.73l-11.75 11.21a8 8 0 0 0 .57 12.14 57.26 57.26 0 0 0 31.37 11.35z"/></svg>