<svg viewBox="0 0 640 512"><path d="m150.21 84.35c45.18-32.56 104.63-52.35 169.79-52.35 141.4 0 256 93.1 256 208 0 49.23-21 94.46-56.23 130.08zm-86.21 155.65c0 49.6 21.4 95 57 130.7-12.6 50.3-54.3 95.2-54.8 95.8a8 8 0 0 0 5.8 13.5c66.3 0 116-31.8 140.6-51.4a305 305 0 0 0 107.4 19.4 312.39 312.39 0 0 0 78.4-10l-325.53-251.63a171.62 171.62 0 0 0 -8.87 53.63z" opacity=".4"/><path d="m636.67 480.52-19.6 25.31a16.06 16.06 0 0 1 -22.5 2.8l-588.4-454.84a15.94 15.94 0 0 1 -2.8-22.41l19.63-25.21a16.06 16.06 0 0 1 22.5-2.8l588.3 454.84a15.86 15.86 0 0 1 2.87 22.31z"/></svg>