<svg viewBox="0 0 512 512"><path d="m256 32c-141.4 0-256 93.1-256 208 0 49.6 21.4 95 57 130.7-12.5 50.4-54.3 95.3-54.8 95.8a8 8 0 0 0 -1.5 8.7 7.83 7.83 0 0 0 7.3 4.8c66.3 0 116-31.8 140.6-51.4a305 305 0 0 0 107.4 19.4c141.4 0 256-93.1 256-208s-114.6-208-256-208zm-40.6 310.6-48.2 5.4a10.17 10.17 0 0 1 -11.2-11.2l5.4-48.2 96.3-96.3 54 54zm150.7-150.7-31.8 31.8-54-54 31.8-31.8a20.22 20.22 0 0 1 28.6 0l25.4 25.4a20.22 20.22 0 0 1 0 28.6z" opacity=".4"/><path d="m366.1 163.3-25.4-25.4a20.22 20.22 0 0 0 -28.6 0l-31.8 31.8 54 54 31.8-31.8a20.22 20.22 0 0 0 0-28.6zm-204.7 125.3-5.4 48.2a10.17 10.17 0 0 0 11.2 11.2l48.2-5.4 96.3-96.3-54-54z"/></svg>