<svg viewBox="0 0 512 512"><path d="m256 32c-141.41 0-256 93.09-256 208 0 49.59 21.41 95 57 130.7-12.5 50.39-54.31 95.3-54.81 95.8a8 8 0 0 0 -1.5 8.7 7.87 7.87 0 0 0 7.31 4.8c66.31 0 116-31.8 140.59-51.41a304.63 304.63 0 0 0 107.41 19.41c141.41 0 256-93.09 256-208s-114.59-208-256-208zm96 256c0 17.67-21.5 32-48 32s-48-14.33-48-32 21.5-32 48-32a69.82 69.82 0 0 1 16 2v-76.36l-96 37.52v100.84c0 17.67-21.5 32-48 32s-48-14.33-48-32 21.5-32 48-32a69.82 69.82 0 0 1 16 2v-114.75a16 16 0 0 1 11.19-15.25l128-47.25a16 16 0 0 1 20.81 15.25z" opacity=".4"/><path d="m176 288a69.82 69.82 0 0 1 16 2v-114.75a16 16 0 0 1 11.19-15.25l128-47.25a16 16 0 0 1 20.81 15.25v160c0 17.67-21.5 32-48 32s-48-14.33-48-32 21.5-32 48-32a69.82 69.82 0 0 1 16 2v-76.36l-96 37.52v100.84c0 17.67-21.5 32-48 32s-48-14.33-48-32 21.5-32 48-32z"/></svg>