<svg viewBox="0 0 512 512"><path d="m256 32c-141.4 0-256 93.1-256 208 0 49.6 21.4 95 57 130.7-12.5 50.4-54.3 95.3-54.8 95.8a8 8 0 0 0 -1.5 8.7 7.83 7.83 0 0 0 7.3 4.8c66.3 0 116-31.8 140.6-51.4a305 305 0 0 0 107.4 19.4c141.4 0 256-93.1 256-208s-114.6-208-256-208zm112 216a16 16 0 0 1 -16 16h-72v72a16 16 0 0 1 -16 16h-16a16 16 0 0 1 -16-16v-72h-72a16 16 0 0 1 -16-16v-16a16 16 0 0 1 16-16h72v-72a16 16 0 0 1 16-16h16a16 16 0 0 1 16 16v72h72a16 16 0 0 1 16 16z" opacity=".4"/><path d="m368 248a16 16 0 0 1 -16 16h-72v72a16 16 0 0 1 -16 16h-16a16 16 0 0 1 -16-16v-72h-72a16 16 0 0 1 -16-16v-16a16 16 0 0 1 16-16h72v-72a16 16 0 0 1 16-16h16a16 16 0 0 1 16 16v72h72a16 16 0 0 1 16 16z"/></svg>