<svg viewBox="0 0 512 512"><path d="m256 32c-141.4 0-256 93.1-256 208 0 49.6 21.4 95 57 130.7-12.5 50.4-54.3 95.3-54.8 95.8a8 8 0 0 0 -1.5 8.7 7.83 7.83 0 0 0 7.3 4.8c66.3 0 116-31.8 140.6-51.4a305 305 0 0 0 107.4 19.4c141.4 0 256-93.1 256-208s-114.6-208-256-208zm114.1 163.8-131 130a11 11 0 0 1 -15.6-.1l-75.7-76.3a11 11 0 0 1 .1-15.6l26-25.8a11 11 0 0 1 15.6.1l42.1 42.5 97.2-96.4a11 11 0 0 1 15.6.1l25.8 26a11 11 0 0 1 -.1 15.5z" opacity=".4"/><path d="m370.1 195.8-131 130a11 11 0 0 1 -15.6-.1l-75.7-76.3a11 11 0 0 1 .1-15.6l26-25.8a11 11 0 0 1 15.6.1l42.1 42.5 97.2-96.4a11 11 0 0 1 15.6.1l25.8 26a11 11 0 0 1 -.1 15.5z"/></svg>