<svg viewBox="0 0 512 512"><path d="m448 0h-384a64 64 0 0 0 -64 64v288a64 64 0 0 0 64 64h96v84a12 12 0 0 0 19.13 9.65l124.87-93.65h144a64 64 0 0 0 64-64v-288a64 64 0 0 0 -64-64zm-96 232a8 8 0 0 1 -8 8h-56v56a8 8 0 0 1 -8 8h-48a8 8 0 0 1 -8-8v-56h-56a8 8 0 0 1 -8-8v-48a8 8 0 0 1 8-8h56v-56a8 8 0 0 1 8-8h48a8 8 0 0 1 8 8v56h56a8 8 0 0 1 8 8z" opacity=".4"/><path d="m160 184a8 8 0 0 1 8-8h56v-56a8 8 0 0 1 8-8h48a8 8 0 0 1 8 8v56h56a8 8 0 0 1 8 8v48a8 8 0 0 1 -8 8h-56v56a8 8 0 0 1 -8 8h-48a8 8 0 0 1 -8-8v-56h-56a8 8 0 0 1 -8-8z"/></svg>