<svg viewBox="0 0 512 512"><path d="m256 32c-141.4 0-256 93.1-256 208 0 49.6 21.4 95 57 130.7-12.5 50.4-54.3 95.3-54.8 95.8a8 8 0 0 0 -1.5 8.7 7.83 7.83 0 0 0 7.3 4.8c66.3 0 116-31.8 140.6-51.4a305 305 0 0 0 107.4 19.4c141.4 0 256-93.1 256-208s-114.6-208-256-208zm32 264a8 8 0 0 1 -8 8h-144a8 8 0 0 1 -8-8v-16a8 8 0 0 1 8-8h144a8 8 0 0 1 8 8zm96-96a8 8 0 0 1 -8 8h-240a8 8 0 0 1 -8-8v-16a8 8 0 0 1 8-8h240a8 8 0 0 1 8 8z" opacity=".4"/><path d="m376 176h-240a8 8 0 0 0 -8 8v16a8 8 0 0 0 8 8h240a8 8 0 0 0 8-8v-16a8 8 0 0 0 -8-8zm-96 96h-144a8 8 0 0 0 -8 8v16a8 8 0 0 0 8 8h144a8 8 0 0 0 8-8v-16a8 8 0 0 0 -8-8z"/></svg>