<svg viewBox="0 0 512 512"><path d="m448 0h-384a64.06 64.06 0 0 0 -64 64v288a64.06 64.06 0 0 0 64 64h96v84a12 12 0 0 0 19.1 9.7l124.9-93.7h144a64.06 64.06 0 0 0 64-64v-288a64.06 64.06 0 0 0 -64-64zm-232.6 310.6-48.2 5.4a10.17 10.17 0 0 1 -11.2-11.2l5.4-48.2 96.3-96.3 54 54zm150.7-150.7-31.8 31.8-54-54 31.8-31.8a20.22 20.22 0 0 1 28.6 0l25.4 25.4a20.22 20.22 0 0 1 0 28.6z" opacity=".4"/><path d="m161.4 256.6-5.4 48.2a10.17 10.17 0 0 0 11.2 11.2l48.2-5.4 96.3-96.3-54-54zm204.7-125.3-25.4-25.4a20.22 20.22 0 0 0 -28.6 0l-31.8 31.8 54 54 31.8-31.8a20.22 20.22 0 0 0 0-28.6z"/></svg>