<svg viewBox="0 0 512 512"><path d="m448 0h-384a64.06 64.06 0 0 0 -64 64v288a64.06 64.06 0 0 0 64 64h96v84a12 12 0 0 0 19.1 9.7l124.9-93.7h144a64.06 64.06 0 0 0 64-64v-288a64.06 64.06 0 0 0 -64-64zm-320 240a32 32 0 1 1 32-32 32 32 0 0 1 -32 32zm128 0a32 32 0 1 1 32-32 32 32 0 0 1 -32 32zm128 0a32 32 0 1 1 32-32 32 32 0 0 1 -32 32z" opacity=".4"/><path d="m384 176a32 32 0 1 0 32 32 32 32 0 0 0 -32-32zm-128 0a32 32 0 1 0 32 32 32 32 0 0 0 -32-32zm-128 0a32 32 0 1 0 32 32 32 32 0 0 0 -32-32z"/></svg>