<svg viewBox="0 0 512 512"><path d="m256 32c-141.38 0-256 93.12-256 208 0 49.56 21.41 95 57 130.74-12.54 50.31-54.3 95.26-54.8 95.76a8 8 0 0 0 5.8 13.5c66.26 0 116-31.75 140.6-51.38a304.66 304.66 0 0 0 107.4 19.38c141.38 0 256-93.12 256-208s-114.62-208-256-208zm24 302.44v17.56a16 16 0 0 1 -16 16h-16a16 16 0 0 1 -16-16v-17.73a73 73 0 0 1 -31.78-11.46c-6.22-4.11-6.82-13.11-1.55-18.38l17.52-17.52c3.74-3.74 9.31-4.24 14.11-2a24.52 24.52 0 0 0 10.26 2.22h32.78a8.43 8.43 0 0 0 2.32-16.53l-50.07-14.3c-22.25-6.35-40-24.71-42.91-47.67a56.27 56.27 0 0 1 49.32-63v-17.63a16 16 0 0 1 16-16h16a16 16 0 0 1 16 16v17.73a73 73 0 0 1 31.78 11.46c6.22 4.11 6.82 13.11 1.55 18.38l-17.52 17.52c-3.74 3.74-9.31 4.24-14.11 2a24.54 24.54 0 0 0 -10.26-2.22h-32.78a8.43 8.43 0 0 0 -2.32 16.53l50.07 14.3c22.25 6.36 40 24.71 42.91 47.67a56.27 56.27 0 0 1 -49.32 63.07z" opacity=".4"/><path d="m280 334.44v17.56a16 16 0 0 1 -16 16h-16a16 16 0 0 1 -16-16v-17.73a73 73 0 0 1 -31.78-11.46c-6.22-4.11-6.82-13.11-1.55-18.38l17.52-17.52c3.74-3.74 9.31-4.24 14.11-2a24.52 24.52 0 0 0 10.26 2.22h32.78a8.43 8.43 0 0 0 2.32-16.53l-50.07-14.3c-22.25-6.35-40-24.71-42.91-47.67a56.27 56.27 0 0 1 49.32-63v-17.63a16 16 0 0 1 16-16h16a16 16 0 0 1 16 16v17.73a73 73 0 0 1 31.78 11.46c6.22 4.11 6.82 13.11 1.55 18.38l-17.52 17.52c-3.74 3.74-9.31 4.24-14.11 2a24.54 24.54 0 0 0 -10.26-2.22h-32.78a8.43 8.43 0 0 0 -2.32 16.53l50.07 14.3c22.25 6.36 40 24.71 42.91 47.67a56.27 56.27 0 0 1 -49.32 63.07z"/></svg>