<svg viewBox="0 0 512 512"><path d="m448 0h-384a64.06 64.06 0 0 0 -64 64v288a64.06 64.06 0 0 0 64 64h96v84a12 12 0 0 0 19.1 9.7l124.9-93.7h144a64.06 64.06 0 0 0 64-64v-288a64.06 64.06 0 0 0 -64-64zm-160 264a8 8 0 0 1 -8 8h-144a8 8 0 0 1 -8-8v-16a8 8 0 0 1 8-8h144a8 8 0 0 1 8 8zm96-96a8 8 0 0 1 -8 8h-240a8 8 0 0 1 -8-8v-16a8 8 0 0 1 8-8h240a8 8 0 0 1 8 8z" opacity=".4"/><path d="m280 240h-144a8 8 0 0 0 -8 8v16a8 8 0 0 0 8 8h144a8 8 0 0 0 8-8v-16a8 8 0 0 0 -8-8zm96-96h-240a8 8 0 0 0 -8 8v16a8 8 0 0 0 8 8h240a8 8 0 0 0 8-8v-16a8 8 0 0 0 -8-8z"/></svg>