<svg viewBox="0 0 512 512"><path d="m256 32c-141.4 0-256 93.1-256 208 0 49.6 21.4 95 57 130.7-12.5 50.4-54.3 95.3-54.8 95.8a8 8 0 0 0 -1.5 8.7 7.83 7.83 0 0 0 7.3 4.8c66.3 0 116-31.8 140.6-51.4a305 305 0 0 0 107.4 19.4c141.4 0 256-93.1 256-208s-114.6-208-256-208zm64 133.2a26.8 26.8 0 1 1 -26.8 26.8 26.8 26.8 0 0 1 26.8-26.8zm-128 0a26.8 26.8 0 1 1 -26.8 26.8 26.8 26.8 0 0 1 26.8-26.8zm164.2 140.9a132.32 132.32 0 0 1 -200.4 0 16 16 0 1 1 24.3-20.7 100.23 100.23 0 0 0 151.6-.1 16.07 16.07 0 0 1 24.5 20.8z" opacity=".4"/><path d="m320 218.8a26.8 26.8 0 1 0 -26.8-26.8 26.8 26.8 0 0 0 26.8 26.8zm-128 0a26.8 26.8 0 1 0 -26.8-26.8 26.8 26.8 0 0 0 26.8 26.8zm162.3 64.7a16.11 16.11 0 0 0 -22.6 1.8 100.23 100.23 0 0 1 -151.6.1 16 16 0 1 0 -24.3 20.7 132.32 132.32 0 0 0 200.4 0 16 16 0 0 0 -1.9-22.6z"/></svg>