<svg viewBox="0 0 512 512"><path d="m448 0h-384a64.06 64.06 0 0 0 -64 64v288a64.06 64.06 0 0 0 64 64h96v84a12 12 0 0 0 19.1 9.7l124.9-93.7h144a64.06 64.06 0 0 0 64-64v-288a64.06 64.06 0 0 0 -64-64zm-107.1 281.5-11.3 11.3a16.06 16.06 0 0 1 -22.6 0l-51-50.9-50.9 50.9a16.06 16.06 0 0 1 -22.6 0l-11.3-11.3a16.06 16.06 0 0 1 0-22.6l50.9-50.9-50.9-50.9a16.06 16.06 0 0 1 0-22.6l11.3-11.3a16.06 16.06 0 0 1 22.6 0l50.9 50.9 50.9-50.9a16.06 16.06 0 0 1 22.6 0l11.3 11.3a16.06 16.06 0 0 1 0 22.6l-50.9 50.9 51 50.9a16.06 16.06 0 0 1 0 22.6z" opacity=".4"/><path d="m340.9 281.5-11.3 11.3a16.06 16.06 0 0 1 -22.6 0l-51-50.9-50.9 50.9a16.06 16.06 0 0 1 -22.6 0l-11.3-11.3a16.06 16.06 0 0 1 0-22.6l50.9-50.9-50.9-50.9a16.06 16.06 0 0 1 0-22.6l11.3-11.3a16.06 16.06 0 0 1 22.6 0l50.9 50.9 50.9-50.9a16.06 16.06 0 0 1 22.6 0l11.3 11.3a16.06 16.06 0 0 1 0 22.6l-50.9 50.9 51 50.9a16.06 16.06 0 0 1 0 22.6z"/></svg>