<svg viewBox="0 0 512 512"><path d="m448 0h-384a64.06 64.06 0 0 0 -64 64v288a64.06 64.06 0 0 0 64 64h96v84a12 12 0 0 0 19.1 9.7l124.9-93.7h144a64.06 64.06 0 0 0 64-64v-288a64.06 64.06 0 0 0 -64-64zm-77.9 163.8-131 130a11 11 0 0 1 -15.6-.1l-75.7-76.3a11 11 0 0 1 .1-15.6l26-25.8a11 11 0 0 1 15.6.1l42.1 42.5 97.2-96.4a11 11 0 0 1 15.6.1l25.8 26a11 11 0 0 1 -.1 15.5z" opacity=".4"/><path d="m370.1 163.8-131 130a11 11 0 0 1 -15.6-.1l-75.7-76.3a11 11 0 0 1 .1-15.6l26-25.8a11 11 0 0 1 15.6.1l42.1 42.5 97.2-96.4a11 11 0 0 1 15.6.1l25.8 26a11 11 0 0 1 -.1 15.5z"/></svg>