<svg viewBox="0 0 512 512"><path d="m256 32c-141.4 0-256 93.1-256 208 0 49.6 21.4 95 57 130.7-12.5 50.4-54.3 95.3-54.8 95.8a8 8 0 0 0 -1.5 8.7 7.83 7.83 0 0 0 7.3 4.8c66.3 0 116-31.8 140.6-51.4a305 305 0 0 0 107.4 19.4c141.4 0 256-93.1 256-208s-114.6-208-256-208zm0 336a32 32 0 1 1 32-32 32 32 0 0 1 -32 32zm38.2-238.4-12.8 128a16 16 0 0 1 -15.9 14.4h-19a16 16 0 0 1 -15.9-14.4l-12.8-128a16.06 16.06 0 0 1 15.9-17.6h44.6a16 16 0 0 1 15.9 17.6z" opacity=".4"/><path d="m256 304a32 32 0 1 0 32 32 32 32 0 0 0 -32-32zm22.3-192h-44.6a16.06 16.06 0 0 0 -15.9 17.6l12.8 128a16 16 0 0 0 15.9 14.4h19a16 16 0 0 0 15.9-14.4l12.8-128a16 16 0 0 0 -15.9-17.6z"/></svg>