<svg viewBox="0 0 496 512"><path d="m248 8c-137 0-248 111-248 248s111 248 248 248 248-111 248-248-111-248-248-248zm126.14 148.05-66 144.35a31.94 31.94 0 0 1 -15.77 15.77l-144.37 66c-16.65 7.61-33.81-9.55-26.2-26.2l66-144.35a31.94 31.94 0 0 1 15.77-15.77l144.34-66c16.66-7.6 33.81 9.55 26.2 26.2z" opacity=".4"/><path d="m348 129.85-144.34 66a31.94 31.94 0 0 0 -15.77 15.77l-66 144.38c-7.61 16.65 9.55 33.81 26.2 26.2l144.34-66a32 32 0 0 0 15.77-15.8l66-144.35c7.55-16.65-9.6-33.8-26.2-26.2zm-77.37 148.77a32 32 0 1 1 0-45.25 32 32 0 0 1 0 45.25z"/></svg>