<svg viewBox="0 0 640 512"><path d="m145 80.3a247.18 247.18 0 0 1 175-72.3c137 0 248 111 248 248a246.76 246.76 0 0 1 -33.83 125.08l-141-109 53-116c7.61-16.65-9.54-33.8-26.19-26.2l-132.52 60.52zm75 301.84c-16.65 7.61-33.81-9.55-26.2-26.2l25.7-56.24-139-107.41a247.45 247.45 0 0 0 -8.5 63.71c0 137 111 248 248 248a246.64 246.64 0 0 0 122.1-32.29l-155.33-120.06z" opacity=".4"/><path d="m636.64 480.55-19.64 25.27a16 16 0 0 1 -22.46 2.81l-588.36-454.73a16 16 0 0 1 -2.81-22.45l19.63-25.27a16 16 0 0 1 22.47-2.81l588.35 454.73a16 16 0 0 1 2.82 22.45z"/></svg>