<svg viewBox="0 0 512 512"><path d="m507.25 30.05-25.4-25.4a16.06 16.06 0 0 0 -22.6 0l-99.25 99.35-31.1-33c-15.1-15.1-40.9-4.4-40.9 17v112a23.94 23.94 0 0 0 24 24h112c21.4 0 32.1-25.9 17-41l-33-31 99.3-99.3a16.06 16.06 0 0 0 -.05-22.65zm-307.25 257.95h-112c-21.4 0-32.1 25.8-17 41l32.9 31-99.2 99.3a16.06 16.06 0 0 0 0 22.6l25.4 25.4a16.06 16.06 0 0 0 22.6 0l99.3-99.3 31.1 33c15.1 15.1 40.9 4.4 40.9-17v-112a23.94 23.94 0 0 0 -24-24z" opacity=".4"/><path d="m183 71.05-31 32.95-99.35-99.35a16.06 16.06 0 0 0 -22.6 0l-25.4 25.4a16.06 16.06 0 0 0 0 22.6l99.35 99.35-33 31.1c-15.1 15.1-4.4 40.9 17 40.9h112a23.94 23.94 0 0 0 24-24v-112c0-21.35-25.95-32-41-16.95zm324.3 388.3-99.3-99.35 33-31.1c15.1-15.1 4.4-40.9-17-40.9h-112a23.94 23.94 0 0 0 -24 24v112c0 21.4 25.9 32.1 41 17l31-32.9 99.3 99.3a16.06 16.06 0 0 0 22.6 0l25.4-25.4a16.06 16.06 0 0 0 -.05-22.65z"/></svg>