<svg viewBox="0 0 448 512"><path d="m32 496a16 16 0 0 0 16 16h352a16 16 0 0 0 16-16v-48h-384zm384-496h-384a32 32 0 0 0 -32 32v368a16 16 0 0 0 16 16h416a16 16 0 0 0 16-16v-368a32 32 0 0 0 -32-32zm-336 356a20 20 0 1 1 20-20 20 20 0 0 1 -20 20zm304-12a8 8 0 0 1 -8 8h-144a8 8 0 0 1 -8-8v-16a8 8 0 0 1 8-8h144a8 8 0 0 1 8 8zm0-120a32 32 0 0 1 -32 32h-256a32 32 0 0 1 -32-32v-128a32 32 0 0 1 32-32h256a32 32 0 0 1 32 32z" opacity=".4"/><path d="m384 224a32 32 0 0 1 -32 32h-256a32 32 0 0 1 -32-32v-128a32 32 0 0 1 32-32h256a32 32 0 0 1 32 32z"/></svg>