<svg viewBox="0 0 640 512"><path d="m64 320h224v-224h-224zm528-288h-224a48 48 0 0 0 -48 48v352a48 48 0 0 0 48 48h224a48 48 0 0 0 48-48v-352a48 48 0 0 0 -48-48zm-112 64a32 32 0 1 1 -32 32 32 32 0 0 1 32-32zm0 320a96 96 0 1 1 96-96 96 96 0 0 1 -96 96z" opacity=".4"/><path d="m288 416h-160a32 32 0 0 0 0 64h176.41a79.24 79.24 0 0 1 -16.41-48zm-288-336v256a48 48 0 0 0 48 48h240v-64h-224v-224h224v-16a79.24 79.24 0 0 1 16.41-48h-256.41a48 48 0 0 0 -48 48zm480 80a32 32 0 1 0 -32-32 32 32 0 0 0 32 32zm0 64a96 96 0 1 0 96 96 96 96 0 0 0 -96-96zm0 144a48 48 0 1 1 48-48 48 48 0 0 1 -48 48z"/></svg>