<svg viewBox="0 0 512 512"><path d="m500 160h-84v-84a12 12 0 0 0 -12-12h-40a12 12 0 0 0 -12 12v124a23.94 23.94 0 0 0 24 24h124a12 12 0 0 0 12-12v-40a12 12 0 0 0 -12-12zm-364 128h-124a12 12 0 0 0 -12 12v40a12 12 0 0 0 12 12h84v84a12 12 0 0 0 12 12h40a12 12 0 0 0 12-12v-124a23.94 23.94 0 0 0 -24-24z" opacity=".4"/><path d="m500 288h-124a23.94 23.94 0 0 0 -24 24v124a12 12 0 0 0 12 12h40a12 12 0 0 0 12-12v-84h84a12 12 0 0 0 12-12v-40a12 12 0 0 0 -12-12zm-352-224h-40a12 12 0 0 0 -12 12v84h-84a12 12 0 0 0 -12 12v40a12 12 0 0 0 12 12h124a23.94 23.94 0 0 0 24-24v-124a12 12 0 0 0 -12-12z"/></svg>