<svg viewBox="0 0 448 512"><path d="m436 128h-84v-84a12 12 0 0 0 -12-12h-40a12 12 0 0 0 -12 12v124a23.94 23.94 0 0 0 24 24h124a12 12 0 0 0 12-12v-40a12 12 0 0 0 -12-12zm-300 192h-124a12 12 0 0 0 -12 12v40a12 12 0 0 0 12 12h84v84a12 12 0 0 0 12 12h40a12 12 0 0 0 12-12v-124a23.94 23.94 0 0 0 -24-24z" opacity=".4"/><path d="m436 320h-124a23.94 23.94 0 0 0 -24 24v124a12 12 0 0 0 12 12h40a12 12 0 0 0 12-12v-84h84a12 12 0 0 0 12-12v-40a12 12 0 0 0 -12-12zm-288-288h-40a12 12 0 0 0 -12 12v84h-84a12 12 0 0 0 -12 12v40a12 12 0 0 0 12 12h124a23.94 23.94 0 0 0 24-24v-124a12 12 0 0 0 -12-12z"/></svg>