<svg viewBox="0 0 640 512"><path d="m634.66 460.17-285.16-444.25c-13.62-21.23-45.38-21.23-59 0l-285.16 444.25c-14.48 22.56 2.18 51.83 29.51 51.83h570.3c27.33 0 43.99-29.27 29.51-51.83zm-326.66-300.17a28 28 0 1 1 -28 28 28 28 0 0 1 28-28zm-4 272a16 16 0 0 1 -32 0v-32.77l-46.31-29.92-18.25 66.89a16 16 0 0 1 -15.44 11.8 15.64 15.64 0 0 1 -4.22-.56 16 16 0 0 1 -11.24-19.64l29.75-109.11 83.07 53.67a31.92 31.92 0 0 1 14.64 26.87zm48 16 12-29.94a16 16 0 0 1 14.83-10.06h35.64l-94.8-58.34s-.08 0-.11-.07l-103.95-64a16 16 0 0 1 -4.41-23.22l11.61-15.49a47.88 47.88 0 0 1 48.83-18l24.58 7.28c17.45 3.82 31.84 18.53 35.56 37.14l10.55 52.7 87.67 54 21.16-42.44a16 16 0 0 1 27.78-1.5l71.86 111.94z" opacity=".4"/><path d="m308 216a28 28 0 1 0 -28-28 28 28 0 0 0 28 28zm-18.62 156.36-83.07-53.67-29.75 109.11a16 16 0 0 0 11.24 19.64 15.64 15.64 0 0 0 4.2.56 16 16 0 0 0 15.42-11.8l18.25-66.89 46.33 29.92v32.77a16 16 0 0 0 32 0v-32.77a31.92 31.92 0 0 0 -14.62-26.87zm74.6 45.7-11.98 29.94h198.8l-71.88-112a16 16 0 0 0 -27.78 1.5l-21.14 42.5-87.67-54-10.55-52.7c-3.72-18.61-18.11-33.32-35.56-37.14l-24.58-7.28a47.88 47.88 0 0 0 -48.83 18l-11.61 15.53a16 16 0 0 0 4.41 23.22l104 64 .11.07 94.75 58.3h-35.64a16 16 0 0 0 -14.83 10.06z"/></svg>