<svg viewBox="0 0 512 512"><path d="m510.37 254.78-12.08-76.26a132.53 132.53 0 0 0 -37.16-73l-54.76-54.7a132 132 0 0 0 -72.7-37l-76.67-12.2a131.88 131.88 0 0 0 -80.52 12.76l-69.14 35.21a132.35 132.35 0 0 0 -57.79 57.8l-35.1 68.88a132.63 132.63 0 0 0 -12.82 80.94l12.08 76.28a132.56 132.56 0 0 0 37.16 72.95l54.76 54.75a132.12 132.12 0 0 0 72.7 37.05l76.67 12.14a132 132 0 0 0 80.52-12.75l69.11-35.21a132.35 132.35 0 0 0 57.79-57.8l35.1-68.87a132.72 132.72 0 0 0 12.85-80.97zm-334.37 113.22a32 32 0 1 1 32-32 32 32 0 0 1 -32 32zm32-160a32 32 0 1 1 32-32 32 32 0 0 1 -32 32zm160 128a32 32 0 1 1 32-32 32 32 0 0 1 -32 32z" opacity=".4"/><path d="m368 272a32 32 0 1 0 32 32 32 32 0 0 0 -32-32zm-160-128a32 32 0 1 0 32 32 32 32 0 0 0 -32-32zm-32 160a32 32 0 1 0 32 32 32 32 0 0 0 -32-32z"/></svg>