<svg viewBox="0 0 640 512"><path d="m97.37 114.78a40.06 40.06 0 0 0 -25.37 37.22v104a64 64 0 0 1 -64 64h-8v-32a63.61 63.61 0 0 1 24-49.59v-86.41a88.1 88.1 0 0 1 88-88h48a64 64 0 0 0 -62.63 50.78zm236.36 186.33a79.83 79.83 0 0 0 -61.73-29.11c-49.29 0-78.11 40.73-79.9 75.89-.06 1.36-.1 2.73-.1 4.11a109 109 0 0 0 32 21.87v25.68c0 8.62 6.63 16 15.23 16.43a16 16 0 0 0 16.77-15.98v-17.31c9.1 1.12 12.81 2.36 32 0v16.87c0 8.62 6.63 16 15.23 16.43a16 16 0 0 0 16.77-15.99v-26.18a108.92 108.92 0 0 0 32-21.82 79.7 79.7 0 0 0 -18.27-50.89z" opacity=".4"/><path d="m634 276.72-10-13.81v-77a16 16 0 0 0 -23-14.39c-10.89 5.41-19.6 13.62-26.47 23.09l-65.82-90.9a96 96 0 0 0 -77.71-39.71h-271a64 64 0 0 0 -64 64v304a16 16 0 0 0 16 16h64a16 16 0 0 0 16-16v-80a80 80 0 0 1 160 0v80.79a16 16 0 0 0 16 15.21h64a16 16 0 0 0 16-16v-176l32 32v41.48a64 64 0 0 0 10.71 35.52l41.29 62a47.24 47.24 0 0 0 85.66-17l21.73-108.6a31.56 31.56 0 0 0 -5.39-24.68zm-256.77-109.36-22.89 22.76a116.65 116.65 0 0 1 -82.26 33.88h-.16a116.66 116.66 0 0 1 -82.26-33.88l-22.89-22.76c-15.72-15.63-2.3-39.36 22.23-39.36h166c24.53 0 38 23.73 22.23 39.36zm198.77 184.64a16 16 0 1 1 16-16 16 16 0 0 1 -16 16z"/></svg>