<svg viewBox="0 0 640 512"><path d="m480 192a160 160 0 1 0 160 160 160 160 0 0 0 -160-160zm80 168a8 8 0 0 1 -8 8h-56v56a8 8 0 0 1 -8 8h-16a8 8 0 0 1 -8-8v-56h-56a8 8 0 0 1 -8-8v-16a8 8 0 0 1 8-8h56v-56a8 8 0 0 1 8-8h16a8 8 0 0 1 8 8v56h56a8 8 0 0 1 8 8zm-223.19-264v-48a48.05 48.05 0 0 0 -48-48h-128a48.05 48.05 0 0 0 -48 48v48h64v-32h96v32z" opacity=".4"/><path d="m552 336h-56v-56a8 8 0 0 0 -8-8h-16a8 8 0 0 0 -8 8v56h-56a8 8 0 0 0 -8 8v16a8 8 0 0 0 8 8h56v56a8 8 0 0 0 8 8h16a8 8 0 0 0 8-8v-56h56a8 8 0 0 0 8-8v-16a8 8 0 0 0 -8-8zm-157.3-155.76-10.41-57.89a32.06 32.06 0 0 0 -31.56-26.35h-257.35a32 32 0 0 0 -31.56 26.35l-63.31 352a32 32 0 0 0 31.56 37.65h342c-51.93-34.42-86.27-93.26-86.27-160-.02-75.21 43.64-140.27 106.9-171.76z"/></svg>