<svg viewBox="0 0 576 512"><path d="m268 256h-64a12 12 0 0 0 -12 12v40a12 12 0 0 0 12 12h64a12 12 0 0 0 12-12v-40a12 12 0 0 0 -12-12zm-104 0h-88a12 12 0 0 0 -12 12v40a12 12 0 0 0 12 12h88a12 12 0 0 0 12-12v-40a12 12 0 0 0 -12-12zm208 0h-64a12 12 0 0 0 -12 12v40a12 12 0 0 0 12 12h64a12 12 0 0 0 12-12v-40a12 12 0 0 0 -12-12zm128 0h-88a12 12 0 0 0 -12 12v40a12 12 0 0 0 12 12h88a12 12 0 0 0 12-12v-40a12 12 0 0 0 -12-12z" opacity=".4"/><path d="m528 32h-480a48 48 0 0 0 -48 48v352a48 48 0 0 0 48 48h480a48 48 0 0 0 48-48v-352a48 48 0 0 0 -48-48zm-336 236a12 12 0 0 1 12-12h64a12 12 0 0 1 12 12v40a12 12 0 0 1 -12 12h-64a12 12 0 0 1 -12-12zm-32 136a12 12 0 0 1 -12 12h-72a12 12 0 0 1 -12-12v-8a12 12 0 0 1 12-12h72a12 12 0 0 1 12 12zm16-96a12 12 0 0 1 -12 12h-88a12 12 0 0 1 -12-12v-40a12 12 0 0 1 12-12h88a12 12 0 0 1 12 12zm176 96a12 12 0 0 1 -12 12h-136a12 12 0 0 1 -12-12v-8a12 12 0 0 1 12-12h136a12 12 0 0 1 12 12zm32-96a12 12 0 0 1 -12 12h-64a12 12 0 0 1 -12-12v-40a12 12 0 0 1 12-12h64a12 12 0 0 1 12 12zm128 0a12 12 0 0 1 -12 12h-88a12 12 0 0 1 -12-12v-40a12 12 0 0 1 12-12h88a12 12 0 0 1 12 12zm0-140a23.94 23.94 0 0 1 -24 24h-80a23.94 23.94 0 0 1 -24-24v-48a23.94 23.94 0 0 1 24-24h80a23.94 23.94 0 0 1 24 24z"/></svg>