<svg viewBox="0 0 576 512"><path d="m340 352h-136a12 12 0 0 0 -12 12v40a12 12 0 0 0 12 12h136a12 12 0 0 0 12-12v-40a12 12 0 0 0 -12-12zm-192 0h-72a12 12 0 0 0 -12 12v40a12 12 0 0 0 12 12h72a12 12 0 0 0 12-12v-40a12 12 0 0 0 -12-12z" opacity=".4"/><path d="m528 32h-480a48 48 0 0 0 -48 48v352a48 48 0 0 0 48 48h480a48 48 0 0 0 48-48v-352a48 48 0 0 0 -48-48zm-368 372a12 12 0 0 1 -12 12h-72a12 12 0 0 1 -12-12v-40a12 12 0 0 1 12-12h72a12 12 0 0 1 12 12zm192 0a12 12 0 0 1 -12 12h-136a12 12 0 0 1 -12-12v-40a12 12 0 0 1 12-12h136a12 12 0 0 1 12 12z"/></svg>