<svg viewBox="0 0 512 512"><path d="m13.15 265.48a62.71 62.71 0 0 1 -8.55-3.57 215.11 215.11 0 0 0 39.6 173.5 32 32 0 0 0 21.38 12.33 32.43 32.43 0 0 0 4.06.26 32 32 0 0 0 19.76-6.83l122.32-96c5.1-4 8.11-9.58 10.05-15.6-.21-.06-.42 0-.62-.09zm434.56-199.85a32 32 0 0 0 -12.33-21.43 214.91 214.91 0 0 0 -174.21-39.72c1.41 2.93 3.3 5.52 4.28 8.7l64 208c.06.2 0 .41.09.62 6-1.93 11.62-5 15.61-10l96-122.32a32.06 32.06 0 0 0 6.56-23.85z" opacity=".4"/><path d="m509.89 180.66a215.77 215.77 0 0 0 -44.19-70.66l-77.79 99.1 86.8 14.47a32 32 0 0 0 35.18-42.91zm-275-158.07a32 32 0 0 0 -38.37-21.59 268.34 268.34 0 0 0 -195.52 195.55 32 32 0 0 0 21.56 38.35l208 64a32 32 0 0 0 32-8l28.32-28.31a32 32 0 0 0 8-32zm-25.8 365.35-99.09 77.79a215.37 215.37 0 0 0 70.67 44.19 32 32 0 0 0 42.91-35.18z"/></svg>