<svg viewBox="0 0 512 512"><path d="m512 376v48a24 24 0 0 1 -24 24h-40v-96h40a24 24 0 0 1 24 24zm-96-312a32 32 0 0 1 32 32v13.25l59.31-59.31a16 16 0 0 0 0-22.63l-22.62-22.62a16 16 0 0 0 -22.63 0l-59.31 59.31zm-64 141.25v-45.25h-45.25l-146.75 146.75v-282.75a24 24 0 0 0 -24-24h-48a24 24 0 0 0 -24 24v392a32 32 0 0 0 32 32h224v-96h-114.75z" opacity=".4"/><path d="m416 64h-224v96h160v328a24 24 0 0 0 24 24h48a24 24 0 0 0 24-24v-392a32 32 0 0 0 -32-32zm-416 24v48a24 24 0 0 0 24 24h40v-96h-40a24 24 0 0 0 -24 24z"/></svg>