<svg viewBox="0 0 512 512"><path d="m256 40c-119.29 0-216 96.71-216 216s96.71 216 216 216 216-96.71 216-216-96.71-216-216-216zm107.48 323.48a152 152 0 1 1 44.52-107.48 151 151 0 0 1 -44.52 107.48z" opacity=".4"/><path d="m256 224a32 32 0 1 0 32 32 32 32 0 0 0 -32-32zm16 128h-32a16 16 0 0 0 -16 16v128a16 16 0 0 0 16 16h32a16 16 0 0 0 16-16v-128a16 16 0 0 0 -16-16zm-128-128h-128a16 16 0 0 0 -16 16v32a16 16 0 0 0 16 16h128a16 16 0 0 0 16-16v-32a16 16 0 0 0 -16-16zm352 0h-128a16 16 0 0 0 -16 16v32a16 16 0 0 0 16 16h128a16 16 0 0 0 16-16v-32a16 16 0 0 0 -16-16zm-224-224h-32a16 16 0 0 0 -16 16v128a16 16 0 0 0 16 16h32a16 16 0 0 0 16-16v-128a16 16 0 0 0 -16-16z"/></svg>