<svg viewBox="0 0 640 512"><path d="m447.27 487.67a12 12 0 0 1 -7.17 15.38l-22.55 8.21a12 12 0 0 1 -15.38-7.17l-44.65-120.17a192 192 0 0 0 48.73-7.7zm-134.4-103.67h-51.87l45.22 120.1a12 12 0 0 0 15.38 7.17l22.55-8.21a12 12 0 0 0 7.17-15.38zm327.13-288c0-35.35-43-64-96-64h-16a79.67 79.67 0 0 1 16 48v32z" opacity=".4"/><path d="m464 0a80 80 0 0 0 -80 80v21l-371.91 292.57a30.22 30.22 0 0 0 31.64 51.2l121.54-60.77h186.73c106 0 192-86 192-192v-112a80 80 0 0 0 -80-80zm0 104a24 24 0 1 1 24-24 24 24 0 0 1 -24 24z"/></svg>