<svg viewBox="0 0 640 512"><path d="m635.28 185.7-181-181a16 16 0 0 0 -22.62 0l-22.66 22.6a16 16 0 0 0 0 22.63l181 181a16 16 0 0 0 22.63 0l22.62-22.63a16 16 0 0 0 .03-22.6zm-128 276.36-66.28-66.31a128 128 0 0 1 -33.67 13l-35.62 8.25 90.29 90.31a16 16 0 0 0 22.63 0l22.62-22.63a16 16 0 0 0 0-22.62zm-276.28-412.13a16 16 0 0 0 0-22.62l-22.7-22.63a16 16 0 0 0 -22.62 0l-181 181a16 16 0 0 0 0 22.62l22.6 22.7a16 16 0 0 0 22.63 0l11.32-11.31 132.29 132.24c.68.68 1.57 1.06 2.27 1.71l9.69-9.69 13.22-57.32-112.22-112.24 67.89-67.89 78.75 78.75a128.23 128.23 0 0 1 12.29-14.34l31.93-31.91-77.72-77.75z" opacity=".4"/><path d="m510.84 197-55.1 55.12-67.89-67.89 55.1-55.1-45.25-45.26-109.7 109.67a96.13 96.13 0 0 0 -25.67 46.29l-27.71 120.26-102 102a16 16 0 0 0 0 22.63l22.62 22.62a16 16 0 0 0 22.63 0l102-102 120.25-27.75a95.85 95.85 0 0 0 46.29-25.65l109.68-109.68zm-109.67 109.68a31.94 31.94 0 0 1 -15.45 8.54l-79.3 18.32 18.3-79.3a32.31 32.31 0 0 1 8.56-15.45l9.31-9.31 67.89 67.89z"/></svg>