<svg viewBox="0 0 512 512"><path d="m488.6 250.2-96.6-36.2v-108.48a36 36 0 0 0 -23.4-33.7l-100-37.5a35.68 35.68 0 0 0 -25.3 0l-100 37.5a36 36 0 0 0 -23.4 33.7v108.48l-96.6 36.2a36 36 0 0 0 -23.3 33.7v110.1a36 36 0 0 0 19.9 32.2l100 50a35.86 35.86 0 0 0 32.2 0l103.9-52 103.9 52a35.86 35.86 0 0 0 32.2 0l100-50a36 36 0 0 0 19.9-32.2v-110.1a36 36 0 0 0 -23.4-33.7zm-250.6 144.98-85 42.5v-79.09l85-38.8zm0-112-102 41.41-102-41.39v-.6l102-38.2 102 38.2zm-84-178.46v-.6l102-38.2 102 38.2v.6l-102 41.39zm119 73.79 85-37v73.29l-85 31.9zm205 216.67-85 42.5v-79.09l85-38.8zm0-112-102 41.41-102-41.39v-.6l102-38.2 102 38.2z" opacity=".4"/><path d="m153 437.68 85-42.5v-75.39l-85 38.8zm240-79.09v79.09l85-42.5v-75.39zm-120-111.89 85-31.9v-73.29l-85 37z"/></svg>