<svg viewBox="0 0 512 512"><path d="m223.9 55.8v-47.8a8 8 0 0 1 8-8h16a8 8 0 0 1 8 8v47.8a16 16 0 0 0 11.7 15.4l16.1 4.5 16.8-20.9a16 16 0 0 0 3.5-10v-36.8a8 8 0 0 1 8-8h16a8 8 0 0 1 8 8v36.8a48.05 48.05 0 0 1 -10.5 30l-8.3 10.3 33.8 9.5 42.6-21.3a47 47 0 0 0 18.5-16.3l18-27.2a7.94 7.94 0 0 1 11.1-2.2l13.3 8.9a7.94 7.94 0 0 1 2.2 11.1l-18.1 27.2a80.24 80.24 0 0 1 -30.7 27.1l-12 5.59-19.19-5.33a32 32 0 0 0 -37.35 16.84l-2.36 4.82-78.1-21.82a48 48 0 0 1 -35-46.2z" opacity=".4"/><path d="m488.7 133.3-112-31.14a32 32 0 0 0 -37.34 16.84l-35.36 73h-240a64 64 0 0 0 -64 64v64l32-20v47.6l-11.9 31.8a64.08 64.08 0 0 0 -2.2 38l24.9 82.5a16 16 0 0 0 15.5 12.1h63.8a16 16 0 0 0 15.5-19.9l-26.3-88.4 19.4-51.7h157.3v144a16 16 0 0 0 16 16h64a16 16 0 0 0 16-16v-208l32-64h64a32 32 0 0 0 32-32v-27.9a32.13 32.13 0 0 0 -23.3-30.8zm-72.7 42.7a16 16 0 1 1 16-16 16 16 0 0 1 -16 16z"/></svg>