<svg viewBox="0 0 640 512"><path d="m544 352v144a16 16 0 0 1 -16 16h-64a16 16 0 0 1 -16-16v-80h-160v80a16 16 0 0 1 -16 16h-64a16 16 0 0 1 -16-16v-144z" opacity=".4"/><path d="m637.29 256.86-19.6-29.4a151.18 151.18 0 0 0 -126.1-67.46h-235.59l-81.2-81.2a58.73 58.73 0 0 0 7.5-73.9 9.87 9.87 0 0 0 -15.2-1.5l-41.8 41.8-42.91-42.84a8.07 8.07 0 0 0 -12.39 1.2 48.08 48.08 0 0 0 6.09 60.44c3.3 3.3 7.3 5.3 11.3 7.5-2.2 1.7-4.7 3.1-6.4 5.4l-74.6 99.3a32 32 0 0 0 -3 33.5l14.3 28.6a32.05 32.05 0 0 0 28.6 17.7h31a31.94 31.94 0 0 0 22.6-9.4l38.11-34.6 54 108h352v-77.8c16.2 12.2 18.3 17.6 40.1 50.3a16 16 0 0 0 22.2 4.4l26.6-17.7a16.18 16.18 0 0 0 4.39-22.34zm-341.1-13.6-16.5 16.1 3.9 22.7a5 5 0 0 1 -7.2 5.3l-20.39-10.7-20.4 10.7a5 5 0 0 1 -7.2-5.3l3.9-22.7-16.5-16.1a5 5 0 0 1 2.8-8.5l22.8-3.3 10.2-20.7a5 5 0 0 1 9 0l10.2 20.7 22.8 3.3a5 5 0 0 1 2.59 8.5zm112 0-16.5 16.1 3.9 22.7a5 5 0 0 1 -7.2 5.3l-20.39-10.7-20.4 10.7a5 5 0 0 1 -7.2-5.3l3.9-22.7-16.5-16.1a5 5 0 0 1 2.8-8.5l22.8-3.3 10.2-20.7a5 5 0 0 1 9 0l10.2 20.7 22.8 3.3a5 5 0 0 1 2.59 8.5zm112 0-16.5 16.1 3.9 22.7a5 5 0 0 1 -7.2 5.3l-20.39-10.7-20.4 10.7a5 5 0 0 1 -7.2-5.3l3.9-22.7-16.5-16.1a5 5 0 0 1 2.8-8.5l22.8-3.3 10.2-20.7a5 5 0 0 1 9 0l10.2 20.7 22.8 3.3a5 5 0 0 1 2.59 8.5z"/></svg>