<svg viewBox="0 0 640 512"><path d="m320 176a88 88 0 1 0 -88-88 88.13 88.13 0 0 0 88 88zm268 116.3c-11.9-7.1-29.7-17-51.1-27.4-28.1 46.1-99.4 17.8-87.7-35.1-39.9-12.6-84.1-21.8-129.2-21.8-57 0-112.9 14.5-160 32.2-.2 40.2-47.6 63.3-79.2 36-11.2 6-21.3 11.6-28.7 16-17.6 10.5-18.8 31.8-10 45.1l17.7 26.7a31.88 31.88 0 0 0 42.9 9.8 599.33 599.33 0 0 1 105.3-48.6v90.8h224v-90.7a591.93 591.93 0 0 1 105.3 48.6 32.08 32.08 0 0 0 42.9-9.8l17.8-26.7c8.8-13.2 7.6-34.6-10-45.1zm-316 3.7a24 24 0 1 1 24-24 23.94 23.94 0 0 1 -24 24zm96 64a24 24 0 1 1 24-24 23.94 23.94 0 0 1 -24 24z" opacity=".4"/><path d="m112 256a16 16 0 1 0 -16-16 16 16 0 0 0 16 16zm384 0a16 16 0 1 0 -16-16 16 16 0 0 0 16 16zm128 192h-608a16 16 0 0 0 -16 16v32a16 16 0 0 0 16 16h608a16 16 0 0 0 16-16v-32a16 16 0 0 0 -16-16z"/></svg>