<svg viewBox="0 0 448 512"><path d="m442.14 240.34-200-232a24 24 0 0 0 -36.36 0l-200 232a23.84 23.84 0 0 0 0 31.3l200 232a24 24 0 0 0 36.36 0l200-232a23.84 23.84 0 0 0 0-31.3zm-94.05 26-111.9 128.15a16.23 16.23 0 0 1 -24.38 0l-111.9-128.11a15.74 15.74 0 0 1 0-20.76l111.9-128.11a16.23 16.23 0 0 1 24.38 0l111.9 128.11a15.74 15.74 0 0 1 0 20.76z" opacity=".4"/><path d="m348.09 245.62a15.74 15.74 0 0 1 0 20.76l-111.9 128.11a16.23 16.23 0 0 1 -24.38 0l-111.9-128.11a15.74 15.74 0 0 1 0-20.76l111.9-128.11a16.23 16.23 0 0 1 24.38 0z"/></svg>