<svg viewBox="0 0 512 512"><path d="m509 240.86-191.81-233.86c-6-7.37-17.39-.66-14.46 8.55l67.79 212.45 130.38 27.29c7.89 1.71 13.32-8.04 8.1-14.43zm-314.2-233.86-191.8 233.86c-5.24 6.39.2 16.08 8.08 14.42l130.39-27.28 67.78-212.5c2.95-9.17-8.4-15.89-14.45-8.5zm53.2-1-73.4 230.12 81.4 56.74 81.43-56.71-73.43-230.15a8.36 8.36 0 0 0 -16 0z" opacity=".4"/><path d="m505.19 292.27-144.06-30.11-88.2 61.44v179.54c0 7.59 8.55 11.65 14 6.66l222.15-202.2c5.31-4.82 3-13.89-3.89-15.33zm-498.38 0c-6.89 1.44-9.2 10.51-3.9 15.33l222.14 202.19c5.48 5 14 .93 14-6.67v-179.52l-88.2-61.44z"/></svg>