<svg viewBox="0 0 512 512"><path d="m7.54 176.92 123.62 123.62 108.84-54.43v-106.87l-181-65.17zm445.46-102.85-181 65.17v106.87l108.84 54.42 123.62-123.62zm-119.49-67.31a63.87 63.87 0 0 0 -28.62-6.76h-97.79a63.91 63.91 0 0 0 -28.62 6.76l-88.76 44.38 166.28 59.86 166.28-59.86z" opacity=".4"/><path d="m256 273.89-108.59 54.29 58.82 183.82h99.53l58.82-183.82zm-256-59.27v90.27a63.87 63.87 0 0 0 6.76 28.62l47.7 95.4a63.92 63.92 0 0 0 28.62 28.62l85.92 42.94-55-171.91zm398.05 114-55.05 171.86 85.88-42.94a64 64 0 0 0 28.62-28.62l47.7-95.4a64.07 64.07 0 0 0 6.8-28.62v-90.27z"/></svg>