<svg viewBox="0 0 640 512"><path d="m433.63 189.3-174.93-174.93a49.07 49.07 0 0 0 -69.39 0l-174.94 174.93a49.07 49.07 0 0 0 0 69.39l174.93 174.94a49.07 49.07 0 0 0 69.39 0l174.94-174.93a49.08 49.08 0 0 0 0-69.4zm-337.63 58.7a24 24 0 1 1 24-24 24 24 0 0 1 -24 24zm128 128a24 24 0 1 1 24-24 24 24 0 0 1 -24 24zm0-128a24 24 0 1 1 24-24 24 24 0 0 1 -24 24zm0-128a24 24 0 1 1 24-24 24 24 0 0 1 -24 24zm128 128a24 24 0 1 1 24-24 24 24 0 0 1 -24 24z" opacity=".4"/><path d="m592 192h-118.74a81.07 81.07 0 0 1 -17 89.32l-136.26 136.26v46.42a48 48 0 0 0 48 48h224a48 48 0 0 0 48-48v-224a48 48 0 0 0 -48-48zm-112 184a24 24 0 1 1 24-24 24 24 0 0 1 -24 24zm-384-176a24 24 0 1 0 24 24 24 24 0 0 0 -24-24zm256 48a24 24 0 1 0 -24-24 24 24 0 0 0 24 24zm-128 80a24 24 0 1 0 24 24 24 24 0 0 0 -24-24zm0-256a24 24 0 1 0 24 24 24 24 0 0 0 -24-24zm0 128a24 24 0 1 0 24 24 24 24 0 0 0 -24-24z"/></svg>