<svg viewBox="0 0 448 512"><path d="m384 32h-320a64 64 0 0 0 -64 64v320a64 64 0 0 0 64 64h320a64 64 0 0 0 64-64v-320a64 64 0 0 0 -64-64zm-256 352a32 32 0 1 1 32-32 32 32 0 0 1 -32 32zm0-192a32 32 0 1 1 32-32 32 32 0 0 1 -32 32zm192 192a32 32 0 1 1 32-32 32 32 0 0 1 -32 32zm0-192a32 32 0 1 1 32-32 32 32 0 0 1 -32 32z" opacity=".4"/><path d="m128 320a32 32 0 1 0 32 32 32 32 0 0 0 -32-32zm0-192a32 32 0 1 0 32 32 32 32 0 0 0 -32-32zm192 192a32 32 0 1 0 32 32 32 32 0 0 0 -32-32zm0-128a32 32 0 1 0 -32-32 32 32 0 0 0 32 32z"/></svg>