<svg viewBox="0 0 480 512"><path d="m240 0a15.88 15.88 0 0 0 -13.63 7.62l-95.58 168.38h218.42l-95.58-168.38a15.88 15.88 0 0 0 -13.63-7.62zm-71.38 11.74-150.81 98.61a4 4 0 0 0 .13 6.78l81.53 48.69 79.93-142.94c4.34-7.06-3.59-15.25-10.78-11.14zm293.57 98.6-150.81-98.6c-7.19-4.11-15.12 4.08-10.78 11.14l79.93 142.94 81.53-48.7a4 4 0 0 0 .13-6.78z" opacity=".4"/><path d="m106.75 215.06-105.55 155.94a8 8 0 0 0 5.93 12.14l208.26 22.07zm-99.34 100.37 75.29-122.35-76.64-46a4 4 0 0 0 -6.06 3.45v162.81a4 4 0 0 0 7.41 2.09zm10.84 108.17 194.4 87.66a8 8 0 0 0 11.35-7.26v-65.67l-203.55-22.33a4 4 0 0 0 -2.2 7.6zm121.32-215.6 100.43 175.75 100.43-175.75zm340.43 105.34v-162.81a4 4 0 0 0 -6.06-3.43l-76.64 46 75.29 122.35a4 4 0 0 0 7.41-2.11zm-1.19 57.66-105.56-155.94-108.63 190.1 208.26-22.07a8 8 0 0 0 5.93-12.09zm-19.26 45-203.55 22.32v65.68a8 8 0 0 0 11.35 7.26l194.4-87.66a4 4 0 0 0 -2.2-7.6z"/></svg>