<svg viewBox="0 0 640 512"><path d="m296 336h-224a8 8 0 0 0 -8 8v8a8 8 0 0 0 8 8h224a8 8 0 0 0 8-8v-8a8 8 0 0 0 -8-8zm272 0h-224a8 8 0 0 0 -8 8v8a8 8 0 0 0 8 8h224a8 8 0 0 0 8-8v-8a8 8 0 0 0 -8-8zm-280-176h-208a16 16 0 0 0 -16 16v48a16 16 0 0 0 16 16h208a16 16 0 0 0 16-16v-48a16 16 0 0 0 -16-16z" opacity=".4"/><path d="m608 96h-576a32 32 0 0 0 -32 32v256a32 32 0 0 0 32 32h576a32 32 0 0 0 32-32v-256a32 32 0 0 0 -32-32zm-304 256a8 8 0 0 1 -8 8h-224a8 8 0 0 1 -8-8v-8a8 8 0 0 1 8-8h224a8 8 0 0 1 8 8zm-232-64v-16a8 8 0 0 1 8-8h16a8 8 0 0 1 8 8v16a8 8 0 0 1 -8 8h-16a8 8 0 0 1 -8-8zm64 0v-16a8 8 0 0 1 8-8h16a8 8 0 0 1 8 8v16a8 8 0 0 1 -8 8h-16a8 8 0 0 1 -8-8zm64 0v-16a8 8 0 0 1 8-8h16a8 8 0 0 1 8 8v16a8 8 0 0 1 -8 8h-16a8 8 0 0 1 -8-8zm64 0v-16a8 8 0 0 1 8-8h16a8 8 0 0 1 8 8v16a8 8 0 0 1 -8 8h-16a8 8 0 0 1 -8-8zm40-64a16 16 0 0 1 -16 16h-208a16 16 0 0 1 -16-16v-48a16 16 0 0 1 16-16h208a16 16 0 0 1 16 16zm272 128a8 8 0 0 1 -8 8h-224a8 8 0 0 1 -8-8v-8a8 8 0 0 1 8-8h224a8 8 0 0 1 8 8z"/></svg>