<svg viewBox="0 0 640 512"><path d="m608.64 63.56c-6.78-11.5-22-17.88-37-14.77l-127 42.78c-9.44 3.18-19 5.93-28.65 8.37v144.12l51.01 87.94 104.6 35.24c15 3.1 30.25-3.27 37-14.77 41.85-70.96 41.85-217.97.04-288.91zm-540.25-14.78c-15-3.1-30.25 3.27-37 14.77-41.81 70.94-41.81 218 0 288.89 6.78 11.5 22 17.88 37 14.77l104.61-35.21 51-87.91v-144.15c-9.64-2.45-19.21-5.19-28.65-8.37z" opacity=".4"/><path d="m384 112v140.67l95.16 164a11.13 11.13 0 0 1 -10.73 15.33h-36.64l-25.2 28.52a11.13 11.13 0 0 1 -18.39-3.45l-68.2-121.07-68.19 121.07a11.13 11.13 0 0 1 -18.39 3.45l-25.21-28.52h-36.64a11.13 11.13 0 0 1 -10.73-15.32l95.16-164v-140.68z"/></svg>