<svg viewBox="0 0 512 512"><path d="m502.61 233.32-223.93-223.93a32.08 32.08 0 0 0 -45.36 0l-223.93 223.93a32.08 32.08 0 0 0 0 45.36l223.93 223.92a32.06 32.06 0 0 0 45.35 0l223.94-223.92a32.08 32.08 0 0 0 0-45.36zm-101 12.56-84.21 77.73a8 8 0 0 1 -13.4-5.88v-53.73h-96v64a8 8 0 0 1 -8 8h-32a8 8 0 0 1 -8-8v-80a32 32 0 0 1 32-32h112v-53.73a8 8 0 0 1 13.43-5.88l84.21 77.73a8 8 0 0 1 .44 11.3c-.14.16-.29.31-.45.46z" opacity=".4"/><path d="m401.63 245.88-84.21 77.73a8 8 0 0 1 -13.42-5.88v-53.73h-96v64a8 8 0 0 1 -8 8h-32a8 8 0 0 1 -8-8v-80a32 32 0 0 1 32-32h112v-53.73a8 8 0 0 1 13.43-5.88l84.21 77.73a8 8 0 0 1 .44 11.3c-.14.16-.29.31-.45.46z"/></svg>