<svg viewBox="0 0 512 512"><path d="m472.27 196-67.06-23c-19.28-6.6-33.54-20.92-38.14-38.31l-16-60.45c-11.58-43.77-76.57-57.13-110-22.62l-46.07 47.67c-13.26 13.71-33.54 20.93-54.2 19.31l-71.92-5.6c-52-4.07-86.93 44.89-59 82.84l38.54 52.42c11.08 15.07 12.82 33.86 4.64 50.24l-28.43 57c-20.63 41.22 22.81 84.84 73.46 73.78l70-15.28c20.11-4.39 41.45 0 57.07 11.73l54.32 40.83c39.32 29.56 101 7.57 104.45-37.22l4.7-61.86c1.35-17.8 12.8-33.87 30.63-43l62-31.74c44.84-22.96 39.55-80.17-8.99-96.74zm-312.27 60.05a32 32 0 1 1 32-32 32 32 0 0 1 -32 32zm128 96a32 32 0 1 1 32-32 32 32 0 0 1 -32 32zm16-128a16 16 0 1 1 16-16 16 16 0 0 1 -16 16z" opacity=".4"/><path d="m304 224.05a16 16 0 1 0 -16-16 16 16 0 0 0 16 16zm-16 64a32 32 0 1 0 32 32 32 32 0 0 0 -32-32z"/></svg>