<svg viewBox="0 0 496 512"><path d="m248 8c-137 0-248 111-248 248s111 248 248 248 248-111 248-248-111-248-248-248zm-96 206.6-28.7 28.7c-14.8 14.8-37.8-7.5-22.6-22.6l28.7-28.7-28.7-28.7c-15-15 7.7-37.6 22.6-22.6l28.7 28.7 28.7-28.7c15-15 37.6 7.7 22.6 22.6l-28.7 28.7 28.7 28.7c15.2 15.2-7.9 37.4-22.6 22.6zm96 201.4a64 64 0 1 1 64-64 64 64 0 0 1 -64 64zm124.7-172.7-28.7-28.7-28.7 28.7c-14.8 14.8-37.8-7.5-22.6-22.6l28.7-28.7-28.7-28.7c-15-15 7.7-37.6 22.6-22.6l28.7 28.7 28.7-28.7c15-15 37.6 7.7 22.6 22.6l-28.7 28.7 28.7 28.7c15.2 15.2-7.9 37.4-22.6 22.6z" opacity=".4"/><path d="m395.3 220.7-28.7-28.7 28.7-28.7c15-14.9-7.6-37.6-22.6-22.6l-28.7 28.7-28.7-28.7c-14.9-15-37.6 7.6-22.6 22.6l28.7 28.7-28.7 28.7c-15.2 15.1 7.8 37.4 22.6 22.6l28.7-28.7 28.7 28.7c14.7 14.8 37.8-7.4 22.6-22.6zm-220.7-28.7 28.7-28.7c15-14.9-7.6-37.6-22.6-22.6l-28.7 28.7-28.7-28.7c-14.9-15-37.6 7.6-22.6 22.6l28.7 28.7-28.7 28.7c-15.2 15.1 7.8 37.4 22.6 22.6l28.7-28.7 28.7 28.7c14.7 14.8 37.8-7.4 22.6-22.6z"/></svg>