<svg viewBox="0 0 448 512"><path d="m222.18 269.08a480.54 480.54 0 0 0 45.22-25.63q-14.4-8.45-29.68-16.08c-39.79-19.83-73.72-44.13-100.82-72.23a284.35 284.35 0 0 1 -44.04-59.14h323.14v-65h-348.45c-1.55-6.68-2.55-12.51-3.28-17.25a16 16 0 0 0 -15.95-13.75l-32.27.14a16 16 0 0 0 -15.93 17.96c2.34 18.82 8.65 50.68 25.65 87.38a342.64 342.64 0 0 0 63 92c30.64 32.23 68.34 60.09 112.14 82.91q10.18-5.76 21.27-11.31zm225.69 224.92c-2.35-18.84-8.71-50.72-25.82-87.43a342.8 342.8 0 0 0 -63.45-92.12 383.16 383.16 0 0 0 -30-28.12 515.71 515.71 0 0 1 -58.47 35.61q8.53 6.35 16.51 13.06h-190.64v48h236.71a272.08 272.08 0 0 1 29.29 47.47 238.2 238.2 0 0 1 21.27 67.77 16.11 16.11 0 0 0 15.93 13.76h32.68a16 16 0 0 0 15.99-18z" opacity=".4"/><path d="m447.88 18c-2.35 18.84-8.68 50.72-25.72 87.44a342.76 342.76 0 0 1 -63.16 92.07c-32.61 34.23-73.18 63.54-120.59 87.11-77.98 38.77-121.26 88.38-145.3 131.38h261.35q4 7.14 7.52 14.47a247.24 247.24 0 0 1 17.73 49.53h-311.84c-1.69 7.1-2.79 13.25-3.49 18.21a16.06 16.06 0 0 1 -15.93 13.79h-32.36a16 16 0 0 1 -16-18c2.35-18.84 8.68-50.72 25.72-87.44a342.76 342.76 0 0 1 63.19-92.07c32.61-34.23 73.18-63.54 120.59-87.11 32.21-16 58.49-33.89 79.95-52.38h-131.6q-11.12-9.58-21-19.86a295 295 0 0 1 -23.94-28.14h221.7c35.39-47.16 45.84-91.55 48.92-113.21a16.06 16.06 0 0 1 15.93-13.79h32.36a16 16 0 0 1 15.97 18z"/></svg>