<svg viewBox="0 0 576 512"><path d="m448 244v34l-128-46.39v152.39h-48v-160l-233.83-182.75a16 16 0 0 1 -2.8-22.45l9.82-12.62a16 16 0 0 1 22.45-2.81l252.36 188.63z" opacity=".4"/><path d="m96 192a32 32 0 0 0 -64 0c0 41.66 26.83 76.85 64 90.1v213.9a16 16 0 0 0 16 16h64a16 16 0 0 0 16-16v-112h80v-160h-144a32 32 0 0 1 -32-32zm224 192h32v112a16 16 0 0 0 16 16h64a16 16 0 0 0 16-16v-218.45l-128-45.71zm208-288h-64l-7.16-14.31a32 32 0 0 0 -28.62-17.69h-53.62l-27.28-27.28c-10.09-10.08-27.32-2.94-27.32 11.28v144l128 51.58v-35.58h32a64 64 0 0 0 64-64v-32a16 16 0 0 0 -16-16zm-112 32a16 16 0 1 1 16-16 16 16 0 0 1 -16 16z"/></svg>