<svg viewBox="0 0 576 512"><path d="m448 278-149-54 21-26 128 46z" opacity=".4"/><path d="m128 224a32 32 0 0 1 -32-32 32 32 0 0 0 -64 0c0 41.66 26.83 76.85 64 90.1v213.9a16 16 0 0 0 16 16h64a16 16 0 0 0 16-16v-112h160v112a16 16 0 0 0 16 16h64a16 16 0 0 0 16-16v-218.45l-149.95-53.55zm400-128h-64l-7.16-14.31a32 32 0 0 0 -28.62-17.69h-53.62l-27.28-27.28c-10.09-10.08-27.32-2.94-27.32 11.28v149.87l128 45.71v-35.58h32a64 64 0 0 0 64-64v-32a16 16 0 0 0 -16-16zm-112 32a16 16 0 1 1 16-16 16 16 0 0 1 -16 16z"/></svg>