<svg viewBox="0 0 576 512"><path d="m515.3 228.4-60.4-181.2a16 16 0 0 0 -20.2-10.1l-183.4 61a16 16 0 0 0 -10.1 20.2l53 159.4a145.7 145.7 0 0 1 49.5 24.7l161.5-53.8a16 16 0 0 0 10.1-20.2zm-259.3 91.6a96 96 0 1 0 96 96 96 96 0 0 0 -96-96zm0 128a32 32 0 1 1 32-32 32 32 0 0 1 -32 32z" opacity=".4"/><path d="m575.2 326.4-10.2-30.4a16 16 0 0 0 -20.2-10.1l-181.38 60.49a127.12 127.12 0 0 1 20.27 60.76l181.31-60.55a16 16 0 0 0 10.2-20.2zm-447.2-326.4h-112a16 16 0 0 0 -16 16v32a16 16 0 0 0 16 16h88.9l81.49 244.57a127.23 127.23 0 0 1 60.81-20.26l-88.8-266.41a32 32 0 0 0 -30.4-21.9zm245.6 57.5-60.7 20.1 33.1 99.4 60.7-20.1z"/></svg>