<svg viewBox="0 0 640 512"><path d="m432 160h96a16 16 0 0 0 16-16v-96a16 16 0 0 0 -16-16h-96a16 16 0 0 0 -16 16v96a16 16 0 0 0 16 16zm-64-128h-160a16 16 0 0 0 -16 16v256a16 16 0 0 0 16 16h160a16 16 0 0 0 16-16v-256a16 16 0 0 0 -16-16zm224 160h-160a16 16 0 0 0 -16 16v96a16 16 0 0 0 16 16h160a16 16 0 0 0 16-16v-96a16 16 0 0 0 -16-16zm-141.26 256a48 48 0 1 0 90.52 0zm-288 0a48 48 0 1 0 90.52 0z" opacity=".4"/><path d="m640 400v32a16 16 0 0 1 -16 16h-544a16 16 0 0 1 -16-16v-368h-48a16 16 0 0 1 -16-16v-32a16 16 0 0 1 16-16h96a16 16 0 0 1 16 16v368h496a16 16 0 0 1 16 16z"/></svg>