<svg viewBox="0 0 512 512"><path d="m400 64a80.07 80.07 0 0 0 -80 80.1v59.4a271.57 271.57 0 0 1 -233-161.75c-5.5-12.5-23.2-13.2-29-.9a269.8 269.8 0 0 0 -26 115.7c0 70.8 34.1 136.9 85.1 185.9a406.94 406.94 0 0 0 38.9 32.8l-143.9 36a16.1 16.1 0 0 0 -9.5 24.4c17.4 26.9 60.4 72.5 153.28 76.35a32.09 32.09 0 0 0 22.1-7.9l65.2-56.1h76.82a159.86 159.86 0 0 0 160-159.74v-160.26l32-64zm.05 96.1h-.05a11.31 11.31 0 1 1 .05 0z" opacity=".4"/><path d="m320 176.69v26.81a271.52 271.52 0 0 1 -174.12-76.79c1.12-5.68 2.44-11.34 4-17a269.78 269.78 0 0 1 56.28-104.36c8.91-10.29 25.76-4.84 27.69 8.65a271.5 271.5 0 0 0 86.15 162.69z"/></svg>