<svg viewBox="0 0 512 512"><path d="m320 24v168h87.7c17.8 0 26.7 21.5 14.1 34.1l-152.1 152.2a19.37 19.37 0 0 1 -27.3 0l-152.3-152.2c-12.6-12.6-3.7-34.1 14.1-34.1h87.8v-168a23.94 23.94 0 0 1 24-24h80a23.94 23.94 0 0 1 24 24z" opacity=".4"/><path d="m488 352h-146.7l-49 49a51.24 51.24 0 0 1 -72.6 0l-49-49h-146.7a23.94 23.94 0 0 0 -24 24v112a23.94 23.94 0 0 0 24 24h464a23.94 23.94 0 0 0 24-24v-112a23.94 23.94 0 0 0 -24-24zm-120 96a16 16 0 1 1 16-16 16 16 0 0 1 -16 16zm64 0a16 16 0 1 1 16-16 16 16 0 0 1 -16 16z"/></svg>