<svg viewBox="0 0 512 512"><path d="m12.5 249.86c-4.86-7.67-1.89-18 6.05-22.39l28.07-15.57c7.48-4.15 16.61-1.46 21.26 5.72a223.89 223.89 0 0 0 35.75 42.55l-32.63 56.51a288.08 288.08 0 0 1 -58.5-66.82zm487 0c4.86-7.67 1.89-18-6.05-22.39l-28.07-15.57c-7.48-4.15-16.61-1.46-21.26 5.72a223.95 223.95 0 0 1 -257.77 91.26l-32.53 56.35a287.42 287.42 0 0 0 102.18 18.77 288.42 288.42 0 0 0 243.5-134.14z" opacity=".4"/><path d="m457.21 344.75a318.63 318.63 0 0 1 -82.85 48.51l54.5 94.4 53.95 23a16 16 0 0 0 22.19-12.76l7-58.25zm-116.31-201.45a96.5 96.5 0 1 0 -169.29-.88l-171.61 297.23 7 58.25a16 16 0 0 0 22.17 12.8l54-23 170.11-294.76c1.07 0 2.14.06 3.22.06h2.24l50.49 87.47a191.71 191.71 0 0 0 82.65-48.85zm-84.4-15.3a31.5 31.5 0 1 1 31.5-31.5 31.5 31.5 0 0 1 -31.5 31.5z"/></svg>