<svg viewBox="0 0 640 512"><path d="m320 194.35v42.27a247.35 247.35 0 0 0 14.73 83.38h-222.73c-14.25 0-21.39-17.23-11.31-27.31l91.31-68.69-173.68 31.82c-15.96 2.28-24.89-17.82-12.51-28.14l117.4-116.34a64 64 0 0 1 77.06-4.59z" opacity=".4"/><path d="m575.19 289.88-100.66-50.31a48 48 0 0 1 -26.53-42.92v-36.65h64l28.09 22.63a32 32 0 0 0 22.63 9.37h31a32 32 0 0 0 28.62-17.69l14.31-28.62a32 32 0 0 0 -3-33.51l-74.58-99.42a32 32 0 0 0 -25.6-12.76h-237.47a8 8 0 0 0 -5.66 13.61l61.66 50.39-59.58 24.8a8 8 0 0 0 0 14.31l59.58 24.89v108.58a215.61 215.61 0 0 0 96 179.42c-195.59 6.81-344.56 41-434.1 60.91a17.78 17.78 0 0 0 3.86 35.09h499.08c63.29 0 119.61-47.56 123-110.76a116.7 116.7 0 0 0 -64.65-111.36zm-86-223.63 45.65 11.41c-2.75 10.91-12.47 18.89-24.13 18.26-12.97-.71-25.86-12.53-21.53-29.67z"/></svg>