<svg viewBox="0 0 448 512"><path d="m32 360.58v-209.16a64 64 0 0 0 64 0v209.16a64 64 0 0 0 -64 0zm87.42-296.58a64 64 0 0 1 0 64h208.06l-38.41 64a64 64 0 0 1 54.93 32.94l39-65a64 64 0 0 1 -54.35-96zm209.16 384a64 64 0 0 1 54.35-96l-39-65a64 64 0 0 1 -54.86 33l38.41 64h-208.06a64 64 0 0 1 0 64z" opacity=".4"/><path d="m64 32a64 64 0 1 0 64 64 64 64 0 0 0 -64-64zm0 80a16 16 0 1 1 16-16 16 16 0 0 1 -16 16zm320 48a64 64 0 1 0 -64-64 64 64 0 0 0 64 64zm0-80a16 16 0 1 1 -16 16 16 16 0 0 1 16-16zm-320 272a64 64 0 1 0 64 64 64 64 0 0 0 -64-64zm0 80a16 16 0 1 1 16-16 16 16 0 0 1 -16 16zm320-80a64 64 0 1 0 64 64 64 64 0 0 0 -64-64zm0 80a16 16 0 1 1 16-16 16 16 0 0 1 -16 16zm-32-176a64 64 0 1 0 -64 64 64 64 0 0 0 64-64zm-64 16a16 16 0 1 1 16-16 16 16 0 0 1 -16 16z"/></svg>