<svg viewBox="0 0 512 512"><path d="m39.9 196.71a224.68 224.68 0 0 1 156.81-156.81 64 64 0 0 0 9.34 64.1 160.73 160.73 0 0 0 -102.05 102.06 64 64 0 0 0 -64.1-9.35zm280.1-132.71a63.76 63.76 0 0 1 -14 40 160.73 160.73 0 0 1 102 102.06 64 64 0 0 1 64.1-9.35 224.68 224.68 0 0 0 -156.81-156.81 63.73 63.73 0 0 1 4.71 24.1zm128 256a63.76 63.76 0 0 1 -40-14 160.73 160.73 0 0 1 -102 102 64 64 0 0 1 9.34 64.1 224.68 224.68 0 0 0 156.76-156.81 63.73 63.73 0 0 1 -24.1 4.71zm-256 128a63.76 63.76 0 0 1 14.05-40 160.73 160.73 0 0 1 -102.05-102 64 64 0 0 1 -64.1 9.34 224.68 224.68 0 0 0 156.81 156.76 63.73 63.73 0 0 1 -4.71-24.1z" opacity=".4"/><path d="m256 384a64 64 0 1 0 64 64 64 64 0 0 0 -64-64zm0 80a16 16 0 1 1 16-16 16 16 0 0 1 -16 16zm0-464a64 64 0 1 0 64 64 64 64 0 0 0 -64-64zm0 80a16 16 0 1 1 16-16 16 16 0 0 1 -16 16zm-192 112a64 64 0 1 0 64 64 64 64 0 0 0 -64-64zm0 80a16 16 0 1 1 16-16 16 16 0 0 1 -16 16zm384-80a64 64 0 1 0 64 64 64 64 0 0 0 -64-64zm0 80a16 16 0 1 1 16-16 16 16 0 0 1 -16 16z"/></svg>