<svg viewBox="0 0 448 512"><path d="m32 360.58v-209.16a64 64 0 0 0 64 0v209.16a64 64 0 0 0 -64 0zm87.42-296.58a64 64 0 0 1 0 64h209.16a64 64 0 0 1 0-64zm264.58 96a63.68 63.68 0 0 1 -32-8.58v209.16a64 64 0 0 1 64 0v-209.16a63.68 63.68 0 0 1 -32 8.58zm-55.42 288a64 64 0 0 1 0-64h-209.16a64 64 0 0 1 0 64z" opacity=".4"/><path d="m64 32a64 64 0 1 0 64 64 64 64 0 0 0 -64-64zm0 80a16 16 0 1 1 16-16 16 16 0 0 1 -16 16zm320 48a64 64 0 1 0 -64-64 64 64 0 0 0 64 64zm0-80a16 16 0 1 1 -16 16 16 16 0 0 1 16-16zm0 272a64 64 0 1 0 64 64 64 64 0 0 0 -64-64zm0 80a16 16 0 1 1 16-16 16 16 0 0 1 -16 16zm-320-80a64 64 0 1 0 64 64 64 64 0 0 0 -64-64zm0 80a16 16 0 1 1 16-16 16 16 0 0 1 -16 16z"/></svg>