<svg viewBox="0 0 640 512"><path d="m264 112h-240a24 24 0 0 0 0 48h240a24 24 0 0 0 0-48zm352 0h-240a24 24 0 0 0 0 48h240a24 24 0 0 0 0-48z" opacity=".4"/><path d="m472 192v45.65l-96.83-29.05a191.93 191.93 0 0 0 -110.34 0l-96.83 29.05v-45.65h-48v64.05a32 32 0 0 0 32 32h45.41a179 179 0 0 0 -53.33 110.24 16.14 16.14 0 0 0 16 17.71h16.26c8.33 0 14.75-6.58 15.68-14.87a130 130 0 0 1 53.66-91.38l32.93 32.93a32 32 0 0 0 22.62 9.37h37.49a32 32 0 0 0 22.63-9.37l32.93-32.93a130 130 0 0 1 53.72 91.38c.93 8.29 7.35 14.85 15.68 14.87h16.22a16.13 16.13 0 0 0 16-17.71 178.94 178.94 0 0 0 -53.32-110.24h45.42a32 32 0 0 0 32-32v-64.05zm-328-96a23.68 23.68 0 0 0 -22.23 16h44.5a23.72 23.72 0 0 0 -22.27-16zm352 0a23.68 23.68 0 0 0 -22.23 16h44.5a23.72 23.72 0 0 0 -22.27-16z"/></svg>