<svg viewBox="0 0 512 512"><path d="m300.34 160 38.86-28.06a64.05 64.05 0 1 1 40.86 40.86l-28.06 38.86v1.56a111.93 111.93 0 1 0 -53.22-53.22zm-88.68 192-39.66 28.64a64.06 64.06 0 1 1 -40.25-41.17l28.25-39.13v-1.08a111.93 111.93 0 1 0 52.22 52.74zm-100.66-352a112 112 0 1 0 49 212.74v-1.08l-28.25-39.13a64 64 0 1 1 40.25-41.17l39.66 28.64h.56a112 112 0 0 0 -101.22-160zm289 288a111.58 111.58 0 0 0 -48 10.78v1.56l28.06 38.86a64.05 64.05 0 1 1 -40.86 40.86l-38.86-28.06h-1.56a112 112 0 1 0 101.22-64z" opacity=".4"/><path d="m432 399.19a31.91 31.91 0 1 1 -63.8 1.81l-67.86-49h-88.68l-67.86 49a31.91 31.91 0 1 1 -32.8-32.8l49-67.86v-88.68l-49-67.86a31.91 31.91 0 1 1 32.8-32.8l67.86 49h88.68l67.86-49a31.91 31.91 0 1 1 32.8 32.8l-49 67.86v88.68l49 67.86a31.9 31.9 0 0 1 31 30.99z"/></svg>