<svg viewBox="0 0 448 512"><path d="m216 272c0-22.64-11.95-34.59-20.69-43.33-5.83-5.82-9.24-9.45-10.61-14.62a8 8 0 0 0 -7.7-6.05h-16.29a8.17 8.17 0 0 0 -8 9.53c2.77 16.64 12.51 26.38 19.93 33.8 7.89 7.84 11.36 11.67 11.36 20.67s-3.47 12.86-11.31 20.7c-8.69 8.77-20.69 20.72-20.69 43.36s11.95 34.57 20.69 43.28c5.82 5.82 9.23 9.44 10.6 14.59a8 8 0 0 0 7.71 6.07h16.32a8.15 8.15 0 0 0 7.94-9.53c-2.76-16.61-12.5-26.35-19.92-33.75-7.87-7.84-11.34-11.72-11.34-20.66s3.47-12.86 11.31-20.7c8.74-8.73 20.69-20.69 20.69-43.36zm48 64c0-9 3.47-12.86 11.31-20.7 8.74-8.67 20.69-20.63 20.69-43.3s-11.95-34.59-20.69-43.33c-5.83-5.82-9.24-9.45-10.61-14.62a8 8 0 0 0 -7.7-6.05h-16.29a8.17 8.17 0 0 0 -8 9.53c2.77 16.64 12.51 26.38 19.93 33.8 7.89 7.84 11.36 11.67 11.36 20.67s-3.47 12.86-11.31 20.7c-8.69 8.77-20.69 20.72-20.69 43.36s11.95 34.57 20.69 43.28c5.82 5.82 9.23 9.44 10.6 14.59a8 8 0 0 0 7.71 6.07h16.32a8.15 8.15 0 0 0 7.94-9.53c-2.76-16.61-12.5-26.35-19.92-33.75-7.87-7.84-11.34-11.72-11.34-20.66z" opacity=".4"/><path d="m384 0h-320a64 64 0 0 0 -64 64v416a32 32 0 0 0 32 32h384a32 32 0 0 0 32-32v-416a64 64 0 0 0 -64-64zm-200 64a24 24 0 1 1 -24 24 24 24 0 0 1 24-24zm-120 24a24 24 0 1 1 24 24 24 24 0 0 1 -24-24zm160 360a144 144 0 1 1 144-144 144 144 0 0 1 -144 144z"/></svg>