<svg viewBox="0 0 512 512"><path d="m512 128a96 96 0 0 1 -96 96h-27c37.28-13.18 59-54.2 59-96z" opacity=".4"/><path d="m401.31 277.43a41.38 41.38 0 0 1 -17.31-33.63 39.9 39.9 0 0 1 5-19.8c37.28-13.18 59-54.2 59-96a96 96 0 0 0 -192 0 94.05 94.05 0 0 0 22.1 60.59 41.44 41.44 0 0 1 9.9 26.53 40.88 40.88 0 0 1 -40.87 40.88h-21.69c-31.51 0-80.18-13.2-101.68-36.24-10.02-10.76-27.76-3.59-27.76 10.87a153.38 153.38 0 0 0 153.38 153.37h-32c-76 0-138.67-55.44-150.82-128h-50.4c-9.16 0-16.79 7.66-16.16 16.75 8.62 115.89 105.36 207.25 223.43 207.25h107.2c55.51 0 110.81-44.52 116.72-99.71a111.23 111.23 0 0 0 -46.04-102.86zm-49.31-133.43a16 16 0 1 1 16-16 16 16 0 0 1 -16 16z"/></svg>