<svg viewBox="0 0 640 512"><path d="m32 288h-16a16 16 0 0 1 -16-16v-32a16 16 0 0 1 16-16h16zm352-64h-128v64h128zm240 0h-16v64h16a16 16 0 0 0 16-16v-32a16 16 0 0 0 -16-16z" opacity=".4"/><path d="m232 32h-48a23.94 23.94 0 0 0 -24 24v400a23.94 23.94 0 0 0 24 24h48a23.94 23.94 0 0 0 24-24v-400a23.94 23.94 0 0 0 -24-24zm224 0h-48a23.94 23.94 0 0 0 -24 24v400a23.94 23.94 0 0 0 24 24h48a23.94 23.94 0 0 0 24-24v-400a23.94 23.94 0 0 0 -24-24zm128 64h-48a23.94 23.94 0 0 0 -24 24v272a23.94 23.94 0 0 0 24 24h48a23.94 23.94 0 0 0 24-24v-272a23.94 23.94 0 0 0 -24-24zm-480 0h-48a23.94 23.94 0 0 0 -24 24v272a23.94 23.94 0 0 0 24 24h48a23.94 23.94 0 0 0 24-24v-272a23.94 23.94 0 0 0 -24-24z"/></svg>