<svg viewBox="0 0 576 512"><path d="m576 240v32a16 16 0 0 1 -16 16h-28l-20 160v16a16 16 0 0 1 -16 16h-32a16 16 0 0 1 -16-16v-16h-320v16a16 16 0 0 1 -16 16h-32a16 16 0 0 1 -16-16v-16l-20-160h-28a16 16 0 0 1 -16-16v-32a16 16 0 0 1 16-16h20l-4-32h512l-4 32h20a16 16 0 0 1 16 16z" opacity=".4"/><path d="m24.5 44.1-24 96a16 16 0 0 0 15.5 19.9h97.3l25.6-128h-98.9a16 16 0 0 0 -15.5 12.1zm121.4 115.9h126.1v-128h-100.5zm158.1-128v128h126.1l-25.6-128zm271.5 108.1-24-96a16 16 0 0 0 -15.5-12.1h-98.9l25.6 128h97.3a16 16 0 0 0 15.5-19.9z"/></svg>