<svg viewBox="0 0 640 512"><path d="m288 321.6c0 48.5 18.6 92.7 48.8 126.4h-208.8v16a16 16 0 0 1 -16 16h-32a16 16 0 0 1 -16-16v-16l-20-160h-28a16 16 0 0 1 -16-16v-32a16 16 0 0 1 16-16h20l-4-32h308.6c-32.7 46.7-52.6 93.7-52.6 129.6z" opacity=".4"/><path d="m461.72 104.14a606.78 606.78 0 0 1 51.15 51.46c5.7-5.59 11.41-11.09 17.32-16.28l21.32-19 21.32 19c1.1.9 2.1 2.09 3.1 3.09a17.5 17.5 0 0 0 0-2.29l-24-95.93a15.85 15.85 0 0 0 -15.44-12.09h-99l12.31 61.45zm-315.72 55.86h126.24v-127.9h-100.6zm-121.5-115.81-24 95.93a16 16 0 0 0 15.5 19.88h97.4l25.6-127.9h-99a16.05 16.05 0 0 0 -15.5 12.09zm526.7 119a419.31 419.31 0 0 0 -40.2 41.21 538.72 538.72 0 0 0 -71-76.4c-70.2 62.7-120 144.3-120 193.6 0 87.5 71.6 158.4 160 158.4s160-70.9 160-158.4c.1-36.6-37-112.2-88.8-158.4zm-18.6 229.41a89 89 0 0 1 -52.5 17c-49 0-88.9-33.5-88.9-88 0-27.1 16.5-51 49.4-91.9 4.7 5.6 67.1 88.1 67.1 88.1l39.8-47c2.8 4.8 5.4 9.5 7.7 14 18.6 36.7 10.8 83.6-22.6 107.8zm-113.52-288.46.2-.2-14.41-71.94h-100.6v127.9h60.86a543.28 543.28 0 0 1 53.95-55.76z"/></svg>