<svg viewBox="0 0 512 512"><path d="m304 189.36v282.64a8 8 0 0 0 8 8h16a8 8 0 0 0 8-8v-252.87a96.32 96.32 0 0 0 -32-29.77zm-64-11.74v294.38a8 8 0 0 0 8 8h16a8 8 0 0 0 8-8v-294.38a94.83 94.83 0 0 0 -16-1.62 94.83 94.83 0 0 0 -16 1.62zm-64 41.51v252.87a8 8 0 0 0 8 8h16a8 8 0 0 0 8-8v-282.64a96.32 96.32 0 0 0 -32 29.77z" opacity=".4"/><path d="m112 288h-96a16 16 0 0 0 -16 16v64a16 16 0 0 0 16 16h96a16 16 0 0 0 16-16v-64a16 16 0 0 0 -16-16zm16.73-92.68-82.81-51.76c-8-5-19-2.17-22.93 6.45a254.32 254.32 0 0 0 -22.45 89.27c-.54 9.09 7.05 16.72 16.15 16.72h97.13c8 0 14.08-6.25 15-14.16a126.36 126.36 0 0 1 6.24-26.94c2.57-7.34.26-15.46-6.33-19.58zm324.27-102.21a257.4 257.4 0 0 0 -71.61-59.89c-8.28-4.68-18.88-.52-22.42 8.31l-36.32 90.8c-2.85 7.12 0 14.88 6.3 19.28a127.56 127.56 0 0 1 16.79 14c5.44 5.41 13.6 6.86 20.11 2.79l82.93-51.83c8.1-4.98 10.32-16.14 4.22-23.46zm43 322.89h-96a16 16 0 0 0 -16 16v64a16 16 0 0 0 16 16h96a16 16 0 0 0 16-16v-64a16 16 0 0 0 -16-16zm-343-374.47c-3.53-8.83-14.13-13-22.42-8.31a257.4 257.4 0 0 0 -71.58 59.89c-6.06 7.32-3.85 18.48 4.22 23.52l82.93 51.83c6.51 4.07 14.66 2.62 20.11-2.79a127.56 127.56 0 0 1 16.79-14c6.28-4.41 9.15-12.17 6.3-19.29zm-41 374.47h-96a16 16 0 0 0 -16 16v64a16 16 0 0 0 16 16h96a16 16 0 0 0 16-16v-64a16 16 0 0 0 -16-16zm384-128h-96a16 16 0 0 0 -16 16v64a16 16 0 0 0 16 16h96a16 16 0 0 0 16-16v-64a16 16 0 0 0 -16-16zm-97.82-32h97.13c9.1 0 16.74-7.63 16.15-16.72a254.05 254.05 0 0 0 -22.46-89.28c-3.94-8.62-14.89-11.47-22.93-6.45l-82.81 51.76c-6.59 4.12-8.9 12.24-6.34 19.58a125.9 125.9 0 0 1 6.24 26.94c.94 7.92 7.06 14.17 15.02 14.17zm-79.18-248a252.3 252.3 0 0 0 -126 0c-9.17 2.35-13.91 12.6-10.39 21.39l37.47 104a16 16 0 0 0 15 10.58h41.8a16 16 0 0 0 15.12-10.55l37.47-104c3.47-8.82-1.27-19.06-10.47-21.42z"/></svg>