<svg viewBox="0 0 576 512"><path d="m564.6 60.2-48.8-48.8a39.11 39.11 0 0 0 -55.2 0l-35.4 35.4a9.78 9.78 0 0 0 0 13.8l90.2 90.2a9.78 9.78 0 0 0 13.8 0l35.4-35.4a39.11 39.11 0 0 0 0-55.2zm-137.1 237.4-40 40a12.3 12.3 0 0 0 -3.5 8.5v101.8h-320v-320h229.8a12.3 12.3 0 0 0 8.5-3.5l40-40a12 12 0 0 0 -8.5-20.5h-285.8a48 48 0 0 0 -48 48v352a48 48 0 0 0 48 48h352a48 48 0 0 0 48-48v-157.8a12 12 0 0 0 -20.5-8.5z" opacity=".4"/><path d="m492.8 173.3a9.78 9.78 0 0 1 0 13.8l-218.4 218.4-92.8 10.3a19.45 19.45 0 0 1 -21.5-21.5l10.3-92.8 218.4-218.4a9.78 9.78 0 0 1 13.8 0z"/></svg>