<svg viewBox="0 0 512 512"><path d="m478.31 150.45c-39.5-40.71-100.74-46.29-144.41-82.24-49.81-41.01-88.13-77.46-158.56-66.11-86.79 14-111.73 80-125 157.14-11.1 64.34-54.42 127-50 192.91s52.84 128.43 115 150.74c93 33.39 147-31.71 204.67-86.45 43.69-41.44 93.41-37.72 141-73.89 56.2-42.82 71.63-140.55 17.3-192.1zm-254.31 201.93c-61.75 0-112-50.3-112-112.11s50.27-112.12 112-112.12 112 50.29 112 112.12a112.14 112.14 0 0 1 -112 112.11z" opacity=".4"/><path d="m224 128a112 112 0 1 0 112 112 112.15 112.15 0 0 0 -112-112zm-8 63.78a40 40 0 0 0 -40 40 16 16 0 0 1 -32 0 72.05 72.05 0 0 1 72-71.92 16 16 0 1 1 0 32z"/></svg>