<svg viewBox="0 0 384 512"><path d="m304 320a112 112 0 0 1 -224 0c0-18.32 4.26-44.4 11.69-71.56a471.69 471.69 0 0 1 33.84-88c14-27.45 29.29-49.88 44.29-64.87l.36-.36a31 31 0 0 1 43.64 0l.36.36c15 15 30.31 37.42 44.29 64.87a471.69 471.69 0 0 1 33.84 88c7.43 27.16 11.69 53.24 11.69 71.56z" opacity=".4"/><path d="m192 0c-106 0-192 214-192 320s86 192 192 192 192-86 192-192-86-320-192-320zm0 432a112.12 112.12 0 0 1 -112-112c0-18.32 4.26-44.4 11.69-71.56a471.69 471.69 0 0 1 33.84-88c14-27.45 29.29-49.88 44.29-64.87l.36-.36a31 31 0 0 1 43.64 0l.36.36c15 15 30.31 37.42 44.29 64.87a471.69 471.69 0 0 1 33.84 88c7.43 27.16 11.69 53.24 11.69 71.56a112.12 112.12 0 0 1 -112 112z"/></svg>