<svg viewBox="0 0 640 512"><path d="m512 32.15h-72.65a63.9 63.9 0 1 0 -87.35 87.09v72.86a32 32 0 0 0 28.78 31.83h27.22a8 8 0 0 1 8 8v16a8 8 0 0 1 -8 8l-24 .12a64.06 64.06 0 0 1 -64-64v-56.73a96 96 0 0 1 -32-71.18 94.71 94.71 0 0 1 5.9-32h-101.9c-106 0-192 86-192 191.94v112a16 16 0 0 0 16 16h16v143.92a16 16 0 0 0 16 16h64a16 16 0 0 0 16-16v-107.81c32.35 17.54 70.72 27.81 112 27.81s79.65-10.3 112-27.84v107.84a16 16 0 0 0 16 16h64a16 16 0 0 0 16-16v-207.93h64c23.44 0 45.11-6.76 64-17.74v97.31a16.26 16.26 0 0 1 -15.86 16.36 16 16 0 0 1 -16.14-15.81v-.14c0-8.78-7.64-16-16.42-16h-31.58a16 16 0 0 0 -16 16 80.07 80.07 0 0 0 88.36 79.54c41.64-4.25 71.64-42.45 71.64-84.27v-203.21a128 128 0 0 0 -128-127.96zm16 128a16 16 0 1 1 16-16 16 16 0 0 1 -16 15.96z" opacity=".4"/><path d="m528 128a16 16 0 1 0 16 16 16 16 0 0 0 -16-16zm-176 64.16v-72.88a63.89 63.89 0 0 1 -23.46-87.28l-34.64.16a94.77 94.77 0 0 0 -5.9 32 96 96 0 0 0 32 71.2v56.8a64.07 64.07 0 0 0 59.74 63.84h28.26a8 8 0 0 0 8-8v-16a8 8 0 0 0 -8-8h-27.22a32 32 0 0 1 -28.78-31.84z"/></svg>