<svg viewBox="0 0 512 512"><path d="m76.6 390.15a223 223 0 0 1 -44.6-134.15c0-123.71 100.29-224 224-224a223 223 0 0 1 134.15 44.6l-57.46 57.46a144.07 144.07 0 0 0 -198.63 198.63zm301.34-210.83a144.07 144.07 0 0 1 -198.62 198.62l-57.46 57.47a223 223 0 0 0 134.14 44.59c123.71 0 224-100.29 224-224a223 223 0 0 0 -44.6-134.15z" opacity=".4"/><path d="m507.31 50-457.31 457.32a16 16 0 0 1 -22.63 0l-22.68-22.63a16 16 0 0 1 0-22.63l457.37-457.37a16 16 0 0 1 22.63 0l22.62 22.62a16 16 0 0 1 0 22.69z"/></svg>