<svg viewBox="0 0 512 512"><path d="m492.61 163c-24.89-19.52-45.51-35.38-164.2-121.51-16.81-12.32-50.21-41.84-73.41-41.49-23.2-.35-56.59 29.17-73.41 41.44-118.7 86.14-139.29 101.98-164.2 121.56-10.15 7.9-18.39 24.83-18.39 37.72v263.28a48 48 0 0 0 48 48h416a48 48 0 0 0 48-48v-263.28c0-12.89-8.24-29.82-18.39-37.72zm-40 128.61c-22.89 16.9-55.46 40.69-105.31 76.87-20.3 14.75-56.58 47.76-92.3 47.52-35.74.24-72-32.79-92.26-47.57-49.85-36.18-82.42-60-105.31-76.87a9 9 0 0 1 -3.24-6.44 9.44 9.44 0 0 1 1.4-4.53l9.08-13.2a8 8 0 0 1 11.33-1.9c22.85 16.87 55.47 40.71 105.59 77.08 16.85 12.28 50.2 41.77 73.41 41.43 23.2.35 56.59-29.17 73.41-41.43 50.12-36.38 82.74-60.21 105.59-77.08a8 8 0 0 1 11.33 1.9l9.08 13.2a9.44 9.44 0 0 1 1.4 4.53 9 9 0 0 1 -3.24 6.44z" opacity=".4"/><path d="m455.81 285.12a9 9 0 0 1 -3.24 6.44c-22.89 16.9-55.46 40.69-105.31 76.87-20.26 14.8-56.54 47.81-92.26 47.57-35.74.24-72-32.79-92.26-47.57-49.85-36.18-82.42-60-105.31-76.87a9 9 0 0 1 -3.24-6.44 9.44 9.44 0 0 1 1.4-4.53l9.08-13.2a8 8 0 0 1 11.33-1.9c22.85 16.87 55.47 40.71 105.59 77.08 16.85 12.28 50.2 41.77 73.41 41.43 23.2.35 56.59-29.17 73.41-41.43 50.12-36.38 82.74-60.21 105.59-77.08a8 8 0 0 1 11.33 1.9l9.08 13.2a9.44 9.44 0 0 1 1.4 4.53z"/></svg>