<svg viewBox="0 0 448 512"><path d="m400 32h-352a48 48 0 0 0 -48 48v352a48 48 0 0 0 48 48h352a48 48 0 0 0 48-48v-352a48 48 0 0 0 -48-48zm-16 328a24 24 0 0 1 -24 24h-272a24 24 0 0 1 -24-24v-208a24 24 0 0 1 24-24h272a24 24 0 0 1 24 24z" opacity=".4"/><path d="m224 320c-26.72.13-50.54-21.67-64.7-32-61.97-45-81.3-59.43-95.3-70.23v142.23a24 24 0 0 0 24 24h272a24 24 0 0 0 24-24v-142.23c-14 10.8-33.33 25.24-95.28 70.2-13.72 10.03-37.84 32.16-64.72 32.03zm136-192h-272a24 24 0 0 0 -24 24v25.17c24.35 19 23.43 19.12 114.12 84.93 10.51 7.67 31.38 26.12 45.88 25.9 14.49.22 35.38-18.24 45.88-25.9 90.69-65.81 89.75-66 114.12-84.93v-25.17a24 24 0 0 0 -24-24z"/></svg>