<svg viewBox="0 0 512 512"><path d="m64 257.6 163.9 118.4a47.72 47.72 0 0 0 56.2 0l163.9-118.4v-161.6a32 32 0 0 0 -32-32h-320a32 32 0 0 0 -32 32zm96-97.6a16 16 0 0 1 16-16h160a16 16 0 0 1 16 16v16a16 16 0 0 1 -16 16h-160a16 16 0 0 1 -16-16zm0 80a16 16 0 0 1 16-16h160a16 16 0 0 1 16 16v16a16 16 0 0 1 -16 16h-160a16 16 0 0 1 -16-16z" opacity=".4"/><path d="m352 160a16 16 0 0 0 -16-16h-160a16 16 0 0 0 -16 16v16a16 16 0 0 0 16 16h160a16 16 0 0 0 16-16zm-16 64h-160a16 16 0 0 0 -16 16v16a16 16 0 0 0 16 16h160a16 16 0 0 0 16-16v-16a16 16 0 0 0 -16-16zm-6.6-182.6c-16.8-12.2-50.2-41.7-73.4-41.4-23.2-.3-56.6 29.2-73.4 41.4l-30.6 22.6h208zm-265.4 87.6c-23.9 17.7-42.7 31.6-45.6 34a48 48 0 0 0 -18.4 37.7v10.7l64 46.2zm429.6 34c-2.9-2.3-21.7-16.3-45.6-33.9v128.5l64-46.2v-10.7a48 48 0 0 0 -18.4-37.7zm-237.6 254.1a80 80 0 0 1 -46.9-15.2l-209.1-151v213.1a48 48 0 0 0 48 48h416a48 48 0 0 0 48-48v-213.1l-209.1 151a80 80 0 0 1 -46.9 15.2z"/></svg>