<svg viewBox="0 0 512 512"><path d="m64 257.62 163.91 118.38a47.9 47.9 0 0 0 56.21 0l163.88-118.38v-161.62a32 32 0 0 0 -32-32h-320a32 32 0 0 0 -32 32zm176-122.5v-16.12a8 8 0 0 1 8-8h16a8 8 0 0 1 8 8v16.29a55.31 55.31 0 0 1 32.27 12.18c2.1 2.23 3.74 7.49-.34 11.31l-11.75 11.22a8.19 8.19 0 0 1 -10.13.73 24.15 24.15 0 0 0 -12.82-3.73h-28.11c-6.5 0-11.8 5.92-11.8 13.19 0 5.95 3.61 11.18 8.77 12.73l45 13.5c18.58 5.58 31.58 23.39 31.58 43.39 0 24.53-19.05 44.44-42.67 45.07v16.12a8 8 0 0 1 -8 8h-16a8 8 0 0 1 -8-8v-16.29c-19.83-1-32.35-12.18-32.22-12.18a8 8 0 0 1 .34-11.31l11.75-11.22a8.22 8.22 0 0 1 10.13-.73 24.07 24.07 0 0 0 12.77 3.73h28.11c6.5 0 11.8-5.92 11.8-13.19 0-5.95-3.61-11.18-8.77-12.73l-45-13.5c-18.58-5.58-31.58-23.39-31.58-43.39 0-24.52 19.05-44.44 42.67-45.07z" opacity=".4"/><path d="m329.4 41.44c-16.8-12.26-50.2-41.79-73.4-41.44-23.2-.35-56.59 29.17-73.41 41.44l-30.59 22.56h208zm164.21 121.56c-2.94-2.3-21.73-16.26-45.61-33.93v128.54l64-46.24v-10.65a48 48 0 0 0 -18.39-37.72zm-429.61-34c-23.88 17.69-42.67 31.65-45.61 34a48 48 0 0 0 -18.39 37.72v10.65l64 46.24zm192 288.13a79.83 79.83 0 0 1 -46.86-15.19l-209.14-151.08v213.14a48 48 0 0 0 48 48h416a48 48 0 0 0 48-48v-213.14l-209.14 151.08a80 80 0 0 1 -46.86 15.19zm-16-282v-16.13a8 8 0 0 1 8-8h16a8 8 0 0 1 8 8v16.29a55.31 55.31 0 0 1 32.27 12.18c2.1 2.23 3.74 7.49-.34 11.31l-11.75 11.22a8.19 8.19 0 0 1 -10.13.73 24.15 24.15 0 0 0 -12.82-3.73h-28.11c-6.5 0-11.8 5.92-11.8 13.19 0 5.95 3.61 11.18 8.77 12.73l45 13.5c18.58 5.58 31.58 23.39 31.58 43.39 0 24.53-19.05 44.44-42.67 45.07v16.12a8 8 0 0 1 -8 8h-16a8 8 0 0 1 -8-8v-16.29c-19.83-1-32.35-12.18-32.22-12.18a8 8 0 0 1 .34-11.31l11.75-11.22a8.22 8.22 0 0 1 10.13-.73 24.07 24.07 0 0 0 12.77 3.73h28.11c6.5 0 11.8-5.92 11.8-13.19 0-5.95-3.61-11.18-8.77-12.73l-45-13.5c-18.58-5.58-31.58-23.39-31.58-43.39 0-24.52 19.05-44.44 42.67-45.07z"/></svg>