<svg viewBox="0 0 512 512"><path d="m488 384h-382l30.47 27.73a24 24 0 0 1 .47 34.4l-10.81 10.87a24 24 0 0 1 -33.94 0l-82.82-82.37a32 32 0 0 1 0-45.26l82.82-82.37a24 24 0 0 1 33.94 0l10.87 10.87a24 24 0 0 1 -.47 34.4l-30.53 27.73h382a24 24 0 0 1 24 24v16a24 24 0 0 1 -24 24z" opacity=".4"/><path d="m0 168v-16a24 24 0 0 1 24-24h382l-30.5-27.73a24 24 0 0 1 -.47-34.4l10.84-10.87a24 24 0 0 1 33.94 0l82.82 82.34a32 32 0 0 1 0 45.26l-82.82 82.4a24 24 0 0 1 -33.94 0l-10.87-10.87a24 24 0 0 1 .47-34.4l30.53-27.73h-382a24 24 0 0 1 -24-24z"/></svg>