<svg viewBox="0 0 576 512"><path d="m569.52 440-239.94-416c-18.44-32-64.69-32-83.16 0l-239.94 416c-18.42 31.94 4.64 72 41.57 72h479.89c36.87 0 60.06-40 41.58-72zm-281.52 8a32 32 0 1 1 32-32 32 32 0 0 1 -32 32zm38.24-238.41-12.8 128a16 16 0 0 1 -15.92 14.41h-19a16 16 0 0 1 -15.92-14.41l-12.8-128a16 16 0 0 1 15.88-17.59h44.64a16 16 0 0 1 15.92 17.59z" opacity=".4"/><path d="m310.32 192h-44.64a16 16 0 0 0 -15.92 17.59l12.8 128a16 16 0 0 0 15.92 14.41h19a16 16 0 0 0 15.92-14.41l12.8-128a16 16 0 0 0 -15.88-17.59zm-22.32 192a32 32 0 1 0 32 32 32 32 0 0 0 -32-32z"/></svg>