<svg viewBox="0 0 448 512"><path d="m400 32h-352a48 48 0 0 0 -48 48v352a48 48 0 0 0 48 48h352a48 48 0 0 0 48-48v-352a48 48 0 0 0 -48-48zm-176 352a32 32 0 1 1 32-32 32 32 0 0 1 -32 32zm38.24-238.41-12.8 128a16 16 0 0 1 -15.92 14.41h-19a16 16 0 0 1 -15.92-14.41l-12.8-128a16 16 0 0 1 15.88-17.59h44.64a16 16 0 0 1 15.92 17.59z" opacity=".4"/><path d="m246.32 128h-44.64a16 16 0 0 0 -15.92 17.59l12.8 128a16 16 0 0 0 15.92 14.41h19a16 16 0 0 0 15.92-14.41l12.8-128a16 16 0 0 0 -15.88-17.59zm-22.32 192a32 32 0 1 0 32 32 32 32 0 0 0 -32-32z"/></svg>