<svg viewBox="0 0 448 512"><path d="m148 32h-124a23.94 23.94 0 0 0 -24 24v124a12 12 0 0 0 12 12h40a12 12 0 0 0 12-12v-84h84a12 12 0 0 0 12-12v-40a12 12 0 0 0 -12-12zm288 288h-40a12 12 0 0 0 -12 12v84h-84a12 12 0 0 0 -12 12v40a12 12 0 0 0 12 12h124a23.94 23.94 0 0 0 24-24v-124a12 12 0 0 0 -12-12z" opacity=".4"/><path d="m148 416h-84v-84a12 12 0 0 0 -12-12h-40a12 12 0 0 0 -12 12v124a23.94 23.94 0 0 0 24 24h124a12 12 0 0 0 12-12v-40a12 12 0 0 0 -12-12zm276-384h-124a12 12 0 0 0 -12 12v40a12 12 0 0 0 12 12h84v84a12 12 0 0 0 12 12h40a12 12 0 0 0 12-12v-124a23.94 23.94 0 0 0 -24-24z"/></svg>