<svg viewBox="0 0 448 512"><path d="m.05 168v-112a23.94 23.94 0 0 1 24-24h112c21.4 0 32.1 25.9 17 41l-36.2 36.2 107.2 107.2-39.65 39.6-107.25-107.25-36.1 36.25c-15.05 15.05-41 4.35-41-17zm407 159.1-36.05 36.15-107.3-107.25-39.65 39.65 107.2 107.2-36.2 36.2c-15.1 15.1-4.4 41 17 41h112a23.94 23.94 0 0 0 24-24v-112c0-21.4-25.9-32.05-41-17z" opacity=".4"/><path d="m370.9 148.8-254.1 254.1 36.2 36.1c15.1 15.1 4.4 41-17 41h-112a23.94 23.94 0 0 1 -24-24v-112c0-21.4 25.9-32.1 41-17l36.2 36.2 254.1-254.1-36.2-36.1c-15.1-15.1-4.4-41 17-41h112a23.94 23.94 0 0 1 24 24v112c0 21.4-25.9 32.1-41 17z"/></svg>