<svg viewBox="0 0 448 512"><path d="m400 32h-352a48 48 0 0 0 -48 48v352a48 48 0 0 0 48 48h352a48 48 0 0 0 48-48v-352a48 48 0 0 0 -48-48zm-16 227.33a23.34 23.34 0 0 1 -23.33 23.34h-14.91a23.34 23.34 0 0 1 -23.32-24l1.59-56-205.94 207.42a20 20 0 0 1 -28.33.05l-19.9-19.9a20 20 0 0 1 0-28.33l207.45-205.91-56 1.59a23.34 23.34 0 0 1 -24-23.32v-14.94a23.34 23.34 0 0 1 23.36-23.33h132.22a31.11 31.11 0 0 1 31.11 31.11z" opacity=".4"/><path d="m69.91 361.91 207.4-205.91-56 1.59a23.34 23.34 0 0 1 -24-23.32v-14.94a23.34 23.34 0 0 1 23.36-23.33h132.22a31.11 31.11 0 0 1 31.11 31.11v132.22a23.34 23.34 0 0 1 -23.33 23.34h-14.91a23.34 23.34 0 0 1 -23.32-24l1.59-56-205.94 207.42a20 20 0 0 1 -28.33.05l-19.9-19.9a20 20 0 0 1 .05-28.33z"/></svg>