<svg viewBox="0 0 640 512"><path d="m344.35 222.25a81 81 0 0 1 7.65 33.75c-.49 42.66-32 64-32 64s-31.48-21.34-32-64a81.1 81.1 0 0 1 7.64-33.75 170.14 170.14 0 0 0 48.68 0z" opacity=".4"/><path d="m627 239.08-111.87-30.3c-4.79-6.56-10.15-13.4-16.13-20.45 1.35-2.07 55.18-88 55.18-88 8.98-14.33-6.06-31.33-22.41-25.4l-119.77 43.36a215 215 0 0 0 -30.64-12.29l-44.47-95.27c-6.68-14.31-27.08-14.31-33.76 0l-44.47 95.27a213.81 213.81 0 0 0 -30.66 12.29l-119.76-43.36c-16.35-5.93-31.38 11.07-22.45 25.42 0 0 53.84 85.92 55.18 88q-8.43 9.93-16.13 20.45l-111.84 30.28c-17.29 4.68-17.29 29.15 0 33.83l111.87 30.3c4.78 6.54 10.11 13.35 16.07 20.38-1.34 2.09-55.12 88.05-55.12 88.05-8.97 14.36 6.07 31.36 22.42 25.43l119.76-43.36a213.81 213.81 0 0 0 30.66 12.29l44.47 95.24c6.68 14.31 27.08 14.31 33.76 0l44.47-95.24a213.81 213.81 0 0 0 30.64-12.29l119.77 43.36c16.35 5.92 31.39-11.11 22.45-25.43 0 0-53.78-86-55.12-88.05 6-7 11.29-13.84 16.07-20.38l111.87-30.3c17.29-4.68 17.29-29.14-.04-33.83zm-307 112.92a96 96 0 0 1 -80-149.08c21.92 13.18 49.72 21.08 80 21.08s58.08-7.9 80-21.08a96 96 0 0 1 -80 149.08z"/></svg>