<svg viewBox="0 0 640 512"><path d="m172.12 101.27a311.47 311.47 0 0 1 147.88-37.27c122.93 0 230.29 71.59 284.52 177.4a32.35 32.35 0 0 1 0 29.19 332.58 332.58 0 0 1 -81 102.25l-72.81-56.27a144 144 0 0 0 -222.2-171.73zm239 184.73c.55-1.68 1.07-3.38 1.54-5.11a95 95 0 0 0 -118-117.08 47.73 47.73 0 0 1 8.21 38.55zm-91.12 114c-75.85 0-137.25-58.71-142.9-133.11l-104.9-81.07c-13.79 17.3-26.48 35.59-36.72 55.59a32.35 32.35 0 0 0 0 29.19c54.23 105.81 161.59 177.4 284.52 177.4 26.91 0 52.87-4 77.89-10.46l-51.89-40.15a143.62 143.62 0 0 1 -26 2.61z" opacity=".4"/><path d="m636.64 480.55-19.64 25.27a16 16 0 0 1 -22.45 2.8l-588.37-454.72a16 16 0 0 1 -2.81-22.45l19.63-25.27a16 16 0 0 1 22.45-2.8l588.37 454.72a16 16 0 0 1 2.82 22.45z"/></svg>