<svg viewBox="0 0 448 512"><path d="m248 448.5v-33.5c103.55-11.92 184-99.76 184-206.51 0-114.86-93.13-207.99-208-207.99s-208 93.13-208 208c0 106.75 80.45 194.59 184 206.5v33.5zm-128.33-113.2c-7.09-4.08-14.57-16.86-5.14-28.28l67.47-82c-57.17-20.29-69.18-77.3-59.64-113a93.78 93.78 0 0 1 44-57.34c13-7.39 24.25 2.35 27 9.73l37.08 99a94.36 94.36 0 0 1 155.45 72 18.84 18.84 0 0 1 -21.91 18.57l-104.7-17.45a93.41 93.41 0 0 1 -10.7 64.11 94.47 94.47 0 0 1 -128.91 34.66z" opacity=".4"/><path d="m119.67 335.3a94.47 94.47 0 0 0 129-34.58 93.41 93.41 0 0 0 10.7-64.11l104.7 17.45a18.84 18.84 0 0 0 21.93-18.57 94.36 94.36 0 0 0 -155.45-72l-37.08-99c-2.78-7.38-14-17.12-27-9.73a93.78 93.78 0 0 0 -44 57.34c-9.54 35.67 2.47 92.68 59.64 113l-67.47 82c-9.54 11.34-2.06 24.12 5.03 28.2zm104.33-142.8a16 16 0 1 1 -16 16 16 16 0 0 1 16-16zm96 256h-192c-28.42 0-54.95 18.53-63.3 44.16-3.22 9.88 5.17 19.84 15.56 19.84h287.48c10.38 0 18.78-10 15.56-19.84-8.3-25.66-34.88-44.16-63.3-44.16z"/></svg>