<svg viewBox="0 0 512 512"><path d="m480 96v96h-352v-160a32 32 0 0 1 32-32h224v80a16 16 0 0 0 16 16z" opacity=".4"/><path d="m64 128h-32a32 32 0 0 0 -32 32v320a32 32 0 0 0 32 32h32a32 32 0 0 0 32-32v-320a32 32 0 0 0 -32-32zm416 64h-352v288a32 32 0 0 0 32 32h320a32 32 0 0 0 32-32v-256a32 32 0 0 0 -32-32zm-192 240a16 16 0 0 1 -16 16h-32a16 16 0 0 1 -16-16v-32a16 16 0 0 1 16-16h32a16 16 0 0 1 16 16zm0-128a16 16 0 0 1 -16 16h-32a16 16 0 0 1 -16-16v-32a16 16 0 0 1 16-16h32a16 16 0 0 1 16 16zm128 128a16 16 0 0 1 -16 16h-32a16 16 0 0 1 -16-16v-32a16 16 0 0 1 16-16h32a16 16 0 0 1 16 16zm0-128a16 16 0 0 1 -16 16h-32a16 16 0 0 1 -16-16v-32a16 16 0 0 1 16-16h32a16 16 0 0 1 16 16zm-16-208h80v-4.58a17.92 17.92 0 0 0 -5.25-12.67l-73.43-73.5a18 18 0 0 0 -12.75-5.25h-4.57v80a16 16 0 0 0 16 16z"/></svg>