<svg viewBox="0 0 384 512"><path d="m384 128h-112a16 16 0 0 1 -16-16v-112h-232a23.94 23.94 0 0 0 -24 23.88v464.12a23.94 23.94 0 0 0 23.88 24h336.12a23.94 23.94 0 0 0 24-23.88zm-192 64a64 64 0 1 1 -64 64 64 64 0 0 1 64-64zm112 236.8c0 10.61-10 19.2-22.4 19.2h-179.2c-12.4 0-22.4-8.6-22.4-19.2v-19.2c0-31.81 30.09-57.6 67.1-57.6h5a103.22 103.22 0 0 0 79.7 0h5c37.11 0 67.2 25.79 67.2 57.6z" opacity=".4"/><path d="m377 105-97.9-98a24 24 0 0 0 -17-7h-6.1v112a16 16 0 0 0 16 16h112v-6.1a23.9 23.9 0 0 0 -7-16.9zm-185 215a64 64 0 1 0 -64-64 64 64 0 0 0 64 64zm44.8 32h-5a103.22 103.22 0 0 1 -79.7 0h-5c-37 0-67.1 25.79-67.1 57.6v19.2c0 10.6 10 19.2 22.4 19.2h179.2c12.37 0 22.4-8.59 22.4-19.2v-19.2c0-31.81-30.09-57.6-67.2-57.6z"/></svg>