<svg viewBox="0 0 384 512"><path d="m384 128h-112a16 16 0 0 1 -16-16v-112h-232a23.94 23.94 0 0 0 -24 23.88v464.12a23.94 23.94 0 0 0 23.88 24h336.12a23.94 23.94 0 0 0 24-23.88zm-96 216a8 8 0 0 1 -8 8h-56v56a8 8 0 0 1 -8 8h-48a8 8 0 0 1 -8-8v-56h-56a8 8 0 0 1 -8-8v-48a8 8 0 0 1 8-8h56v-56a8 8 0 0 1 8-8h48a8 8 0 0 1 8 8v56h56a8 8 0 0 1 8 8z" opacity=".4"/><path d="m377 105-97.9-98a24 24 0 0 0 -17-7h-6.1v112a16 16 0 0 0 16 16h112v-6.1a23.9 23.9 0 0 0 -7-16.9zm-97 183h-56v-56a8 8 0 0 0 -8-8h-48a8 8 0 0 0 -8 8v56h-56a8 8 0 0 0 -8 8v48a8 8 0 0 0 8 8h56v56a8 8 0 0 0 8 8h48a8 8 0 0 0 8-8v-56h56a8 8 0 0 0 8-8v-48a8 8 0 0 0 -8-8z"/></svg>