<svg viewBox="0 0 384 512"><path d="m384 128h-112a16 16 0 0 1 -16-16v-112h-232a23.94 23.94 0 0 0 -24 23.88v464.12a23.94 23.94 0 0 0 23.88 24h336.12a23.94 23.94 0 0 0 24-23.88zm-218.1 250.8v57.2a12 12 0 0 1 -12 12h-30.8a12 12 0 0 1 -12-12v-199.8a12 12 0 0 1 12-12h81c44.5 0 72.9 32.8 72.9 77 0 90.3-88.8 77.6-111.1 77.6zm27.8-107.6h-27.9v60.7h26.9c9.2 0 16.2-2.9 21.1-8.5 10-11.4 9.8-33.2.2-44.1-4.8-5.4-11.5-8.1-20.3-8.1z" opacity=".4"/><path d="m377 105-97.9-98a24 24 0 0 0 -17-7h-6.1v112a16 16 0 0 0 16 16h112v-6.1a23.9 23.9 0 0 0 -7-16.9zm-172.9 119.2h-81a12 12 0 0 0 -12 12v199.8a12 12 0 0 0 12 12h30.8a12 12 0 0 0 12-12v-57.2c22.3 0 111.1 12.7 111.1-77.6 0-44.2-28.4-77-72.9-77zm9.7 99.2c-4.9 5.6-11.9 8.5-21.1 8.5h-26.9v-60.7h27.9c8.8 0 15.5 2.7 20.3 8.1 9.6 10.9 9.8 32.7-.2 44.1z"/></svg>