<svg viewBox="0 0 384 512"><path d="m384 128h-112a16 16 0 0 1 -16-16v-112h-232a23.94 23.94 0 0 0 -24 23.88v464.12a23.94 23.94 0 0 0 23.88 24h336.12a23.94 23.94 0 0 0 24-23.88zm-64 264c0 21.44-25.94 32-41 17l-55-55v38a24 24 0 0 1 -24 24h-112a24 24 0 0 1 -24-24v-112a24 24 0 0 1 24-24h112a24 24 0 0 1 24 24v38.06l55-55c15-15.06 41-4.5 41 16.94z" opacity=".4"/><path d="m377 105-97.9-98a24 24 0 0 0 -17-7h-6.1v112a16 16 0 0 0 16 16h112v-6.1a23.9 23.9 0 0 0 -7-16.9zm-98 158.06-55 55v-38.06a24 24 0 0 0 -24-24h-112a24 24 0 0 0 -24 24v112a24 24 0 0 0 24 24h112a24 24 0 0 0 24-24v-38l55 55c15.06 15 41 4.44 41-17v-112c0-21.44-26-32-41-16.94z"/></svg>