<svg viewBox="0 0 384 512"><path d="m384 128h-112a16 16 0 0 1 -16-16v-112h-232a23.94 23.94 0 0 0 -24 23.88v464.12a23.94 23.94 0 0 0 23.88 24h336.12a23.94 23.94 0 0 0 24-23.88zm-141.6 195.6-95 95-48.2 5.4a9.93 9.93 0 0 1 -2.2 0 10.17 10.17 0 0 1 -9-11.2l5.4-48.2 95-95a5.07 5.07 0 0 1 7.17 0l46.8 46.8a5.07 5.07 0 0 1 .03 7.2zm55.7-55.7-26 26a5.07 5.07 0 0 1 -7.17 0l-46.8-46.8a5.07 5.07 0 0 1 0-7.17l26-26a20.22 20.22 0 0 1 28.6 0l25.4 25.4a20.22 20.22 0 0 1 -.03 28.57z" opacity=".4"/><path d="m377 105-97.9-98a24 24 0 0 0 -17-7h-6.1v112a16 16 0 0 0 16 16h112v-6.1a23.9 23.9 0 0 0 -7-16.9zm-134.6 211.4-46.8-46.8a5.07 5.07 0 0 0 -7.17 0l-95 95-5.43 48.2a10.17 10.17 0 0 0 9 11.2 9.93 9.93 0 0 0 2.18 0l48.2-5.4 95-95a5.07 5.07 0 0 0 0-7.17zm55.7-77.1-25.4-25.4a20.22 20.22 0 0 0 -28.6 0l-26 26a5.07 5.07 0 0 0 0 7.17l46.8 46.8a5.07 5.07 0 0 0 7.17 0l26-26a20.22 20.22 0 0 0 0-28.6z"/></svg>