<svg viewBox="0 0 384 512"><path d="m224 136v-136h-200a23.94 23.94 0 0 0 -24 24v464a23.94 23.94 0 0 0 24 24h336a23.94 23.94 0 0 0 24-24v-328h-136a24.07 24.07 0 0 1 -24-24zm35.88 104.8 11.32 11.32a16 16 0 0 1 0 22.63l-45.26 45.25 45.26 45.25a16 16 0 0 1 0 22.63l-11.32 11.32a16 16 0 0 1 -22.63 0l-45.25-45.26-45.25 45.26a16 16 0 0 1 -22.63 0l-11.32-11.32a16 16 0 0 1 0-22.63l45.26-45.25-45.26-45.25a16 16 0 0 1 0-22.63l11.32-11.32a16 16 0 0 1 22.63 0l45.25 45.26 45.25-45.26a16 16 0 0 1 22.63 0zm117.12-135.8-97.9-98a24 24 0 0 0 -17-7h-6.1v128h128v-6.1a23.92 23.92 0 0 0 -7-16.9z" opacity=".4"/><path d="m271.2 387.88-11.32 11.32a16 16 0 0 1 -22.63 0l-45.25-45.26-45.25 45.26a16 16 0 0 1 -22.63 0l-11.32-11.32a16 16 0 0 1 0-22.63l45.26-45.25-45.26-45.25a16 16 0 0 1 0-22.63l11.32-11.32a16 16 0 0 1 22.63 0l45.25 45.26 45.25-45.26a16 16 0 0 1 22.63 0l11.32 11.32a16 16 0 0 1 0 22.63l-45.26 45.25 45.26 45.25a16 16 0 0 1 0 22.63z"/></svg>