<svg viewBox="0 0 384 512"><path d="m272 128a16 16 0 0 1 -16-16v-112h-96v32h-32v-32h-104a23.94 23.94 0 0 0 -24 23.88v464.12a23.94 23.94 0 0 0 23.88 24h336.12a23.94 23.94 0 0 0 24-23.88v-360.12zm-176.1-96h32v32h-32zm83.47 342.08a52.43 52.43 0 1 1 -102.74-21l19.37-97.08v-32h32v-32h-32v-32h32v-32h-32v-32h32v-32h32v32h-32v32h32v32h-32v32h32v32h-32v32h22.33a12.08 12.08 0 0 1 11.8 9.7l17.3 87.7a52.54 52.54 0 0 1 -.06 20.68z" opacity=".4"/><path d="m377 105-97.9-98a24 24 0 0 0 -17-7h-6.1v112a16 16 0 0 0 16 16h112v-6.1a23.9 23.9 0 0 0 -7-16.9zm-249.1-73h-32v32h32zm-31.9 128v32h32v-32zm64-160h-32v32h32zm-64 96v32h32v-32zm83.43 257.4-17.3-87.7a12.08 12.08 0 0 0 -11.8-9.7h-22.33v-32h-32v32l-19.37 97.1a52.43 52.43 0 1 0 102.8.3zm-51.1 36.6c-17.9 0-32.5-12-32.5-27s14.5-27 32.4-27 32.5 12.1 32.5 27-14.5 27-32.4 27zm31.67-198h-32v32h32zm0-64h-32v32h32zm0-64h-32v32h32z"/></svg>