<svg viewBox="0 0 512 512"><path d="m512 488v.12a23.94 23.94 0 0 1 -24 23.88h-336.12a23.94 23.94 0 0 1 -23.88-24v-136h127.63v64.9c0 14.27 17.28 21.34 27.37 11.27l95.56-96.17a17 17 0 0 0 0-23.93l-95.49-96.25c-10.09-10.07-27.37-3-27.37 11.27v65h-127.7v-264.21a23.94 23.94 0 0 1 24-23.88h232v112a16 16 0 0 0 16 16h112z" opacity=".4"/><path d="m505 105-97.9-98a24 24 0 0 0 -17-7h-6.1v112a16 16 0 0 0 16 16h112v-6.1a23.9 23.9 0 0 0 -7-16.9zm-221.93 106.82c-10.09-10.07-27.37-3-27.37 11.27v65h-239.7a16 16 0 0 0 -16 16v31.91a16 16 0 0 0 16 16h239.63v64.9c0 14.27 17.28 21.34 27.37 11.27l95.56-96.17a17 17 0 0 0 0-23.93z"/></svg>