<svg viewBox="0 0 384 512"><path d="m96 320h192v-64h-192zm288-192h-112a16 16 0 0 1 -16-16v-112h-232a23.94 23.94 0 0 0 -24 23.88v464.12a23.94 23.94 0 0 0 23.88 24h336.12a23.94 23.94 0 0 0 24-23.88zm-320-56a8 8 0 0 1 8-8h80a8 8 0 0 1 8 8v16a8 8 0 0 1 -8 8h-80a8 8 0 0 1 -8-8zm0 64a8 8 0 0 1 8-8h80a8 8 0 0 1 8 8v16a8 8 0 0 1 -8 8h-80a8 8 0 0 1 -8-8zm256 304a8 8 0 0 1 -8 8h-80a8 8 0 0 1 -8-8v-16a8 8 0 0 1 8-8h80a8 8 0 0 1 8 8zm0-104a16 16 0 0 1 -16 16h-224a16 16 0 0 1 -16-16v-96a16 16 0 0 1 16-16h224a16 16 0 0 1 16 16z" opacity=".4"/><path d="m377 105-97.9-98a24 24 0 0 0 -17-7h-6.1v112a16 16 0 0 0 16 16h112v-6.1a23.9 23.9 0 0 0 -7-16.9zm-73 119h-224a16 16 0 0 0 -16 16v96a16 16 0 0 0 16 16h224a16 16 0 0 0 16-16v-96a16 16 0 0 0 -16-16zm-16 96h-192v-64h192zm24 96h-80a8 8 0 0 0 -8 8v16a8 8 0 0 0 8 8h80a8 8 0 0 0 8-8v-16a8 8 0 0 0 -8-8z"/></svg>