<svg viewBox="0 0 384 512"><path d="m384 128h-112a16 16 0 0 1 -16-16v-112h-232a23.94 23.94 0 0 0 -24 23.88v464.12a23.94 23.94 0 0 0 23.88 24h336.12a23.94 23.94 0 0 0 24-23.88zm-219.2 80h55.23a12 12 0 0 1 11.17 12.8l-7.2 112a12 12 0 0 1 -12 11.2h-40a12 12 0 0 1 -12-11.2l-7.2-112v-.83a12 12 0 0 1 12-11.97zm27.2 232a40 40 0 1 1 40-40 40 40 0 0 1 -40 40z" opacity=".4"/><path d="m377 105-97.9-98a24 24 0 0 0 -17-7h-6.1v112a16 16 0 0 0 16 16h112v-6.1a23.9 23.9 0 0 0 -7-16.9zm-217 227.8a12 12 0 0 0 12 11.2h40a12 12 0 0 0 12-11.2l7.2-112a12 12 0 0 0 -11.2-12.8h-55.2a12 12 0 0 0 -12 12v.83zm32 27.2a40 40 0 1 0 40 40 40 40 0 0 0 -40-40z"/></svg>