<svg viewBox="0 0 576 512"><path d="m384 352.05v136.07a23.94 23.94 0 0 1 -24 23.88h-336.12a23.94 23.94 0 0 1 -23.88-24v-464.12a23.94 23.94 0 0 1 24-23.88h232v112a16 16 0 0 0 16 16h112v160.05h-176a16 16 0 0 0 -16 16v32a16 16 0 0 0 16 16z" opacity=".4"/><path d="m272 128h112v-6.1a23.9 23.9 0 0 0 -7-16.9l-97.9-98a24 24 0 0 0 -17-7h-6.1v112a16 16 0 0 0 16 16zm299 180.05-95.61-96.5c-10.1-10.1-27.41-3-27.41 11.3v65.2h-239.98a16 16 0 0 0 -16 16v32a16 16 0 0 0 16 16h239.93v65.1c0 14.3 17.31 21.4 27.41 11.3l95.71-96.4a17 17 0 0 0 -.05-24z"/></svg>