<svg viewBox="0 0 448 512"><path d="m448 488v.12a23.94 23.94 0 0 1 -24 23.88h-336.12a23.94 23.94 0 0 1 -23.88-24v-168h70.1l34.8 69.5a8 8 0 0 0 14.3 0l56.8-113.7 22.1 44.2h89.48a16.27 16.27 0 0 0 16.3-14 16.82 16.82 0 0 0 .13-2 16 16 0 0 0 -16-16h-70.21l-34.7-69.5a8 8 0 0 0 -14.3 0l-56.8 113.7-19.9-39.8a8.14 8.14 0 0 0 -7.2-4.4h-84.9v-264.12a23.94 23.94 0 0 1 24-23.88h232v112a16 16 0 0 0 16 16h112z" opacity=".4"/><path d="m441 105-97.9-98a24 24 0 0 0 -17-7h-6.1v112a16 16 0 0 0 16 16h112v-6.1a23.9 23.9 0 0 0 -7-16.9zm-89 183h-70.2l-34.7-69.5a8 8 0 0 0 -14.3 0l-56.8 113.7-19.9-39.8a8.14 8.14 0 0 0 -7.2-4.4h-140.9a8 8 0 0 0 -8 8v16a8 8 0 0 0 8 8h126.1l34.8 69.5a8 8 0 0 0 14.3 0l56.8-113.7 22.1 44.2h89.48a16.27 16.27 0 0 0 16.3-14 16.82 16.82 0 0 0 .13-2 16 16 0 0 0 -16.01-16z"/></svg>