<svg viewBox="0 0 384 512"><path d="m384 128h-112a16 16 0 0 1 -16-16v-112h-232a23.94 23.94 0 0 0 -24 23.88v464.12a23.94 23.94 0 0 0 23.88 24h336.12a23.94 23.94 0 0 0 24-23.88zm-271.46 48a48 48 0 1 1 -48 48 48 48 0 0 1 48-48zm208 240h-256l.46-48.48 39.51-39.52c4.69-4.69 11.8-4.2 16.49.48l39.54 39.52 103.46-103.52a12 12 0 0 1 17 0l39.54 39.52z" opacity=".4"/><path d="m377 105-97.9-98a24 24 0 0 0 -17-7h-6.1v112a16 16 0 0 0 16 16h112v-6.1a23.9 23.9 0 0 0 -7-16.9zm-264.46 167a48 48 0 1 0 -48-48 48 48 0 0 0 48 48zm151.46-7.55-103.46 103.55-39.54-39.52c-4.69-4.68-11.8-5.17-16.49-.48l-39.51 39.52-.46 48.48h256v-112l-39.54-39.52a12 12 0 0 0 -17-.03z"/></svg>