<svg viewBox="0 0 640 512"><path d="m300.59 257.71a160.1 160.1 0 0 0 83.41 209v21.45a23.94 23.94 0 0 1 -24 23.84h-336.12a23.94 23.94 0 0 1 -23.88-24v-464.12a23.94 23.94 0 0 1 24-23.88h232v112a16 16 0 0 0 16 16h112v45.33a160.34 160.34 0 0 0 -83.41 84.38z" opacity=".4"/><path d="m384 121.9a23.9 23.9 0 0 0 -7-16.9l-97.9-98a24 24 0 0 0 -17-7h-6.1v112a16 16 0 0 0 16 16h112zm251.31 340.16-77.41-77.41a126.65 126.65 0 0 0 18.1-64.65 128 128 0 1 0 -128 128c23.7 0 45.61-6.88 64.65-18.11l77.41 77.42a16 16 0 0 0 22.63 0l22.62-22.62a16 16 0 0 0 0-22.63zm-187.31-78.06a64 64 0 1 1 64-64 64 64 0 0 1 -64 64z"/></svg>