<svg viewBox="0 0 448 512"><path d="m352 96v-96h-200a24 24 0 0 0 -24 24v368a24 24 0 0 0 24 24h272a24 24 0 0 0 24-24v-296zm32 184a8 8 0 0 1 -8 8h-56v56a8 8 0 0 1 -8 8h-48a8 8 0 0 1 -8-8v-56h-56a8 8 0 0 1 -8-8v-48a8 8 0 0 1 8-8h56v-56a8 8 0 0 1 8-8h48a8 8 0 0 1 8 8v56h56a8 8 0 0 1 8 8z" opacity=".4"/><path d="m96 392v-296h-72a24 24 0 0 0 -24 24v368a24 24 0 0 0 24 24h272a24 24 0 0 0 24-24v-40h-168a56.06 56.06 0 0 1 -56-56zm280-168h-56v-56a8 8 0 0 0 -8-8h-48a8 8 0 0 0 -8 8v56h-56a8 8 0 0 0 -8 8v48a8 8 0 0 0 8 8h56v56a8 8 0 0 0 8 8h48a8 8 0 0 0 8-8v-56h56a8 8 0 0 0 8-8v-48a8 8 0 0 0 -8-8zm65-151-66-66a24 24 0 0 0 -17-7h-6v96h96v-6.06a24 24 0 0 0 -7-16.94z"/></svg>