<svg viewBox="0 0 576 512"><path d="m64 400a16 16 0 0 0 16 16h12.39a43.17 43.17 0 0 0 41-29.53l10.61-31.88 16.83 50.47c4.45 13.46 23.11 14.87 29.48 2.09l7.69-15.34a10.91 10.91 0 0 1 10-6.19 11.08 11.08 0 0 1 10.17 6.52 43 43 0 0 0 37.83 23.86h101l27-27.19v99.31a23.94 23.94 0 0 1 -24 23.88h-336.12a23.94 23.94 0 0 1 -23.88-24v-464.12a23.94 23.94 0 0 1 24-23.88h232v112a16 16 0 0 0 16 16h112v123.67l-96 95.33v37h-32a11.63 11.63 0 0 1 -9.35-6.5c-11.94-23.86-46.25-30.35-66-14.16l-13.88-41.64a24 24 0 0 0 -45.55 0l-18.22 54.64a11.21 11.21 0 0 1 -10.61 7.66h-12.39a16 16 0 0 0 -16 16z" opacity=".4"/><path d="m384 121.9a23.9 23.9 0 0 0 -7-16.9l-97.9-98a24 24 0 0 0 -17-7h-6.1v112a16 16 0 0 0 16 16h112zm-96 225.1v69h69l161.67-162.78-67.88-67.88zm280.56-179.65-31.87-31.87a25.48 25.48 0 0 0 -36 0l-27.25 27.25 67.88 67.88 27.25-27.25a25.45 25.45 0 0 0 -.01-36.01z"/></svg>