<svg viewBox="0 0 512 512"><path d="m512 128v360.12a23.94 23.94 0 0 1 -24 23.88h-264v-91.19a61.78 61.78 0 0 0 35.49-41.11c.38-1.42.72-2.72 1-3.94.66-2.56 1.4-5.39 1.89-7 1.14-1.23 3.12-3.24 4.92-5.06l2.91-2.94a62.5 62.5 0 0 0 15.79-59.38c-.37-1.41-.72-2.71-1-3.92-.69-2.61-1.46-5.5-1.84-7.16.38-1.68 1.16-4.6 1.86-7.25.31-1.18.65-2.45 1-3.83a62.45 62.45 0 0 0 -15.63-59.28l-2.76-2.81c-1.85-1.88-3.9-3.95-5.05-5.2-.49-1.64-1.23-4.51-1.91-7.1q-.47-1.8-1-3.9a61.69 61.69 0 0 0 -43.13-43.7h-.11l-3.75-1c-2.44-.66-5.13-1.39-6.75-1.88-1.23-1.18-3.22-3.21-5-5.05-.84-.86-1.73-1.78-2.71-2.77a60.88 60.88 0 0 0 -59.47-16.31h-.05l-3.77 1c-2.4.66-5 1.39-6.69 1.79v-109.13a23.94 23.94 0 0 1 23.76-23.88h232v112a16 16 0 0 0 16 16z" opacity=".4"/><path d="m505 105-97.9-98a24 24 0 0 0 -17-7h-6.1v112a16 16 0 0 0 16 16h112v-6.1a23.9 23.9 0 0 0 -7-16.9zm-250 166.09a30.14 30.14 0 0 0 -7.58-28.79c-14.86-15.12-13.42-12.61-18.86-33.3a29.57 29.57 0 0 0 -20.71-21c-20.28-5.53-17.84-4.1-32.69-19.21a28.92 28.92 0 0 0 -28.28-7.79c-20.32 5.54-17.46 5.53-37.75 0a28.94 28.94 0 0 0 -28.28 7.71c-14.91 15.18-12.5 13.7-32.68 19.21a29.53 29.53 0 0 0 -20.71 21.08c-5.46 20.74-4 18.13-18.87 33.27a30.15 30.15 0 0 0 -7.59 28.82c5.45 20.71 5.42 17.79 0 38.41a30.12 30.12 0 0 0 7.58 28.78c14.86 15.11 13.42 12.61 18.88 33.27a29.52 29.52 0 0 0 20.71 21.07c14.3 3.9 11.52 3 15.83 5v114.38l64-32 64 32v-114.37c4.31-2 1.52-1.1 15.84-5a29.53 29.53 0 0 0 20.7-21.07c5.47-20.74 4-18.13 18.88-33.27a30.12 30.12 0 0 0 7.58-28.78c-5.43-20.65-5.44-17.74 0-38.42zm-127 80.91a64 64 0 1 1 64-64 64 64 0 0 1 -64 64z"/></svg>