<svg viewBox="0 0 384 512"><path d="m384 128h-112a16 16 0 0 1 -16-16v-112h-232a23.94 23.94 0 0 0 -24 23.88v464.12a23.94 23.94 0 0 0 23.88 24h336.12a23.94 23.94 0 0 0 24-23.88zm-320-56a8 8 0 0 1 8-8h80a8 8 0 0 1 8 8v16a8 8 0 0 1 -8 8h-80a8 8 0 0 1 -8-8zm0 64a8 8 0 0 1 8-8h80a8 8 0 0 1 8 8v16a8 8 0 0 1 -8 8h-80a8 8 0 0 1 -8-8zm240 280h-47.19a43 43 0 0 1 -38.64-23.86 11.08 11.08 0 0 0 -10.17-6.52 10.91 10.91 0 0 0 -10 6.19l-7.67 15.34a16 16 0 0 1 -14.33 8.85 8.77 8.77 0 0 1 -1.14-.05 16 16 0 0 1 -14-10.89l-16.86-50.47-10.61 31.88a43.17 43.17 0 0 1 -41 29.53h-12.39a16 16 0 0 1 0-32h12.39a11.21 11.21 0 0 0 10.61-7.66l18.19-54.64a24 24 0 0 1 45.55 0l13.88 41.64c19.8-16.19 54.08-9.7 66 14.16a11.39 11.39 0 0 0 10.16 6.5h47.22a16 16 0 0 1 0 32z" opacity=".4"/><path d="m377 105-97.9-98a24 24 0 0 0 -17-7h-6.1v112a16 16 0 0 0 16 16h112v-6.1a23.9 23.9 0 0 0 -7-16.9zm-73 279h-47.19a11.39 11.39 0 0 1 -10.16-6.5c-12-23.86-46.23-30.35-66-14.16l-13.91-41.64a24 24 0 0 0 -45.55 0l-18.19 54.64a11.21 11.21 0 0 1 -10.61 7.66h-12.39a16 16 0 0 0 0 32h12.39a43.17 43.17 0 0 0 41-29.53l10.61-31.88 16.86 50.47a16 16 0 0 0 14 10.89 8.77 8.77 0 0 0 1.14.05 16 16 0 0 0 14.33-8.85l7.67-15.34a10.91 10.91 0 0 1 10-6.19 11.08 11.08 0 0 1 10.17 6.52 43 43 0 0 0 38.64 23.86h47.19a16 16 0 0 0 0-32z"/></svg>