<svg viewBox="0 0 384 512"><path d="m384 128h-112a16 16 0 0 1 -16-16v-112h-232a23.94 23.94 0 0 0 -24 23.88v464.12a23.94 23.94 0 0 0 23.88 24h336.12a23.94 23.94 0 0 0 24-23.88zm-224 276a12 12 0 0 1 -20.5 8.5l-35.5-36.5h-28a12 12 0 0 1 -12-12v-56a12 12 0 0 1 12-12h28l35.5-36.48a12 12 0 0 1 20.5 8.48zm33.24-51.13a24.05 24.05 0 0 0 0-33.57c-22.08-22.91 12.2-56.48 34.38-33.66a72.64 72.64 0 0 1 0 100.9c-21.78 22.38-56.86-10.48-34.38-33.7zm86.2 83.66c-21.67 22.4-56.66-10.31-34.19-33.52a96.39 96.39 0 0 0 0-133.85c-22-22.81 12.22-56.32 34.19-33.51 54.08 55.87 54.08 144.94 0 200.85z" opacity=".4"/><path d="m377 105-97.9-98a24 24 0 0 0 -17-7h-6.1v112a16 16 0 0 0 16 16h112v-6.1a23.9 23.9 0 0 0 -7-16.9zm-229 151a12 12 0 0 0 -8.53 3.53l-35.47 36.47h-28a12 12 0 0 0 -12 12v56a12 12 0 0 0 12 12h28l35.5 36.48a12 12 0 0 0 20.5-8.48v-136a12 12 0 0 0 -12-12zm79.59 29.61c-22.18-22.82-56.46 10.75-34.38 33.66a24.05 24.05 0 0 1 0 33.57c-22.48 23.22 12.6 56.08 34.38 33.67a72.64 72.64 0 0 0 .03-100.9zm51.82-50c-22-22.81-56.16 10.7-34.19 33.51a96.39 96.39 0 0 1 0 133.85c-22.47 23.21 12.52 55.92 34.19 33.52 54.08-55.91 54.08-145 0-200.88z"/></svg>