<svg viewBox="0 0 384 512"><path d="m384 128h-112a16 16 0 0 1 -16-16v-112h-232a23.94 23.94 0 0 0 -24 23.88v464.12a23.94 23.94 0 0 0 23.88 24h336.12a23.94 23.94 0 0 0 24-23.88zm-103.49 318.09a12 12 0 0 1 -6.51 1.91h-34.9a12 12 0 0 1 -10.6-6.3c-19.6-36.2-36.5-68.7-36.5-68.7-6.4 14.8-10 20-36.6 68.8a11.89 11.89 0 0 1 -10.5 6.3h-34.9a12 12 0 0 1 -10.1-18.5l60.3-93.5-60.3-93.5a12 12 0 0 1 10.1-18.5h34.8a12 12 0 0 1 10.6 6.3c26.1 48.8 20 33.6 36.6 68.5 0 0 6.1-11.7 36.6-68.5a12 12 0 0 1 10.6-6.3h34.8a11.93 11.93 0 0 1 10.1 18.4l-60.1 93.5 60.1 93.5a12 12 0 0 1 -3.59 16.59z" opacity=".4"/><path d="m377 105-97.9-98a24 24 0 0 0 -17-7h-6.1v112a16 16 0 0 0 16 16h112v-6.1a23.9 23.9 0 0 0 -7-16.9zm-153 231 60.1-93.5a11.93 11.93 0 0 0 -10.1-18.4h-34.8a12 12 0 0 0 -10.6 6.3c-30.5 56.8-36.6 68.5-36.6 68.5-16.6-34.9-10.5-19.7-36.6-68.5a12 12 0 0 0 -10.6-6.3h-34.8a12 12 0 0 0 -10.1 18.5l60.3 93.5-60.3 93.5a12 12 0 0 0 10.1 18.5h34.9a11.89 11.89 0 0 0 10.5-6.3c26.6-48.8 30.2-54 36.6-68.8 0 0 16.9 32.5 36.5 68.7a12 12 0 0 0 10.6 6.3h34.9a12 12 0 0 0 10.1-18.5z"/></svg>