<svg viewBox="0 0 384 512"><path d="m384 128h-112a16 16 0 0 1 -16-16v-112h-232a23.94 23.94 0 0 0 -24 23.88v464.12a23.94 23.94 0 0 0 23.88 24h336.12a23.94 23.94 0 0 0 24-23.88zm-70.7 158.67-143 141.81a12 12 0 0 1 -17 0l-82.6-83.31a12 12 0 0 1 .07-17l28.4-28.17a12 12 0 0 1 17 0l46 46.35 106-105.18a12 12 0 0 1 17 0l28.17 28.4a12 12 0 0 1 -.04 17.1z" opacity=".4"/><path d="m285.17 241.3a12 12 0 0 0 -17 0l-106 105.18-46-46.35a12 12 0 0 0 -17 0l-28.4 28.2a12 12 0 0 0 -.07 17l82.57 83.27a12 12 0 0 0 17 0l143-141.81a12 12 0 0 0 0-17zm91.83-136.3-97.9-98a24 24 0 0 0 -17-7h-6.1v112a16 16 0 0 0 16 16h112v-6.1a23.9 23.9 0 0 0 -7-16.9z"/></svg>