<svg viewBox="0 0 384 512"><path d="m384 128h-112a16 16 0 0 1 -16-16v-112h-232a23.94 23.94 0 0 0 -24 23.88v464.12a23.94 23.94 0 0 0 23.88 24h336.12a23.94 23.94 0 0 0 24-23.88zm-96 244a12 12 0 0 1 -12 12h-168a12 12 0 0 1 -12-12v-8a12 12 0 0 1 12-12h168a12 12 0 0 1 12 12zm0-64a12 12 0 0 1 -12 12h-168a12 12 0 0 1 -12-12v-8a12 12 0 0 1 12-12h168a12 12 0 0 1 12 12zm0-64a12 12 0 0 1 -12 12h-168a12 12 0 0 1 -12-12v-8a12 12 0 0 1 12-12h168a12 12 0 0 1 12 12z" opacity=".4"/><path d="m377 105-97.9-98a24 24 0 0 0 -17-7h-6.1v112a16 16 0 0 0 16 16h112v-6.1a23.9 23.9 0 0 0 -7-16.9zm-101 247h-168a12 12 0 0 0 -12 12v8a12 12 0 0 0 12 12h168a12 12 0 0 0 12-12v-8a12 12 0 0 0 -12-12zm0-64h-168a12 12 0 0 0 -12 12v8a12 12 0 0 0 12 12h168a12 12 0 0 0 12-12v-8a12 12 0 0 0 -12-12zm0-64h-168a12 12 0 0 0 -12 12v8a12 12 0 0 0 12 12h168a12 12 0 0 0 12-12v-8a12 12 0 0 0 -12-12z"/></svg>