<svg viewBox="0 0 384 512"><path d="m272 128a16 16 0 0 1 -16-16v-112h-232a23.94 23.94 0 0 0 -24 23.88v464.12a23.94 23.94 0 0 0 23.88 24h336.12a23.94 23.94 0 0 0 24-23.88v-360.12zm56 304a16 16 0 0 1 -16 16h-240a16 16 0 0 1 -16-16v-192a16 16 0 0 1 16-16h240a16 16 0 0 1 16 16z" opacity=".4"/><path d="m377 105-97.9-98a24 24 0 0 0 -17-7h-6.1v112a16 16 0 0 0 16 16h112v-6.1a23.9 23.9 0 0 0 -7-16.9zm-65 119h-240a16 16 0 0 0 -16 16v192a16 16 0 0 0 16 16h240a16 16 0 0 0 16-16v-192a16 16 0 0 0 -16-16zm-176 192h-48v-48h48zm0-80h-48v-48h48zm80 80h-48v-48h48zm0-80h-48v-48h48zm80 80h-48v-48h48zm0-80h-48v-48h48z"/></svg>