<svg viewBox="0 0 384 512"><path d="m377 105-97.91-98a24 24 0 0 0 -17-7h-6.09v128h128v-6.09a23.91 23.91 0 0 0 -7-16.91zm-153 31v-136h-200a23.94 23.94 0 0 0 -24 24v464a23.94 23.94 0 0 0 24 24h336a23.94 23.94 0 0 0 24-24v-328h-136a24.08 24.08 0 0 1 -24-24zm64 88v160c0 17.67-21.5 32-48 32s-48-14.33-48-32 21.5-32 48-32a69.82 69.82 0 0 1 16 2v-76.36l-96 37.52v100.84c0 17.67-21.5 32-48 32s-48-14.33-48-32 21.5-32 48-32a69.82 69.82 0 0 1 16 2v-114.75a16 16 0 0 1 11.19-15.25l128-47.25a16 16 0 0 1 20.81 15.25z" opacity=".4"/><path d="m288 224v160c0 17.67-21.5 32-48 32s-48-14.33-48-32 21.5-32 48-32a69.82 69.82 0 0 1 16 2v-76.36l-96 37.52v100.84c0 17.67-21.5 32-48 32s-48-14.33-48-32 21.5-32 48-32a69.82 69.82 0 0 1 16 2v-114.75a16 16 0 0 1 11.19-15.25l128-47.25a16 16 0 0 1 20.81 15.25z"/></svg>