<svg viewBox="0 0 384 512"><path d="m176 240h-48v32h48a16 16 0 0 0 0-32zm96-112a16 16 0 0 1 -16-16v-112h-232a23.94 23.94 0 0 0 -24 23.88v464.12a23.94 23.94 0 0 0 23.88 24h336.12a23.94 23.94 0 0 0 24-23.88v-360.12zm32 304-11.31 11.32a16 16 0 0 1 -22.63 0l-30.06-30.07-30.06 30.06a16 16 0 0 1 -22.63 0l-11.31-11.31a16 16 0 0 1 0-22.63l30.06-30.06-59.32-59.31h-18.74v48a16 16 0 0 1 -16 16h-16a16 16 0 0 1 -16-16v-160a16 16 0 0 1 16-16h80a63.8 63.8 0 0 1 30.54 119.92l33.46 33.46 29.9-29.9a16 16 0 0 1 22.63 0l11.31 11.31a16 16 0 0 1 0 22.63l-29.9 29.9 30.06 30.06a16 16 0 0 1 0 22.62z" opacity=".4"/><path d="m377 105-97.9-98a24 24 0 0 0 -17-7h-6.1v112a16 16 0 0 0 16 16h112v-6.1a23.9 23.9 0 0 0 -7-16.9zm-103.06 274.32 29.9-29.9a16 16 0 0 0 0-22.63l-11.31-11.31a16 16 0 0 0 -22.63 0l-29.9 29.9-33.46-33.46a63.8 63.8 0 0 0 -30.54-119.92h-80a16 16 0 0 0 -16 16v160a16 16 0 0 0 16 16h16a16 16 0 0 0 16-16v-48h18.74l59.32 59.31-30.06 30.06a16 16 0 0 0 0 22.63l11.31 11.31a16 16 0 0 0 22.63 0l30.06-30.06 30.06 30.07a16 16 0 0 0 22.63 0l11.31-11.32a16 16 0 0 0 0-22.62zm-97.94-107.32h-48v-32h48a16 16 0 0 1 0 32z"/></svg>