<svg viewBox="0 0 384 512"><path d="m384 128h-112a16 16 0 0 1 -16-16v-112h-232a23.94 23.94 0 0 0 -24 23.88v464.12a23.94 23.94 0 0 0 23.88 24h336.12a23.94 23.94 0 0 0 24-23.88zm-94.82 224h-65.18v80a16 16 0 0 1 -16 16h-32a16 16 0 0 1 -16-16v-80h-65.18c-14.28 0-21.41-17.29-11.27-27.36l96.45-95.64a17.06 17.06 0 0 1 24 0l96.43 95.65c10.15 10.07 3 27.35-11.25 27.35z" opacity=".4"/><path d="m377 105-97.9-98a24 24 0 0 0 -17-7h-6.1v112a16 16 0 0 0 16 16h112v-6.1a23.9 23.9 0 0 0 -7-16.9zm-173 124a17.06 17.06 0 0 0 -24 0l-96.45 95.64c-10.14 10.07-3.01 27.36 11.27 27.36h65.18v80a16 16 0 0 0 16 16h32a16 16 0 0 0 16-16v-80h65.18c14.25 0 21.4-17.29 11.25-27.36z"/></svg>