<svg viewBox="0 0 384 512"><path d="m384 128h-112a16 16 0 0 1 -16-16v-112h-232a23.94 23.94 0 0 0 -24 23.88v464.12a23.94 23.94 0 0 0 23.88 24h336.12a23.94 23.94 0 0 0 24-23.88zm-242.21 251.54-19.58 20.84a5.41 5.41 0 0 1 -7.64.24l-64.86-60.69a5.37 5.37 0 0 1 -.24-7.6l.25-.25 64.86-60.7a5.42 5.42 0 0 1 7.64.24l19.58 20.85a5.4 5.4 0 0 1 -.25 7.62l-.13.12-40.77 35.79 40.76 35.8a5.4 5.4 0 0 1 .49 7.62zm31.71 71.25-27.45-8a5.38 5.38 0 0 1 -3.67-6.67l61.49-211.24a5.38 5.38 0 0 1 6.68-3.64l27.45 8a5.4 5.4 0 0 1 3.63 6.67l-61.45 211.2a5.4 5.4 0 0 1 -6.68 3.68zm161-111.12-.25.25-64.86 60.69a5.42 5.42 0 0 1 -7.64-.23l-19.58-20.84a5.37 5.37 0 0 1 .26-7.6l.13-.12 40.79-35.82-40.76-35.8a5.4 5.4 0 0 1 -.49-7.62l.11-.12 19.58-20.85a5.42 5.42 0 0 1 7.64-.24l64.86 60.7a5.36 5.36 0 0 1 .25 7.6z" opacity=".4"/><path d="m377 105-97.9-98a24 24 0 0 0 -17-7h-6.1v112a16 16 0 0 0 16 16h112v-6.1a23.9 23.9 0 0 0 -7-16.9zm-235.59 266.8-40.76-35.8 40.76-35.8.13-.12a5.4 5.4 0 0 0 .25-7.62l-19.58-20.85a5.42 5.42 0 0 0 -7.64-.24l-64.86 60.7-.25.25a5.37 5.37 0 0 0 .24 7.6l64.86 60.69a5.41 5.41 0 0 0 7.64-.24l19.58-20.84.11-.12a5.4 5.4 0 0 0 -.48-7.61zm100.22-135.93a5.4 5.4 0 0 0 -3.63-6.67l-27.45-8a5.38 5.38 0 0 0 -6.68 3.64l-61.5 211.29a5.38 5.38 0 0 0 3.63 6.67l27.45 8a5.4 5.4 0 0 0 6.68-3.68l61.44-211.22zm92.66 96.2-64.86-60.7a5.42 5.42 0 0 0 -7.64.24l-19.58 20.85-.11.12a5.4 5.4 0 0 0 .49 7.62l40.76 35.8-40.76 35.8-.13.12a5.37 5.37 0 0 0 -.26 7.6l19.58 20.84a5.42 5.42 0 0 0 7.64.23l64.86-60.69.25-.25a5.36 5.36 0 0 0 -.25-7.6z"/></svg>