<svg viewBox="0 0 384 512"><path d="m384 128h-112a16 16 0 0 1 -16-16v-112h-232a23.94 23.94 0 0 0 -24 23.88v464.12a23.94 23.94 0 0 0 23.88 24h336.12a23.94 23.94 0 0 0 24-23.88zm-256 152a8 8 0 0 1 -8 8h-8a16 16 0 0 0 -16 16v32a16 16 0 0 0 16 16h8a8 8 0 0 1 8 8v16a8 8 0 0 1 -8 8h-8a48 48 0 0 1 -48-48v-32a48 48 0 0 1 48-48h8a8 8 0 0 1 8 8zm44.27 104h-12.27a8 8 0 0 1 -8-8v-16a8 8 0 0 1 8-8h12.27c5.95 0 10.41-3.5 10.41-6.62a5.28 5.28 0 0 0 -2.12-3.84l-21.89-18.77a37.11 37.11 0 0 1 -13.33-28.14c0-21.3 19-38.62 42.41-38.62h12.25a8 8 0 0 1 8 8v16a8 8 0 0 1 -8 8h-12.27c-5.95 0-10.41 3.5-10.41 6.62a5.28 5.28 0 0 0 2.12 3.84l21.89 18.77a37.12 37.12 0 0 1 13.33 28.13c.01 21.29-19 38.63-42.39 38.63zm147.73-99.2c0 35.48-12.88 68.89-36.28 94.09-.27.29-.54.56-.83.83a16 16 0 0 1 -22.61-.83c-23.4-25.2-36.28-58.61-36.28-94.09v-20.8a8 8 0 0 1 8-8h16a8 8 0 0 1 8 8v20.8a109 109 0 0 0 16 56.88 109 109 0 0 0 16-56.88v-20.8a8 8 0 0 1 8-8h16a8 8 0 0 1 8 8z" opacity=".4"/><path d="m377 105-97.9-98a24 24 0 0 0 -17-7h-6.1v112a16 16 0 0 0 16 16h112v-6.1a23.9 23.9 0 0 0 -7-16.9zm-257 151h-8a48 48 0 0 0 -48 48v32a48 48 0 0 0 48 48h8a8 8 0 0 0 8-8v-16a8 8 0 0 0 -8-8h-8a16 16 0 0 1 -16-16v-32a16 16 0 0 1 16-16h8a8 8 0 0 0 8-8v-16a8 8 0 0 0 -8-8zm192 0h-16a8 8 0 0 0 -8 8v20.8a109 109 0 0 1 -16 56.88 109 109 0 0 1 -16-56.88v-20.8a8 8 0 0 0 -8-8h-16a8 8 0 0 0 -8 8v20.8c0 35.48 12.88 68.89 36.28 94.09a16 16 0 0 0 22.61.83c.29-.27.56-.54.83-.83 23.4-25.2 36.28-58.61 36.28-94.09v-20.8a8 8 0 0 0 -8-8zm-110.67 61.24-21.89-18.77a5.28 5.28 0 0 1 -2.12-3.84c0-3.12 4.46-6.62 10.41-6.62h12.27a8 8 0 0 0 8-8v-16.01a8 8 0 0 0 -8-8h-12.25c-23.39 0-42.41 17.32-42.41 38.62a37.11 37.11 0 0 0 13.33 28.14l21.89 18.77a5.28 5.28 0 0 1 2.12 3.84c0 3.12-4.46 6.62-10.41 6.62h-12.27a8 8 0 0 0 -8 8v16a8 8 0 0 0 8 8h12.27c23.39 0 42.4-17.33 42.39-38.62a37.12 37.12 0 0 0 -13.33-28.13z"/></svg>