<svg viewBox="0 0 384 512"><path d="m384 128h-112a16 16 0 0 1 -16-16v-112h-232a23.94 23.94 0 0 0 -24 23.88v464.12a23.94 23.94 0 0 0 23.88 24h336.12a23.94 23.94 0 0 0 24-23.88zm-247.53 310.5a111.26 111.26 0 0 1 -63-63c-30-77.36 17.44-150.7 86.53-164.84v141.34h141.34c-14.14 69.09-87.48 116.58-164.87 86.5zm55.53-118.5v-120.14a120.12 120.12 0 0 1 120.14 120.14z" opacity=".4"/><path d="m377 105-97.9-98a24 24 0 0 0 -17-7h-6.1v112a16 16 0 0 0 16 16h112v-6.1a23.9 23.9 0 0 0 -7-16.9zm-217 105.66c-69.09 14.14-116.58 87.48-86.53 164.84a111.26 111.26 0 0 0 63 63c77.39 30.08 150.73-17.41 164.87-86.5h-141.34z"/></svg>