<svg viewBox="0 0 512 512"><path d="m386.39 288-150.61 150.61a32 32 0 0 1 -45.22 0l-117.19-117.21a31.86 31.86 0 0 1 -9.37-22.62 32.59 32.59 0 0 1 1.87-10.78z" opacity=".4"/><path d="m502.63 217-207.69-207.66a32 32 0 0 0 -45.25 0l-81.58 81.58-86.18-86.19a16 16 0 0 0 -22.62 0l-22.62 22.62a16 16 0 0 0 0 22.62l86.19 86.18-94.76 94.76a96 96 0 0 0 0 135.75l117.19 117.19a96 96 0 0 0 135.74 0l221.57-221.57a32 32 0 0 0 .01-45.28zm-266.85 221.61a32 32 0 0 1 -45.22 0l-117.19-117.21a32 32 0 0 1 0-45.24l94.75-94.74 58.6 58.58a32 32 0 0 0 45.28-45.23l-58.6-58.6 58.92-58.93 162.42 162.41z"/></svg>