<svg viewBox="0 0 576 512"><path d="m320 448h-288v-352h288z" opacity=".4"/><path d="m544 128h-224v288h160a32 32 0 0 0 32-32v-32a32 32 0 0 1 32-32 32 32 0 0 0 32-32v-128a32 32 0 0 0 -32-32zm-104 232a16 16 0 0 1 -16 16h-16a16 16 0 0 1 -16-16v-16a16 16 0 0 1 16-16h16a16 16 0 0 1 16 16zm0-160a16 16 0 0 1 -16 16h-16a16 16 0 0 1 -16-16v-16a16 16 0 0 1 16-16h16a16 16 0 0 1 16 16zm96 0a16 16 0 0 1 -16 16h-16a16 16 0 0 1 -16-16v-16a16 16 0 0 1 16-16h16a16 16 0 0 1 16 16zm-520-104h320a16 16 0 0 0 16-16v-32a16 16 0 0 0 -16-16h-80v-16a16 16 0 0 0 -16-16h-128a16 16 0 0 0 -16 16v16h-80a16 16 0 0 0 -16 16v32a16 16 0 0 0 16 16zm320 352h-320a16 16 0 0 0 -16 16v32a16 16 0 0 0 16 16h320a16 16 0 0 0 16-16v-32a16 16 0 0 0 -16-16z"/></svg>