<svg viewBox="0 0 512 512"><path d="m356 280h-200a12 12 0 0 0 -12 12v96a12 12 0 0 0 12 12h200a12 12 0 0 0 12-12v-96a12 12 0 0 0 -12-12zm0-168h-200a12 12 0 0 0 -12 12v96a12 12 0 0 0 12 12h200a12 12 0 0 0 12-12v-96a12 12 0 0 0 -12-12z" opacity=".4"/><path d="m488 64h-8v20a12 12 0 0 1 -12 12h-40a12 12 0 0 1 -12-12v-20h-320v20a12 12 0 0 1 -12 12h-40a12 12 0 0 1 -12-12v-20h-8a23.94 23.94 0 0 0 -24 24v336a23.94 23.94 0 0 0 24 24h8v-20a12 12 0 0 1 12-12h40a12 12 0 0 1 12 12v20h320v-20a12 12 0 0 1 12-12h40a12 12 0 0 1 12 12v20h8a23.94 23.94 0 0 0 24-24v-336a23.94 23.94 0 0 0 -24-24zm-392 308a12 12 0 0 1 -12 12h-40a12 12 0 0 1 -12-12v-40a12 12 0 0 1 12-12h40a12 12 0 0 1 12 12zm0-96a12 12 0 0 1 -12 12h-40a12 12 0 0 1 -12-12v-40a12 12 0 0 1 12-12h40a12 12 0 0 1 12 12zm0-96a12 12 0 0 1 -12 12h-40a12 12 0 0 1 -12-12v-40a12 12 0 0 1 12-12h40a12 12 0 0 1 12 12zm272 208a12 12 0 0 1 -12 12h-200a12 12 0 0 1 -12-12v-96a12 12 0 0 1 12-12h200a12 12 0 0 1 12 12zm0-168a12 12 0 0 1 -12 12h-200a12 12 0 0 1 -12-12v-96a12 12 0 0 1 12-12h200a12 12 0 0 1 12 12zm112 152a12 12 0 0 1 -12 12h-40a12 12 0 0 1 -12-12v-40a12 12 0 0 1 12-12h40a12 12 0 0 1 12 12zm0-96a12 12 0 0 1 -12 12h-40a12 12 0 0 1 -12-12v-40a12 12 0 0 1 12-12h40a12 12 0 0 1 12 12zm0-96a12 12 0 0 1 -12 12h-40a12 12 0 0 1 -12-12v-40a12 12 0 0 1 12-12h40a12 12 0 0 1 12 12z"/></svg>