<svg viewBox="0 0 512 512"><path d="m369 448h-226v-384h226z" opacity=".4"/><path d="m488.12 64h-8.12v20a12 12 0 0 1 -12 12h-40a12 12 0 0 1 -12-12v-20h-47v384h47v-20a12 12 0 0 1 12-12h40a12 12 0 0 1 12 12v20h8a23.94 23.94 0 0 0 24-23.88v-336.12a23.94 23.94 0 0 0 -23.88-24zm-8.12 308a12 12 0 0 1 -12 12h-40a12 12 0 0 1 -12-12v-40a12 12 0 0 1 12-12h40a12 12 0 0 1 12 12zm0-96a12 12 0 0 1 -12 12h-40a12 12 0 0 1 -12-12v-40a12 12 0 0 1 12-12h40a12 12 0 0 1 12 12zm0-96a12 12 0 0 1 -12 12h-40a12 12 0 0 1 -12-12v-40a12 12 0 0 1 12-12h40a12 12 0 0 1 12 12zm-384-96a12 12 0 0 1 -12 12h-40a12 12 0 0 1 -12-12v-20h-8a23.94 23.94 0 0 0 -24 23.88v336.12a23.94 23.94 0 0 0 23.88 24h8.12v-20a12 12 0 0 1 12-12h40a12 12 0 0 1 12 12v20h47v-384h-47zm0 288a12 12 0 0 1 -12 12h-40a12 12 0 0 1 -12-12v-40a12 12 0 0 1 12-12h40a12 12 0 0 1 12 12zm0-96a12 12 0 0 1 -12 12h-40a12 12 0 0 1 -12-12v-40a12 12 0 0 1 12-12h40a12 12 0 0 1 12 12zm0-96a12 12 0 0 1 -12 12h-40a12 12 0 0 1 -12-12v-40a12 12 0 0 1 12-12h40a12 12 0 0 1 12 12z"/></svg>