<svg viewBox="0 0 448 512"><path d="m323.56 51.2a597.38 597.38 0 0 0 -56.22 60c-27.26-37.58-61.06-75.67-99.34-111.2-98.26 91.17-168 210-168 281.6 0 127.25 100.29 230.4 224 230.4s224-103.15 224-230.4c0-53.27-52-163.14-124.44-230.4zm-1.12 366.87a165.81 165.81 0 0 1 -95.58 29.93c-43.93 0-84.43-14.89-114.06-41.92a146.18 146.18 0 0 1 -35.88-50.39c-8.57-19.87-12.92-41.69-12.92-64.94 0-59.43 42.8-106.39 104.3-180.12 30 34.59 18.49 19.78 100.7 124.59l62-70.74c24.32 40.25 27.78 45.59 34.84 59.1a157.93 157.93 0 0 1 15 104.62c-7.49 36.85-28.24 68.8-58.4 89.87z" opacity=".4"/><path d="m304.09 391.85a134.39 134.39 0 0 1 -77.23 24.15c-72.15 0-130.86-47.74-130.86-125.25 0-38.61 24.31-72.63 72.79-130.75 6.93 8 98.83 125.34 98.83 125.34l58.63-66.88c4.14 6.85 7.91 13.55 11.27 20 27.35 52.19 15.81 119-33.43 153.42z"/></svg>