<svg viewBox="0 0 384 512"><path d="m216 23.86c0-14.8-11.85-23.86-24-23.86a24 24 0 0 0 -20.1 10.82c-123.9 181.03 52.1 189.18 52.1 277.18v.81a64 64 0 0 1 -64 63.19h-.87c-35.13-.5-63.13-29.82-63.13-65v-85.5c0-14.52-11.83-24-24.15-24a23.63 23.63 0 0 0 -17.28 7.5c-26.77 28.16-54.57 76.33-54.57 135 0 105.87 86.13 192 192 192s192-86.13 192-192c0-170.29-168-193-168-296.14zm-24 420.14a123.61 123.61 0 0 1 -87.78-36.5l2.63 1.21a129.9 129.9 0 0 0 51.39 11.23h1.78a132 132 0 0 0 131.98-130.23v-1.71c0-27.83-8.69-54.44-25.84-79.11l-.3-.43c10.81 11 20.62 22.28 28.61 34.68 14.69 22.78 21.53 47.2 21.53 76.86a124.15 124.15 0 0 1 -124 124z" opacity=".4"/><path d="m265.86 208.46c10.81 11 20.62 22.28 28.61 34.68 14.69 22.78 21.53 47.2 21.53 76.86a123.94 123.94 0 0 1 -211.78 87.5l2.63 1.21a129.9 129.9 0 0 0 51.39 11.23h1.78a132 132 0 0 0 131.98-130.23v-1.71c0-27.83-8.69-54.44-25.84-79.11z"/></svg>