<svg viewBox="0 0 448 512"><path d="m256 67.09v4.91c0-1.18-.1-2.94 0-4.91zm-209.71 117.82a24 24 0 0 1 -44.57-17.82c14.67-36.67 38-77.84 90.05-90.89-14.14-36.52 12.8-76.2 52.23-76.2a56 56 0 0 1 53.67 72h58.33v48h-40v26a96.87 96.87 0 0 0 -48 0v-26c-61 0-92.94-7-121.71 64.91zm97.71-112.91a16 16 0 1 0 -16-16 16 16 0 0 0 16 16zm112 53.54v-5.54a51.87 51.87 0 0 0 0 5.54z" opacity=".4"/><path d="m434 26.33-168 28c-8.15 1.36-9.77 7.73-10 12.76v58.45c.38 4.79 2.24 10.83 10 12.13l168 28a12 12 0 0 0 14-11.84v-115.66a12 12 0 0 0 -14-11.84zm-242 116.67a96 96 0 0 0 -96 96v241a32 32 0 0 0 32 32h128a32 32 0 0 0 32-32v-241a96 96 0 0 0 -96-96z"/></svg>