<svg viewBox="0 0 640 512"><path d="m363.43 64c-100 0-187.26 65.72-235.85 122l-97-79.26c-13.51-11.06-33.58.68-30.19 17.55l26.87 131.71-26.88 131.73c-3.38 16.87 16.68 28.59 30.15 17.59l97-79.26c48.63 56.22 135.94 121.94 235.9 121.94 152.74 0 276.57-153.6 276.57-192s-123.83-192-276.57-192zm-117.75 197.68-11.31-11.31a8 8 0 0 1 0-11.31l84.63-84.72a8 8 0 0 1 11.31 0l11.32 11.32a8 8 0 0 1 0 11.31l-84.63 84.68a8 8 0 0 1 -11.32.03zm59.28 80a8 8 0 0 1 -11.31 0l-11.31-11.31a8 8 0 0 1 0-11.31l148.66-148.72a8 8 0 0 1 11.31 0l11.32 11.32a8 8 0 0 1 0 11.31zm196.73-68.68-84.69 84.65a8 8 0 0 1 -11.31 0l-11.31-11.31a8 8 0 0 1 0-11.31l84.62-84.69a8 8 0 0 1 11.31 0l11.32 11.32a8 8 0 0 1 .06 11.34z" opacity=".4"/><path d="m453.63 193a8 8 0 0 0 0-11.31l-11.33-11.36a8 8 0 0 0 -11.31 0l-148.65 148.67a8 8 0 0 0 0 11.31l11.31 11.31a8 8 0 0 0 11.31 0l148.66-148.62zm-112-16a8 8 0 0 0 0-11.31l-11.33-11.36a8 8 0 0 0 -11.31 0l-84.65 84.67a8 8 0 0 0 0 11.31l11.31 11.31a8 8 0 0 0 11.31 0l84.66-84.62zm160 84.69-11.33-11.36a8 8 0 0 0 -11.31 0l-84.62 84.67a8 8 0 0 0 0 11.31l11.31 11.31a8 8 0 0 0 11.31 0l84.66-84.62a8 8 0 0 0 -.03-11.35z"/></svg>