<svg viewBox="0 0 384 512"><path d="m64 512v-64l-26.5-26.51a128 128 0 0 1 -37.5-90.49v-77.95a47.26 47.26 0 0 0 16 2.95h32a47.65 47.65 0 0 0 32-12.49 47.65 47.65 0 0 0 32 12.49h32a47.4 47.4 0 0 0 21.87-5.52 64.34 64.34 0 0 0 38.87 34.45c-17.11 14.82-31.58 34.48-47.31 58.08l-6.31 9.47a8 8 0 0 0 2.22 11.08l13.31 8.88a8 8 0 0 0 11.08-2.22l6.31-9.47c31.89-47.84 51.53-70.27 96.05-72.55a8.22 8.22 0 0 0 7.88-8v-16.2c0-4.42-3.52-8-13.2-8h-35.25a47.59 47.59 0 0 1 -47.52-47.59v-.56a15.86 15.86 0 0 1 15.85-15.85h112.15a64 64 0 0 1 64 64v88.22a96 96 0 0 1 -28.12 67.91l-35.88 35.87v64z" opacity=".4"/><path d="m144 32h-32a16 16 0 0 0 -16 16v160a16 16 0 0 0 16 16h32a16 16 0 0 0 16-16v-160a16 16 0 0 0 -16-16zm-96 32h-32a16 16 0 0 0 -16 16v128a16 16 0 0 0 16 16h32a16 16 0 0 0 16-16v-128a16 16 0 0 0 -16-16zm288-32h-32a16 16 0 0 0 -16 16v112h32a94.76 94.76 0 0 1 32 5.9v-117.9a16 16 0 0 0 -16-16zm-96-32h-32a16 16 0 0 0 -16 16v146.93a47.56 47.56 0 0 1 16-2.93h48v-144a16 16 0 0 0 -16-16z"/></svg>