<svg viewBox="0 0 512 512"><path d="m96 298.66v95c28.3-12.1 63.6-22.1 114.4-22.1a144.77 144.77 0 0 1 29.6 3.26v-95a144.77 144.77 0 0 0 -29.6-3.26c-50.8 0-86.1 10-114.4 22.1zm88.3-234.66c-19.3 0-42.3 0-68.14 12.36a56.18 56.18 0 0 1 -20.16 25.64v93.66c28.3-12.1 63.6-22.1 114.4-22.1a144.77 144.77 0 0 1 29.6 3.26v-105.18c-17-4.44-35.31-7.64-55.7-7.64zm191.3 342.36c48.2 0 86.7-16.3 122.5-40.9a31.88 31.88 0 0 0 13.8-26.4v-76c-35.79 24.58-88.14 48.3-136.3 48.3-2.57 0-5.09-.07-7.6-.16v95c2.51.09 5 .16 7.6.16zm136.3-246.3v-64.06c.1-23.35-24.2-38.85-45.4-29-29.1 13.4-63.89 27-98.5 30.76v110.44c2.51.09 5 .16 7.6.16 48.16 0 100.51-23.72 136.3-48.3zm-271.9 16.76v103c39.58 8.25 77.24 29.4 128 31.38v-103c-50.76-1.98-88.42-23.13-128-31.38z" opacity=".4"/><path d="m210.4 173.6c-50.8 0-86.1 10-114.4 22.1v-93.7a56 56 0 1 0 -64 0v388a22 22 0 0 0 22 22h20a22 22 0 0 0 22-22v-191.3c28.3-12.1 63.6-22.1 114.4-22.1a144.77 144.77 0 0 1 29.6 3.26v-103a144.77 144.77 0 0 0 -29.6-3.26zm29.6 201.22c39.58 8.25 77.24 29.4 128 31.38v-95c-50.76-2-88.42-23.13-128-31.38zm128-277.06a169.27 169.27 0 0 1 -18.5 1c-37.32 0-70.17-16.92-109.5-27.17v105.23c39.58 8.25 77.24 29.4 128 31.38zm143.9 146.3v-84c-35.79 24.58-88.14 48.3-136.3 48.3-2.57 0-5.09-.07-7.6-.16v103c2.51.09 5 .16 7.6.16 48.2 0 100.6-23.76 136.4-48.36v-17.16c-.06-.57-.09-1.16-.1-1.78z"/></svg>