<svg viewBox="0 0 384 512"><path d="m192 0c-112.3 101.33-192 220.92-192 300.55 0 124.5 79 211.45 192 211.45s192-86.95 192-211.45c0-79.95-80.22-199.69-192-300.55zm0 448c-70.58 0-128-52.89-128-117.89 0-44.11 25.84-71.51 34.34-79.76a8 8 0 0 1 13.66 5.65v40a56 56 0 0 0 112 0c0-72-112.64-64.77-39.43-164.33a9.37 9.37 0 0 1 10.58-3.17c1.62.53 5.38 2.24 5.38 6.78 0 33.55 25 55 51.57 77.63 33.38 28.54 67.9 58 67.9 117.21 0 64.99-57.42 117.88-128 117.88z" opacity=".4"/><path d="m252.09 212.92c33.38 28.54 67.9 58 67.9 117.21 0 65-57.41 117.87-128 117.87s-127.99-52.89-127.99-117.89c0-44.11 25.84-71.51 34.34-79.76a8 8 0 0 1 13.66 5.65v40a56 56 0 0 0 112 0c0-72-112.64-64.77-39.43-164.33a9.37 9.37 0 0 1 10.58-3.17c1.62.53 5.38 2.24 5.38 6.78 0 33.56 25 55 51.56 77.64z"/></svg>