<svg viewBox="0 0 416 512"><path d="m64 352a154.39 154.39 0 0 1 1.92-24.48c61.84-24.46 131.65-20.73 181 4 36.58 18.29 78.12 20.41 105 20.56v3.23a143.83 143.83 0 0 1 -36.63 92.69h-214.6a143.6 143.6 0 0 1 -36.69-96z" opacity=".4"/><path d="m304 169.05v-73.05h-64v111.3c24.51 13.18 114.1 49.87 112 148a143.82 143.82 0 0 1 -36.71 92.7h-214.6a143.6 143.6 0 0 1 -36.69-96c0-99.51 88.31-132.74 112-145.13v-110.87h-64v72.12c-66.39 34.73-112 103.76-112 183.88a207.15 207.15 0 0 0 53.93 139.7 63.44 63.44 0 0 0 47 20.3h214.07a64 64 0 0 0 47.57-20.85 207.15 207.15 0 0 0 53.43-134.48c1.71-79.95-44.8-151.49-112-187.62zm-208-105.05h224a16 16 0 0 0 16-16v-32a16 16 0 0 0 -16-16h-224a16 16 0 0 0 -16 16v32a16 16 0 0 0 16 16z"/></svg>