<svg viewBox="0 0 416 512"><path d="m208 224c-61.86 0-112 39.4-112 88 0 29.87 19 56.17 48 72.08v31.92a16 16 0 0 0 16 16h96a16 16 0 0 0 16-16v-31.92c29-15.91 48-42.21 48-72.08 0-48.6-50.17-88-112-88zm-40 112a24 24 0 1 1 24-24 24 24 0 0 1 -24 24zm80 0a24 24 0 1 1 24-24 24 24 0 0 1 -24 24z" opacity=".4"/><path d="m96 64h224a16 16 0 0 0 16-16v-32a16 16 0 0 0 -16-16h-224a16 16 0 0 0 -16 16v32a16 16 0 0 0 16 16zm208 105.05v-73.05h-192v72.12c-66.39 34.73-112 103.76-112 183.88a207.15 207.15 0 0 0 53.93 139.7 63.44 63.44 0 0 0 47 20.3h214.07a64 64 0 0 0 47.57-20.85 207.15 207.15 0 0 0 53.43-134.48c1.71-79.95-44.8-151.49-112-187.62zm-32 215v31.95a16 16 0 0 1 -16 16h-96a16 16 0 0 1 -16-16v-31.92c-29-15.91-48-42.21-48-72.08 0-48.6 50.13-88 112-88s112 39.4 112 88c0 29.87-19 56.17-48 72.08z"/></svg>