<svg viewBox="0 0 512 512"><path d="m435.86 256c26.84-23.46 44.14-57.55 44.14-96a128 128 0 0 0 -128-128c-38.45 0-72.54 17.3-96 44.14-23.46-26.84-57.55-44.14-96-44.14a128 128 0 0 0 -128 128c0 38.45 17.3 72.54 44.14 96-26.84 23.46-44.14 57.55-44.14 96a128 128 0 0 0 128 128c38.45 0 72.54-17.3 96-44.14 23.46 26.84 57.55 44.14 96 44.14a128 128 0 0 0 128-128c0-38.45-17.3-72.54-44.14-96zm-100.66 79.2a112 112 0 1 1 32.8-79.2 112 112 0 0 1 -32.8 79.2z" opacity=".4"/><path d="m336 256a80 80 0 1 1 -80-80 80 80 0 0 1 80 80z"/></svg>