<svg viewBox="0 0 512 512"><path d="m511.93 336.84c-9.99 98.16-106.36 175.16-223.76 175.16h-64.34c-117.4 0-213.77-77-223.76-175.16-.94-9.12 6.87-16.84 16.06-16.84h47.26c63 0 119.82 22.23 160.61 57.92v-96.58a80.33 80.33 0 0 0 32-25.34 80.33 80.33 0 0 0 32 25.34v96.58c40.79-35.69 97.61-57.92 160.61-57.92h47.26c9.19 0 16.98 7.72 16.06 16.84z" opacity=".4"/><path d="m368 144a80 80 0 1 0 -112-112 80 80 0 1 0 -112 112 80 80 0 1 0 112 112 80 80 0 1 0 112-112zm-112 48a48 48 0 1 1 48-48 48 48 0 0 1 -48 48z"/></svg>