<svg viewBox="0 0 640 512"><path d="m208 464h-128a16 16 0 0 0 -16 16v16a16 16 0 0 0 16 16h128a16 16 0 0 0 16-16v-16a16 16 0 0 0 -16-16zm416 0h-336a16 16 0 0 0 -16 16v16a16 16 0 0 0 16 16h336a16 16 0 0 0 16-16v-16a16 16 0 0 0 -16-16zm-48-64v-16a16 16 0 0 0 -16-16h-544a16 16 0 0 0 -16 16v16a16 16 0 0 0 16 16h544a16 16 0 0 0 16-16z" opacity=".4"/><path d="m64 224c0-42.5 27.8-78.2 66.1-90.8a113.72 113.72 0 0 1 -2.1-21.2 111.94 111.94 0 0 1 112-112c43.3 0 80.4 24.8 99 60.8 14.7-17.5 36.4-28.8 61-28.8a80 80 0 0 1 80 80 78.09 78.09 0 0 1 -1.6 16.2c.5 0 1-.2 1.6-.2a96 96 0 0 1 0 192h-320a96 96 0 0 1 -96-96z"/></svg>