<svg viewBox="0 0 512 512"><path d="m464 127.08h-192l-64-64h-160a48 48 0 0 0 -48 48v288a48 48 0 0 0 48 48h416a48 48 0 0 0 48-48v-224a48 48 0 0 0 -48-48zm-110.81 192h-65.19v48a16 16 0 0 1 -16 16h-32a16 16 0 0 1 -16-16v-48h-65.17a16 16 0 0 1 -11.27-27.34l96.44-95.74a17.05 17.05 0 0 1 24 0l96.42 95.7a16 16 0 0 1 -11.23 27.38z" opacity=".4"/><path d="m353.19 319.08h-65.19v48a16 16 0 0 1 -16 16h-32a16 16 0 0 1 -16-16v-48h-65.17a16 16 0 0 1 -11.27-27.34l96.44-95.74a17.05 17.05 0 0 1 24 0l96.42 95.7a16 16 0 0 1 -11.23 27.38z"/></svg>