<svg viewBox="0 0 512 512"><path d="m464 128h-192l-64-64h-160a48 48 0 0 0 -48 48v288a48 48 0 0 0 48 48h416a48 48 0 0 0 48-48v-224a48 48 0 0 0 -48-48zm-123.15 210.91a16 16 0 0 1 0 22.63l-11.31 11.31a16 16 0 0 1 -22.63 0l-50.91-50.91-50.91 50.91a16 16 0 0 1 -22.63 0l-11.31-11.31a16 16 0 0 1 0-22.63l50.91-50.91-50.91-50.91a16 16 0 0 1 0-22.63l11.31-11.31a16 16 0 0 1 22.63 0l50.91 50.91 50.91-50.91a16 16 0 0 1 22.63 0l11.31 11.31a16 16 0 0 1 0 22.63l-50.91 50.91z" opacity=".4"/><path d="m171.15 237.09a16 16 0 0 1 0-22.63l11.31-11.31a16 16 0 0 1 22.63 0l50.91 50.91 50.91-50.91a16 16 0 0 1 22.63 0l11.31 11.31a16 16 0 0 1 0 22.63l-50.91 50.91 50.91 50.91a16 16 0 0 1 0 22.63l-11.31 11.31a16 16 0 0 1 -22.63 0l-50.91-50.91-50.91 50.91a16 16 0 0 1 -22.63 0l-11.31-11.31a16 16 0 0 1 0-22.63l50.91-50.91z"/></svg>