<svg viewBox="0 0 512 512"><path d="m464 127.08h-192l-64-64h-160a48 48 0 0 0 -48 48v288a48 48 0 0 0 48 48h416a48 48 0 0 0 48-48v-224a48 48 0 0 0 -48-48zm-99.56 155.36-96.44 95.7a17.05 17.05 0 0 1 -24 0l-96.42-95.7a16 16 0 0 1 11.25-27.34h65.17v-48a16 16 0 0 1 16-16h32a16 16 0 0 1 16 16v48h65.18a16 16 0 0 1 11.26 27.34z" opacity=".4"/><path d="m364.44 282.44-96.44 95.7a17.05 17.05 0 0 1 -24 0l-96.42-95.7a16 16 0 0 1 11.25-27.34h65.17v-48a16 16 0 0 1 16-16h32a16 16 0 0 1 16 16v48h65.18a16 16 0 0 1 11.26 27.34z"/></svg>