<svg viewBox="0 0 496 512"><path d="m0 328.41v1.53l174.06 174.06h1.53a321.72 321.72 0 0 0 60.6-5.75l-230.44-230.44a321.72 321.72 0 0 0 -5.75 60.6zm496-146.35-174.06-174.06h-1.53a321.72 321.72 0 0 0 -60.6 5.75l230.44 230.44a321.72 321.72 0 0 0 5.75-60.6z" opacity=".4"/><path d="m14.5 451.7a52.8 52.8 0 0 0 37.3 37.4c49.3 13.2 88.49 14.9 122.26 14.9l-174.06-174.06c0 33.57 1.47 72.32 14.5 121.76zm467-391.4a52.8 52.8 0 0 0 -37.3-37.4c-49.3-13.2-88.49-14.85-122.26-14.9l174.06 174.06c0-33.57-1.47-72.32-14.5-121.76zm-475.75 207.51 230.44 230.44c128.35-24.57 229.49-125.71 254.06-254.06l-230.44-230.44c-128.35 24.57-229.49 125.71-254.06 254.06zm288.91-81.69 29.21-29.42a8.29 8.29 0 0 1 11.67 0l11.66 11.66a8.29 8.29 0 0 1 0 11.67l-29.2 29.21 29.21 29.21a8.29 8.29 0 0 1 0 11.67l-11.66 11.66a8.29 8.29 0 0 1 -11.67 0l-29.21-29.21-23.34 23.43 29.21 29.21a8.29 8.29 0 0 1 0 11.67l-11.66 11.66a8.29 8.29 0 0 1 -11.67 0l-29.21-29.21-23.33 23.33 29.21 29.21a8.29 8.29 0 0 1 0 11.67l-11.66 11.66a8.29 8.29 0 0 1 -11.67 0l-29.21-29.2-29.21 29.2a8.29 8.29 0 0 1 -11.67 0l-11.66-11.66a8.29 8.29 0 0 1 0-11.67l29.2-29.21-29.2-29.11a8.29 8.29 0 0 1 0-11.67l11.66-11.66a8.29 8.29 0 0 1 11.67 0l29.21 29.21 23.33-23.33-29.21-29.21a8.28 8.28 0 0 1 0-11.66l11.66-11.67a8.29 8.29 0 0 1 11.67 0l29.21 29.21 23.33-23.32-29.21-29.22a8.28 8.28 0 0 1 0-11.66l11.66-11.67a8.29 8.29 0 0 1 11.67 0z"/></svg>