<svg viewBox="0 0 512 512"><path d="m480 320h-124.54l-15.2-76-31.8 4.1 14.4 71.9h-49.3s18.7 46.8 12.8 32h42.9l9.5 47.3c9.5 47.4 48 85.3 95.9 91.3 44 5.5 42.5 5.4 45.3 5.4 22.5 0 32-19.7 32-32v-112a32 32 0 0 0 -31.96-32zm0 144-41.3-5.2a79.72 79.72 0 0 1 -60.1-40.7h101.4zm0-80h-111.74l-6.4-32h118.14z" opacity=".4"/><path d="m491 207.46c-24.8-124.9-143.1-216.1-279.1-196.9-107.3 15.1-194.1 102-209.3 209.3-10.2 72.1 10.7 139.1 51.1 190a16.26 16.26 0 0 0 12.8 6.1h53.5l85.7 45a65.58 65.58 0 0 0 75.7-12.3c36.2-36.2 10.9-81.9 5-96.7l-23.1-57.7a32 32 0 0 1 25.6-43.6l188.2-24.5c8.96-1.16 15.56-9.8 13.9-18.7zm-315 152.54a24 24 0 1 1 24-24 23.94 23.94 0 0 1 -24 24z"/></svg>