<svg viewBox="0 0 640 512"><path d="m96 352a80 80 0 1 0 80 80 80 80 0 0 0 -80-80zm528 32h-80v-368a16 16 0 0 0 -16-16h-32a16 16 0 0 0 -16 16v416a16 16 0 0 0 16 16h128a16 16 0 0 0 16-16v-32a16 16 0 0 0 -16-16zm-272-32a80 80 0 1 0 80 80 80 80 0 0 0 -80-80z" opacity=".4"/><path d="m410.8 211.9-78.3-182.8a48 48 0 0 0 -44.2-29.1h-144.3a48 48 0 0 0 -48 48v112h-48a48 48 0 0 0 -48 48v166.23a113.49 113.49 0 0 1 16.8-21.43 112 112 0 0 1 158.4 0 111.19 111.19 0 0 1 31.67 63.2h34.26a112 112 0 0 1 174.87-75.94v-103a64.23 64.23 0 0 0 -5.2-25.16zm-58.8 44.1h-96l-96-96v-96h117.8l74.2 173.1z"/></svg>