<svg viewBox="0 0 512 512"><path d="m169.57.3a16.22 16.22 0 0 0 -6.72 3l-28.51 21.6a16 16 0 0 0 -6.07 15.68l36.9 197.22c5.3 7.59 14.49 14.87 26.83 20.75v-225.36l-3.76-20.11a16 16 0 0 0 -18.67-12.78zm109.6 17.4-32-16a16 16 0 0 0 -23.17 14.3v252.79a160.37 160.37 0 0 0 64 0v-236.79a16 16 0 0 0 -8.83-14.3zm-194.56 63a16 16 0 0 0 -20.36 18.08l16.3 93.22h33.45c3.6 0 7 1 10.35 1.75l-20-107.16zm286.14-48.43a16.38 16.38 0 0 0 -7.33.43l-34.28 10.3c-4.24 1.27-7.17 4.51-9.13 8.33v207.22c17.55-8.38 29.15-19.54 31.54-30.39.4-1.79 1.46-3.22 2.06-4.92l30.15-172.46a16 16 0 0 0 -13.01-18.51zm64 48a16.38 16.38 0 0 0 -7.33.43l-17.31 5.17-18.75 107.26c2.24-.32 4.33-1.12 6.63-1.12h33.47l16.3-93.23a16 16 0 0 0 -13.01-18.51z" opacity=".4"/><path d="m64 240a16 16 0 0 1 16-16h34c6.92 0 13.7 4.24 15.19 11 8.6 39 62.09 69 126.79 69s118.2-30 126.8-69c1.49-6.73 8.27-11 15.19-11h34a16 16 0 0 1 16 16 16.16 16.16 0 0 1 -.38 3.46l-54.11 243.54a32 32 0 0 1 -31.2 25h-212.55a32 32 0 0 1 -31.25-25l-54.1-243.52a16.18 16.18 0 0 1 -.38-3.48z"/></svg>