<svg viewBox="0 0 384 512"><path d="m357 329.4a165 165 0 0 0 -13.7-41.4h-302.9a169.38 169.38 0 0 0 -16.4 72.9c0 59.9 31.3 112.1 78.2 142 10.2 6.5 22.5 9.1 34.6 9.1h109.6a71.86 71.86 0 0 0 41.1-13c51.4-35.8 82.2-99.4 69.5-169.6zm-226.3 33.3a21.3 21.3 0 1 1 21.3-21.3 21.32 21.32 0 0 1 -21.3 21.3zm61.3 101.3s-32-46.3-32-64a32 32 0 0 1 64 0c0 17.7-32 64-32 64zm61.3-101.3a21.3 21.3 0 1 1 21.3-21.3 21.32 21.32 0 0 1 -21.3 21.3z" opacity=".4"/><path d="m368 240h-352a16 16 0 0 0 -16 16v16a16 16 0 0 0 16 16h352a16 16 0 0 0 16-16v-16a16 16 0 0 0 -16-16zm-48-224a16 16 0 0 0 -16-16h-224a16 16 0 0 0 -16 16v192h256z"/></svg>