<svg viewBox="0 0 640 512"><path d="m334.59 152.91-24.69-21c-7-6-17.83-5.09-23.38 2.23a307.46 307.46 0 0 0 0 371.68c5.56 7.32 16.38 8.18 23.38 2.23l24.69-21c6.59-5.61 7.31-15.2 2.15-22.14a242.8 242.8 0 0 1 0-289.89c5.17-6.91 4.45-16.51-2.15-22.11zm242.89-18.75c-5.56-7.32-16.38-8.18-23.38-2.23l-24.69 21c-6.59 5.61-7.31 15.2-2.15 22.14a242.82 242.82 0 0 1 0 289.9c-5.17 6.94-4.45 16.54 2.15 22.14l24.69 21c7 5.95 17.83 5.09 23.38-2.23a307.48 307.48 0 0 0 0-371.69z" opacity=".4"/><path d="m477.25 320 46.06-46.06a16 16 0 0 0 0-22.63l-22.62-22.62a16 16 0 0 0 -22.63 0l-46.06 46.06-46.06-46.06a16 16 0 0 0 -22.63 0l-22.62 22.62a16 16 0 0 0 0 22.63l46.06 46.06-46.06 46.06a16 16 0 0 0 0 22.63l22.62 22.62a16 16 0 0 0 22.63 0l46.06-46.06 46.06 46.06a16 16 0 0 0 22.63 0l22.62-22.62a16 16 0 0 0 0-22.63zm-269.25-320h-48a104 104 0 0 0 -104 104v64h-40a16 16 0 0 0 -16 16v48a16 16 0 0 0 16 16h40v128a24.07 24.07 0 0 1 -24 24h-16a16 16 0 0 0 -16 16v48a16 16 0 0 0 16 16h16a104 104 0 0 0 104-104v-128h40a16 16 0 0 0 16-16v-48a16 16 0 0 0 -16-16h-40v-64a24.07 24.07 0 0 1 24-24h48a16 16 0 0 0 16-16v-48a16 16 0 0 0 -16-16z"/></svg>