<svg viewBox="0 0 512 512"><path d="m452 104v-.05zm51.88 159.77a246.7 246.7 0 0 1 -42.88 131.84l-7.15-31.45-109.5 13.43-46.69 100.1 27.34 16.31.06.23a248.87 248.87 0 0 1 -138.06 0v-.23l27.37-16.28-46.69-100.1-109.52-13.46-7.16 31.45a246.7 246.7 0 0 1 -42.87-131.8l24.17 21.08 80.61-75.24-20.83-108.5-32.08 2.85a248.5 248.5 0 0 1 111.65-81.26l.35.26-12.4 29.11 96.4 53.41 96.4-53.41-12.65-29.6a248.6 248.6 0 0 1 112.25 81.49l-31.7-2.84-21.16 108.5 80.62 75.24zm-147.56-35.77-100.32-72.67-100.32 72.67 38.45 117.44h124.09z" opacity=".4"/><path d="m352.4 52.11-12.65-29.6a249 249 0 0 0 -167.5 0l-12.65 29.6 96.4 53.41zm-34.18 293.37 38.1-117.48-100.32-72.67-100.32 72.67 38.45 117.44zm-226.14-244.33-32.08 2.85a246.92 246.92 0 0 0 -52 152c0 2.61.05 5.21.13 7.81l24.17 21.08 80.61-75.24zm252.26 276.44-46.69 100.1 27.69 16.47a248.45 248.45 0 0 0 135.66-98.55l-7.15-31.45zm-286.18-13.43-7.16 31.45a248.45 248.45 0 0 0 135.65 98.55l27.69-16.47-46.69-100.1zm393.84-260.16-31.7-2.84-21.16 108.5 80.62 75.24 24.16-21.08c.08-2.6.13-5.2.13-7.81a246.92 246.92 0 0 0 -52.05-152.01z"/></svg>