<svg viewBox="0 0 384 512"><path d="m352 0h-320a32 32 0 0 0 -32 32v448a32 32 0 0 0 32 32h256a96 96 0 0 0 96-96v-384a32 32 0 0 0 -32-32zm-192 344a8 8 0 0 1 -8 8h-24v24a8 8 0 0 1 -8 8h-16a8 8 0 0 1 -8-8v-24h-24a8 8 0 0 1 -8-8v-16a8 8 0 0 1 8-8h24v-24a8 8 0 0 1 8-8h16a8 8 0 0 1 8 8v24h24a8 8 0 0 1 8 8zm72 40a24 24 0 1 1 24-24 24 24 0 0 1 -24 24zm-120-160a16 16 0 0 1 -16-16v-128a16 16 0 0 1 16-16h160a16 16 0 0 1 16 16v112a32 32 0 0 1 -32 32zm184 112a24 24 0 1 1 24-24 24 24 0 0 1 -24 24z" opacity=".4"/><path d="m112 224a16 16 0 0 1 -16-16v-128a16 16 0 0 1 16-16h160a16 16 0 0 1 16 16v112a32 32 0 0 1 -32 32z"/></svg>