<svg viewBox="0 0 640 512"><path d="m415.14 352h-190.28l12-47.95a21.15 21.15 0 0 1 20.53-16.05h125.22a21.15 21.15 0 0 1 20.55 16.05z" opacity=".4"/><path d="m610.5 117-272.09-113.33a57.4 57.4 0 0 0 -18.41-3.67 57.4 57.4 0 0 0 -18.5 3.67l-272 113.33a48.14 48.14 0 0 0 -29.5 44.28v334.72a16 16 0 0 0 16 16h64a16 16 0 0 0 16-16v-272c0-17.59 14.59-32 32.59-32h382.82c18 0 32.59 14.41 32.59 32v272a16 16 0 0 0 16 16h64a16 16 0 0 0 16-16v-334.72a48.14 48.14 0 0 0 -29.5-44.28zm-145 238.42-15.75-63a69.09 69.09 0 0 0 -67.14-52.42h-125.22a69.09 69.09 0 0 0 -67.11 52.39l-15.75 63a47.93 47.93 0 0 0 -30.53 44.61v32c0 11.71 6.61 21.52 16 27.1v28.9a24 24 0 0 0 24 24h32a24 24 0 0 0 24-24v-24h160v24a24 24 0 0 0 24 24h32a24 24 0 0 0 24-24v-28.9c9.39-5.58 16-15.39 16-27.1v-32a47.93 47.93 0 0 0 -30.53-44.61zm-228.66-51.37a21.15 21.15 0 0 1 20.55-16.05h125.22a21.15 21.15 0 0 1 20.55 16.05l12 47.95h-190.3zm-28.84 127.8c-14.4 0-24-9.56-24-23.92s9.6-23.93 24-23.93 36 21.53 36 35.88-21.6 11.97-36 11.97zm224 0c-14.4 0-36 2.39-36-12s21.6-35.85 36-35.85 24 9.58 24 23.93-9.6 23.92-24 23.92z"/></svg>