<svg viewBox="0 0 640 512"><path d="m128.65 224s-.65 0-.65 0v64h383.47l.53-64zm104.21 96-8 32h190.28l-8-32z" opacity=".4"/><path d="m610.5 117-272.09-113.33a57.4 57.4 0 0 0 -18.41-3.67 57.4 57.4 0 0 0 -18.5 3.67l-272 113.33a48.14 48.14 0 0 0 -29.5 44.28v334.72a16 16 0 0 0 16 16h64a16 16 0 0 0 16-16v-272c0-17.59 14.59-32 32.59-32h382.82c18 0 32.59 14.41 32.59 32v272a16 16 0 0 0 16 16h64a16 16 0 0 0 16-16v-334.72a48.14 48.14 0 0 0 -29.5-44.28zm-145 238.42-8.88-35.42h-49.48l8 32h-190.28l8-32h-49.48l-8.85 35.39a47.93 47.93 0 0 0 -30.53 44.61v32c0 11.71 6.61 21.52 16 27.1v28.9a24 24 0 0 0 24 24h32a24 24 0 0 0 24-24v-24h160v24a24 24 0 0 0 24 24h32a24 24 0 0 0 24-24v-28.9c9.39-5.58 16-15.39 16-27.1v-32a47.93 47.93 0 0 0 -30.53-44.61zm-257.5 76.43c-14.4 0-24-9.56-24-23.92s9.6-23.93 24-23.93 36 21.53 36 35.88-21.6 11.97-36 11.97zm224 0c-14.4 0-36 2.39-36-12s21.6-35.85 36-35.85 24 9.58 24 23.93-9.6 23.92-24 23.92z"/></svg>