<svg viewBox="0 0 512 512"><path d="m256 0h-160a64.06 64.06 0 0 0 -64 64v384h288v-384a64.06 64.06 0 0 0 -64-64zm0 192h-160v-128h160z" opacity=".4"/><path d="m256 64h-160v128h160zm80 384h-320a16 16 0 0 0 -16 16v32a16 16 0 0 0 16 16h320a16 16 0 0 0 16-16v-32a16 16 0 0 0 -16-16zm157.2-340.7-81-81a16.06 16.06 0 0 0 -22.6 0l-11.3 11.3a16.06 16.06 0 0 0 0 22.6l37.7 37.7v62.1a55.9 55.9 0 0 0 48 55.2v160.8a24 24 0 0 1 -48 0v-32a88 88 0 0 0 -88-88h-8v48h8a40 40 0 0 1 40 40v27.8c0 37.7 27 72 64.5 75.9a72.2 72.2 0 0 0 79.5-71.7v-223.4a64.15 64.15 0 0 0 -18.8-45.3z"/></svg>