<svg viewBox="0 0 640 512"><path d="m442.3 60.2a16.06 16.06 0 0 1 0-22.6l11.3-11.3a16.06 16.06 0 0 1 22.6 0l81 81a64.12 64.12 0 0 1 18.8 45.3v223.4a71.45 71.45 0 0 1 -7.39 31.7l-40.61-31.4v-161.1a55.91 55.91 0 0 1 -48-55.2v-62.1zm-72.3 355.8-274-211.79v211.79zm-210-324.11v-27.89h160v128h-30.47l190.33 147.11a88 88 0 0 0 -87.86-83.11h-8v-192a64.06 64.06 0 0 0 -64-64h-160a64.1 64.1 0 0 0 -61 44.72zm240 356.11h-320a16 16 0 0 0 -16 16v32a16 16 0 0 0 16 16h320a16 16 0 0 0 16-16v-32a16 16 0 0 0 -16-16z" opacity=".4"/><path d="m636.64 480.55-19.64 25.27a16 16 0 0 1 -22.46 2.81l-588.36-454.73a16 16 0 0 1 -2.81-22.45l19.63-25.27a16 16 0 0 1 22.47-2.81l588.35 454.73a16 16 0 0 1 2.82 22.45z"/></svg>