<svg viewBox="0 0 512 512"><path d="m442.75 182.39-113.14 113.14-39.61-39.6-81 81-34-33.93 81-81-39.6-39.6 113.21-113.14z" opacity=".4"/><path d="m169 297.37a31.9 31.9 0 0 0 -45.16 0l-114.49 114.75a32 32 0 0 0 0 45.25l45.17 45.26a31.91 31.91 0 0 0 45.17 0l114.52-114.75a32 32 0 0 0 0-45.25zm7.49-109.32a23.92 23.92 0 0 0 33.87 0l124.25-124.45a24 24 0 0 0 0-33.94l-22.61-22.66a23.93 23.93 0 0 0 -33.88 0l-124.18 124.48a24 24 0 0 0 0 33.94zm327.51 11.31-22.6-22.62a23.9 23.9 0 0 0 -33.87 0l-124.21 124.45a24 24 0 0 0 0 33.94l22.58 22.62a23.91 23.91 0 0 0 33.88 0l124.22-124.45a24 24 0 0 0 0-33.94z"/></svg>