<svg viewBox="0 0 384 512"><path d="m186.1.09c-105.1 3.15-186.1 94.83-186.1 199.96v263.95a16 16 0 0 0 27.31 11.31l24.92-18.53a16 16 0 0 1 21.51 2.22l43 48.35a16 16 0 0 0 22.63 0l40.63-45.89a16 16 0 0 1 23.92 0l40.72 45.85a16 16 0 0 0 22.63 0l42.99-48.31a16 16 0 0 1 21.51-2.21l24.92 18.53c10.08 10.04 27.31 2.9 27.31-11.32v-272c0-108-89.17-195.17-197.9-191.91zm-58.1 223.91a32 32 0 1 1 32-32 32 32 0 0 1 -32 32zm128 0a32 32 0 1 1 32-32 32 32 0 0 1 -32 32z" opacity=".4"/><path d="m128 160a32 32 0 1 0 32 32 32 32 0 0 0 -32-32zm128 0a32 32 0 1 0 32 32 32 32 0 0 0 -32-32z"/></svg>