<svg viewBox="0 0 576 512"><path d="m0 416h576v48a48 48 0 0 1 -48 48h-480a48 48 0 0 1 -48-48zm528-288h-57.66a88.38 88.38 0 0 1 -78.61 48h-48.48l62.41 51.71a16 16 0 0 1 0 22.63l-11.31 11.31a16 16 0 0 1 -22.63 0l-83.72-73.58-83.73 73.59a16 16 0 0 1 -22.63 0l-11.31-11.31a16 16 0 0 1 0-22.63l62.42-51.72h-48.48a88.38 88.38 0 0 1 -78.61-48h-57.66a48 48 0 0 0 -48 48v144h576v-144a48 48 0 0 0 -48-48z" opacity=".4"/><path d="m0 320v96h576v-96zm184.27-144h48.48l-62.41 51.72a16 16 0 0 0 0 22.63l11.31 11.31a16 16 0 0 0 22.63 0l83.72-73.59 83.71 73.58a16 16 0 0 0 22.63 0l11.31-11.31a16 16 0 0 0 0-22.63l-62.4-51.71h48.48c48.67 0 88.27-39.48 88.27-88s-39.6-88-88.27-88c-17.4 0-38.41 2.65-62.2 22.31-12.18 10.06-25.26 24.69-41.53 46.58-16.32-22-29.51-36.61-41.87-46.75-23.76-19.51-44.61-22.14-61.86-22.14-48.67 0-88.27 39.48-88.27 88s39.6 88 88.27 88zm207.46-128a40 40 0 1 1 0 80h-86.67c51.74-76.5 66.14-80 86.67-80zm-207.46 0c20 0 34.83 3.3 86.67 80h-86.67a40 40 0 1 1 0-80z"/></svg>