<svg viewBox="0 0 512 512"><path d="m224 320v160h-160a32 32 0 0 1 -32-32v-128zm0-160h-192a32 32 0 0 0 -32 32v80a16 16 0 0 0 16 16h208zm256 0h-192v128h208a16 16 0 0 0 16-16v-80a32 32 0 0 0 -32-32zm-192 320h160a32 32 0 0 0 32-32v-128h-192z" opacity=".4"/><path d="m224 480h64v-160h-64zm135.54-448c-41.82 0-68.86 21.3-103.54 68.3-34.68-47-61.72-68.3-103.54-68.3-48.75 0-88.46 39.5-88.46 88a85.65 85.65 0 0 0 10.15 40h78.21a40 40 0 1 1 0-80c20 0 34.78 3.3 86.55 80h-14.91v128h64v-128h-15c51.67-76.5 66-80 86.55-80a40 40 0 1 1 0 80h78.31a86.86 86.86 0 0 0 10.14-40c0-48.5-39.71-88-88.46-88z"/></svg>