<svg viewBox="0 0 640 512"><path d="m27 51.72 9.3-13a16 16 0 0 1 22.3-3.72l32.1 22.8-11.5-30.58a15.89 15.89 0 0 1 9.3-20.6l15-5.6a16 16 0 0 1 20.6 9.4l19.9 53.1 19.9-53a16 16 0 0 1 20.6-9.4l15 5.6a16 16 0 0 1 9.4 20.6l-11.5 30.6 32-22.9a15.9 15.9 0 0 1 22.3 3.7l9.3 13a15.9 15.9 0 0 1 -3.7 22.28l-30.67 22h-165.26l-30.67-22a16 16 0 0 1 -3.7-22.28zm197 204.28v88h184v-88h-65.88a68.15 68.15 0 0 1 -44.4-16.33h-.05l-.06-.06-.2-.17-.2-.18a75.7 75.7 0 0 1 -13.21-15.26h-28a32 32 0 0 0 -32 32zm232 256h152a32 32 0 0 0 32-32v-88h-184zm152-288h-28a75.7 75.7 0 0 1 -13.21 15.18l-.2.18-.2.17-.07.06h-.05a68.15 68.15 0 0 1 -44.39 16.41h-65.88v88h184v-88a32 32 0 0 0 -32-32zm-384 168v88a32 32 0 0 0 32 32h152v-120z" opacity=".4"/><path d="m240.6 194.12c1.9-30.8 17.3-61.2 44-79.8a31.71 31.71 0 0 0 -28.6-18.32h-224a32 32 0 0 0 -32 32v352a32 32 0 0 0 32 32h168.9a63.54 63.54 0 0 1 -8.9-32v-224a64 64 0 0 1 48.6-61.88zm215.4 149.88v-88h65.88a68.15 68.15 0 0 0 44.4-16.33h.05l.07-.06.2-.17.2-.18a73.09 73.09 0 0 0 25.2-55.55 74.58 74.58 0 0 0 -15.71-45.71 69.14 69.14 0 0 0 -24.07-19.58 72.41 72.41 0 0 0 -32.32-7.42c-29.34 0-50.57 18.68-63.22 34.35-11.5 14.27-19.68 30.25-24.68 41.65-5-11.46-13.23-27.52-24.75-41.76-12.62-15.6-33.82-34.2-63.15-34.2a72.41 72.41 0 0 0 -32.32 7.35 69.14 69.14 0 0 0 -24.07 19.61 74.58 74.58 0 0 0 -15.71 45.71 73.09 73.09 0 0 0 25.16 55.47l.2.18.2.17.06.06h.05a68.15 68.15 0 0 0 44.45 16.41h65.88v88h-184v48h184v120h48v-120h184v-48zm63.9-184.65c17.7 0 24.1 14.6 24.1 24.36a24.78 24.78 0 0 1 -8.8 19.13l-.06.06a20.35 20.35 0 0 1 -13.26 4.77h-46.48c8.8-20.43 25.8-48.32 44.5-48.32zm-177.78 48.32a20.35 20.35 0 0 1 -13.26-4.77l-.06-.06a24.78 24.78 0 0 1 -8.8-19.13c0-9.76 6.4-24.36 24.1-24.36 18.7 0 35.6 27.58 44.5 48.32z"/></svg>