<svg viewBox="0 0 512 512"><path d="m512 144c0 78.32-62.61 141.73-140.48 143.64l4.85-48.49c49-4.31 87.63-45.08 87.63-95.15a96.11 96.11 0 0 0 -96-96c-35.37 0-66 19.45-82.64 48h-52.54c19.83-55.8 72.57-96 135.18-96a144 144 0 0 1 144 144zm-256 304 20.57-192h-203.34l20.57 192z" opacity=".4"/><path d="m283.43 192-27.43 256h-162.2l-27.43-256zm34.37-64h-285.8a32 32 0 0 0 -32 32c0 .67 0 1.33.06 2l32 320a32 32 0 0 0 31.94 30h221.8a32 32 0 0 0 31.94-30l32-320a32 32 0 0 0 -29.93-33.94c-.68 0-1.35-.06-2.01-.06z"/></svg>