<svg viewBox="0 0 576 512"><path d="m64 328.58v37.54c0 27.51 23 49.88 51.2 49.88h37.12c26.66 0 49.09-20.3 51.06-46.21l3.13-41.22a196.2 196.2 0 0 0 -69.93-12.92 217.08 217.08 0 0 0 -72.58 12.93zm448 37.55v-37.54a217.07 217.07 0 0 0 -72.55-12.93 196.27 196.27 0 0 0 -69.95 12.92l3.13 41.22c2 25.91 24.39 46.21 51.06 46.21h37.11c28.2-.01 51.2-22.37 51.2-49.88z" opacity=".4"/><path d="m574.1 280.38-45.35-181.71a87.94 87.94 0 0 0 -113.19-62.14l-15.25 5.08a16 16 0 0 0 -10.12 20.24l5.06 15.15a16 16 0 0 0 20.23 10.12l13.18-4.39c10.87-3.62 23-3.57 33.16 1.73a39.62 39.62 0 0 1 20.37 25.82l38.46 153.82a276.75 276.75 0 0 0 -81.2-12.46c-34.77 0-74 7-114.85 26.74h-73.18c-40.87-19.74-80.08-26.75-114.86-26.75a276.76 276.76 0 0 0 -81.21 12.46l38.46-153.8a39.59 39.59 0 0 1 20.38-25.81c10.16-5.3 22.28-5.35 33.15-1.73l13.17 4.39a16 16 0 0 0 20.23-10.14l5.06-15.18a16 16 0 0 0 -10.12-20.22l-15.25-5.08a87.95 87.95 0 0 0 -113.19 62.13l-45.34 181.73a64.16 64.16 0 0 0 -1.9 15.49v70.25c0 62.88 51.58 113.88 115.2 113.88h37.12c60.28 0 110.37-45.94 114.88-105.37l2.93-38.63h35.75l2.93 38.63c4.5 59.44 54.59 105.37 114.87 105.37h37.12c63.62 0 115.2-51 115.2-113.87v-70.25a64.24 64.24 0 0 0 -1.9-15.5zm-370.72 89.42c-2 25.91-24.4 46.21-51.06 46.21h-37.12c-28.2-.01-51.2-22.38-51.2-49.89v-37.54a217.08 217.08 0 0 1 72.58-12.92 196.2 196.2 0 0 1 69.93 12.92zm257.42 46.2h-37.12c-26.67 0-49.1-20.3-51.06-46.21l-3.13-41.22a196.27 196.27 0 0 1 69.95-12.92 217.07 217.07 0 0 1 72.56 12.94v37.54c0 27.51-23 49.87-51.2 49.87z"/></svg>