<svg viewBox="0 0 512 512"><path d="m119.6 415.59.06.4h273.06v-.31l.07-.43 34.87-223.25h-343.17l35 223.15zm207.83-181.89 46.87 46.89a33.19 33.19 0 0 1 0 46.89l-46.87 46.89a33.14 33.14 0 0 1 -46.86 0l-46.87-46.89a33.19 33.19 0 0 1 0-46.89l46.87-46.89a33.15 33.15 0 0 1 46.86 0zm-199.43 22.3a32 32 0 0 1 32-32h64a31.86 31.86 0 0 1 16.47 4.55l-29.4 29.45a65.24 65.24 0 0 0 0 92.13l1.93 1.87h-53a32 32 0 0 1 -32-32z" opacity=".4"/><path d="m442.63 96-49.77 319.22-.07.43v.31h-273.06l-.06-.4-.07-.44-50.18-319.12zm37.37-64h-448a32 32 0 0 0 -31.68 36.51l56 356.58a64 64 0 0 0 63.39 54.91h273a64.07 64.07 0 0 0 63.4-54.91l55.57-356.58a32 32 0 0 0 -31.68-36.51z"/></svg>