<svg viewBox="0 0 256 512"><path d="m64.44 221 13.56-93h100l13.59 93a55.77 55.77 0 0 1 -10.26 39.82c-25.64 35.81-81.15 35.65-106.67 0a55.67 55.67 0 0 1 -10.22-39.82z" opacity=".4"/><path d="m216 464h-56v-116.3c60.7-15.2 103.3-72 95-135.4l-27-184.9a32.07 32.07 0 0 0 -31.67-27.4h-136.6a32.07 32.07 0 0 0 -31.73 27.4l-27 184.9c-8.3 63.4 34.3 120.2 95 135.4v116.3h-56a40 40 0 0 0 -40 40 8 8 0 0 0 8 8h240a8 8 0 0 0 8-8 40 40 0 0 0 -40-40zm-141.3-203.18a55.67 55.67 0 0 1 -10.26-39.82l22.93-157h81.33l22.93 157a55.77 55.77 0 0 1 -10.26 39.82c-25.64 35.81-81.15 35.65-106.67 0z"/></svg>