<svg viewBox="0 0 576 512"><path d="m136 272a72 72 0 1 0 72 72 72.08 72.08 0 0 0 -72-72zm304 0a72 72 0 1 0 72 72 72.08 72.08 0 0 0 -72-72z" opacity=".4"/><path d="m560.51 225.9-31.76-127.26c-6.7-26.86-33.75-66.64-85.42-66.64-15.63 0-23 2.94-43 9.6a16 16 0 0 0 -10.12 20.24l5.04 15.16a16 16 0 0 0 15.18 11c3.54 0 4.82-.74 18.23-5.21 26.07-8.68 48.2 6.13 53.53 27.54l29.67 118.67a134.81 134.81 0 0 0 -71.86-21c-55.09 0-102.27 32.91-123.65 80h-56.7c-21.38-47.09-68.56-80-123.65-80a134.89 134.89 0 0 0 -71.86 21l29.67-118.72c5.32-21.41 27.46-36.22 53.53-27.54 13.42 4.47 14.66 5.26 18.23 5.26a16 16 0 0 0 15.18-11l5.06-15.18a16 16 0 0 0 -10.12-20.24c-20-6.65-27.39-9.59-43-9.59-51.69.01-78.69 39.79-85.44 66.65l-31.76 127.26c-13.33 53.44-15.49 74.22-15.49 118.1a136 136 0 0 0 136 136c72.37 0 131-56.69 135.19-128h33.61c4.2 71.31 62.82 128 135.2 128a136 136 0 0 0 136-136c0-43.88-2.16-64.66-15.49-118.1zm-424.51 190.1a72 72 0 1 1 72-72 72.08 72.08 0 0 1 -72 72zm304 0a72 72 0 1 1 72-72 72.08 72.08 0 0 1 -72 72z"/></svg>