<svg viewBox="0 0 640 512"><path d="m378.84 156.05 84.21-34.93 45.6 76a51.11 51.11 0 0 1 5.35 37.41c-9 39.24-56 59-90.43 37.72a51.21 51.21 0 0 1 -22.77-30.13zm-252.68 78.48c9 39.24 56 59 90.42 37.72a51.18 51.18 0 0 0 22.78-30.13l22-86-84.23-34.94-45.57 76a51.15 51.15 0 0 0 -5.4 37.35z" opacity=".4"/><path d="m639.39 433.59a39.84 39.84 0 0 0 -52.2-21.6l-22.09 9.2-38.7-101.88c47.89-35 64.79-100.29 34.5-152.78l-86.6-150.48a32.1 32.1 0 0 0 -40-13.59l-114.3 47.39-114.29-47.39a31.71 31.71 0 0 0 -12.25-2.46 32.05 32.05 0 0 0 -27.75 16.05l-86.59 150.48c-30.2 52.49-13.4 117.78 34.5 152.68l-38.7 101.88-22.1-9.2a39.84 39.84 0 0 0 -52.2 21.6 8 8 0 0 0 4.3 10.51l162.29 67.39a8.13 8.13 0 0 0 3.1.62 7.88 7.88 0 0 0 7.3-4.92 40.08 40.08 0 0 0 -21.61-52.3l-22.09-9.2 39.4-103.59c4.4.5 8.8 1.3 13.1 1.3 51.7 0 99.4-33.09 113.4-85.28l20.19-75.39 20.21 75.37c14 52.19 61.69 85.28 113.39 85.28 4.3 0 8.7-.8 13.1-1.3l39.3 103.61-22.1 9.2a40 40 0 0 0 -21.6 52.29 8 8 0 0 0 7.35 4.92 7.81 7.81 0 0 0 3.05-.62l162.39-67.38a8 8 0 0 0 4.3-10.41zm-400-191.47a51.18 51.18 0 0 1 -22.78 30.13c-34.4 21.29-81.39 1.52-90.42-37.72a51.15 51.15 0 0 1 5.38-37.38l75-125 68.95 28.76zm274.61-7.59c-9 39.24-56 59-90.43 37.72a51.21 51.21 0 0 1 -22.77-30.13l-36.04-141.18 68.94-28.76 74.95 125a51.11 51.11 0 0 1 5.35 37.35z"/></svg>