<svg viewBox="0 0 496 512"><path d="m489.55 312.41c-25.55 109.81-123.96 191.59-241.55 191.59-137 0-248-111-248-248a247 247 0 0 1 56-157v45.71a50 50 0 0 0 8.55 27.95c11.72 17.39 28.38 42.07 35.67 52.77a114.79 114.79 0 0 0 18.06 20.74l.8.72a144.26 144.26 0 0 0 31.65 21.75c14 7.05 34.44 18.16 48.81 26.11a31.9 31.9 0 0 1 16.46 28v32a32 32 0 0 0 9.37 22.63c15 15 24.32 38.63 22.63 51.25v29.07a21 21 0 0 0 23.49 20.85c1.75-.21 3.49-.44 5.23-.7a20.91 20.91 0 0 0 17.17-15.76l14.11-57.63c2-5.49 3.26-11.21 4.77-16.87a23.9 23.9 0 0 1 6.23-10.71c3.32-3.33 7.41-7.4 11.31-11.28a46.46 46.46 0 0 0 13.72-33 30.49 30.49 0 0 0 -8.93-21.6l-13.71-13.67a32 32 0 0 0 -22.63-9.33h-66.76c-9.41-4.71-21.48-32-32-32a67.72 67.72 0 0 1 -30.31-7.16l-11.08-5.54a12 12 0 0 1 1.56-22l31.17-10.39a16 16 0 0 1 15.56 3.09l9.28 8.06a8 8 0 0 0 5.24 2h5.64a8 8 0 0 0 7.15-11.58l-15.59-31.19a8 8 0 0 1 1.58-9.29l9.92-9.65a8 8 0 0 1 5.58-2.35h9a8 8 0 0 0 5.66-2.34l8-8a8 8 0 0 0 0-11.31l-4.69-4.69a8 8 0 0 1 0-11.31l10.33-10.35 4.69-4.68a16 16 0 0 0 0-22.63l-24.4-24.4a12.38 12.38 0 0 0 -9.55-3.61c-2.53.17-5.05.38-7.58.65a12.41 12.41 0 0 0 -11.16 12.33 16.35 16.35 0 0 1 -11.59 15.83 16 16 0 0 1 -11.57-1.07 66.09 66.09 0 0 1 -16-11.24l-40.58-38.64a247 247 0 0 1 111.74-26.54c103.83 0 192.71 63.76 229.67 154.27l-36.51 3.15a76.22 76.22 0 0 0 -27.48 7.74 24.05 24.05 0 0 0 -9.24 8.15l-19.59 29.38a24 24 0 0 0 0 26.62l18 27a24 24 0 0 0 10.54 8.78l20.52 10.1z" opacity=".4"/><path d="m321.39 297.36a32 32 0 0 0 -22.63-9.36h-66.76c-9.41-4.71-21.48-32-32-32a67.72 67.72 0 0 1 -30.31-7.16l-11.08-5.54a12 12 0 0 1 1.56-22l31.17-10.39a16 16 0 0 1 15.56 3.09l9.28 8.06a8 8 0 0 0 5.24 2h5.64a8 8 0 0 0 7.15-11.58l-15.59-31.19a8 8 0 0 1 1.58-9.29l9.92-9.65a8 8 0 0 1 5.58-2.35h9a8 8 0 0 0 5.66-2.34l8-8a8 8 0 0 0 0-11.31l-4.69-4.69a8 8 0 0 1 0-11.31l10.33-10.35 4.69-4.68a16 16 0 0 0 0-22.63l-24.4-24.4a12.38 12.38 0 0 0 -9.55-3.61c-2.53.17-5.05.38-7.58.65a12.41 12.41 0 0 0 -11.16 12.33 16.35 16.35 0 0 1 -11.59 15.83 16 16 0 0 1 -11.57-1.07 66.09 66.09 0 0 1 -16-11.24l-40.58-38.64a249 249 0 0 0 -80.26 64.46v45.71a50 50 0 0 0 8.55 27.95c11.72 17.39 28.38 42.07 35.67 52.77a114.79 114.79 0 0 0 18.06 20.74l.8.72a144.26 144.26 0 0 0 31.65 21.75c14 7.05 34.44 18.16 48.81 26.11a31.9 31.9 0 0 1 16.46 28v32a32 32 0 0 0 9.37 22.63c15 15 24.32 38.63 22.63 51.25v29.07a21 21 0 0 0 23.49 20.85c1.75-.21 3.49-.44 5.23-.7a20.91 20.91 0 0 0 17.17-15.76l14.11-57.63c2-5.49 3.26-11.21 4.77-16.87a23.9 23.9 0 0 1 6.23-10.71c3.32-3.33 7.41-7.4 11.31-11.28a46.46 46.46 0 0 0 13.72-33 30.49 30.49 0 0 0 -8.93-21.6zm156.28-135.09-36.51 3.15a76.22 76.22 0 0 0 -27.48 7.74 24.05 24.05 0 0 0 -9.24 8.15l-19.59 29.38a24 24 0 0 0 0 26.62l18 27a24 24 0 0 0 10.54 8.78l20.52 10.1 55.64 29.22a249.21 249.21 0 0 0 -11.88-150.14z"/></svg>