<svg viewBox="0 0 496 512"><path d="m487.54 320.4h-48.64a15.8 15.8 0 0 1 -11.4-4.8l-32-32.6a11.92 11.92 0 0 1 .1-16.7l12.5-12.5v-8.7a11.37 11.37 0 0 0 -3.3-8l-9.4-9.4a11.37 11.37 0 0 0 -8-3.3h-16a11.31 11.31 0 0 1 -8-19.3l9.4-9.4a11.37 11.37 0 0 1 8-3.3h32a11.35 11.35 0 0 0 11.3-11.3v-9.4a11.35 11.35 0 0 0 -11.3-11.3h-36.7a16 16 0 0 0 -16 16v4.5a16 16 0 0 1 -10.9 15.2l-31.6 10.5a8 8 0 0 0 -5.5 7.6v2.2a8 8 0 0 1 -8 8h-16a8 8 0 0 1 -8-8 8 8 0 0 0 -8-8h-3.1a8.14 8.14 0 0 0 -7.2 4.4l-9.4 18.7a15.94 15.94 0 0 1 -14.3 8.8h-22.1a16 16 0 0 1 -16-16v-25.3a16 16 0 0 1 4.7-11.3l20.1-20.1a24.77 24.77 0 0 0 7.2-17.5 8 8 0 0 1 5.5-7.6l40-13.3a11.66 11.66 0 0 0 4.4-2.7l26.8-26.8a11.31 11.31 0 0 0 -8-19.3h-20.7l-16 16v8a8 8 0 0 1 -8 8h-16a8 8 0 0 1 -8-8v-20a8.05 8.05 0 0 1 3.2-6.4l82.42-60.08a247.79 247.79 0 0 0 -69.62-9.92c-137 0-248 111-248 248s111 248 248 248a251.57 251.57 0 0 0 32.1-2.06v-53.54a16 16 0 0 0 -16-16h-20.2c-10.8 0-26.7-5.3-35.4-11.8l-22.2-16.7a45.42 45.42 0 0 1 -18.2-36.4v-23.9a45.46 45.46 0 0 1 22.1-39l42.9-25.7a46.13 46.13 0 0 1 23.4-6.5h31.2a45.62 45.62 0 0 1 29.6 10.9l43.2 37.1h18.3a32 32 0 0 1 22.6 9.4l17.3 17.3.08.08c13.22 11.88 21.22 28.44 21.22 46.19v19.63a247.11 247.11 0 0 0 47.54-92.6zm-300.14-163.3a11.37 11.37 0 0 1 -8 3.3h-16a11.31 11.31 0 0 1 -8-19.3l25.4-25.4a11.31 11.31 0 0 1 19.3 8v16a11.37 11.37 0 0 1 -3.3 8z" opacity=".4"/><path d="m187.4 157.1 9.4-9.4a11.37 11.37 0 0 0 3.3-8v-16a11.31 11.31 0 0 0 -19.3-8l-25.4 25.4a11.31 11.31 0 0 0 8 19.3h16a11.37 11.37 0 0 0 8-3.3zm231.38 190.08-.08-.08-17.3-17.3a32 32 0 0 0 -22.6-9.4h-18.3l-43.2-37.1a45.62 45.62 0 0 0 -29.6-10.9h-31.2a46.13 46.13 0 0 0 -23.4 6.5l-42.9 25.7a45.46 45.46 0 0 0 -22.1 39v23.9a45.42 45.42 0 0 0 18.2 36.4l22.2 16.7c8.7 6.5 24.6 11.8 35.4 11.8h20.2a16 16 0 0 1 16 16v53.54a247.57 247.57 0 0 0 159.9-88.94v-19.63c0-17.75-8-34.31-21.22-46.19zm-101.16-329.26-82.42 60.08a8.05 8.05 0 0 0 -3.2 6.4v20a8 8 0 0 0 8 8h16a8 8 0 0 0 8-8v-8l16-16h20.7a11.31 11.31 0 0 1 8 19.3l-26.8 26.8a11.66 11.66 0 0 1 -4.4 2.7l-40 13.3a8 8 0 0 0 -5.5 7.6 24.77 24.77 0 0 1 -7.2 17.5l-20.1 20.1a16 16 0 0 0 -4.7 11.3v25.3a16 16 0 0 0 16 16h22.1a15.94 15.94 0 0 0 14.3-8.8l9.4-18.7a8.14 8.14 0 0 1 7.2-4.4h3.1a8 8 0 0 1 8 8 8 8 0 0 0 8 8h16a8 8 0 0 0 8-8v-2.2a8 8 0 0 1 5.5-7.6l31.6-10.5a16 16 0 0 0 10.9-15.2v-4.5a16 16 0 0 1 16-16h36.7a11.35 11.35 0 0 1 11.3 11.3v9.4a11.35 11.35 0 0 1 -11.3 11.3h-32a11.37 11.37 0 0 0 -8 3.3l-9.4 9.4a11.31 11.31 0 0 0 8 19.3h16a11.37 11.37 0 0 1 8 3.3l9.4 9.4a11.37 11.37 0 0 1 3.3 8v8.7l-12.5 12.5a11.92 11.92 0 0 0 -.1 16.7l32 32.6a15.8 15.8 0 0 0 11.4 4.8h48.64a248.29 248.29 0 0 0 8.46-64.4c0-112.82-75.29-208-178.38-238.08z"/></svg>