<svg viewBox="0 0 448 512"><path d="m94.87 305.14a160 160 0 1 1 226.27 0 160 160 0 0 1 -226.27 0z" opacity=".4"/><path d="m4.69 377.38 59.5-59.5c2.82 3.23 5 6.81 8.07 9.88a192.1 192.1 0 0 0 271.62 0c74.89-74.86 74.89-196.67 0-271.53-3-3-6.23-5.74-9.41-8.53l43-43a16 16 0 0 1 22.64 0l11.34 11.3a16 16 0 0 1 0 22.63l-10.7 10.7c69.82 93.94 62.34 227.16-22.91 312.38a238.35 238.35 0 0 1 -121.75 65.29v37h92a36 36 0 0 1 36 36 12 12 0 0 1 -12 12h-296.09a12 12 0 0 1 -12-12 36 36 0 0 1 36-36h92v-32.75a239.42 239.42 0 0 1 -126.65-46.64l-26.71 26.7a16 16 0 0 1 -22.64 0l-11.31-11.31a16 16 0 0 1 0-22.62z"/></svg>