<svg viewBox="0 0 496 512"><path d="m340.45 320h-184.9a579.08 579.08 0 0 1 0-128h184.9a575 575 0 0 1 3.55 64 575 575 0 0 1 -3.55 64zm-180.25-160h175.6c-.41-2.31-.84-4.62-1.28-6.91-6-30.85-14.42-58.37-25.13-81.78-9.85-21.54-21.39-38.77-33.34-49.83-9.67-8.95-19.11-13.48-28.05-13.48s-18.38 4.53-28 13.48c-12 11.06-23.49 28.29-33.34 49.83-10.66 23.41-19.16 50.93-25.13 81.78-.53 2.29-.92 4.6-1.33 6.91zm-40.2 96a608 608 0 0 1 3.34-64h-114.99a249.52 249.52 0 0 0 0 128h115a608 608 0 0 1 -3.35-64zm367.62-64h-115a608.06 608.06 0 0 1 3.38 64 608 608 0 0 1 -3.34 64h115a249.52 249.52 0 0 0 0-128zm-10.92-32a248.62 248.62 0 0 0 -161.12-142.68c24.13 33 42.89 83.15 52.75 142.68zm-161.12 334.68a248.59 248.59 0 0 0 161.13-142.68h-108.38c-9.86 59.53-28.62 109.68-52.75 142.68zm20.22-142.68h-175.6c.41 2.31.84 4.62 1.28 6.91 6 30.85 14.42 58.37 25.13 81.78 9.85 21.54 21.38 38.77 33.34 49.83 9.67 9 19.11 13.48 28.05 13.48s18.38-4.53 28.05-13.48c12-11.06 23.49-28.29 33.34-49.83 10.71-23.41 19.16-50.93 25.13-81.78.48-2.29.87-4.6 1.28-6.91zm-155.38-334.68a248.59 248.59 0 0 0 -161.13 142.68h108.38c9.86-59.53 28.62-109.68 52.75-142.68zm-161.13 334.68a248.59 248.59 0 0 0 161.13 142.68c-24.13-33-42.89-83.15-52.75-142.68z" opacity=".4"/><path d="m376 256a608 608 0 0 0 -3.34-64h115a245.72 245.72 0 0 0 -10.92-32h-108.41c-9.86-59.53-28.62-109.68-52.75-142.68a248.23 248.23 0 0 0 -67.58-9.32c8.94 0 18.38 4.53 28.05 13.48 12 11.06 23.49 28.29 33.34 49.83 10.71 23.41 19.16 50.93 25.13 81.78.44 2.29.87 4.6 1.28 6.91h-175.6c.41-2.31.84-4.62 1.28-6.91 6-30.85 14.42-58.37 25.13-81.78 9.85-21.54 21.39-38.77 33.39-49.83 9.62-8.95 19.06-13.48 28-13.48a248.23 248.23 0 0 0 -67.58 9.32c-24.13 33-42.89 83.15-52.75 142.68h-108.38a245.72 245.72 0 0 0 -10.92 32h115a613.93 613.93 0 0 0 0 128h-115a245.72 245.72 0 0 0 10.92 32h108.38c9.86 59.53 28.62 109.68 52.75 142.68a248.23 248.23 0 0 0 67.58 9.32c-8.94 0-18.38-4.53-28.05-13.48-12-11.06-23.49-28.29-33.34-49.83-10.71-23.41-19.16-50.93-25.13-81.78-.44-2.29-.87-4.6-1.28-6.91h175.6c-.41 2.31-.84 4.62-1.28 6.91-6 30.85-14.42 58.37-25.13 81.78-9.85 21.54-21.38 38.77-33.34 49.83-9.67 9-19.11 13.48-28.05 13.48a248.23 248.23 0 0 0 67.58-9.32c24.13-33 42.89-83.15 52.75-142.68h108.38a245.72 245.72 0 0 0 10.92-32h-115a605.37 605.37 0 0 0 3.37-64zm-35.54 64h-184.91a579.08 579.08 0 0 1 0-128h184.9a575 575 0 0 1 3.55 64 575 575 0 0 1 -3.55 64z"/></svg>