<svg viewBox="0 0 448 512"><path d="m67.9 384h124.1v-32h-57.9c-14.2 0-22-15-12.9-24.9l65.5-71.1h-30.1c-10.7 0-16.5-11.2-9.7-18.7l67.4-73.2a13.35 13.35 0 0 1 19.3 0l67.4 73.2c6.8 7.4 1 18.7-9.7 18.7h-30.1l65.5 71.1c9.1 9.9 1.3 24.9-12.9 24.9h-57.8v32h124.1c41.7-40.6 67.9-97.1 67.9-160 0-123.7-100.3-224-224-224s-224 100.3-224 224c0 62.9 26.1 119.4 67.9 160zm268.1-224a16 16 0 1 1 -16 16 16 16 0 0 1 16-16zm-96-96a16 16 0 1 1 -16 16 16 16 0 0 1 16-16zm-160 160a16 16 0 1 1 -16 16 16 16 0 0 1 16-16z" opacity=".4"/><path d="m134.1 352h57.9v32h64v-32h57.8c14.2 0 22-15 12.9-24.9l-65.5-71.1h30.1c10.7 0 16.5-11.3 9.7-18.7l-67.4-73.2a13.35 13.35 0 0 0 -19.3 0l-67.4 73.2c-6.8 7.5-1 18.7 9.7 18.7h30.1l-65.5 71.1c-9.1 9.9-1.3 24.9 12.9 24.9zm297.3 135.1-47.4-71.1h-320l-47.4 71.1a16 16 0 0 0 13.3 24.9h388.2a16 16 0 0 0 13.3-24.9z"/></svg>