<svg viewBox="0 0 496 512"><path d="m491.33 208h-67.83a15.5 15.5 0 0 0 -15.5 15.5v6.93a15.49 15.49 0 0 1 -8.57 13.86l-15.43 7.71a15.49 15.49 0 0 1 -15.53-1l-18.17-12.12a15.52 15.52 0 0 0 -13.5-1.81l-2.65.88a15.47 15.47 0 0 0 -9.83 19.56 15.83 15.83 0 0 0 1.83 3.74l13.24 19.86a15.49 15.49 0 0 0 12.89 6.9h8.21a15.5 15.5 0 0 1 15.5 15.5v11.34a15.52 15.52 0 0 1 -3.1 9.3l-18.74 25a15.57 15.57 0 0 0 -2.83 6.43l-4.32 22.81a15.53 15.53 0 0 1 -4.76 8.56 159.61 159.61 0 0 0 -25 29.16l-13 19.55a27.77 27.77 0 0 1 -47.91-3 78.82 78.82 0 0 1 -8.33-35.27v-29.89a15.5 15.5 0 0 0 -15.5-15.5h-25.88a54.63 54.63 0 0 1 -54.62-54.63v-14.06a54.65 54.65 0 0 1 21.85-43.7l27.58-20.69a54.6 54.6 0 0 1 32.77-10.92h.89a54.52 54.52 0 0 1 24.43 5.77l14.72 7.36a15.49 15.49 0 0 0 11.83.84l47.31-15.77a15.5 15.5 0 0 0 -4.9-30.2h-10.09a15.5 15.5 0 0 1 -11-4.54l-6.92-6.92a15.5 15.5 0 0 0 -11-4.54h-90a15.5 15.5 0 0 1 -15.47-15.5v-4.4a15.52 15.52 0 0 1 11.74-15l14.45-3.61a15.53 15.53 0 0 0 9.14-6.44l8.08-12.11a15.47 15.47 0 0 1 12.89-6.94h24.21a15.5 15.5 0 0 0 15.49-15.51v-70.44a249.89 249.89 0 0 0 -32-2.05c-137 0-248 111-248 248s111 248 248 248 248-111 248-248a249.51 249.51 0 0 0 -4.67-48z" opacity=".4"/><path d="m423.5 208a15.5 15.5 0 0 0 -15.5 15.5v6.93a15.49 15.49 0 0 1 -8.57 13.86l-15.43 7.71a15.49 15.49 0 0 1 -15.53-1l-18.17-12.12a15.52 15.52 0 0 0 -13.5-1.81l-2.65.88a15.47 15.47 0 0 0 -9.83 19.56 15.83 15.83 0 0 0 1.83 3.74l13.24 19.86a15.49 15.49 0 0 0 12.89 6.9h8.21a15.5 15.5 0 0 1 15.5 15.5v11.34a15.52 15.52 0 0 1 -3.1 9.3l-18.74 25a15.57 15.57 0 0 0 -2.83 6.43l-4.32 22.81a15.53 15.53 0 0 1 -4.76 8.56 159.61 159.61 0 0 0 -25 29.16l-13 19.55a27.77 27.77 0 0 1 -47.91-3 78.82 78.82 0 0 1 -8.33-35.27v-29.89a15.5 15.5 0 0 0 -15.5-15.5h-25.88a54.63 54.63 0 0 1 -54.62-54.63v-14.06a54.65 54.65 0 0 1 21.85-43.7l27.58-20.69a54.6 54.6 0 0 1 32.77-10.92h.89a54.52 54.52 0 0 1 24.43 5.77l14.72 7.36a15.49 15.49 0 0 0 11.83.84l47.31-15.77a15.5 15.5 0 0 0 -4.9-30.2h-10.09a15.5 15.5 0 0 1 -11-4.54l-6.92-6.92a15.5 15.5 0 0 0 -11-4.54h-90a15.5 15.5 0 0 1 -15.47-15.5v-4.4a15.52 15.52 0 0 1 11.74-15l14.45-3.61a15.53 15.53 0 0 0 9.14-6.44l8.08-12.11a15.47 15.47 0 0 1 12.89-6.94h24.21a15.5 15.5 0 0 0 15.49-15.51v-70.44c106 13.65 191 94.19 211.34 197.95z"/></svg>