<svg viewBox="0 0 496 512"><path d="m312 16.35v34.38a28 28 0 0 1 -11.12 22.35l-41.41 31.27a8 8 0 0 0 .86 13.81l10.83 5.41a16 16 0 0 1 8.84 14.31v78.12a8 8 0 0 1 -8 8h-3.06a8 8 0 0 1 -7.15-4.42 4.47 4.47 0 0 0 -1.72-1.86 4.42 4.42 0 0 0 -6.06 1.54l-17.34 29a16 16 0 0 1 -13.73 7.74h-.31a16 16 0 0 0 -11.32 4.69l-5.66 5.66a8 8 0 0 0 0 11.31l5.66 5.66a16 16 0 0 1 4.69 11.31v9.37a16 16 0 0 1 -16 16h-6.1a16 16 0 0 1 -14.28-8.85l-22.62-45.23a8 8 0 0 0 -10.72-3.6 8.14 8.14 0 0 0 -2.11 1.53l-19.47 19.46a16 16 0 0 1 -11.32 4.69h-111.33c15.69 121.88 119.79 216 245.95 216 137 0 248-111 248-248 0-114.87-78-211.44-184-239.65zm96 342.08a16 16 0 0 1 -4.69 11.31l-9.57 9.57a16 16 0 0 1 -11.31 4.69h-15.16a16 16 0 0 1 -11.36-4.74l-13-13a26.78 26.78 0 0 0 -25.42-7l-21.27 5.32a15.86 15.86 0 0 1 -3.88.48h-10.34a16 16 0 0 1 -11.24-4.69l-11.91-11.91a8 8 0 0 1 -2.34-5.66v-10.2a8 8 0 0 1 5-7.43l39.34-15.74a26.35 26.35 0 0 0 5.59-3.05l23.71-16.89a8 8 0 0 1 4.64-1.48h12.14a8 8 0 0 1 7.39 4.93l5.35 12.85a4 4 0 0 0 3.69 2.46h3.8a4 4 0 0 0 3.84-2.88l4.16-14.49a4 4 0 0 1 3.84-2.88h6.06a4 4 0 0 1 4 4v13a8 8 0 0 0 2.34 5.66l11.91 11.91a16 16 0 0 1 4.69 11.26z" opacity=".4"/><path d="m260.07 217.72a4.47 4.47 0 0 1 1.72 1.86 8 8 0 0 0 7.15 4.42h3.06a8 8 0 0 0 8-8v-78.12a16 16 0 0 0 -8.84-14.31l-10.83-5.41a8 8 0 0 1 -.86-13.81l41.41-31.27a28 28 0 0 0 11.12-22.35v-34.38a248.23 248.23 0 0 0 -64-8.35c-137 0-248 111-248 248a249.89 249.89 0 0 0 2.05 32h111.33a16 16 0 0 0 11.31-4.69l19.47-19.46a8 8 0 0 1 12.84 2.07l22.62 45.23a16 16 0 0 0 14.28 8.85h6.1a16 16 0 0 0 16-16v-9.37a16 16 0 0 0 -4.69-11.31l-5.66-5.66a8 8 0 0 1 0-11.31l5.66-5.66a16 16 0 0 1 11.32-4.69h.31a16 16 0 0 0 13.72-7.77l17.34-28.95a4.42 4.42 0 0 1 6.05-1.57zm143.24 104.8-11.91-11.91a8 8 0 0 1 -2.34-5.66v-12.95a4 4 0 0 0 -4-4h-6.06a4 4 0 0 0 -3.84 2.88l-4.16 14.49a4 4 0 0 1 -3.84 2.88h-3.8a4 4 0 0 1 -3.69-2.46l-5.35-12.85a8 8 0 0 0 -7.39-4.93h-12.14a8 8 0 0 0 -4.64 1.48l-23.71 16.89a26.35 26.35 0 0 1 -5.59 3.05l-39.34 15.74a8 8 0 0 0 -5 7.43v10.2a8 8 0 0 0 2.34 5.66l11.91 11.91a16 16 0 0 0 11.24 4.69h10.34a15.86 15.86 0 0 0 3.88-.48l21.27-5.32a26.78 26.78 0 0 1 25.42 7l13 13a16 16 0 0 0 11.36 4.74h15.16a16 16 0 0 0 11.31-4.69l9.57-9.57a16 16 0 0 0 4.69-11.31v-24.6a16 16 0 0 0 -4.69-11.31z"/></svg>