<svg viewBox="0 0 416 512"><path d="m208 0c-114.9 0-208 93.1-208 208 0 74.2 39 139.2 97.5 176h221c58.5-36.8 97.5-101.8 97.5-176 0-114.9-93.1-208-208-208zm-3 229.8c26.3 9.4 51.5-15.1 41.9-41.9a32.91 32.91 0 1 1 -41.9 41.9zm46.9 102.1a32.88 32.88 0 0 1 -30.9-22.1c26.3 9.4 51.5-15.1 41.9-41.9a32.91 32.91 0 0 1 -11 64zm64-64a32.88 32.88 0 0 1 -30.9-22.1c26.3 9.4 51.5-15.1 41.9-41.9a32.91 32.91 0 0 1 -11 64z" opacity=".4"/><path d="m326.9 203.9c9.6 26.8-15.6 51.3-41.9 41.9a32.91 32.91 0 1 0 41.9-41.9zm-105.9 105.9a32.91 32.91 0 1 0 41.9-41.9c9.6 26.8-15.6 51.3-41.9 41.9zm14.9-57.9a32.91 32.91 0 0 0 11-64c9.6 26.8-15.6 51.3-41.9 41.9a32.88 32.88 0 0 0 30.9 22.1zm-107.9 196.1h16a32 32 0 0 1 32 32v20a12 12 0 0 0 12 12h40a12 12 0 0 0 12-12v-20a32 32 0 0 1 32-32h16a32 32 0 0 0 32-32h-224a32 32 0 0 0 32 32z"/></svg>