<svg viewBox="0 0 640 512"><path d="m64 205.15a64 64 0 0 0 -64 64v26.9h120a8 8 0 0 1 8 8v32a8 8 0 0 1 -8 8h-120v48h120a8 8 0 0 1 8 8v32a8 8 0 0 1 -8 8h-120v8a64.06 64.06 0 0 0 64 64h302.6a64 64 0 0 0 57.7-36.26l90-187.42-438.5-82.12a64 64 0 0 0 -11.8-1.1z" opacity=".4"/><path d="m120 392.05h-120v48h120a8 8 0 0 0 8-8v-32a8 8 0 0 0 -8-8zm0-96h-120v48h120a8 8 0 0 0 8-8v-32a8 8 0 0 0 -8-8zm511-287.46-14.4-6.94-.18-.09a15.91 15.91 0 0 0 -21.22 7.49l-129.65 270.19 48.76 9.13 124.09-258.37a16.14 16.14 0 0 0 -7.4-21.41z"/></svg>