<svg viewBox="0 0 512 512"><path d="m160 224h32v-96h-32zm-32 128h32v-128h-32zm-32 160h32v-160h-32zm256-288v128h32v-128zm-32-96v96h32v-96zm64 224v160h32v-160z" opacity=".4"/><path d="m496 352h-16v-112a16 16 0 0 0 -16-16h-16v-80a16 16 0 0 0 -16-16h-16v-112a16 16 0 0 0 -32 0v16h-64v-16a16 16 0 0 0 -32 0v16h-64v-16a16 16 0 0 0 -32 0v16h-64v-16a16 16 0 0 0 -32 0v112h-16a16 16 0 0 0 -16 16v80h-16a16 16 0 0 0 -16 16v112h-16a16 16 0 0 0 -16 16v128a16 16 0 0 0 16 16h80v-160h32v-128h32v-96h32v96h-32v128h-32v160h80v-80a16 16 0 0 1 16-16h64a16 16 0 0 1 16 16v80h80v-160h-32v-128h-32v-96h32v96h32v128h32v160h80a16 16 0 0 0 16-16v-128a16 16 0 0 0 -16-16zm-264-176a16 16 0 0 1 16-16h16a16 16 0 0 1 16 16v48h-48zm56 176h-64v-64a16 16 0 0 1 16-16h32a16 16 0 0 1 16 16z"/></svg>