<svg viewBox="0 0 384 512"><path d="m69.56 317.08c62.84-43.05 161.76-94.4 238.6-73.8a26.79 26.79 0 0 1 19.84 25.87 34.81 34.81 0 0 1 -34.78 34.77h-109.22a24 24 0 0 0 -24 24v24h133.22a82.88 82.88 0 0 0 82.78-82.77 74.89 74.89 0 0 0 -55.41-72.27c-77.42-20.75-137.59-116.05-169.75-183.26-9.64-20.12-39.08-17.3-44.84 4.17l-73.18 273.27c-5.82 21.62 18.53 38.49 36.74 26.02z" opacity=".4"/><path d="m368 448h-16v-32a32 32 0 0 0 -32-32h-256a32 32 0 0 0 -32 32v32h-16a16 16 0 0 0 -16 16v32a16 16 0 0 0 16 16h352a16 16 0 0 0 16-16v-32a16 16 0 0 0 -16-16z"/></svg>