<svg viewBox="0 0 496 512"><path d="m248 8c-137 0-248 111-248 248s111 248 248 248 248-111 248-248-111-248-248-248zm-104 392h-8a32 32 0 0 1 -32-32v-8h40zm0-56h-40v-8a32 32 0 0 1 32-32h8zm-8-136a32 32 0 1 1 32 32 32 32 0 0 1 -32-32zm72 192h-48v-40h48zm0-56h-48v-40h48zm64 56h-48v-40h48zm0-56h-48v-40h48zm64 56h-48v-40h48zm0-56h-48v-40h48zm-8-104a32 32 0 1 1 32-32 32 32 0 0 1 -32 32zm64 128a32 32 0 0 1 -32 32h-8v-40h40zm0-24h-40v-40h8a32 32 0 0 1 32 32z" opacity=".4"/><path d="m168 176a32 32 0 1 0 32 32 32 32 0 0 0 -32-32zm160 0a32 32 0 1 0 32 32 32 32 0 0 0 -32-32z"/></svg>