<svg viewBox="0 0 496 512"><path d="m248 8c-137 0-248 111-248 248s111 248 248 248 248-111 248-248-111-248-248-248zm-153.4 160.9 34.9-5 15.5-31.6a7.73 7.73 0 0 1 13.9 0l15.5 31.6 34.9 5a7.78 7.78 0 0 1 4.3 13.2l-25.4 24.6 6 34.9a7.48 7.48 0 0 1 -11 7.9l-31.2-16.2-31.3 16.3a7.48 7.48 0 0 1 -11-7.9l6-34.9-25.4-24.6a7.85 7.85 0 0 1 4.3-13.3zm297.2 169.8c-9.3 55-83.2 93.3-143.8 93.3s-134.5-38.3-143.8-93.3a16.06 16.06 0 0 1 20.7-17.9c30.2 9.7 75.1 15.2 123.1 15.2s92.9-5.5 123.1-15.2a16 16 0 0 1 20.7 17.9zm13.9-156.6-25.4 24.6 6 34.9a7.48 7.48 0 0 1 -11 7.9l-31.3-16.2-31.3 16.3a7.48 7.48 0 0 1 -11-7.9l6-34.9-25.4-24.6a7.81 7.81 0 0 1 4.3-13.2l34.9-5 15.5-31.6a7.73 7.73 0 0 1 13.9 0l15.5 31.6 34.9 5a7.7 7.7 0 0 1 4.4 13.1z" opacity=".4"/><path d="m209.3 168.9-34.9-5-15.5-31.6a7.73 7.73 0 0 0 -13.9 0l-15.5 31.6-34.9 5a7.85 7.85 0 0 0 -4.3 13.3l25.4 24.6-6 34.9a7.48 7.48 0 0 0 11 7.9l31.3-16.3 31.2 16.2a7.48 7.48 0 0 0 11-7.9l-6-34.9 25.4-24.6a7.78 7.78 0 0 0 -4.3-13.2zm192 .1-34.9-5-15.5-31.6a7.73 7.73 0 0 0 -13.9 0l-15.5 31.6-34.9 5a7.81 7.81 0 0 0 -6.47 8.95v.05a7.92 7.92 0 0 0 2.16 4.24l25.4 24.6-6 34.9a7.48 7.48 0 0 0 11 7.9l31.31-16.34 31.3 16.2a7.48 7.48 0 0 0 11-7.9l-6-34.9 25.4-24.6a7.68 7.68 0 0 0 -4.4-13.1z"/></svg>