<svg viewBox="0 0 504 512"><path d="m456 160c-44.1 0-80-35.4-80-79 0-4.41.3-14.2 8.1-32.2a246.82 246.82 0 0 0 -136.1-40.8c-137 0-248 111-248 248s111 248 248 248 248-111 248-248a247.08 247.08 0 0 0 -20.5-98.61 83.3 83.3 0 0 1 -19.5 2.61zm-183.8 63.4c3.1-42.09 32-71.4 55.8-71.4s52.7 29.31 56 71.4c.7 8.6-10.8 12-14.9 4.5l-9.5-17c-7.7-13.69-19.2-21.59-31.5-21.59s-23.8 7.9-31.5 21.59l-9.5 17c-4.1 7.43-15.6 4-14.9-4.48zm-160 0c3.1-42.09 32-71.4 55.8-71.4s52.7 29.31 56 71.4c.7 8.6-10.8 12-14.9 4.5l-9.5-17c-7.7-13.69-19.2-21.59-31.5-21.59s-23.8 7.9-31.5 21.59l-9.5 17c-4.2 7.43-15.6 4-14.9-4.48zm279.6 115.32c-9.3 55-83.2 93.28-143.8 93.28s-134.5-38.3-143.8-93.3a16 16 0 0 1 20.7-17.9c30.2 9.71 75.1 15.2 123.1 15.2s92.9-5.5 123.1-15.19a16.05 16.05 0 0 1 20.7 17.92z" opacity=".4"/><path d="m462.4 3.2a8 8 0 0 0 -11.2-1.6 7.58 7.58 0 0 0 -1.6 1.6c-13.1 17.39-41.6 57.8-41.6 77.8 0 26 21.5 47 48 47s48-21 48-47c0-20-28.5-60.41-41.6-77.8zm-294.4 148.8c-23.8 0-52.7 29.31-55.8 71.4-.7 8.5 10.7 11.91 14.9 4.5l9.5-17c7.7-13.69 19.2-21.59 31.5-21.59s23.8 7.9 31.5 21.59l9.5 17c4.1 7.5 15.6 4.1 14.9-4.5-3.3-42.07-32.2-71.4-56-71.4zm160 0c-23.8 0-52.7 29.31-55.8 71.4-.7 8.5 10.8 11.91 14.9 4.5l9.5-17c7.7-13.69 19.2-21.59 31.5-21.59s23.8 7.9 31.5 21.59l9.5 17c4.1 7.5 15.6 4.1 14.9-4.5-3.3-42.09-32.2-71.4-56-71.4z"/></svg>