<svg viewBox="0 0 496 512"><path d="m248 8c-137 0-248 111-248 248.06 0 106.32 67 196.73 161 232a95.5 95.5 0 0 1 -9-40v-45.48c-24.7-16.2-43.5-38.1-47.8-63.81a16.06 16.06 0 0 1 20.7-17.9c30.2 9.7 75.1 15.2 123.1 15.2s92.9-5.5 123.1-15.2a16.08 16.08 0 0 1 20.7 17.9c-4.3 25.71-23.1 47.61-47.8 63.81v45.51a95.5 95.5 0 0 1 -9 40c94-35.31 161-125.72 161-232 0-137.09-111-248.09-248-248.09zm-80 232a32 32 0 1 1 32-32 32 32 0 0 1 -32 32zm160 0a32 32 0 1 1 32-32 32 32 0 0 1 -32 32z" opacity=".4"/><path d="m258.5 392.28-1.8 7.8c-2.1 9.21-15.2 9.21-17.3 0l-1.8-7.8c-3.5-15.4-20.2-24.1-34.6-17.6-.9.4.3-.2-18.9 9.4v63c0 35.21 28 64.51 63.1 64.91a64 64 0 0 0 64.89-63.22v-64.77c-19.5-9.6-18.2-8.9-19-9.3-14.4-6.5-31.1 2.2-34.6 17.6zm-58.5-184.28a32 32 0 1 0 -32 32 32 32 0 0 0 32-32zm128-32a32 32 0 1 0 32 32 32 32 0 0 0 -32-32z"/></svg>