<svg viewBox="0 0 496 512"><path d="m248 8c-137 0-248 111-248 248.07 0 106.33 67 196.75 161 232a95.5 95.5 0 0 1 -9-40v-45.47c-24.7-16.2-43.5-38.1-47.8-63.81a16.06 16.06 0 0 1 20.7-17.9c30.2 9.7 75.1 15.2 123.1 15.2s92.9-5.5 123.1-15.2a16 16 0 0 1 20.7 17.9c-4.3 25.71-23.1 47.61-47.8 63.81v45.52a95.5 95.5 0 0 1 -9 40c94-35.31 161-125.73 161-232 0-137.12-111-248.12-248-248.12zm-56 225-9.5-8.5c-14.8-13.2-46.2-13.2-61 0l-9.5 8.5c-8.5 7.4-21.6.3-19.8-10.8 4-25.2 34.2-42.11 59.9-42.11s55.9 16.91 59.9 42.17c1.6 11.1-11.6 18.2-20 10.74zm105.71 20.22a64 64 0 1 1 .07.07h-.07z" opacity=".4"/><path d="m212 222.26c-4-25.2-34.2-42.11-59.9-42.11s-55.9 16.85-59.9 42.11c-1.8 11.1 11.3 18.2 19.8 10.8l9.5-8.5c14.8-13.2 46.2-13.2 61 0l9.5 8.44c8.4 7.4 21.6.3 20-10.8zm46.5 170-1.8 7.8c-2.1 9.22-15.2 9.22-17.3 0l-1.8-7.8c-3.5-15.4-20.2-24.1-34.6-17.6-.9.4.3-.2-18.9 9.4v63c0 35.21 28 64.51 63.1 64.91a64 64 0 0 0 64.89-63.1v-64.87c-19.5-9.6-18.2-8.9-19-9.3-14.39-6.5-31.09 2.2-34.59 17.6zm85.5-208.26a23.94 23.94 0 1 0 .12 0z"/></svg>