<svg viewBox="0 0 496 512"><path d="m248 8c-137 0-248 111-248 248s111 248 248 248 248-111 248-248-111-248-248-248zm63.7 128.7a19.76 19.76 0 0 1 32.7 0c12.4 18.4 15.1 36.9 15.7 55.3-.5 18.4-3.3 36.9-15.7 55.3a19.76 19.76 0 0 1 -32.7 0c-12.4-18.4-15.1-36.9-15.7-55.3.5-18.4 3.3-36.9 15.7-55.3zm-160 0a19.76 19.76 0 0 1 32.7 0c12.4 18.4 15.1 36.9 15.7 55.3-.5 18.4-3.3 36.9-15.7 55.3a19.76 19.76 0 0 1 -32.7 0c-12.4-18.4-15.1-36.9-15.7-55.3.5-18.4 3.3-36.9 15.7-55.3zm240.1 202c-9.3 55-83.2 93.3-143.8 93.3s-134.5-38.3-143.8-93.3a16 16 0 0 1 20.7-17.9c30.2 9.7 75.1 15.2 123.1 15.2s92.9-5.5 123.1-15.2a16 16 0 0 1 20.7 17.9z" opacity=".4"/><path d="m151.7 136.7c-12.4 18.4-15.2 36.9-15.7 55.3.6 18.4 3.3 36.9 15.7 55.3a19.76 19.76 0 0 0 32.7 0c12.4-18.4 15.2-36.9 15.7-55.3-.6-18.4-3.3-36.9-15.7-55.3a19.76 19.76 0 0 0 -32.7 0zm192.7 0a19.76 19.76 0 0 0 -32.7 0c-12.4 18.4-15.2 36.9-15.7 55.3.6 18.4 3.3 36.9 15.7 55.3a19.76 19.76 0 0 0 32.7 0c12.4-18.4 15.2-36.9 15.7-55.3-.6-18.4-3.3-36.9-15.7-55.3z"/></svg>