<svg viewBox="0 0 496 512"><path d="m248 8c-137 0-248 111-248 248s111 248 248 248 248-111 248-248-111-248-248-248zm20.2 214.2c4-25.2 34.2-42.1 59.9-42.1s55.9 16.9 59.9 42.1c1.6 11-11.5 18.2-20 10.8l-9.5-8.5c-14.8-13.2-46.2-13.2-61 0l-9.5 8.5c-8.3 7.4-21.6.4-19.8-10.8zm-100.2-46.2a32 32 0 1 1 -32 32 32 32 0 0 1 32-32zm223.8 162.7c-9.2 55-83.2 93.3-143.8 93.3s-134.5-38.3-143.8-93.3a16 16 0 0 1 20.7-17.9c30.2 9.7 75.1 15.2 123.1 15.2s92.9-5.5 123.1-15.2a16 16 0 0 1 20.7 17.9z" opacity=".4"/><path d="m168 176a32 32 0 1 0 32 32 32 32 0 0 0 -32-32zm220 46.2c-4-25.2-34.2-42.1-59.9-42.1s-55.9 16.9-59.9 42.1c-1.8 11.2 11.5 18.2 19.8 10.8l9.5-8.5c14.8-13.2 46.2-13.2 61 0l9.5 8.5c8.5 7.4 21.6.2 20-10.8z"/></svg>