<svg viewBox="0 0 448 512"><path d="m96 288h-64a32 32 0 0 0 -32 32v64a32 32 0 0 0 32 32h64a32 32 0 0 0 32-32v-64a32 32 0 0 0 -32-32zm160 0h-64a32 32 0 0 0 -32 32v64a32 32 0 0 0 32 32h64a32 32 0 0 0 32-32v-64a32 32 0 0 0 -32-32zm160 0h-64a32 32 0 0 0 -32 32v64a32 32 0 0 0 32 32h64a32 32 0 0 0 32-32v-64a32 32 0 0 0 -32-32z" opacity=".4"/><path d="m416 96h-64a32 32 0 0 0 -32 32v64a32 32 0 0 0 32 32h64a32 32 0 0 0 32-32v-64a32 32 0 0 0 -32-32zm-320 0h-64a32 32 0 0 0 -32 32v64a32 32 0 0 0 32 32h64a32 32 0 0 0 32-32v-64a32 32 0 0 0 -32-32zm160 0h-64a32 32 0 0 0 -32 32v64a32 32 0 0 0 32 32h64a32 32 0 0 0 32-32v-64a32 32 0 0 0 -32-32z"/></svg>