<svg viewBox="0 0 320 512"><path d="m288 352h-64a32 32 0 0 0 -32 32v64a32 32 0 0 0 32 32h64a32 32 0 0 0 32-32v-64a32 32 0 0 0 -32-32zm0-320h-64a32 32 0 0 0 -32 32v64a32 32 0 0 0 32 32h64a32 32 0 0 0 32-32v-64a32 32 0 0 0 -32-32zm0 160h-64a32 32 0 0 0 -32 32v64a32 32 0 0 0 32 32h64a32 32 0 0 0 32-32v-64a32 32 0 0 0 -32-32z" opacity=".4"/><path d="m96 352h-64a32 32 0 0 0 -32 32v64a32 32 0 0 0 32 32h64a32 32 0 0 0 32-32v-64a32 32 0 0 0 -32-32zm0-160h-64a32 32 0 0 0 -32 32v64a32 32 0 0 0 32 32h64a32 32 0 0 0 32-32v-64a32 32 0 0 0 -32-32zm0-160h-64a32 32 0 0 0 -32 32v64a32 32 0 0 0 32 32h64a32 32 0 0 0 32-32v-64a32 32 0 0 0 -32-32z"/></svg>