<svg viewBox="0 0 512 512"><path d="m243.76 223.27a39.45 39.45 0 0 1 -3.18-38.42l17.29-37.13a18.82 18.82 0 0 0 -30.38-21.23l-38.31 38.27a77.49 77.49 0 0 0 -18.24 28.83 77.6 77.6 0 0 1 -40.52 44.41l-76.42 35.33c-57.23 22.86-72.4 96.67-28.84 140.21l73.39 73.33c43.56 43.51 117.45 28.36 140.35-28.78l35.4-76.38a77.64 77.64 0 0 1 44.41-40.48 77.77 77.77 0 0 0 28.86-18.23l21.57-21.55a19.87 19.87 0 0 0 -20.11-33l-23.71 7.55a39.67 39.67 0 0 1 -36.76-7.11zm-62.1 171.09-11.31 11.31a8 8 0 0 1 -11.32 0l-52.69-52.67a8 8 0 0 1 0-11.31l11.32-11.31a8 8 0 0 1 11.31 0l52.69 52.68a8 8 0 0 1 0 11.3zm64-64-11.31 11.31a8 8 0 0 1 -11.32 0l-52.68-52.67a8 8 0 0 1 0-11.31l11.31-11.31a8 8 0 0 1 11.31 0l52.69 52.68a8 8 0 0 1 0 11.31z" opacity=".4"/><path d="m511.21 39.57a48.12 48.12 0 0 0 -37.79-38.26c-22.94-4.31-22.76-.52-106.68 53.62a32.15 32.15 0 0 0 -14.74 26.95v33.27l-108.19 108.18 44.75 45.6.09.05 173-172.93c.82.06 1.57.35 2.4.35a48 48 0 0 0 47.16-56.83zm-382.21 290.8a8 8 0 0 0 -11.31 0l-11.32 11.31a8 8 0 0 0 0 11.31l52.63 52.68a8 8 0 0 0 11.32 0l11.31-11.31a8 8 0 0 0 0-11.31zm64-64a8 8 0 0 0 -11.31 0l-11.31 11.31a8 8 0 0 0 0 11.31l52.62 52.69a8 8 0 0 0 11.32 0l11.31-11.31a8 8 0 0 0 0-11.31z"/></svg>