<svg viewBox="0 0 512 512"><path d="m229.27 300.21a74.51 74.51 0 0 0 8.43-34.21c0-29.14-17-54.82-43.15-71.17-12.82-8-27.53-12-42.55-13.88v-54.22l16.6-33.21a29 29 0 0 0 3.08-13v-54.1a26.42 26.42 0 0 0 -26.43-26.42h-34.53a26.41 26.41 0 0 0 -26.42 26.41v54.08a29.12 29.12 0 0 0 3.07 13l16.63 33.25v54.26c-15 1.84-29.74 5.84-42.58 13.83a104 104 0 0 0 -18.58 14.67c-15.39 15.39-24.62 35-24.61 56.58a74.36 74.36 0 0 0 8.41 34.2c8 15.65 6 35.59-4.88 48.78-13.65 16.49-21.83 36.37-21.76 57.94-.07 58 57.34 105 128 105 39.89 0 75.55-15 99-38.47 1.28-1.27 2.23-2.75 3.43-4.07a111.41 111.41 0 0 1 2.32-80.3l10.25-27.74a103.64 103.64 0 0 0 -8.81-12.42c-10.89-13.16-12.89-33.16-4.92-48.79zm-73 32.08a40 40 0 1 1 0-56.58 40 40 0 0 1 .02 56.58zm267.73 35.71h-80a8 8 0 0 0 -8 8v16a8 8 0 0 0 8 8h80a8 8 0 0 0 8-8v-16a8 8 0 0 0 -8-8zm0-64.12h-80a8 8 0 0 0 -8 8v16a8 8 0 0 0 8 8h80a8 8 0 0 0 8-8v-16a8 8 0 0 0 -8-8z" opacity=".4"/><path d="m505.48 400.82-26.93-73.45a72.15 72.15 0 0 1 2.57-55.79 72.13 72.13 0 0 0 7-30.94v-28.32a18.47 18.47 0 0 0 -34.88-8.47l-10.62 20.55c-5.36 10.37-15.35 17-26.62 19l-8-.1v-169.92a34.2 34.2 0 0 0 5.09-3.8 40.77 40.77 0 0 0 -51.44-62.75c-16.38 11.15-14 13.35-31.85 96.24a27.3 27.3 0 0 0 7.33 25l22.87 22.93v91.66l-8-.11c-11.3-3.11-20.84-11-25-22.37l-13-35.76a17.49 17.49 0 0 0 -33.92 6v50.33a72.07 72.07 0 0 0 7 30.93 72.07 72.07 0 0 1 2.53 55.78l-27 73.48c-22.61 52.59 15.93 111.06 73.15 111.06h96.41c57.23-.06 95.83-58.59 73.31-111.18zm-73.48-8.82a8 8 0 0 1 -8 8h-80a8 8 0 0 1 -8-8v-16a8 8 0 0 1 8-8h80a8 8 0 0 1 8 8zm0-64.12a8 8 0 0 1 -8 8h-80a8 8 0 0 1 -8-8v-16a8 8 0 0 1 8-8h80a8 8 0 0 1 8 8z"/></svg>