<svg viewBox="0 0 448 512"><path d="m400 32h-352a48 48 0 0 0 -48 48v352a48 48 0 0 0 48 48h352a48 48 0 0 0 48-48v-352a48 48 0 0 0 -48-48zm-48 336a16 16 0 0 1 -16 16h-32a16 16 0 0 1 -16-16v-80h-128v80a16 16 0 0 1 -16 16h-32a16 16 0 0 1 -16-16v-224a16 16 0 0 1 16-16h32a16 16 0 0 1 16 16v80h128v-80a16 16 0 0 1 16-16h32a16 16 0 0 1 16 16z" opacity=".4"/><path d="m352 368a16 16 0 0 1 -16 16h-32a16 16 0 0 1 -16-16v-80h-128v80a16 16 0 0 1 -16 16h-32a16 16 0 0 1 -16-16v-224a16 16 0 0 1 16-16h32a16 16 0 0 1 16 16v80h128v-80a16 16 0 0 1 16-16h32a16 16 0 0 1 16 16z"/></svg>