<svg viewBox="0 0 576 512"><path d="m304 96h-98.94a13.06 13.06 0 0 0 -13.06 13.06v37.88a13.06 13.06 0 0 0 13.06 13.06h18.94v64h-128v-64h18.94a13.06 13.06 0 0 0 13.06-13.06v-34.94a16 16 0 0 0 -16-16h-96a16 16 0 0 0 -16 16v34.94a13.06 13.06 0 0 0 13.06 13.06h18.94v192h-18.94a13.06 13.06 0 0 0 -13.06 13.06v34.94a16 16 0 0 0 16 16h98.94a13.06 13.06 0 0 0 13.06-13.06v-37.88a13.06 13.06 0 0 0 -13.06-13.06h-18.94v-64h128v64h-18.94a13.06 13.06 0 0 0 -13.06 13.06v34.94a16 16 0 0 0 16 16h96a16 16 0 0 0 16-16v-34.94a13.06 13.06 0 0 0 -13.06-13.06h-18.94v-192h18.94a13.06 13.06 0 0 0 13.06-13.06v-34.94a16 16 0 0 0 -16-16z" opacity=".4"/><path d="m560 352h-48v-232a24 24 0 0 0 -24-24h-40a24 24 0 0 0 -21.44 13.26l-24 48a24 24 0 0 0 21.44 34.74h24v160h-48a16 16 0 0 0 -16 16v32a16 16 0 0 0 16 16h160a16 16 0 0 0 16-16v-32a16 16 0 0 0 -16-16z"/></svg>