<svg viewBox="0 0 576 512"><path d="m304 96h-98.94a13.06 13.06 0 0 0 -13.06 13.06v37.88a13.06 13.06 0 0 0 13.06 13.06h18.94v64h-128v-64h18.94a13.06 13.06 0 0 0 13.06-13.06v-34.94a16 16 0 0 0 -16-16h-96a16 16 0 0 0 -16 16v34.94a13.06 13.06 0 0 0 13.06 13.06h18.94v192h-18.94a13.06 13.06 0 0 0 -13.06 13.06v34.94a16 16 0 0 0 16 16h98.94a13.06 13.06 0 0 0 13.06-13.06v-37.88a13.06 13.06 0 0 0 -13.06-13.06h-18.94v-64h128v64h-18.94a13.06 13.06 0 0 0 -13.06 13.06v34.94a16 16 0 0 0 16 16h96a16 16 0 0 0 16-16v-34.94a13.06 13.06 0 0 0 -13.06-13.06h-18.94v-192h18.94a13.06 13.06 0 0 0 13.06-13.06v-34.94a16 16 0 0 0 -16-16z" opacity=".4"/><path d="m560 352h-119.21c17-42.95 135.21-66.57 135.21-159.62 0-59.83-47.67-96.38-106.86-96.38-43.83 0-81.41 21.38-103.42 57a15.66 15.66 0 0 0 4.75 21.4l28.26 18.6a16.15 16.15 0 0 0 21.86-3.83c10.77-14.86 24.94-26 43.85-26s38.22 10.46 38.22 33.84c0 52.18-142.1 73.21-142.1 184.56a155.06 155.06 0 0 0 1.71 20.66 15.94 15.94 0 0 0 15.87 13.77h181.86a16 16 0 0 0 16-16v-32a16 16 0 0 0 -16-16z"/></svg>