<svg viewBox="0 0 576 512"><path d="m304 96h-98.94a13.06 13.06 0 0 0 -13.06 13.06v37.88a13.06 13.06 0 0 0 13.06 13.06h18.94v64h-128v-64h18.94a13.06 13.06 0 0 0 13.06-13.06v-34.94a16 16 0 0 0 -16-16h-96a16 16 0 0 0 -16 16v34.94a13.06 13.06 0 0 0 13.06 13.06h18.94v192h-18.94a13.06 13.06 0 0 0 -13.06 13.06v34.94a16 16 0 0 0 16 16h98.94a13.06 13.06 0 0 0 13.06-13.06v-37.88a13.06 13.06 0 0 0 -13.06-13.06h-18.94v-64h128v64h-18.94a13.06 13.06 0 0 0 -13.06 13.06v34.94a16 16 0 0 0 16 16h96a16 16 0 0 0 16-16v-34.94a13.06 13.06 0 0 0 -13.06-13.06h-18.94v-192h18.94a13.06 13.06 0 0 0 13.06-13.06v-34.94a16 16 0 0 0 -16-16z" opacity=".4"/><path d="m499 217.69 64.4-72.31a15.48 15.48 0 0 0 4-10.31v-23.32a16 16 0 0 0 -16.28-15.75h-167.12a16 16 0 0 0 -16 16v32a16 16 0 0 0 16 16h85.18c-2.29 2.45-4.65 5-7.19 7.9l-53.1 61.1a18 18 0 0 0 -3.83 10.17 18.36 18.36 0 0 0 1.38 6.34l8.41 18.59c2.35 5.21 9 9.42 14.84 9.42h15.95c28.94 0 57.79 10.32 57.79 38.48 0 21.32-19.93 36.79-47.39 36.79-22.08 0-41.18-9.17-57.7-22.83a16.46 16.46 0 0 0 -23.87 3.34l-19.75 28.8a15.46 15.46 0 0 0 2.53 20.35c27.65 24.76 64.75 37.55 102.26 37.55 71 0 116.49-48.86 116.49-106.06 0-47.3-32.73-80.89-77-92.25z"/></svg>