<svg viewBox="0 0 576 512"><path d="m304 96h-98.94a13.06 13.06 0 0 0 -13.06 13.06v37.88a13.06 13.06 0 0 0 13.06 13.06h18.94v64h-128v-64h18.94a13.06 13.06 0 0 0 13.06-13.06v-34.94a16 16 0 0 0 -16-16h-96a16 16 0 0 0 -16 16v34.94a13.06 13.06 0 0 0 13.06 13.06h18.94v192h-18.94a13.06 13.06 0 0 0 -13.06 13.06v34.94a16 16 0 0 0 16 16h98.94a13.06 13.06 0 0 0 13.06-13.06v-37.88a13.06 13.06 0 0 0 -13.06-13.06h-18.94v-64h128v64h-18.94a13.06 13.06 0 0 0 -13.06 13.06v34.94a16 16 0 0 0 16 16h96a16 16 0 0 0 16-16v-34.94a13.06 13.06 0 0 0 -13.06-13.06h-18.94v-192h18.94a13.06 13.06 0 0 0 13.06-13.06v-34.94a16 16 0 0 0 -16-16z" opacity=".4"/><path d="m560 224h-16v-112a16 16 0 0 0 -16-16h-32a16 16 0 0 0 -16 16v112h-64v-112a16 16 0 0 0 -16-16h-32a16 16 0 0 0 -16 16v144a32 32 0 0 0 32 32h96v112a16 16 0 0 0 16 16h32a16 16 0 0 0 16-16v-112h16a16 16 0 0 0 16-16v-32a16 16 0 0 0 -16-16z"/></svg>