<svg viewBox="0 0 576 512"><path d="m19.64 405 255.1-238.17a97 97 0 0 0 9.85 12l49.14 49.14a97.23 97.23 0 0 0 11.44 9.41l-238.17 254.98a61.84 61.84 0 1 1 -87.36-87.36z" opacity=".4"/><path d="m435.56 261.81 11.31-11.31-28.87-28.9a63.73 63.73 0 0 1 -61.61-16.35l-49.14-49.14a64 64 0 0 1 -18.75-45.25v-18.75l-90.5-45.25a160 160 0 0 1 226.28 0l45.25 45.25a63.73 63.73 0 0 1 16.35 61.61l28.9 28.9 11.31-11.31a16 16 0 0 1 22.63 0l22.63 22.63a16 16 0 0 1 0 22.62l-90.51 90.51a16 16 0 0 1 -22.63 0l-22.63-22.63a16 16 0 0 1 -.02-22.63z"/></svg>