<svg viewBox="0 0 512 512"><path d="m288 352a32 32 0 1 1 -32-32 32 32 0 0 1 32 32z" opacity=".4"/><path d="m509.34 307.25a32 32 0 0 0 -29.34-19.25h-64v-208a40 40 0 0 0 -80 0v134a10 10 0 0 1 -10 10h-20a10 10 0 0 1 -10-10v-174a40 40 0 0 0 -80 0v174a10 10 0 0 1 -10 10h-20a10 10 0 0 1 -10-10v-134a40 40 0 0 0 -80 0v208h-64a32 32 0 0 0 -23.4 53.83l102.69 110c35.71 38.25 88.4 60.17 144.71 60.17s109-21.92 144.72-60.14l102.68-110a32 32 0 0 0 5.94-34.61zm-253.34 108.75c-53 0-96-64-96-64s43-64 96-64 96 64 96 64-43 64-96 64z"/></svg>