<svg viewBox="0 0 576 512"><path d="m564 377-151.25 121a64 64 0 0 1 -40 14h-356.75a16 16 0 0 1 -16-16v-96a16 16 0 0 1 16-16h55.44l46.5-37.73a117.51 117.51 0 0 1 74.06-26.27h160a32 32 0 0 1 31.56 37.37c-2.56 15.74-17.34 26.63-33.28 26.63h-78.28a16 16 0 0 0 0 32h118.33a64 64 0 0 0 40-14l92.34-73.87c12.45-10 30.8-10.69 42.63 0a32 32 0 0 1 -1.3 48.87z" opacity=".4"/><path d="m384 128v-32a32 32 0 0 0 -32-32h-128a32 32 0 0 0 -32 32v32c0 14.5 14.28 32 32 32 64 0 96-32 96-32a96.1 96.1 0 0 1 -96 96c-51.14 0-96-44.86-96-96v-32a96.1 96.1 0 0 1 96-96h128a96.1 96.1 0 0 1 96 96v33.56c-.6 76.16-65.13 137.07-142.18 141.43l-17.82 1.01 53.91-53.2c24.58-24.26 42.09-56.5 42.09-90.8z"/></svg>