<svg viewBox="0 0 640 512"><path d="m204.8 230.4a32 32 0 1 0 -51.2 38.4l38.1 50.8a16 16 0 0 1 -1.5 20.9l-12.8 12.8a15.9 15.9 0 0 1 -23.6-1.1l-89.8-107.8v-148.4a32 32 0 0 0 -64 0v218.4a48.05 48.05 0 0 0 10.5 30l104.1 134.3a59.69 59.69 0 0 1 10.4 21.7 15.67 15.67 0 0 0 15.3 11.6h131.7a16 16 0 0 0 16-16v-112a128.2 128.2 0 0 0 -25.6-76.8zm403.2-166.4a32 32 0 0 0 -32 32v148.4l-89.8 107.8a16.06 16.06 0 0 1 -23.6 1.1l-12.8-12.8a16 16 0 0 1 -1.5-20.9l38.1-50.8a32 32 0 1 0 -51.2-38.4l-57.6 76.8a128.2 128.2 0 0 0 -25.6 76.8v112a16 16 0 0 0 16 16h131.7a15.76 15.76 0 0 0 15.3-11.6 59.69 59.69 0 0 1 10.4-21.7l104.1-134.3a48.05 48.05 0 0 0 10.5-30v-218.4a32 32 0 0 0 -32-32z" opacity=".4"/><path d="m201.2 150.4a31.51 31.51 0 0 1 0-44.7l96.4-96.4a31.63 31.63 0 0 1 44.8 0l96.3 96.3a31.63 31.63 0 0 1 0 44.8l-96.4 96.4a31.69 31.69 0 0 1 -44.7 0z"/></svg>