<svg viewBox="0 0 384 512"><path d="m383.81 256c0 2.72.19 13.25.19 16 0 50.65-22.12 81.57-71.26 72.6-9.3 18.6-39.49 30.74-62.32 16.45-21.17 24.64-53.89 22.64-70.94 6.3v99.85c0 24.15-20.2 44.8-43.83 44.8-23.28 0-43.82-21.35-43.82-44.8v-149.2a135.83 135.83 0 0 1 -24.92 14.15c-31.81 13.6-66.91-9.93-66.91-44.15 0-18.62 10.9-32.2 29.09-40 28.29-12.12 64.33-78.65 77.33-107.53a48 48 0 0 1 43.84-28.47h171.53a24 24 0 0 1 23.7 20.27c7.25 46.84 38.51 61.73 38.32 123.73z" opacity=".4"/><path d="m328 0h-192a24 24 0 0 0 -24 24v48a24 24 0 0 0 24 24h192a24 24 0 0 0 24-24v-48a24 24 0 0 0 -24-24zm-24 68a20 20 0 1 1 20-20 20 20 0 0 1 -20 20z"/></svg>