<svg viewBox="0 0 576 512"><path d="m559.73 392.21-135 99.52a104.8 104.8 0 0 1 -61.73 20.27h-347a16.11 16.11 0 0 1 -16-16v-96a16.11 16.11 0 0 1 16-16h55.37l46.5-37.74a117.7 117.7 0 0 1 74.13-26.26h160a32.07 32.07 0 0 1 31.62 37.38c-2.62 15.77-17.4 26.62-33.39 26.62h-78.23a16 16 0 0 0 0 32h120.59l119.67-88.18a40 40 0 1 1 47.47 64.37z" opacity=".4"/><path d="m400 96v64a16 16 0 0 1 -16 16h-64v64a16 16 0 0 1 -16 16h-64a16 16 0 0 1 -16-16v-64h-64a16 16 0 0 1 -16-16v-64a16 16 0 0 1 16-16h64v-64a16 16 0 0 1 16-16h64a16 16 0 0 1 16 16v64h64a16 16 0 0 1 16 16z"/></svg>