<svg viewBox="0 0 576 512"><path d="m352 128v-128h-128v128l64-32zm213.3 200.1c-11.8-10.7-30.2-10-42.6 0l-92.4 73.9a63.67 63.67 0 0 1 -40 14h-118.3a16 16 0 0 1 0-32h78.3c15.9 0 30.7-10.9 33.3-26.6a32 32 0 0 0 -31.6-37.4h-160a117.69 117.69 0 0 0 -74.1 26.3l-46.5 37.7h-55.4a16 16 0 0 0 -16 16v96a16 16 0 0 0 16 16h356.8a64.08 64.08 0 0 0 40-14l151.2-121a32 32 0 0 0 1.3-48.9z" opacity=".4"/><path d="m480 16v224a16 16 0 0 1 -16 16h-352a16 16 0 0 1 -16-16v-224a16 16 0 0 1 16-16h112v128l64-32 64 32v-128h112a16 16 0 0 1 16 16z"/></svg>