<svg viewBox="0 0 448 512"><path d="m408 200a40 40 0 0 0 -40 40h-8v-24a40 40 0 0 0 -80 0v24h-8v-40a40 40 0 0 0 -80 0v40h-8v-200a40 40 0 0 0 -80 0v276l-31.65-43.53a40 40 0 0 0 -64.7 47.06l128 176a40 40 0 0 0 32.35 16.47h208a40 40 0 0 0 38.94-30.84l32-136a40.36 40.36 0 0 0 1.06-9.16v-96a40 40 0 0 0 -40-40zm-184 200a16 16 0 0 1 -32 0v-64a16 16 0 0 1 32 0zm64 0a16 16 0 0 1 -32 0v-64a16 16 0 0 1 32 0zm64 0a16 16 0 0 1 -32 0v-64a16 16 0 0 1 32 0z" opacity=".4"/><path d="m272 320a16 16 0 0 0 -16 16v64a16 16 0 0 0 32 0v-64a16 16 0 0 0 -16-16zm-64 0a16 16 0 0 0 -16 16v64a16 16 0 0 0 32 0v-64a16 16 0 0 0 -16-16zm128 0a16 16 0 0 0 -16 16v64a16 16 0 0 0 32 0v-64a16 16 0 0 0 -16-16z"/></svg>