<svg viewBox="0 0 384 512"><path d="m0 224c0-34.22 35.1-57.75 66.91-44.12a135.83 135.83 0 0 1 24.92 14.12v-149.2c0-23.45 20.54-44.8 43.82-44.8 23.63 0 43.83 20.65 43.83 44.8v99.85c17.05-16.34 49.76-18.35 70.94 6.3 22.83-14.29 53-2.15 62.32 16.45 49.14-9 71.26 21.95 71.26 72.6 0 2.75-.2 13.28-.2 16 .17 62-31.06 76.89-38.31 123.73a24 24 0 0 1 -23.7 20.27h-171.53a48 48 0 0 1 -43.84-28.47c-13-28.88-49-95.41-77.33-107.53-18.19-7.8-29.09-21.38-29.09-40z" opacity=".4"/><path d="m328 416h-192a24 24 0 0 0 -24 24v48a24 24 0 0 0 24 24h192a24 24 0 0 0 24-24v-48a24 24 0 0 0 -24-24zm-24 68a20 20 0 1 1 20-20 20 20 0 0 1 -20 20z"/></svg>