<svg viewBox="0 0 576 512"><path d="m564 377-151.2 121a64.08 64.08 0 0 1 -40 14h-356.8a16 16 0 0 1 -16-16v-96a16 16 0 0 1 16-16h55.4l46.5-37.7a117.69 117.69 0 0 1 74.1-26.3h160a32 32 0 0 1 31.6 37.4c-2.6 15.7-17.4 26.6-33.3 26.6h-78.3a16 16 0 0 0 0 32h118.3a63.67 63.67 0 0 0 40-14l92.4-73.9c12.4-10 30.8-10.7 42.6 0a32 32 0 0 1 -1.3 48.9z" opacity=".4"/><path d="m404.1 17.52c35.4 30.6 37.2 85.6 5.6 118.8l-108.9 114.2a17.42 17.42 0 0 1 -25.5 0l-108.9-114.2c-31.6-33.2-29.7-88.2 5.6-118.8 30.8-26.7 76.7-21.9 104.9 7.8l11.1 11.6 11.2-11.7c28.2-29.6 74.1-34.4 104.9-7.7z"/></svg>