<svg viewBox="0 0 640 512"><path d="m224 248v-126.32a31.78 31.78 0 0 1 15-27.1l33.5-20.9a64.48 64.48 0 0 1 33.9-9.68h102.21l103.39-59.72a32 32 0 0 1 43.72 11.72l80 138.6a32 32 0 0 1 -11.7 43.7l-80 46.2v-28.5a56 56 0 0 0 -56-56h-184.02v88a40 40 0 1 1 -80 0z" opacity=".4"/><path d="m4.32 357.38a31.92 31.92 0 0 1 11.68-43.7l80-46.2v-47.3a63.86 63.86 0 0 1 31.1-54.8l64.89-39v121.62a72 72 0 1 0 144 0v-56h152.01a23.94 23.94 0 0 1 24 24v48a23.94 23.94 0 0 1 -24 24h-8v64a32 32 0 0 1 -32 32h-16a64.06 64.06 0 0 1 -64 64h-136.59l-103.41 59.68a32 32 0 0 1 -43.68-11.68z"/></svg>