<svg viewBox="0 0 512 512"><path d="m0 242.41v-66.41a48 48 0 0 1 48.8-48c26.3.5 47.2 22.5 47.2 48.8v48.1l8 7.1v-136a48 48 0 0 1 48.8-48c26.3.5 47.2 22.5 47.2 48.8v31.2h8v-48a48 48 0 0 1 48.8-48c26.3.5 47.2 22.5 47.2 48.8v47.2h8v-32a48 48 0 0 1 48.8-48c26.3.5 47.2 22.5 47.2 48.8v31.2h8a48 48 0 0 1 48.8-48c26.3.4 47.2 22.5 47.2 48.8v133.5a95.58 95.58 0 0 1 -7.5 37.3l-49 116.3a97.42 97.42 0 0 0 -7.5 37.3v2.9a23.94 23.94 0 0 1 -24 24h-240a23.94 23.94 0 0 1 -24-24v-6.7a48.21 48.21 0 0 0 -16.1-35.9l-111.7-99.29a96.23 96.23 0 0 1 -32.2-71.8z" opacity=".4"/></svg>