<svg viewBox="0 0 640 512"><path d="m0 128.2v255.8h64a32 32 0 0 0 32-32v-168l-72.17-55.8zm48 191.89a16 16 0 1 1 -16 16 16.05 16.05 0 0 1 16-16zm241.09-256.09h-83.79a31.94 31.94 0 0 0 -22.6 9.4l-20.34 20.31 51.13 39.52zm-161.09 287.91h18.3l90.5 81.89a64 64 0 0 0 90-9.3l.2-.2 17.91 15.5a37.16 37.16 0 0 0 52.29-5.39l8.8-10.83-278-214.86zm416-223.71v223.89a32 32 0 0 0 32 32h64v-255.89zm48 223.89a16 16 0 1 1 16-16 16 16 0 0 1 -16 16zm-157.3-288.09h-85.9a32 32 0 0 0 -21.6 8.4l-88.07 80.65 64.2 49.62 59.58-54.58a16 16 0 0 1 21.59 23.61l-26.09 23.89 145.59 118.21a72.15 72.15 0 0 1 7.91 7.7v-193.5l-54.61-54.6a31.75 31.75 0 0 0 -22.6-9.4z" opacity=".4"/><path d="m636.63 480.55-19.63 25.27a16 16 0 0 1 -22.45 2.81l-588.36-454.72a16 16 0 0 1 -2.81-22.45l19.62-25.27a16 16 0 0 1 22.47-2.81l588.35 454.72a16 16 0 0 1 2.81 22.45z"/></svg>