<svg viewBox="0 0 512 512"><path d="m400 214.26v171.53a24 24 0 0 1 -20.27 23.7c-46.84 7.25-61.73 38.51-123.73 38.32-2.72 0-13.25.19-16 .19-50.65 0-81.57-22.12-72.6-71.26-18.6-9.3-30.74-39.49-16.45-62.32-24.64-21.17-22.64-53.89-6.3-70.94h-99.85c-24.15 0-44.8-20.2-44.8-43.83 0-23.28 21.35-43.82 44.8-43.82h149.2a135.83 135.83 0 0 1 -14.15-24.92c-13.6-31.81 9.93-66.91 44.15-66.91 18.62 0 32.2 10.9 40 29.09 12.12 28.29 78.65 64.33 107.53 77.33a48 48 0 0 1 28.47 43.84z" opacity=".4"/><path d="m488 176h-48a24 24 0 0 0 -24 24v192a24 24 0 0 0 24 24h48a24 24 0 0 0 24-24v-192a24 24 0 0 0 -24-24zm-24 212a20 20 0 1 1 20-20 20 20 0 0 1 -20 20z"/></svg>