<svg viewBox="0 0 576 512"><path d="m564 377-151.2 121a64.08 64.08 0 0 1 -40 14h-356.8a16 16 0 0 1 -16-16v-96a16 16 0 0 1 16-16h55.4l46.5-37.7a117.69 117.69 0 0 1 74.1-26.3h160a32 32 0 0 1 31.6 37.4c-2.6 15.7-17.4 26.6-33.3 26.6h-78.3a16 16 0 0 0 0 32h118.3a63.67 63.67 0 0 0 40-14l92.4-73.9c12.4-10 30.8-10.7 42.6 0a32 32 0 0 1 -1.3 48.9z" opacity=".4"/><path d="m160 0h-64a160 160 0 0 0 160 160v112a16 16 0 0 0 16 16h32a16 16 0 0 0 16-16v-112a160 160 0 0 0 -160-160zm256 0c-40.7 0-77.5 15.7-105.8 40.8a190.94 190.94 0 0 1 41.6 116c73.1-14.8 128.2-79.3 128.2-156.8z"/></svg>