<svg viewBox="0 0 640 512"><path d="m289.09 64h-83.79a32 32 0 0 0 -22.6 9.41l-20.34 20.3 51.13 39.52zm-273.09 64a16 16 0 0 0 -16 16v191.91a16 16 0 0 0 16 16h130.3l90.5 81.89a64 64 0 0 0 90-9.3l.2-.2 17.91 15.5a37.16 37.16 0 0 0 52.29-5.39l8.8-10.82-382.44-295.59zm608 0h-112l-54.59-54.59a32 32 0 0 0 -22.61-9.41h-85.89a32 32 0 0 0 -21.61 8.41l-88.12 80.68 64.22 49.63 32.69-29.92 27-24.7a16 16 0 0 1 21.61 23.61l-26.11 23.89 145.61 118.2a63.4 63.4 0 0 1 22.21 37.91h97.59a16.05 16.05 0 0 0 16-16v-191.8a16 16 0 0 0 -16-15.91z" opacity=".4"/><path d="m636.63 480.55-19.63 25.27a16 16 0 0 1 -22.45 2.81l-588.36-454.72a16 16 0 0 1 -2.81-22.45l19.62-25.27a16 16 0 0 1 22.47-2.81l588.35 454.72a16 16 0 0 1 2.81 22.45z"/></svg>