<svg viewBox="0 0 512 512"><path d="m512 199.65c0 23.63-20.65 43.83-44.8 43.83h-99.85c16.34 17 18.34 49.76-6.3 70.94 14.29 22.83 2.15 53-16.45 62.32 9 49.14-22 71.26-72.6 71.26-2.75 0-13.28-.2-16-.19-62 .16-76.89-31.07-123.73-38.32a24 24 0 0 1 -20.27-23.7v-171.53a48 48 0 0 1 28.47-43.84c28.88-13 95.41-49 107.53-77.33 7.8-18.19 21.38-29.09 40-29.09 34.22 0 57.75 35.1 44.12 66.91a135.83 135.83 0 0 1 -14.12 24.92h149.2c23.45 0 44.8 20.54 44.8 43.82z" opacity=".4"/><path d="m72 176h-48a24 24 0 0 0 -24 24v192a24 24 0 0 0 24 24h48a24 24 0 0 0 24-24v-192a24 24 0 0 0 -24-24zm-24 212a20 20 0 1 1 20-20 20 20 0 0 1 -20 20z"/></svg>