<svg viewBox="0 0 576 512"><path d="m564 377-151.2 121a64.08 64.08 0 0 1 -40 14h-356.8a16.05 16.05 0 0 1 -16-16v-96a16 16 0 0 1 16-16h55.4l46.5-37.71a117.69 117.69 0 0 1 74.1-26.29h160a32 32 0 0 1 31.6 37.4c-2.6 15.7-17.4 26.6-33.3 26.6h-78.3a16 16 0 0 0 0 32h118.3a63.67 63.67 0 0 0 40-14l92.4-73.9c12.4-10 30.8-10.7 42.6 0a32 32 0 0 1 -1.3 48.9z" opacity=".4"/><path d="m300.8 6.38c26.1 34.89 83.2 115.62 83.2 155.62 0 51.9-43 94-96 94s-96-42.1-96-94c0-40 57.1-120.71 83.2-155.6a16 16 0 0 1 25.6-.02z"/></svg>