<svg viewBox="0 0 512 512"><path d="m479.93 317.16.07 82.84a112 112 0 0 1 -111.95 112h-215a112 112 0 0 1 -79.19-32.81l-30.93-30.91a37.31 37.31 0 0 1 -10.93-26.39v-73.45a37.34 37.34 0 0 1 20.64-33.44l27.36-15v76a8 8 0 0 0 16 0v-147c0-15.26 12.87-28.38 30.87-31.38l30.68-5.12c17.82-3 34.45 8.39 34.45 23.54v32a8 8 0 0 0 16 0v-201.5a48 48 0 0 1 49.44-46.54c26.31.86 46.56 23.78 46.56 50v198a8 8 0 0 0 16 0v-32c0-15.14 16.63-26.49 34.45-23.53l38.4 6.4c13.46 2.29 23.15 12.13 23.15 23.58v49.55l35.65 9a37.34 37.34 0 0 1 28.28 36.16z"/></svg>