<svg viewBox="0 0 512 512"><path d="m481.26 97.0985a40.02985 40.02985 0 0 0 -48.17162 29.64056l-29.39433 123.45874a7.55279 7.55279 0 0 1 -14.746-3.26757l33.83965-164.96451c4.18748-20.41207-6.81637-41.78508-26.67564-48.08584a40.05627 40.05627 0 0 0 -51.3044 30.08978l-37.67949 183.7047a10.42076 10.42076 0 0 1 -20.30067.5l-56.09735-218.15776a39.99638 39.99638 0 1 0 -77.46832 19.93746l50.30441 195.64023a8.33016 8.33016 0 0 1 -16.0546 4.4414l-37.156-125.39428a40.00575 40.00575 0 1 0 -76.71833 22.7187l42.69112 144.07389a283.31409 283.31409 0 0 1 11.66791 80.46859l-60.59342-57.02524a39.992 39.992 0 0 0 -54.8122 58.24988l108.30019 101.91977a135.9695 135.9695 0 0 0 93.18309 36.953h127.3665a103.9892 103.9892 0 0 0 101.1635-79.90609l68.2965-286.82364a39.98824 39.98824 0 0 0 -29.6405-48.17177zm-129.25707 270.90179h-81.68706a111.6497 111.6497 0 0 1 33.68732 79.99984 15.99991 15.99991 0 1 1 -31.99982 0 80.08383 80.08383 0 0 0 -79.99957-79.99984 16 16 0 0 1 0-31.99993h159.99913a16 16 0 0 1 0 31.99993z" opacity=".4"/><path d="m288.00328 464.0001a15.99074 15.99074 0 0 1 -15.99991-16 80.08383 80.08383 0 0 0 -79.99957-79.99984 16 16 0 0 1 0-31.99993h159.99913a16 16 0 0 1 0 31.99993h-81.68706a111.6497 111.6497 0 0 1 33.68732 79.99984 15.99074 15.99074 0 0 1 -15.99991 16z"/></svg>