<svg viewBox="0 0 640 512"><path d="m152 101.33c0 14.72 10.75 26.67 24 26.67s24-11.94 24-26.67-24-53.33-24-53.33-24 38.61-24 53.33zm64 0c0 14.72 10.75 26.67 24 26.67s24-11.94 24-26.67-24-53.33-24-53.33-24 38.61-24 53.33zm-208 0c0 14.72 10.75 26.67 24 26.67s24-11.94 24-26.67-24-53.33-24-53.33-24 38.61-24 53.33zm80 0c0 14.72 10.75 26.67 24 26.67s24-11.94 24-26.67-24-53.33-24-53.33-24 38.61-24 53.33zm208-48c0 14.72 10.75 26.67 24 26.67s24-11.94 24-26.67-24-53.33-24-53.33-24 38.61-24 53.33zm208 48c0 14.72 10.75 26.67 24 26.67s24-11.94 24-26.67-24-53.33-24-53.33-24 38.61-24 53.33zm104-53.33s-24 38.61-24 53.33 10.75 26.67 24 26.67 24-11.94 24-26.67-24-53.33-24-53.33zm-232 53.33c0 14.72 10.75 26.67 24 26.67s24-11.94 24-26.67-24-53.33-24-53.33-24 38.61-24 53.33zm64 0c0 14.72 10.75 26.67 24 26.67s24-11.94 24-26.67-24-53.33-24-53.33-24 38.61-24 53.33z" opacity=".4"/><path d="m544 168a8 8 0 0 0 -8-8h-16a8 8 0 0 0 -8 8v120h32zm-352 0a8 8 0 0 0 -8-8h-16a8 8 0 0 0 -8 8v120h32zm-64 0a8 8 0 0 0 -8-8h-16a8 8 0 0 0 -8 8v120h32zm288 0a8 8 0 0 0 -8-8h-16a8 8 0 0 0 -8 8v120h32zm64 0a8 8 0 0 0 -8-8h-16a8 8 0 0 0 -8 8v120h32zm-224 0a8 8 0 0 0 -8-8h-16a8 8 0 0 0 -8 8v120h32zm368-8h-32a16 16 0 0 0 -16 16v112a32 32 0 0 1 -32 32h-192v-192a16 16 0 0 0 -16-16h-32a16 16 0 0 0 -16 16v192h-192a32 32 0 0 1 -32-32v-112a16 16 0 0 0 -16-16h-32a16 16 0 0 0 -16 16v112a96 96 0 0 0 96 96h192v64h-176a16 16 0 0 0 -16 16v32a16 16 0 0 0 16 16h416a16 16 0 0 0 16-16v-32a16 16 0 0 0 -16-16h-176v-64h192a96 96 0 0 0 96-96v-112a16 16 0 0 0 -16-16z"/></svg>