<svg viewBox="0 0 448 512"><path d="m202.46 32.19a11.5 11.5 0 0 0 -2.11-.19h-40.63a12 12 0 0 0 -11.81 9.89l-15.38 86.11h65l14.62-81.89a12 12 0 0 0 -9.69-13.92zm-130.27 433.7a12 12 0 0 0 9.7 13.92 11.5 11.5 0 0 0 2.11.19h40.64a12 12 0 0 0 11.81-9.89l49.66-278.11h-65zm163.65 0a12 12 0 0 0 9.7 13.92 11.5 11.5 0 0 0 2.11.19h40.63a12 12 0 0 0 11.82-9.89l15.37-86.11h-65zm130.27-433.7a11.5 11.5 0 0 0 -2.11-.19h-40.63a12 12 0 0 0 -11.82 9.89l-49.66 278.11h65l48.92-273.89a12 12 0 0 0 -9.7-13.92z" opacity=".4"/><path d="m44.18 191.81a11.5 11.5 0 0 0 2.11.19h238.71l11-64h-242.57a12 12 0 0 0 -11.81 9.89l-7.14 40a12 12 0 0 0 9.7 13.92zm-36.85 138.08-7.14 40a12 12 0 0 0 9.7 13.92 11.5 11.5 0 0 0 2.11.19h75l11-64h-78.85a12 12 0 0 0 -11.82 9.89zm430.78-201.7a11.5 11.5 0 0 0 -2.11-.19h-75l-11 64h78.85a12 12 0 0 0 11.82-9.89l7.14-40a12 12 0 0 0 -9.7-13.92zm-34.29 192a11.5 11.5 0 0 0 -2.11-.19h-238.71l-11 64h242.57a12 12 0 0 0 11.81-9.89l7.14-40a12 12 0 0 0 -9.7-13.92z"/></svg>