<svg viewBox="0 0 576 512"><path d="m571.21 426.81-22.67-22.66c-6-6-15.49-6-22-.43a185.1 185.1 0 0 1 -120.66 44.28h-235.78a185.14 185.14 0 0 1 -120.68-44.28c-6.5-5.53-16-5.61-22 .43l-22.64 22.66c-6.44 6.44-6.45 17.25.4 23.25a248.62 248.62 0 0 0 164.92 61.94h235.78a248.64 248.64 0 0 0 164.93-61.94c6.84-6 6.84-16.81.4-23.25zm-251.21-74.81h-64v64h64z" opacity=".4"/><path d="m542.35 114.76-30.35 77.24-14-42.12a32 32 0 0 0 -30.41-21.88h-39.19a32 32 0 0 0 -30.4 21.87l-6.35 19a64.06 64.06 0 0 0 1.89 45.45l79.6 185.73a152.57 152.57 0 0 1 -67.26 15.95h-53.88v-64a32 32 0 0 0 -32-32h-64a32 32 0 0 0 -32 32v64h-53.9a152.51 152.51 0 0 1 -67.1-15.81l104-233.86a128.08 128.08 0 0 1 53.46-59.15l166.35-103a32 32 0 0 1 38.5 5.16l69.31 72.66a32 32 0 0 1 7.73 32.76z"/></svg>