<svg viewBox="0 0 640 512"><path d="m640 400c0 67.24-60.25 80-75.2 80-92.89 0-139.5-37.07-209.87-104.46l-88.21-84.48c-25.72-22.94-55.72-35.06-86.72-35.06-69.69 0-128.64 62.72-146.68 156.06-3.19 16.6-.38 33.83 7.71 47.3 7.83 13.11 19.61 20.64 32.25 20.64h-42.7a23.86 23.86 0 0 1 -21.64-13.63c-12.67-27.04-8.64-52.27-7.07-60.37 21.03-108.86 92.6-182 178.13-182 38.95 0 76.31 14.92 108.89 43.95l88.21 84.48c69.35 66.45 108.08 95.57 187.7 95.57 23.82 0 43.2-21.53 43.2-48 0-21.81-20.61-108.08-112.45-124.87l-5.55-33.08c111.87 13.95 150 113.42 150 157.95z" opacity=".4"/><path d="m354.93 375.54-88.21-84.48c-25.72-22.94-55.72-35.06-86.72-35.06-69.69 0-128.64 62.72-146.68 156.06-3.19 16.6-.38 33.83 7.71 47.3 7.83 13.11 19.61 20.64 32.25 20.64h491.52c-71.12 0-115.11-21.73-163.41-62.16-14.78-12.38-29.97-26.5-46.46-42.3zm140.62-100.41-27.16-162c-6.14-33-40.81-54.75-76.36-47.79l-191.18 37.38c-27.09 5.3-47.41 26.07-50.35 51.48l-7.57 74.53a146.73 146.73 0 0 1 37.07-4.73c38.95 0 76.31 14.92 108.89 43.95l88.21 84.48c69.35 66.45 108.08 95.57 187.7 95.57 23.82 0 43.2-21.53 43.2-48 0-21.81-20.61-108.08-112.45-124.87z"/></svg>