<svg viewBox="0 0 512 512"><path d="m128 270.1 64 32 64-32 64 32 64-32 64 32 7.2-3.6c-19.7-50.2-55.2-104.9-119-140.5-.4.4-.6.8-1 1.2a58.46 58.46 0 0 1 -39.6 17.2 57.79 57.79 0 0 1 -79.2 0 58.4 58.4 0 0 1 -39.6-17.2c-.4-.4-.6-.8-1-1.2-63.9 35.6-99.4 90.4-119 140.5l7.2 3.6zm368 177.9h-480a16 16 0 0 0 -16 16v32a16 16 0 0 0 16 16h480a16 16 0 0 0 16-16v-32a16 16 0 0 0 -16-16z" opacity=".4"/><path d="m195.2 105.2c-5.5 10.1-4.4 22.8 4.2 31.4a25.45 25.45 0 0 0 31.4 4.2c3.3 11 13.1 19.2 25.2 19.2s21.9-8.2 25.2-19.2c4 2.1 8.2 3.6 12.5 3.6a26.9 26.9 0 0 0 18.9-7.8c8.6-8.6 9.7-21.3 4.2-31.4 11-3.3 19.2-13.1 19.2-25.2s-8.2-21.9-19.2-25.2c5.5-10.1 4.4-22.8-4.2-31.4s-21.3-9.7-31.4-4.2c-3.3-11-13.1-19.2-25.2-19.2s-21.9 8.2-25.2 19.2c-10.1-5.5-22.8-4.4-31.4 4.2s-9.7 21.3-4.2 31.4c-11 3.3-19.2 13.1-19.2 25.2s8.2 21.9 19.2 25.2zm270.5 223.9-17.7 8.8-64-32-64 32-64-32-64 32-64-32-64 32-17.7-8.8c-14.1 48.7-14.3 86.9-14.3 86.9h448s-.2-38.2-14.3-86.9z"/></svg>