<svg viewBox="0 0 640 512"><path d="m509.94 318.61c-47.44 18.04-110.76 33.39-189.94 33.39-79 0-142.34-15.44-189.9-33.56.12-.87.24-1.71.35-2.53 2.59-15.31 6.08-35.12 10.62-57.23 39.09 15.6 96.72 29.32 178.93 29.32s139.87-13.71 179-29.3c4.56 22.18 8.05 42 10.64 57.35.06.84.18 1.69.3 2.56z" opacity=".4"/><path d="m499 258.7c-17.08-82.87-48.38-194.7-97.67-194.7-15.75 0-29.81 6.67-41.63 15.7a65.47 65.47 0 0 1 -79.4 0c-11.82-9-25.87-15.7-41.63-15.7-49.28 0-80.57 111.82-97.61 194.68 39.1 15.6 96.73 29.32 178.94 29.32s139.87-13.71 179-29.3zm134 1a16 16 0 0 0 -19.75 1.5c-1 .9-101.27 90.78-293.16 90.78-190.82 0-292.22-89.94-293.24-90.84a16 16 0 0 0 -25.85 17.39c.73 2.02 77.32 201.47 319 201.47s318.27-199.45 319-201.47a16 16 0 0 0 -6.09-18.81z"/></svg>