<svg viewBox="0 0 512 512"><path d="m416 32a95.17 95.17 0 0 0 -57.73 19.74c-23.34-31.24-60.27-51.74-102.27-51.74s-78.93 20.5-102.27 51.74a95.56 95.56 0 0 0 -153.73 76.26c0 41.74 64 192 64 192h60.09l-12.09-150.75a8 8 0 0 1 7.33-8.61l16-1.28a8 8 0 0 1 8.61 7.34l12.26 153.3h83.14v-152a8 8 0 0 1 8-8h16a8 8 0 0 1 8 8v152h84.46l12.27-153.3a8 8 0 0 1 8.61-7.34l16 1.28a8 8 0 0 1 7.33 8.61l-12.1 150.75h60.09s64-150.26 64-192a96 96 0 0 0 -96-96z" opacity=".4"/><path d="m64 480a32 32 0 0 0 32 32h320a32 32 0 0 0 32-32v-128h-384z"/></svg>