<svg viewBox="0 0 576 512"><path d="m384 320a32 32 0 1 0 32 32 32 32 0 0 0 -32-32zm175.88-88.18-97.63-146.45a48 48 0 0 0 -39.94-21.37h-268.62a48 48 0 0 0 -39.94 21.37l-97.63 146.45a96 96 0 0 0 -16.12 53.25v18.93a48 48 0 0 1 48-48h480a48 48 0 0 1 48 48v-18.93a96 96 0 0 0 -16.12-53.25z" opacity=".4"/><path d="m528 256h-480a48 48 0 0 0 -48 48v96a48 48 0 0 0 48 48h480a48 48 0 0 0 48-48v-96a48 48 0 0 0 -48-48zm-144 128a32 32 0 1 1 32-32 32 32 0 0 1 -32 32zm96 0a32 32 0 1 1 32-32 32 32 0 0 1 -32 32z"/></svg>