<svg viewBox="0 0 512 512"><path d="m192 464a48 48 0 0 1 48-48h32a48 48 0 0 1 48 48h101.72a42.28 42.28 0 0 0 42.28-42.28s0-163.29-.12-165.72h.12c0-114.69-93.31-208-208-208s-208 93.31-208 208v16a16 16 0 0 1 -16 16h-16a16 16 0 0 1 -16-16v-16c4.58-137.17 113.18-256 256-256s251.42 118.83 256 256v165.72a90.28 90.28 0 0 1 -90.28 90.28h-181.72a48 48 0 0 1 -48-48z" opacity=".4"/><path d="m368 176h-16a32 32 0 0 0 -32 32v112a32 32 0 0 0 32 32h16a64 64 0 0 0 64-64v-48a64 64 0 0 0 -64-64zm-208 0h-16a64 64 0 0 0 -64 64v48a64 64 0 0 0 64 64h16a32 32 0 0 0 32-32v-112a32 32 0 0 0 -32-32z"/></svg>