<svg viewBox="0 0 512 512"><path d="m496 416h-16a16 16 0 0 1 -16-16v-112c0-114.67-93.33-207.8-208-207.82s-208 93.15-208 207.82v112a16 16 0 0 1 -16 16h-16a16 16 0 0 1 -16-16v-112c4.57-136.87 112.91-256 256-256s251.43 119.13 256 256v112a16 16 0 0 1 -16 16z" opacity=".4"/><path d="m160 288h-16a64.05 64.05 0 0 0 -64 64.12v63.76a64.06 64.06 0 0 0 64 64.12h16a32 32 0 0 0 32-32.06v-127.88a32 32 0 0 0 -32-32.06zm208 0h-16a32 32 0 0 0 -32 32.06v127.88a32 32 0 0 0 32 32.06h16a64.06 64.06 0 0 0 64-64.12v-63.76a64.06 64.06 0 0 0 -64-64.12z"/></svg>