<svg viewBox="0 0 512 512"><path d="m509.2 275c-20.93-47.13-48.43-151.73-73.07-186.75a207.9 207.9 0 0 0 -170.04-88.25h-74.09c-106 0-192 86-192 192a191.23 191.23 0 0 0 64 142.81v177.19h256v-64h64a64 64 0 0 0 64-64v-64h32a32 32 0 0 0 29.2-45zm-141.2-35h-12.12c-28.51 0-42.79 34.47-22.63 54.63l8.58 8.57a16 16 0 1 1 -22.63 22.63l-8.57-8.58c-20.16-20.16-54.63-5.88-54.63 22.63v12.12a16 16 0 0 1 -32 0v-12.12c0-28.51-34.47-42.79-54.63-22.63l-8.57 8.58a16 16 0 0 1 -22.63-22.63l8.58-8.57c20.16-20.16 5.88-54.63-22.63-54.63h-12.12a16 16 0 0 1 0-32h12.12c28.51 0 42.79-34.47 22.63-54.63l-8.58-8.57a16 16 0 0 1 22.63-22.63l8.57 8.58c20.16 20.16 54.63 5.88 54.63-22.63v-12.12a16 16 0 0 1 32 0v12.12c0 28.51 34.47 42.79 54.63 22.63l8.57-8.58a16 16 0 0 1 22.63 22.63l-8.58 8.57c-20.16 20.16-5.88 54.63 22.63 54.63h12.12a16 16 0 0 1 0 32z" opacity=".4"/><path d="m368 208h-12.12c-28.51 0-42.79-34.47-22.63-54.63l8.58-8.57a16 16 0 0 0 -22.63-22.63l-8.57 8.58c-20.16 20.16-54.63 5.88-54.63-22.63v-12.12a16 16 0 0 0 -32 0v12.12c0 28.51-34.47 42.79-54.63 22.63l-8.57-8.58a16 16 0 0 0 -22.63 22.63l8.58 8.57c20.16 20.16 5.88 54.63-22.63 54.63h-12.12a16 16 0 0 0 0 32h12.12c28.51 0 42.79 34.47 22.63 54.63l-8.58 8.57a16 16 0 1 0 22.63 22.63l8.57-8.58c20.16-20.16 54.63-5.88 54.63 22.63v12.12a16 16 0 0 0 32 0v-12.12c0-28.51 34.47-42.79 54.63-22.63l8.57 8.58a16 16 0 0 0 22.63-22.63l-8.58-8.57c-20.16-20.16-5.88-54.63 22.63-54.63h12.12a16 16 0 0 0 0-32zm-160 0a16 16 0 1 1 16-16 16 16 0 0 1 -16 16zm64 64a16 16 0 1 1 16-16 16 16 0 0 1 -16 16z"/></svg>