<svg viewBox="0 0 512 512"><path d="m480 32h-160a16 16 0 0 0 -16 16v32a16 16 0 0 0 16 16h160a16 16 0 0 0 16-16v-32a16 16 0 0 0 -16-16zm-288 0h-160a16 16 0 0 0 -16 16v32a16 16 0 0 0 16 16h160a16 16 0 0 0 16-16v-32a16 16 0 0 0 -16-16zm0 384h-160a16 16 0 0 0 -16 16v32a16 16 0 0 0 16 16h160a16 16 0 0 0 16-16v-32a16 16 0 0 0 -16-16zm288 0h-160a16 16 0 0 0 -16 16v32a16 16 0 0 0 16 16h160a16 16 0 0 0 16-16v-32a16 16 0 0 0 -16-16z" opacity=".4"/><path d="m352 96h96v320h-96v-128h-192v128h-96v-320h96v128h192z"/></svg>