<svg viewBox="0 0 512 512"><path d="m509.21 275c-20.94-47.12-48.44-151.73-73.08-186.75a208 208 0 0 0 -170.04-88.25h-74.09c-106 0-192 86-192 192a191.28 191.28 0 0 0 64 142.82v177.18h256v-64h64a64 64 0 0 0 64-64v-64h32a32 32 0 0 0 29.21-45zm-173.21-67h-50.94a47.5 47.5 0 0 1 2.94 16 48 48 0 0 1 -48 48 47.5 47.5 0 0 1 -16-2.94v50.94h-64v-50.94a47.5 47.5 0 0 1 -16 2.94 48 48 0 0 1 -48-48c0-1 .23-1.89.29-2.85a47.88 47.88 0 0 1 15.71-93.15 48 48 0 0 1 48-48 47.43 47.43 0 0 1 23.53 6.4 47.76 47.76 0 0 1 80.94 0 47.38 47.38 0 0 1 68.59 25.6h2.94a48 48 0 0 1 0 96z" opacity=".4"/><path d="m66.61 160.29a47.89 47.89 0 0 1 45.39-32.29 48 48 0 0 1 48-48 47.43 47.43 0 0 1 23.53 6.4 47.76 47.76 0 0 1 80.94 0 47.38 47.38 0 0 1 68.59 25.6h2.94a48 48 0 0 1 0 96h-50.94a47.5 47.5 0 0 1 2.94 16 48 48 0 0 1 -48 48 47.5 47.5 0 0 1 -16-2.94v50.94h-64v-50.94a47.5 47.5 0 0 1 -16 2.94 48 48 0 0 1 -48-48c0-1 .23-1.89.29-2.85a47.88 47.88 0 0 1 -29.68-60.86z"/></svg>