<svg viewBox="0 0 512 512"><path d="m480 320h-32v64a64 64 0 0 1 -64 64h-64v64h-256v-177.19a191.27 191.27 0 0 1 -64-142.81c0-106 86-192 192-192a191.52 191.52 0 0 0 -32 2.88v104.32c-37.73 18-64 56.2-64 100.8a112 112 0 0 0 224 0c0-44.61-26.27-82.8-64-100.81v-107.19h10.08a207.87 207.87 0 0 1 170 88.25c24.66 35 52.16 139.63 73.1 186.75a32 32 0 0 1 -29.18 45z" opacity=".4"/><path d="m256 107.19v-107.19h-64a191.52 191.52 0 0 0 -32 2.88v104.32c-37.73 18-64 56.2-64 100.8a112 112 0 0 0 224 0c0-44.61-26.25-82.8-64-100.81zm-48 164.81a64 64 0 1 1 64-64 64 64 0 0 1 -64 64zm0-96a32 32 0 1 0 32 32 32 32 0 0 0 -32-32z"/></svg>