<svg viewBox="0 0 640 512"><path d="m288 384a32 32 0 0 1 32-32h19.54l-318.81-246.41a190.86 190.86 0 0 0 -20.73 86.41c0 56.75 24.75 107.62 64 142.88v177.12h224v-32h64a64 64 0 0 0 64-64h-96a32 32 0 0 1 -32-32zm328-80a24 24 0 1 0 -24-24 24 24 0 0 0 24 24zm-64 16a24 24 0 1 0 24 24 24 24 0 0 0 -24-24zm-147.9-231.75a208.13 208.13 0 0 0 -170-88.25h-42.1a190.64 190.64 0 0 0 -107.82 33.3l179.43 138.7c5.88-7.14 14.43-12 24.36-12a32.06 32.06 0 0 1 32 32c0 7-2.73 13.17-6.58 18.45l140.72 108.76c19.56-3.81 31.62-25 23.11-44.21-21-47.12-48.5-151.75-73.12-186.75zm211.9 271.75a24 24 0 1 0 24 24 24 24 0 0 0 -24-24z" opacity=".4"/><path d="m636.62 480.55-19.62 25.27a16 16 0 0 1 -22.45 2.81l-588.37-454.72a16 16 0 0 1 -2.81-22.45l19.63-25.27a16 16 0 0 1 22.46-2.81l588.35 454.72a16 16 0 0 1 2.81 22.45z"/></svg>