<svg viewBox="0 0 512 512"><path d="m509.2 275c-2.47-5.56-5.05-12-7.69-19h-192.95a119.09 119.09 0 0 1 -80.92-32h-192.64a191.65 191.65 0 0 0 61 110.82v177.18h224v-64h64a64 64 0 0 0 64-64v-64h32a32 32 0 0 0 29.2-45zm-288.26-206.13a112.21 112.21 0 0 1 83.06-36.87h72.3a207.36 207.36 0 0 0 -110.21-32h-42.09c-83.56 0-154.46 53.48-180.84 128h150a112.22 112.22 0 0 1 27.78-59.13z" opacity=".4"/><path d="m496 64h-48v160h48a16 16 0 0 0 16-16v-128a16 16 0 0 0 -16-16zm-270.4 64h-209.6a16 16 0 0 0 -16 16v32a16 16 0 0 0 16 16h224.84c15.81 19.71 41 32 67.72 32h107.44v-160h-112a80 80 0 0 0 -78.4 64z"/></svg>