<svg viewBox="0 0 512 512"><path d="m512 288v48a32 32 0 0 1 -17.69 28.62l-14.37 7c0-1.19.06-2.38.06-3.58a111.64 111.64 0 0 0 -32-78.37v-1.67c0-105.87-86.13-192-192-192s-192 86.13-192 192v1.63a111.64 111.64 0 0 0 -32 78.37c0 1.2 0 2.39.06 3.58l-14.37-7a32 32 0 0 1 -17.69-28.58v-48c0-141.5 114.52-256 256-256s256 114.52 256 256z" opacity=".4"/><path d="m168 256h-24a112 112 0 0 0 0 224h24a24 24 0 0 0 24-24v-176a24 24 0 0 0 -24-24zm200 0h-24a24 24 0 0 0 -24 24v176a24 24 0 0 0 24 24h24a112 112 0 0 0 0-224z"/></svg>