<svg viewBox="0 0 512 512"><path d="m509.21 275c-20.94-47.12-48.44-151.73-73.08-186.75a208 208 0 0 0 -170.04-88.25h-74.09c-106 0-192 86-192 192a191.28 191.28 0 0 0 64 142.82v177.18h256v-64h64a64 64 0 0 0 64-64v-64h32a32 32 0 0 0 29.21-45zm-189.21-59a8 8 0 0 1 -8 8h-56v56a8 8 0 0 1 -8 8h-48a8 8 0 0 1 -8-8v-56h-56a8 8 0 0 1 -8-8v-48a8 8 0 0 1 8-8h56v-56a8 8 0 0 1 8-8h48a8 8 0 0 1 8 8v56h56a8 8 0 0 1 8 8z" opacity=".4"/><path d="m320 216a8 8 0 0 1 -8 8h-56v56a8 8 0 0 1 -8 8h-48a8 8 0 0 1 -8-8v-56h-56a8 8 0 0 1 -8-8v-48a8 8 0 0 1 8-8h56v-56a8 8 0 0 1 8-8h48a8 8 0 0 1 8 8v56h56a8 8 0 0 1 8 8z"/></svg>