<svg viewBox="0 0 496 512"><path d="m248 8c-137 0-248 111-248 248s111 248 248 248 248-111 248-248-111-248-248-248zm123.5 272.3-110.6 114.2a17.88 17.88 0 0 1 -25.28.62c-.21-.2-.42-.41-.62-.62l-110.5-114.2c-32.1-33.2-30.2-88.2 5.7-118.8 31.3-26.7 77.9-21.9 106.6 7.7l11.3 11.6 11.3-11.6c28.7-29.6 75.3-34.4 106.6-7.7 35.8 30.6 37.7 85.6 5.5 118.8z" opacity=".4"/><path d="m371.5 280.3-110.6 114.2a17.88 17.88 0 0 1 -25.28.62c-.21-.2-.42-.41-.62-.62l-110.5-114.2c-32.1-33.2-30.2-88.2 5.7-118.8 31.3-26.7 77.9-21.9 106.6 7.7l11.3 11.6 11.3-11.6c28.7-29.6 75.3-34.4 106.6-7.7 35.8 30.6 37.7 85.6 5.5 118.8z"/></svg>