<svg viewBox="0 0 448 512"><path d="m400 32h-352a48 48 0 0 0 -48 48v352a48 48 0 0 0 48 48h352a48 48 0 0 0 48-48v-352a48 48 0 0 0 -48-48zm-52.5 248.3-110.6 114.2a17.88 17.88 0 0 1 -25.9 0l-110.5-114.2c-32.1-33.2-30.2-88.2 5.7-118.8 31.3-26.7 77.9-21.9 106.6 7.7l11.3 11.6 11.3-11.6c28.7-29.6 75.3-34.4 106.6-7.7 35.8 30.6 37.7 85.6 5.5 118.8z" opacity=".4"/><path d="m106.2 161.5c31.3-26.7 77.9-21.9 106.6 7.7l11.3 11.6 11.3-11.6c28.7-29.6 75.3-34.4 106.6-7.7 35.8 30.6 37.7 85.6 5.5 118.8l-110.6 114.2a17.88 17.88 0 0 1 -25.9 0l-110.5-114.2c-32.1-33.2-30.2-88.2 5.7-118.8z"/></svg>