<svg viewBox="0 0 512 512"><path d="m320.21 243.85-49.7 99.4a16 16 0 0 1 -28.9-.6l-56.9-126.3-30 71.7h-94.1l182.5 186.5a17.82 17.82 0 0 0 25.7 0l182.61-186.5h-109.11zm153.5-169.85-2.4-2.5a131 131 0 0 0 -187.39 0l-27.92 28.55-27.9-28.5a130.83 130.83 0 0 0 -187.4 0l-2.39 2.45c-48.7 49.8-50.8 129.1-7.3 182.1h102.41l35.89-86.2a16 16 0 0 1 29.4-.4l58.21 129.3 49-97.9a16 16 0 0 1 28.59 0l27.6 55.2h118.89c43.51-53.05 41.42-132.35-7.29-182.1z" opacity=".4"/><path d="m451 288-.1.05h-108.59l-22.1-44.2-49.7 99.4a16 16 0 0 1 -28.9-.6l-56.9-126.3-30 71.7h-93.71v-.05l-29.95-31.95h102.37l35.89-86.2a16 16 0 0 1 29.4-.4l58.21 129.3 49-97.9a16 16 0 0 1 28.59 0l27.6 55.2h118.89z"/></svg>