<svg viewBox="0 0 448 512"><path d="m208 152.25v-104.25a16 16 0 0 0 -16-16h-32a16 16 0 0 0 -16 16v104.25a218.65 218.65 0 0 0 56.48 146.75 154.12 154.12 0 0 1 39.52 103.41v61.59a16 16 0 0 0 16 16h32a16 16 0 0 0 16-16v-61.59a218.48 218.48 0 0 0 -56.42-146.7 154.26 154.26 0 0 1 -39.58-103.46z" opacity=".4"/><path d="m64 152.25v-40.25a16 16 0 0 0 -16-16h-32a16 16 0 0 0 -16 16v40.25a218.65 218.65 0 0 0 56.48 146.75 154.12 154.12 0 0 1 39.52 103.41v61.59a16 16 0 0 0 16 16h32a16 16 0 0 0 16-16v-61.59a218.48 218.48 0 0 0 -56.42-146.7 154.26 154.26 0 0 1 -39.58-103.46zm327.58 103.46a154.26 154.26 0 0 1 -39.58-103.46v-40.25a16 16 0 0 0 -16-16h-32a16 16 0 0 0 -16 16v40.25a218.65 218.65 0 0 0 56.48 146.75 154.12 154.12 0 0 1 39.52 103.41v61.59a16 16 0 0 0 16 16h32a16 16 0 0 0 16-16v-61.59a218.48 218.48 0 0 0 -56.42-146.7z"/></svg>