<svg viewBox="0 0 640 512"><path d="m635.37 458.81-22.15-22.2a16.13 16.13 0 0 0 -22.64 0c-7.09 6.77-13.84 11.25-24.64 11.25h-325.94a16 16 0 0 0 -16 16v32.14a16 16 0 0 0 16 16h325.94c14.88 0 35.3-.47 68.45-29.52a16.28 16.28 0 0 0 .98-23.67zm-315.37-330.81h64v-64h176a16 16 0 0 0 16-16v-32a16 16 0 0 0 -16-16h-416a16 16 0 0 0 -16 16v32a16 16 0 0 0 16 16h176z" opacity=".4"/><path d="m384 128h-272l-43.2-57.6a16 16 0 0 0 -12.8-6.4h-40a16 16 0 0 0 -15.51 19.88l31.51 108.12 160 64 86.4 115.2a32 32 0 0 0 25.6 12.8h272a32 32 0 0 0 32-32c0-123.71-100.29-224-224-224zm32 192v-124.49c62.55 12.79 112 61.93 124.79 124.49z"/></svg>