<svg viewBox="0 0 576 512"><path d="m32 256c17.67 0 32-12.56 32-28.06v-227.94l-63 221.13c-5.08 17.71 10.2 34.87 31 34.87zm543-34.87-63-221.13v227.94c0 15.5 14.32 28.06 32 28.06 20.8 0 36.08-17.16 31-34.87z" opacity=".4"/><path d="m494.82 426.77-174.82 85.23v-256l96-32v-32h-256v32l96 32v256l-174.81-85.23c-12.73-5.87-19.75-20.77-16.32-35.24 8.27-34.81 31.13-97.95 31.13-180.71 0-120.47 192-210.82 192-210.82s192 90.35 192 210.82c0 82.76 22.86 145.9 31.14 180.71 3.43 14.47-3.59 29.37-16.32 35.24z"/></svg>