<svg viewBox="0 0 384 512"><path d="m368 160h-16a16 16 0 0 0 -16 16v320a16 16 0 0 0 16 16h16a16 16 0 0 0 16-16v-320a16 16 0 0 0 -16-16zm-128-160a48 48 0 1 0 48 48 48 48 0 0 0 -48-48zm-114.92 97.94c-43.88-10.52-88.35 15.06-99.32 57.17l-25.27 98.13c-2.19 8.42 3.14 16.95 11.92 19.06l63.59 15.25c8.79 2.1 17.68-3 19.87-11.44l41.13-159.11c2.19-8.42-3.14-16.95-11.92-19.06z" opacity=".4"/><path d="m81 472.23a32 32 0 0 0 62.1 15.53l25.24-101-52.83-52.76zm162-248 22.43 22.43a32 32 0 0 0 22.57 9.34h48v-64h-34.75l-46.78-46.78a58.78 58.78 0 0 0 -98.59 27.3l-26.88 107.72a32 32 0 0 0 8.42 30.39l86.58 86.62v82.75a32 32 0 0 0 64 0v-82.75a63.58 63.58 0 0 0 -18.75-45.25l-46.82-46.82c.15-.5.49-.89.62-1.41z"/></svg>