<svg viewBox="0 0 640 512"><path d="m581.12 96.2c-27.67-.15-52.5 17.58-76.6 26.62a96 96 0 0 0 -88.52-58.82 95 95 0 0 0 -32 5.88v-13.88a24 24 0 0 0 -24-24h-16a24 24 0 0 0 -24 24v49c-34-25.4-78.76-41-128-41-106 0-192 71.64-192 160v240a16 16 0 0 0 16 16h64a16 16 0 0 0 16-16v-70.79c32.35 14.36 70.72 22.79 112 22.79s79.65-8.43 112-22.79v70.79a16 16 0 0 0 16 16h64a16 16 0 0 0 16-16v-176h192a32 32 0 0 0 32-32v-92c0-34.11-24.79-67.61-58.88-67.8zm-133.12 79.8a16 16 0 1 1 16-16 16 16 0 0 1 -16 16z" opacity=".4"/><path d="m544 288v16a16 16 0 0 0 16 16h32a16 16 0 0 0 16-16v-16zm-96-144a16 16 0 1 0 16 16 16 16 0 0 0 -16-16z"/></svg>