<svg viewBox="0 0 512 512"><path d="m141.68 400.23a184 184 0 1 0 -11.75-278.3l50.76 50.76c10.08 10.08 2.94 27.31-11.32 27.31h-145.37a16 16 0 0 1 -16-16v-145.37c0-14.26 17.23-21.4 27.31-11.32l49.38 49.38a247.14 247.14 0 0 1 171.31-68.69c136.81 0 247.75 110.78 248 247.53s-111.18 248.37-247.82 248.47a247 247 0 0 1 -155.82-54.91 24 24 0 0 1 -1.84-35.61l11.27-11.27a24 24 0 0 1 31.89-1.98z" opacity=".4"/><path d="m288 152v104.35l40.7 31.65a24 24 0 0 1 4.21 33.68l-9.82 12.62a24 24 0 0 1 -33.68 4.21l-65.41-50.86v-135.65a24 24 0 0 1 24-24h16a24 24 0 0 1 24 24z"/></svg>