<svg viewBox="0 0 448 512"><path d="m376.61 54.46c-82.95-72.61-222.26-72.61-305.22 0-64 56-102.4 170-38.76 361.54 31.9 96 191.37 96 191.37 96s159.47 0 191.37-96c63.63-191.56 25.27-305.5-38.76-361.54zm-88.61 9.54a16 16 0 1 1 -16 16 16 16 0 0 1 16-16zm-128 0a16 16 0 1 1 -16 16 16 16 0 0 1 16-16zm16 400a16 16 0 1 1 16-16 16 16 0 0 1 -16 16zm0-64a16 16 0 1 1 16-16 16 16 0 0 1 -16 16zm0-64a16 16 0 1 1 16-16 16 16 0 0 1 -16 16zm-48-64a64 64 0 0 1 -64-64 32 32 0 0 1 32-32h64a32 32 0 0 1 32 32 64 64 0 0 1 -64 64zm96-128a16 16 0 1 1 16-16 16 16 0 0 1 -16 16zm48 320a16 16 0 1 1 16-16 16 16 0 0 1 -16 16zm0-64a16 16 0 1 1 16-16 16 16 0 0 1 -16 16zm0-64a16 16 0 1 1 16-16 16 16 0 0 1 -16 16zm48-64a64 64 0 0 1 -64-64 32 32 0 0 1 32-32h64a32 32 0 0 1 32 32 64 64 0 0 1 -64 64z" opacity=".4"/><path d="m176 432a16 16 0 1 0 16 16 16 16 0 0 0 -16-16zm0-64a16 16 0 1 0 16 16 16 16 0 0 0 -16-16zm0-64a16 16 0 1 0 16 16 16 16 0 0 0 -16-16zm112-240a16 16 0 1 0 16 16 16 16 0 0 0 -16-16zm-16 240a16 16 0 1 0 16 16 16 16 0 0 0 -16-16zm0 64a16 16 0 1 0 16 16 16 16 0 0 0 -16-16zm0 64a16 16 0 1 0 16 16 16 16 0 0 0 -16-16zm-48-320a16 16 0 1 0 16 16 16 16 0 0 0 -16-16zm-48-32a16 16 0 1 0 -16 16 16 16 0 0 0 16-16z"/></svg>