<svg viewBox="0 0 640 512"><path d="m233.65 8.93v-.08a16 16 0 0 0 -21.49-7.16l-57.26 28.6a16.11 16.11 0 0 0 -7.21 21.5l118.66 237 53.65-107.32zm390.35 343.07h-48v160h48a16 16 0 0 0 16-16v-128a16 16 0 0 0 -16-16zm-223-8.8-27.26-54.46-53.74 107.2 40.39 80.66a64.52 64.52 0 0 0 57.61 35.4h126v-160h-128c-6.06 0-12.35-3.39-15.06-8.8zm-337 168.8h32v-160h-32z" opacity=".4"/><path d="m485.13 30.29-57.26-28.6a16 16 0 0 0 -21.49 7.16v.08l-167.32 334.27c-2.71 5.41-9 8.82-15.06 8.8h-128v160h126a64.52 64.52 0 0 0 57.61-35.4l212.73-424.81a16.11 16.11 0 0 0 -7.21-21.5zm-485.13 337.71v128a16 16 0 0 0 16 16h48v-160h-48a16 16 0 0 0 -16 16zm544-16v160h32v-160z"/></svg>