<svg viewBox="0 0 576 512"><path d="m64.11 311.38v184.62a16.05 16.05 0 0 0 16 16h416a16.05 16.05 0 0 0 16-16v-184.62c-6.7-5.5-44.7-38.31-224-196.4-180.11 158.9-217.6 191.09-224 196.4zm314.1-26.31a60.6 60.6 0 0 1 4.5 89.11l-84.71 85.59a13.94 13.94 0 0 1 -19.8 0l-84.7-85.59a60.66 60.66 0 0 1 4.3-89.11c24-20 59.7-16.39 81.6 5.81l8.6 8.69 8.6-8.69c22.01-22.2 57.71-25.81 81.61-5.81z" opacity=".4"/><path d="m378.21 285.07c-23.9-20-59.6-16.39-81.6 5.81l-8.6 8.69-8.6-8.69c-21.9-22.2-57.6-25.81-81.6-5.81a60.66 60.66 0 0 0 -4.3 89.11l84.7 85.59a13.94 13.94 0 0 0 19.8 0l84.7-85.59a60.6 60.6 0 0 0 -4.5-89.11zm192.6-48.8-58.7-51.79v-136.48a16 16 0 0 0 -16-16h-64a16 16 0 0 0 -16 16v51.7l-101.3-89.43a40 40 0 0 0 -53.5 0l-256 226a16 16 0 0 0 -1.2 22.61l21.4 23.8a16 16 0 0 0 22.6 1.2l229.4-202.2a16.12 16.12 0 0 1 21.2 0l229.29 202.32a16 16 0 0 0 22.6-1.21l21.4-23.79a16.11 16.11 0 0 0 -1.19-22.73z"/></svg>