<svg viewBox="0 0 576 512"><path d="m496 512h-128a16 16 0 0 1 -16-16v-128a16 16 0 0 0 -16-16h-96a16 16 0 0 0 -16 16v128a16 16 0 0 1 -16 16h-128a16 16 0 0 1 -16-16v-185c1.78-1.21 3.85-1.89 5.47-3.35l218.53-192.65 218.74 192.9c1.54 1.38 3.56 2 5.26 3.2v184.9a16 16 0 0 1 -16 16z" opacity=".4"/><path d="m527.92 283.88-229.32-202.27a16 16 0 0 0 -21.17 0l-229.32 202.28a16 16 0 0 1 -22.59-1.21l-21.42-23.79a16 16 0 0 1 1.21-22.59l256-226a39.85 39.85 0 0 1 53.45 0l101.24 89.37v-51.67a16 16 0 0 1 16-16h64a16 16 0 0 1 16 16v136.43l58.69 51.83a16 16 0 0 1 1.22 22.59l-21.4 23.82a16 16 0 0 1 -22.59 1.21z"/></svg>