<svg viewBox="0 0 576 512"><path d="m336 463.59v-95.59a16 16 0 0 0 -16-16h-64a16 16 0 0 0 -16 16v95.71a16 16 0 0 1 -15.92 16l-112.08.29a16 16 0 0 1 -16-16v-163.94l184.39-151.85a12.19 12.19 0 0 1 15.3 0l184.31 151.79v164a16 16 0 0 1 -16 16l-112-.31a16 16 0 0 1 -16-16.1z" opacity=".4"/><path d="m573.32 268.35-25.5 31a12 12 0 0 1 -16.9 1.65l-235.23-193.79a12.19 12.19 0 0 0 -15.3 0l-235.22 193.79a12 12 0 0 1 -16.89-1.65l-25.5-31a12 12 0 0 1 1.61-16.89l253.1-208.46a48 48 0 0 1 61 0l89.51 73.61v-72.61a12 12 0 0 1 12-12h56a12 12 0 0 1 12 12v138.51l83.6 68.91a12 12 0 0 1 1.72 16.93z"/></svg>