<svg viewBox="0 0 576 512"><path d="m336 463.58v-95.64a16 16 0 0 0 -16-16h-64a16 16 0 0 0 -16 16v95.71a16 16 0 0 1 -15.92 16l-112.08.29a16 16 0 0 1 -16-16v-163.89l184.39-151.85a12.19 12.19 0 0 1 15.3 0l184.31 151.74v164a16 16 0 0 1 -16 16l-112-.31a16 16 0 0 1 -16-16.05z" opacity=".4"/><path d="m530.92 300.94-235.23-193.74a12.19 12.19 0 0 0 -15.3 0l-235.22 193.74a12 12 0 0 1 -16.89-1.64l-25.5-31a12 12 0 0 1 1.61-16.89l253.1-208.47a48 48 0 0 1 61 0l253.13 208.47a12 12 0 0 1 1.66 16.89l-25.5 31a12 12 0 0 1 -16.86 1.64z"/></svg>