<svg viewBox="0 0 576 512"><path d="m575.94 76.6a31.75 31.75 0 0 0 -8.59-21.8c-3.78-4-8.58-9.12-13.69-14.5 11.06-6.84 19.5-17.49 22.18-30.66a8.08 8.08 0 0 0 -6.39-9.49 8 8 0 0 0 -1.54-.15h-120a128 128 0 0 0 -128 128h-159.91a96 96 0 0 0 -65.56 166.12l-25.62 68.36a64 64 0 0 0 -2.16 38l24.85 99.41a16 16 0 0 0 15.49 12.11h66a16 16 0 0 0 15.52-19.88l-26.33-105.26 23.81-63.59 134 22.31v150.42a16 16 0 0 0 16 16h64a16 16 0 0 0 16-16v-177.78a111.49 111.49 0 0 0 32-78.22c0-.22-.07-.42-.08-.64v-15.36l.08-32a1.15 1.15 0 0 1 -.08.41v-55.52h.08l15.93 7.11 18.9 37.7a32 32 0 0 0 40.49 15.37l32.55-13a32 32 0 0 0 20.13-29.76zm-64 19.4a16 16 0 1 1 16-16 16 16 0 0 1 -16.01 16z" opacity=".4"/><path d="m0 248v56a16 16 0 0 0 16 16h16a16 16 0 0 0 16-16v-56a39.93 39.93 0 0 1 16.36-32.26 95.65 95.65 0 0 1 24.09-55.74h-.45a88 88 0 0 0 -88 88zm511.93-184a16 16 0 1 0 16 16 16 16 0 0 0 -16-16z"/></svg>