<svg viewBox="0 0 512 512"><path d="m509.8 332.43-69.9-164.3a123.55 123.55 0 0 0 -93-79.2c18-10.6 46.3-35.9 34.2-82.3a9.29 9.29 0 0 0 -11.56-6.24l-.44.14-202.2 75.7c-131 47.1-166.9 162.6-166.9 322.5v81.2a32 32 0 0 0 32 32h236.2a32 32 0 0 0 28.6-46.3l-40.8-81.7v-.7a127.76 127.76 0 0 1 -104.3-69.6 7.93 7.93 0 0 1 1.6-9.3l12.1-12.1a8 8 0 0 1 11.31.09 8.14 8.14 0 0 1 1.59 2.31 95.46 95.46 0 0 0 87.4 57.37c17.2 0 33-5.1 46.8-13.2l46 63.9a31.87 31.87 0 0 0 26 13.3h50.3a31.9 31.9 0 0 0 22.6-9.4l45.3-39.8a32.45 32.45 0 0 0 7.1-34.37zm-181.8-108.5a23.94 23.94 0 1 1 .12 0z" opacity=".4"/><path d="m178.3 294.63a8 8 0 0 0 -12.9-2.4l-12.1 12.1a7.93 7.93 0 0 0 -1.6 9.3 127.76 127.76 0 0 0 104.3 69.6v.77l10.66-32h-1a95.46 95.46 0 0 1 -87.36-57.37zm149.82-118.58a23.94 23.94 0 1 0 -.12 47.88h.12a23.94 23.94 0 0 0 0-47.88z"/></svg>