<svg viewBox="0 0 576 512"><path d="m544 96h-128v-64a32 32 0 0 0 -32-32h-192a32 32 0 0 0 -32 32v64h-128a32 32 0 0 0 -32 32v368a16 16 0 0 0 16 16h544a16 16 0 0 0 16-16v-368a32 32 0 0 0 -32-32zm-384 340a12 12 0 0 1 -12 12h-40a12 12 0 0 1 -12-12v-40a12 12 0 0 1 12-12h40a12 12 0 0 1 12 12zm0-128a12 12 0 0 1 -12 12h-40a12 12 0 0 1 -12-12v-40a12 12 0 0 1 12-12h40a12 12 0 0 1 12 12zm160 128a12 12 0 0 1 -12 12h-40a12 12 0 0 1 -12-12v-40a12 12 0 0 1 12-12h40a12 12 0 0 1 12 12zm0-128a12 12 0 0 1 -12 12h-40a12 12 0 0 1 -12-12v-40a12 12 0 0 1 12-12h40a12 12 0 0 1 12 12zm32-182.67a8 8 0 0 1 -8 8h-34.67v34.67a8 8 0 0 1 -8 8h-26.66a8 8 0 0 1 -8-8v-34.67h-34.67a8 8 0 0 1 -8-8v-26.66a8 8 0 0 1 8-8h34.67v-34.67a8 8 0 0 1 8-8h26.66a8 8 0 0 1 8 8v34.67h34.67a8 8 0 0 1 8 8zm128 310.67a12 12 0 0 1 -12 12h-40a12 12 0 0 1 -12-12v-40a12 12 0 0 1 12-12h40a12 12 0 0 1 12 12zm0-128a12 12 0 0 1 -12 12h-40a12 12 0 0 1 -12-12v-40a12 12 0 0 1 12-12h40a12 12 0 0 1 12 12z" opacity=".4"/><path d="m344 90.67h-34.67v-34.67a8 8 0 0 0 -8-8h-26.66a8 8 0 0 0 -8 8v34.67h-34.67a8 8 0 0 0 -8 8v26.66a8 8 0 0 0 8 8h34.67v34.67a8 8 0 0 0 8 8h26.66a8 8 0 0 0 8-8v-34.67h34.67a8 8 0 0 0 8-8v-26.66a8 8 0 0 0 -8-8zm-196 293.33h-40a12 12 0 0 0 -12 12v40a12 12 0 0 0 12 12h40a12 12 0 0 0 12-12v-40a12 12 0 0 0 -12-12zm0-128h-40a12 12 0 0 0 -12 12v40a12 12 0 0 0 12 12h40a12 12 0 0 0 12-12v-40a12 12 0 0 0 -12-12zm160 128h-40a12 12 0 0 0 -12 12v40a12 12 0 0 0 12 12h40a12 12 0 0 0 12-12v-40a12 12 0 0 0 -12-12zm0-128h-40a12 12 0 0 0 -12 12v40a12 12 0 0 0 12 12h40a12 12 0 0 0 12-12v-40a12 12 0 0 0 -12-12zm160 128h-40a12 12 0 0 0 -12 12v40a12 12 0 0 0 12 12h40a12 12 0 0 0 12-12v-40a12 12 0 0 0 -12-12zm0-128h-40a12 12 0 0 0 -12 12v40a12 12 0 0 0 12 12h40a12 12 0 0 0 12-12v-40a12 12 0 0 0 -12-12z"/></svg>