<svg viewBox="0 0 640 512"><path d="m608 96v-64a32 32 0 0 0 -32-32h-160a32 32 0 0 0 -32 32v64a32 32 0 0 0 -32 32v352a32 32 0 0 0 32 32h224a32 32 0 0 0 32-32v-352a32 32 0 0 0 -32-32zm-128 308a12 12 0 0 1 -12 12h-40a12 12 0 0 1 -12-12v-40a12 12 0 0 1 12-12h40a12 12 0 0 1 12 12zm0-128a12 12 0 0 1 -12 12h-40a12 12 0 0 1 -12-12v-40a12 12 0 0 1 12-12h40a12 12 0 0 1 12 12zm2.67-116a8 8 0 0 1 -8-8v-34.67h-34.67a8 8 0 0 1 -8-8v-26.66a8 8 0 0 1 8-8h34.67v-34.67a8 8 0 0 1 8-8h26.66a8 8 0 0 1 8 8v34.67h34.67a8 8 0 0 1 8 8v26.66a8 8 0 0 1 -8 8h-34.67v34.67a8 8 0 0 1 -8 8zm93.33 244a12 12 0 0 1 -12 12h-40a12 12 0 0 1 -12-12v-40a12 12 0 0 1 12-12h40a12 12 0 0 1 12 12zm0-128a12 12 0 0 1 -12 12h-40a12 12 0 0 1 -12-12v-40a12 12 0 0 1 12-12h40a12 12 0 0 1 12 12zm-376-201.33h-34.67v-34.67a8 8 0 0 0 -8-8h-26.66a8 8 0 0 0 -8 8v34.67h-34.67a8 8 0 0 0 -8 8v26.66a8 8 0 0 0 8 8h34.67v34.67a8 8 0 0 0 8 8h26.66a8 8 0 0 0 8-8v-34.67h34.67a8 8 0 0 0 8-8v-26.66a8 8 0 0 0 -8-8z" opacity=".4"/><path d="m256 96v-64a32 32 0 0 0 -32-32h-160a32 32 0 0 0 -32 32v64a32 32 0 0 0 -32 32v352a32 32 0 0 0 32 32h224a32 32 0 0 0 32-32v-352a32 32 0 0 0 -32-32zm-128 308a12 12 0 0 1 -12 12h-40a12 12 0 0 1 -12-12v-40a12 12 0 0 1 12-12h40a12 12 0 0 1 12 12zm0-128a12 12 0 0 1 -12 12h-40a12 12 0 0 1 -12-12v-40a12 12 0 0 1 12-12h40a12 12 0 0 1 12 12zm2.67-116a8 8 0 0 1 -8-8v-34.67h-34.67a8 8 0 0 1 -8-8v-26.66a8 8 0 0 1 8-8h34.67v-34.67a8 8 0 0 1 8-8h26.66a8 8 0 0 1 8 8v34.67h34.67a8 8 0 0 1 8 8v26.66a8 8 0 0 1 -8 8h-34.67v34.67a8 8 0 0 1 -8 8zm93.33 244a12 12 0 0 1 -12 12h-40a12 12 0 0 1 -12-12v-40a12 12 0 0 1 12-12h40a12 12 0 0 1 12 12zm0-128a12 12 0 0 1 -12 12h-40a12 12 0 0 1 -12-12v-40a12 12 0 0 1 12-12h40a12 12 0 0 1 12 12zm328-201.33h-34.67v-34.67a8 8 0 0 0 -8-8h-26.66a8 8 0 0 0 -8 8v34.67h-34.67a8 8 0 0 0 -8 8v26.66a8 8 0 0 0 8 8h34.67v34.67a8 8 0 0 0 8 8h26.66a8 8 0 0 0 8-8v-34.67h34.67a8 8 0 0 0 8-8v-26.66a8 8 0 0 0 -8-8z"/></svg>