<svg viewBox="0 0 640 512"><path d="m320 96h-32v-64a32 32 0 0 0 -32-32h-160a32 32 0 0 0 -32 32v64h-32a32 32 0 0 0 -32 32v368a16 16 0 0 0 16 16h288.31a78.66 78.66 0 0 1 -16.31-47.21 143.1 143.1 0 0 1 41.91-102.34 145.13 145.13 0 0 1 22.09-17.83v-216.62a32 32 0 0 0 -32-32zm-176 308a12 12 0 0 1 -12 12h-40a12 12 0 0 1 -12-12v-40a12 12 0 0 1 12-12h40a12 12 0 0 1 12 12zm0-128a12 12 0 0 1 -12 12h-40a12 12 0 0 1 -12-12v-40a12 12 0 0 1 12-12h40a12 12 0 0 1 12 12zm53.33-108a8 8 0 0 1 -8 8h-26.66a8 8 0 0 1 -8-8v-34.67h-34.67a8 8 0 0 1 -8-8v-26.66a8 8 0 0 1 8-8h34.67v-34.67a8 8 0 0 1 8-8h26.66a8 8 0 0 1 8 8v34.67h34.67a8 8 0 0 1 8 8v26.66a8 8 0 0 1 -8 8h-34.67zm74.67 236a12 12 0 0 1 -12 12h-40a12 12 0 0 1 -12-12v-40a12 12 0 0 1 12-12h40a12 12 0 0 1 12 12zm0-128a12 12 0 0 1 -12 12h-40a12 12 0 0 1 -12-12v-40a12 12 0 0 1 12-12h40a12 12 0 0 1 12 12z" opacity=".4"/><path d="m528.62 352h-.62a22.83 22.83 0 0 0 -7.06 1.09 124.81 124.81 0 0 1 -81.89 0 22.82 22.82 0 0 0 -7.05-1.09 112 112 0 0 0 -112 112v.62c.14 26.26 21.73 47.38 48 47.38h224c26.27 0 47.86-21.12 48-47.38a112 112 0 0 0 -111.38-112.62zm-48.62-32a96 96 0 1 0 -96-96 96 96 0 0 0 96 96zm-248-229.33h-34.67v-34.67a8 8 0 0 0 -8-8h-26.66a8 8 0 0 0 -8 8v34.67h-34.67a8 8 0 0 0 -8 8v26.66a8 8 0 0 0 8 8h34.67v34.67a8 8 0 0 0 8 8h26.66a8 8 0 0 0 8-8v-34.67h34.67a8 8 0 0 0 8-8v-26.66a8 8 0 0 0 -8-8z"/></svg>