<svg viewBox="0 0 448 512"><path d="m436 480h-20v-360a24 24 0 0 0 -24-24h-72v-72a24 24 0 0 0 -24-24h-144a24 24 0 0 0 -24 24v72h-72a24 24 0 0 0 -24 24v360h-20a12 12 0 0 0 -12 12v20h192v-96a12 12 0 0 1 12-12h40a12 12 0 0 1 12 12v96h192v-20a12 12 0 0 0 -12-12zm-244-140a12 12 0 0 1 -12 12h-40a12 12 0 0 1 -12-12v-40a12 12 0 0 1 12-12h40a12 12 0 0 1 12 12zm0-96a12 12 0 0 1 -12 12h-40a12 12 0 0 1 -12-12v-40a12 12 0 0 1 12-12h40a12 12 0 0 1 12 12zm53.33-126.67v34.67a8 8 0 0 1 -8 8h-26.66a8 8 0 0 1 -8-8v-34.67h-34.67a8 8 0 0 1 -8-8v-26.66a8 8 0 0 1 8-8h34.67v-34.67a8 8 0 0 1 8-8h26.66a8 8 0 0 1 8 8v34.67h34.67a8 8 0 0 1 8 8v26.66a8 8 0 0 1 -8 8zm74.67 222.67a12 12 0 0 1 -12 12h-40a12 12 0 0 1 -12-12v-40a12 12 0 0 1 12-12h40a12 12 0 0 1 12 12zm0-96a12 12 0 0 1 -12 12h-40a12 12 0 0 1 -12-12v-40a12 12 0 0 1 12-12h40a12 12 0 0 1 12 12z" opacity=".4"/><path d="m180 288h-40a12 12 0 0 0 -12 12v40a12 12 0 0 0 12 12h40a12 12 0 0 0 12-12v-40a12 12 0 0 0 -12-12zm0-96h-40a12 12 0 0 0 -12 12v40a12 12 0 0 0 12 12h40a12 12 0 0 0 12-12v-40a12 12 0 0 0 -12-12zm108-82.67v-26.66a8 8 0 0 0 -8-8h-34.67v-34.67a8 8 0 0 0 -8-8h-26.66a8 8 0 0 0 -8 8v34.67h-34.67a8 8 0 0 0 -8 8v26.66a8 8 0 0 0 8 8h34.67v34.67a8 8 0 0 0 8 8h26.66a8 8 0 0 0 8-8v-34.67h34.67a8 8 0 0 0 8-8zm20 178.67h-40a12 12 0 0 0 -12 12v40a12 12 0 0 0 12 12h40a12 12 0 0 0 12-12v-40a12 12 0 0 0 -12-12zm0-96h-40a12 12 0 0 0 -12 12v40a12 12 0 0 0 12 12h40a12 12 0 0 0 12-12v-40a12 12 0 0 0 -12-12z"/></svg>