<svg viewBox="0 0 512 512"><path d="m304 76.49c-17.37-14.17-28.82-36.75-32-62.15a16.06 16.06 0 0 0 -15.77-14.34h-16.12c-9.51 0-17.09 8.57-16 18.35 4.34 39.11 22.4 74.53 50.13 97.16 17.36 14.17 28.82 36.75 32 62.14a16.07 16.07 0 0 0 15.76 14.35h16.12c9.51 0 17.08-8.57 16-18.35-4.38-39.11-22.44-74.53-50.12-97.16zm-240 51.51a64 64 0 1 0 -64-64 64 64 0 0 0 64 64zm398.08 45.65c-4.34-39.11-22.4-74.53-50.13-97.16-17.37-14.17-28.82-36.75-32-62.15a16.06 16.06 0 0 0 -15.72-14.34h-16.12c-9.51 0-17.09 8.57-16 18.35 4.34 39.11 22.4 74.53 50.13 97.16 17.36 14.17 28.82 36.75 32 62.14a16.07 16.07 0 0 0 15.76 14.35h16.12c9.47 0 17.04-8.57 15.96-18.35zm-355.41-13.65h-42.67a64 64 0 0 0 -64 64v32h256l-110.93-83.2a64 64 0 0 0 -38.4-12.8z" opacity=".4"/><path d="m480 256h-480v192a64 64 0 0 0 64 64h384a64 64 0 0 0 64-64v-160a32 32 0 0 0 -32-32zm-352 184a8 8 0 0 1 -8 8h-16a8 8 0 0 1 -8-8v-112a8 8 0 0 1 8-8h16a8 8 0 0 1 8 8zm96 0a8 8 0 0 1 -8 8h-16a8 8 0 0 1 -8-8v-112a8 8 0 0 1 8-8h16a8 8 0 0 1 8 8zm96 0a8 8 0 0 1 -8 8h-16a8 8 0 0 1 -8-8v-112a8 8 0 0 1 8-8h16a8 8 0 0 1 8 8zm96 0a8 8 0 0 1 -8 8h-16a8 8 0 0 1 -8-8v-112a8 8 0 0 1 8-8h16a8 8 0 0 1 8 8z"/></svg>