<svg viewBox="0 0 576 512"><path d="m288 288a128 128 0 0 0 -128 128h256a128 128 0 0 0 -128-128zm-96-44.8v-38.4c0-6.4-6.4-12.8-12.8-12.8h-38.4c-6.4 0-12.8 6.4-12.8 12.8v38.4c0 6.4 6.4 12.8 12.8 12.8h38.4c6.4 0 12.8-6.4 12.8-12.8zm-51.2-83.2h38.4c6.4 0 12.8-6.4 12.8-12.8v-38.4c0-6.4-6.4-12.8-12.8-12.8h-38.4c-6.4 0-12.8 6.4-12.8 12.8v38.4c0 6.4 6.4 12.8 12.8 12.8zm128 96h38.4c6.4 0 12.8-6.4 12.8-12.8v-38.4c0-6.4-6.4-12.8-12.8-12.8h-38.4c-6.4 0-12.8 6.4-12.8 12.8v38.4c0 6.4 6.4 12.8 12.8 12.8zm0-96h38.4c6.4 0 12.8-6.4 12.8-12.8v-38.4c0-6.4-6.4-12.8-12.8-12.8h-38.4c-6.4 0-12.8 6.4-12.8 12.8v38.4c0 6.4 6.4 12.8 12.8 12.8zm166.4 32h-38.4c-6.4 0-12.8 6.4-12.8 12.8v38.4c0 6.4 6.4 12.8 12.8 12.8h38.4c6.4 0 12.8-6.4 12.8-12.8v-38.4c0-6.4-6.4-12.8-12.8-12.8zm0-96h-38.4c-6.4 0-12.8 6.4-12.8 12.8v38.4c0 6.4 6.4 12.8 12.8 12.8h38.4c6.4 0 12.8-6.4 12.8-12.8v-38.4c0-6.4-6.4-12.8-12.8-12.8z" opacity=".4"/><path d="m560 64a16 16 0 0 0 16-16v-32a16 16 0 0 0 -16-16h-544a16 16 0 0 0 -16 16v32a16 16 0 0 0 16 16h16v384h-16a16 16 0 0 0 -16 16v32a16 16 0 0 0 16 16h240v-96h-96a128 128 0 0 1 256 0h-96v96h240a16 16 0 0 0 16-16v-32a16 16 0 0 0 -16-16h-16v-384zm-368 179.2c0 6.4-6.4 12.8-12.8 12.8h-38.4c-6.4 0-12.8-6.4-12.8-12.8v-38.4c0-6.4 6.4-12.8 12.8-12.8h38.4c6.4 0 12.8 6.4 12.8 12.8zm0-96c0 6.4-6.4 12.8-12.8 12.8h-38.4c-6.4 0-12.8-6.4-12.8-12.8v-38.4c0-6.4 6.4-12.8 12.8-12.8h38.4c6.4 0 12.8 6.4 12.8 12.8zm128 96c0 6.4-6.4 12.8-12.8 12.8h-38.4c-6.4 0-12.8-6.4-12.8-12.8v-38.4c0-6.4 6.4-12.8 12.8-12.8h38.4c6.4 0 12.8 6.4 12.8 12.8zm0-96c0 6.4-6.4 12.8-12.8 12.8h-38.4c-6.4 0-12.8-6.4-12.8-12.8v-38.4c0-6.4 6.4-12.8 12.8-12.8h38.4c6.4 0 12.8 6.4 12.8 12.8zm128 96c0 6.4-6.4 12.8-12.8 12.8h-38.4c-6.4 0-12.8-6.4-12.8-12.8v-38.4c0-6.4 6.4-12.8 12.8-12.8h38.4c6.4 0 12.8 6.4 12.8 12.8zm0-96c0 6.4-6.4 12.8-12.8 12.8h-38.4c-6.4 0-12.8-6.4-12.8-12.8v-38.4c0-6.4 6.4-12.8 12.8-12.8h38.4c6.4 0 12.8 6.4 12.8 12.8z"/></svg>