<svg viewBox="0 0 384 512"><path d="m296 448h-208c0-77.46 46.2-144 104-144s104 66.52 104 144z" opacity=".4"/><path d="m24 448a24 24 0 0 0 -24 24v16a24 24 0 0 0 24 24h336a24 24 0 0 0 24-24v-16a24 24 0 0 0 -24-24c0-91-51-167.73-120.84-192 69.84-24.27 120.84-101 120.84-192a24 24 0 0 0 24-24v-16a24 24 0 0 0 -24-24h-336a24 24 0 0 0 -24 24v16a24 24 0 0 0 24 24c0 91 51 167.73 120.84 192-69.84 24.27-120.84 101-120.84 192zm64-384h208c0 77.46-46.2 144-104 144s-104-66.52-104-144zm104 240c57.79 0 104 66.52 104 144h-208c0-77.46 46.2-144 104-144z"/></svg>