<svg viewBox="0 0 384 512"><path d="m192 304c-57.8 0-104 66.54-104 144h208c0-77.48-46.21-144-104-144zm0-96c57.8 0 104-66.54 104-144h-208c0 77.48 46.21 144 104 144z" opacity=".4"/><path d="m360 64a24 24 0 0 0 24-24v-16a24 24 0 0 0 -24-24h-336a24 24 0 0 0 -24 24v16a24 24 0 0 0 24 24c0 91 51 167.73 120.84 192-69.84 24.27-120.84 101-120.84 192a24 24 0 0 0 -24 24v16a24 24 0 0 0 24 24h336a24 24 0 0 0 24-24v-16a24 24 0 0 0 -24-24c0-91-51-167.73-120.84-192 69.84-24.27 120.84-101 120.84-192zm-64 384h-208c0-77.46 46.2-144 104-144s104 66.52 104 144zm-104-240c-57.79 0-104-66.52-104-144h208c0 77.46-46.2 144-104 144z"/></svg>