<svg viewBox="0 0 640 512"><path d="m395.29 284.1a63.54 63.54 0 0 1 -58 .39c-31.26-15.74-44.05-54.16-28.52-85.64l6.74-13.65a127.18 127.18 0 0 1 66.39-61.67l7.52-3.07-125.9-111.54a35.33 35.33 0 0 0 -46.93 0l-211.79 187.5a14.18 14.18 0 0 0 -1.23 20l18.79 21.28a14.21 14.21 0 0 0 20 1.25l21.64-19.08v164.13a32 32 0 0 0 32 32h229.44l31.43-31.5a30.14 30.14 0 0 0 6.95-10.64l20.71-51.5 11.76-29.25c-.48-2.98-.81-5.99-1-9.01zm-171.29-12.1a16 16 0 0 1 -16 16h-64a16 16 0 0 1 -16-16v-64a16 16 0 0 1 16-16h64a16 16 0 0 1 16 16z" opacity=".4"/><path d="m393.55 385.74a61.78 61.78 0 0 1 -14.18 21.49l-50 50.11a32 32 0 0 0 45.18 45.28l59.45-59.39a64.64 64.64 0 0 0 14.2-21.5l13.5-33.79c-55.29-60.29-38.7-41.79-47.4-53.69zm134.45-289.74a48 48 0 1 0 -48-48 48 48 0 0 0 48 48zm94.42 149.06-23.29-11.8-9.7-29.38c-14.7-44.61-55.7-75.81-102.19-75.9-36-.09-55.88 10.09-93.28 25.2a95.42 95.42 0 0 0 -49.7 46.2l-6.7 13.62a32.12 32.12 0 0 0 14.2 42.9 31.55 31.55 0 0 0 42.49-14.31l6.75-13.59a31.81 31.81 0 0 1 16.49-15.4l26.8-10.79-15.2 60.69a64.23 64.23 0 0 0 14.91 58.75l59.9 65.39a64.49 64.49 0 0 1 14.88 27.7l18.22 73.29a32 32 0 0 0 62.1-15.5l-22.2-89a63.83 63.83 0 0 0 -14.9-27.68l-45.5-49.7 17.2-68.69 5.5 16.49a63.72 63.72 0 0 0 31.7 37l23.3 11.81a31.56 31.56 0 0 0 42.49-14.31 32.37 32.37 0 0 0 -14.27-42.99z"/></svg>