<svg viewBox="0 0 576 512"><path d="m288 72-224 197.85v210.15a32 32 0 0 0 32 32h384a32 32 0 0 0 32-32v-210.15zm64 258.66a21.4 21.4 0 0 1 -21.37 21.34h-85.29a21.4 21.4 0 0 1 -21.34-21.34v-85.34a21.4 21.4 0 0 1 21.34-21.32h85.29a21.4 21.4 0 0 1 21.37 21.32z" opacity=".4"/><path d="m571.9 258.87-21.41 23.81c-1.8 2-12.46 10.23-22.59 1.22l-239.9-211.9-239.88 211.9c-9.3 8.37-19.81 1.9-22.59-1.2l-21.41-23.8c-8.37-9.3-1.9-19.81 1.2-22.6l256-226c6.27-5.69 18.25-10.3 26.68-10.3s20.44 4.61 26.72 10.3l101.28 89.37v-51.67a16 16 0 0 1 16-16h64a16 16 0 0 1 16 16v136.44l58.69 51.83c3.1 2.79 9.54 13.27 1.21 22.6z"/></svg>