<svg viewBox="0 0 640 512"><path d="m635.23 196.42-59.23-52.42v-96a16 16 0 0 0 -16-16h-32a16 16 0 0 0 -16 16v39.29l-88.48-78.37a35.33 35.33 0 0 0 -46.93 0l-211.79 187.5a14.18 14.18 0 0 0 -1.23 20l18.79 21.28a14.21 14.21 0 0 0 20 1.25l21.64-19.08v64a320.42 320.42 0 0 1 81.24 132.13h238.76a32 32 0 0 0 32-32v-164.16l21.62 19.16a14.28 14.28 0 0 0 20-1.25l18.79-21.28a14.25 14.25 0 0 0 -1.18-20.05zm-187.23 75.58a16.05 16.05 0 0 1 -16 16h-64a16 16 0 0 1 -16-16v-64a16 16 0 0 1 16-16h64a16.05 16.05 0 0 1 16 16z" opacity=".4"/><path d="m0 416v96h96a96 96 0 0 0 -96-96zm0-96v63.93a128.12 128.12 0 0 1 128.07 128.07h63.93c0-106-86-192-192-192zm0-96v63.93c123.71 0 224.07 100.36 224.07 224.07h63.93c0-159.06-128.94-288-288-288z"/></svg>