<svg viewBox="0 0 576 512"><path d="m570.69 236.27-58.69-51.83v-136.44a16 16 0 0 0 -16-16h-64a16 16 0 0 0 -16 16v51.67l-101.22-89.37c-6.28-5.69-18.25-10.3-26.78-10.3s-20.46 4.61-26.74 10.3l-256 226a18.27 18.27 0 0 0 -5.26 11.9 18.67 18.67 0 0 0 4.09 10.71l21.41 23.79a21.14 21.14 0 0 0 12 5.3 21.67 21.67 0 0 0 10.69-4.11l15.9-14v210.11a32 32 0 0 0 32 32h383.91a32 32 0 0 0 32-32v-210.13l15.91 14a21.86 21.86 0 0 0 10.72 4.13 20.89 20.89 0 0 0 11.87-5.31l21.41-23.81a21.64 21.64 0 0 0 4.09-10.69 21 21 0 0 0 -5.31-11.92zm-282.69-60.27a64 64 0 1 1 -64 64 64 64 0 0 1 64-64zm112 272h-224a16 16 0 0 1 -16-16 96 96 0 0 1 96-96h64a96 96 0 0 1 96 96 16 16 0 0 1 -16 16z" opacity=".4"/><path d="m288 304a64 64 0 1 0 -64-64 64 64 0 0 0 64 64zm32 32h-64a96 96 0 0 0 -96 96 16 16 0 0 0 16 16h224a16 16 0 0 0 16-16 96 96 0 0 0 -96-96z"/></svg>