<svg viewBox="0 0 640 512"><path d="m193.94 174.06a87.74 87.74 0 0 1 -59.83-162.46 5.26 5.26 0 0 0 -1.65-9.73 136.16 136.16 0 0 0 -20.46-1.87 112 112 0 1 0 87 182.53 5.25 5.25 0 0 0 -5.06-8.47zm123.12-114.82-39.72-16.56-16.57-39.68a5.32 5.32 0 0 0 -9.54 0l-16.57 39.68-39.66 16.56a5.33 5.33 0 0 0 0 9.54l39.71 16.56 16.57 39.72a5.32 5.32 0 0 0 9.54 0l16.57-39.72 39.72-16.56a5.34 5.34 0 0 0 0-9.54zm-160 320-39.71-16.56-16.58-39.68a5.32 5.32 0 0 0 -9.54 0l-16.57 39.68-39.66 16.56a5.33 5.33 0 0 0 0 9.54l39.71 16.56 16.57 39.72a5.32 5.32 0 0 0 9.54 0l16.57-39.72 39.71-16.56a5.33 5.33 0 0 0 0-9.54z" opacity=".4"/><path d="m635.23 292.42-59.23-52.42v-96a16 16 0 0 0 -16-16h-32a16 16 0 0 0 -16 16v39.29l-88.48-78.37a35.33 35.33 0 0 0 -46.93 0l-211.79 187.5a14.18 14.18 0 0 0 -1.23 20l18.79 21.28a14.21 14.21 0 0 0 20 1.25l21.64-19.08v164.13a32 32 0 0 0 32 32h288a32 32 0 0 0 32-32v-164.16l21.62 19.16a14.28 14.28 0 0 0 20-1.25l18.79-21.28a14.25 14.25 0 0 0 -1.18-20.05zm-187.23 75.58a16.05 16.05 0 0 1 -16 16h-64a16 16 0 0 1 -16-16v-64a16 16 0 0 1 16-16h64a16.05 16.05 0 0 1 16 16z"/></svg>