<svg viewBox="0 0 576 512"><path d="m512 311.08v184.92a16 16 0 0 1 -16 16h-176.18l-39.92-55.26 104.11-64-148.01-136.74 60.11 119.2-104.11 63.98 37.24 72.82h-149.24a16 16 0 0 1 -16-16v-185c1.78-1.21 3.85-1.89 5.47-3.35l218.53-192.65 218.74 192.9c1.55 1.36 3.57 2.02 5.26 3.18z" opacity=".4"/><path d="m236 256 60.11 119.2-104.11 63.98 37.24 72.82h90.58l-39.92-55.26 104.11-64zm334.7-19.74-58.7-51.83v-136.43a16 16 0 0 0 -16-16h-64a16 16 0 0 0 -16 16v51.67l-101.24-89.38a39.85 39.85 0 0 0 -53.45 0l-256 226a16 16 0 0 0 -1.21 22.59l21.41 23.79a16 16 0 0 0 22.59 1.21l229.33-202.27a16 16 0 0 1 21.17 0l229.32 202.27a16 16 0 0 0 22.6-1.2l21.4-23.82a16 16 0 0 0 -1.22-22.6z"/></svg>