<svg viewBox="0 0 384 512"><path d="m0 224v-32a16 16 0 0 1 16-16h205.38l-65.38 64h-140a16 16 0 0 1 -16-16zm77.91 92.38 45.36-44.38h-107.27a16 16 0 0 0 -16 16v32a16 16 0 0 0 16 16h46.56a94.82 94.82 0 0 1 15.35-19.62zm290.09-44.38h-140l-65.4 64h205.4a16 16 0 0 0 16-16v-32a16 16 0 0 0 -16-16zm0-96h-46.56a94.78 94.78 0 0 1 -15.34 19.61l-45.36 44.39h107.26a16 16 0 0 0 16-16v-32a16 16 0 0 0 -16-16z" opacity=".4"/><path d="m323.32 84.26c20.07 36.58 12.6 82.17-17.22 111.35l-171.29 167.61a21.21 21.21 0 0 0 14.39 36.78h83.63a24 24 0 0 0 15.36-5.56l11.75-9.8a24 24 0 0 1 33.81 3.07l20.49 24.59a24 24 0 0 1 -3.07 33.8l-11.77 9.81a104 104 0 0 1 -66.54 24.09h-78.86c-37.14 0-73.38-17.85-92-49.95-.45-.77-.88-1.54-1.31-2.31-20.07-36.58-12.6-82.18 17.23-111.35l171.28-167.6a21.21 21.21 0 0 0 -14.4-36.79h-83.62a24 24 0 0 0 -15.39 5.57l-11.73 9.78a24 24 0 0 1 -33.81-3.07l-20.49-24.58a24 24 0 0 1 3.07-33.8l11.77-9.81a104 104 0 0 1 66.54-24.09h78.86c37.14 0 73.38 17.84 92 50 .46.72.89 1.49 1.32 2.26z"/></svg>