<svg viewBox="0 0 384 512"><path d="m223.9 22.09c-8.7-28.8-53.9-30.1-63.8 0-51 157.7-160.1 200.6-160.1 311.81 0 98.4 85.9 178.1 192 178.1s192-79.7 192-178.1c0-111.71-108.9-153.31-160.1-311.81zm-127.9 265.91a32 32 0 1 1 32 32 32 32 0 0 1 -32-32zm49.5 131.8a7.87 7.87 0 0 1 -11.2 1.2l-12.5-10a8 8 0 0 1 -1.2-11.2l118-147.51a8 8 0 0 1 11.2-1.2l12.5 10a7.87 7.87 0 0 1 1.2 11.2zm110.5-3.8a32 32 0 1 1 32-32 32 32 0 0 1 -32 32z" opacity=".4"/><path d="m128 256a32 32 0 1 0 32 32 32 32 0 0 0 -32-32zm128 96a32 32 0 1 0 32 32 32 32 0 0 0 -32-32z"/></svg>