<svg viewBox="0 0 576 512"><path d="m568 416h-32a8 8 0 0 0 -8 8v16a23.94 23.94 0 0 1 -24 24h-72v-48h-48v48h-240v-48h-48v48h-88a8 8 0 0 0 -8 8v32a8 8 0 0 0 8 8h504a64.06 64.06 0 0 0 64-64v-24a8 8 0 0 0 -8-8zm-304-224h56v-32h-56a8 8 0 0 0 -8 8v16a8 8 0 0 0 8 8zm0-64h56v-32h-56a8 8 0 0 0 -8 8v16a8 8 0 0 0 8 8z" opacity=".4"/><path d="m78.4 82.7 177.6-50.7v-16a16 16 0 0 1 16-16h32a16 16 0 0 1 16 16v80h-56a8 8 0 0 0 -8 8v16a8 8 0 0 0 8 8h56v32h-56a8 8 0 0 0 -8 8v16a8 8 0 0 0 8 8h56l119.3 29.9a96 96 0 0 1 72.7 93.1v37a32 32 0 0 1 -32 32h-416a32 32 0 0 1 -32-32v-207.8a64 64 0 0 1 46.4-61.5z"/></svg>