<svg viewBox="0 0 512 512"><path d="m137.86 22.44-9.86 10.14-9.85-10.14c-25.1-25.94-65.9-30.14-93.29-6.8-31.41 26.78-33 74.85-5 103.88l96.75 99.83a15.68 15.68 0 0 0 22.65 0l96.75-99.83c28.14-29 26.5-77.1-4.91-103.88-27.35-23.34-68.1-19.14-93.24 6.8zm361.54 329.66h-60.58l22.36-50.75c2.1-6.65-3.94-13.21-12.18-13.21h-75.6c-6.3 0-11.65 3.9-12.49 9.1l-16.8 106.93c-1 6.3 4.88 11.89 12.49 11.89h62.32l-24.2 83c-1.89 6.65 4.2 12.9 12.23 12.9a13.26 13.26 0 0 0 10.92-5.25l92.4-138.91c4.88-6.91-1.16-15.7-10.87-15.7z" opacity=".4"/><path d="m260.57 319.84h-48l-7.08-14.24a27.39 27.39 0 0 0 -25.66-17.78h-71.71a27.39 27.39 0 0 0 -25.66 17.78l-7 14.24h-48a27.45 27.45 0 0 0 -27.46 27.46v137.25a27.45 27.45 0 0 0 27.43 27.45h233.14a27.45 27.45 0 0 0 27.43-27.45v-137.25a27.45 27.45 0 0 0 -27.43-27.46zm-116.57 148.16a52 52 0 1 1 52-52 52 52 0 0 1 -52 52zm334.08-467.67-148.57 22.84c-14.64 2.25-25.51 15.75-25.51 31.66v106.77a83.25 83.25 0 0 0 -16-1.7c-35.35 0-64 21.48-64 48s28.65 48 64 48c35.2 0 63.73-21.32 64-47.66v-108.58l112-17.22v47.18a83.25 83.25 0 0 0 -16-1.7c-35.35 0-64 21.48-64 48s28.65 48 64 48c35.2 0 63.73-21.32 64-47.66v-144.26c0-19.48-16-34.42-33.92-31.67z"/></svg>