<svg viewBox="0 0 512 512"><path d="m208 96h-192a16 16 0 0 0 -16 16v32a16 16 0 0 0 16 16h64v48a16 16 0 0 0 16 16h32a16 16 0 0 0 16-16v-48h64a16 16 0 0 0 16-16v-32a16 16 0 0 0 -16-16zm0-96h-192a16 16 0 0 0 -16 16v32a16 16 0 0 0 16 16h192a16 16 0 0 0 16-16v-32a16 16 0 0 0 -16-16zm120 368a40 40 0 1 0 -40-40 40 40 0 0 0 40 40zm179.31-52.69-22.62-22.62a16 16 0 0 0 -22.63 0l-169.37 169.37a16 16 0 0 0 0 22.63l22.62 22.62a16 16 0 0 0 22.63 0l169.37-169.37a16 16 0 0 0 0-22.63zm-35.31 116.69a40 40 0 1 0 40 40 40 40 0 0 0 -40-40z" opacity=".4"/><path d="m478.08.33-148.57 22.85c-14.64 2.26-25.51 15.76-25.51 31.68v106.84a83.25 83.25 0 0 0 -16-1.7c-35.35 0-64 21.49-64 48s28.65 48 64 48c35.2 0 63.73-21.33 64-47.69v-108.58l112-17.23v47.2a83.25 83.25 0 0 0 -16-1.7c-35.35 0-64 21.49-64 48s28.65 48 64 48c35.2 0 63.73-21.33 64-47.69v-144.31c0-19.47-16-34.43-33.92-31.67zm-258.49 383.61-22.59-22.63a16 16 0 0 0 -22.63 0l-27.92 27.89-22.7-22.7a64 64 0 1 0 -90.7-3.3l-6.92 6.92c-29.59 29.59-35.69 77.63-9.81 110.52a81.31 81.31 0 0 0 121.68 7.55l8.48-8.49 27.61 27.61a16 16 0 0 0 22.63 0l22.62-22.62a16 16 0 0 0 0-22.63l-27.64-27.61 27.89-27.89a16 16 0 0 0 0-22.62zm-139.59-79.94a16 16 0 1 1 -16 16 16 16 0 0 1 16-16zm12.72 138.94a17.29 17.29 0 1 1 -24.45-24.46l8.48-8.48 24.45 24.45z"/></svg>