<svg viewBox="0 0 576 512"><path d="m0 128v304a48 48 0 0 0 48 48h480a48 48 0 0 0 48-48v-304zm176 64a64 64 0 1 1 -64 64 64 64 0 0 1 64-64zm93.3 224h-186.6c-10.4 0-18.8-10-15.6-19.8a64.09 64.09 0 0 1 60.9-44.2h8.2a103 103 0 0 0 79.6 0h8.2a64.09 64.09 0 0 1 60.9 44.2c3.2 9.9-5.2 19.8-15.6 19.8zm242.7-72a8 8 0 0 1 -8 8h-144a8 8 0 0 1 -8-8v-16a8 8 0 0 1 8-8h144a8 8 0 0 1 8 8zm0-64a8 8 0 0 1 -8 8h-144a8 8 0 0 1 -8-8v-16a8 8 0 0 1 8-8h144a8 8 0 0 1 8 8zm0-64a8 8 0 0 1 -8 8h-144a8 8 0 0 1 -8-8v-16a8 8 0 0 1 8-8h144a8 8 0 0 1 8 8z" opacity=".4"/><path d="m224 352h-8.2a103 103 0 0 1 -79.6 0h-8.2a64.09 64.09 0 0 0 -60.9 44.2c-3.2 9.8 5.2 19.8 15.6 19.8h186.6c10.4 0 18.8-9.9 15.6-19.8a64.09 64.09 0 0 0 -60.9-44.2zm304-320h-480a48 48 0 0 0 -48 48v48h576v-48a48 48 0 0 0 -48-48zm-352 288a64 64 0 1 0 -64-64 64 64 0 0 0 64 64z"/></svg>