<svg viewBox="0 0 576 512"><path d="m384 384v96h-192v-96a96 96 0 0 1 192 0z" opacity=".4"/><path d="m320 33.9a282 282 0 0 0 -32-1.9 287.48 287.48 0 0 0 -239.4 128h271.4zm-224 158.1h-65.7a286.63 286.63 0 0 0 -30.3 128h96zm256-152.6v120.6h175.4a287.83 287.83 0 0 0 -175.4-120.6zm128 280.6h96a286.63 286.63 0 0 0 -30.3-128h-65.7zm-64 64v96h128a32 32 0 0 0 32-32v-96h-164.5c2.6 10.3 4.5 20.9 4.5 32zm32-192h-320v128h49.8c22.2-38.1 63-64 110.2-64s88 25.9 110.2 64h49.8zm-448 256a32 32 0 0 0 32 32h128v-96c0-11.1 1.9-21.7 4.5-32h-164.5z"/></svg>