<svg viewBox="0 0 576 512"><path d="m528 512h-480a48 48 0 0 1 -48-48v-95.2a47.29 47.29 0 0 1 10.7-30l94.4-118a12 12 0 0 1 18.1-.7l27.6 29.5a12 12 0 0 1 .6 15.7l-43.8 54.7h92.4l32 64h112l32-64h92.3l-44.3-55.4a12.16 12.16 0 0 1 .8-15.9l28.1-28.9a12.12 12.12 0 0 1 18 .9l94.6 118.2a47.77 47.77 0 0 1 10.5 29.9v95.2a48 48 0 0 1 -48 48z" opacity=".4"/><path d="m171.5 160h61.9v-142.9a17.16 17.16 0 0 1 17.1-17.1h68.6a17.09 17.09 0 0 1 17.1 17.1v142.9h68.3c17.8 0 26.7 21.5 14.1 34.1l-119.4 120a20 20 0 0 1 -28.6-.3l-113.6-120c-12.1-12.7-3.1-33.8 14.5-33.8z"/></svg>