<svg viewBox="0 0 512 512"><path d="m148 320h-40a12 12 0 0 0 -12 12v40a12 12 0 0 0 12 12h40a12 12 0 0 0 12-12v-40a12 12 0 0 0 -12-12zm128 0h-40a12 12 0 0 0 -12 12v40a12 12 0 0 0 12 12h40a12 12 0 0 0 12-12v-40a12 12 0 0 0 -12-12zm128 0h-40a12 12 0 0 0 -12 12v40a12 12 0 0 0 12 12h40a12 12 0 0 0 12-12v-40a12 12 0 0 0 -12-12z" opacity=".4"/><path d="m475.12 163.78-139.12 88.53v-68.31a24 24 0 0 0 -36.88-20.25l-139.12 88.56v-196.31a24 24 0 0 0 -24-24h-112a24 24 0 0 0 -24 24v400a24 24 0 0 0 24 24h464a24 24 0 0 0 24-24v-272a24 24 0 0 0 -36.88-20.22zm-315.12 208.22a12 12 0 0 1 -12 12h-40a12 12 0 0 1 -12-12v-40a12 12 0 0 1 12-12h40a12 12 0 0 1 12 12zm128 0a12 12 0 0 1 -12 12h-40a12 12 0 0 1 -12-12v-40a12 12 0 0 1 12-12h40a12 12 0 0 1 12 12zm128 0a12 12 0 0 1 -12 12h-40a12 12 0 0 1 -12-12v-40a12 12 0 0 1 12-12h40a12 12 0 0 1 12 12z"/></svg>