<svg viewBox="0 0 640 512"><path d="m32 448a32 32 0 1 0 32 32 32 32 0 0 0 -32-32zm96-144a32 32 0 1 0 32 32 32 32 0 0 0 -32-32zm-96-48a32 32 0 1 0 32 32 32 32 0 0 0 -32-32zm0 96a32 32 0 1 0 32 32 32 32 0 0 0 -32-32zm96 48a32 32 0 1 0 32 32 32 32 0 0 0 -32-32zm488.27-362-137.8-36.9a32 32 0 0 0 -39.19 22.63l-15.41 57.52 168.74 168.75 46.29-172.79a32 32 0 0 0 -22.63-39.21z" opacity=".4"/><path d="m586.15 288.78a32 32 0 0 1 8.33 30.75l-44.22 168.59a32 32 0 0 1 -31 23.88h-295.26a32 32 0 0 1 -32-32v-192a32 32 0 0 1 32-32h122.49l35.91-136.92a16 16 0 0 1 26.79-7.26z"/></svg>