<svg viewBox="0 0 640 512"><path d="m624 0h-32a16 16 0 0 0 -16 16v144h-512v-144a16 16 0 0 0 -16-16h-32a16 16 0 0 0 -16 16v496h64v-32h512v32h64v-496a16 16 0 0 0 -16-16zm-48 416h-512v-192h512z" opacity=".4"/><path d="m208 256h-96a16 16 0 0 0 -16 16v96a16 16 0 0 0 16 16h96a16 16 0 0 0 16-16v-96a16 16 0 0 0 -16-16zm256-256h-96a16 16 0 0 0 -16 16v96a16 16 0 0 0 16 16h96a16 16 0 0 0 16-16v-96a16 16 0 0 0 -16-16zm-96 256h-96a16 16 0 0 0 -16 16v96a16 16 0 0 0 16 16h96a16 16 0 0 0 16-16v-96a16 16 0 0 0 -16-16z"/></svg>