<svg viewBox="0 0 448 512"><path d="m284.91 358.8a144 144 0 0 0 -43.71-6.8h-45.07c10-42.85 25-122.77 21-202.33l21.76-21.67h27.39c11.16 48 28.58 142.41 18.63 230.8z" opacity=".4"/><path d="m241.2 352h-98.4a144 144 0 0 0 -142.44 122.78c-2.89 19.52 12.03 37.22 31.76 37.22h319.76c19.73 0 34.65-17.7 31.76-37.22a144 144 0 0 0 -142.44-122.78zm206.62-238.36c-8.13-46.21-54.82-81.64-111.29-81.64-34.88 0-65.66 13.82-86.3 35.08-14.45-38.79-56.51-67.08-106.76-67.08-56.47 0-103.16 35.43-111.29 81.64a12.37 12.37 0 0 0 10.24 14.2 12.24 12.24 0 0 0 2.18.16h35.4l16-32 16 32h30.17c-34.21 35-39.62 86.88-14.54 122.58 4.36 6.2 13.14 7.31 18.5 1.95l92.76-92.53h129.11l16-32 16 32h35.4a12.38 12.38 0 0 0 12.6-12.18 12.24 12.24 0 0 0 -.18-2.18z"/></svg>