<svg viewBox="0 0 640 512"><path d="m487.66 141.63c-23.81-16.63-39.66-42.29-39.66-71.32v-62.31a8 8 0 0 0 -8-8h-48a8 8 0 0 0 -8 8v66.4c0 43.69 24.56 81.63 60.34 106.7a83.55 83.55 0 0 1 35.66 68.59v30.31a8 8 0 0 0 8 8h48a8 8 0 0 0 8-8v-30.31a131.49 131.49 0 0 0 -56.34-108.06zm65.62-54.54a20.28 20.28 0 0 1 -9.28-16.78v-62.31a8 8 0 0 0 -8-8h-48a8 8 0 0 0 -8 8v62.31c0 22 10.17 43.41 28.64 55.39a147.47 147.47 0 0 1 67.36 124v30.3a8 8 0 0 0 8 8h48a8 8 0 0 0 8-8v-30.31a195.36 195.36 0 0 0 -86.72-162.6z" opacity=".4"/><path d="m360.89 352.05c-34.4.06-86.81.15-88.21.17l117.8 137.43a64 64 0 0 0 48.59 22.35h88.45l-117.95-137.6a64 64 0 0 0 -48.68-22.35zm-165.89 6.95a525 525 0 0 0 -195 73 526.3 526.3 0 0 0 278.94 80h88.57l-112.72-131.51a65 65 0 0 0 -59.79-21.49zm421-7h-184l118 137.65a64 64 0 0 0 48.58 22.35h17.42a24 24 0 0 0 24-24v-112a24 24 0 0 0 -24-24z"/></svg>