<svg viewBox="0 0 448 512"><path d="m96 448c-19.2 0-32-12.8-32-32s16-32 32-32h319.33c-1.93 16.24-1.76 48.38.53 64z" opacity=".4"/><path d="m96 384h328a24 24 0 0 0 24-24v-328a32 32 0 0 0 -32-32h-320a96 96 0 0 0 -96 96v320a96 96 0 0 0 96 96h328a24 24 0 0 0 24-24v-16a24 24 0 0 0 -24-24h-328c-19.2 0-32-12.8-32-32s16-32 32-32zm37.08-239.61 21.26 21.26a8.00091 8.00091 0 1 0 11.32-11.31l-26.42-26.42a111.86007 111.86007 0 0 1 46.37-49.26 63 63 0 0 0 14 82.65 55.86 55.86 0 0 0 28.72 93.45l1.36-32.71-10.37 7a4.19009 4.19009 0 0 1 -2.25.69 4 4 0 0 1 -3.44-6l8.54-14.31-17.91-3.72a4 4 0 0 1 0-7.84l17.91-3.72-8.54-14.31a4 4 0 0 1 5.69-5.36l12 8.16 4.68-110.81a4 4 0 1 1 8 0l4.68 112.29 14.2-9.65a4.07 4.07 0 0 1 5 .41 4 4 0 0 1 .69 5l-8.57 14.26 17.91 3.72a4 4 0 0 1 0 7.84l-17.91 3.72 8.54 14.31a4 4 0 0 1 -5.69 5.31l-12.68-8.62 1.43 34.28a55.84 55.84 0 0 0 28.71-93.43 63 63 0 0 0 14.09-82.6 111.86 111.86 0 0 1 46.37 49.26l-26.42 26.42a8.00091 8.00091 0 1 0 11.32 11.31l21.26-21.26a110.42911 110.42911 0 0 1 5.07 31.6c0 .52-.14 1-.15 1.51l-37.11 32.49a8 8 0 1 0 10.52 12l23.59-20.64a111.71 111.71 0 0 1 -217.71 0l23.59 20.64a8.00453 8.00453 0 0 0 11.27-11.37q-.35-.33-.72-.63l-37.11-32.47c0-.52-.15-1-.15-1.51-.02-11.02 2.08-21.54 5.06-31.63z"/></svg>