<svg viewBox="0 0 448 512"><path d="m144 64h160a16 16 0 0 0 16-16v-32a16 16 0 0 0 -16-16h-160a16 16 0 0 0 -16 16v32a16 16 0 0 0 16 16zm-112 224v128h384v-128z" opacity=".4"/><path d="m448 168a71.72 71.72 0 0 0 -126.68-46.35l-10.32-12.88a32 32 0 0 1 -7-20v-24.77h-160v24.78a32 32 0 0 1 -7 20l-76.95 96.16a128 128 0 0 0 -28 80v3.06h383.95v-3.1a127.59 127.59 0 0 0 -11.1-51 72 72 0 0 0 43.1-65.9zm-70.62 23.72-24.09-30.1c2.85-10.08 11.71-17.62 22.71-17.62a23.88 23.88 0 0 1 1.38 47.72zm-345.38 256.28a64 64 0 0 0 64 64h256a64 64 0 0 0 64-64v-32h-384z"/></svg>