<svg viewBox="0 0 576 512"><path d="m117.89 205.81-80 21.82a8 8 0 0 0 -5.89 7.72v16.58a8 8 0 0 0 10.11 7.72l80-21.82a8 8 0 0 0 5.89-7.72v-16.58a8 8 0 0 0 -10.11-7.72zm144-39.28-96 26.18a8 8 0 0 0 -5.89 7.72v16.57a8 8 0 0 0 10.11 7.72l96-26.18a8 8 0 0 0 5.89-7.72v-16.57a8 8 0 0 0 -10.11-7.72zm276.22 61.1-80-21.82a8 8 0 0 0 -10.11 7.72v16.58a8 8 0 0 0 5.89 7.72l80 21.82a8 8 0 0 0 10.11-7.72v-16.58a8 8 0 0 0 -5.89-7.72zm-128-34.91-96-26.18a8 8 0 0 0 -10.11 7.72v16.58a8 8 0 0 0 5.89 7.72l96 26.18a8 8 0 0 0 10.11-7.74v-16.56a8 8 0 0 0 -5.89-7.72z" opacity=".4"/><path d="m301.81 114a47.66 47.66 0 0 0 -27.59 0l-274.22 82.3v228.38a32 32 0 0 0 25.06 31.24l242.12 53.8a95.94 95.94 0 0 0 41.65 0l242.17-53.8a32 32 0 0 0 25-31.24v-228.39zm-173.81 116.11a8 8 0 0 1 -5.89 7.72l-80 21.82a8 8 0 0 1 -10.11-7.72v-16.58a8 8 0 0 1 5.89-7.72l80-21.82a8 8 0 0 1 10.11 7.72zm144-39.28a8 8 0 0 1 -5.89 7.72l-96 26.18a8 8 0 0 1 -10.11-7.73v-16.57a8 8 0 0 1 5.89-7.72l96-26.18a8 8 0 0 1 10.11 7.72zm144 26.17a8 8 0 0 1 -10.11 7.72l-96-26.18a8 8 0 0 1 -5.89-7.72v-16.56a8 8 0 0 1 10.11-7.72l96 26.18a8 8 0 0 1 5.89 7.72zm128 34.91a8 8 0 0 1 -10.11 7.72l-80-21.82a8 8 0 0 1 -5.89-7.72v-16.56a8 8 0 0 1 10.11-7.72l80 21.82a8 8 0 0 1 5.89 7.72zm-279-168.54-265 79.51v-49a32 32 0 0 1 21.88-30.37l235.77-78.58a96 96 0 0 1 60.71 0l235.76 78.58a32 32 0 0 1 21.88 30.36v49l-265-79.5a80 80 0 0 0 -46 0z"/></svg>