<svg viewBox="0 0 640 512"><path d="m608 128h-95.32c46.87 23.75 79.32 71.86 79.32 128s-32.45 104.25-79.32 128h95.32a32 32 0 0 0 32-32v-192a32 32 0 0 0 -32-32zm-304 128c0-56.14 32.45-104.25 79.32-128h-141.39a128.18 128.18 0 0 0 -35.16 4.92l-183.56 52.45a32 32 0 0 0 -23.21 30.77v79.72a32 32 0 0 0 23.21 30.77l183.56 52.44a127.81 127.81 0 0 0 35.16 4.93h141.39c-46.87-23.75-79.32-71.86-79.32-128zm240 0a96 96 0 1 0 -96 96 96 96 0 0 0 96-96zm-45.09 28.28a8 8 0 0 1 0 11.32l-11.31 11.31a8 8 0 0 1 -11.32 0l-28.28-28.28-28.29 28.28a8 8 0 0 1 -11.31 0l-11.31-11.31a8 8 0 0 1 0-11.32l28.29-28.28-28.29-28.29a8 8 0 0 1 0-11.31l11.31-11.31a8 8 0 0 1 11.31 0l28.29 28.28 28.28-28.28a8 8 0 0 1 11.32 0l11.31 11.31a8 8 0 0 1 0 11.31l-28.28 28.29z" opacity=".4"/><path d="m448 112a144 144 0 1 0 144 144 144 144 0 0 0 -144-144zm0 240a96 96 0 1 1 96-96 96 96 0 0 1 -96 96z"/></svg>