<svg viewBox="0 0 640 512"><path d="m416.54 0h-17a8 8 0 0 0 -7.54 5.32l-176.28 496a8 8 0 0 0 7.55 10.68h17a8 8 0 0 0 7.54-5.32l176.28-496a8 8 0 0 0 -7.55-10.68z" opacity=".4"/><path d="m304 96h-50.62a16 16 0 0 0 -15.16 10.89l-78.22 199.79-78.22-199.79a16 16 0 0 0 -15.16-10.89h-50.62a16 16 0 0 0 -15.15 21.11l105.27 277.2a32 32 0 0 0 30.3 21.69h47.16a32 32 0 0 0 30.3-21.69l105.27-277.2a16 16 0 0 0 -15.15-21.11zm335.15 298.89-105.27-277.2a32 32 0 0 0 -30.3-21.69h-47.16a32 32 0 0 0 -30.3 21.69l-105.27 277.2a16 16 0 0 0 15.15 21.11h50.61a16 16 0 0 0 15.16-10.89l14.54-37.11h127.38l14.53 37.11a16 16 0 0 0 15.16 10.89h50.62a16 16 0 0 0 15.15-21.11zm-191.52-106.89 32.37-82.68 32.37 82.68z"/></svg>