<svg viewBox="0 0 512 512"><path d="m368 448h-80v-64h-64v64h-80a16 16 0 0 0 -16 16v32a16 16 0 0 0 16 16h224a16 16 0 0 0 16-16v-32a16 16 0 0 0 -16-16zm-161.32-365.55a47.73 47.73 0 0 0 33.32 13.55h64a48 48 0 0 0 0-96h-64a47.89 47.89 0 0 0 -46.31 36c-55.92 13.72-97.69 63.91-97.69 124h48c0-37.62 26.21-69.06 62.68-77.55z" opacity=".4"/><path d="m508.62 281.24a32.07 32.07 0 0 1 3.38 14.31v24.45a32 32 0 0 1 -32 32h-448a32 32 0 0 1 -32-32v-24.45a32 32 0 0 1 3.38-14.31l51.78-103.55a32 32 0 0 1 28.62-17.69h344.44a32 32 0 0 1 28.62 17.69z"/></svg>