<svg viewBox="0 0 640 512"><path d="m402.73 199.72-35.89 18a55.81 55.81 0 0 0 -31 50.09v228.21a16 16 0 0 0 16 16h16a16 16 0 0 0 16-16v-228.25a8 8 0 0 1 4.47-7.16l23.87-11.94 2.13-7.39c4.92-16.94-3.05-31.56-11.58-41.56zm-98.86 68a55.74 55.74 0 0 0 -31-50.09l-35.84-17.92c-8.57 10.12-16.55 25-11.66 42.26l1.82 6.49 24.21 12.11a8 8 0 0 1 4.44 7.16v228.27a16 16 0 0 0 16 16h16a16 16 0 0 0 16-16v-48z" opacity=".4"/><path d="m639.9 224c-2.09-74-35.81-146.16-96-199.7a96 96 0 1 0 -127.69 143.42c49.6 44.12 26.49 91.15 25.76 93.71-17.48 60.57 27.65 122.57 92.32 122.57a96.07 96.07 0 0 0 92.26-69.46c5.54-19.27 14.54-48.08 13.35-90.54zm-543.9-199.62c-59.92 53.47-93.61 125.62-95.87 199.62-1.28 42 7.47 70.91 12.87 90.06a96 96 0 0 0 92.37 69.94c64.31 0 109.65-61.47 92.47-122.11-1-3.7-23.08-50.43 26.07-94.27a96 96 0 1 0 -127.91-143.24z"/></svg>