<svg viewBox="0 0 640 512"><path d="m72 251 24 15.87 24-15.87v-27a88 88 0 0 0 -88-88h-16a16 16 0 0 0 -16 16v16a16 16 0 0 0 16 16h16a40 40 0 0 1 40 40zm558.63-241.63-155.53 155.53 153.82 153.82a32 32 0 0 0 11.08-24.22v-262.5a31.9 31.9 0 0 0 -9.37-22.63zm-309.36 1.74a32 32 0 0 0 -7 13.69l-80.09 347.09-87.54 87.54a15.6 15.6 0 0 1 -26.63-11v-123.43l-24.01-15.84-24 15.84v118.31c0 16.55 5 33 15.7 45.71 26.48 31.53 69 28.26 92.87 4.34l87.55-87.55-6.7 1.55a24 24 0 0 1 -22.36-6.42l235.94-235.94z" opacity=".4"/><path d="m154.69 228-58.69 38.84-58.69-38.84c-16-10.55-37.31.79-37.31 19.8v80.32c0 19 21.36 30.35 37.31 19.8l58.69-38.76 58.69 38.84c15.95 10.55 37.31-.79 37.31-19.8v-80.36c0-19.01-21.36-30.35-37.31-19.84zm475.94-218.63a31.9 31.9 0 0 0 -22.63-9.37h-262.5a32.08 32.08 0 0 0 -24.23 11.11l153.73 153.89-235.94 235.94a24 24 0 0 0 22.36 6.42l353.78-81.66a31.76 31.76 0 0 0 13.72-7l-153.82-153.8z"/></svg>