<svg viewBox="0 0 576 512"><path d="m144 410v54a16 16 0 0 1 -16 16h-16a16 16 0 0 1 -16-16v-73.69a190.9 190.9 0 0 0 48 19.69zm432-186a112 112 0 0 1 -102.62 111.61l72.54 136.05a16 16 0 0 0 14.08 8.34 16.2 16.2 0 0 0 3.95-.5 16 16 0 0 0 12.05-15.5zm-368 191.32v48.68a16 16 0 0 0 16 16h16a16 16 0 0 0 16-16v-58.95a191 191 0 0 1 -48 10.27z" opacity=".4"/><path d="m464 112h-15.74a260.23 260.23 0 0 1 -147.74-46.24q-6.09-4.22-12.52-7.94v-.13a191.08 191.08 0 0 0 -96-25.69c-106 0-192 86-192 192s86 192 192 192a191.08 191.08 0 0 0 96-25.69v-.2c2.83-1.61 5.61-3.28 8.33-5.05 45.67-29.73 97.25-48.96 151.67-49.06h16a112 112 0 0 0 0-224zm0 136a24 24 0 1 1 24-24 24 24 0 0 1 -24 24z"/></svg>