<svg viewBox="0 0 576 512"><path d="m4.87 469.83 262.65-253.23 129.09 124.45a15.6 15.6 0 0 1 0 22.63l-61 58.85c-84.89 81.81-210.41 110.38-324.25 73.79-11.71-3.75-15.21-18.08-6.49-26.49z" opacity=".4"/><path d="m566.28 43.31-35.21-33.93a34.07 34.07 0 0 0 -46.94 0l-192.31 185.39 112.1 108.08 34.35-27.7a31.47 31.47 0 0 0 9.73-22.64v-44.51l118.28-119.43a31.2 31.2 0 0 0 0-45.26zm-122 106.36a17 17 0 0 1 -23.47 0 15.6 15.6 0 0 1 0-22.63 17 17 0 0 1 23.47 0 15.6 15.6 0 0 1 -.04 22.63zm60.52-58.36a17 17 0 0 1 -23.47 0 15.59 15.59 0 0 1 0-22.62 17 17 0 0 1 23.47 0 15.59 15.59 0 0 1 -.04 22.62z"/></svg>