<svg viewBox="0 0 512 512"><path d="m221.78 120.28-118.78 118.72a24 24 0 0 0 -6.11 23.56l53.01 185.44h49.92l-52.82-185 108.72-108.78zm236.55 67.43-78.62 78.62a55.73 55.73 0 0 0 78.62-78.62z" opacity=".4"/><path d="m320 448h-256c-28.42 0-54.95 18.53-63.3 44.16-3.22 9.84 5.18 19.84 15.56 19.84h351.48c10.39 0 18.78-10 15.57-19.84-8.31-25.63-34.89-44.16-63.31-44.16zm174.41-384h-147.91l-45.26-45.26a64 64 0 0 0 -90.5 90.5l45 45 .28.28v147.9c0 15.63 18.9 23.46 30 12.4l220.8-220.82c11.06-11.1 3.23-30-12.41-30z"/></svg>