<svg viewBox="0 0 640 512"><path d="m168.1 236.2c-3.5-12.1-7.8-33.2-7.8-33.2h-.5s-4.3 21.1-7.8 33.2l-11.1 37.5h38.1zm-168.1-116.2v272.12a23.94 23.94 0 0 0 24 23.88h296v-320h-296.12a23.94 23.94 0 0 0 -23.88 24zm74.62 216.19 57.65-168.14a12 12 0 0 1 11.43-8.05h32.58a12.23 12.23 0 0 1 11.43 8.05l57.64 168.14a11.7 11.7 0 0 1 .65 3.93 12 12 0 0 1 -12.08 11.88h-22.92a12 12 0 0 1 -11.53-8.55l-9.47-31.72h-60.34l-9.12 31.62a12.11 12.11 0 0 1 -11.54 8.65h-23a12.07 12.07 0 0 1 -11.43-15.81zm489.38-148.19h-64v-16a12 12 0 0 0 -12-12h-16a12 12 0 0 0 -12 12v16h-64a12 12 0 0 0 -12 12v16a12 12 0 0 0 12 12h114.3c-6.2 14.3-16.5 29-30 43.19a191 191 0 0 1 -17.4-20.89 12.09 12.09 0 0 0 -16-3.4l-7.3 4.3-6.5 3.89-.64.41a12 12 0 0 0 -3.06 16.69 231.81 231.81 0 0 0 21 25.69 284.34 284.34 0 0 1 -26.1 18 12 12 0 0 0 -4.2 16.2l7.9 13.89.2.34a12 12 0 0 0 16.5 4 352.44 352.44 0 0 0 35.4-24.89 348.11 348.11 0 0 0 35.4 24.89 3.79 3.79 0 0 0 .34.2 12 12 0 0 0 16.36-4.5l7.9-14.01a12 12 0 0 0 -4.1-16.2 310.64 310.64 0 0 1 -26.1-18c21-22.49 35.8-46.28 42.7-69.88h11.4a12 12 0 0 0 12-12v-15.92a12 12 0 0 0 -12-12z" opacity=".4"/><path d="m616.12 96h-296.12v320h296a23.94 23.94 0 0 0 24-23.88v-272.12a23.94 23.94 0 0 0 -23.88-24zm-40.12 120a12 12 0 0 1 -12 12h-11.4c-6.9 23.6-21.7 47.39-42.7 69.88a310.64 310.64 0 0 0 26.1 18 12 12 0 0 1 4.1 16.2l-7.9 13.89a12 12 0 0 1 -16.36 4.5 3.79 3.79 0 0 1 -.34-.2 348.11 348.11 0 0 1 -35.4-24.89 352.44 352.44 0 0 1 -35.4 24.89 12 12 0 0 1 -16.5-4l-.2-.34-7.9-13.93a12 12 0 0 1 4.2-16.2 284.34 284.34 0 0 0 26.1-18 231.81 231.81 0 0 1 -21-25.69 12 12 0 0 1 3.06-16.69l.64-.41 6.5-3.89 7.3-4.3a12.09 12.09 0 0 1 16 3.4 191 191 0 0 0 17.4 20.89c13.5-14.2 23.8-28.89 30-43.19h-114.3a12 12 0 0 1 -12-12v-15.92a12 12 0 0 1 12-12h64v-16a12 12 0 0 1 12-12h16a12 12 0 0 1 12 12v16h64a12 12 0 0 1 12 12zm-388.29-47.95a12.23 12.23 0 0 0 -11.43-8.05h-32.58a12 12 0 0 0 -11.43 8.05l-57.65 168.14a12.07 12.07 0 0 0 11.43 15.81h23a12.11 12.11 0 0 0 11.53-8.65l9.12-31.62h60.3l9.42 31.72a12 12 0 0 0 11.58 8.55h23a12 12 0 0 0 12-11.88 11.7 11.7 0 0 0 -.65-3.93zm-46.81 105.65 11.1-37.5c3.5-12.1 7.8-33.2 7.8-33.2h.5s4.3 21.1 7.8 33.2l10.9 37.5z"/></svg>