<svg viewBox="0 0 640 512"><path d="m528 0h-416a48.14 48.14 0 0 0 -48 48v336h512v-336a48.14 48.14 0 0 0 -48-48zm-16 320h-384v-256h384z" opacity=".4"/><path d="m624 416h-242.46c-.74 19.81-14.71 32-32.74 32h-60.8c-18.69 0-33-17.47-32.77-32h-239.23a16 16 0 0 0 -16 16v16a64.19 64.19 0 0 0 64 64h512a64.19 64.19 0 0 0 64-64v-16a16 16 0 0 0 -16-16zm-112-352h-384v256h384zm-96 152a8 8 0 0 1 -8 8h-56v56a8 8 0 0 1 -8 8h-48a8 8 0 0 1 -8-8v-56h-56a8 8 0 0 1 -8-8v-48a8 8 0 0 1 8-8h56v-56a8 8 0 0 1 8-8h48a8 8 0 0 1 8 8v56h56a8 8 0 0 1 8 8z"/></svg>