<svg viewBox="0 0 640 512"><path d="m528 0h-416a48.14 48.14 0 0 0 -48 48v336h512v-336a48.14 48.14 0 0 0 -48-48zm-16 320h-384v-256h384z" opacity=".4"/><path d="m624 416h-242.46c-.74 19.81-14.71 32-32.74 32h-60.8c-18.69 0-33-17.47-32.77-32h-239.23a16 16 0 0 0 -16 16v16a64.19 64.19 0 0 0 64 64h512a64.19 64.19 0 0 0 64-64v-16a16 16 0 0 0 -16-16zm-112-352h-384v256h384zm-223 186.34-11.31 11.31a16 16 0 0 1 -22.63 0l-58.35-58.34a16 16 0 0 1 0-22.63l58.29-58.34a16 16 0 0 1 22.63 0l11.37 11.31a16 16 0 0 1 0 22.63l-35.75 35.72 35.75 35.71a16 16 0 0 1 0 22.63zm154.35-47-58.35 58.32a16 16 0 0 1 -22.63 0l-11.37-11.31a16 16 0 0 1 0-22.63l35.75-35.72-35.75-35.71a16 16 0 0 1 0-22.63l11.31-11.31a16 16 0 0 1 22.63 0l58.34 58.34a16 16 0 0 1 .04 22.63z"/></svg>