<svg viewBox="0 0 640 512"><path d="m272 416h-176a32 32 0 0 1 -32-32v-164.12l-21.66 19.12a16.51 16.51 0 0 1 -9.34 3.48 16.22 16.22 0 0 1 -10.63-4.78l-18.82-21.28a16.4 16.4 0 0 1 -3.55-9.42 16.15 16.15 0 0 1 4.78-10.61l211.8-187.47c5.54-4.92 16.06-8.92 23.47-8.92s17.95 4 23.45 8.92l88.5 78.38v-39.3a16 16 0 0 1 16-16h32a16 16 0 0 1 16 16v96l59.24 52.42a16.31 16.31 0 0 1 4.76 10.58 16.51 16.51 0 0 1 -3.58 9.44l-6.68 7.56h-136.94c-17.8 0-33.69 8.24-44.82 21.12v-37.12a16 16 0 0 0 -16-16h-63.98a16 16 0 0 0 -16 16v64a16 16 0 0 0 16 16h64z" opacity=".4"/><path d="m629.33 448h-37.33v-160c0-17.67-12.89-32-28.8-32h-230.4c-15.91 0-28.8 14.33-28.8 32v160h-37.33a10.67 10.67 0 0 0 -10.67 10.67v10.66a42.82 42.82 0 0 0 42.6 42.67h298.8a42.82 42.82 0 0 0 42.6-42.67v-10.66a10.67 10.67 0 0 0 -10.67-10.67zm-85.33 0h-192v-144h192z"/></svg>