<svg viewBox="0 0 496 512"><path d="m248 8c-137 0-248 111-248 248s111 248 248 248 248-111 248-248-111-248-248-248zm20.1 198.1c4-25.2 34.2-42.1 59.9-42.1s55.9 16.9 59.9 42.1c1.7 11.1-11.4 18.3-19.8 10.8l-9.5-8.5c-14.8-13.2-46.2-13.2-61 0l-9.6 8.6a12.08 12.08 0 0 1 -19.9-10.9zm-100.1-46.1a32 32 0 1 1 -32 32 32 32 0 0 1 32-32zm230.9 146a144.12 144.12 0 0 1 -142.9 126h-16a144.12 144.12 0 0 1 -142.9-126 16.06 16.06 0 0 1 14-17.88 15 15 0 0 1 1.9-.12h270a16 16 0 0 1 16 16 16.64 16.64 0 0 1 -.1 2z" opacity=".4"/><path d="m387.9 206.1c-4-25.2-34.2-42.1-59.9-42.1s-55.9 16.9-59.9 42.1a12.08 12.08 0 0 0 19.9 10.9l9.6-8.6c14.8-13.2 46.2-13.2 61 0l9.5 8.5c8.4 7.5 21.5.3 19.8-10.8zm-219.9-46.1a32 32 0 1 0 32 32 32 32 0 0 0 -32-32z"/></svg>