<svg viewBox="0 0 496 512"><path d="m248 8c-137 0-248 111-248 248s111 248 248 248 248-111 248-248-111-248-248-248zm33.8 161.7 80-48c11.6-6.9 24 7.7 15.4 18l-33.6 40.3 33.6 40.3c8.7 10.4-3.9 24.8-15.4 18l-80-48a12.07 12.07 0 0 1 0-20.6zm-147.6-48 80 48a12 12 0 0 1 0 20.6l-80 48c-11.5 6.8-24-7.6-15.4-18l33.6-40.3-33.6-40.3c-8.6-10.3 3.8-24.9 15.4-18zm264.7 184.3a144.12 144.12 0 0 1 -142.9 126h-16a144.12 144.12 0 0 1 -142.9-126 16.06 16.06 0 0 1 14-17.88 15 15 0 0 1 1.9-.12h270a16 16 0 0 1 16 16 16.64 16.64 0 0 1 -.1 2z" opacity=".4"/><path d="m377.2 220.3-33.6-40.3 33.6-40.3c8.6-10.3-3.8-24.9-15.4-18l-80 48a12.07 12.07 0 0 0 0 20.6l80 48c11.5 6.8 24.1-7.6 15.4-18zm-163-50.6-80-48c-11.6-6.9-24 7.7-15.4 18l33.6 40.3-33.6 40.3c-8.6 10.4 3.9 24.8 15.4 18l80-48a12 12 0 0 0 0-20.6z"/></svg>