<svg viewBox="0 0 512 512"><path d="m400 288c16.73 0 32.68-2.91 48-7.29v18.58l-181.36 82.2a25.68 25.68 0 0 1 -21.29 0l-232.94-105.59c-16.55-7.5-16.55-32.5 0-40l213.87-97c13 84.42 85.72 149.1 173.72 149.1z" opacity=".4"/><path d="m499.59 364.1-58.54-26.53-161.19 73.06a57.64 57.64 0 0 1 -47.72 0l-161.14-73.06-58.59 26.53c-16.55 7.5-16.55 32.5 0 40l232.94 105.59a25.68 25.68 0 0 0 21.29 0l233-105.59c16.5-7.5 16.5-32.5-.05-40zm-195.59-220.1h64v64a16 16 0 0 0 16 16h32a16 16 0 0 0 16-16v-64h64a16 16 0 0 0 16-16v-32a16 16 0 0 0 -16-16h-64v-64a16 16 0 0 0 -16-16h-32a16 16 0 0 0 -16 16v64h-64a16 16 0 0 0 -16 16v32a16 16 0 0 0 16 16z"/></svg>