<svg viewBox="0 0 512 512"><path d="m12.41 236.3 233-105.58a25.68 25.68 0 0 1 21.29 0l232.89 105.58c16.55 7.5 16.55 32.5 0 40l-232.95 105.59a25.68 25.68 0 0 1 -21.29 0l-232.94-105.59c-16.55-7.5-16.55-32.5 0-40z" opacity=".4"/><path d="m499.59 364.1-58.09-26.33-161.63 73.23a57.64 57.64 0 0 1 -47.72 0l-161.64-73.23-58.1 26.33c-16.55 7.5-16.55 32.5 0 40l232.94 105.59a25.68 25.68 0 0 0 21.29 0l233-105.59c16.5-7.5 16.5-32.5-.05-40zm-195.59-300.1h192a16 16 0 0 0 16-16v-32a16 16 0 0 0 -16-16h-192a16 16 0 0 0 -16 16v32a16 16 0 0 0 16 16z"/></svg>