<svg viewBox="0 0 576 512"><path d="m546.2 9.72c-5.6-12.5-21.61-13-28.31-1.2-31 53.9-86.51 87.48-149.89 87.48h-80.25c-105.89 0-191.75 85.83-191.75 191.72a192.06 192.06 0 0 0 5.78 46.87q-8.16 8.1-16 16.73c-56.61 62.1-82.78 123.83-83.85 126.43a24.73 24.73 0 0 0 13.07 32.3 24.41 24.41 0 0 0 32.11-13.11c.24-.57 24.33-57 75.05-112.55a191.66 191.66 0 0 0 165.63 95.07h.21v.54a199 199 0 0 0 20.45-1.12c157.04-11.4 267.55-152.19 267.55-324.57 0-50.2-10.8-102.19-29.8-144.59zm-115.65 284.7-84.7 85.58a13.94 13.94 0 0 1 -19.8 0l-84.7-85.6a60.65 60.65 0 0 1 4.3-89.1c24-20 59.6-16.4 81.6 5.8l8.6 8.7 8.6-8.7c22-22.2 57.7-25.8 81.6-5.8a60.58 60.58 0 0 1 4.5 89.12z" opacity=".4"/><path d="m245.65 205.32c24-20 59.6-16.4 81.6 5.8l8.6 8.7 8.6-8.7c22-22.2 57.7-25.8 81.6-5.8a60.58 60.58 0 0 1 4.5 89.1l-84.7 85.58a13.94 13.94 0 0 1 -19.8 0l-84.7-85.6a60.65 60.65 0 0 1 4.3-89.08z"/></svg>