<svg viewBox="0 0 576 512"><path d="m576 154.31c0 172.38-110.51 313.17-267.53 324.57a199 199 0 0 1 -20.47 1.12v-.55h-.25a191.66 191.66 0 0 1 -165.63-95.07l.77-.85c29.58-32.23 62.28-57.84 97.18-76.12a297.55 297.55 0 0 1 139.4-34.05 24.69 24.69 0 0 0 0-49.37 345.79 345.79 0 0 0 -162.94 40.1c-33.77 17.81-65.56 41.48-94.77 70.49a192.06 192.06 0 0 1 -5.76-46.86c0-105.89 85.86-191.72 191.77-191.72h80.23c63.4 0 118.91-33.59 149.91-87.49 6.7-11.8 22.71-11.3 28.31 1.2 18.98 42.41 29.78 94.4 29.78 144.6z" opacity=".4"/><path d="m24.5 512a24.32 24.32 0 0 1 -9.5-1.95 24.73 24.73 0 0 1 -13-32.3c1.08-2.6 27.24-64.33 83.81-126.43 33.47-36.75 70.75-66.09 110.81-87.22a345.79 345.79 0 0 1 162.87-40.1 24.69 24.69 0 0 1 0 49.37 297.55 297.55 0 0 0 -139.4 34.05c-34.9 18.28-67.6 43.89-97.18 76.12-51.25 55.85-75.58 112.83-75.82 113.4a24.54 24.54 0 0 1 -22.59 15.06z"/></svg>