<svg viewBox="0 0 512 512"><path d="m504 195.56-140.83 89.59 64.83-16.58a17.33 17.33 0 0 1 20.57 21.12l-13.8 25.72 51.31 45.3a17.34 17.34 0 0 1 0 27.07l-51.31 45.3 13.8 25.72a17.33 17.33 0 0 1 -20.57 21.12l-160.19-33-15.87 37.08c-6 14-25.86 14-31.88 0l-49.14-108 141.86-141.91a24.65 24.65 0 1 0 -34.86-34.87l-141.86 141.88-108.06-49.16c-14-6-14-25.87 0-31.87l37.08-15.89-33-160.18a17.34 17.34 0 0 1 21.13-20.59l25.73 13.81 45.3-51.33a17.33 17.33 0 0 1 27.06 0l45.3 51.33 25.73-13.82a17.33 17.33 0 0 1 21.12 20.6l-16.58 64.84 89.59-140.84a17.35 17.35 0 0 1 29.5.39l22.33 37.23 88.77-9.86a17.34 17.34 0 0 1 19.15 19.14l-9.87 88.78 37.24 22.34a17.35 17.35 0 0 1 .42 29.54z" opacity=".4"/><path d="m24.67 512a24.61 24.61 0 0 1 -17.43-42l270.68-270.78a24.65 24.65 0 1 1 34.86 34.87l-270.68 270.73a24.51 24.51 0 0 1 -17.43 7.18z"/></svg>