<svg viewBox="0 0 512 512"><path d="m489 23c-23.06-23.13-54.35-28.93-75-16.87-59 34.31-181.3-53.08-321.13 86.75s-52.43 262.12-86.74 321.06c-12.06 20.71-6.26 52 16.87 75.06s54.39 28.89 75.1 16.83c58.9-34.27 181.2 53.17 321-86.7s52.46-262.13 86.77-321.07c12.06-20.71 6.26-52-16.87-75.06zm-245.12 72.52c-58.19 14.55-133.81 90.16-148.36 148.36a16 16 0 0 1 -31-7.76c17.38-69.69 101.8-154.19 171.6-171.64a16 16 0 0 1 7.76 31z" opacity=".4"/><path d="m243.88 95.48c-58.19 14.55-133.81 90.16-148.36 148.36a16 16 0 0 1 -31-7.76c17.38-69.65 101.8-154.15 171.6-171.6a16 16 0 0 1 7.76 31z"/></svg>