<svg viewBox="0 0 352 512"><path d="m68 432h84v-292.69l40-43.23 40 43.21v348.71a24 24 0 0 1 -24 24h-196a12 12 0 0 1 -8.48-20.48l56-56a12 12 0 0 1 8.48-3.52z" opacity=".4"/><path d="m345 178.76-22 22.17a23.93 23.93 0 0 1 -33.83.13l-.12-.13c-.21-.21-.42-.43-.62-.65l-96.43-104.2-96.47 104.21c-.2.22-.41.44-.62.65a23.93 23.93 0 0 1 -33.83.13.53.53 0 0 0 -.13-.13l-21.95-22.18a24.22 24.22 0 0 1 0-34l135.91-137.63a.93.93 0 0 0 .14-.14 24.1 24.1 0 0 1 33.95.01l.14.14 135.86 137.58a24.22 24.22 0 0 1 0 34z"/></svg>