<svg viewBox="0 0 512 512"><path d="m292.08 167-.41-.17zm-66.62-2a96.5 96.5 0 0 1 61.08 0l112-112a248 248 0 0 0 -285 0zm68.67 2.92.52.22zm2.49 1.12.46.21zm-110.37 152.96-.19-.21zm-5.51-6.36.21.26zm1.65 2c.12.14.23.28.35.41-.12-.15-.23-.29-.35-.43zm1.74 2 .36.4zm135.51-135.51.4.36zm-142.13 127.16-.1-.15zm126.67-138.29.34.19zm11.42 7.78.26.21zm6.36 5.51-.21-.19zm-3.96-3.55-.42-.35zm-11.6-8.43.47.29zm4.68 3.09.17.12zm-2-1.35-.43-.29zm-9.71-5.68-.1-.05zm-123.61 32.91c.1-.14.19-.28.28-.42-.04.14-.18.28-.28.42zm-1.45 2.28.29-.46zm-1.31 2.25.19-.32zm7.78-11.41.21-.26zm2-2.43c-.12.13-.23.27-.35.41.08-.14.19-.28.31-.38zm-5.33 6.89.1-.15zm-8.2 14.07c-.07.14-.13.29-.2.43.03-.14.09-.29.16-.43zm5.39 92-.29-.46zm-4.27-7.53v.05zm2.82 5.14-.19-.32zm2.61 4.21c.1.14.19.28.28.42-.08-.17-.22-.31-.32-.45zm-6.8-12.11c.07.14.13.29.2.43-.06-.14-.12-.29-.2-.43zm-2-76.7c0 .13-.1.25-.16.38.07-.13.16-.25.16-.38zm1.09-2.58c-.07.17-.15.34-.22.5.13-.16.13-.33.23-.5zm-.22 76.78c.07.16.15.33.22.5-.09-.17-.09-.34-.21-.5zm-1-2.46c.06.13.11.25.16.38-.03-.13-.12-.25-.18-.38zm172-84.19.19.32zm-11.36 112.51.36-.4zm-1.57 1.71-.19.21zm-.19-131.71.19.21zm3.51 128c.12-.13.23-.27.35-.41-.12.17-.23.31-.35.41zm2-121.63-.21-.26zm0 119.2-.21.26zm-1.65-121.22c-.12-.14-.23-.28-.35-.41.12.16.23.3.35.44zm-1.74-2-.36-.4zm6.62 8.35.1.15zm.1 110.43-.1.15zm63.9-258.13q2 1.41 4 2.85-2-1.43-4-2.85zm-54.59 241.64c.07-.17.15-.34.22-.5-.07.16-.12.33-.22.5zm1.09-2.58c.05-.13.1-.25.16-.38-.06.13-.15.25-.15.38zm-3.35 7.36v-.05zm-5.4 9.3-.28.42zm1.45-2.28-.29.46zm1.35-2.25-.19.32zm3.75-7.12c.07-.14.13-.29.2-.43-.07.14-.13.29-.2.43zm106.21-196.86q-1.41-1.75-2.85-3.46 1.39 1.71 2.85 3.46zm-3.51-4.21c-1-1.18-2-2.35-3-3.51 1 1.19 2.01 2.36 3 3.51zm6.87 8.5q-1.36-1.74-2.76-3.5 1.4 1.76 2.76 3.53zm3.36 4.44c-.91-1.23-1.83-2.44-2.75-3.65.92 1.24 1.84 2.45 2.75 3.71zm-119.48 94.34-.28-.42zm66.76-147q1.85 1.36 3.66 2.76-1.78-1.39-3.66-2.76zm12.23 9.62q-1.72-1.44-3.47-2.85 1.77 1.41 3.5 2.85zm-4.23-3.5q-1.74-1.4-3.51-2.77 1.75 1.37 3.51 2.77zm8.5 7.13q-1.74-1.53-3.51-3 1.75 1.47 3.49 3zm-75.38 148.33c-.07-.16-.15-.33-.22-.5.1.17.15.34.22.5zm-159.63-25.86-.36.4zm158.51 23.36c-.07-.14-.13-.29-.2-.43.06.14.12.29.2.43zm113.16-105.8c1 1.31 1.9 2.62 2.84 3.94-.95-1.32-1.89-2.63-2.85-3.94zm-118.76 95.54.29.46zm82.53-135.18a248.82 248.82 0 0 1 22.14 22.15 250.17 250.17 0 0 0 -22.14-22.15zm-74.78 150.4a6.15 6.15 0 0 1 -.16-.38c.01.13.1.25.16.38zm113.85 178.17a248 248 0 0 0 0-285l-112 111.97a96.5 96.5 0 0 1 0 61.08zm-238.67-53.34-.41-.17zm-2.46-1-.52-.22zm-5.3-2.49.1.05zm109.43-15.91-.21.19zm-12.86 10.25-.43.29zm2-1.35.17-.12zm4.48-3.34.26-.21zm4-3.39.4-.36zm-1.6 1.39-.42.35zm-102.64 13.69-.46-.21zm-19-11.74-.26-.21zm-4-3.39-.4-.36zm-6.3-137.62.19-.21zm4 135.5.21.19zm15.52 11.94-.47-.29zm2.26 1.35-.34-.19zm78.72 8a96.5 96.5 0 0 1 -61.08 0l-111.99 111.96a248 248 0 0 0 285 0zm-83.72-11.04.43.29zm-2-1.35-.17-.12zm215.14 110.84q1.77-1.49 3.51-3-1.77 1.51-3.51 3zm43-47c-.93 1.33-1.88 2.64-2.84 3.95.95-1.31 1.9-2.62 2.84-3.95zm-47.21 50.51q1.74-1.41 3.47-2.85-1.72 1.39-3.47 2.85zm-4.32 3.42q1.77-1.38 3.51-2.77-1.74 1.35-3.51 2.72zm48.25-49.42q-1.37 1.85-2.76 3.66 1.4-1.78 2.76-3.66zm-10.23 13c-1 1.18-2 2.35-3 3.51 1-1.19 2.01-2.36 3-3.51zm3.46-4.18q-1.41 1.74-2.85 3.47 1.44-1.75 2.9-3.5zm.65-.81q1.39-1.74 2.77-3.51-1.37 1.74-2.77 3.5zm-150.17-69.38a.31.31 0 0 1 -.1.05.31.31 0 0 0 .1-.05zm-5.3 2.49.52-.22zm12.31-6.43.47-.29zm-9.82 5.31.46-.21zm7.56-4 .34-.19zm137.9 80.89a248.94 248.94 0 0 1 -22.15 22.15 248.94 248.94 0 0 0 22.15-22.11zm-39.63 36.21q-2 1.44-4 2.85 2.04-1.37 4-2.81zm-110.37-111.1-.41.17zm110.92 110.72q1.85-1.37 3.66-2.76-1.78 1.4-3.66 2.76zm-209-126.46.42.35zm-124.07-237.19a248.82 248.82 0 0 1 22.14-22.15 250.17 250.17 0 0 0 -22.14 22.15zm30.28-29q-1.74 1.41-3.47 2.85 1.73-1.46 3.47-2.87zm90 123-.21.19zm4.13-3.67-.42.35zm-84.79-126.54q2-1.44 4-2.85-2.03 1.41-4 2.85zm86.59 125.14.26-.21zm-91.61-121.37q-1.77 1.37-3.53 2.77 1.76-1.4 3.53-2.77zm.78-.59q1.81-1.4 3.66-2.76-1.84 1.37-3.66 2.72zm87.05 125.09-.4.36zm22.56-14.92.46-.21zm-2.25 1.11-.1.05zm4.68-2.22.52-.22zm2.57-1.08.41-.17zm-17.06 9 .43-.29zm5-3.09-.34.19zm-7.11 4.56.17-.12zm4.38-2.92.47-.29zm-108.39 271.53q1.73 1.44 3.47 2.85-1.74-1.41-3.47-2.85zm-33.69-34.31q1.41 1.74 2.85 3.47-1.44-1.72-2.85-3.47zm3.46 4.21c1 1.18 2 2.35 3 3.51-1-1.19-2.01-2.36-3-3.51zm-10.23-13q1.36 1.85 2.76 3.66-1.39-1.78-2.76-3.66zm3.35 4.44q1.37 1.8 2.77 3.56-1.4-1.76-2.77-3.53zm32.89 35q1.74 1.53 3.51 3-1.77-1.44-3.51-2.97zm12.79 10.56q1.81 1.4 3.66 2.76-1.84-1.4-3.66-2.76zm8.2 6q-2-1.41-4-2.85 2.01 1.43 4 2.85zm-12.51-9.4q1.74 1.39 3.51 2.77-1.75-1.37-3.51-2.77zm-45.15-47.16c-1-1.31-1.9-2.62-2.84-3.95.99 1.33 1.88 2.64 2.84 3.95zm10.05-305.69q-1.44 1.71-2.85 3.46 1.41-1.75 2.85-3.46zm-9.61 12.25c.9-1.23 1.82-2.45 2.74-3.65-.92 1.17-1.84 2.39-2.74 3.65zm6.11-8q-1.4 1.74-2.76 3.51 1.36-1.75 2.76-3.51zm7.12-8.5c-1 1.16-2 2.33-3 3.51.98-1.16 1.99-2.33 3-3.49zm23-23q1.74-1.53 3.51-3-1.77 1.5-3.51 3.03zm-.45 372.55a248.94 248.94 0 0 1 -22.15-22.15 248.94 248.94 0 0 0 22.15 22.18zm72.93-155.51a96.5 96.5 0 0 1 0-61.08l-112-111.95a248 248 0 0 0 0 285zm-109.11-177q-1.44 2-2.84 3.93 1.36-1.95 2.8-3.9z" opacity=".4"/><path d="m347 225.46 112-111.95a249.4 249.4 0 0 0 -60.51-60.51l-111.95 112a96.26 96.26 0 0 1 60.46 60.46zm-182 61.08-112 112a249.4 249.4 0 0 0 60.5 60.5l111.96-112.04a96.26 96.26 0 0 1 -60.46-60.46zm-112-173 112 112a96.26 96.26 0 0 1 60.5-60.5l-111.99-112.04a249.4 249.4 0 0 0 -60.51 60.51zm233.54 233.46 112 112a249.4 249.4 0 0 0 60.5-60.5l-112.04-111.96a96.26 96.26 0 0 1 -60.46 60.46z"/></svg>