<svg viewBox="0 0 352 512"><path d="m175.45 0c-102.01.31-175.45 83-175.45 176a175 175 0 0 0 43.56 115.78c16.52 18.85 42.36 58.22 52.21 91.45 0 .26.07.52.11.78h160.24c0-.26.07-.51.11-.78 9.85-33.22 35.69-72.6 52.21-91.45a175.9 175.9 0 0 0 -132.99-291.78zm.55 320a32 32 0 1 1 32-32 32 32 0 0 1 -32 32zm38.24-238.41-12.8 128a16 16 0 0 1 -15.92 14.41h-19a16 16 0 0 1 -15.92-14.41l-12.8-128a16 16 0 0 1 15.88-17.59h44.64a16 16 0 0 1 15.92 17.59z" opacity=".4"/><path d="m176 256a32 32 0 1 0 32 32 32 32 0 0 0 -32-32zm-25.44-46.41a16 16 0 0 0 15.92 14.41h19a16 16 0 0 0 15.92-14.41l12.8-128a16 16 0 0 0 -15.88-17.59h-44.64a16 16 0 0 0 -15.92 17.59zm-54.56 206.41v38.35a32 32 0 0 0 5.42 17.65l17.09 25.69a32 32 0 0 0 26.64 14.31h61.71a32 32 0 0 0 26.64-14.28l17.09-25.72a32 32 0 0 0 5.41-17.65v-38.35z"/></svg>