<svg viewBox="0 0 352 512"><path d="m175.45 0c-102.01.31-175.45 83-175.45 176a175 175 0 0 0 43.56 115.78c16.52 18.85 42.36 58.22 52.21 91.45 0 .26.07.52.11.78h160.24c0-.26.07-.51.11-.78 9.85-33.22 35.69-72.6 52.21-91.45a175.9 175.9 0 0 0 -132.99-291.78zm.55 96a80.09 80.09 0 0 0 -80 80 16 16 0 0 1 -32 0 112.12 112.12 0 0 1 112-112 16 16 0 0 1 0 32z" opacity=".4"/><path d="m96.06 454.35-.06-38.35h160v38.35a32 32 0 0 1 -5.41 17.65l-17.09 25.73a32 32 0 0 1 -26.64 14.27h-61.71a32 32 0 0 1 -26.64-14.28l-17.09-25.72a32 32 0 0 1 -5.36-17.65z"/></svg>