<svg viewBox="0 0 640 512"><path d="m163.75 94.79c28.41-55.08 85.25-94.59 155.7-94.79a175.9 175.9 0 0 1 133 291.78c-3.86 4.41-8.24 9.94-12.79 16.25l-197-152.29a80.16 80.16 0 0 1 77.34-59.74 16 16 0 1 0 0-32 112.16 112.16 0 0 0 -104.22 71zm0 161.77a176 176 0 0 0 23.83 35.22c16.52 18.85 42.36 58.23 52.21 91.45 0 .26.07.52.11.78h88.74zm76.25 159.44v38.35a32 32 0 0 0 5.41 17.65l17.09 25.69a32 32 0 0 0 26.64 14.31h61.71a32 32 0 0 0 26.64-14.28l17.09-25.72a32 32 0 0 0 5.36-17.69v-15.21l-29.94-23.1z" opacity=".4"/><path d="m3.37 31.45 19.63-25.27a16 16 0 0 1 22.47-2.81l588.35 454.73a16 16 0 0 1 2.82 22.45l-19.64 25.27a16 16 0 0 1 -22.46 2.81l-588.36-454.73a16 16 0 0 1 -2.81-22.45z"/></svg>