<svg viewBox="0 0 512 512"><path d="m496 288h-192a16 16 0 0 0 -16 16v32a16 16 0 0 0 16 16h192a16 16 0 0 0 16-16v-32a16 16 0 0 0 -16-16zm0 128h-192a16 16 0 0 0 -16 16v32a16 16 0 0 0 16 16h192a16 16 0 0 0 16-16v-32a16 16 0 0 0 -16-16zm0-256h-192a16 16 0 0 0 -16 16v32a16 16 0 0 0 16 16h192a16 16 0 0 0 16-16v-32a16 16 0 0 0 -16-16zm0-128h-192a16 16 0 0 0 -16 16v32a16 16 0 0 0 16 16h192a16 16 0 0 0 16-16v-32a16 16 0 0 0 -16-16z" opacity=".4"/><path d="m208 288h-192a16 16 0 0 0 -16 16v32a16 16 0 0 0 16 16h192a16 16 0 0 0 16-16v-32a16 16 0 0 0 -16-16zm0 128h-192a16 16 0 0 0 -16 16v32a16 16 0 0 0 16 16h192a16 16 0 0 0 16-16v-32a16 16 0 0 0 -16-16zm0-384h-192a16 16 0 0 0 -16 16v32a16 16 0 0 0 16 16h192a16 16 0 0 0 16-16v-32a16 16 0 0 0 -16-16zm0 128h-192a16 16 0 0 0 -16 16v32a16 16 0 0 0 16 16h192a16 16 0 0 0 16-16v-32a16 16 0 0 0 -16-16z"/></svg>