<svg viewBox="0 0 640 512"><path d="m626.29 224h-356.58c-7.57 0-13.71 7.16-13.71 16v32c0 8.84 6.14 16 13.71 16h356.58c7.57 0 13.71-7.16 13.71-16v-32c0-8.84-6.14-16-13.71-16zm0 160h-356.58c-7.57 0-13.71 7.16-13.71 16v32c0 8.84 6.14 16 13.71 16h356.58c7.57 0 13.71-7.16 13.71-16v-32c0-8.84-6.14-16-13.71-16zm0-320h-356.58c-7.57 0-13.71 7.16-13.71 16v32c0 8.84 6.14 16 13.71 16h356.58c7.57 0 13.71-7.16 13.71-16v-32c0-8.84-6.14-16-13.71-16z" opacity=".4"/><path d="m176 144c14.31 0 21.33-17.31 11.31-27.31l-80-80a16 16 0 0 0 -22.62 0l-80 80c-9.33 9.31-4.33 27.31 11.31 27.31h48v224h-48c-14.29 0-21.31 17.31-11.29 27.31l80 80a16 16 0 0 0 22.62 0l80-80c9.31-9.31 4.31-27.31-11.33-27.31h-48v-224z"/></svg>