<svg viewBox="0 0 512 512"><path d="m44.45 252.59 37.11-37.1c9.84-9.84 26.78-3.3 27.29 10.6a184.45 184.45 0 0 0 9.69 52.72 16.08 16.08 0 0 1 -3.78 16.61l-13.09 13.09c-28 28-28.9 73.66-1.15 102a72.07 72.07 0 0 0 102.32.51l67.16-67.23a72 72 0 0 0 0-101.79 75.64 75.64 0 0 0 -10.34-8.57 16 16 0 0 1 -6.95-12.6 39.86 39.86 0 0 1 11.74-29.83l21.06-21a16.06 16.06 0 0 1 20.58-1.74 152.05 152.05 0 0 1 20.91 231.74l-.36.37-67.2 67.2c-59.27 59.27-155.7 59.26-215 0s-59.26-155.72.01-214.98z" opacity=".4"/><path d="m410.33 203.49c28-28 28.9-73.66 1.15-102a72.07 72.07 0 0 0 -102.32-.49l-67.16 67.21a72 72 0 0 0 0 101.79 75.64 75.64 0 0 0 10.34 8.57 16 16 0 0 1 6.94 12.6 39.81 39.81 0 0 1 -11.73 29.83l-21.06 21.05a16.07 16.07 0 0 1 -20.58 1.74 152.05 152.05 0 0 1 -20.91-231.79l.36-.37 67.2-67.2c59.27-59.27 155.7-59.26 215 0s59.27 155.7 0 215l-37.11 37.1c-9.84 9.84-26.78 3.3-27.29-10.6a184.45 184.45 0 0 0 -9.69-52.72 16.08 16.08 0 0 1 3.78-16.61z"/></svg>