<svg viewBox="0 0 640 512"><path d="m639.88 224a63 63 0 0 1 -4.88 28.05c-28 66.46-112.6 227.95-274.29 227.95h-81.43c-161.69 0-246.28-161.49-274.28-227.94a62.88 62.88 0 0 1 -4.88-28.06h63.88s85.34 96 256 96 256-96 256-96z" opacity=".4"/><path d="m.12 224a61.44 61.44 0 0 1 8.74-28.32c51.67-85.68 164.83-163.68 213.42-163.68 0 0 32.57 0 97.72 50 65.15-50 97.72-50 97.72-50 48.59 0 161.75 78 213.42 163.68a61.6 61.6 0 0 1 8.74 28.32h-63.88s-64-32-160-32l-35.38 8.84a252.29 252.29 0 0 1 -60.62 7.16 252.29 252.29 0 0 1 -60.62-7.16l-35.38-8.84c-96 0-160 32-160 32z"/></svg>