<svg viewBox="0 0 384 512"><path d="m0 232.82v41a11.71 11.71 0 0 0 .29 2.63 12 12 0 0 0 14.31 9.11l49.4-11v-65.56l-54.6 12.11a12 12 0 0 0 -9.4 11.71zm0-96v41a11.71 11.71 0 0 0 .29 2.63 12 12 0 0 0 14.31 9.11l49.4-11v-65.56l-54.6 12.11a12 12 0 0 0 -9.4 11.71zm287.71-61.24a12 12 0 0 0 -14.31-9.12l-129.4 28.76v65.56l134.6-29.88a12 12 0 0 0 9.4-11.72v-41a11.91 11.91 0 0 0 -.29-2.6zm-14.31 86.88-129.4 28.76v65.56l134.6-29.89a12 12 0 0 0 9.4-11.71v-41a12 12 0 0 0 -14.6-11.72z" opacity=".4"/><path d="m64 468v-424a12 12 0 0 1 12-12h56a12 12 0 0 1 12 12v372c86.18 0 168-48 168-148.75 0-6.34 5.64-11.25 12-11.25h48a12 12 0 0 1 12 12v.42c-5.16 133.75-94.33 211.58-228.42 211.58h-79.58a12 12 0 0 1 -12-12z"/></svg>