<svg viewBox="0 0 512 512"><path d="m272 192h-256a16 16 0 0 0 -16 16v32a16 16 0 0 0 16 16h256a16 16 0 0 0 16-16v-32a16 16 0 0 0 -16-16zm0-128h-256a16 16 0 0 0 -16 16v32a16 16 0 0 0 16 16h256a16 16 0 0 0 16-16v-32a16 16 0 0 0 -16-16zm-128 256h-128a16 16 0 0 0 -16 16v32a16 16 0 0 0 16 16h128a16 16 0 0 0 16-16v-32a16 16 0 0 0 -16-16z" opacity=".4"/><path d="m192 432c0 44.18 50.14 80 112 80s112-35.82 112-80v-283.85l73-21.39a32 32 0 0 0 23-30.71v-64.05a32 32 0 0 0 -41.06-30.67l-96.53 28.51a32 32 0 0 0 -22.41 30.5v299.66a148.76 148.76 0 0 0 -48-8c-61.86 0-112 35.82-112 80z"/></svg>