<svg viewBox="0 0 512 512"><path d="m496 384h-320a16 16 0 0 0 -16 16v32a16 16 0 0 0 16 16h320a16 16 0 0 0 16-16v-32a16 16 0 0 0 -16-16zm0-320h-320a16 16 0 0 0 -16 16v32a16 16 0 0 0 16 16h320a16 16 0 0 0 16-16v-32a16 16 0 0 0 -16-16zm0 160h-320a16 16 0 0 0 -16 16v32a16 16 0 0 0 16 16h320a16 16 0 0 0 16-16v-32a16 16 0 0 0 -16-16z" opacity=".4"/><path d="m80 368h-64a16 16 0 0 0 -16 16v64a16 16 0 0 0 16 16h64a16 16 0 0 0 16-16v-64a16 16 0 0 0 -16-16zm0-320h-64a16 16 0 0 0 -16 16v64a16 16 0 0 0 16 16h64a16 16 0 0 0 16-16v-64a16 16 0 0 0 -16-16zm0 160h-64a16 16 0 0 0 -16 16v64a16 16 0 0 0 16 16h64a16 16 0 0 0 16-16v-64a16 16 0 0 0 -16-16z"/></svg>