<svg viewBox="0 0 512 512"><path d="m464 32h-416a48 48 0 0 0 -48 48v352a48 48 0 0 0 48 48h416a48 48 0 0 0 48-48v-352a48 48 0 0 0 -48-48zm-336 360a40 40 0 1 1 40-40 40 40 0 0 1 -40 40zm0-96a40 40 0 1 1 40-40 40 40 0 0 1 -40 40zm0-96a40 40 0 1 1 40-40 40 40 0 0 1 -40 40zm288 168a12 12 0 0 1 -12 12h-200a12 12 0 0 1 -12-12v-32a12 12 0 0 1 12-12h200a12 12 0 0 1 12 12zm0-96a12 12 0 0 1 -12 12h-200a12 12 0 0 1 -12-12v-32a12 12 0 0 1 12-12h200a12 12 0 0 1 12 12zm0-96a12 12 0 0 1 -12 12h-200a12 12 0 0 1 -12-12v-32a12 12 0 0 1 12-12h200a12 12 0 0 1 12 12z" opacity=".4"/><path d="m128 200a40 40 0 1 0 -40-40 40 40 0 0 0 40 40zm0 16a40 40 0 1 0 40 40 40 40 0 0 0 -40-40zm0 96a40 40 0 1 0 40 40 40 40 0 0 0 -40-40z"/></svg>