<svg viewBox="0 0 640 512"><path d="m189.36 115.58a191.34 191.34 0 0 1 98.64-48.7v-50.88a16 16 0 0 1 16-16h32a16 16 0 0 1 16 16v50.88a191.86 191.86 0 0 1 157.12 157.12h50.88a16 16 0 0 1 16 16v32a16 16 0 0 1 -16 16h-50.88a190.53 190.53 0 0 1 -20.3 59l-51.51-39.81a128 128 0 0 0 -196.44-151.79zm130.64 268.42a127.93 127.93 0 0 1 -125.55-103.7l-72.84-56.3h-41.61a16 16 0 0 0 -16 16v32a16 16 0 0 0 16 16h50.88a191.86 191.86 0 0 0 157.12 157.12v50.88a16 16 0 0 0 16 16h32a16 16 0 0 0 16-16v-50.88c14.07-2.37 27.35-6.75 40.19-12l-64.57-49.9c-2.57.16-5.01.78-7.62.78zm0-216a87.6 87.6 0 0 0 -46 13l130.2 100.63a88 88 0 0 0 -84.2-113.63z" opacity=".4"/><path d="m3.37 32.45 19.63-25.27a16 16 0 0 1 22.47-2.81l588.35 454.73a16 16 0 0 1 2.82 22.45l-19.64 25.27a16 16 0 0 1 -22.46 2.81l-588.36-454.73a16 16 0 0 1 -2.81-22.45z"/></svg>