<svg viewBox="0 0 512 512"><path d="m344 256a88 88 0 1 1 -88-88 88 88 0 0 1 88 88z" opacity=".4"/><path d="m496 224h-50.88a191.86 191.86 0 0 0 -157.12-157.12v-50.88a16 16 0 0 0 -16-16h-32a16 16 0 0 0 -16 16v50.88a191.86 191.86 0 0 0 -157.12 157.12h-50.88a16 16 0 0 0 -16 16v32a16 16 0 0 0 16 16h50.88a191.86 191.86 0 0 0 157.12 157.12v50.88a16 16 0 0 0 16 16h32a16 16 0 0 0 16-16v-50.88a191.86 191.86 0 0 0 157.12-157.12h50.88a16 16 0 0 0 16-16v-32a16 16 0 0 0 -16-16zm-240 160a128 128 0 1 1 128-128 128 128 0 0 1 -128 128z"/></svg>