<svg viewBox="0 0 576 512"><path d="m320 192a32 32 0 0 0 60.57 14.41 105 105 0 0 1 -8.57 112.59l-115.81-163.09a105.27 105.27 0 0 1 81.4 7.52 32 32 0 0 0 -17.59 28.57zm249.34 39.63c-56.34-95.63-161.53-159.63-281.34-159.63a329.94 329.94 0 0 0 -83.75 10.74l33.31 46.92a135.86 135.86 0 0 1 50.44-9.66 135.93 135.93 0 0 1 136 136 135.47 135.47 0 0 1 -33.38 89.27l43.16 60.79a324.33 324.33 0 0 0 135.56-125.69 47.88 47.88 0 0 0 6.66-24.37 47.88 47.88 0 0 0 -6.66-24.37zm-398.9-85.94-28.19-39.69a324.78 324.78 0 0 0 -135.57 125.61 48 48 0 0 0 0 48.74 324.92 324.92 0 0 0 172.83 141.4l-124.19-177.42a272.12 272.12 0 0 1 28.29-35.91l119.39 170.58 40.63 58a329.89 329.89 0 0 0 78.94 1.17l-190-271.4a277.74 277.74 0 0 1 37.87-21.08z" opacity=".4"/><path d="m469.76 498.48-13.11 9.18a24 24 0 0 1 -33.43-5.9l-322.88-454.82a24 24 0 0 1 5.9-33.42l13.11-9.18a24 24 0 0 1 33.43 5.9l322.88 454.82a24 24 0 0 1 -5.9 33.42z"/></svg>