<svg viewBox="0 0 448 512"><path d="m372 160h-68c-37.9 0-69.3 28.3-77.5 66.2-.9-.7-4.2-.7-5.1 0-8.1-37.9-39.4-66.2-77.4-66.2h-68a12 12 0 0 0 -12 12v30.7c0 47.1 35.8 85.3 80 85.3h22.4a177.85 177.85 0 0 0 -15.8 32.9 63.87 63.87 0 0 0 -54.6 63.1c0 35.5 29.4 64 64.9 64h126.1c35.5 0 64.9-28.5 64.9-64a63.87 63.87 0 0 0 -54.6-63.1 174.87 174.87 0 0 0 -15.8-32.9h22.5c44.2 0 80-38.2 80-85.3v-30.7a12 12 0 0 0 -12-12zm-148 106.7c20.2 19.9 31.9 38.5 38.7 53.3h-77.4c6.8-14.8 18.5-33.4 38.7-53.3zm-80-10.7c-26.5 0-48-23.9-48-53.3v-10.7h48c26.5 0 48 23.9 48 53.3v7.47a3.19 3.19 0 0 1 -.85 2.17 3.21 3.21 0 0 1 -2.36 1zm144 96a32 32 0 0 1 0 64h-128a32 32 0 0 1 0-64zm64-149.3c0 29.4-21.5 53.3-48 53.3h-44.77a3.21 3.21 0 0 1 -2.36-1 3.19 3.19 0 0 1 -.85-2.17v-7.53c0-29.4 21.5-53.3 48-53.3h48z" opacity=".4"/><path d="m224 0c-123.7 0-224 100.3-224 224v128a160 160 0 0 0 160 160h128a160 160 0 0 0 160-160v-128c0-123.7-100.3-224-224-224zm160 202.7c0 47.1-35.8 85.3-80 85.3h-22.5a174.87 174.87 0 0 1 15.8 32.9 63.87 63.87 0 0 1 54.6 63.1c0 35.5-29.4 64-64.9 64h-126.1c-35.5 0-64.9-28.5-64.9-64a63.87 63.87 0 0 1 54.6-63.1 177.85 177.85 0 0 1 15.8-32.9h-22.4c-44.2 0-80-38.2-80-85.3v-30.7a12 12 0 0 1 12-12h68c38 0 69.3 28.3 77.4 66.2.9-.7 4.2-.7 5.1 0 8.2-37.9 39.6-66.2 77.5-66.2h68a12 12 0 0 1 12 12z"/></svg>