<svg viewBox="0 0 640 512"><path d="m480 48a48 48 0 0 0 -48-48h-96a48 48 0 0 0 -48 48v272h192zm-48 48h-96v-48h96zm-240 32v160a32 32 0 0 0 32 32h32v-224h-32a32 32 0 0 0 -32 32zm352-32h-32v224h32a32 32 0 0 0 32-32v-160a32 32 0 0 0 -32-32zm-93.26 352a48 48 0 1 0 90.52 0zm-288 0a48 48 0 1 0 90.52 0z" opacity=".4"/><path d="m624 384h-496v-368a16 16 0 0 0 -16-16h-96a16 16 0 0 0 -16 16v32a16 16 0 0 0 16 16h48v368a16 16 0 0 0 16 16h544a16 16 0 0 0 16-16v-32a16 16 0 0 0 -16-16zm-336-288h-32v224h32zm224 0h-32v224h32z"/></svg>