<svg viewBox="0 0 640 512"><path d="m328 0h-16a16 16 0 0 0 -16 16v134.68a46.45 46.45 0 0 1 48 0v-134.68a16 16 0 0 0 -16-16zm-142 96c-44 0-58 28.5-80.12 63.13a819.52 819.52 0 0 0 -102 231 113.16 113.16 0 0 0 -3.88 29.62c0 61.25 62.5 105.51 125.25 88.63l59.5-15.87a98.51 98.51 0 0 0 52.5-34.75 47.9 47.9 0 0 1 -41.71-81.18l8.58-8.58h-12.12a48 48 0 0 1 0-96h12.12l-8.58-8.57a48 48 0 0 1 60.46-74v-27.68c0-36.37-31.37-65.75-70-65.75zm450.13 294.13a819.8 819.8 0 0 0 -102-231c-22.13-34.63-36.13-63.13-80.13-63.13-38.62 0-70 29.38-70 65.75v27.72a48 48 0 0 1 60.46 74l-8.58 8.53h12.12a48 48 0 0 1 0 96h-12.12l8.58 8.58a47.7 47.7 0 0 1 -41.71 81.18 98.51 98.51 0 0 0 52.5 34.75l59.5 15.87c62.75 16.88 125.25-27.38 125.25-88.63a113.57 113.57 0 0 0 -3.87-29.62z" opacity=".4"/><path d="m448 304h-12.12c-28.51 0-42.79-34.47-22.63-54.62l8.58-8.58a16 16 0 0 0 -22.63-22.63l-8.57 8.58c-20.16 20.16-54.63 5.88-54.63-22.63v-12.12a16 16 0 0 0 -32 0v12.12c0 28.51-34.47 42.79-54.63 22.63l-8.57-8.58a16 16 0 0 0 -22.63 22.63l8.58 8.58c20.16 20.15 5.88 54.62-22.63 54.62h-12.12a16 16 0 0 0 0 32h12.12c28.51 0 42.79 34.47 22.63 54.63l-8.58 8.58a16 16 0 1 0 22.63 22.62l8.57-8.57c20.16-20.16 54.63-5.88 54.63 22.62v12.12a16 16 0 0 0 32 0v-12.12c0-28.5 34.47-42.78 54.63-22.62l8.57 8.57a16 16 0 1 0 22.63-22.62l-8.58-8.58c-20.16-20.16-5.88-54.63 22.63-54.63h12.12a16 16 0 0 0 0-32zm-160 0a16 16 0 1 1 16-16 16 16 0 0 1 -16 16zm64 64a16 16 0 1 1 16-16 16 16 0 0 1 -16 16z"/></svg>