<svg viewBox="0 0 640 512"><path d="m170.16 373.57 85.84-57.23v87.49c0 41.15-29.08 77.32-71.26 88.62l-59.5 15.95c-62.76 16.82-125.24-27.4-125.24-88.62a114.68 114.68 0 0 1 3.89-29.63 821.31 821.31 0 0 1 102-231c22.11-34.59 36.11-63.15 80.11-63.15 38.64 0 70 29.42 70 65.71v60.11l-128 85.33a16 16 0 0 0 -4.44 22.19l8.88 13.31a16 16 0 0 0 17.77 6.5 8 8 0 0 0 0 8.89l8.88 13.31a8 8 0 0 0 11.07 2.22zm466 16.58a821.31 821.31 0 0 0 -102-231c-22.16-34.59-36.16-63.15-80.11-63.15-38.69 0-70.05 29.42-70.05 65.71v60.11l128 85.33a16 16 0 0 1 4.44 22.19l-8.88 13.31a16 16 0 0 1 -17.78 6.49 8 8 0 0 1 0 8.89l-8.88 13.31a8 8 0 0 1 -11.08 2.22l-85.82-57.22v87.49c0 41.15 29.08 77.31 71.26 88.62l59.5 15.95c62.76 16.82 125.24-27.4 125.24-88.62a114.68 114.68 0 0 0 -3.89-29.63z" opacity=".4"/><path d="m516.45 329.34-8.88 13.31a16 16 0 0 1 -22.19 4.44l-165.38-110.25-165.37 110.25a16 16 0 0 1 -22.19-4.44l-8.88-13.31a16 16 0 0 1 4.44-22.19l160.88-107.25a16 16 0 0 0 7.12-13.31v-170.59a16 16 0 0 1 16-16h16a16 16 0 0 1 16 16v170.59a16 16 0 0 0 7.12 13.31l160.88 107.25a16 16 0 0 1 4.45 22.19z"/></svg>