<svg viewBox="0 0 512 512"><path d="m80 0-26.66 53.33-53.34 26.67 53.34 26.67 26.66 53.33 26.66-53.33 53.34-26.67-53.34-26.67zm192 48-32-16-16-32-16 32-32 16 32 16 16 32 16-32zm186.66 293.33-26.66-53.33-26.66 53.33-53.34 26.67 53.34 26.67 26.66 53.33 26.66-53.33 53.34-26.67zm-59.66-98.26 86.6-86.55 17-17a32 32 0 0 0 0-45.26l-17-17-50.86-50.86-17-17a32 32 0 0 0 -45.25 0l-17 17-86.49 86.54-39.62 39.6 39.61 39.61 50.91 50.91 39.59 39.58zm-90.5-90.52 86.64-86.55 50.91 50.91-86.6 86.55z" opacity=".4"/><path d="m359.44 282.64-220 220a32 32 0 0 1 -45.25 0l-84.81-84.87a32 32 0 0 1 0-45.25l220-220z"/></svg>