<svg viewBox="0 0 576 512"><path d="m432 64h-288a144 144 0 0 1 144 144v208a32 32 0 0 1 -32 32h288a32 32 0 0 0 32-32v-208a144 144 0 0 0 -144-144zm80 208a16 16 0 0 1 -16 16h-32a16 16 0 0 1 -16-16v-48h-56a8 8 0 0 1 -8-8v-16a8 8 0 0 1 8-8h104a16 16 0 0 1 16 16z" opacity=".4"/><path d="m143.93 64c-79.73 0-143.93 65.65-143.93 145.38v206.62a32 32 0 0 0 32 32h224a32 32 0 0 0 32-32v-208a144 144 0 0 0 -144.07-144zm80.07 176a16 16 0 0 1 -16 16h-128a16 16 0 0 1 -16-16v-32a16 16 0 0 1 16-16h128a16 16 0 0 1 16 16zm272-48h-104a8 8 0 0 0 -8 8v16a8 8 0 0 0 8 8h56v48a16 16 0 0 0 16 16h32a16 16 0 0 0 16-16v-64a16 16 0 0 0 -16-16z"/></svg>