<svg viewBox="0 0 576 512"><path d="m288 359.67a47.78 47.78 0 0 1 -36.51-17c-19.66-23.16-40.57-49.58-59.49-76.67v182l192 64v-246c-18.92 27.09-39.82 53.52-59.49 76.72a47.8 47.8 0 0 1 -36.51 16.95zm-267.88-143.67a32 32 0 0 0 -20.12 29.66v250.34a16 16 0 0 0 21.94 14.86l138.06-62.86v-233.08a302.84 302.84 0 0 1 -21.25-46.42zm533.94-54.79-138.06 62.79v288l139.88-55.95a32 32 0 0 0 20.12-29.71v-250.34a16 16 0 0 0 -21.94-14.84z" opacity=".4"/><path d="m414 126c0 56.26-82.35 158.8-113.9 196a15.77 15.77 0 0 1 -24.2 0c-31.55-37.2-113.9-139.74-113.9-196a126 126 0 0 1 252 0z"/></svg>