<svg viewBox="0 0 384 512"><path d="m192 0c-105.6 0-192 86.4-192 192 0 76.8 25.6 99.2 172.8 310.4a24 24 0 0 0 38.4 0c147.2-211.2 172.8-233.6 172.8-310.4 0-105.6-86.4-192-192-192zm0 336a32 32 0 1 1 32-32 32 32 0 0 1 -32 32zm38.24-238.41-12.8 128a16 16 0 0 1 -15.92 14.41h-19a16 16 0 0 1 -15.92-14.41l-12.8-128a16 16 0 0 1 15.88-17.59h44.64a16 16 0 0 1 15.92 17.59z" opacity=".4"/><path d="m192 272a32 32 0 1 0 32 32 32 32 0 0 0 -32-32zm22.32-192h-44.64a16 16 0 0 0 -15.92 17.59l12.8 128a16 16 0 0 0 15.92 14.41h19a16 16 0 0 0 15.92-14.41l12.8-128a16 16 0 0 0 -15.88-17.59z"/></svg>