<svg viewBox="0 0 512 512"><path d="m224 496a16 16 0 0 0 16 16h32a15.88 15.88 0 0 0 5.71-1.07l.52-.19.1-.05a16.08 16.08 0 0 0 5-3.38 15.91 15.91 0 0 0 4.67-11.31v-112h-64zm48-496h-32a16 16 0 0 0 -16 16v16h64v-16a16 16 0 0 0 -16-16zm-48 224h64v-32h-64z" opacity=".4"/><path d="m456 224h-385.37a32 32 0 0 0 -22.63 9.37l-43.31 43.32a16 16 0 0 0 0 22.63l43.31 43.31a32 32 0 0 0 22.63 9.37h385.37a24 24 0 0 0 24-24v-80a24 24 0 0 0 -24-24zm51.31-139.31-43.31-43.32a32 32 0 0 0 -22.63-9.37h-385.37a24 24 0 0 0 -24 24v80a24 24 0 0 0 24 24h385.37a32 32 0 0 0 22.63-9.37l43.31-43.31a16 16 0 0 0 0-22.63z"/></svg>