<svg viewBox="0 0 384 512"><path d="m192 0c-105.6 0-192 86.4-192 192 0 76.8 25.6 99.2 172.8 310.4a24 24 0 0 0 38.4 0c147.2-211.2 172.8-233.6 172.8-310.4 0-105.6-86.4-192-192-192zm114.08 163.83-131 130a11 11 0 0 1 -15.55-.06l-75.76-76.34a11 11 0 0 1 .06-15.56l26-25.82a11 11 0 0 1 15.56.06l42.15 42.49 97.2-96.42a11 11 0 0 1 15.55.06l25.82 26a11 11 0 0 1 -.03 15.59z" opacity=".4"/><path d="m306.08 163.83-131 130a11 11 0 0 1 -15.55-.06l-75.76-76.34a11 11 0 0 1 .06-15.56l26-25.82a11 11 0 0 1 15.56.06l42.15 42.49 97.2-96.42a11 11 0 0 1 15.55.06l25.82 26a11 11 0 0 1 -.03 15.59z"/></svg>