<svg viewBox="0 0 384 512"><path d="m192 0c-105.6 0-192 86.4-192 192 0 76.8 25.6 99.2 172.8 310.4a24 24 0 0 0 38.4 0c147.2-211.2 172.8-233.6 172.8-310.4 0-105.6-86.4-192-192-192zm0 352a32 32 0 1 1 32-32 32 32 0 0 1 -32 32zm26.67-113.27v1.43a15.84 15.84 0 0 1 -15.84 15.84h-16.32a15.84 15.84 0 0 1 -15.84-15.84v-16.16a24.09 24.09 0 0 1 13.33-21.5c30.61-15.31 50.67-26.54 50.67-42.5 0-19.39-14-40-40-40a40.06 40.06 0 0 0 -38.2 28.12c-2.15 6.88-8.11 11.88-15.33 11.88h-16.84a15.92 15.92 0 0 1 -15.44-19.55 88.14 88.14 0 0 1 85.81-68.45c55.08 0 88 44.75 88 88 0 41-32.75 62.47-64 78.73z" opacity=".4"/><path d="m192 288a32 32 0 1 0 32 32 32 32 0 0 0 -32-32zm2.67-216a88.14 88.14 0 0 0 -85.81 68.45 15.92 15.92 0 0 0 15.44 19.55h16.84c7.22 0 13.18-5 15.33-11.88a40.06 40.06 0 0 1 38.2-28.12c26 0 40 20.61 40 40 0 16-20.06 27.19-50.67 42.5a24.09 24.09 0 0 0 -13.33 21.5v16.16a15.84 15.84 0 0 0 15.84 15.84h16.32a15.84 15.84 0 0 0 15.84-15.84v-1.43c31.25-16.26 64-37.78 64-78.73 0-43.25-32.92-88-88-88z"/></svg>