<svg viewBox="0 0 384 512"><path d="m192 0c-105.6 0-192 86.4-192 192 0 76.8 25.6 99.2 172.8 310.4a24 24 0 0 0 38.4 0c147.2-211.2 172.8-233.6 172.8-310.4 0-105.6-86.4-192-192-192zm84.85 242.91a16 16 0 0 1 0 22.63l-11.31 11.31a16 16 0 0 1 -22.63 0l-50.91-50.91-50.91 50.91a16 16 0 0 1 -22.63 0l-11.31-11.31a16 16 0 0 1 0-22.63l50.91-50.91-50.91-50.91a16 16 0 0 1 0-22.63l11.31-11.31a16 16 0 0 1 22.63 0l50.91 50.91 50.91-50.91a16 16 0 0 1 22.63 0l11.31 11.31a16 16 0 0 1 0 22.63l-50.91 50.91z" opacity=".4"/><path d="m276.85 242.91a16 16 0 0 1 0 22.63l-11.31 11.31a16 16 0 0 1 -22.63 0l-50.91-50.91-50.91 50.91a16 16 0 0 1 -22.63 0l-11.31-11.31a16 16 0 0 1 0-22.63l50.91-50.91-50.91-50.91a16 16 0 0 1 0-22.63l11.31-11.31a16 16 0 0 1 22.63 0l50.91 50.91 50.91-50.91a16 16 0 0 1 22.63 0l11.31 11.31a16 16 0 0 1 0 22.63l-50.91 50.91z"/></svg>