<svg viewBox="0 0 384 512"><path d="m192 0c-105.6 0-192 86.4-192 192 0 76.8 25.6 99.2 172.8 310.4a24 24 0 0 0 38.4 0c147.2-211.2 172.8-233.6 172.8-310.4 0-105.6-86.4-192-192-192zm112 200a16 16 0 0 1 -16 16h-72v72a16 16 0 0 1 -16 16h-16a16 16 0 0 1 -16-16v-72h-72a16 16 0 0 1 -16-16v-16a16 16 0 0 1 16-16h72v-72a16 16 0 0 1 16-16h16a16 16 0 0 1 16 16v72h72a16 16 0 0 1 16 16z" opacity=".4"/><path d="m304 200a16 16 0 0 1 -16 16h-72v72a16 16 0 0 1 -16 16h-16a16 16 0 0 1 -16-16v-72h-72a16 16 0 0 1 -16-16v-16a16 16 0 0 1 16-16h72v-72a16 16 0 0 1 16-16h16a16 16 0 0 1 16 16v72h72a16 16 0 0 1 16 16z"/></svg>