<svg viewBox="0 0 640 512"><path d="m157.4 89.88a191.85 191.85 0 0 1 162.6-89.88c106 0 192 86 192 192 0 46.83-9.88 73.25-49.83 133.43l-79.06-61.1a96 96 0 1 0 -149-115.17zm143.4 412.52a24 24 0 0 0 38.4 0c18.6-26.69 35.23-50.32 50.14-71.47l-257.87-199.31c10.71 52.55 50.15 99.78 169.33 270.78zm19.2-374.4a64 64 0 0 0 -59.84 41.3l96.84 74.88a64 64 0 0 0 -37-116.18z" opacity=".4"/><path d="m3.37 31.45 19.63-25.27a16 16 0 0 1 22.47-2.81l588.35 454.73a16 16 0 0 1 2.82 22.45l-19.64 25.27a16 16 0 0 1 -22.46 2.81l-588.36-454.73a16 16 0 0 1 -2.81-22.45z"/></svg>