<svg viewBox="0 0 384 512"><path d="m192 0c-105.6 0-192 86.4-192 192 0 76.8 25.6 99.2 172.8 310.4a24 24 0 0 0 38.4 0c147.2-211.2 172.8-233.6 172.8-310.4 0-105.6-86.4-192-192-192zm64 117.16a26.84 26.84 0 1 1 -26.84 26.84 26.84 26.84 0 0 1 26.84-26.84zm-128 0a26.84 26.84 0 1 1 -26.84 26.84 26.84 26.84 0 0 1 26.84-26.84zm164.17 141a132.31 132.31 0 0 1 -200.33 0 16 16 0 0 1 24.32-20.78 100.31 100.31 0 0 0 151.67 0 16 16 0 1 1 24.34 20.79z" opacity=".4"/><path d="m256 170.84a26.84 26.84 0 1 0 -26.84-26.84 26.84 26.84 0 0 0 26.84 26.84zm-128 0a26.84 26.84 0 1 0 -26.84-26.84 26.84 26.84 0 0 0 26.84 26.84zm162.39 64.72a16 16 0 0 0 -22.56 1.78 100.31 100.31 0 0 1 -151.67 0 16 16 0 0 0 -24.32 20.78 132.31 132.31 0 0 0 200.33 0 16 16 0 0 0 -1.78-22.56z"/></svg>