<svg viewBox="0 0 384 512"><path d="m192 0c-105.6 0-192 86.4-192 192 0 76.8 25.6 99.2 172.8 310.4a24 24 0 0 0 38.4 0c147.2-211.2 172.8-233.6 172.8-310.4 0-105.6-86.4-192-192-192zm-43.17 283.15-42.83 4.85a9 9 0 0 1 -10-9.95l4.8-42.83 85.54-85.54 48 48zm133.91-133.9-28.26 28.26-48-48 28.26-28.26a18 18 0 0 1 25.41 0l22.57 22.57a18 18 0 0 1 .02 25.43z" opacity=".4"/><path d="m282.74 123.84-22.57-22.57a18 18 0 0 0 -25.41 0l-28.26 28.26 48 48 28.26-28.26a18 18 0 0 0 -.02-25.43zm-181.89 111.33-4.8 42.83a9 9 0 0 0 9.95 10l42.83-4.8 85.54-85.54-48-48z"/></svg>