<svg viewBox="0 0 384 512"><path d="m144 384a80 80 0 1 1 80-80 80 80 0 0 1 -80 80z" opacity=".4"/><path d="m372 64h-79a12 12 0 0 0 -8.5 20.5l16.9 16.9-17.5 17.5-14.1-14.1a12 12 0 0 0 -17 0l-28.3 28.2a12 12 0 0 0 0 17l14.1 14.1-18 18a143.3 143.3 0 0 0 -76.7-22.1c-79.4 0-143.9 64.5-143.9 144a144 144 0 1 0 265.9-76.7l18-18 14.1 14.1a12 12 0 0 0 17 0l28.3-28.3a12 12 0 0 0 0-17l-14.1-14.1 17.5-17.5 16.9 16.9a12 12 0 0 0 20.5-8.5v-78.9a12.19 12.19 0 0 0 -12.1-12zm-228 320a80 80 0 1 1 80-80 80 80 0 0 1 -80 80z"/></svg>