<svg viewBox="0 0 288 512"><path d="m200.58 408.27a80.12 80.12 0 1 1 -.05-113.5l.05.05a80.45 80.45 0 0 1 0 113.45z" opacity=".4"/><path d="m284.38 319.45a144.66 144.66 0 0 0 -38.56-70.08 143 143 0 0 0 -69.82-38.74v-25.45h20a12 12 0 0 0 12-12v-40.18a12 12 0 0 0 -12-12h-20v-24.91h24a12 12 0 0 0 8.5-20.57l-55.89-56a12 12 0 0 0 -17 0l-56 56.09a12 12 0 0 0 8.49 20.59h24v24.8h-20a12 12 0 0 0 -12 12v40.13a12 12 0 0 0 12 12h20v25.45c-77.58 17.76-126.1 95.18-108.48 172.98s94.8 126.51 172.38 108.81 126-95.13 108.38-172.92zm-83.8 88.82a80.12 80.12 0 1 1 -.05-113.5l.05.05a80.45 80.45 0 0 1 0 113.45z"/></svg>