<svg viewBox="0 0 640 512"><path d="m320.67 64c-442.6 0-357.57 384-158.46 384 39.9 0 77.47-20.69 101.42-55.86l25.73-37.79c15.66-23 47-23 62.63 0l25.73 37.79c23.94 35.17 61.51 55.86 101.41 55.86 189.87 0 290.63-384-158.46-384zm-56.59 203.31c-12.32 15.4-39 41.05-80.08 41.05s-67.76-25.66-80.08-41.05a18.28 18.28 0 0 1 0-22.63c12.32-15.4 39-41.05 80.08-41.05s67.76 25.66 80.08 41.05a18.28 18.28 0 0 1 0 22.63zm272 0c-12.32 15.4-39 41.05-80.08 41.05s-67.76-25.66-80.08-41.05a18.28 18.28 0 0 1 0-22.63c12.32-15.4 39-41.05 80.08-41.05s67.76 25.66 80.08 41.05a18.28 18.28 0 0 1 0 22.63z" opacity=".4"/><path d="m184 203.63c-41.08 0-67.76 25.65-80.08 41.05a18.28 18.28 0 0 0 0 22.63c12.32 15.39 39 41.05 80.08 41.05s67.76-25.65 80.08-41.05a18.28 18.28 0 0 0 0-22.63c-12.32-15.39-39-41.05-80.08-41.05zm352.08 41.05c-12.32-15.39-39-41.05-80.08-41.05s-67.76 25.65-80.08 41.05a18.28 18.28 0 0 0 0 22.63c12.32 15.39 39 41.05 80.08 41.05s67.76-25.65 80.08-41.05a18.28 18.28 0 0 0 0-22.63z"/></svg>