<svg viewBox="0 0 512 512"><path d="m127.18 0h-111.18a16 16 0 0 0 -13.08 25.18l111.27 159a207 207 0 0 1 109.56-53.39l-69.13-115.25a32 32 0 0 0 -27.44-15.54zm368.82 0h-111.18a32 32 0 0 0 -27.44 15.54l-69.13 115.21a207 207 0 0 1 109.56 53.38l111.27-158.95a16 16 0 0 0 -13.08-25.18z" opacity=".4"/><path d="m256 160a176 176 0 1 0 176 176 176 176 0 0 0 -176-176zm92.52 157.26-37.93 37 9 52.22a11.48 11.48 0 0 1 -16.65 12.09l-46.94-24.69-46.9 24.65a11.48 11.48 0 0 1 -16.65-12.09l9-52.22-37.93-37a11.49 11.49 0 0 1 6.35-19.59l52.4-7.63 23.43-47.52a11.5 11.5 0 0 1 20.61 0l23.43 47.52 52.43 7.64a11.49 11.49 0 0 1 6.35 19.62z"/></svg>