<svg viewBox="0 0 512 512"><path d="m384 128v352h64v-352zm-320 352h64v-352h-64z" opacity=".4"/><path d="m336 32h-160a48 48 0 0 0 -48 48v400h256v-400a48 48 0 0 0 -48-48zm-144 64h128v32h-128zm160 224a16 16 0 0 1 -16 16h-48v48a16 16 0 0 1 -16 16h-32a16 16 0 0 1 -16-16v-48h-48a16 16 0 0 1 -16-16v-32a16 16 0 0 1 16-16h48v-48a16 16 0 0 1 16-16h32a16 16 0 0 1 16 16v48h48a16 16 0 0 1 16 16zm-352-144v256a48 48 0 0 0 48 48h16v-352h-16a48 48 0 0 0 -48 48zm464-48h-16v352h16a48 48 0 0 0 48-48v-256a48 48 0 0 0 -48-48z"/></svg>