<svg viewBox="0 0 640 512"><path d="m640 130.94v-34.94a32 32 0 0 0 -32-32h-576a32 32 0 0 0 -32 32v34.94a47.86 47.86 0 0 1 32 45.06 47.86 47.86 0 0 1 -32 45.06v98.94h640v-98.94a47.73 47.73 0 0 1 0-90.12zm-416 125.06h-64v-128h64zm128 0h-64v-128h64zm128 0h-64v-128h64z" opacity=".4"/><path d="m224 128h-64v128h64zm128 0h-64v128h64zm128 0h-64v128h64zm-480 224v96h64v-26.67a16 16 0 0 1 32 0v26.67h128v-26.67a16 16 0 1 1 32 0v26.67h128v-26.67a16 16 0 1 1 32 0v26.67h128v-26.67a16 16 0 1 1 32 0v26.67h64v-96z"/></svg>