<svg viewBox="0 0 640 512"><path d="m480 64a32 32 0 0 0 64 0c0-17.67-32-64-32-64s-32 46.33-32 64zm-96 0a32 32 0 0 0 64 0c0-17.67-32-64-32-64s-32 46.33-32 64zm-384 0a32 32 0 0 0 64 0c0-17.67-32-64-32-64s-32 46.33-32 64zm288 0a32 32 0 0 0 64 0c0-17.67-32-64-32-64s-32 46.33-32 64zm-96 0a32 32 0 0 0 64 0c0-17.67-32-64-32-64s-32 46.33-32 64zm-96 0a32 32 0 0 0 64 0c0-17.67-32-64-32-64s-32 46.33-32 64zm512-64s-32 46.33-32 64a32 32 0 0 0 64 0c0-17.67-32-64-32-64z" opacity=".4"/><path d="m160 144a16 16 0 0 0 -16-16h-32a16 16 0 0 0 -16 16v144h64zm288 0a16 16 0 0 0 -16-16h-32a16 16 0 0 0 -16 16v144h64zm-192 0a16 16 0 0 0 -16-16h-32a16 16 0 0 0 -16 16v144h64zm288 0a16 16 0 0 0 -16-16h-32a16 16 0 0 0 -16 16v144h64zm80-16h-32a16 16 0 0 0 -16 16v144a32 32 0 0 1 -32 32h-192v-176a16 16 0 0 0 -16-16h-32a16 16 0 0 0 -16 16v176h-192a32 32 0 0 1 -32-32v-144a16 16 0 0 0 -16-16h-32a16 16 0 0 0 -16 16v144a96 96 0 0 0 96 96h192v64h-176a16 16 0 0 0 -16 16v32a16 16 0 0 0 16 16h416a16 16 0 0 0 16-16v-32a16 16 0 0 0 -16-16h-176v-64h192a96 96 0 0 0 96-96v-144a16 16 0 0 0 -16-16z"/></svg>