<svg viewBox="0 0 288 512"><path d="m143 288a80 80 0 1 1 80-80 80 80 0 0 1 -80 80z" opacity=".4"/><path d="m287 208a143.64 143.64 0 0 0 -51.2-110.1c2.5-1.8 4.9-3.8 7.2-5.8 24.7-21.2 39.8-48.8 43.2-78.8a11.89 11.89 0 0 0 -10.37-13.22 12.79 12.79 0 0 0 -1.52-.08h-40.5a12 12 0 0 0 -11.81 9.8c-2.4 12.5-9.6 24.3-20.69 33.8-15.31 13.2-35.99 20.4-58.31 20.4s-43-7.2-58.4-20.4c-11.1-9.5-18.2-21.3-20.7-33.8a12 12 0 0 0 -11.67-9.8h-40.5a11.88 11.88 0 0 0 -12 11.76 13.08 13.08 0 0 0 .09 1.54c3.41 30.1 18.41 57.7 43.18 78.9 2.3 2 4.7 3.9 7.2 5.8a143.9 143.9 0 0 0 60.8 250.4v51.6h-36a12 12 0 0 0 -12 12v40a12 12 0 0 0 12 12h36v36a12 12 0 0 0 12 12h40a12 12 0 0 0 12-12v-36h36a12 12 0 0 0 12-12v-40a12 12 0 0 0 -12-12h-36v-51.6a144 144 0 0 0 112-140.4zm-144 80a80 80 0 1 1 80-80 80 80 0 0 1 -80 80z"/></svg>