<svg viewBox="0 0 512 512"><path d="m491.12794.70921c-38.6972 11.5936-111.77976 34.29644-187.67439 61.2961-2.09343-6.99991-3.99939-13.49983-5.5929-18.59351a16.058 16.058 0 0 0 -22.90274-9.49988c-42.39976 22.09347-152.77349 82.59271-214.37343 142.4982-1.09359 1-2.49962 2-3.49947 3a194.83045 194.83045 0 1 0 275.56719 275.4965c.99985-1 1.9997-2.40622 2.99954-3.49995 59.78772-61.6086 120.3722-172.10721 142.47819-214.40356a16.06158 16.06158 0 0 0 -9.49854-22.906c-5.20233-1.59373-11.6076-3.5-18.60653-5.59368 26.99587-75.999 49.69552-148.99813 61.30311-187.70077a16.18325 16.18325 0 0 0 -20.20003-20.09345zm-299.15733 447.29125a127.99839 127.99839 0 1 1 127.98039-127.99839 127.97573 127.97573 0 0 1 -127.98039 127.99839z" opacity=".4"/><path d="m191.97061 192.00368a127.99839 127.99839 0 1 0 127.98039 127.99839 127.97573 127.97573 0 0 0 -127.98039-127.99839zm-31.9951 127.99839a31.9996 31.9996 0 1 1 31.9951-31.9996 31.959 31.959 0 0 1 -31.9951 31.9996zm47.99265 63.9992a15.9998 15.9998 0 1 1 15.99755-15.9998 16.04976 16.04976 0 0 1 -15.99755 15.9998z"/></svg>