<svg viewBox="0 0 512 512"><path d="m104 384h208a8 8 0 0 1 8 8v16a8 8 0 0 1 -8 8h-208a8 8 0 0 1 -8-8v-16a8 8 0 0 1 8-8z" opacity=".4"/><path d="m464 448h-1.29a191 191 0 0 0 49.29-128c0-105.88-86.12-192-192-192v64a128 128 0 0 1 0 256h-272a48 48 0 0 0 -48 48 16 16 0 0 0 16 16h480a16 16 0 0 0 16-16 48 48 0 0 0 -48-48zm-304-128h12v16a16 16 0 0 0 16 16h40a16 16 0 0 0 16-16v-16h12a32 32 0 0 0 32-32v-224a32 32 0 0 0 -32-32v-16a16 16 0 0 0 -16-16h-64a16 16 0 0 0 -16 16v16a32 32 0 0 0 -32 32v224a32 32 0 0 0 32 32z"/></svg>