<svg viewBox="0 0 640 512"><path d="m436.61 306.45a127.25 127.25 0 0 0 10.39-50.45v-48a16 16 0 0 1 16-16h16a16 16 0 0 1 16 16v48a174.58 174.58 0 0 1 -19.54 80.47zm-37.61 157.55h-56v-33.78a175.69 175.69 0 0 0 34-8.08l-50.4-39c-6.71.4-13.41.87-20.35.2-55.85-5.45-98.74-48.63-111.18-101.85l-52-40.22v6.85c0 89.64 64 169.55 152 181.69v34.19h-56.07a16 16 0 0 0 -16 16v16a16 16 0 0 0 16 16h160a16 16 0 0 0 16-16v-16a16 16 0 0 0 -16-16zm11.2-178a95.94 95.94 0 0 0 4.8-30v-160a96 96 0 0 0 -192 0v45.35z" opacity=".4"/><path d="m2.37 31.45 19.63-25.27a16 16 0 0 1 22.47-2.81l588.35 454.73a16 16 0 0 1 2.82 22.45l-19.64 25.27a16 16 0 0 1 -22.46 2.81l-588.36-454.73a16 16 0 0 1 -2.81-22.45z"/></svg>