<svg viewBox="0 0 352 512"><path d="m80 256v-160a96 96 0 0 1 192 0h-85.33c-5.89 0-10.67 3.58-10.67 8v16c0 4.42 4.78 8 10.67 8h85.33v32h-85.33c-5.89 0-10.67 3.58-10.67 8v16c0 4.42 4.78 8 10.67 8h85.33v32h-85.33c-5.89 0-10.67 3.58-10.67 8v16c0 4.42 4.78 8 10.67 8h85.33a96 96 0 0 1 -192 0z" opacity=".4"/><path d="m186.67 128h85.33v-32h-85.33c-5.89 0-10.67 3.58-10.67 8v16c0 4.42 4.78 8 10.67 8zm0 64h85.33v-32h-85.33c-5.89 0-10.67 3.58-10.67 8v16c0 4.42 4.78 8 10.67 8zm149.33 0h-16a16 16 0 0 0 -16 16v48a128.15 128.15 0 0 1 -140.79 127.38c-66.5-6.49-115.21-66.27-115.21-133.08v-42.3a16 16 0 0 0 -16-16h-16a16 16 0 0 0 -16 16v40.16c0 89.64 64 169.55 152 181.69v34.15h-56a16 16 0 0 0 -16 16v16a16 16 0 0 0 16 16h160a16 16 0 0 0 16-16v-16a16 16 0 0 0 -16-16h-56v-33.77c85.71-11.76 152-85.33 152-174.23v-48a16 16 0 0 0 -16-16zm-149.33 64h85.33v-32h-85.33c-5.89 0-10.67 3.58-10.67 8v16c0 4.42 4.78 8 10.67 8z"/></svg>