<svg viewBox="0 0 512 512"><path d="m497.9 150.5-136.5-136.4a48 48 0 0 0 -33.9-14.1h-143.1a48 48 0 0 0 -33.9 14.1l-136.4 136.5a48 48 0 0 0 -14.1 33.9v143.1a48 48 0 0 0 14.1 33.9l136.5 136.4a48 48 0 0 0 33.9 14.1h143.1a48 48 0 0 0 33.9-14.1l136.4-136.5a48 48 0 0 0 14.1-33.9v-143.1a48 48 0 0 0 -14.1-33.9zm-97.9 133.5a12 12 0 0 1 -12 12h-264a12 12 0 0 1 -12-12v-56a12 12 0 0 1 12-12h264a12 12 0 0 1 12 12z" opacity=".4"/><path d="m400 228v56a12 12 0 0 1 -12 12h-264a12 12 0 0 1 -12-12v-56a12 12 0 0 1 12-12h264a12 12 0 0 1 12 12z"/></svg>