<svg viewBox="0 0 640 512"><path d="m608 32h-576a32 32 0 0 0 -32 32v384a32 32 0 0 0 32 32h576a32 32 0 0 0 32-32v-384a32 32 0 0 0 -32-32zm-432 295.88v16.12a8 8 0 0 1 -8 8h-16a8 8 0 0 1 -8-8v-16.29a57.26 57.26 0 0 1 -31.37-11.35 8 8 0 0 1 -.57-12.14l11.75-11.22a8.21 8.21 0 0 1 10.13-.73 24.08 24.08 0 0 0 12.82 3.73h28.11c6.5 0 11.8-5.92 11.8-13.19 0-5.95-3.61-11.19-8.77-12.73l-45-13.5c-18.59-5.58-31.58-23.42-31.58-43.39 0-24.52 19.05-44.44 42.67-45.07v-16.12a8 8 0 0 1 8-8h16a8 8 0 0 1 8 8v16.29a57.18 57.18 0 0 1 31.37 11.35 8 8 0 0 1 .57 12.14l-11.75 11.22a8.21 8.21 0 0 1 -10.13.73 24 24 0 0 0 -12.82-3.73h-28.11c-6.5 0-11.8 5.92-11.8 13.19 0 5.95 3.61 11.19 8.77 12.73l45 13.5c18.59 5.58 31.58 23.42 31.58 43.39 0 24.53-19.05 44.44-42.67 45.07zm240-15.88a8 8 0 0 1 -8 8h-112a8 8 0 0 1 -8-8v-16a8 8 0 0 1 8-8h112a8 8 0 0 1 8 8zm160 0a8 8 0 0 1 -8 8h-80a8 8 0 0 1 -8-8v-16a8 8 0 0 1 8-8h80a8 8 0 0 1 8 8zm0-96a8 8 0 0 1 -8 8h-272a8 8 0 0 1 -8-8v-16a8 8 0 0 1 8-8h272a8 8 0 0 1 8 8z" opacity=".4"/><path d="m144 168.12v-16.12a8 8 0 0 1 8-8h16a8 8 0 0 1 8 8v16.29a57.18 57.18 0 0 1 31.37 11.35 8 8 0 0 1 .57 12.14l-11.76 11.22a8.21 8.21 0 0 1 -10.13.73 24 24 0 0 0 -12.82-3.73h-28.11c-6.5 0-11.8 5.92-11.8 13.19 0 5.95 3.61 11.19 8.77 12.73l45 13.5c18.59 5.58 31.58 23.42 31.58 43.39 0 24.53-19 44.44-42.67 45.07v16.12a8 8 0 0 1 -8 8h-16a8 8 0 0 1 -8-8v-16.29a57.26 57.26 0 0 1 -31.37-11.35 8 8 0 0 1 -.57-12.14l11.75-11.22a8.21 8.21 0 0 1 10.13-.73 24.08 24.08 0 0 0 12.82 3.73h28.11c6.5 0 11.8-5.92 11.8-13.19 0-5.95-3.61-11.19-8.77-12.73l-45-13.5c-18.59-5.58-31.58-23.42-31.58-43.39 0-24.52 19.05-44.44 42.68-45.07z"/></svg>