<svg viewBox="0 0 640 512"><path d="m320 352c-44.19 0-80-43-80-96s35.82-96 80-96 80 43 80 96-35.83 96-80 96z" opacity=".4"/><path d="m621.16 54.46c-38.79-16.27-77.61-22.46-116.41-22.46-123.19 0-246.34 62.34-369.5 62.34-30.89 0-61.76-3.92-92.65-13.72a34 34 0 0 0 -10.35-1.62c-17.25 0-32.25 13.32-32.25 31.81v317.26c0 12.63 7.23 24.6 18.84 29.46 38.79 16.28 77.61 22.47 116.41 22.47 123.17 0 246.34-62.35 369.51-62.35 30.89 0 61.76 3.92 92.65 13.72a34.34 34.34 0 0 0 10.35 1.63c17.24 0 32.24-13.33 32.24-31.82v-317.25c0-12.64-7.23-24.6-18.84-29.47zm-301.16 297.54c-44.19 0-80-43-80-96s35.82-96 80-96 80 43 80 96-35.83 96-80 96z"/></svg>