<svg viewBox="0 0 640 512"><path d="m101.22 112a112.5 112.5 0 0 1 -53.22 53.22v181.56a112.5 112.5 0 0 1 53.22 53.22h437.56a112.5 112.5 0 0 1 53.22-53.22v-181.56a112.5 112.5 0 0 1 -53.22-53.22zm218.78 240c-44.19 0-80-43-80-96s35.82-96 80-96 80 43 80 96-35.83 96-80 96z" opacity=".4"/><path d="m616 64h-592a24 24 0 0 0 -24 24v336a24 24 0 0 0 24 24h592a24 24 0 0 0 24-24v-336a24 24 0 0 0 -24-24zm-24 282.78a112.5 112.5 0 0 0 -53.22 53.22h-437.56a112.5 112.5 0 0 0 -53.22-53.22v-181.56a112.5 112.5 0 0 0 53.22-53.22h437.56a112.5 112.5 0 0 0 53.22 53.22z"/></svg>