<svg viewBox="0 0 640 512"><path d="m0 448a32 32 0 0 0 32 32h576a32 32 0 0 0 32-32v-320h-640zm448-208a16 16 0 0 1 16-16h96a16 16 0 0 1 16 16v32a16 16 0 0 1 -16 16h-96a16 16 0 0 1 -16-16zm0 120a8 8 0 0 1 8-8h112a8 8 0 0 1 8 8v16a8 8 0 0 1 -8 8h-112a8 8 0 0 1 -8-8zm-384-96a8 8 0 0 1 8-8h304a8 8 0 0 1 8 8v16a8 8 0 0 1 -8 8h-304a8 8 0 0 1 -8-8zm0 96a8 8 0 0 1 8-8h176a8 8 0 0 1 8 8v16a8 8 0 0 1 -8 8h-176a8 8 0 0 1 -8-8z" opacity=".4"/><path d="m568 352h-112a8 8 0 0 0 -8 8v16a8 8 0 0 0 8 8h112a8 8 0 0 0 8-8v-16a8 8 0 0 0 -8-8zm-192-96h-304a8 8 0 0 0 -8 8v16a8 8 0 0 0 8 8h304a8 8 0 0 0 8-8v-16a8 8 0 0 0 -8-8zm-128 96h-176a8 8 0 0 0 -8 8v16a8 8 0 0 0 8 8h176a8 8 0 0 0 8-8v-16a8 8 0 0 0 -8-8zm376-320h-608a16 16 0 0 0 -16 16v48h640v-48a16 16 0 0 0 -16-16z"/></svg>