<svg viewBox="0 0 640 512"><path d="m608 160h-171l120.27 120.25a64 64 0 0 1 18.73 45.26v74.49a16 16 0 0 1 -16 16h-296a8 8 0 0 1 -8-8v-16a8 8 0 0 1 8-8h163l-64-64h-99a8 8 0 0 1 -8-8v-16a8 8 0 0 1 8-8h67l-128-128h-171a32 32 0 0 0 -32 32v288a32 32 0 0 0 32 32h576a32 32 0 0 0 32-32v-288a32 32 0 0 0 -32-32zm-464 255.85v16.15a8 8 0 0 1 -8 8h-16a8 8 0 0 1 -8-8v-16.32a57.32 57.32 0 0 1 -31.37-11.35 8 8 0 0 1 -.57-12.14l11.75-11.19a8.19 8.19 0 0 1 10.13-.73 24.06 24.06 0 0 0 12.82 3.73h28.11c6.5 0 11.8-5.92 11.8-13.19 0-5.95-3.61-11.19-8.77-12.73l-45-13.5c-18.59-5.58-31.58-23.45-31.58-43.42 0-24.52 19.05-44.44 42.67-45.07v-16.09a8 8 0 0 1 8-8h16a8 8 0 0 1 8 8v16.29a57.17 57.17 0 0 1 31.37 11.35 8 8 0 0 1 1.4 11.22 7.26 7.26 0 0 1 -.83.92l-11.75 11.22a8.22 8.22 0 0 1 -10.13.73 24 24 0 0 0 -12.82-3.73h-28.11c-6.5 0-11.8 5.92-11.8 13.19 0 5.95 3.61 11.19 8.77 12.73l45 13.5c18.59 5.58 31.58 23.42 31.58 43.39 0 24.5-19.05 44.41-42.67 45.04z" opacity=".4"/><path d="m238.78 7a24.1 24.1 0 0 0 -33.9 0l-37.88 37.84a24 24 0 0 0 0 33.8l41.9 41.9 71.7-71.8zm295.86 295.88-231.46-231.44-71.7 71.7 231.4 231.46a32 32 0 0 0 22.62 9.4h42.5a16 16 0 0 0 16-16v-42.49a32 32 0 0 0 -9.36-22.63zm-379.55 24.51-45-13.5c-5.16-1.54-8.77-6.78-8.77-12.73 0-7.27 5.3-13.19 11.8-13.19h28.11a24 24 0 0 1 12.82 3.73 8.22 8.22 0 0 0 10.13-.73l11.75-11.22a7.26 7.26 0 0 0 .83-.92 8 8 0 0 0 -1.4-11.22 57.17 57.17 0 0 0 -31.36-11.35v-16.26a8 8 0 0 0 -8-8h-16a8 8 0 0 0 -8 8v16.12c-23.62.63-42.67 20.55-42.67 45.07 0 20 13 37.81 31.58 43.39l45 13.5c5.16 1.54 8.77 6.78 8.77 12.73 0 7.27-5.3 13.19-11.8 13.19h-28.12a24.06 24.06 0 0 1 -12.82-3.73 8.19 8.19 0 0 0 -10.13.73l-11.75 11.19a8 8 0 0 0 .57 12.14 57.32 57.32 0 0 0 31.37 11.35v16.32a8 8 0 0 0 8 8h16a8 8 0 0 0 8-8v-16.15c23.62-.63 42.67-20.54 42.67-45.07 0-19.97-12.99-37.78-31.58-43.39z"/></svg>