<svg viewBox="0 0 640 512"><path d="m640 192v288a32 32 0 0 1 -32 32h-576a32 32 0 0 1 -32-32v-288a32 32 0 0 1 32-32h171.06l127.94 128h-227a8 8 0 0 0 -8 8v16a8 8 0 0 0 8 8h259l64 64h-323a8 8 0 0 0 -8 8v16a8 8 0 0 0 8 8h456a16 16 0 0 0 16-16v-74.46a64 64 0 0 0 -18.74-45.26l-120.26-120.28h171a32 32 0 0 1 32 32z" opacity=".4"/><path d="m534.64 302.91-231.46-231.44-71.7 71.7 231.39 231.45a32 32 0 0 0 22.64 9.38h42.49a16 16 0 0 0 16-16v-42.46a32 32 0 0 0 -9.36-22.63zm-295.86-295.91a24.1 24.1 0 0 0 -33.9 0l-37.88 37.87a24 24 0 0 0 0 33.8l41.9 41.9 71.7-71.8z"/></svg>