<svg viewBox="0 0 640 512"><path d="m545.58 371.77a112.42 112.42 0 0 1 46.43-41v-197.56a112.4 112.4 0 0 1 -52.16-51.09 283.47 283.47 0 0 0 -35.1-2.12c-55.6 0-112.61 14.43-173 29.7-63.39 16-128.95 32.64-196.51 32.64a385.14 385.14 0 0 1 -40.83-2.12 112.42 112.42 0 0 1 -46.42 41v197.57a112.42 112.42 0 0 1 52.15 51.09 283.47 283.47 0 0 0 35.1 2.12c55.6 0 112.62-14.43 173-29.71 63.4-16.05 129-32.64 196.53-32.64a385 385 0 0 1 40.81 2.12zm-225.58-19.77c-44.19 0-80-43-80-96s35.82-96 80-96 80 43 80 96-35.83 96-80 96z" opacity=".4"/><path d="m621.16 54.46c-38.79-16.27-77.61-22.46-116.41-22.46-123.19 0-246.34 62.34-369.5 62.34-30.89 0-61.76-3.92-92.65-13.72a34.19 34.19 0 0 0 -10.35-1.62c-17.25 0-32.25 13.32-32.25 31.81v317.26c0 12.63 7.23 24.6 18.84 29.46 38.79 16.28 77.61 22.47 116.41 22.47 123.17 0 246.34-62.35 369.51-62.35 30.89 0 61.76 3.92 92.65 13.72a34.19 34.19 0 0 0 10.35 1.63c17.24 0 32.24-13.33 32.24-31.82v-317.25c0-12.64-7.23-24.6-18.84-29.47zm-312.93 347.83c-60.36 15.28-117.38 29.71-172.98 29.71a283.47 283.47 0 0 1 -35.1-2.12 112.42 112.42 0 0 0 -52.15-51.09v-197.58a112.42 112.42 0 0 0 46.42-41 385.14 385.14 0 0 0 40.83 2.12c67.56 0 133.12-16.59 196.51-32.64 60.35-15.26 117.36-29.69 172.96-29.69a283.47 283.47 0 0 1 35.1 2.12 112.4 112.4 0 0 0 52.18 51.09v197.58a112.42 112.42 0 0 0 -46.43 41 385 385 0 0 0 -40.82-2.12c-67.56-.02-133.12 16.57-196.52 32.62z"/></svg>