<svg viewBox="0 0 640 512"><path d="m101.22 112a112.5 112.5 0 0 1 -53.22 53.22v181.56a112.5 112.5 0 0 1 53.22 53.22h437.56a112.5 112.5 0 0 1 53.22-53.22v-181.56a112.5 112.5 0 0 1 -53.22-53.22zm218.78 256c-53 0-96-50.16-96-112s43-112 96-112 96 50.14 96 112-43 112-96 112z" opacity=".4"/><path d="m616 64h-592a24 24 0 0 0 -24 24v336a24 24 0 0 0 24 24h592a24 24 0 0 0 24-24v-336a24 24 0 0 0 -24-24zm-24 282.78a112.5 112.5 0 0 0 -53.22 53.22h-437.56a112.5 112.5 0 0 0 -53.22-53.22v-181.56a112.5 112.5 0 0 0 53.22-53.22h437.56a112.5 112.5 0 0 0 53.22 53.22zm-240-58.78h-16v-88a8 8 0 0 0 -8-8h-13.58a24 24 0 0 0 -13.31 4l-15.33 10.22a8 8 0 0 0 -2.22 11.08l8.88 13.31a8 8 0 0 0 11.08 2.22l.47-.31v55.48h-15.99a8 8 0 0 0 -8 8v16a8 8 0 0 0 8 8h64a8 8 0 0 0 8-8v-16a8 8 0 0 0 -8-8z"/></svg>