<svg viewBox="0 0 640 512"><path d="m549.47 267.22a127 127 0 0 1 -69.47 20.78c-56.67 0-104.29-37.26-121.08-88.38-96.01 25.28-166.92 112.43-166.92 216.38v32a32 32 0 0 1 -32-32v-240a80 80 0 0 0 -160 0v48a32 32 0 0 0 64 0v-48a16 16 0 0 1 32 0v240a96.1 96.1 0 0 0 96 96h240a16 16 0 0 0 16-16v-16a32 32 0 0 0 -32-32h-64l155.68-103.79 34.68 104 1.64 10.13v37.66a16 16 0 0 0 16 16h32a16 16 0 0 0 16-16v-37.61a96 96 0 0 0 -4.94-30.39zm42.53-203.22h-21.88c-13.22-37.2-48.38-64-90.12-64s-76.9 26.8-90.12 64h-21.88a48 48 0 0 0 0 96h16a96 96 0 0 0 192 0h16a48 48 0 0 0 0-96zm-32 48a48 48 0 0 1 -32 45.26v18.74a48 48 0 0 1 -48 48 48 48 0 0 1 -48-48v-18.74a48 48 0 0 1 -32-45.26 48 48 0 0 1 48-48h64a48 48 0 0 1 48 48z" opacity=".4"/><path d="m512 64h-64a48 48 0 0 0 -48 48 48 48 0 0 0 32 45.26v18.74a48 48 0 0 0 48 48 48 48 0 0 0 48-48v-18.74a48 48 0 0 0 32-45.26 48 48 0 0 0 -48-48zm-72 56a16 16 0 1 1 16-16 16 16 0 0 1 -16 16zm80 0a16 16 0 1 1 16-16 16 16 0 0 1 -16 16z"/></svg>