<svg viewBox="0 0 640 512"><path d="m64 0s-64 32-64 96v32h128v-32c0-64-64-96-64-96zm456.08 106.19c-41.94-26.47-80.63-57.77-112-96.22l-8.08-9.97-8.12 10c-31.33 38.45-70 69.76-112 96.22-46.13 29.11-87.92 70-87.92 122.9 0 21.57 11 41.52 28.84 58.91h358.36c17.84-17.42 28.84-37.37 28.84-58.94 0-52.86-41.79-93.79-87.92-122.9z" opacity=".4"/><path d="m0 480a32 32 0 0 0 32 32h64a32 32 0 0 0 32-32v-320h-128zm608-160h-416a32 32 0 0 0 -32 32v128a32 32 0 0 0 32 32h32v-64a32 32 0 0 1 64 0v64h64v-72c0-48 48-72 48-72s48 24 48 72v72h64v-64a32 32 0 0 1 64 0v64h32a32 32 0 0 0 32-32v-128a32 32 0 0 0 -32-32z"/></svg>