<svg viewBox="0 0 640 512"><path d="m252 352a127.94 127.94 0 1 1 -87.42-154.7l-24 43.69a80 80 0 1 0 60.72 111.01zm260-160a127.81 127.81 0 0 0 -41.46 6.87l25.61 42.71a80.22 80.22 0 1 1 -42 23.26l-25.26-42.17a128 128 0 1 0 83.11-30.67z" opacity=".4"/><path d="m175.83 176.8c-9.1-13.9-23.3-24.8-47.8-24.8h-56.03a24 24 0 0 1 -24-23.5c-.27-13.5 11-24.5 24.53-24.5h55.47c55 0 82.2 16.9 99.9 40h153.7l-19.2-32h-66.4a16 16 0 0 1 -16-16v-16a16 16 0 0 1 16-16h80a24.16 24.16 0 0 1 20.6 11.6l22.8 38 37.5-41.7a24 24 0 0 1 17.8-7.9h45.3a23.94 23.94 0 0 1 24 24v32a23.94 23.94 0 0 1 -24 24h-82.4l107.1 178.6a16.07 16.07 0 0 1 -5.5 22l-13.7 8.2a16.07 16.07 0 0 1 -22-5.5l-87.1-145.4a151.48 151.48 0 0 0 -56.2 125 24 24 0 0 1 -24 25.1h-216.2a24 24 0 0 1 -21-35.6z"/></svg>