<svg viewBox="0 0 512 512"><path d="m200.9 44.79c-5.9-7.29-14.5-12.39-24.6-12.39h-112.3a32 32 0 0 0 -32 32v63.89h130.1a63.41 63.41 0 0 1 16.4-61.1zm-104.9 179.21a32 32 0 0 0 64 0v-64h-64zm247.3-134.21-48.5-48.39a32 32 0 0 0 -45.26 0l-48.54 48.39c-10.4 10.5-11.5 26.31-4.3 38.61h151c7.2-12.3 6.1-28.11-4.4-38.61z" opacity=".4"/><path d="m400 160h-176v.27h-64v63.5a32 32 0 0 1 -64 0v-63.5h-64a32 32 0 0 0 -32 32v191.81a95.94 95.94 0 0 0 96 95.92h192a95.94 95.94 0 0 0 96-95.88v-.12h16a112 112 0 0 0 0-224zm0 160h-16v-96h16a48 48 0 0 1 0 96z"/></svg>