<svg viewBox="0 0 640 512"><path d="m595.6 416h-583.25c-25 0-11.59 64 36 64h511.36c47.69 0 60.89-64 35.89-64zm-403.6-160h64a32 32 0 0 0 32-32v-66.75a32 32 0 0 0 -9.38-22.62l-38.62-38.63v-64h-32v64l-38.63 38.63a32 32 0 0 0 -9.37 22.62v66.75a32 32 0 0 0 32 32z" opacity=".4"/><path d="m512 32h-272v64l38.62 38.63a32 32 0 0 1 9.38 22.62v66.75a32 32 0 0 1 -32 32h-64a32 32 0 0 1 -32-32v-66.75a32 32 0 0 1 9.37-22.62l38.63-38.63v-64h-87.95a23.94 23.94 0 0 0 -24 24v232a96 96 0 0 0 96 96h191.95a96 96 0 0 0 96-96h32a128 128 0 0 0 0-256zm0 192h-32v-128h32a64 64 0 0 1 0 128z"/></svg>