<svg viewBox="0 0 640 512"><path d="m192 387.92a139 139 0 0 0 -32-3.92c-53 0-96 28.66-96 64s43 64 96 64 96-28.66 96-64v-120.12l-64-49.46zm342.38-386.41-319.97 94.49a31.87 31.87 0 0 0 -21 21.73l107.82 83.32 210.77-61.75v184.62a139 139 0 0 0 -32-3.92 136.93 136.93 0 0 0 -22.15 2.11l110.91 85.71c4.51-7.37 7.24-15.35 7.24-23.82v-352a32 32 0 0 0 -41.62-30.49z" opacity=".4"/><path d="m633.82 458.1-588.35-454.71a16 16 0 0 0 -22.47 2.81l-19.63 25.27a16 16 0 0 0 2.81 22.45l588.35 454.71a16 16 0 0 0 22.47-2.81l19.63-25.27a16 16 0 0 0 -2.81-22.45z"/></svg>