<svg viewBox="0 0 640 512"><path d="m544 192c-243 0-315.29 224-380.12 224a35.92 35.92 0 0 1 -35.88-35.89v-98l49.75-30.51a32 32 0 0 0 14.25-26.6v-81a16 16 0 0 0 -24.88-13.31l-71.12 47.42-71.12-47.42a16 16 0 0 0 -24.88 13.31v81a32 32 0 0 0 14.25 26.6l49.75 30.52v98a100 100 0 0 0 99.88 99.88h412.12a64 64 0 0 0 64-64v-128a96.11 96.11 0 0 0 -96-96zm-112 168a24 24 0 1 1 24-24 24 24 0 0 1 -24 24z" opacity=".4"/><path d="m634.6 33.32a10.48 10.48 0 0 0 -14.25 4.07l-85.35 154.61.37.1c2.85-.1 5.73-.1 8.63-.1a95.55 95.55 0 0 1 56.9 18.73l38.83-165.87a10.49 10.49 0 0 0 -5.13-11.54zm-202.6 278.68a24 24 0 1 0 24 24 24 24 0 0 0 -24-24z"/></svg>