<svg viewBox="0 0 640 512"><path d="m624 232h-280v-40h-48v40h-280a16 16 0 0 0 -16 16v16a16 16 0 0 0 16 16h104v40h48v-40h304v40h48v-40h104a16 16 0 0 0 16-16v-16a16 16 0 0 0 -16-16z" opacity=".4"/><path d="m224 192h192a32 32 0 0 0 32-32v-128a32 32 0 0 0 -32-32h-192a32 32 0 0 0 -32 32v128a32 32 0 0 0 32 32zm32-128h128v64h-128zm320 256h-160a32 32 0 0 0 -32 32v128a32 32 0 0 0 32 32h160a32 32 0 0 0 32-32v-128a32 32 0 0 0 -32-32zm-32 128h-96v-64h96zm-320-128h-160a32 32 0 0 0 -32 32v128a32 32 0 0 0 32 32h160a32 32 0 0 0 32-32v-128a32 32 0 0 0 -32-32zm-32 128h-96v-64h96z"/></svg>