<svg viewBox="0 0 576 512"><path d="m544 64h-448a32 32 0 0 0 -32 32v322.21c0 .36-.05.73-.09 1.09 0 .21 0 .42-.08.63s-.08.66-.13 1-.08.46-.12.68-.1.61-.16.91-.11.46-.16.69-.13.59-.21.87-.13.46-.19.69l-.24.84-.24.68c-.09.28-.18.55-.28.82s-.17.45-.26.67-.21.53-.32.79-.2.45-.3.67-.23.51-.35.76l-.33.65c-.13.25-.25.49-.39.74l-.36.63-.42.72-.39.61c-.15.23-.3.46-.46.69l-.42.6-.48.66c-.15.2-.3.39-.46.58s-.33.43-.51.64l-.48.55-.54.61-.51.53c-.18.2-.37.39-.57.59l-.53.5-.6.56-.55.48-.62.52-.58.46-.65.49-.6.43-.68.46c-.2.14-.41.27-.62.4l-.69.43-.65.37c-.23.13-.47.27-.71.39l-.67.34c-.24.13-.48.25-.73.36l-.69.31-.74.32-.71.28-.77.29-.72.24-.78.25-.75.21-.79.21-.76.17-.81.17-.77.14-.82.12-.79.1-.83.09-.81.06h-1.65 495.52a48 48 0 0 0 48-48v-303.95a32 32 0 0 0 -32-32zm-240 308a12 12 0 0 1 -12 12h-152a12 12 0 0 1 -12-12v-8a12 12 0 0 1 12-12h152a12 12 0 0 1 12 12zm0-96a12 12 0 0 1 -12 12h-152a12 12 0 0 1 -12-12v-8a12 12 0 0 1 12-12h152a12 12 0 0 1 12 12zm208 96a12 12 0 0 1 -12 12h-152a12 12 0 0 1 -12-12v-8a12 12 0 0 1 12-12h152a12 12 0 0 1 12 12zm0-96a12 12 0 0 1 -12 12h-152a12 12 0 0 1 -12-12v-8a12 12 0 0 1 12-12h152a12 12 0 0 1 12 12zm0-96a12 12 0 0 1 -12 12h-360a12 12 0 0 1 -12-12v-40a12 12 0 0 1 12-12h360a12 12 0 0 1 12 12z" opacity=".4"/><path d="m292 352h-152a12 12 0 0 0 -12 12v8a12 12 0 0 0 12 12h152a12 12 0 0 0 12-12v-8a12 12 0 0 0 -12-12zm0-96h-152a12 12 0 0 0 -12 12v8a12 12 0 0 0 12 12h152a12 12 0 0 0 12-12v-8a12 12 0 0 0 -12-12zm208 96h-152a12 12 0 0 0 -12 12v8a12 12 0 0 0 12 12h152a12 12 0 0 0 12-12v-8a12 12 0 0 0 -12-12zm0-96h-152a12 12 0 0 0 -12 12v8a12 12 0 0 0 12 12h152a12 12 0 0 0 12-12v-8a12 12 0 0 0 -12-12zm-500-128v287.33c0 17.44 13.67 32.18 31.1 32.67a32 32 0 0 0 32.9-32v-320h-32a32 32 0 0 0 -32 32z"/></svg>