<svg viewBox="0 0 576 512"><path d="m544 224v192h26a6 6 0 0 1 6 6v52a6 6 0 0 1 -6 6h-52a6 6 0 0 1 -6-6v-26h-288v26a6 6 0 0 1 -6 6h-52a6 6 0 0 1 -6-6v-52a6 6 0 0 1 6-6h26v-96h32v96h288v-192h-128v-32h128v-26a6 6 0 0 1 6-6h52a6 6 0 0 1 6 6v52a6 6 0 0 1 -6 6z" opacity=".4"/><path d="m384 96v192h26a6 6 0 0 1 6 6v52a6 6 0 0 1 -6 6h-52a6 6 0 0 1 -6-6v-26h-288v26a6 6 0 0 1 -6 6h-52a6 6 0 0 1 -6-6v-52a6 6 0 0 1 6-6h26v-192h-26a6 6 0 0 1 -6-6v-52a6 6 0 0 1 6-6h52a6 6 0 0 1 6 6v26h288v-26a6 6 0 0 1 6-6h52a6 6 0 0 1 6 6v52a6 6 0 0 1 -6 6z"/></svg>