<svg viewBox="0 0 512 512"><path d="m500 96a12 12 0 0 0 12-12v-40a12 12 0 0 0 -12-12h-40a12 12 0 0 0 -12 12v20h-384v-20a12 12 0 0 0 -12-12h-40a12 12 0 0 0 -12 12v40a12 12 0 0 0 12 12h20v320h-20a12 12 0 0 0 -12 12v40a12 12 0 0 0 12 12h40a12 12 0 0 0 12-12v-20h384v20a12 12 0 0 0 12 12h40a12 12 0 0 0 12-12v-40a12 12 0 0 0 -12-12h-20v-320zm-84 276a12 12 0 0 1 -12 12h-168a12 12 0 0 1 -12-12v-84h-116a12 12 0 0 1 -12-12v-136a12 12 0 0 1 12-12h168a12 12 0 0 1 12 12v84h116a12 12 0 0 1 12 12z" opacity=".4"/><path d="m288 140v136a12 12 0 0 1 -12 12h-168a12 12 0 0 1 -12-12v-136a12 12 0 0 1 12-12h168a12 12 0 0 1 12 12z"/></svg>