<svg viewBox="0 0 512 512"><path d="m497.9 150.6-136.47-136.5a48 48 0 0 0 -33.89-14.1h-143.08a48 48 0 0 0 -33.89 14.1l-136.47 136.4a48 48 0 0 0 -14.1 33.9v143.1a48 48 0 0 0 14.1 33.9l136.47 136.5a48 48 0 0 0 33.89 14.1h143.08a48 48 0 0 0 33.89-14.1l136.47-136.5a48 48 0 0 0 14.1-33.9v-143a48 48 0 0 0 -14.1-33.9zm-73.51 172.4-101.39 101.38a26 26 0 0 1 -18.35 7.62h-97.3a26 26 0 0 1 -18.35-7.62l-101.39-101.38a26 26 0 0 1 -7.61-18.38v-97.33a26 26 0 0 1 7.62-18.39l101.38-101.29a26 26 0 0 1 18.35-7.61h97.3a26 26 0 0 1 18.35 7.62l101.39 101.38a26 26 0 0 1 7.61 18.38v97.24a26 26 0 0 1 -7.61 18.38z" opacity=".4"/><path d="m432 207.38v97.24a26 26 0 0 1 -7.61 18.38l-101.39 101.38a26 26 0 0 1 -18.35 7.62h-97.3a26 26 0 0 1 -18.35-7.62l-101.39-101.38a26 26 0 0 1 -7.61-18.38v-97.33a26 26 0 0 1 7.62-18.39l101.38-101.29a26 26 0 0 1 18.35-7.61h97.3a26 26 0 0 1 18.35 7.62l101.39 101.38a26 26 0 0 1 7.61 18.38z"/></svg>