<svg viewBox="0 0 640 512"><path d="m629.81 160.31-213.81 63.69-50.49-25.24a64.2 64.2 0 0 0 -28.61-6.76h-160.9l-138.28-25.14a31.93 31.93 0 0 0 -37.72 31.48v95a32 32 0 0 0 26.28 31.48l69.72 12.64v46.54a32 32 0 0 0 32 32h274.64a32 32 0 0 0 22.76-9.51l212.26-214.75a8 8 0 0 0 2.34-5.66v-18.08a8 8 0 0 0 -10.19-7.69zm-533.81 128.36-48-8.73v-62.43l48 8.73z" opacity=".4"/><path d="m592 288s-42.67 61.77-42.67 85.33a42.67 42.67 0 0 0 85.34 0c0-23.57-42.67-85.33-42.67-85.33zm-256-192h-160a16 16 0 0 0 -16 16v16a16 16 0 0 0 16 16h56v48h48v-48h56a16 16 0 0 0 16-16v-16a16 16 0 0 0 -16-16z"/></svg>