<svg viewBox="0 0 512 512"><path d="m339 39.37 21.6 21.56a10.43 10.43 0 0 0 14.75 0l21.57-21.56a10.43 10.43 0 0 0 0-14.75l-21.57-21.57a10.45 10.45 0 0 0 -14.76 0l-21.59 21.56a10.43 10.43 0 0 0 0 14.75zm115.29 27.89c-85.55 65.12-169 2.75-172.58 0a16 16 0 0 0 -23.8 20.35c1.61 3 40.37 72.34 118.8 72.34 79.92 0 98.78-31.36 101.75-37.66a15.78 15.78 0 0 0 1.53-6.83v-35.46a16 16 0 0 0 -25.7-12.74z" opacity=".4"/><path d="m224 384a64.07 64.07 0 0 0 -64-64h-33a15.92 15.92 0 0 1 -13.17-8.55l-16.18-32.18a16.08 16.08 0 0 1 14.35-23.27h31.9a48 48 0 1 0 -30.27-85.29 15.57 15.57 0 0 1 -19.2.21l-26.11-19.64a16.32 16.32 0 0 1 -1.12-24.93c25.11-23.74 59.86-34.71 96-28.78 43.16 7.08 79.42 40.64 89.52 83.19a112.69 112.69 0 0 1 -7.72 75.24h46.84a35.66 35.66 0 0 0 25.38-10.5l24.25-24.25a99.9 99.9 0 0 1 170.53 70.62v100.13c0 48.53-47.48 88-96 88-96 0-96-64-96-64v-37.88a8 8 0 0 1 14.2-5c15.11 18.63 42.38 42.88 81.8 42.88 13.24 0 32-10.77 32-24v-100.13a35.89 35.89 0 0 0 -61.26-25.38l-24.25 24.25a99.26 99.26 0 0 1 -70.65 29.26h-21.69c11 18.9 17.81 40.58 17.81 64 0 70.58-57.43 128-128 128-118.83 0-160.05-96-159.96-150.82 0-8.8 10.26-12.77 14.79-5.22 22.8 38 49.13 92 145.15 92a64.07 64.07 0 0 0 64.06-63.96z"/></svg>