<svg viewBox="0 0 512 512"><path d="m512 440v48a24 24 0 0 1 -24 24h-136a32 32 0 0 1 -32-32v-42.92a57.66 57.66 0 0 1 4-21.08h164a24 24 0 0 1 24 24zm-488-24a24 24 0 0 0 -24 24v48a24 24 0 0 0 24 24h136a32 32 0 0 0 32-32v-42.7a56.91 56.91 0 0 0 -4.15-21.3z" opacity=".4"/><path d="m56.61 416a254 254 0 0 1 -56.61-160c0-151.18 131.74-272.18 286.45-254.23 112.74 13.08 205.67 102.59 222.55 214.83 11.41 75.72-10.75 146.23-53.64 199.4h-131.36a63 63 0 0 1 22.92-28.62 159.66 159.66 0 0 0 69.08-131.38c0-99.51-91.32-178.1-194.56-156.36-62.49 13.16-112.1 65.08-123 128-11.3 65.36 17.46 125.15 65.68 159.07a66.53 66.53 0 0 1 23.73 29.29z"/></svg>