<svg viewBox="0 0 640 512"><path d="m544 192h-22.86l-92.47 49.79.19.39-.86-.18-34.57-70.71 118.57-59.29h126.67a96 96 0 0 1 -94.67 80z" opacity=".4"/><path d="m512 352h-28.22l-54.92-109.82-.86-.18-34.57-70.71 118.57-59.29h126.67a97 97 0 0 0 1.33-16v-32a32 32 0 0 0 -32-32h-32l-13.25-13.25a64 64 0 0 0 -45.26-18.75h-20.49a64 64 0 0 0 -31.75 8.43l-153.25 87.57h-56c-106 0-192 86-192 192v1.61c0 32.75-16 62.14-39.56 84.89a79.91 79.91 0 0 0 -23.19 71.8c6.75 38.8 42.9 65.7 82.28 65.7h108.47a32 32 0 0 0 0-64h-112a16 16 0 0 1 0-32h224a16 16 0 0 0 16-16v-16a32 32 0 0 0 -32-32h-64l149.49-80.5 74.51 144.5h80a16 16 0 0 0 16-16v-16a32 32 0 0 0 -32-32zm0-304a16 16 0 1 1 -16 16 16 16 0 0 1 16-16z"/></svg>