<svg viewBox="0 0 512 512"><path d="m386.27 102.7a22.92 22.92 0 0 0 -16.42-6.7h-227.7a22.92 22.92 0 0 0 -16.42 6.7c-38.02 39.01-61.73 93.2-61.73 153.3s23.71 114.28 61.73 153.29a22.93 22.93 0 0 0 16.42 6.71h227.7a22.93 22.93 0 0 0 16.42-6.71c38-39 61.73-93.19 61.73-153.29s-23.71-114.29-61.73-153.3zm-178.27 169.3a16 16 0 0 1 -16 16h-16a16 16 0 0 1 -16-16v-80a16 16 0 0 1 16-16h16a16 16 0 0 1 16 16zm80 80h-64v-16a32 32 0 0 1 64 0zm64-80a16 16 0 0 1 -16 16h-16a16 16 0 0 1 -16-16v-80a16 16 0 0 1 16-16h16a16 16 0 0 1 16 16z" opacity=".4"/><path d="m448 0h-384a64 64 0 0 0 -64 64v384a64 64 0 0 0 64 64h384a64 64 0 0 0 64-64v-384a64 64 0 0 0 -64-64zm-61.73 409.29a22.93 22.93 0 0 1 -16.42 6.71h-227.7a22.93 22.93 0 0 1 -16.42-6.71c-38.02-39.01-61.73-93.19-61.73-153.29s23.71-114.29 61.73-153.3a22.92 22.92 0 0 1 16.42-6.7h227.7a22.92 22.92 0 0 1 16.42 6.7c38 39 61.73 93.2 61.73 153.3s-23.71 114.28-61.73 153.29z"/></svg>