<svg viewBox="0 0 576 512"><path d="m160 64h176v64a16 16 0 0 0 16 16h64v64h64v-76.06a48.16 48.16 0 0 0 -14.09-34l-83.91-83.85a48 48 0 0 0 -33.91-14.09h-204.09a48.14 48.14 0 0 0 -48 48.07v159.93h64zm256 384h-256v-80h-64v96a48 48 0 0 0 48 48h288a48 48 0 0 0 48-48v-96h-64z" opacity=".4"/><path d="m243.6 256a19.59 19.59 0 0 0 -19.6 19.6v24.8a19.59 19.59 0 0 0 19.6 19.6h88.8a19.59 19.59 0 0 0 19.6-19.6v-24.8a19.59 19.59 0 0 0 -19.6-19.6zm316.4 0h-128a16 16 0 0 0 -16 16v32a16 16 0 0 0 16 16h128a16 16 0 0 0 16-16v-32a16 16 0 0 0 -16-16zm-400 48v-32a16 16 0 0 0 -16-16h-128a16 16 0 0 0 -16 16v32a16 16 0 0 0 16 16h128a16 16 0 0 0 16-16z"/></svg>