<svg viewBox="0 0 512 512"><path d="m204.29 5c-99.4 19.4-179.5 99.29-199.1 198.4-37 187 131.7 326.39 258.8 306.69 41.2-6.4 61.4-54.59 42.5-91.69-23.1-45.4 9.9-98.4 60.9-98.4h79.7c35.8 0 64.8-29.6 64.9-65.31-.5-157.56-143.9-281.56-307.7-249.69zm-108.29 315a32 32 0 1 1 32-32 32 32 0 0 1 -32 32zm32-128a32 32 0 1 1 32-32 32 32 0 0 1 -32 32zm128-64a32 32 0 1 1 32-32 32 32 0 0 1 -32 32zm128 64a32 32 0 1 1 32-32 32 32 0 0 1 -32 32z" opacity=".4"/><path d="m96 256a32 32 0 1 0 32 32 32 32 0 0 0 -32-32zm32-128a32 32 0 1 0 32 32 32 32 0 0 0 -32-32zm128-64a32 32 0 1 0 32 32 32 32 0 0 0 -32-32zm128 64a32 32 0 1 0 32 32 32 32 0 0 0 -32-32z"/></svg>