<svg viewBox="0 0 640 512"><path d="m560 64h-160a16 16 0 0 0 -16 16v160a16 16 0 0 0 16 16h160a16 16 0 0 0 16-16v-160a16 16 0 0 0 -16-16zm-256-64h-224a16 16 0 0 0 -16 16v224a16 16 0 0 0 16 16h224a16 16 0 0 0 16-16v-224a16 16 0 0 0 -16-16z" opacity=".4"/><path d="m624 384a16 16 0 0 0 16-16v-32a16 16 0 0 0 -16-16h-608a16 16 0 0 0 -16 16v32a16 16 0 0 0 16 16h48v64h-48a16 16 0 0 0 -16 16v32a16 16 0 0 0 16 16h608a16 16 0 0 0 16-16v-32a16 16 0 0 0 -16-16h-48v-64zm-336 64h-160v-64h160zm224 0h-160v-64h160z"/></svg>