<svg viewBox="0 0 512 512"><path d="m487.1 192-136.8 151.9c.7 2.7 1.6 5.2 1.6 8.1v128a32 32 0 0 1 -32 32h-128a32 32 0 0 1 -32-32v-128c0-2.9.9-5.5 1.6-8.1l-136.7-151.9h43.1l116.6 129.5c2.5-.6 4.8-1.5 7.5-1.5h48v-128h32v128h48c2.7 0 5 .9 7.5 1.5l116.6-129.5z" opacity=".4"/><path d="m.1 175c-1.1 9.1 6.8 17 16 17h79.9c0-75.1 26-136.3 62.4-175.7-79.9 26.4-149.2 83.2-158.3 158.7zm255.9-175c-59.1 0-128 76.8-128 192h256c0-115.2-68.9-192-128-192zm255.9 175c-9.1-75.6-78.4-132.4-158.3-158.7 36.4 39.4 62.4 100.6 62.4 175.7h79.8c9.3 0 17.2-7.8 16.1-17z"/></svg>