<svg viewBox="0 0 448 512"><path d="m272 224a32.09 32.09 0 0 1 -32 32h-48v-64h48a32.09 32.09 0 0 1 32 32zm176-144v352a48 48 0 0 1 -48 48h-352a48 48 0 0 1 -48-48v-352a48 48 0 0 1 48-48h352a48 48 0 0 1 48 48zm-112 144a96.15 96.15 0 0 0 -96-96h-96a16 16 0 0 0 -16 16v224a16 16 0 0 0 16 16h32a16 16 0 0 0 16-16v-48h48a96.15 96.15 0 0 0 96-96z" opacity=".4"/><path d="m240 128h-96a16 16 0 0 0 -16 16v224a16 16 0 0 0 16 16h32a16 16 0 0 0 16-16v-48h48a96 96 0 0 0 0-192zm0 128h-48v-64h48a32 32 0 0 1 0 64z"/></svg>