<svg viewBox="0 0 496 512"><path d="m168 352v-117.39l89.78 69.39h-25.78v48a16 16 0 0 1 -16 16h-32a16 16 0 0 1 -16-16zm192-128a80 80 0 0 0 -80-80h-96a16 16 0 0 0 -15 10.49l69.22 53.51h41.78a16 16 0 0 1 0 32h-.38l54.95 42.47a79.75 79.75 0 0 0 25.43-58.47z" opacity=".4"/><path d="m248 8c-137 0-248 111-248 248s111 248 248 248 248-111 248-248-111-248-248-248zm0 432c-101.46 0-184-82.54-184-184a182.66 182.66 0 0 1 21.17-85.41l286.39 221.35a183.06 183.06 0 0 1 -123.56 48.06zm162.83-98.59-286.39-221.35a183.06 183.06 0 0 1 123.56-48.06c101.46 0 184 82.54 184 184a182.66 182.66 0 0 1 -21.17 85.41z"/></svg>