<svg viewBox="0 0 640 512"><path d="m106.27 50.36a47.91 47.91 0 0 1 37.73-18.36h352a48 48 0 0 1 48 48v308.68l-134-103.59a95.93 95.93 0 0 0 -74-157.09h-96a16.06 16.06 0 0 0 -15.79 13.52zm229.73 141.64h-46.47l69.74 53.9a32 32 0 0 0 -23.27-53.9zm-48 176a16 16 0 0 1 -16 16h-32a16 16 0 0 1 -16-16v-64.86l-128-98.93v227.79a48 48 0 0 0 48 48h308.83l-164.83-127.4z" opacity=".4"/><path d="m3.37 31.45 19.63-25.27a16 16 0 0 1 22.47-2.81l588.35 454.73a16 16 0 0 1 2.82 22.45l-19.64 25.27a16 16 0 0 1 -22.46 2.81l-588.36-454.73a16 16 0 0 1 -2.81-22.45z"/></svg>