<svg viewBox="0 0 448 512"><path d="m224 64a128 128 0 1 0 128 128 128 128 0 0 0 -128-128zm94.38 112h-39.09c-1.49-27-6.53-51.35-14.21-70.41a95.85 95.85 0 0 1 53.3 70.41zm-188.76 32h39.09c1.49 27 6.53 51.35 14.21 70.41a95.87 95.87 0 0 1 -53.3-70.41zm39.09-32h-39.09a95.85 95.85 0 0 1 53.3-70.41c-7.67 19.06-12.72 43.41-14.21 70.41zm55.29 110.69c-7.69-7.45-20.77-34.43-23.44-78.69h46.87c-2.66 44.27-15.74 71.24-23.43 78.69zm-23.43-110.69c2.66-44.26 15.74-71.24 23.44-78.69 7.69 7.45 20.77 34.43 23.43 78.69zm64.51 102.41c7.68-19.06 12.72-43.41 14.21-70.41h39.09a95.85 95.85 0 0 1 -53.3 70.41z" opacity=".4"/><path d="m224 286.69c7.69-7.45 20.77-34.42 23.43-78.69h-46.87c2.67 44.26 15.75 71.24 23.44 78.69zm-94.38-78.69a95.87 95.87 0 0 0 53.3 70.41c-7.68-19.06-12.72-43.41-14.21-70.41zm0-32h39.09c1.49-27 6.54-51.35 14.21-70.41a95.85 95.85 0 0 0 -53.3 70.41zm135.46-70.41c7.68 19.06 12.72 43.41 14.21 70.41h39.09a95.85 95.85 0 0 0 -53.3-70.41zm-64.51 70.41h46.87c-2.66-44.26-15.74-71.24-23.43-78.69-7.7 7.45-20.78 34.43-23.44 78.69zm215.43-176h-352a64 64 0 0 0 -64 64v384a64 64 0 0 0 64 64h352a32 32 0 0 0 32-32v-448a32 32 0 0 0 -32-32zm-80 416h-224a16 16 0 0 1 0-32h224a16 16 0 0 1 0 32zm-112-96a128 128 0 1 1 128-128 128 128 0 0 1 -128 128zm41.08-41.59a95.85 95.85 0 0 0 53.3-70.41h-39.09c-1.49 27-6.53 51.35-14.21 70.41z"/></svg>