<svg viewBox="0 0 448 512"><path d="m144 31h-96a48 48 0 0 0 -48 48v352a48 48 0 0 0 48 48h96a48 48 0 0 0 48-48v-352a48 48 0 0 0 -48-48zm-16 368a16 16 0 0 1 -16 16h-32a16 16 0 0 1 -16-16v-288a16 16 0 0 1 16-16h32a16 16 0 0 1 16 16zm272-368h-96a48 48 0 0 0 -48 48v352a48 48 0 0 0 48 48h96a48 48 0 0 0 48-48v-352a48 48 0 0 0 -48-48zm-16 368a16 16 0 0 1 -16 16h-32a16 16 0 0 1 -16-16v-288a16 16 0 0 1 16-16h32a16 16 0 0 1 16 16z" opacity=".4"/><path d="m112 95h-32a16 16 0 0 0 -16 16v288a16 16 0 0 0 16 16h32a16 16 0 0 0 16-16v-288a16 16 0 0 0 -16-16zm256 0h-32a16 16 0 0 0 -16 16v288a16 16 0 0 0 16 16h32a16 16 0 0 0 16-16v-288a16 16 0 0 0 -16-16z"/></svg>