<svg viewBox="0 0 512 512"><path d="m256 8c-137 0-248 111-248 248s111 248 248 248 248-111 248-248-111-248-248-248zm-16 328a16 16 0 0 1 -16 16h-48a16 16 0 0 1 -16-16v-160a16 16 0 0 1 16-16h48a16 16 0 0 1 16 16zm112 0a16 16 0 0 1 -16 16h-48a16 16 0 0 1 -16-16v-160a16 16 0 0 1 16-16h48a16 16 0 0 1 16 16z" opacity=".4"/><path d="m224 160h-48a16 16 0 0 0 -16 16v160a16 16 0 0 0 16 16h48a16 16 0 0 0 16-16v-160a16 16 0 0 0 -16-16zm112 0h-48a16 16 0 0 0 -16 16v160a16 16 0 0 0 16 16h48a16 16 0 0 0 16-16v-160a16 16 0 0 0 -16-16z"/></svg>