<svg viewBox="0 0 448 512"><path d="m416 384a96 96 0 0 1 -96 96c-51.71 1.76-72.19-32-96-32s-44.29 33.75-96 32a95.76 95.76 0 0 1 -47.32-179.22c27.05-15.27 46.88-60.87 67.17-97.83 15.74-28.64 45.94-42.95 76.15-42.95s60.41 14.31 76.14 42.95c20 36.42 40.88 83 67.17 97.83a95.32 95.32 0 0 1 48.69 83.22z" opacity=".4"/><path d="m400 144a48 48 0 1 0 48 48 48 48 0 0 0 -48-48zm-96-112a48 48 0 1 0 48 48 48 48 0 0 0 -48-48zm-256 112a48 48 0 1 0 48 48 48 48 0 0 0 -48-48zm96-112a48 48 0 1 0 48 48 48 48 0 0 0 -48-48z"/></svg>