<svg viewBox="0 0 496 512"><path d="m409.54 344.25a184.93 184.93 0 0 1 -31.43 41.86q-4.2 4.18-8.61 8.07l-89.5-71.6v114.66a186.89 186.89 0 0 1 -64 0v-114.66l-89.5 71.6q-4.41-3.89-8.61-8.07a184.93 184.93 0 0 1 -31.43-41.86l129.54-103.63v-165.86a186.89 186.89 0 0 1 64 0v165.86z" opacity=".4"/><path d="m248 8c-137 0-248 111-248 248s111 248 248 248 248-111 248-248-111-248-248-248zm130.11 378.11a184 184 0 0 1 -260.22 0 183.93 183.93 0 0 1 0-260.21c71.74-72 188.25-72.15 260.21-.41s72.16 188.25.41 260.22z"/></svg>