<svg viewBox="0 0 576 512"><path d="m64.36 215.74a39.92 39.92 0 0 0 -16.36 32.26v56a16 16 0 0 1 -16 16h-16a16 16 0 0 1 -16-16v-56a88 88 0 0 1 88-88h.46a95.62 95.62 0 0 0 -24.1 55.74z" opacity=".4"/><path d="m567.34 54.8c-3.78-4-8.58-9.12-13.69-14.5 11.06-6.84 19.5-17.49 22.18-30.66a8.09 8.09 0 0 0 -7.93-9.64h-120a128 128 0 0 0 -128 128c-63.9 0-104.18-36.78-127.64-90.27-3.22-7.35-13.61-7.76-17-.5a158.37 158.37 0 0 0 -15.26 67.87c0 67 51 133.09 128 147.74v3.16c-82.89 0-143.33-57.52-157-122.86q-1.5.49-3 1v-.7a95.72 95.72 0 0 0 -33.46 160.44l-25.72 68.6a63.94 63.94 0 0 0 -2.16 38l24.85 99.41a16 16 0 0 0 15.49 12.11h66a16 16 0 0 0 15.52-19.88l-26.33-105.26 23.81-63.59 134 22.33v150.4a16 16 0 0 0 16 16h64a16 16 0 0 0 16-16v-177.78a111.55 111.55 0 0 0 32-78.22c0-.22-.07-.42-.08-.64v-102.47l16 7.11 18.9 37.7a32 32 0 0 0 40.49 15.37l32.55-13a32 32 0 0 0 20.14-29.76l-.06-77.71a31.76 31.76 0 0 0 -8.6-21.8zm-55.42 41.2a16 16 0 1 1 16-16 16 16 0 0 1 -16 16z"/></svg>