<svg viewBox="0 0 448 512"><path d="m400 32h-352a48 48 0 0 0 -48 48v352a48 48 0 0 0 48 48h352a48 48 0 0 0 48-48v-352a48 48 0 0 0 -48-48zm-97.8 210-135.7 135.7-57.1 6.3a12.11 12.11 0 0 1 -13.3-13.3l6.3-57.1 135.7-135.7a6.13 6.13 0 0 1 8.6.1l55.5 55.5a6.1 6.1 0 0 1 0 8.5zm42.8-43-23.1 23.1a6.1 6.1 0 0 1 -8.5 0l-55.5-55.5a6.1 6.1 0 0 1 0-8.5l23.1-23.1a23.9 23.9 0 0 1 33.9 0l30.1 30.1a24.08 24.08 0 0 1 0 33.9z" opacity=".4"/><path d="m345 165.1-30.1-30.1a23.9 23.9 0 0 0 -33.9 0l-23.1 23.1a6.1 6.1 0 0 0 0 8.5l55.5 55.5a6.1 6.1 0 0 0 8.5 0l23.1-23.1a24.08 24.08 0 0 0 0-33.9zm-98.3 12.9a6.13 6.13 0 0 0 -8.6-.1l-135.7 135.7-6.3 57.1a12.11 12.11 0 0 0 13.3 13.3l57.1-6.3 135.7-135.7a6.1 6.1 0 0 0 0-8.5z"/></svg>