<svg viewBox="0 0 512 512"><path d="m21.08 133 99.11 100.33 95.81-95.81-70-104.41c-61.94-88.4-198.15 19.42-124.92 99.89zm435.68 258.63a15.26 15.26 0 0 1 -14.59-10c-18.13-47.78-48.4-65.38-82.65-70.71l-101.69 101.7c8.82 63.38 57.6 99.38 126.17 99.38 90.07 0 128-72.38 128-154.73-9.78 6.73-44.14 34.36-55.24 34.36z" opacity=".4"/><path d="m19.08 379.68-18.75 107.44a21.23 21.23 0 0 0 24.59 24.56l107.44-18.84 296.93-296.93-113.21-113.19zm478.86-320.36-45.26-45.25a48 48 0 0 0 -67.94 0l-46 46 113.2 113.2 46-46a48 48 0 0 0 0-67.95z"/></svg>