<svg viewBox="0 0 512 512"><path d="m138.25 127.05a7.92 7.92 0 0 1 -11.2 0l-11.21-11.21a7.92 7.92 0 0 1 0-11.21l61.66-61.63-33.63-33.7a31.73 31.73 0 0 0 -44.87 0l-89.71 89.7a31.74 31.74 0 0 0 0 44.86l100.17 100.19 134.54-134.56-44.08-44.12zm364.46 241.1-33.63-33.64-61.68 61.68a7.92 7.92 0 0 1 -11.21 0l-11.19-11.19a7.92 7.92 0 0 1 0-11.21l61.68-61.68-44.16-44.11-134.58 134.51 100.21 100.2a31.7 31.7 0 0 0 44.85 0l89.71-89.71a31.72 31.72 0 0 0 0-44.85z" opacity=".4"/><path d="m497.94 59.32-45.25-45.25a48.05 48.05 0 0 0 -67.95 0l-46 46 113.21 113.2 46-46a48 48 0 0 0 -.01-67.95zm-478.86 320.36-18.75 107.44a21.23 21.23 0 0 0 24.59 24.56l107.45-18.84 296.92-296.93-113.21-113.19z"/></svg>