<svg viewBox="0 0 512 512"><path d="m0 456a56 56 0 0 1 56-56c141.58 0 163.44-181.24 221.92-250.82l52.75 24.22v89.7h107.46l37.05 38.54c-48.53 87.47-206.54 210.36-419.18 210.36a56 56 0 0 1 -56-56z" opacity=".4"/><path d="m362.67 152.86-74.67-34.29c22.34-14 48.34-22.59 76.34-22.59a142.91 142.91 0 0 1 57.16 12c18.45-37.22 8.26-62 1.4-72.32a8.07 8.07 0 0 1 .89-10.23l22.9-23a6.67 6.67 0 0 1 .68-.62 8 8 0 0 1 11.25 1.19c18.56 23.48 35.3 71.91 3.14 131.75a154 154 0 0 1 50.24 113.92c0 13.68-2.3 26.69-5.56 39.31l-54.68-56.88h-89.09z"/></svg>