<svg viewBox="0 0 576 512"><path d="m192 32v160h64v-192h-32a32 32 0 0 0 -32 32zm0 464a16 16 0 0 0 16 16h32a16 16 0 0 0 16-16v-176h-64zm-128-464a48 48 0 1 0 48 48 48 48 0 0 0 -48-48zm480-32h-32v496a16 16 0 0 0 16 16h32a16 16 0 0 0 16-16v-464a32 32 0 0 0 -32-32z" opacity=".4"/><path d="m288 0v32l31.5 223.1-30.9 154.6c-4.3 21.6 13 38.3 31.4 38.3 15.2 0 28-9.1 32.3-30.4a31.87 31.87 0 0 0 63.7-1.6 32 32 0 0 0 64 0v-416zm-64 224h-50.9l-45.2-45.3a63.55 63.55 0 0 0 -45.2-18.7h-18.7a64 64 0 0 0 -64 64.1l.2 95.9-.2 160a32 32 0 1 0 63.9 0l.1-100.7c.9.5 1.6 1.3 2.5 1.7l29.1 43v56a32 32 0 0 0 64 0v-56.5a64.27 64.27 0 0 0 -6.7-28.6l-41.2-61.3v-80.6l20.9 20.9a47.58 47.58 0 0 0 33.9 14.1h57.5a32 32 0 0 0 0-64z"/></svg>