<svg viewBox="0 0 512 512"><path d="m144 0a48 48 0 1 0 48 48 48.08 48.08 0 0 0 -48-48zm357.5 66.6-180.42-65.6a16 16 0 0 0 -20.5 9.6l-43.8 120.3a16 16 0 0 0 9.6 20.5l180.5 65.6a16 16 0 0 0 20.5-9.6l43.62-120.3a15.93 15.93 0 0 0 -9.52-20.5z" opacity=".4"/><path d="m321 212-47.8-16-49.3-49.3a63.47 63.47 0 0 0 -45.2-18.8h-62.9a63.63 63.63 0 0 0 -57.2 35.4l-55.22 110.4a32 32 0 1 0 57.2 28.6l19.42-38.7v54.8l-15.92 158.4a32 32 0 0 0 28.6 35c1.1.1 2.2.2 3.2.2a32.05 32.05 0 0 0 31.8-28.8l13.2-131.2h15.3l35.82 71.5v56.5a32 32 0 0 0 64 0v-56.5a64.27 64.27 0 0 0 -6.7-28.6l-41.2-82.5v-91.2l20 20a65 65 0 0 0 25 15.5l46.1 15.4-11.2 30.8a16 16 0 0 0 9.6 20.5l15 5.5a16 16 0 0 0 20.5-9.6l46.19-126.87-45.29-16.43zm108.68-205.5-15-5.5a16 16 0 0 0 -20.5 9.6l-5.49 15 45.1 16.4 5.49-15a16 16 0 0 0 -9.6-20.5z"/></svg>