<svg viewBox="0 0 512 512"><path d="m511.74 404.81-8.2-30.9a8 8 0 0 0 -9.77-5.71l-154.1 41.3a63.53 63.53 0 0 0 -40.9-24.5l-59.4-221.6a8 8 0 0 0 -9.77-5.71l-30.9 8.3a8 8 0 0 0 -5.71 9.77l58.9 220a63.87 63.87 0 1 0 100 60.1l154.11-41.28a8 8 0 0 0 5.74-9.77zm-223.01 59.19a16 16 0 1 1 16-16 16 16 0 0 1 -16 16zm-208.73-464h-.1a48.05 48.05 0 1 0 .1 0z" opacity=".4"/><path d="m479 320.9-31.4-116.9a16 16 0 0 0 -19.6-11.3l-117 31.3a16 16 0 0 0 -11.3 19.6l31.4 116.9a16 16 0 0 0 19.6 11.3l117-31.3a16 16 0 0 0 11.3-19.6zm-479 159a32 32 0 0 0 64 0v-74.5c-16-13.7-63.5-54.6-64-55.1zm128-192h94.8l-17.1-64h-39l-33.3-61.8a63.83 63.83 0 0 0 -56.7-34.2h-28.7a48 48 0 0 0 -48 48v103a64.07 64.07 0 0 0 22.4 48.6l76 65.1 14.1 92.5c1 5.7 10.1 30.7 36.8 26.3a32 32 0 0 0 26.3-36.8l-14.1-92.5a64.4 64.4 0 0 0 -21.5-38.1l-44-37.7v-78.3z"/></svg>