<svg viewBox="0 0 448 512"><path d="m400 32h-352a48 48 0 0 0 -48 48v352a48 48 0 0 0 48 48h352a48 48 0 0 0 48-48v-352a48 48 0 0 0 -48-48zm-306 384a15 15 0 0 1 -14.62-11.63l-15-65a15 15 0 0 1 8.7-17.16l70-30a15 15 0 0 1 17.52 4.29l31 37.89a231.87 231.87 0 0 0 110.79-110.78l-37.89-31a15 15 0 0 1 -4.29-17.52l30-70a15 15 0 0 1 17.16-8.7l65 15a15 15 0 0 1 11.63 14.61c0 160.29-129.95 290-290 290z" opacity=".4"/><path d="m73.09 322.21 70-30a15 15 0 0 1 17.52 4.29l31 37.89a231.91 231.91 0 0 0 110.78-110.78l-37.89-31a15 15 0 0 1 -4.29-17.52l30-70a15 15 0 0 1 17.16-8.7l65 15a15 15 0 0 1 11.63 14.61c0 160.29-129.94 290-290 290a15 15 0 0 1 -14.62-11.63l-15-65a15 15 0 0 1 8.71-17.16z"/></svg>