<svg viewBox="0 0 512 512"><path d="m191.18 154.51a23.9 23.9 0 0 0 6.91-28l-48-112a24.16 24.16 0 0 0 -27.5-13.9l-16.59 3.82 69.73 162.69zm153.6 181.62 162.81 69.77 3.8-16.49a24.3 24.3 0 0 0 -14-27.61l-112-48a24 24 0 0 0 -28 6.91zm-344.78-288.13c0 256.5 207.9 464 464 464a24 24 0 0 0 23.4-18.59l12.89-55.82-176.61-75.69-15.88 19.4a370.59 370.59 0 0 1 -177.21-177.2l19.41-15.87-75.66-176.49-55.75 12.87a24 24 0 0 0 -18.59 23.39z" opacity=".4"/><path d="m74.34 11.74 75.66 176.49 25.79-21.11-69.79-162.69zm270.44 324.39-21.1 25.77 176.6 75.69 7.31-31.69z"/></svg>