<svg viewBox="0 0 512 512"><path d="m256 240a72 72 0 1 0 72 72 72 72 0 0 0 -72-72zm250.18-117c-69.42-58-158.8-91-250.18-91s-180.76 33-250.18 91a16.45 16.45 0 0 0 -5.82 12.64v56.36a16 16 0 0 0 16 16h70.11a16 16 0 0 0 14.31-8.85l27.58-71.15c39.9-17.28 83.2-24 128-24 44.77 0 88.07 6.72 128 24l27.58 71.15a16 16 0 0 0 14.31 8.85h70.11a16 16 0 0 0 16-16v-56.36a16.45 16.45 0 0 0 -5.82-12.64z" opacity=".4"/><path d="m475.78 376.62-105.35-184.37a64 64 0 0 0 -55.57-32.25h-117.72a64 64 0 0 0 -55.57 32.25l-105.35 184.37a32 32 0 0 0 -4.22 15.88v55.5a32 32 0 0 0 32 32h384a32 32 0 0 0 32-32v-55.5a32 32 0 0 0 -4.22-15.88zm-219.78 7.38a72 72 0 1 1 72-72 72 72 0 0 1 -72 72z"/></svg>