<svg viewBox="0 0 576 512"><path d="m192 0h-64a32 32 0 0 0 -32 32v352a32 32 0 0 0 32 32h64a32 32 0 0 0 32-32v-352a32 32 0 0 0 -32-32zm304 384h-32a16 16 0 0 0 -16 16v32a16 16 0 0 0 16 16h32a16 16 0 0 0 16-16v-32a16 16 0 0 0 -16-16zm0-128h-32a16 16 0 0 0 -16 16v32a16 16 0 0 0 16 16h32a16 16 0 0 0 16-16v-32a16 16 0 0 0 -16-16zm-128 128h-32a16 16 0 0 0 -16 16v32a16 16 0 0 0 16 16h32a16 16 0 0 0 16-16v-32a16 16 0 0 0 -16-16zm0-128h-32a16 16 0 0 0 -16 16v32a16 16 0 0 0 16 16h32a16 16 0 0 0 16-16v-32a16 16 0 0 0 -16-16z" opacity=".4"/><path d="m528 32h-272v352a64.07 64.07 0 0 1 -64 64h-64a64.07 64.07 0 0 1 -64-64v-352h-16a48 48 0 0 0 -48 48v384a48 48 0 0 0 48 48h480a48 48 0 0 0 48-48v-384a48 48 0 0 0 -48-48zm-144 400a16 16 0 0 1 -16 16h-32a16 16 0 0 1 -16-16v-32a16 16 0 0 1 16-16h32a16 16 0 0 1 16 16zm0-128a16 16 0 0 1 -16 16h-32a16 16 0 0 1 -16-16v-32a16 16 0 0 1 16-16h32a16 16 0 0 1 16 16zm128 128a16 16 0 0 1 -16 16h-32a16 16 0 0 1 -16-16v-32a16 16 0 0 1 16-16h32a16 16 0 0 1 16 16zm0-128a16 16 0 0 1 -16 16h-32a16 16 0 0 1 -16-16v-32a16 16 0 0 1 16-16h32a16 16 0 0 1 16 16zm0-112h-192v-96h192z"/></svg>