<svg viewBox="0 0 448 512"><path d="m400 32h-352a48 48 0 0 0 -48 48v352a48 48 0 0 0 48 48h352a48 48 0 0 0 48-48v-352a48 48 0 0 0 -48-48zm-16.38 307.37-15 65a15 15 0 0 1 -14.62 11.63c-160 0-290-129.71-290-290a15 15 0 0 1 11.63-14.61l65-15a15 15 0 0 1 17.16 8.7l30 70a15 15 0 0 1 -4.29 17.52l-37.89 31a231.94 231.94 0 0 0 110.79 110.78l31-37.89a15 15 0 0 1 17.52-4.29l70 30a15 15 0 0 1 8.7 17.16z" opacity=".4"/><path d="m383.62 339.37-15 65a15 15 0 0 1 -14.62 11.63c-160.06 0-290-129.71-290-290a15 15 0 0 1 11.63-14.61l65-15a15 15 0 0 1 17.16 8.7l30 70a15 15 0 0 1 -4.29 17.52l-37.89 31a231.92 231.92 0 0 0 110.78 110.78l31-37.89a15 15 0 0 1 17.52-4.29l70 30a15 15 0 0 1 8.71 17.16z"/></svg>