<svg viewBox="0 0 512 512"><path d="m144 16v64h64a16 16 0 0 1 16 16v32a16 16 0 0 1 -16 16h-64v64a16 16 0 0 1 -16 16h-32a16 16 0 0 1 -16-16v-64h-64a16 16 0 0 1 -16-16v-32a16 16 0 0 1 16-16h64v-64a16 16 0 0 1 16-16h32a16 16 0 0 1 16 16z" opacity=".4"/><path d="m512 48c0 256.5-207.9 464-464 464a24 24 0 0 1 -23.4-18.6l-24-104a24.29 24.29 0 0 1 14-27.6l112-48a24 24 0 0 1 28 6.9l49.6 60.6a370.61 370.61 0 0 0 177.2-177.2l-60.6-49.6a23.94 23.94 0 0 1 -6.9-28l48-112a24.16 24.16 0 0 1 27.51-13.89l104 24a24 24 0 0 1 18.59 23.39z"/></svg>