<svg viewBox="0 0 512 512"><path d="m336.23 167.12 69.77-162.69-16.59-3.82a24.16 24.16 0 0 0 -27.5 13.9l-48 112a23.9 23.9 0 0 0 6.91 28zm-181.63 153.59a24 24 0 0 0 -28-6.91l-112 48a24.3 24.3 0 0 0 -14 27.61l3.8 16.49 162.81-69.77zm338.81-296.1-55.75-12.87-75.66 176.49 19.39 15.87a370.59 370.59 0 0 1 -177.19 177.2l-15.88-19.4-176.6 75.69 12.89 55.82a24 24 0 0 0 23.39 18.59c256.1 0 464-207.49 464-464a24 24 0 0 0 -18.59-23.39z" opacity=".4"/><path d="m406 4.43-69.77 162.69 25.77 21.11 75.66-176.49zm-401.59 401.47 7.31 31.69 176.6-75.69-21.1-25.77z"/></svg>