<svg viewBox="0 0 512 512"><path d="m512 384v96a32 32 0 0 1 -32 32h-448a32 32 0 0 1 -32-32v-96h48v80h416v-80z" opacity=".4"/><path d="m512 327.55v56.45h-80v40a8 8 0 0 1 -8 8h-16a8 8 0 0 1 -8-8v-40h-32v40a8 8 0 0 1 -8 8h-16a8 8 0 0 1 -8-8v-40h-96v40a8 8 0 0 1 -8 8h-16a8 8 0 0 1 -8-8v-40h-32v40a8 8 0 0 1 -8 8h-16a8 8 0 0 1 -8-8v-40h-32v40a8 8 0 0 1 -8 8h-16a8 8 0 0 1 -8-8v-40h-80v-199.55a184.45 184.45 0 0 1 184.45-184.45h15.1a184.45 184.45 0 0 1 184.45 184.45 64 64 0 0 0 35.38 57.24l57.24 28.62a64 64 0 0 1 35.38 57.24z"/></svg>