<svg viewBox="0 0 576 512"><path d="m560 224h-29.51a159.88 159.88 0 0 0 -37.38-52.46l18.89-75.54h-32c-29.4 0-55.39 13.5-73 34.32-7.57-1.1-15.12-2.32-23-2.32h-128c-94.82 0-160 78.88-160 160a159.75 159.75 0 0 0 64 128v80a16 16 0 0 0 16 16h64a16 16 0 0 0 16-16v-48h128v48a16 16 0 0 0 16 16h64a16 16 0 0 0 16-16v-80.72a160.37 160.37 0 0 0 31.28-31.28h48.72a16 16 0 0 0 16-16v-128a16 16 0 0 0 -16-16zm-128 64a16 16 0 1 1 16-16 16 16 0 0 1 -16 16z" opacity=".4"/><path d="m51.26 255.52a24 24 0 0 1 -18.74-28.3c2.22-11.4 12.88-19.22 24.48-19.22h1a6 6 0 0 0 6-6v-20a6 6 0 0 0 -6-6c-28.5 0-53.9 20.4-57.53 48.62a54.64 54.64 0 0 0 -.47 7.23 56.08 56.08 0 0 0 56 56.15h40a155.05 155.05 0 0 1 3.37-32h-43.37a23.63 23.63 0 0 1 -4.74-.48zm380.74.48a16 16 0 1 0 16 16 16 16 0 0 0 -16-16zm-125.5-256a96 96 0 0 0 -88.81 132.51 162.64 162.64 0 0 1 38.31-4.51h128a104.31 104.31 0 0 1 12.71.88 96.06 96.06 0 0 0 -90.21-128.88z"/></svg>