<svg viewBox="0 0 512 512"><path d="m100.39 112.19-99.85 379.45a16.2 16.2 0 0 0 20 19.75l379-105.1c-4.27-174.89-123.08-292.14-299.15-294.1zm27.61 303.81a32 32 0 1 1 32-32 32 32 0 0 1 -32 32zm48-152a32 32 0 1 1 32-32 32 32 0 0 1 -32 32zm104 104a32 32 0 1 1 32-32 32 32 0 0 1 -32 32z" opacity=".4"/><path d="m128 352a32 32 0 1 0 32 32 32 32 0 0 0 -32-32zm48-152a32 32 0 1 0 32 32 32 32 0 0 0 -32-32zm335.76 145.86c-20.88-180.78-170.99-328.54-352.9-345.71-16.16-1.52-31.2 8.42-35.33 24.12l-14.81 56.27c187.62 5.46 314.54 130.61 322.48 317l56.94-15.78c15.72-4.36 25.49-19.68 23.62-35.9zm-231.76-41.86a32 32 0 1 0 32 32 32 32 0 0 0 -32-32z"/></svg>