<svg viewBox="0 0 512 512"><path d="m323.33815 323.33517c-136.37876 136.37501-277.07795 216.77576-314.27038 179.58133-23.48893-23.4909.01172-88.30917 54.81792-167.21379a206.56361 206.56361 0 0 0 25.02022 43.78446c-22.45765 34.20607-32.036 58.99194-23.71941 67.31053 18.59817 18.59624 119.10094-51.75539 224.47885-157.13342 105.3779-105.37608 175.7314-205.88092 157.13323-224.47716-8.32054-8.3186-33.10638 1.26176-67.31045 23.71748a206.52984 206.52984 0 0 0 -43.78245-25.0183c78.90451-54.8043 143.72271-78.30889 167.21164-54.81798 37.19243 37.19248-43.20823 177.89379-179.57917 314.26685z" opacity=".4"/><path d="m448.0994 176.28016c-31.96573 46.02281-74.52549 96.81528-124.76125 147.055-50.24357 50.24168-101.034 92.79954-147.05874 124.76531 75.41614 31.25675 165.47721 16.29343 226.79531-45.02474s76.28335-151.37739 45.02468-226.79557zm-25.02022-43.78251a208.22535 208.22535 0 0 0 -20.00446-23.58665c-81.2288-81.23281-212.93555-81.23281-294.16435 0-81.22881 81.23085-81.22881 212.93385 0 294.1647a208.25527 208.25527 0 0 0 23.58663 20.00453c42.25117-27.73908 98.93242-75.1799 157.1684-133.41595 58.23593-58.2341 105.67473-114.90955 133.41378-157.16663z"/></svg>