<svg viewBox="0 0 576 512"><path d="m197.2 200.4c-32.6 1 150.5-.4 150.5-.4l-38.6-72h14.9a12 12 0 0 0 12-12v-40a12 12 0 0 0 -12-12h-49.2l-31.3-58.3a12.18 12.18 0 0 0 -10.2-5.7h-57.8a11.94 11.94 0 0 0 -11.6 15zm0 111.2-33.3 185.4a12 12 0 0 0 11.6 15h57.8a12 12 0 0 0 10.2-5.7l31.3-58.3h49.2a12 12 0 0 0 12-12v-40a12 12 0 0 0 -12-12h-14.9l38.6-72s-183.1-1.4-150.5-.4z" opacity=".4"/><path d="m576 256c0 30.9-46.6 56-104 56l-274.8-.4a755.21 755.21 0 0 1 -89.9-7.8l-39.8 66.4a12.08 12.08 0 0 1 -10.3 5.8h-42.6a12 12 0 0 1 -11.7-14.4l16.5-82.8c-12.5-6.9-19.4-14.7-19.4-22.8s6.9-15.9 19.4-22.8l-16.6-82.8a12 12 0 0 1 11.8-14.4h42.6a12.08 12.08 0 0 1 10.3 5.8l39.8 66.4a755.21 755.21 0 0 1 89.9-7.8l274.8-.4c57.4 0 104 25.1 104 56z"/></svg>