<svg viewBox="0 0 640 512"><path d="m640 464v32a16 16 0 0 1 -16 16h-608a16 16 0 0 1 -16-16v-32a16 16 0 0 1 16-16h608a16 16 0 0 1 16 16z" opacity=".4"/><path d="m32.23 182.41-.23-101.78a16.52 16.52 0 0 1 20.72-15.88l39.73 10.83a16.54 16.54 0 0 1 11 9.93l27.59 67.88 102.2 27.84-47.9-164.23a16.51 16.51 0 0 1 20.71-16.42l65.09 17.73a16.62 16.62 0 0 1 11.66 11.91l100.36 191.85 97.51 26.56c26.48 7.21 51.55 20.18 70.83 40 21.64 22.25 27.2 40.46 23.37 55s-17.58 27.37-47.25 35.67c-26.44 7.36-54.52 5.85-81-1.36l-287.62-78.35a62.52 62.52 0 0 1 -25.47-13.93l-88.74-80c-6.53-5.91-12.37-14.34-12.56-23.25z"/></svg>