<svg viewBox="0 0 640 512"><path d="m32.48 147.87 31.52 108.13-31.52 108.12a16 16 0 0 0 15.52 19.88h40a16 16 0 0 0 12.8-6.41l43.2-57.59h102.85l-49 171.59a16 16 0 0 0 15.35 20.41h65.5a16 16 0 0 0 13.89-8.06l66.6-116.54-324.84-251.06a15.46 15.46 0 0 0 -1.87 11.53zm479.52 44.13h-114.3l-105.1-183.94c-2.54-4.45-8.76-8.06-13.89-8.06h-65.51a16 16 0 0 0 -15.38 20.39l36.94 129.29 220.38 170.32h56.86c35.34 0 96-28.66 96-64s-60.66-64-96-64z" opacity=".4"/><path d="m6.18 53.91a16 16 0 0 1 -2.81-22.45l19.63-25.27a16 16 0 0 1 22.46-2.81l588.36 454.72a16 16 0 0 1 2.81 22.45l-19.63 25.27a16 16 0 0 1 -22.45 2.81z"/></svg>