<svg viewBox="0 0 576 512"><path d="m448 288c0 123.71289-100.28906 224-224 224s-224-100.28711-224-224a223.139 223.139 0 0 1 18.20312-88.4375c16.24219 28.99805 41.51954 56.4375 71.51563 56.43555l25.02734.00195a32.00934 32.00934 0 0 1 22.62891 9.37109l54.625 54.62891v32a32.00158 32.00158 0 0 0 32 32c-.00781 0-.00391 39.58984 0 63.06836a16.03058 16.03058 0 0 0 17.60547 15.98437q5.25587-.5625 10.418-1.43359a28.68661 28.68661 0 0 0 20.89453-15.45314l40.32422-80.64844a63.99788 63.99788 0 0 0 6.75778-28.62694v-16.89062a32.00033 32.00033 0 0 0 -32-32h-64.54688a37.32164 37.32164 0 0 1 -26.38281-10.92773 32.00089 32.00089 0 0 1 -1.54687-43.58985l49.72656-57.35742a64.01635 64.01635 0 0 0 10.75-35.50391c0-9.418-18.28906-47.91015-35.97656-76.41992l3.97656-.20117c123.71094 0 224 100.28516 224 224z" opacity=".4"/><path d="m512 0a64 64 0 1 0 64 64 64.00066 64.00066 0 0 0 -64-64zm-224 288h-64.54688a37.32164 37.32164 0 0 1 -26.38281-10.92773 32.00089 32.00089 0 0 1 -1.54687-43.58985l49.72656-57.35742a64.01635 64.01635 0 0 0 10.75-35.50391c0-9.418-18.28906-47.91015-35.97656-76.41992a223.91914 223.91914 0 0 0 -201.82032 135.36133c16.24219 28.99805 41.51954 56.4375 71.51563 56.43555l25.02734.00195a32.00934 32.00934 0 0 1 22.62891 9.37109l54.625 54.62891v32a32.00158 32.00158 0 0 0 32 32c-.00781 0-.00391 39.58984 0 63.06836a16.03058 16.03058 0 0 0 17.60547 15.98437q5.25587-.5625 10.418-1.43359a28.68661 28.68661 0 0 0 20.89453-15.45314l40.32422-80.64844a63.99788 63.99788 0 0 0 6.75778-28.62694v-16.89062a32.00033 32.00033 0 0 0 -32-32z"/></svg>