<svg viewBox="0 0 448 512"><path d="m400 32h-352a48 48 0 0 0 -48 48v352a48 48 0 0 0 48 48h352a48 48 0 0 0 48-48v-352a48 48 0 0 0 -48-48zm-32 252a12 12 0 0 1 -12 12h-92v92a12 12 0 0 1 -12 12h-56a12 12 0 0 1 -12-12v-92h-92a12 12 0 0 1 -12-12v-56a12 12 0 0 1 12-12h92v-92a12 12 0 0 1 12-12h56a12 12 0 0 1 12 12v92h92a12 12 0 0 1 12 12z" opacity=".4"/><path d="m80 228a12 12 0 0 1 12-12h92v-92a12 12 0 0 1 12-12h56a12 12 0 0 1 12 12v92h92a12 12 0 0 1 12 12v56a12 12 0 0 1 -12 12h-92v92a12 12 0 0 1 -12 12h-56a12 12 0 0 1 -12-12v-92h-92a12 12 0 0 1 -12-12z"/></svg>