<svg viewBox="0 0 576 512"><path d="m553.5 231.8-112-192a48.14 48.14 0 0 0 -41.5-23.8h-224a48.09 48.09 0 0 0 -41.5 23.8l-112 192a48.19 48.19 0 0 0 0 48.4l112 192a48.09 48.09 0 0 0 41.5 23.8h224a48.13 48.13 0 0 0 41.5-23.8l112-192a48.19 48.19 0 0 0 0-48.4zm-121.5 52.2a12 12 0 0 1 -12 12h-92v92a12 12 0 0 1 -12 12h-56a12 12 0 0 1 -12-12v-92h-92a12 12 0 0 1 -12-12v-56a12 12 0 0 1 12-12h92v-92a12 12 0 0 1 12-12h56a12 12 0 0 1 12 12v92h92a12 12 0 0 1 12 12z" opacity=".4"/><path d="m432 284a12 12 0 0 1 -12 12h-92v92a12 12 0 0 1 -12 12h-56a12 12 0 0 1 -12-12v-92h-92a12 12 0 0 1 -12-12v-56a12 12 0 0 1 12-12h92v-92a12 12 0 0 1 12-12h56a12 12 0 0 1 12 12v92h92a12 12 0 0 1 12 12z"/></svg>