<svg viewBox="0 0 512 512"><path d="m256 8c-137 0-248 111-248 248s111 248 248 248 248-111 248-248-111-248-248-248zm144 276a12 12 0 0 1 -12 12h-92v92a12 12 0 0 1 -12 12h-56a12 12 0 0 1 -12-12v-92h-92a12 12 0 0 1 -12-12v-56a12 12 0 0 1 12-12h92v-92a12 12 0 0 1 12-12h56a12 12 0 0 1 12 12v92h92a12 12 0 0 1 12 12z" opacity=".4"/><path d="m400 284a12 12 0 0 1 -12 12h-92v92a12 12 0 0 1 -12 12h-56a12 12 0 0 1 -12-12v-92h-92a12 12 0 0 1 -12-12v-56a12 12 0 0 1 12-12h92v-92a12 12 0 0 1 12-12h56a12 12 0 0 1 12 12v92h92a12 12 0 0 1 12 12z"/></svg>