<svg viewBox="0 0 448 512"><path d="m224 0a223.88 223.88 0 0 0 -224 224c0 90 52.6 165.65 125.74 201.41a6 6 0 0 0 8.53-6.31c-2.38-15.51-4.34-31-5.4-44.34a6 6 0 0 0 -2.68-4.51 176 176 0 0 1 -78.19-147.35c.59-96.24 79.29-174.65 175.53-174.9 97.26-.25 176.47 78.8 176.47 176a176 176 0 0 1 -80.65 147.87c-1 14-3.07 30.59-5.62 47.23a6 6 0 0 0 8.53 6.31c72.97-35.68 125.74-111.22 125.74-201.41a223.89 223.89 0 0 0 -224-224zm98.45 325a143.63 143.63 0 0 0 45.55-108.57c-1.86-76.21-63.6-138.21-139.8-140.37-81.33-2.31-148.2 63.15-148.2 143.94a143.62 143.62 0 0 0 45.55 105 6 6 0 0 0 9.45-1.9 66.57 66.57 0 0 1 21.24-25.36 6 6 0 0 0 .63-9.19 96 96 0 1 1 134.26 0 6 6 0 0 0 .63 9.19 66.57 66.57 0 0 1 21.24 25.36 6 6 0 0 0 9.45 1.9z" opacity=".4"/><path d="m224 312c-32.86 0-64 8.59-64 43.75 0 33.15 12.93 104.38 20.57 132.81 5.14 19 24.57 23.44 43.43 23.44s38.29-4.43 43.43-23.44c7.7-28.63 20.57-99.86 20.57-132.81 0-35.16-31.14-43.75-64-43.75zm0-24a64 64 0 1 0 -64-64 64 64 0 0 0 64 64z"/></svg>