<svg viewBox="0 0 448 512"><path d="m384 224-22.22 240h-275.56l-22.22-240z" opacity=".4"/><path d="m400 464h-352a16 16 0 0 0 -16 16v16a16 16 0 0 0 16 16h352a16 16 0 0 0 16-16v-16a16 16 0 0 0 -16-16zm-92.63-143a10.05 10.05 0 0 0 -8.47-11.43l-45.6-6.7-20.4-41.4a10 10 0 0 0 -17.9 0l-20.4 41.4-45.6 6.73a10 10 0 0 0 -5.5 17.1l33 32.2-7.8 45.5a10 10 0 0 0 14.5 10.5l40.8-21.5 40.8 21.5a10 10 0 0 0 14.5-10.5l-7.8-45.5 33-32.2a10 10 0 0 0 2.87-5.7zm124.63-177h-318.32c6.2-30.29 29.85-54.3 61-61.55a47.72 47.72 0 0 0 33.32 13.55h64a48 48 0 0 0 0-96h-64a47.89 47.89 0 0 0 -46.31 36c-50.88 12.48-90.03 55.15-96.69 108h-49a16 16 0 0 0 -16 16v16a16 16 0 0 0 16 16h416a16 16 0 0 0 16-16v-16a16 16 0 0 0 -16-16z"/></svg>