<svg viewBox="0 0 640 512"><path d="m616.12 32h-368.12a23.94 23.94 0 0 0 -24 23.88v112.12a23.94 23.94 0 0 0 23.88 24h368.12a23.94 23.94 0 0 0 24-23.88v-112.12a23.94 23.94 0 0 0 -23.88-24zm-40.12 96h-288v-32h288zm40.12 192h-368.12a23.94 23.94 0 0 0 -24 23.88v112.12a23.94 23.94 0 0 0 23.88 24h368.12a23.94 23.94 0 0 0 24-23.88v-112.12a23.94 23.94 0 0 0 -23.88-24zm-40.12 96h-288v-32h288z" opacity=".4"/><path d="m96 416h-32a64.06 64.06 0 0 0 -64 64v16a16 16 0 0 0 16 16h128a16 16 0 0 0 16-16v-16a64.06 64.06 0 0 0 -64-64zm-16-320a48 48 0 1 0 -48-48 48 48 0 0 0 48 48zm48 240a48 48 0 1 0 -48 48 48 48 0 0 0 48-48zm160-240v32h224v-32zm0 320h128v-32h-128zm-192-288h-32a64.06 64.06 0 0 0 -64 64v16a16 16 0 0 0 16 16h128a16 16 0 0 0 16-16v-16a64.06 64.06 0 0 0 -64-64z"/></svg>