<svg viewBox="0 0 448 512"><path d="m400 32h-352a48 48 0 0 0 -48 48v352a48 48 0 0 0 48 48h352a48 48 0 0 0 48-48v-352a48 48 0 0 0 -48-48zm-304 112a16 16 0 0 1 16-16h128a16 16 0 0 1 16 16v32a16 16 0 0 1 -16 16h-128a16 16 0 0 1 -16-16zm96 224a16 16 0 0 1 -16 16h-64a16 16 0 0 1 -16-16v-32a16 16 0 0 1 16-16h64a16 16 0 0 1 16 16zm160-96a16 16 0 0 1 -16 16h-224a16 16 0 0 1 -16-16v-32a16 16 0 0 1 16-16h224a16 16 0 0 1 16 16z" opacity=".4"/><path d="m112 192h128a16 16 0 0 0 16-16v-32a16 16 0 0 0 -16-16h-128a16 16 0 0 0 -16 16v32a16 16 0 0 0 16 16zm64 128h-64a16 16 0 0 0 -16 16v32a16 16 0 0 0 16 16h64a16 16 0 0 0 16-16v-32a16 16 0 0 0 -16-16zm160-96h-224a16 16 0 0 0 -16 16v32a16 16 0 0 0 16 16h224a16 16 0 0 0 16-16v-32a16 16 0 0 0 -16-16z"/></svg>