<svg viewBox="0 0 448 512"><path d="m0 80v352a48 48 0 0 0 48 48h352a48 48 0 0 0 48-48v-352a48 48 0 0 0 -48-48h-352a48 48 0 0 0 -48 48zm112 304a16 16 0 0 1 -16-16v-128a16 16 0 0 1 16-16h32a16 16 0 0 1 16 16v128a16 16 0 0 1 -16 16zm224-96a16 16 0 0 1 16 16v64a16 16 0 0 1 -16 16h-32a16 16 0 0 1 -16-16v-64a16 16 0 0 1 16-16zm-96-160a16 16 0 0 1 16 16v224a16 16 0 0 1 -16 16h-32a16 16 0 0 1 -16-16v-224a16 16 0 0 1 16-16z" opacity=".4"/><path d="m160 368v-128a16 16 0 0 0 -16-16h-32a16 16 0 0 0 -16 16v128a16 16 0 0 0 16 16h32a16 16 0 0 0 16-16zm128-64v64a16 16 0 0 0 16 16h32a16 16 0 0 0 16-16v-64a16 16 0 0 0 -16-16h-32a16 16 0 0 0 -16 16zm-96-160v224a16 16 0 0 0 16 16h32a16 16 0 0 0 16-16v-224a16 16 0 0 0 -16-16h-32a16 16 0 0 0 -16 16z"/></svg>