<svg viewBox="0 0 448 512"><path d="m318.4 354-88 152a12 12 0 0 1 -22.1-8.8l23-97.2h-59.3a12 12 0 0 1 -11.9-13.6l16-120a12.06 12.06 0 0 1 11.9-10.4h68a12 12 0 0 1 11.6 15.1l-17.3 64.9h57.7a12 12 0 0 1 10.4 18z" opacity=".4"/><path d="m374.4 224.7c41 3.3 73.6 37.5 73.5 79.3a80.24 80.24 0 0 1 -80 80h-30l8.1-14a44 44 0 0 0 -38.1-66h-16l6.6-24.7a44 44 0 0 0 -42.5-55.3h-68a44.26 44.26 0 0 0 -43.7 38.2l-16 120a10.82 10.82 0 0 1 0 1.8h-48.3a80.24 80.24 0 0 1 -80-80c0-41.8 32.6-76 73.6-79.3a62 62 0 0 1 -9.6-32.7 64.06 64.06 0 0 1 64-64h16a79.79 79.79 0 0 0 64.9-126.5 93.1 93.1 0 0 1 15.1-1.5 96 96 0 0 1 96 96 94.61 94.61 0 0 1 -5.9 32h5.9a64.06 64.06 0 0 1 64 64 62 62 0 0 1 -9.6 32.7z"/></svg>