<svg viewBox="0 0 512 512"><path d="m451.4 369.1a71.77 71.77 0 0 0 -43.4-129.1h-14.1a63.74 63.74 0 0 0 -41.9-112h-5.9a94.61 94.61 0 0 0 5.9-32 96 96 0 0 0 -96-96 93.1 93.1 0 0 0 -15.1 1.5 79.79 79.79 0 0 1 -64.9 126.5h-16a63.74 63.74 0 0 0 -41.9 112h-14.1a71.77 71.77 0 0 0 -43.4 129.1 71.9 71.9 0 0 0 11.4 142.9h368a71.9 71.9 0 0 0 11.4-142.9zm-131.4-113.1a32 32 0 1 1 -32 32 32 32 0 0 1 32-32zm-128 0a32 32 0 1 1 -32 32 32 32 0 0 1 32-32zm159.5 139c-10.5 27.9-58.5 53-95.5 53s-85-25.1-95.5-53a8.2 8.2 0 0 1 7.8-11h175.4a8.2 8.2 0 0 1 7.8 11z" opacity=".4"/><path d="m320 256a32 32 0 1 0 32 32 32 32 0 0 0 -32-32zm-128 0a32 32 0 1 0 32 32 32 32 0 0 0 -32-32z"/></svg>