<svg viewBox="0 0 512 512"><path d="m480 311v2a70.89 70.89 0 0 1 -27.34 56 71.2 71.2 0 0 0 -11.66-1h-370a71.2 71.2 0 0 0 -11.66 1 70.89 70.89 0 0 1 -27.34-56v-2a71 71 0 0 1 71-71h306a71 71 0 0 1 71 71z" opacity=".4"/><path d="m118.05 240h275.95a63.76 63.76 0 0 0 -42-112h-5.88a98.21 98.21 0 0 0 4.36-50.78 94.18 94.18 0 0 0 -109.57-75.67 79.78 79.78 0 0 1 -64.91 126.45h-16a63.76 63.76 0 0 0 -42 112zm333.33 129.17.42-.33a71.12 71.12 0 0 0 -10.8-.84h-370a70.69 70.69 0 0 0 -10.76.84c.14.11.27.23.42.33a71.87 71.87 0 0 0 11.34 142.83h368a71.87 71.87 0 0 0 11.36-142.86z"/></svg>