<svg viewBox="0 0 512 512"><path d="m101.46 118a37.17 37.17 0 0 1 .33-37.43c9.11-16 28-23.66 45.57-20.12.34-16.64 11.46-32 29-37.43a43.36 43.36 0 0 1 38.82 6.08 41.63 41.63 0 0 1 27.32-27.1c22.27-6.78 46.23 4.42 53.33 25.54a4.22 4.22 0 0 1 .68 1.92 43.29 43.29 0 0 1 39.14-6.46c17.53 5.43 28.67 20.79 29 37.43 17.55-3.43 36.44 4.17 45.55 20.17a37.88 37.88 0 0 1 .33 37.43 42.7 42.7 0 0 1 33.09 20.79c3.91 6.75 4.76 14 4.24 21.12h-383.73c-.5-7.12.35-14.38 4.27-21.12 6.74-12.15 19.6-19.51 33.06-20.82z" opacity=".4"/><path d="m64 192h81.56l28 256h45.05l-21.56-256h117.95l-21.61 256h45l28-256h81.61l-43.91 292.73a32 32 0 0 1 -31.65 27.27h-232.88a32 32 0 0 1 -31.65-27.25z"/></svg>