<svg viewBox="0 0 512 512"><path d="m142.39844 415.99609c-14.66406 58.47657-37.14844 96.00391-62.39844 96.00391-44.18359 0-80-114.61523-80-256s35.81641-256 80-256c32.41406 0 60.25781 61.79492 72.82812 150.47461-10.21484 11.23437-11.78124 28.14062-2.20312 40.59375a31.09936 31.09936 0 0 0 7.17969 6.27148c1.38672 18.86716 2.19531 38.44141 2.19531 58.66016a768.85148 768.85148 0 0 1 -5.86719 95.99414h-26.13281a32.001 32.001 0 0 0 0 64.00195z" opacity=".4"/><path d="m368 96.00195a48.001 48.001 0 1 0 -48-48 48.00237 48.00237 0 0 0 48 48zm-158.3125 221.47657-14.8125 34.51562h-66.875a32.001 32.001 0 0 0 0 64.00195h77.4375a47.9242 47.9242 0 0 0 44.125-29.07812l8.78125-20.5332-10.65625-6.29688a95.3862 95.3862 0 0 1 -38-42.60937zm270.3125-93.48829h-44.03125l-26.0625-53.25195c-12.5-25.54687-35.46875-44.21875-61.78125-50.9375l-71.0625-21.14258a95.69075 95.69075 0 0 0 -80.875 17.14258l-39.625 30.40622a31.99634 31.99634 0 1 0 38.9375 50.78323l39.6875-30.4082c7.65625-5.89062 17.4375-8 25.25-6.14062l14.6875 4.375-37.4375 87.39453a64.16017 64.16017 0 0 0 26.3125 80.31445l84.9375 50.17383-27.4375 87.7207a31.96894 31.96894 0 0 0 20.9375 40.0957 31.9422 31.9422 0 0 0 40.125-20.9707l31.625-101.06445a48.16 48.16 0 0 0 -21.625-54.39258l-61.25-36.14258 31.3125-78.2832 20.28125 41.43945a48.2689 48.2689 0 0 0 43.09375 26.89063h54a32.001 32.001 0 0 0 0-64.002z"/></svg>