<svg viewBox="0 0 512 512"><path d="m272 0a23.94 23.94 0 0 1 24 24v240a23.94 23.94 0 0 1 -24 24h-32a23.94 23.94 0 0 1 -24-24v-240a23.94 23.94 0 0 1 24-24z" opacity=".4"/><path d="m504 256c0 136.8-110.8 247.7-247.5 248-136.5.3-248.3-111-248.5-247.6a248 248 0 0 1 103.8-202.2 24.07 24.07 0 0 1 35 7.7l15.8 28.1a24 24 0 0 1 -6.6 31 168 168 0 0 0 100 303c91.6 0 168.6-74.2 168-169.1a168.07 168.07 0 0 0 -68.1-134 23.86 23.86 0 0 1 -6.5-30.9l15.8-28.1a24 24 0 0 1 34.8-7.8 247.51 247.51 0 0 1 104 201.9z"/></svg>