<svg viewBox="0 0 640 512"><path d="m640 384v96c0 10.82-8.52 32-32 32a32.16 32.16 0 0 1 -8.06-1l-179.19-46.65a117.32 117.32 0 0 1 -84.75-112.35v-128a32 32 0 0 1 64 0v80a16 16 0 0 0 32 0v-76.54a95.86 95.86 0 0 0 -13.69-49.39l-77.75-129.59a31.8 31.8 0 0 1 53.27-34.7c.2.24.61.21.79.48l117.26 175.89a95.66 95.66 0 0 1 16.12 53.23v80.23l90.12 30a32 32 0 0 1 21.88 30.39z" opacity=".4"/><path d="m32 511.92c-23.48 0-32-21.18-32-32v-96a32 32 0 0 1 21.88-30.35l90.12-30v-80.27a95.66 95.66 0 0 1 16.12-53.23l117.26-175.9c.17-.27.59-.25.79-.48a31.8 31.8 0 0 1 53.27 34.7l-77.75 129.61a95.86 95.86 0 0 0 -13.69 49.37v76.55a16 16 0 1 0 32 0v-80a32 32 0 1 1 64 0v128a117.35 117.35 0 0 1 -84.75 112.35l-179.19 46.62a32 32 0 0 1 -8.06 1.03z"/></svg>