<svg viewBox="0 0 384 512"><path d="m379.32 274-78.06 78-45.26 45.29-78 78.07a16 16 0 0 1 -22.63 0l-22.63-22.63a16 16 0 0 1 0-22.63l201.32-201.38a16 16 0 0 1 22.63 0l22.63 22.63a16 16 0 0 1 0 22.65z" opacity=".4"/><path d="m379.32 430.09-78.06-78-45.26 45.2 78.06 78.06a16 16 0 0 0 22.63 0l22.63-22.63a16 16 0 0 0 0-22.63zm-207.32-207.31c47.27-6 84-45.89 84-94.78a96 96 0 0 0 -96-96h-144a16 16 0 0 0 -16 16v256a16 16 0 0 0 16 16h32a16 16 0 0 0 16-16v-80h18.75l128 128 45.25-45.22zm-108-62.78v-64h96a32 32 0 1 1 0 64z"/></svg>