<svg viewBox="0 0 384 512"><path d="m32 480a32.09 32.09 0 0 0 32 32h256a32.09 32.09 0 0 0 32-32v-352h-320zm64-184a8 8 0 0 1 8-8h56v-56a8 8 0 0 1 8-8h48a8 8 0 0 1 8 8v56h56a8 8 0 0 1 8 8v48a8 8 0 0 1 -8 8h-56v56a8 8 0 0 1 -8 8h-48a8 8 0 0 1 -8-8v-56h-56a8 8 0 0 1 -8-8z" opacity=".4"/><path d="m280 288h-56v-56a8 8 0 0 0 -8-8h-48a8 8 0 0 0 -8 8v56h-56a8 8 0 0 0 -8 8v48a8 8 0 0 0 8 8h56v56a8 8 0 0 0 8 8h48a8 8 0 0 0 8-8v-56h56a8 8 0 0 0 8-8v-48a8 8 0 0 0 -8-8zm80-288h-336a24.07 24.07 0 0 0 -24 24v48a24.07 24.07 0 0 0 24 24h336a24.07 24.07 0 0 0 24-24v-48a24.07 24.07 0 0 0 -24-24z"/></svg>