<svg viewBox="0 0 384 512"><path d="m32 128h320v352a32.09 32.09 0 0 1 -32 32h-256a32.09 32.09 0 0 1 -32-32v-64h120a8 8 0 0 0 8-8v-16a8 8 0 0 0 -8-8h-120v-64h120a8 8 0 0 0 8-8v-16a8 8 0 0 0 -8-8h-120v-64h120a8 8 0 0 0 8-8v-16a8 8 0 0 0 -8-8h-120z" opacity=".4"/><path d="m360 0h-336a24.07 24.07 0 0 0 -24 24v48a24.07 24.07 0 0 0 24 24h336a24.07 24.07 0 0 0 24-24v-48a24.07 24.07 0 0 0 -24-24zm-208 384h-120v32h120a8 8 0 0 0 8-8v-16a8 8 0 0 0 -8-8zm0-192h-120v32h120a8 8 0 0 0 8-8v-16a8 8 0 0 0 -8-8zm0 96h-120v32h120a8 8 0 0 0 8-8v-16a8 8 0 0 0 -8-8z"/></svg>