<svg viewBox="0 0 640 512"><path d="m176 104.26v-56.26h240v32a16 16 0 0 0 16 16h32v96h-174.47l248.47 192h22a16 16 0 0 0 16-16v-112a64 64 0 0 0 -64-64v-114.75a32 32 0 0 0 -9.37-22.63l-45.26-45.25a32 32 0 0 0 -22.63-9.37h-274.74a32 32 0 0 0 -32 32v35.16zm320 143.74a24 24 0 1 1 -24 24 24 24 0 0 1 24-24zm-64 216 59.29 45.72a31.48 31.48 0 0 1 -11.29 2.28h-320a32 32 0 0 1 -32-32v-96h-48a16 16 0 0 1 -16-16v-112a63.83 63.83 0 0 1 29.47-53.75l234.53 181.75h-152v80z" opacity=".4"/><path d="m636.64 480.55-19.64 25.27a16 16 0 0 1 -22.46 2.81l-588.36-454.73a16 16 0 0 1 -2.81-22.45l19.63-25.27a16 16 0 0 1 22.47-2.81l588.35 454.73a16 16 0 0 1 2.82 22.45z"/></svg>