<svg viewBox="0 0 672 512"><path d="m366.86 433.14a159.41 159.41 0 0 1 -33.53-49.14h-269.33v96a32 32 0 0 0 32 32h320a32 32 0 0 0 32-32v-3.2a159.82 159.82 0 0 1 -81.14-43.66zm1.14-337.14a16 16 0 0 1 -16-16v-80h-256a32 32 0 0 0 -32 32v192h288a162.84 162.84 0 0 1 14.88-17.14 159.82 159.82 0 0 1 81.12-43.66v-67.2z" opacity=".4"/><path d="m368 96h80v-4.58a17.92 17.92 0 0 0 -5.25-12.67l-73.43-73.5a18 18 0 0 0 -12.75-5.25h-4.57v80a16 16 0 0 0 16 16zm-16 128h-288v-32a64 64 0 0 0 -64 64v112a16 16 0 0 0 16 16h317.33c-.24-.57-.5-1.14-.74-1.71a159.92 159.92 0 0 1 19.41-158.29zm315.31 238.06-77.41-77.41a126.65 126.65 0 0 0 18.1-64.65 128 128 0 1 0 -128 128c23.7 0 45.61-6.88 64.65-18.11l77.41 77.42a16 16 0 0 0 22.63 0l22.62-22.62a16 16 0 0 0 0-22.63zm-187.31-78.06a64 64 0 1 1 64-64 64 64 0 0 1 -64 64z"/></svg>