<svg viewBox="0 0 640 512"><path d="m160 224a64 64 0 1 0 64 64 64 64 0 0 0 -64-64zm368 0h-256a16 16 0 0 0 -16 16v144h384v-48.09a111.93 111.93 0 0 0 -112-111.91z" opacity=".4"/><path d="m136 96h126.1l27.6 55.2a16 16 0 0 0 28.6 0l49.7-99.37 22.1 44.17h121.9a16 16 0 0 0 0-32h-102.1l-27.6-55.17a16 16 0 0 0 -28.6 0l-49.7 99.4-19.9-39.8a8 8 0 0 0 -7.2-4.4h-140.9a8 8 0 0 0 -8 8v15.97a8 8 0 0 0 8 8zm120 288h-192v-240a16 16 0 0 0 -16-16h-32a16 16 0 0 0 -16 16v352a16 16 0 0 0 16 16h32a16 16 0 0 0 16-16v-48h512v48a16 16 0 0 0 16 16h32a16 16 0 0 0 16-16v-112z"/></svg>