<svg viewBox="0 0 640 512"><path d="m592 192h-95.41c46.88 23.77 79.41 71.93 79.41 128 0 61.88-39.44 114.31-94.34 134.64l11.34 45.24a16 16 0 0 0 15.49 12.12h39a16 16 0 0 0 15.51-12.12l13-51.88h16a48 48 0 0 0 48-48v-160a48 48 0 0 0 -48-48zm-224.59 0h-319.41a48 48 0 0 0 -48 48v160a48 48 0 0 0 48 48h16l13 51.88a16 16 0 0 0 15.49 12.12h39a16 16 0 0 0 15.51-12.12l13-51.88h207.41c-46.88-23.77-79.41-71.93-79.41-128s32.53-104.23 79.41-128zm-271.41 160a32 32 0 1 1 32-32 32 32 0 0 1 -32 32zm96 0a32 32 0 1 1 32-32 32 32 0 0 1 -32 32zm325.66-218.35a16 16 0 0 0 22.62 0l67.88-67.88a16 16 0 0 0 0-22.63l-11.32-11.31a16 16 0 0 0 -22.62 0l-67.88 67.89a16 16 0 0 0 0 22.62zm-77.66-133.65h-16a16 16 0 0 0 -16 16v96a16 16 0 0 0 16 16h16a16 16 0 0 0 16-16v-96a16 16 0 0 0 -16-16zm-116.28 133.65a16 16 0 0 0 22.62 0l11.32-11.31a16 16 0 0 0 0-22.62l-67.88-67.89a16 16 0 0 0 -22.62 0l-11.32 11.31a16 16 0 0 0 0 22.63z" opacity=".4"/><path d="m96 288a32 32 0 1 0 32 32 32 32 0 0 0 -32-32zm336-112a144 144 0 1 0 144 144 144 144 0 0 0 -144-144zm0 240a96 96 0 1 1 96-96 96.14 96.14 0 0 1 -96 96z"/></svg>