<svg viewBox="0 0 576 512"><path d="m244 103.93 37.55-93.86a16 16 0 0 1 22-8.37l39.6 19.8a16 16 0 0 1 8.85 14.31v77.4c-17.77-11.09-38.84-17.21-64-17.21a128.55 128.55 0 0 0 -44 7.93z" opacity=".4"/><path d="m495.31 486.87c-38.63 33-100.82 33.34-140.12 1.25-17.84 15.39-39.91 23.88-67.19 23.88s-49.35-8.49-67.18-23.88c-39.3 32.09-101.49 31.78-140.12-1.25-107.6-92-107.6-241.73 0-333.74 31.61-27 78.8-31.69 116.51-15-3.08 4-6.52 7.38-9.21 11.92-8.33 14.27-14.5 31.77-19.11 51.61a138.4 138.4 0 0 1 12.86-24.11q34.01-49.55 106.25-49.55t106.25 49.5a138.5 138.5 0 0 1 12.86 24.12c-4.61-19.84-10.79-37.35-19.11-51.62-2.69-4.54-6.14-7.95-9.21-11.92 37.71-16.64 84.9-12 116.51 15 107.6 92.06 107.6 241.78.01 333.79z"/></svg>