<svg viewBox="0 0 384 512"><path d="m299.37 218.21a64 64 0 0 0 -63.74-58.21h-151.26a64 64 0 0 0 -63.74 58.21l-20.36 224a64 64 0 0 0 63.73 69.79h192a64 64 0 0 0 63.74-69.79zm-59.37 115.12a13.33 13.33 0 0 1 -13.33 13.34h-40v40a13.33 13.33 0 0 1 -13.34 13.33h-26.66a13.33 13.33 0 0 1 -13.34-13.33v-40h-40a13.33 13.33 0 0 1 -13.33-13.34v-26.66a13.33 13.33 0 0 1 13.33-13.34h40v-40a13.33 13.33 0 0 1 13.34-13.33h26.66a13.33 13.33 0 0 1 13.34 13.33v40h40a13.33 13.33 0 0 1 13.33 13.34z" opacity=".4"/><path d="m226.67 293.33h-40v-40a13.33 13.33 0 0 0 -13.34-13.33h-26.66a13.33 13.33 0 0 0 -13.34 13.33v40h-40a13.33 13.33 0 0 0 -13.33 13.34v26.66a13.33 13.33 0 0 0 13.33 13.34h40v40a13.33 13.33 0 0 0 13.34 13.33h26.66a13.33 13.33 0 0 0 13.34-13.33v-40h40a13.33 13.33 0 0 0 13.33-13.34v-26.66a13.33 13.33 0 0 0 -13.33-13.34zm152.64-199.27-43.31-43.32a64 64 0 0 0 -45.25-18.74h-66.75a32 32 0 0 0 -32-32h-64a32 32 0 0 0 -32 32v96h128v-32h66.75l43.31 43.31a16 16 0 0 0 22.63 0l22.62-22.62a16 16 0 0 0 0-22.63z"/></svg>