<svg viewBox="0 0 576 512"><path d="m576 354.44c0 33.56-19.29 61.56-54.92 61.56-39.89 0-50.35-36.15-86.31-36.15-60.55 0-25.83 120.1-25.83 120.1-51.55 0-181.23 35.07-181.23-25.73 0-35.83 36.29-46.25 36.29-86 0-35.5-28.12-54.71-61.79-54.71-34.33 0-63.58 18.89-63.58 56.34 0 41.37 40 59 40 81.47 0 69.68-178.63 28.68-178.63 28.68v-333.24s175.88 41 175.88-28.66c0-22.48-31.71-40.39-31.71-81.75 0-37.46 31.71-56.35 66.37-56.35 33.34 0 61.46 19.22 61.46 54.72 0 39.73-36.29 50.16-36.29 86 0 83.28 196.29 3.28 196.29 3.28s-54.59 176.24 5.38 176.24c22.56 0 40.54-31.59 82.06-31.59 37.56 0 56.56 31.59 56.56 65.79z" opacity=".4"/></svg>