<svg viewBox="0 0 512 512"><path d="m256 8c-137 0-248 111.08-248 248s111 248 248 248 248-111 248-248-111-248-248-248zm0 422a46 46 0 1 1 46-46 46.05 46.05 0 0 1 -46 46zm40-131.33v1.33a12 12 0 0 1 -12 12h-56a12 12 0 0 1 -12-12v-4c0-41.06 31.13-57.47 54.65-70.66 20.17-11.31 32.54-19 32.54-34 0-19.82-25.27-33-45.7-33-27.19 0-39.44 13.14-57.3 35.79a12 12 0 0 1 -16.67 2.13l-34.7-26.26a12 12 0 0 1 -2.71-16.26c27.29-40.74 62.05-63.74 116.55-63.74 56.34 0 116.53 44 116.53 102 0 77-83.19 78.21-83.19 106.67z" opacity=".4"/><path d="m256 338a46 46 0 1 0 46 46 46 46 0 0 0 -46-46zm6.66-248c-54.5 0-89.26 23-116.55 63.76a12 12 0 0 0 2.71 16.24l34.7 26.31a12 12 0 0 0 16.67-2.13c17.86-22.65 30.11-35.79 57.3-35.79 20.43 0 45.7 13.14 45.7 33 0 15-12.37 22.66-32.54 34-23.52 13.14-54.65 29.55-54.65 70.61v4a12 12 0 0 0 12 12h56a12 12 0 0 0 12-12v-1.33c0-28.46 83.19-29.67 83.19-106.67 0-58-60.19-102-116.53-102z"/></svg>