<svg viewBox="0 0 640 512"><path d="m494.5 351.82a79.9 79.9 0 1 0 79.8 79.9 79.91 79.91 0 0 0 -79.8-79.9zm142-320.82-19.8-25a16 16 0 0 0 -22.4-2.6l-232.5 177.92 39.7 50.1 232.5-177.9a16 16 0 0 0 2.5-22.52z" opacity=".4"/><path d="m93.2 257.72c-21.9 17.5-40.2 55.8-54.6 97.5l60.4-22.1a6 6 0 0 1 6.6 9.5l-94.6 112.2c-7.2 32.3-11 55.4-11 55.4s206.7 13.6 266.6-34.1 76.6-150.12 76.6-150.12l-86.7-109.2s-103.4-6.88-163.3 40.92zm342.4 16.6-107.9-136a11 11 0 0 0 -18.6 2.2l-25.3 54.6 86.7 109.2 58.8-12.4a11 11 0 0 0 6.3-17.6z"/></svg>