<svg viewBox="0 0 576 512"><path d="m135.5 396.68a16 16 0 0 0 -7.5 13.57v37.75a16 16 0 0 0 24.48 13.57l66.69-39.87-47.84-47.85zm416.77-195.42-56.42-34.62c-.06-13.95-2.29-30.77-7.08-48.67-11.31-42.24-31.9-73.43-46-69.66s-16.33 41.08-5 83.32c.65 2.44 1.44 4.7 2.15 7.06a224.93 224.93 0 0 0 -16.32-18.32c-30.9-30.92-64.33-47.64-74.6-37.37s6.41 43.73 37.33 74.66a198.36 198.36 0 0 0 37.42 29.78 60.18 60.18 0 0 0 -6.88 19.32 63.07 63.07 0 0 0 -.75 9.31c-51.58-36.95-154.53-104.07-224.12-104.07a121.32 121.32 0 0 0 -111.51 73.53 61.82 61.82 0 0 0 13.1 68.06l165.82 165.82a43 43 0 0 0 30.4 12.59h142.19a16 16 0 0 0 16-16v-16a32 32 0 0 0 -32-32h-96v-55.58a80.3 80.3 0 0 0 -58-76.91l-42.4-12.11a16 16 0 0 1 8.78-30.78l42.39 12.11a112.46 112.46 0 0 1 81.23 107.69v23.58l64-32h103.33a56.66 56.66 0 0 0 32.94-102.75zm-56.27 38.74a16 16 0 1 1 16-16 16 16 0 0 1 -16 16z" opacity=".4"/><path d="m17.46 154.94a48 48 0 0 0 61.08 74.06 61.77 61.77 0 0 1 1.95-43.5 121.83 121.83 0 0 1 9.18-17.35 47 47 0 0 0 -4.67-6.72 48 48 0 0 0 -67.54-6.49zm478.54 53.06a16 16 0 1 0 16 16 16 16 0 0 0 -16-16z"/></svg>