<svg viewBox="0 0 640 512"><path d="m6.65 431.11a16.1 16.1 0 0 0 -3.65 22.3l36.8 51.8a16 16 0 0 0 22.2 3.9l120.7-82.6-56.7-80s-119.25 84.7-119.35 84.6zm479.35-367.11c-106.4 0-178.6 90-195 141.1-21.3 66.2 13.3 112.8 83.9 112.8 84.1 0 171.1-66.8 195-141.1 21.25-66.09-13.35-112.8-83.9-112.8z" opacity=".4"/><path d="m615.55 59.81c-55.2-77.9-182.9-78.9-283.4-7.7-57.3 40.6-94.6 96.4-106.8 151.1-11 49.5-35 94.5-67.7 132.7l45.7 64.5c87.4-33.7 144.3-18.6 171.9-18.6 49.6 0 104.4-17.2 153.5-52 102.25-72.4 141.1-193.3 86.8-270zm-405.4 287.19a355.28 355.28 0 0 0 26.2-41c9.2 18 9.5 17.4 21.2 29.7a379.24 379.24 0 0 0 -47.4 11.3zm359.7-170.2c-23.9 74.3-110.9 141.1-195 141.1-70.6 0-105.2-46.6-83.9-112.8 16.4-51.1 88.6-141.1 195.05-141.1 70.55 0 105.15 46.71 83.85 112.81z"/></svg>