<svg viewBox="0 0 512 512"><path d="m112 256c0-10.60156-5.49219-19.543-13.4375-25.36719 12.26172-76.13476 77.89844-134.63281 157.4375-134.63281 35.44141 0 67.64844 12.2832 94.12891 31.93359l-45.6211 45.6211a93.809 93.809 0 0 0 -48.50781-13.55469 96 96 0 1 0 96 96h64c0 79.53906-58.5 145.17578-134.63281 157.43555-5.82031-7.94141-14.76563-13.43555-25.36719-13.43555s-19.54688 5.49414-25.36719 13.43555a159.59946 159.59946 0 0 1 -132.07031-132.07032c7.94531-5.82423 13.4375-14.76562 13.4375-25.36523zm336 0c0 96.25977-70.91406 175.74023-163.30469 189.625a31.59351 31.59351 0 0 1 -57.39062 0 191.79742 191.79742 0 0 1 -160.92969-160.92969 31.595 31.595 0 0 1 0-57.39258c13.88281-92.38867 93.36719-163.30273 189.625-163.30273a190.7065 190.7065 0 0 1 117.57812 40.48633l39.86719-39.873a246.65387 246.65387 0 0 0 -157.44531-56.61333c-136.96875 0-248 111.0332-248 248s111.03125 248 248 248 248-111.0332 248-248zm-196.6875 15.99609-11.30859-11.31054a16.00359 16.00359 0 0 1 0-22.627l40.71093-40.71289a61.78522 61.78522 0 0 0 -24.71484-5.34566 64 64 0 1 0 64 64h-30.0625l-15.99609 15.99609a16.00242 16.00242 0 0 1 -22.62891 0z" opacity=".4"/><path d="m227.30469 445.625a191.79742 191.79742 0 0 1 -160.92969-160.92969 31.429 31.429 0 0 0 13.625 3.30469c7.07031 0 13.26562-2.75 18.5625-6.63477a159.59946 159.59946 0 0 0 132.07031 132.07032c-3.88281 5.29687-6.63281 11.49218-6.63281 18.56445a31.429 31.429 0 0 0 3.30469 13.625zm54.0625-32.18945c3.88281 5.29687 6.63281 11.49218 6.63281 18.56445a31.429 31.429 0 0 1 -3.30469 13.625c92.39063-13.88477 163.30469-93.36523 163.30469-189.625h-32c0 79.53906-58.5 145.17578-134.63281 157.43555zm193.94531-365.43946-11.30859-11.31054a16.00242 16.00242 0 0 0 -22.62891 0l-67.79688 67.80078a190.69456 190.69456 0 0 0 -117.57812-40.48633c-96.25781 0-175.74219 70.91406-189.625 163.30273a31.42748 31.42748 0 0 1 13.625-3.30273c7.07031 0 13.26562 2.74805 18.5625 6.63281 12.26172-76.13476 77.89844-134.63281 157.4375-134.63281 35.44141 0 67.64844 12.28125 94.12891 31.93359l-45.6211 45.6211a93.809 93.809 0 0 0 -48.50781-13.55469 96 96 0 1 0 96 96h-32a64 64 0 1 1 -64-64 61.81853 61.81853 0 0 1 24.71875 5.3457l-40.71484 40.71289a16.00359 16.00359 0 0 0 0 22.627l11.30859 11.31054a16.00242 16.00242 0 0 0 22.62891 0l201.37109-201.37308a15.99653 15.99653 0 0 0 0-22.62696z"/></svg>