<svg viewBox="0 0 512 512"><path d="m448 128h-384a64 64 0 0 0 -64 64v256a64 64 0 0 0 64 64h384a64 64 0 0 0 64-64v-256a64 64 0 0 0 -64-64zm-368 120a8 8 0 0 1 8-8h112a8 8 0 0 1 8 8v16a8 8 0 0 1 -8 8h-112a8 8 0 0 1 -8-8zm128 144a8 8 0 0 1 -8 8h-112a8 8 0 0 1 -8-8v-16a8 8 0 0 1 8-8h112a8 8 0 0 1 8 8zm16-64a8 8 0 0 1 -8 8h-144a8 8 0 0 1 -8-8v-16a8 8 0 0 1 8-8h144a8 8 0 0 1 8 8zm222.37 8.13a96 96 0 1 1 0-32.26 80.62 80.62 0 0 1 0 32.26z" opacity=".4"/><path d="m511.4 27.05-4.33-15.38a16 16 0 0 0 -19.74-11.07l-423.33 127.4h147.5l288.83-81.21a16 16 0 0 0 11.07-19.74zm-159.4 196.95a96 96 0 1 0 96 96 96 96 0 0 0 -96-96zm0 144a48 48 0 1 1 48-48 48.05 48.05 0 0 1 -48 48z"/></svg>