<svg viewBox="0 0 496 512"><path d="m248 288a32 32 0 1 0 -32-32 32 32 0 0 0 32 32zm0 216c137 0 248-111 248-248s-111-248-248-248-248 111-248 248 111 248 248 248zm0-432c101.5 0 184 82.5 184 184s-82.5 184-184 184-184-82.5-184-184 82.5-184 184-184z" opacity=".4"/><path d="m104.9 256h79.1a63.76 63.76 0 0 1 30.2-54.1l-41.7-66.8a16.2 16.2 0 0 0 -22.37-5 17 17 0 0 0 -1.61 1.17 159.25 159.25 0 0 0 -59.52 107.83c-1.1 9.2 6.7 16.9 15.9 16.9zm207.1 0h79.1c9.2 0 16.9-7.7 16-16.8-4.6-43.6-27-81.8-59.5-107.8a16.22 16.22 0 0 0 -22.83 2.19 18.34 18.34 0 0 0 -1.17 1.61l-41.7 66.8a63.64 63.64 0 0 1 30.1 54zm-139.6 121c-4.9 7.8-2.4 18.4 5.8 22.5a156.1 156.1 0 0 0 139.7 0c8.2-4.1 10.6-14.7 5.8-22.5l-41.8-66.9a62.82 62.82 0 0 1 -67.7 0z"/></svg>