<svg viewBox="0 0 496 512"><path d="m296 255.82a48 48 0 1 1 -48-48 48 48 0 0 1 48 48z" opacity=".4"/><path d="m125.23 452c-4.8 7.7-2.4 18.1 5.6 22.4a246.73 246.73 0 0 0 234.36 0c8-4.3 10.4-14.8 5.6-22.4l-80.38-128.48a78.67 78.67 0 0 1 -84.78 0zm-109-196.18h151.59c0-28.59 15.2-53.49 37.8-67.69l-80.39-128.39c-4.8-7.7-15.3-10.2-22.7-4.8-58.09 42-97.39 108.39-102.53 184.18-.6 9 7.1 16.7 16.2 16.7zm312 0h151.56c9.1 0 16.79-7.7 16.2-16.8-5.1-75.79-44.4-142.18-102.49-184.18-7.4-5.3-17.9-2.9-22.7 4.8l-80.39 128.36c22.6 14.3 37.79 39.2 37.79 67.79z"/></svg>