<svg viewBox="0 0 512 512"><path d="m448 128h-384a64 64 0 0 0 -64 64v256a64 64 0 0 0 64 64h384a64 64 0 0 0 64-64v-256a64 64 0 0 0 -64-64zm-224 296a8 8 0 0 1 -8 8h-112a8 8 0 0 1 -8-8v-16a8 8 0 0 1 8-8h112a8 8 0 0 1 8 8zm32-64a8 8 0 0 1 -8 8h-176a8 8 0 0 1 -8-8v-16a8 8 0 0 1 8-8h176a8 8 0 0 1 8 8zm112 104a80 80 0 1 1 80-80 80 80 0 0 1 -80 80zm80-208h-384v-64h384z" opacity=".4"/><path d="m511.4 27.05-4.33-15.38a16 16 0 0 0 -19.74-11.07l-423.33 127.4h147.5l288.83-81.21a16 16 0 0 0 11.07-19.74zm-447.4 228.95h384v-64h-384zm304 48a80 80 0 1 0 80 80 80 80 0 0 0 -80-80zm0 112a32 32 0 1 1 32-32 32 32 0 0 1 -32 32z"/></svg>