<svg viewBox="0 0 576 512"><path d="m287.83 224a96.24 96.24 0 0 0 -18.93 1.9c-45.6 8.9-76.9 51.5-76.9 97.9v140.2a16 16 0 0 0 16 16h32a16 16 0 0 0 16-16v-144a32 32 0 0 1 64 0v144a16 16 0 0 0 16 16h32a16 16 0 0 0 16-16v-144a96.11 96.11 0 0 0 -96.17-96zm-19.53-191.33c-152.9 10.2-268.3 144.2-268.3 297.5v133.83a16 16 0 0 0 16 16h32a16 16 0 0 0 16-16v-144c0-133.2 116.9-239.7 253.5-222.1 112.9 14.47 194.5 116.1 194.5 229.87v136.23a16 16 0 0 0 16 16h32a16 16 0 0 0 16-16v-144c0-165.33-140-298.63-307.7-287.33z" opacity=".4"/><path d="m480 320v144a16 16 0 0 1 -16 16h-32a16 16 0 0 1 -16-16v-138.31c0-66.89-48.7-126.58-115.2-133.08-76.3-7.4-140.8 52.59-140.8 127.39v144a16 16 0 0 1 -16 16h-32a16 16 0 0 1 -16-16v-137.31c0-97.58 70-184.69 166.7-197.07 117.1-15 217.3 76.19 217.3 190.38z"/></svg>