<svg viewBox="0 0 576 512"><path d="m112 288.00049a111.74872 111.74872 0 0 1 -19.19141-1.93549l-70.40234 121.88653a47.93847 47.93847 0 0 0 17.59766 65.58587l55.41015 31.99606a47.96036 47.96036 0 0 0 65.60156-17.59178l120.0625-207.96068a111.32567 111.32567 0 0 1 -41.07812 8.01949zm208-255.99972h-16a15.99954 15.99954 0 0 0 -16 16v255.99971a16.00078 16.00078 0 0 0 16 16h16a16.00078 16.00078 0 0 0 16-16v-255.99972a15.99954 15.99954 0 0 0 -16-15.99999zm80 32h-16a15.99953 15.99953 0 0 0 -16 16v191.99974a16.00078 16.00078 0 0 0 16 16h16a16.00078 16.00078 0 0 0 16-16v-191.99979a15.99953 15.99953 0 0 0 -16-15.99998zm-208-.00781-104.83594-62.28317a15.99925 15.99925 0 0 0 -23.15625 14.30858v59.164c-.09375.04492-.17969.10937-.27734.15625a110.90446 110.90446 0 0 1 48.26953-11.33788z" opacity=".4"/><path d="m554.9375 119.01044-74.9375 24.97263h-63.957v63.99212h64.07422l74.8125 24.97068a16.00416 16.00416 0 0 0 21.07028-15.17772v-83.58a16.00251 16.00251 0 0 0 -21.0625-15.17771zm-442.9375-55.0097a111.99988 111.99988 0 1 0 0 223.99975h128a110.93642 110.93642 0 0 0 48-11.19139v-201.61697a110.93642 110.93642 0 0 0 -48-11.19139zm-.04688 135.97641a23.998 23.998 0 1 1 24-23.998 24.00159 24.00159 0 0 1 -24 23.998zm96.00782 0a23.998 23.998 0 1 1 24-23.998 23.99825 23.99825 0 0 1 -24 23.998z"/></svg>