<svg viewBox="0 0 384 512"><path d="m358.4 3.23-38.4 44.77-54.4-44.77a15.9 15.9 0 0 0 -19.2 0l-54.4 44.77-54.4-44.77a15.9 15.9 0 0 0 -19.2 0l-54.4 44.77-38.4-44.77a16 16 0 0 0 -25.6 12.77v480a16 16 0 0 0 25.6 12.8l38.4-44.8 54.4 44.8a15.9 15.9 0 0 0 19.2 0l54.4-44.8 54.4 44.8a15.9 15.9 0 0 0 19.2 0l54.4-44.8 38.4 44.8a16 16 0 0 0 25.6-12.8v-480a16 16 0 0 0 -25.6-12.77zm-38.4 356.77a8 8 0 0 1 -8 8h-240a8 8 0 0 1 -8-8v-16a8 8 0 0 1 8-8h240a8 8 0 0 1 8 8zm0-96a8 8 0 0 1 -8 8h-240a8 8 0 0 1 -8-8v-16a8 8 0 0 1 8-8h240a8 8 0 0 1 8 8zm0-96a8 8 0 0 1 -8 8h-240a8 8 0 0 1 -8-8v-16a8 8 0 0 1 8-8h240a8 8 0 0 1 8 8z" opacity=".4"/><path d="m312 144h-240a8 8 0 0 0 -8 8v16a8 8 0 0 0 8 8h240a8 8 0 0 0 8-8v-16a8 8 0 0 0 -8-8zm0 96h-240a8 8 0 0 0 -8 8v16a8 8 0 0 0 8 8h240a8 8 0 0 0 8-8v-16a8 8 0 0 0 -8-8zm0 96h-240a8 8 0 0 0 -8 8v16a8 8 0 0 0 8 8h240a8 8 0 0 0 8-8v-16a8 8 0 0 0 -8-8z"/></svg>