<svg viewBox="0 0 512 512"><path d="m497.29 301.1-27.52-44.1a12 12 0 0 0 -16.53-3.83l-33.86 21.16a12 12 0 0 0 -3.81 16.54l27.55 44.13c13.26 21.21-2.06 49-27.14 49h-95.98v64h95.88c75.27 0 121.33-83 81.41-146.9zm-349.29 82.9h-52c-25 0-40.4-27.73-27.12-49l50.87-81.4-54.22-33.89-50.82 81.39c-39.9 63.9 6.07 146.9 81.4 146.9h51.89a12 12 0 0 0 12-12v-40a12 12 0 0 0 -12-12zm230.67-272.86-41.26-66.08c-37.52-60-125.21-60.17-162.82 0l-18 28.76a12 12 0 0 0 3.81 16.54l33.92 21.19a12 12 0 0 0 16.54-3.78l18.04-28.77c12.72-20.34 42-19.68 54.26 0l41.29 66.07z" opacity=".4"/><path d="m184.56 261.88-25.45-110.23a16 16 0 0 0 -19.18-12l-110.25 25.46c-13.84 3.19-17 21.61-4.88 29.16l135.68 84.73c12 7.47 27.3-3.17 24.07-17.17zm108.13 62.79-80 80a16 16 0 0 0 0 22.63l80 80c10 10 27.31 3 27.31-11.31v-159.99c0-14.23-17.24-21.4-27.31-11.33zm126.67-239-135.65 84.85c-12 7.53-9 25.95 4.88 29.16l110.24 25.45a16 16 0 0 0 19.19-12l25.41-110.25c3.19-13.88-12-24.72-24.07-17.17z"/></svg>