<svg viewBox="0 0 512 512"><path d="m422.66 422.66a12 12 0 0 1 0 17l-.49.46a247.11 247.11 0 0 1 -166.17 63.88c-137 0-248-111-248-248 0-136.81 111.65-248.24 248.46-248a247.12 247.12 0 0 1 170.85 68.69l-56.62 56.56a166.73 166.73 0 0 0 -113.2-45.25c-92.4-.79-170.28 74-169.49 169.45.76 90.55 74.18 166.55 168 166.55a166.77 166.77 0 0 0 110.63-41.56 12 12 0 0 1 16.37.56z" opacity=".4"/><path d="m504 57.94v134.06a24 24 0 0 1 -24 24h-134.06c-21.38 0-32.09-25.85-17-41l134.06-134c15.15-15.15 41-4.44 41 16.94z"/></svg>