<svg viewBox="0 0 640 512"><path d="m160 91.9v-43.9a16 16 0 0 1 16-16h416a16 16 0 0 1 16 16v96a16 16 0 0 1 -16 16h-32a16 16 0 0 1 -16-16v-32h-117.83l-49.17 147.59-67.06-51.83 31.88-95.76h-117.82v29.36l-3.18-2.45zm176 324.1h-11.17l9.26-27.77-67.09-51.83-26.51 79.6h-32.49a16 16 0 0 0 -16 16v32a16 16 0 0 0 16 16h128a16 16 0 0 0 16-16v-32a16 16 0 0 0 -16-16z" opacity=".4"/><path d="m633.82 458.1-588.36-454.72a16 16 0 0 0 -22.46 2.81l-19.63 25.27a16 16 0 0 0 2.81 22.45l588.36 454.72a16 16 0 0 0 22.46-2.81l19.64-25.27a16 16 0 0 0 -2.82-22.45z"/></svg>