<svg viewBox="0 0 512 512"><path d="m493.54 181.5a159 159 0 0 1 18.46 75.75c-.66 88.15-73.44 158.75-161.6 158.75h-158.4v47.5c0 22.5-26.18 32.3-41 17.5l-80-80a24 24 0 0 1 0-33.94l80-80c15.11-15.11 41-4.34 41 17v48h158.87c52.82 0 96.58-42.18 97.12-95a95.53 95.53 0 0 0 -9.21-42.06 23.94 23.94 0 0 1 4.8-27.28c4.74-4.71 8.64-8.55 11.87-11.79a24 24 0 0 1 38.09 5.57z" opacity=".4"/><path d="m68.42 324.35c-4.74 4.71-8.64 8.56-11.87 11.79a24 24 0 0 1 -38.09-5.57 159 159 0 0 1 -18.46-75.75c.66-88.15 73.44-158.82 161.6-158.82h158.4v-47.42c0-22.29 26-32.47 41-17.52l80 80a24 24 0 0 1 0 33.94l-80 80c-14.85 14.85-41 4.91-41-17.46v-47.54h-158.88c-52.81 0-96.57 42.18-97.12 95a95.47 95.47 0 0 0 9.22 42 23.94 23.94 0 0 1 -4.8 27.35z"/></svg>