<svg viewBox="0 0 512 512"><path d="m494.84 183.65a159 159 0 0 1 17.16 72c0 88.23-71.77 160-160 160h-181.93l34.51 32.42a24 24 0 0 1 .54 34.47l-10.78 10.77a24 24 0 0 1 -33.94 0l-92.68-92.65a24 24 0 0 1 0-33.94l92.68-92.72a24 24 0 0 1 33.94 0l10.78 10.77a24 24 0 0 1 -.54 34.47l-34.51 32.41h181.93a96 96 0 0 0 87.62-135.2 23.77 23.77 0 0 1 4.73-26.63l12.18-12.19a24 24 0 0 1 38.31 6.02z" opacity=".4"/><path d="m67.65 321.52-12.18 12.19a24 24 0 0 1 -38.31-6 159 159 0 0 1 -17.16-72.03c0-88.22 71.77-160 160-160h181.93l-34.51-32.41a24 24 0 0 1 -.54-34.47l10.78-10.8a24 24 0 0 1 33.94 0l92.68 92.69a24 24 0 0 1 0 33.94l-92.68 92.71a24 24 0 0 1 -33.94 0l-10.78-10.77a24 24 0 0 1 .54-34.47l34.51-32.42h-181.93a96 96 0 0 0 -87.62 135.21 23.78 23.78 0 0 1 -4.73 26.63z"/></svg>