<svg viewBox="0 0 512 512"><path d="m493.54 181.5a159 159 0 0 1 18.46 75.75c-.66 88.15-73.44 158.75-161.6 158.75h-158.4v47.5c0 22.5-26.18 32.3-41 17.5l-80-80a24 24 0 0 1 0-33.94l80-80c15.11-15.11 41-4.34 41 17v48h158.87c52.82 0 96.58-42.18 97.12-95a95.53 95.53 0 0 0 -9.21-42.06 23.94 23.94 0 0 1 4.8-27.28c4.74-4.71 8.64-8.55 11.87-11.79a24 24 0 0 1 38.09 5.57z" opacity=".4"/><path d="m441 111.06-80-80c-15-14.95-41-4.77-41 17.52v47.42h-158.4c-88.16 0-160.94 70.67-161.6 158.82a159 159 0 0 0 18.46 75.75 24 24 0 0 0 38.09 5.57c3.23-3.23 7.13-7.08 11.87-11.78a24 24 0 0 0 4.8-27.29 95.46 95.46 0 0 1 -9.22-42.07c.55-52.82 44.31-95 97.12-95h158.88v47.51c0 22.37 26.12 32.31 41 17.46l80-80a24 24 0 0 0 0-33.91zm-134.87 176.94h-15.49v-84.4c0-7.65-4.09-11.57-11.75-11.57h-12.1c-6.06 0-10 1.6-14.42 5.7l-21.72 19.94c-5.52 5.16-5.88 11-.54 16.38l5.52 6.23c5.16 5.52 11.22 5.34 15.67 1.06a33.07 33.07 0 0 0 2.84-3.73h.36s-.5 5.39-.5 10.5v39.89h-15.16c-7.66 0-11.58 4.09-11.58 11.57v8.9c0 7.48 3.92 11.57 11.58 11.57h67.29c7.65 0 11.57-4.09 11.57-11.57v-8.9c0-7.49-3.92-11.57-11.57-11.57z"/></svg>