<svg viewBox="0 0 576 512"><path d="m115.39 250.38 108.61 93.79v15.83c0 20.7-24.3 31.45-39.69 18.16l-176-152a24 24 0 0 1 0-36.32l176-152c15.41-13.29 39.69-2.49 39.69 18.16v15.83l-108.61 93.79a56 56 0 0 0 0 84.76z" opacity=".4"/><path d="m576 321.33c0 61.44-39.58 122.3-83.33 154.13-13.66 9.93-33.11-2.54-28.08-18.63 38.51-123.17-3.92-169.49-112.59-182v84.17c0 20.7-24.3 31.45-39.69 18.16l-176-152a24 24 0 0 1 0-36.32l176-152c15.41-13.29 39.69-2.49 39.69 18.16v82.77c129.18 10.23 224 52.23 224 183.56z"/></svg>