<svg viewBox="0 0 640 512"><path d="m0 464v-176h544v112a16 16 0 0 0 32 0v-64a16 16 0 0 1 16-16h32a16 16 0 0 1 16 16v64a80.14 80.14 0 0 1 -88.4 79.6c-41.6-4.2-71.6-42.5-71.6-84.3v-43.3h-32v112a16 16 0 0 1 -16 16h-96a16 16 0 0 1 -16-16v-80h-192v80a16 16 0 0 1 -16 16h-96a16 16 0 0 1 -16-16z" opacity=".4"/><path d="m384 32h-224a160 160 0 0 0 -160 160v64h544v-64a160 160 0 0 0 -160-160zm-207.7 138.4-19.8 19.3 4.7 27.3a6 6 0 0 1 -8.7 6.3l-24.5-12.9-24.5 12.9a6 6 0 0 1 -8.7-6.3l4.7-27.3-19.8-19.3a6 6 0 0 1 3.3-10.2l27.4-4 12.2-24.8a6 6 0 0 1 10.7 0l12.2 24.8 27.4 4a6 6 0 0 1 3.4 10.2zm144 0-19.8 19.3 4.7 27.3a6 6 0 0 1 -8.7 6.3l-24.5-12.9-24.5 12.9a6 6 0 0 1 -8.7-6.3l4.7-27.3-19.8-19.3a6 6 0 0 1 3.3-10.2l27.4-4 12.2-24.8a6 6 0 0 1 10.7 0l12.2 24.8 27.4 4a6 6 0 0 1 3.4 10.2zm144 0-19.8 19.3 4.7 27.3a6 6 0 0 1 -8.7 6.3l-24.5-12.9-24.5 12.9a6 6 0 0 1 -8.7-6.3l4.7-27.3-19.8-19.3a6 6 0 0 1 3.3-10.2l27.4-4 12.2-24.8a6 6 0 0 1 10.7 0l12.2 24.8 27.4 4a6 6 0 0 1 3.4 10.2z"/></svg>