<svg viewBox="0 0 640 512"><path d="m112 0a64 64 0 1 0 64 64 64.06 64.06 0 0 0 -64-64zm208 0h-32a16 16 0 0 0 -16 16v480a16 16 0 0 0 16 16h32a16 16 0 0 0 16-16v-480a16 16 0 0 0 -16-16zm176 0a64 64 0 1 0 64 64 64.06 64.06 0 0 0 -64-64z" opacity=".4"/><path d="m623.3 354.5-45.6-185.8c-3.3-13.5-15.5-23-29.8-24.2a95 95 0 0 1 -104 0c-14.3 1.2-26.5 10.7-29.8 24.2l-45.6 185.8c-3.5 15.1 8.5 29.5 24.7 29.5h54.8v104a23.94 23.94 0 0 0 24 24h48a23.94 23.94 0 0 0 24-24v-104h54.8c16.2 0 28.2-14.4 24.5-29.5zm-459.2-210.1a94.8 94.8 0 0 1 -104.2 0 47.82 47.82 0 0 0 -43.9 47.6v136a23.94 23.94 0 0 0 24 24h8v136a23.94 23.94 0 0 0 24 24h80a23.94 23.94 0 0 0 24-24v-136h8a23.94 23.94 0 0 0 24-24v-136a47.82 47.82 0 0 0 -43.9-47.6z"/></svg>