<svg viewBox="0 0 640 512"><path d="m10 202.66a24 24 0 0 1 0-33.94l100.72-100.72a24 24 0 0 1 33.94 0l100.68 100.71a24 24 0 0 1 0 33.95l-10.82 10.82a24 24 0 0 1 -34.42-.48l-40.41-42.8v182.11h187.54a24 24 0 0 1 17 7l16 16c15.12 15.12 4.41 41-17 41h-243.54a24 24 0 0 1 -24-24v-222.12l-40.42 42.81a24 24 0 0 1 -34.42.49z" opacity=".4"/><path d="m259.17 137.28c-15.12-15.12-4.41-41 17-41h243.52a24 24 0 0 1 24 24v222.15l40.41-42.79a24 24 0 0 1 34.42-.49l10.82 10.85a24 24 0 0 1 0 33.94l-100.68 100.66a24 24 0 0 1 -33.94 0l-100.72-100.69a24 24 0 0 1 0-33.91l10.82-10.82a24 24 0 0 1 34.42.49l40.42 42.79v-182.15h-187.52a24 24 0 0 1 -17-7z"/></svg>