<svg viewBox="0 0 640 512"><path d="m96 192h-48c-21.36 0-32-25.9-17-41l80-80a24 24 0 0 1 34 0l80 80c15.11 15.1 4.35 41-17 41h-48v160h202.08a18.9 18.9 0 0 1 17.67 12.08 55.89 55.89 0 0 0 12.68 19.52c11.95 11.95 3.49 32.4-13.43 32.4h-259a24 24 0 0 1 -24-24z" opacity=".4"/><path d="m609 361-80 80a24 24 0 0 1 -33.94 0l-80-80c-15.11-15.11-4.34-41 17-41h48v-160h-202.06a18.91 18.91 0 0 1 -17.68-12.08 55.72 55.72 0 0 0 -12.67-19.52c-12-12-3.49-32.4 13.42-32.4h258.93a24 24 0 0 1 24 24v200h48c21.39 0 32.06 25.9 17 41z"/></svg>