<svg viewBox="0 0 576 512"><path d="m267.74 192h40.54a12 12 0 0 0 11.93-13.26l-4.6-43.58a8 8 0 0 0 -8-7.16h-39.25a8 8 0 0 0 -8 7.16l-4.59 43.58a12 12 0 0 0 11.97 13.26zm5.68-96h29.16a8 8 0 0 0 8-8.84l-2.49-23.16h-40.18l-2.45 23.16a8 8 0 0 0 7.96 8.84zm64.89 254.32a16 16 0 0 0 -15.91-14.32h-68.8a16 16 0 0 0 -15.91 14.32l-10.31 97.68h121.24zm-78-46.32h55.29a16 16 0 0 0 15.91-17.68l-5.07-48a16 16 0 0 0 -15.87-14.32h-45.15a16 16 0 0 0 -15.91 14.32l-5.07 48a16 16 0 0 0 15.91 17.68z" opacity=".4"/><path d="m573.19 402.67-139.79-320c-4.97-11.38-15.8-18.67-27.72-18.67h-97.59l2.45 23.16a8 8 0 0 1 -8 8.84h-29.12a8 8 0 0 1 -8-8.84l2.49-23.16h-97.59a30.45 30.45 0 0 0 -27.73 18.67l-139.79 320c-9.25 21.19 5.51 45.33 27.74 45.33h196.84l10.31-97.68a16 16 0 0 1 15.91-14.32h68.8a16 16 0 0 1 15.91 14.32l10.31 97.68h196.84c22.23 0 36.99-24.14 27.73-45.33zm-317.38-223.93 4.59-43.58a8 8 0 0 1 8-7.16h39.29a8 8 0 0 1 8 7.16l4.6 43.58a12 12 0 0 1 -12.01 13.26h-40.54a12 12 0 0 1 -11.93-13.26zm59.83 125.26h-55.29a16 16 0 0 1 -15.91-17.68l5.07-48a16 16 0 0 1 15.91-14.32h45.15a16 16 0 0 1 15.91 14.32l5.07 48a16 16 0 0 1 -15.91 17.68z"/></svg>