<svg viewBox="0 0 640 512"><path d="m288 416h64v-32h-64zm-96 0h64v-32h-64zm-192-160v128a31.96166 31.96166 0 0 0 32 32h32v-192h-32a31.96166 31.96166 0 0 0 -32 32zm384 160h64v-32h-64zm224-192h-32v192h32a31.96166 31.96166 0 0 0 32-32v-128a31.96166 31.96166 0 0 0 -32-32zm-288-224a32.00033 32.00033 0 0 0 -32 32v64h64v-64a32.00033 32.00033 0 0 0 -32-32z" opacity=".4"/><path d="m464 96h-288a79.974 79.974 0 0 0 -80 80v272a64.06328 64.06328 0 0 0 64 64h320a64.06328 64.06328 0 0 0 64-64v-272a79.974 79.974 0 0 0 -80-80zm-208 320h-64v-32h64zm-32-120a40 40 0 1 1 40-40 39.997 39.997 0 0 1 -40 40zm128 120h-64v-32h64zm96 0h-64v-32h64zm-32-120a40 40 0 1 1 40-40 39.997 39.997 0 0 1 -40 40z"/></svg>