<svg viewBox="0 0 512 512"><path d="m51.94117 154.48438-49.41017 98.8125a28.125 28.125 0 0 0 -2.53123 10.70312 24.00619 24.00619 0 0 0 24 24h93.46093c23.44141-47.41211 61.01172-123.373 77.89063-157.32812.51953-.91407 1-1.76758 1.52344-2.67188h-102.05469c-16.34375.01562-35.53125 11.875-42.87891 26.48438zm172.0586 240.1621v93.56252a24.12394 24.12394 0 0 0 23.96093 23.791 28.02965 28.02965 0 0 0 10.625-2.53125l98.72657-49.39063c14.625-7.3125 26.5-26.5 26.5-42.85937v-101.51563c.0664-.041.125-.08789.1875-.1289v-.52734c-.90625.51953-1.7461 1.002-2.66407 1.52539-33.96093 17.00781-110.0625 54.67973-157.33593 78.07421z" opacity=".4"/><path d="m505.15992 19.51562a16.73971 16.73971 0 0 0 -12.53515-12.57031c-32.39844-6.94531-58.25-6.94531-83.14063-6.94531-89.14844 0-156.67578 40.61523-212.50781 127.81836-.5586.97852-1.07031 1.877-1.625 2.85352-19.59766 39.42578-67.20313 135.70312-88.04688 177.877a31.91421 31.91421 0 0 0 6.09766 36.76172l53.65234 53.3984a31.88923 31.88923 0 0 0 36.64844 5.98047l14.17578-7.01367c46.57422-23.04883 128.06641-63.3789 163.457-81.10351.96094-.54883 1.832-1.04883 2.78907-1.59766 87.23437-56.06055 127.85937-123.51172 127.85937-212.27734.07816-25.08987.14456-50.6094-6.82419-83.18167zm-137.16015 172.48438a48 48 0 1 1 48-48.00195 48.02156 48.02156 0 0 1 -48 48.00195z"/></svg>