<svg viewBox="0 0 576 512"><path d="m566.22 82.05c-121.41-109.39-306.96-109.39-428.44-.05a16.11 16.11 0 0 0 -.71 23.34l22.34 22.34a15.85 15.85 0 0 0 21.86.64c96.45-86.55 244.24-85.85 341.11.42a16 16 0 0 0 21.85-.63l22.7-22.7a16.1 16.1 0 0 0 -.71-23.36zm-360.34 83.61a16.12 16.12 0 0 0 -.86 23.61l22.71 22.73a15.94 15.94 0 0 0 21.7.78c58.77-49.84 145.8-49.36 205.14.21a16.07 16.07 0 0 0 21.63-.84l22.8-22.8a16.22 16.22 0 0 0 -.84-23.63c-83.83-71.91-208.42-71.91-292.28-.06zm-109.88 218.34a32 32 0 1 0 32 32 32 32 0 0 0 -32-32z" opacity=".4"/><path d="m528 320h-152v-80a16 16 0 0 0 -16-16h-16a16 16 0 0 0 -16 16v80h-280a48 48 0 0 0 -48 48v96a48 48 0 0 0 48 48h480a48 48 0 0 0 48-48v-96a48 48 0 0 0 -48-48zm-432 128a32 32 0 1 1 32-32 32 32 0 0 1 -32 32zm96 0a32 32 0 1 1 32-32 32 32 0 0 1 -32 32z"/></svg>