<svg viewBox="0 0 512 512"><path d="m512 416a96.15 96.15 0 0 1 -96 96h-277.8a690.4 690.4 0 0 0 47.3-64h230.5a32 32 0 0 0 0-64h-96a96 96 0 0 1 0-192h45.24a799.82 799.82 0 0 0 50.76 64h-96a32 32 0 0 0 0 64h96a96.15 96.15 0 0 1 96 96z" opacity=".4"/><path d="m96 256a96 96 0 0 0 -96 96c0 53 96 160 96 160s96-107 96-160a96 96 0 0 0 -96-96zm0 128a32 32 0 1 1 32-32 32 32 0 0 1 -32 32zm320-384a96 96 0 0 0 -96 96c0 53 96 160 96 160s96-107 96-160a96 96 0 0 0 -96-96zm0 128a32 32 0 1 1 32-32 32 32 0 0 1 -32 32z"/></svg>