<svg viewBox="0 0 448 512"><path d="m400 32h-352a48 48 0 0 0 -48 48v352a48 48 0 0 0 48 48h352a48 48 0 0 0 48-48v-352a48 48 0 0 0 -48-48zm-288 384a48 48 0 1 1 48-48 48 48 0 0 1 -48 48zm157.53 0h-34.33a11.44 11.44 0 0 1 -11.44-10.63 160.07 160.07 0 0 0 -149.13-149.13 11.44 11.44 0 0 1 -10.63-11.44v-34.33a11.42 11.42 0 0 1 12-11.47c110.55 6 199 94.54 205 205a11.42 11.42 0 0 1 -11.47 12zm103 0h-34.3a11.45 11.45 0 0 1 -11.43-11c-5.6-136.57-115.21-246.2-251.8-251.8a11.45 11.45 0 0 1 -11-11.43v-34.33a11.42 11.42 0 0 1 11.79-11.44c167.83 6 302.21 141.2 308.21 308.21a11.42 11.42 0 0 1 -11.44 11.79z" opacity=".4"/><path d="m112 320a48 48 0 1 0 48 48 48 48 0 0 0 -48-48zm-36.21-224a11.42 11.42 0 0 0 -11.79 11.44v34.33a11.45 11.45 0 0 0 11 11.43c136.59 5.6 246.2 115.23 251.8 251.8a11.45 11.45 0 0 0 11.43 11h34.33a11.42 11.42 0 0 0 11.44-11.79c-6-167.01-140.38-302.21-308.21-308.21zm.21 103a11.42 11.42 0 0 0 -12 11.43v34.37a11.44 11.44 0 0 0 10.63 11.44 160.07 160.07 0 0 1 149.13 149.13 11.44 11.44 0 0 0 11.44 10.63h34.33a11.42 11.42 0 0 0 11.47-12c-6-110.42-94.46-199-205-205z"/></svg>