<svg viewBox="0 0 256 512"><path d="m160 104v16a8 8 0 0 0 8 8h88v64h-88a8 8 0 0 0 -8 8v16a8 8 0 0 0 8 8h88v64h-88a8 8 0 0 0 -8 8v16a8 8 0 0 0 8 8h88v64h-88a8 8 0 0 0 -8 8v16a8 8 0 0 0 8 8h88v64a32 32 0 0 1 -32 32h-192a32 32 0 0 1 -32-32v-448a32 32 0 0 1 32-32h192a32 32 0 0 1 32 32v64h-88a8 8 0 0 0 -8 8z" opacity=".4"/><path d="m160 296v16a8 8 0 0 0 8 8h88v-32h-88a8 8 0 0 0 -8 8zm0 96v16a8 8 0 0 0 8 8h88v-32h-88a8 8 0 0 0 -8 8zm0-192v16a8 8 0 0 0 8 8h88v-32h-88a8 8 0 0 0 -8 8zm8-104a8 8 0 0 0 -8 8v16a8 8 0 0 0 8 8h88v-32z"/></svg>