<svg viewBox="0 0 640 512"><path d="m624.16 210-496.8 281.9a32.18 32.18 0 0 1 -43.5-11.5l-79.6-135.63a31.1 31.1 0 0 1 11.74-42.77l69-39.1 59.7 101.4a8 8 0 0 0 10.9 2.9l13.8-7.8a7.78 7.78 0 0 0 2.9-10.7l-59.6-101.52 55.19-31.32 27.81 47.34a8 8 0 0 0 10.9 2.9l13.8-7.8a7.76 7.76 0 0 0 2.9-10.7l-27.93-47.4 55.19-31.31 59.7 101.68a8 8 0 0 0 10.9 2.9l13.8-7.8a7.78 7.78 0 0 0 2.9-10.7l-59.8-101.68 55.2-31.29 27.9 47.3a8 8 0 0 0 10.9 2.9l13.8-7.8a7.76 7.76 0 0 0 2.9-10.7l-27.89-47.38 55.19-31.32 59.7 101.59a8 8 0 0 0 10.9 2.9l13.8-7.8a7.76 7.76 0 0 0 2.9-10.7l-59.68-101.68 69-39.14a32.18 32.18 0 0 1 43.5 11.5l79.6 135.5a31 31 0 0 1 -11.62 42.83z" opacity=".4"/><path d="m112.66 247.15-27.66 15.72 59.7 101.4a8 8 0 0 0 10.9 2.9l13.8-7.8a7.78 7.78 0 0 0 2.9-10.7zm165.4-93.88-27.5 15.61 59.7 101.69a8 8 0 0 0 10.9 2.9l13.8-7.8a7.78 7.78 0 0 0 2.9-10.7zm-82.69 46.93-27.52 15.63 27.81 47.34a8 8 0 0 0 10.9 2.9l13.8-7.8a7.76 7.76 0 0 0 2.9-10.7zm308-39.23-59.7-101.7-27.61 15.73 59.7 101.6a8 8 0 0 0 10.9 2.9l13.8-7.8a7.76 7.76 0 0 0 2.9-10.7zm-142.5-54.7-27.61 15.73 27.9 47.3a8 8 0 0 0 10.9 2.9l13.8-7.8a7.76 7.76 0 0 0 2.9-10.7z"/></svg>