<svg viewBox="0 0 576 512"><path d="m576 160v192a32 32 0 0 1 -32 32h-512a32 32 0 0 1 -32-32v-192a32 32 0 0 1 32-32h48v88a8 8 0 0 0 8 8h16a8 8 0 0 0 8-8v-88h64v88a8 8 0 0 0 8 8h16a8 8 0 0 0 8-8v-88h64v88a8 8 0 0 0 8 8h16a8 8 0 0 0 8-8v-88h64v88a8 8 0 0 0 8 8h16a8 8 0 0 0 8-8v-88h64v88a8 8 0 0 0 8 8h16a8 8 0 0 0 8-8v-88h48a32 32 0 0 1 32 32z" opacity=".4"/><path d="m176 216a8 8 0 0 0 8 8h16a8 8 0 0 0 8-8v-88h-32zm-96 0a8 8 0 0 0 8 8h16a8 8 0 0 0 8-8v-88h-32zm192 0a8 8 0 0 0 8 8h16a8 8 0 0 0 8-8v-88h-32zm192-88v88a8 8 0 0 0 8 8h16a8 8 0 0 0 8-8v-88zm-96 88a8 8 0 0 0 8 8h16a8 8 0 0 0 8-8v-88h-32z"/></svg>