<svg viewBox="0 0 512 512"><path d="m512 384v96a32 32 0 0 1 -32 32h-448c-2.76 0-5.24-.91-7.8-1.57l158.43-158.43h41.37v56a8 8 0 0 0 8 8h16a8 8 0 0 0 8-8v-56h64v56a8 8 0 0 0 8 8h16a8 8 0 0 0 8-8v-56h64v56a8 8 0 0 0 8 8h16a8 8 0 0 0 8-8v-56h32a32 32 0 0 1 32 32zm-352-96h-56a8 8 0 0 1 -8-8v-16a8 8 0 0 1 8-8h56v-64h-56a8 8 0 0 1 -8-8v-16a8 8 0 0 1 8-8h56v-64h-56a8 8 0 0 1 -8-8v-16a8 8 0 0 1 8-8h56v-32a32 32 0 0 0 -32-32h-96a32 32 0 0 0 -32 32v448c0 2.77.91 5.24 1.57 7.8l158.43-158.42z" opacity=".4"/><path d="m96 264v16a8 8 0 0 0 8 8h56v-32h-56a8 8 0 0 0 -8 8zm0-192v16a8 8 0 0 0 8 8h56v-32h-56a8 8 0 0 0 -8 8zm0 96v16a8 8 0 0 0 8 8h56v-32h-56a8 8 0 0 0 -8 8zm320 184v56a8 8 0 0 0 8 8h16a8 8 0 0 0 8-8v-56zm-192 56a8 8 0 0 0 8 8h16a8 8 0 0 0 8-8v-56h-32zm96 0a8 8 0 0 0 8 8h16a8 8 0 0 0 8-8v-56h-32z"/></svg>