<svg viewBox="0 0 512 512"><path d="m501.65 452.08-51.16-51.16-38.57 38.57a8 8 0 0 1 -11.31 0l-11.31-11.31a8 8 0 0 1 0-11.31l38.57-38.57-56.57-56.57-38.57 38.57a8 8 0 0 1 -11.31 0l-11.31-11.3a8 8 0 0 1 0-11.31l38.57-38.57-56.57-56.57-38.57 38.57a8 8 0 0 1 -11.31 0l-11.31-11.32a8 8 0 0 1 0-11.31l38.57-38.57-56.57-56.57-38.57 38.57a8 8 0 0 1 -11.31 0l-11.31-11.31a8 8 0 0 1 0-11.31l38.57-38.57-56.6-56.59-38.57 38.57a8 8 0 0 1 -11.31 0l-11.31-11.31a8 8 0 0 1 0-11.31l38.57-38.57-51.17-51.17a34.36 34.36 0 0 0 -24.56-10.35c-18.04 0-35.35 14-35.35 35.17v441.73a35.09 35.09 0 0 0 35.1 35.1h441.73c31.27 0 46.93-37.8 24.82-59.92zm-373.65-68.08v-124.54l124.54 124.54z" opacity=".4"/><path d="m310.11 337.68 38.57-38.57 22.62 22.62-38.57 38.57a8 8 0 0 1 -11.31 0l-11.31-11.3a8 8 0 0 1 0-11.32zm-135.76-135.76 38.57-38.57-22.62-22.62-38.57 38.57a8 8 0 0 0 0 11.31l11.27 11.31a8 8 0 0 0 11.35 0zm-90.53-79.21a8 8 0 0 0 11.31 0l38.57-38.57-22.62-22.62-38.57 38.57a8 8 0 0 0 0 11.31zm208.29 119.83-11.3-11.29-11.32-11.33-38.57 38.57a8 8 0 0 0 0 11.31l11.31 11.31a8 8 0 0 0 11.31 0zm135.76 135.76-38.57 38.57a8 8 0 0 0 0 11.31l11.31 11.31a8 8 0 0 0 11.31 0l38.57-38.57z"/></svg>