<svg viewBox="0 0 320 512"><path d="m320 144v32a16 16 0 0 1 -16 16h-288a16 16 0 0 1 -16-16v-32a16 16 0 0 1 16-16h288a16 16 0 0 1 16 16z" opacity=".4"/><path d="m320 44v40a12 12 0 0 1 -12 12h-76.26a144 144 0 0 1 -114.87 223.91l150.88 139.27a12 12 0 0 1 -8.14 20.82h-82.56a12 12 0 0 1 -8.14-3.18l-165.05-152.36a12 12 0 0 1 -3.86-8.82v-48a12 12 0 0 1 9.13-11.64h86.87a79.68 79.68 0 0 0 31.39-6.4 68.32 68.32 0 0 0 6.21-3 80 80 0 0 0 -4.83-143.6 71.06 71.06 0 0 0 -31.52-7.28h-85.25a12 12 0 0 1 -12-12v-39.72a12 12 0 0 1 12-12h296a12 12 0 0 1 12 12z"/></svg>