<svg viewBox="0 0 640 512"><path d="m240 448a64 64 0 1 1 -64-64 64 64 0 0 1 64 64zm400-133.5v69.5a32.09 32.09 0 0 1 -32 32h-21.56a96 96 0 0 0 -170.5-21.07v-202.93l101.58.2a64.3 64.3 0 0 1 45.39 18.8l58.29 58.3a64.29 64.29 0 0 1 18.8 45.2zm-68-26.5-43.29-43.3a15.89 15.89 0 0 0 -11.3-4.7h-37.48v48zm-76.08 96a64 64 0 1 0 64 64 64 64 0 0 0 -64-64z" opacity=".4"/><path d="m512 32h-128v-16a16 16 0 0 0 -16-16h-128a16 16 0 0 0 -16 16v16h-160a64.07 64.07 0 0 0 -64 64v197.54a64 64 0 0 0 18.7 45.31l69.78 69.7a96 96 0 0 1 178 7.45h117.52v-256h192c17.9 0 32.1-14.8 32-32.8a96 96 0 0 0 -96-95.2zm-256 176a16 16 0 0 1 -16 16h-128a16 16 0 0 1 -16-16v-64a16 16 0 0 1 16-16h128a16 16 0 0 1 16 16z"/></svg>