<svg viewBox="0 0 496 512"><path d="m248 8c-137 0-248 111-248 248s111 248 248 248 248-111 248-248-111-248-248-248zm80 168a32 32 0 1 1 -32 32 32 32 0 0 1 32-32zm-176 240c-26.5 0-48-21-48-47 0-20 28.5-60.4 41.6-77.8a8 8 0 0 1 11.2-1.6 7.58 7.58 0 0 1 1.6 1.6c13.1 17.4 41.6 57.8 41.6 77.8 0 26-21.5 47-48 47zm16-176a32 32 0 1 1 32-32 32 32 0 0 1 -32 32zm170.2 154.2a117.35 117.35 0 0 0 -90.2-42.2c-21.2 0-21.2-32 0-32a148.8 148.8 0 0 1 114.7 53.8c13.8 16.4-11.2 36.5-24.5 20.4z" opacity=".4"/><path d="m328 176a32 32 0 1 0 32 32 32 32 0 0 0 -32-32zm-182.4 115.2c-13.1 17.4-41.6 57.8-41.6 77.8 0 26 21.5 47 48 47s48-21 48-47c0-20-28.5-60.4-41.6-77.8a8 8 0 0 0 -11.2-1.6 7.58 7.58 0 0 0 -1.6 1.6zm22.4-115.2a32 32 0 1 0 32 32 32 32 0 0 0 -32-32z"/></svg>