<svg viewBox="0 0 496 512"><path d="m365 474.72 2.52-1.37zm-2.2 1.16-2.46 1.28zm-13.92 6.74 2.51-1.13zm7.32-3.4-2.46 1.17zm139.8-223.22a247.82 247.82 0 0 1 -120.18 212.57l.18-.1v-180.47a16 16 0 0 0 -32 0v196.74a248.88 248.88 0 0 1 -192 0v-196.74a16 16 0 0 0 -32 0v180.47h.06a247.81 247.81 0 0 1 -120.06-212.47c0-137 111-248 248-248s248 111 248 248zm-303.8-23a12 12 0 0 0 19.8-10.8c-4-25.2-34.2-42.1-59.9-42.1s-55.9 16.9-59.9 42.1a12 12 0 0 0 19.8 10.8l9.5-8.5c14.8-13.2 46.2-13.2 61 0zm103.8 119c0-35.3-21.5-64-48-64s-48 28.7-48 64 21.5 64 48 64 48-28.7 48-64zm108-129.8c-4-25.2-34.2-42.1-59.9-42.1s-55.9 16.9-59.9 42.1a12 12 0 0 0 19.8 10.8l9.6-8.6c14.8-13.2 46.2-13.2 61 0l9.5 8.5a11.92 11.92 0 0 0 13.7 1.6 12.36 12.36 0 0 0 6.2-12.3zm-60 262.54 2.42-1zm-215.52-11.39 2.52 1.37zm4.72 2.53 2.46 1.28zm-6.81-3.7c-.83-.47-1.67-.93-2.5-1.41.83.48 1.67.94 2.5 1.41zm13.42 7c.81.4 1.63.78 2.45 1.17-.82-.35-1.64-.73-2.45-1.13zm232.3-8.45c-.83.48-1.67.94-2.5 1.41.83-.43 1.67-.89 2.5-1.37zm-227.5 10.72 2.51 1.13zm7.39 3.25-2.42-1z" opacity=".4"/><path d="m152.1 180.1c-25.7 0-55.9 16.9-59.9 42.1a12 12 0 0 0 19.8 10.8l9.5-8.5c14.8-13.2 46.2-13.2 61 0l9.7 8.5a12 12 0 0 0 19.8-10.8c-4-25.2-34.2-42.1-59.9-42.1zm251.9 42.1c-4-25.2-34.2-42.1-59.9-42.1s-55.9 16.9-59.9 42.1a12 12 0 0 0 19.8 10.8l9.6-8.6c14.8-13.2 46.2-13.2 61 0l9.5 8.5a11.92 11.92 0 0 0 13.7 1.6 12.36 12.36 0 0 0 6.2-12.3zm-44 49.8a16 16 0 0 0 -16 16v196.74a247.25 247.25 0 0 0 32-16.27v-180.47a16 16 0 0 0 -16-16zm-224 0a16 16 0 0 0 -16 16v180.47a247.25 247.25 0 0 0 32 16.27v-196.74a16 16 0 0 0 -16-16z"/></svg>