<svg viewBox="0 0 512 512"><path d="m416 96c2.65 0 5.12.62 7.73.78-17.59-19.91-43.04-32.78-71.73-32.78a95.2 95.2 0 0 0 -25.15 3.75 111.94 111.94 0 0 0 -205.7 0 95.2 95.2 0 0 0 -25.15-3.75 96 96 0 0 0 0 192h73.37l-87-87a8 8 0 0 1 0-11.31l11.32-11.29a8 8 0 0 1 11.31 0l103 103v-145.4a8 8 0 0 1 8-8h16a8 8 0 0 1 8 8v152h52.54a126.78 126.78 0 0 1 -4.54-32 128.14 128.14 0 0 1 128-128zm33.25 38a95.3 95.3 0 0 0 -123.37 122h169.29a48.23 48.23 0 0 1 10.57 1.24 95.86 95.86 0 0 0 -56.49-123.24z" opacity=".4"/><path d="m384 468.52v11.48a32 32 0 0 1 -32 32h-192a32 32 0 0 1 -32-32v-11.28c-69.73-24.46-121.31-87.48-127.94-163.85-.8-9.12 6.94-16.87 16.11-16.87h479c9.15 0 16.89 7.72 16.1 16.84-6.61 76.16-57.87 139.06-127.27 163.68z"/></svg>