<svg viewBox="0 0 512 512"><path d="m512 271.07v32.14c0 .47 0 .93-.08 1.4a16.27 16.27 0 0 1 -17.78 14.6c-28.52-2.6-45.94-11.36-60.41-18.6s-25.19-12.61-49.61-12.61-35 5.3-49.64 12.62c-17.26 8.63-38.7 19.38-78.26 19.38s-61.08-10.73-78.34-19.38c-14.68-7.32-25.3-12.62-49.77-12.62s-35.11 5.3-49.75 12.63-31.93 16-60.51 18.59c-.47 0-.94.07-1.41.08a16.26 16.26 0 0 1 -16.44-16.08v-32.14a15.93 15.93 0 0 1 14.1-15.79c15.16-1.67 24.16-6.17 35.67-11.91 17.23-8.65 38.76-19.38 78.34-19.38s61.08 10.75 78.36 19.38c14.67 7.32 25.33 12.62 49.75 12.62s35-5.3 49.64-12.62c17.26-8.63 38.72-19.38 78.26-19.38s61 10.75 78.27 19.39c11.51 5.73 20.43 10.22 35.51 11.9a15.94 15.94 0 0 1 14.1 15.78z" opacity=".4"/><path d="m480 352h-64l-96 48-96-48h-192a32 32 0 0 0 -32 32v64a32 32 0 0 0 32 32h448a32 32 0 0 0 32-32v-64a32 32 0 0 0 -32-32zm0-320h-448a32 32 0 0 0 -32 32v96a32 32 0 0 0 32 32h448a32 32 0 0 0 32-32v-96a32 32 0 0 0 -32-32z"/></svg>