<svg viewBox="0 0 512 512"><path d="m224.03705 256.18768a32.003 32.003 0 0 0 -32.00489 32.00119c0 2.80009.90013 5.20021 1.60025 7.80028l-27.40418 27.401 22.60345 22.65085 27.40418-27.401c2.6004.7 5.00076 1.60007 7.80119 1.60007a32.0012 32.0012 0 1 0 0-64.00239zm287.944 46.85175c-8.50128-163.15607-139.72132-294.36097-302.94629-303.01129a16.0818 16.0818 0 0 0 -16.99755 15.11031l-.005.09026v32.43121a15.85138 15.85138 0 0 0 15.00229 15.90059c129.41978 7.00026 233.43569 112.00417 240.93683 241.509a16.00167 16.00167 0 0 0 15.90243 15.00056h32.10491a16.12153 16.12153 0 0 0 16.00245-16.1806 4.82409 4.82409 0 0 0 -.00005-.85004zm-302.64624-207.00771a16.12184 16.12184 0 0 0 -17.25227 14.90555l-.00037.005c0 .4-.05.79-.05 1.19v32.10121a15.94134 15.94134 0 0 0 14.80227 15.90058c76.81174 6.30024 138.02108 68.20254 144.92216 145.2054a16.08172 16.08172 0 0 0 15.9024 14.70061h32.205a16.19152 16.19152 0 0 0 16.14248-16.24045v-.01016-1c-8.44137-110.10415-96.55485-198.20746-206.67167-206.75774z" opacity=".4"/><path d="m302.449 487.5963c-77.71184 41.80154-176.727 29.90114-242.337-35.7013s-77.51184-164.50613-35.70545-242.309c4.90074-9.10034 17.7027-10.30038 25.00382-3.00011l256.03912 256.00948c7.40113 7.30025 6.20096 20.10075-3.00049 25.00093z"/></svg>