<svg viewBox="0 0 512 512"><path d="m416 64a96 96 0 0 0 -96 96c0 88.22-71.78 160-160 160a96 96 0 0 0 0 192 351.79 351.79 0 0 0 352-352 96 96 0 0 0 -96-96zm-256 336a16 16 0 0 1 0-32c114.69 0 208-93.31 208-208a16 16 0 0 1 32 0c0 132.34-107.66 240-240 240z" opacity=".4"/><path d="m24.18 369a18.36 18.36 0 0 0 -23.18 11.59 18.11 18.11 0 0 0 -1 5.79v59.24a18.38 18.38 0 0 0 24.18 17.38l45.26-15.08a96.4 96.4 0 0 1 0-63.88zm427.23-368a18.11 18.11 0 0 0 -5.79-1h-59.24a18.36 18.36 0 0 0 -18.33 18.39 18.68 18.68 0 0 0 .95 5.79l15.08 45.26a96.4 96.4 0 0 1 63.88 0l15-45.27a18.36 18.36 0 0 0 -11.55-23.17zm-67.41 143a16 16 0 0 0 -16 16c0 114.69-93.31 208-208 208a16 16 0 0 0 0 32c132.34 0 240-107.66 240-240a16 16 0 0 0 -16-16z"/></svg>