<svg viewBox="0 0 640 512"><path d="m635.28 100.69-27.28-27.32a32 32 0 0 0 -22.66-9.37h-46.83a64 64 0 0 0 -45.26 18.74l-283.25 283.26a25.41 25.41 0 0 1 -39.76-31l47.39-79h22.37a16 16 0 0 0 16-16v-16a16 16 0 0 0 -16-16h-224a16 16 0 0 0 -16 16v16a15.91 15.91 0 0 0 15.21 15.84c-7.73 32.72-15.21 70.88-15.21 96.16 0 61.4 35 114.09 85.73 140.92a150 150 0 0 0 74.27 19.08c77.1 0 116.46-51.33 128-64l246.39-308a32 32 0 0 1 25-12h64.61c14.22 0 21.36-17.23 11.28-27.31zm-547.28 291.31a24 24 0 1 1 24-24 24 24 0 0 1 -24 24zm32-88a24 24 0 1 1 24-24 24 24 0 0 1 -24 24z" opacity=".4"/><path d="m320 212.69-11.31 11.31a16 16 0 0 0 0 22.63l10.31 10.37 34-34-10.35-10.34a16 16 0 0 0 -22.65.03zm-142.23-187.09a301.94 301.94 0 0 0 -28.1 30 387.31 387.31 0 0 0 -49.67-55.6c-49.12 45.58-84 105-84 140.8a117 117 0 0 0 5.89 35.2h61.34a60.88 60.88 0 0 1 -11.23-35.2c0-7.62 8.66-30.3 28.46-57.54q2 2.61 3.89 5.22l42.65 58.78 27.06-33.08c6.07 12.1 9.54 22.24 9.92 26.62a60.88 60.88 0 0 1 -11.21 35.2h61.34a117 117 0 0 0 5.89-35.2c0-26.63-26-81.57-62.23-115.2zm190.23 139.09-11.31 11.31a16 16 0 0 0 0 22.63l10.31 10.37 34-34-10.35-10.34a16 16 0 0 0 -22.65.03zm70.62-48a16 16 0 0 0 -22.62 0l-11.31 11.31a16 16 0 0 0 0 22.63l10.31 10.37 34-34z"/></svg>