<svg viewBox="0 0 640 512"><path d="m635.28 68.69-27.28-27.32a32 32 0 0 0 -22.66-9.37h-46.83a64 64 0 0 0 -45.26 18.74l-283.25 283.26a25.41 25.41 0 0 1 -39.76-31l76.16-127h25.6a16 16 0 0 0 16-16v-16a16 16 0 0 0 -16-16h-256a16 16 0 0 0 -16 16v16a16 16 0 0 0 16 16h11.46c-8.81 31.92-27.46 104.13-27.46 144 0 61.4 35 114.09 85.73 140.92a150 150 0 0 0 74.27 19.08c77.1 0 116.46-51.33 128-64l246.39-308a32 32 0 0 1 25-12h64.61c14.22 0 21.36-17.23 11.28-27.31zm-539.28 275.31a24 24 0 1 1 24-24 24 24 0 0 1 -24 24zm32-96a24 24 0 1 1 24-24 24 24 0 0 1 -24 24z" opacity=".4"/><path d="m320 180.69-11.31 11.31a16 16 0 0 0 0 22.63l10.31 10.37 34-34-10.34-10.34a16 16 0 0 0 -22.66.03zm118.63-96a16 16 0 0 0 -22.63 0l-11.31 11.31a16 16 0 0 0 0 22.63l10.31 10.37 34-34zm-70.63 48-11.31 11.31a16 16 0 0 0 0 22.63l10.31 10.37 34-34-10.34-10.34a16 16 0 0 0 -22.66.03zm-272 163.31a24 24 0 1 0 24 24 24 24 0 0 0 -24-24zm32-96a24 24 0 1 0 24 24 24 24 0 0 0 -24-24z"/></svg>