<svg viewBox="0 0 640 512"><path d="m234.29 430.84c-64.01 51.98-147.29 81.23-234.29 81.16l176-192h105.6v8c0 38.39-15.35 76.61-46.72 102.32z" opacity=".4"/><path d="m482.71 11.85c-29.2-20.83-70.18-13-93.49 14.22l-201.5 235.46a16 16 0 0 0 12.19 26.47h131.94a32.08 32.08 0 0 0 24.37-11.22l139-162.44c26.38-30.8 21.24-78.41-12.51-102.49zm149.29 468.15h-80a8 8 0 0 0 -8 8v16a8 8 0 0 0 8 8h80a8 8 0 0 0 8-8v-16a8 8 0 0 0 -8-8zm-160 0h-80a8 8 0 0 0 -8 8v16a8 8 0 0 0 8 8h80a8 8 0 0 0 8-8v-16a8 8 0 0 0 -8-8zm-160 0h-80a8 8 0 0 0 -8 8v16a8 8 0 0 0 8 8h80a8 8 0 0 0 8-8v-16a8 8 0 0 0 -8-8z"/></svg>