<svg viewBox="0 0 576 512"><path d="m400 96h-384a16 16 0 0 0 -16 16v137.4a16 16 0 0 0 4.7 11.3l27.3 27.3v176a48 48 0 0 0 48 48h256a48 48 0 0 0 48-48v-176l27.3-27.3a16 16 0 0 0 4.7-11.3v-137.4a16 16 0 0 0 -16-16zm-80 336a16 16 0 0 1 -16 16h-192a16 16 0 0 1 -16-16v-256a16 16 0 0 1 16-16h192a16 16 0 0 1 16 16z" opacity=".4"/><path d="m312 0h-16a8 8 0 0 0 -8 8v56h32v-56a8 8 0 0 0 -8-8zm-56 8a8 8 0 0 0 -8-8h-48a8 8 0 0 0 -8 8v56h64zm152-8h-48a8 8 0 0 0 -8 8v56h64v-56a8 8 0 0 0 -8-8zm160 0h-48a8 8 0 0 0 -8 8v272a8 8 0 0 0 8 8h48a8 8 0 0 0 8-8v-272a8 8 0 0 0 -8-8zm-96 0h-16a8 8 0 0 0 -8 8v272a8 8 0 0 0 8 8h16a8 8 0 0 0 8-8v-272a8 8 0 0 0 -8-8zm-168 160h-192a16 16 0 0 0 -16 16v256a16 16 0 0 0 16 16h192a16 16 0 0 0 16-16v-256a16 16 0 0 0 -16-16z"/></svg>