<svg viewBox="0 0 640 512"><path d="m256 448a32 32 0 0 0 32-32v-111.73l-83 143.73zm112-384h-272a95.91 95.91 0 0 0 -1.7 191.79l-87.86 152.21a48 48 0 0 0 17.56 65.53l55.4 32a48 48 0 0 0 65.6-17.53l134-232h89.09a16 16 0 0 0 16-16v-160a16 16 0 0 0 -16.03-16z" opacity=".4"/><path d="m632 448h-176a8 8 0 0 0 -8 8v48a8 8 0 0 0 8 8h176a8 8 0 0 0 8-8v-48a8 8 0 0 0 -8-8zm0-96h-176a8 8 0 0 0 -8 8v16a8 8 0 0 0 8 8h176a8 8 0 0 0 8-8v-16a8 8 0 0 0 -8-8zm0-64h-176a8 8 0 0 0 -8 8v16a8 8 0 0 0 8 8h176a8 8 0 0 0 8-8v-16a8 8 0 0 0 -8-8zm0-224h-176a8 8 0 0 0 -8 8v48a8 8 0 0 0 8 8h176a8 8 0 0 0 8-8v-48a8 8 0 0 0 -8-8zm0 96h-176a8 8 0 0 0 -8 8v48a8 8 0 0 0 8 8h176a8 8 0 0 0 8-8v-48a8 8 0 0 0 -8-8zm0-160h-176a8 8 0 0 0 -8 8v16a8 8 0 0 0 8 8h176a8 8 0 0 0 8-8v-16a8 8 0 0 0 -8-8z"/></svg>