<svg viewBox="0 0 640 512"><path d="m0 320v128a32 32 0 0 0 32 32h576a32 32 0 0 0 32-32v-160h-608a32 32 0 0 0 -32 32zm120 80a8 8 0 0 1 -8 8h-32a8 8 0 0 1 -8-8v-32a8 8 0 0 1 8-8h32a8 8 0 0 1 8 8zm96 0a8 8 0 0 1 -8 8h-32a8 8 0 0 1 -8-8v-32a8 8 0 0 1 8-8h32a8 8 0 0 1 8 8z" opacity=".4"/><path d="m617.84 220.84-581.53-188.01a16 16 0 0 0 -20.25 10.1l-15.23 45.53a16 16 0 0 0 10.1 20.25l555.95 179.29h73.12v-36.71a32 32 0 0 0 -22.16-30.45zm-505.84 139.16h-32a8 8 0 0 0 -8 8v32a8 8 0 0 0 8 8h32a8 8 0 0 0 8-8v-32a8 8 0 0 0 -8-8z"/></svg>