<svg viewBox="0 0 448 512"><path d="m216.84 414.2-24.84-13.2v95a16 16 0 0 0 16 16h32a16 16 0 0 0 16-16v-95l-24.87 13.2a15.08 15.08 0 0 1 -14.29 0zm7.16-414.2a96 96 0 1 0 96 96 96 96 0 0 0 -96-96zm-32 96a16 16 0 1 1 16-16 16 16 0 0 1 -16 16zm64 16a16 16 0 1 1 16-16 16 16 0 0 1 -16 16z" opacity=".4"/><path d="m445.75 186.39-.08-.09-26.39-26.3 18.29-18.3a8 8 0 0 0 -5.7-13.7h-117.39a96 96 0 0 1 -181 0h-117.48a8 8 0 0 0 -5.7 13.7l18.42 18.3-26.38 26.3a8 8 0 0 0 0 11.3l26.38 26.4-18.3 18.3a8 8 0 0 0 5.7 13.7h106.09l-26 141.3a16 16 0 0 0 22.9 16.9l32.71-24.2a16 16 0 0 1 17.08-1.3l47.91 25.5a15.08 15.08 0 0 0 14.29 0l47.9-25.5a16 16 0 0 1 17.1 1.3l32.7 24.2a15.93 15.93 0 0 0 22.89-16.9l-25.81-141.3h106.06a8.05 8.05 0 0 0 5.69-13.7l-18.35-18.3 26.29-26.3a8 8 0 0 0 .18-11.31zm-189.75-74.39a16 16 0 1 0 -16-16 16 16 0 0 0 16 16zm-64-16a16 16 0 1 0 -16-16 16 16 0 0 0 16 16z"/></svg>