<svg viewBox="0 0 512 512"><path d="m509.72 395.71-117.39-117.1-22.61 22.6 117.28 117.1a8 8 0 0 0 11.3 0l11.32-11.31a7.92 7.92 0 0 0 .1-11.29zm-207.89-26.8-22.61 22.6 117.4 117.2a8 8 0 0 0 11.3 0l11.3-11.3a8 8 0 0 0 0-11.3zm-135.83-45.2-118.38 118.2a8 8 0 0 0 0 11.3l11.3 11.3a8 8 0 0 0 11.3 0l118.4-118.2zm-45.31-45.1-118.36 118.1a8 8 0 0 0 0 11.3l11.29 11.3a8 8 0 0 0 11.3 0l118.41-118.2zm226.31 45.1-22.61 22.6 117.41 117.2a8 8 0 0 0 11.29 0l11.3-11.3a8 8 0 0 0 0-11.3zm-254.08 163.4a8 8 0 0 0 0 11.3l11.3 11.3a8 8 0 0 0 11.31 0l118.39-118.2-22.59-22.6z" opacity=".4"/><path d="m279.12 120.51 19.5-19.4a185.4 185.4 0 0 0 -84.4-.2l155.4 155.09-113.09 113.11-135.1-140.7c-48.6-53.7-13-113.3-11.5-115.8l43.6-73.1a56.71 56.71 0 0 1 16.8-18c44-29.7 130.7-27.6 171.3-.1a56.71 56.71 0 0 1 16.8 18l43.7 73.4c7.2 12 33.4 65.6-13.2 117.3z"/></svg>