<svg viewBox="0 0 640 512"><path d="m360 176h-24v-40a8 8 0 0 0 -8-8h-16a8 8 0 0 0 -8 8v64a8 8 0 0 0 8 8h48a8 8 0 0 0 8-8v-16a8 8 0 0 0 -8-8zm-360 48v272a16 16 0 0 0 16 16h80v-320h-64a32 32 0 0 0 -32 32zm608-32h-64v320h80a16 16 0 0 0 16-16v-272a32 32 0 0 0 -32-32z" opacity=".4"/><path d="m497.75 112-160-106.63a32 32 0 0 0 -35.5 0l-160 106.63a32 32 0 0 0 -14.25 26.66v373.34h128v-144a16 16 0 0 1 16-16h96a16 16 0 0 1 16 16v144h128v-373.33a32 32 0 0 0 -14.25-26.67zm-177.75 144a80 80 0 1 1 80-80 80 80 0 0 1 -80 80z"/></svg>