<svg viewBox="0 0 640 512"><path d="m539.31 228.69-27.31 27.31 27.31 27.31a16 16 0 0 1 4.69 11.32v89.37h-89.37a16 16 0 0 0 -11.32 4.69l-27.31 27.31-27.31-27.31a16 16 0 0 0 -11.32-4.69h-73.37a16 16 0 0 0 -16 16v32a80 80 0 0 1 -80.61 80c-44.11-.33-79.39-36.89-79.39-81v-168.37a16 16 0 0 1 4.69-11.32l27.31-27.31-27.31-27.31a16 16 0 0 1 -4.69-11.32v-120.37a65 65 0 0 0 -65-65h385a96.1 96.1 0 0 1 95.68 88.2 16.15 16.15 0 0 1 -4.63 12.8l-27.05 27 27.31 27.31a16 16 0 0 1 4.69 11.32v50.74a16 16 0 0 1 -4.69 11.32z" opacity=".4"/><path d="m192 512h16c-2.59 0-5.14-.13-7.66-.37-2.75.24-5.53.37-8.34.37zm-128-512a64 64 0 0 0 -64 64v48a16 16 0 0 0 16 16h112v-63a65 65 0 0 0 -64-65zm560 384h-169.37a16 16 0 0 0 -11.32 4.69l-27.31 27.31-27.31-27.31a16 16 0 0 0 -11.32-4.69h-73.37a16 16 0 0 0 -16 16v32a80 80 0 0 1 -80 80h320a112 112 0 0 0 112-112.06 16 16 0 0 0 -16-15.94z"/></svg>