<svg viewBox="0 0 512 512"><path d="m208 80a128 128 0 1 1 -90.51 37.49 127.15 127.15 0 0 1 90.51-37.49m0-80c-114.88 0-208 93.12-208 208s93.12 208 208 208 208-93.12 208-208-93.12-208-208-208z" opacity=".4"/><path d="m235.13 199.42-45-13.5c-5.16-1.55-8.77-6.78-8.77-12.73 0-7.27 5.3-13.19 11.8-13.19h28.11a24 24 0 0 1 12.82 3.72 8.21 8.21 0 0 0 10.13-.73l11.78-11.21a8 8 0 0 0 -.57-12.14 57.26 57.26 0 0 0 -31.43-11.35v-16.29a8 8 0 0 0 -8-8h-16a8 8 0 0 0 -8 8v16.12c-23.63.63-42.68 20.55-42.68 45.07 0 20 13 37.81 31.58 43.39l45 13.5c5.16 1.55 8.77 6.78 8.77 12.73 0 7.27-5.3 13.19-11.8 13.19h-28.07a24 24 0 0 1 -12.8-3.72 8.21 8.21 0 0 0 -10.13.73l-11.77 11.21a8 8 0 0 0 .57 12.14 57.26 57.26 0 0 0 31.33 11.35v16.29a8 8 0 0 0 8 8h16a8 8 0 0 0 8-8v-16.12c23.63-.63 42.68-20.54 42.68-45.07.04-19.97-12.95-37.81-31.55-43.39zm269.87 243.28-99.7-99.7a24 24 0 0 0 -17-7h-16.3l-36 36v16.3a24 24 0 0 0 7 17l99.7 99.7a23.9 23.9 0 0 0 33.9 0l28.3-28.3a24.11 24.11 0 0 0 .1-34z"/></svg>