<svg viewBox="0 0 512 512"><path d="m208 80a128 128 0 1 1 -90.51 37.49 127.15 127.15 0 0 1 90.51-37.49m0-80c-114.88 0-208 93.12-208 208s93.12 208 208 208 208-93.12 208-208-93.12-208-208-208z" opacity=".4"/><path d="m292 180h-56v-56a12 12 0 0 0 -12-12h-32a12 12 0 0 0 -12 12v56h-56a12 12 0 0 0 -12 12v32a12 12 0 0 0 12 12h56v56a12 12 0 0 0 12 12h32a12 12 0 0 0 12-12v-56h56a12 12 0 0 0 12-12v-32a12 12 0 0 0 -12-12zm213 262.7-99.7-99.7a24 24 0 0 0 -17-7h-16.3l-36 36v16.3a24 24 0 0 0 7 17l99.7 99.7a23.9 23.9 0 0 0 33.9 0l28.3-28.3a24.11 24.11 0 0 0 .1-34z"/></svg>