<svg viewBox="0 0 640 512"><path d="m384 32h-320a64 64 0 0 0 -64 64v320a64 64 0 0 0 64 64h193.86a111.81 111.81 0 0 1 46.73-187.52 112.15 112.15 0 0 1 111.41-100.48c11.14 0 21.74 2.15 32 5.22v-101.22a64 64 0 0 0 -64-64zm-288 240a16 16 0 0 1 -32 0v-160a16 16 0 0 1 32 0zm64 0a16 16 0 0 1 -32 0v-160a16 16 0 0 1 32 0zm64 0a16 16 0 0 1 -32 0v-160a16 16 0 0 1 32 0z" opacity=".4"/><path d="m572.66 321.28a47.81 47.81 0 0 0 -82.39-46.63 79.94 79.94 0 0 0 -152.63 45.52c-.56 0-1.08-.17-1.64-.17a80 80 0 0 0 0 160h224a79.85 79.85 0 0 0 12.66-158.72zm-492.66-225.28a16 16 0 0 0 -16 16v160a16 16 0 0 0 32 0v-160a16 16 0 0 0 -16-16zm64 0a16 16 0 0 0 -16 16v160a16 16 0 0 0 32 0v-160a16 16 0 0 0 -16-16zm64 0a16 16 0 0 0 -16 16v160a16 16 0 0 0 32 0v-160a16 16 0 0 0 -16-16z"/></svg>