<svg viewBox="0 0 640 512"><path d="m384 32h-320a64 64 0 0 0 -64 64v320a64 64 0 0 0 64 64h320a64 64 0 0 0 64-64v-320a64 64 0 0 0 -64-64zm-288 240a16 16 0 0 1 -32 0v-160a16 16 0 0 1 32 0zm64 0a16 16 0 0 1 -32 0v-160a16 16 0 0 1 32 0zm64 0a16 16 0 0 1 -32 0v-160a16 16 0 0 1 32 0z" opacity=".4"/><path d="m616 232h-64a24 24 0 0 0 0 48h64a24 24 0 0 0 0-48zm-80-88a23.87 23.87 0 0 0 13.29-4l48-32a24 24 0 1 0 -26.62-39.92l-48 32a24 24 0 0 0 13.33 43.92zm13.29 228a24 24 0 1 0 -26.6 40l48 32a24 24 0 1 0 26.62-40zm-469.29-276a16 16 0 0 0 -16 16v160a16 16 0 0 0 32 0v-160a16 16 0 0 0 -16-16zm128 0a16 16 0 0 0 -16 16v160a16 16 0 0 0 32 0v-160a16 16 0 0 0 -16-16zm-64 0a16 16 0 0 0 -16 16v160a16 16 0 0 0 32 0v-160a16 16 0 0 0 -16-16z"/></svg>