<svg viewBox="0 0 640 512"><path d="m448 96a64 64 0 0 0 -64-64h-320a64 64 0 0 0 -64 64v320a64 64 0 0 0 64 64h178.51c-2.47-3.15-5.24-6-7.29-9.54a82.22 82.22 0 0 1 0-83.08l140.78-244.15a82.24 82.24 0 0 1 72-41.58zm-352 176a16 16 0 0 1 -32 0v-160a16 16 0 0 1 32 0zm64 0a16 16 0 0 1 -32 0v-160a16 16 0 0 1 32 0zm64 0a16 16 0 0 1 -32 0v-160a16 16 0 0 1 32 0z" opacity=".4"/><path d="m633.09 403.37-140.82-244.15c-19.67-34.1-68.87-34.1-88.53 0l-140.83 244.14c-19.65 34.07 4.93 76.64 44.27 76.64h281.64c39.33 0 63.92-42.57 44.27-76.63zm-185.09 28.63a24 24 0 1 1 24-24 24 24 0 0 1 -24 24zm19.08-82.8a12 12 0 0 1 -11.94 10.8h-14.27a12 12 0 0 1 -11.95-10.8l-9.59-96a12 12 0 0 1 11.94-13.2h33.47a12 12 0 0 1 11.94 13.2zm-387.08-253.2a16 16 0 0 0 -16 16v160a16 16 0 0 0 32 0v-160a16 16 0 0 0 -16-16zm64 0a16 16 0 0 0 -16 16v160a16 16 0 0 0 32 0v-160a16 16 0 0 0 -16-16zm64 0a16 16 0 0 0 -16 16v160a16 16 0 0 0 32 0v-160a16 16 0 0 0 -16-16z"/></svg>