<svg viewBox="0 0 640 512"><path d="m288 315.43c0-61.11 53.59-153.43 130.27-224.61a27.79 27.79 0 0 1 28.42-7.3 64 64 0 0 0 -62.69-51.52h-320a64 64 0 0 0 -64 64v320a64 64 0 0 0 64 64h311.35a197.67 197.67 0 0 1 -87.35-164.57zm-192-43.43a16 16 0 0 1 -32 0v-160a16 16 0 0 1 32 0zm64 0a16 16 0 0 1 -32 0v-160a16 16 0 0 1 32 0zm64 0a16 16 0 1 1 -32 0v-160a16 16 0 1 1 32 0zm341.17 10.83c-2.51-4.83-5.33-9.86-8.44-15l-44 50.14s-68.92-88-74.1-94c-36.37 43.59-54.6 69.11-54.6 98.07 0 58.12 44 93.93 98.13 93.93a100.87 100.87 0 0 0 57.91-18.1c36.93-25.82 45.59-75.87 25.07-115.04z" opacity=".4"/><path d="m551.13 150.86a427.29 427.29 0 0 0 -40.13 42.84 552.55 552.55 0 0 0 -71-79.41c-70.18 65.11-120 150-120 201.14 0 90.9 71.66 164.57 160 164.57s160-73.67 160-164.57c0-38.05-37.12-116.54-88.87-164.57zm-11.06 247a100.87 100.87 0 0 1 -57.91 18.14c-54.11 0-98.16-35.81-98.16-93.93 0-29 18.23-54.48 54.6-98.07 5.18 6 74.1 94 74.1 94l44-50.14c3.11 5.12 5.93 10.15 8.44 15 20.52 39.14 11.86 89.19-25.07 115.04zm-332.07-301.86a16 16 0 0 0 -16 16v160a16 16 0 1 0 32 0v-160a16 16 0 0 0 -16-16zm-128 0a16 16 0 0 0 -16 16v160a16 16 0 0 0 32 0v-160a16 16 0 0 0 -16-16zm64 0a16 16 0 0 0 -16 16v160a16 16 0 0 0 32 0v-160a16 16 0 0 0 -16-16z"/></svg>