<svg viewBox="0 0 448 512"><path d="m384 32h-320a64 64 0 0 0 -64 64v320a64 64 0 0 0 64 64h320a64 64 0 0 0 64-64v-320a64 64 0 0 0 -64-64zm-288 240a16 16 0 0 1 -32 0v-160a16 16 0 0 1 32 0zm64 0a16 16 0 0 1 -32 0v-160a16 16 0 0 1 32 0zm64 0a16 16 0 0 1 -32 0v-160a16 16 0 0 1 32 0z" opacity=".4"/><path d="m80 96a16 16 0 0 0 -16 16v160a16 16 0 0 0 32 0v-160a16 16 0 0 0 -16-16zm64 0a16 16 0 0 0 -16 16v160a16 16 0 0 0 32 0v-160a16 16 0 0 0 -16-16zm64 0a16 16 0 0 0 -16 16v160a16 16 0 0 0 32 0v-160a16 16 0 0 0 -16-16z"/></svg>