<svg viewBox="0 0 512 512"><path d="m432 120a24 24 0 1 0 -24-24 24 24 0 0 0 24 24zm0 272a24 24 0 1 0 24 24 24 24 0 0 0 -24-24zm48-200h-448a32 32 0 0 0 -32 32v64a32 32 0 0 0 32 32h448a32 32 0 0 0 32-32v-64a32 32 0 0 0 -32-32zm-112 88a24 24 0 1 1 24-24 24 24 0 0 1 -24 24zm64 0a24 24 0 1 1 24-24 24 24 0 0 1 -24 24z" opacity=".4"/><path d="m456 256a24 24 0 1 0 -24 24 24 24 0 0 0 24-24zm24-224h-448a32 32 0 0 0 -32 32v64a32 32 0 0 0 32 32h448a32 32 0 0 0 32-32v-64a32 32 0 0 0 -32-32zm-112 88a24 24 0 1 1 24-24 24 24 0 0 1 -24 24zm64 0a24 24 0 1 1 24-24 24 24 0 0 1 -24 24zm48 232h-448a32 32 0 0 0 -32 32v64a32 32 0 0 0 32 32h448a32 32 0 0 0 32-32v-64a32 32 0 0 0 -32-32zm-112 88a24 24 0 1 1 24-24 24 24 0 0 1 -24 24zm64 0a24 24 0 1 1 24-24 24 24 0 0 1 -24 24z"/></svg>