<svg viewBox="0 0 576 512"><path d="m0 464v-352a48 48 0 0 1 48-48h121c12.55 0 16.68 16.83 5.55 22.63a195.1 195.1 0 0 0 -51 37.68 12 12 0 0 1 -8.64 3.69h-50.91v320h320v-68.87a12 12 0 0 1 13.8-11.86 71.73 71.73 0 0 0 34.2-3.38 12 12 0 0 1 16 11.3v88.81a48 48 0 0 1 -48 48h-352a48 48 0 0 1 -48-48z" opacity=".4"/><path d="m424.48 6.56 144 136a24 24 0 0 1 0 34.9l-144 136c-15.18 14.31-40.48 3.68-40.48-17.46v-72c-144.58 1-205.57 35.12-164.78 171.36 4.49 15-12.84 26.56-25 17.33-39-29.6-74.22-86.22-74.22-143.37 0-143.92 117.6-172.48 264-173.32v-72c0-21.16 25.32-31.76 40.48-17.44z"/></svg>