<svg viewBox="0 0 576 512"><path d="m567.69 226.16-176 152c-15.39 13.28-39.69 2.53-39.69-18.16v-15.83l108.61-93.79a56 56 0 0 0 0-84.76l-108.61-93.79v-15.83c0-20.66 24.28-31.46 39.69-18.16l176 152a24 24 0 0 1 0 36.32z" opacity=".4"/><path d="m439.69 226.16-176 152c-15.39 13.28-39.69 2.53-39.69-18.16v-84.19c-108.67 12.53-151.1 58.85-112.59 182 5 16.09-14.42 28.56-28.08 18.63-43.75-31.81-83.33-92.67-83.33-154.11 0-131.33 94.82-173.33 224-183.55v-82.78c0-20.66 24.28-31.46 39.69-18.16l176 152a24 24 0 0 1 0 36.32z"/></svg>