<svg viewBox="0 0 512 512"><path d="m466.5 83.67-192-80a48.15 48.15 0 0 0 -36.9 0l-192 80a48 48 0 0 0 -29.6 44.33c0 198.5 114.5 335.69 221.5 380.29a48.15 48.15 0 0 0 36.9 0c85.7-35.71 221.6-159.02 221.6-380.29a48 48 0 0 0 -29.5-44.33zm-47.2 114.21-184 184a16.06 16.06 0 0 1 -22.6 0l-104-104a16.07 16.07 0 0 1 0-22.61l22.6-22.6a16.07 16.07 0 0 1 22.6 0l70.1 70.1 150.1-150.1a16.07 16.07 0 0 1 22.6 0l22.6 22.6a15.89 15.89 0 0 1 0 22.61z" opacity=".4"/><path d="m419.3 197.88-184 184a16.06 16.06 0 0 1 -22.6 0l-104-104a16.07 16.07 0 0 1 0-22.61l22.6-22.6a16.07 16.07 0 0 1 22.6 0l70.1 70.1 150.1-150.1a16.07 16.07 0 0 1 22.6 0l22.6 22.6a15.89 15.89 0 0 1 0 22.61z"/></svg>