<svg viewBox="0 0 448 512"><path d="m192 501.06v-277.06h-183.24c25.84 137.89 104.95 235.21 183.24 277.06zm-192-373.06c0 10.86.34 21.52 1 32h191v-149.72l-164.43 73.41c-16.69 7.45-27.57 24.93-27.57 44.31zm420.43-44.31-164.43-73.41v149.72h191.08q.9-15.65.92-32c0-19.38-10.88-36.86-27.57-44.31zm-164.43 417.31c66.65-36.25 155.84-126.92 183.48-277h-183.48z" opacity=".4"/><path d="m447.08 160a517.11 517.11 0 0 1 -7.6 64h-183.48v277c-5.06 2.75-10 5.2-14.77 7.33a42.07 42.07 0 0 1 -34.46 0c-4.91-2.19-9.84-4.62-14.77-7.25v-277.08h-183.24a509.43 509.43 0 0 1 -7.76-64h191v-149.72l14.77-6.59a42.07 42.07 0 0 1 34.46 0l14.77 6.59v149.72z"/></svg>