<svg viewBox="0 0 640 512"><path d="m248 160h-208a8 8 0 0 0 -8 8v16a8 8 0 0 0 8 8h208a8 8 0 0 0 8-8v-16a8 8 0 0 0 -8-8zm-24 88v-16a8 8 0 0 0 -8-8h-208a8 8 0 0 0 -8 8v16a8 8 0 0 0 8 8h208a8 8 0 0 0 8-8zm-48 104a80 80 0 1 0 80 80 80 80 0 0 0 -80-80zm288 0a80 80 0 1 0 80 80 80 80 0 0 0 -80-80zm-184-256h-272a8 8 0 0 0 -8 8v16a8 8 0 0 0 8 8h272a8 8 0 0 0 8-8v-16a8 8 0 0 0 -8-8z" opacity=".4"/><path d="m624 352h-16v-108.1a48 48 0 0 0 -14.1-33.9l-99.9-99.9a48 48 0 0 0 -33.9-14.1h-44.1v-48a48 48 0 0 0 -48-48h-256a48 48 0 0 0 -48 48v48h216a8 8 0 0 1 8 8v16a8 8 0 0 1 -8 8h-216v32h184a8 8 0 0 1 8 8v16a8 8 0 0 1 -8 8h-184v32h152a8 8 0 0 1 8 8v16a8 8 0 0 1 -8 8h-152v112a47.74 47.74 0 0 0 7 25 112 112 0 0 1 215.86 23h66.28a112 112 0 0 1 221.72 0h49.14a16 16 0 0 0 16-16v-32a16 16 0 0 0 -16-16zm-64-96h-144v-112h44.1l99.9 99.9z"/></svg>