<svg viewBox="0 0 512 512"><path d="m511.21 84.07c-3.78-29.71-21.06-55.68-47.42-71.21a95.15 95.15 0 0 0 -97.93 1.43c-42.66 26.71-58.15 79.71-35.86 124.59 1.44 2.93 2.28 7.16 0 9.49l-24.47 24.45 33.93 33.93 24.48-24.46c16.72-16.73 20.28-42.14 9.09-64.72-9.62-19.43-6-48.25 19.61-63.36a45.55 45.55 0 0 1 45.92-.53c14.22 8 23.15 21 25.13 36.45a47.82 47.82 0 0 1 -6 30.09c-3.71 6.39-3.31 14.32 1.91 19.55l12.29 12.29c6.72 6.72 18.17 6.09 23.54-1.75a95.27 95.27 0 0 0 15.78-66.24zm-506.66 389.45a15.5 15.5 0 0 0 0 21.91l12 12a15.49 15.49 0 0 0 21.91 0l61.78-61.73-33.92-33.91z" opacity=".4"/><path d="m126.55 255.59a30.61 30.61 0 0 0 -43.28 0l-42.27 42.3a30.59 30.59 0 0 0 0 43.27l129.82 129.84a30.61 30.61 0 0 0 43.28 0l42.3-42.3a30.61 30.61 0 0 0 0-43.28zm238.05 21.65-129.83-129.86a30.62 30.62 0 0 0 -43.29 0l-42.3 42.3a30.62 30.62 0 0 0 0 43.28l129.82 129.86a30.61 30.61 0 0 0 43.28 0l42.3-42.3a30.61 30.61 0 0 0 .02-43.28z"/></svg>