<svg viewBox="0 0 640 512"><path d="m0 416a64 64 0 0 0 64 64h32v-128h-32a64 64 0 0 0 -64 64zm337.46-128c-34.91 0-76.16 13.12-104.73 32-24.79 16.38-44.52 32-104.73 32v128l57.53 16c26.21 7.28 53 13.12 80.31 15 32.69 2.31 65.6.67 97.58-6.2 109.48-23.5 148.58-75.58 148.58-120.8 0-64-84.18-96-174.54-96z" opacity=".4"/><path d="m128 96a64 64 0 0 0 64 64h32v-128h-32a64 64 0 0 0 -64 64zm363.42-88.81c-32-6.87-64.89-8.52-97.58-6.2-27.3 1.93-54.1 7.77-80.31 15l-57.53 16.01v128c60.2 0 79.94 15.62 104.73 32 28.57 18.88 69.82 32 104.73 32 90.36 0 174.54-32 174.54-96 0-45.22-39.1-97.3-148.58-120.81z"/></svg>