<svg viewBox="0 0 576 512"><path d="m242.82 38.12a32 32 0 0 0 -44.7 7.06l-106.78 146.82h79.14l79.4-109.18a32 32 0 0 0 -7.06-44.7zm135.06 7.06a32 32 0 1 0 -51.76 37.64l79.4 109.18h79.14z" opacity=".4"/><path d="m552 192h-528a24 24 0 0 0 -24 24v16a24 24 0 0 0 24 24h8l26.11 182.79a48 48 0 0 0 47.52 41.21h364.74a48 48 0 0 0 47.52-41.21l26.11-182.79h8a24 24 0 0 0 24-24v-16a24 24 0 0 0 -24-24zm-352 200a24 24 0 0 1 -48 0v-112a24 24 0 0 1 48 0zm112 0a24 24 0 0 1 -48 0v-112a24 24 0 0 1 48 0zm112 0a24 24 0 0 1 -48 0v-112a24 24 0 0 1 48 0z"/></svg>