<svg viewBox="0 0 512 512"><path d="m336 224a16 16 0 1 0 16 16 16 16 0 0 0 -16-16zm0 96a16 16 0 1 0 -16-16 16 16 0 0 0 16 16zm-32 0a16 16 0 1 0 16 16 16 16 0 0 0 -16-16zm128-96a16 16 0 1 0 -16-16 16 16 0 0 0 16 16zm-64 64a16 16 0 1 0 -16-16 16 16 0 0 0 16 16zm16-48a16 16 0 1 0 16-16 16 16 0 0 0 -16 16zm-80 16a16 16 0 1 0 16 16 16 16 0 0 0 -16-16zm32 96a16 16 0 1 0 16 16 16 16 0 0 0 -16-16zm128-128a16 16 0 1 0 16 16 16 16 0 0 0 -16-16zm32-32a16 16 0 1 0 16 16 16 16 0 0 0 -16-16zm-64 64a16 16 0 1 0 16 16 16 16 0 0 0 -16-16zm-32 32a16 16 0 1 0 16 16 16 16 0 0 0 -16-16zm-96 96a16 16 0 1 0 16 16 16 16 0 0 0 -16-16zm64-192a16 16 0 1 0 16 16 16 16 0 0 0 -16-16zm0 128a16 16 0 1 0 16 16 16 16 0 0 0 -16-16z" opacity=".4"/><path d="m389.66 101.65-11.32-11.31a16 16 0 0 0 -22.62 0l-5.67 5.66a111.17 111.17 0 0 0 -78.05-32c-19.24 0-37.08 5.3-52.9 13.85l-10-10a121.72 121.72 0 0 0 -85.66-35.85c-67.95-.5-123.44 60.91-123.44 128.85v303.15a16 16 0 0 0 16 16h32a16 16 0 0 0 16-16v-305.6c0-30.15 21-58.2 51-61.93a58.38 58.38 0 0 1 48.93 16.67l10 10c-8.63 15.78-13.93 33.62-13.93 52.86a111.2 111.2 0 0 0 32 78.05l-5.68 5.67a16 16 0 0 0 0 22.62l11.32 11.31a16 16 0 0 0 22.62 0l169.4-169.37a16 16 0 0 0 0-22.63z"/></svg>