<svg viewBox="0 0 512 512"><path d="m448 96v128h-384v-192a32 32 0 0 1 32-32h256v80a16 16 0 0 0 16 16zm-216 320h48v80a16 16 0 0 1 -16 16h-16a16 16 0 0 1 -16-16zm-96 0h48v80a16 16 0 0 1 -16 16h-16a16 16 0 0 1 -16-16zm-96 0h48v80a16 16 0 0 1 -16 16h-16a16 16 0 0 1 -16-16zm288 0h48v80a16 16 0 0 1 -16 16h-16a16 16 0 0 1 -16-16zm96 0h48v80a16 16 0 0 1 -16 16h-16a16 16 0 0 1 -16-16z" opacity=".4"/><path d="m368 96h80v-4.58a17.92 17.92 0 0 0 -5.25-12.67l-73.43-73.5a18 18 0 0 0 -12.75-5.25h-4.57v80a16 16 0 0 0 16 16zm80 96v32h-384v-32a64 64 0 0 0 -64 64v112a16 16 0 0 0 16 16h480a16 16 0 0 0 16-16v-112a64 64 0 0 0 -64-64zm-16 136a24 24 0 1 1 24-24 24 24 0 0 1 -24 24z"/></svg>