<svg viewBox="0 0 512 512"><path d="m181.05 481a106.07 106.07 0 0 1 -150-150l2.6-2.6 150 150z" opacity=".4"/><path d="m512 220v54.6a28.15 28.15 0 0 1 -16.2 25.4l-250.35 116.5-39.2 39.2-150-150 39.2-39.2 116.55-250.3a28.09 28.09 0 0 1 25.35-16.2h54.65a28.08 28.08 0 0 1 28 28v20c-12.3 0-56.6-1.3-71.1 44.7l-28.8 91.2-45.4 26.4-36.3 78 25.7 25.7 70.8-70.8 44.5-140.8a32 32 0 0 1 30.45-22.4h94.15a28 28 0 0 1 28 28v94.1a32.08 32.08 0 0 1 -22.4 30.5l-140.8 44.5-70.8 70.8 25.7 25.8 78-36.3 26.4-45.4 91.2-28.8c49-15.5 44.7-65.2 44.7-71.2h20a28.08 28.08 0 0 1 28 28z"/></svg>