<svg viewBox="0 0 640 512"><path d="m290.71 192.91a16 16 0 0 1 5.29-.91h48a16 16 0 0 1 16 16v38.47zm-202.71 191.09h-48a16 16 0 0 0 -16 16v96a16 16 0 0 0 16 16h48a16 16 0 0 0 16-16v-96a16 16 0 0 0 -16-16zm400-38.6v-233.4a16 16 0 0 0 -16-16h-48a16 16 0 0 0 -16 16v171.57zm128 98.93v-428.33a16 16 0 0 0 -16-16h-48a16 16 0 0 0 -16 16v366.5zm-208 51.67a16 16 0 0 0 16 16h48a15.72 15.72 0 0 0 13-7.15l-77-59.5zm-128 0a16 16 0 0 0 16 16h48a16 16 0 0 0 16-16v-87.75l-80-61.83zm-112-208a16 16 0 0 0 -16 16v192a16 16 0 0 0 16 16h48a16 16 0 0 0 16-16v-186.68l-27.59-21.32z" opacity=".4"/><path d="m636.63 480.54-19.63 25.27a15.77 15.77 0 0 1 -14.93 5.77 14.47 14.47 0 0 1 -2.07.42h-2.56a15.42 15.42 0 0 0 -2.9-3.37l-588.36-454.73a16 16 0 0 1 -2.81-22.45l19.63-25.27a16 16 0 0 1 22.47-2.81l588.35 454.73a16 16 0 0 1 2.81 22.44z"/></svg>