<svg viewBox="0 0 576 512"><path d="m198.27 168.37-22.76-22.23a16.44 16.44 0 0 0 -24 1.31 168.77 168.77 0 0 0 0 217.1 16.44 16.44 0 0 0 24 1.31l22.76-22.22a15.12 15.12 0 0 0 1.45-20.32 107.39 107.39 0 0 1 0-134.64 15.11 15.11 0 0 0 -1.45-20.31zm226.19-20.92a16.44 16.44 0 0 0 -24-1.31l-22.76 22.23a15.12 15.12 0 0 0 -1.45 20.31 107.39 107.39 0 0 1 0 134.64 15.14 15.14 0 0 0 1.45 20.32l22.76 22.22a16.44 16.44 0 0 0 24-1.31 168.77 168.77 0 0 0 0-217.1z" opacity=".4"/><path d="m288 200a56 56 0 1 0 56 56 56 56 0 0 0 -56-56zm-224 56a214.3 214.3 0 0 1 55.42-144.06c5.59-6.22 4.91-15.74-1.08-21.59l-22.34-21.82a16.41 16.41 0 0 0 -23.56 1c-46.85 51.47-72.44 117.03-72.44 186.47s25.59 135 72.44 186.52a16.41 16.41 0 0 0 23.56 1l22.34-21.82c6-5.85 6.67-15.37 1.08-21.59a214.3 214.3 0 0 1 -55.42-144.11zm439.56-186.52a16.41 16.41 0 0 0 -23.56-1l-22.34 21.87c-6 5.85-6.67 15.37-1.08 21.59a214.95 214.95 0 0 1 0 288.12c-5.59 6.22-4.91 15.74 1.08 21.59l22.34 21.82a16.41 16.41 0 0 0 23.56-1c46.85-51.47 72.44-117.03 72.44-186.47s-25.59-135-72.44-186.52z"/></svg>