<svg viewBox="0 0 640 512"><path d="m216 288h-48a16 16 0 0 0 -16 16v192a16 16 0 0 0 16 16h48a16 16 0 0 0 16-16v-192a16 16 0 0 0 -16-16zm-128 96h-48a16 16 0 0 0 -16 16v96a16 16 0 0 0 16 16h48a16 16 0 0 0 16-16v-96a16 16 0 0 0 -16-16zm256-192h-48a16 16 0 0 0 -16 16v288a16 16 0 0 0 16 16h48a16 16 0 0 0 16-16v-288a16 16 0 0 0 -16-16zm256-192h-48a16 16 0 0 0 -16 16v480a16 16 0 0 0 16 16h48a16 16 0 0 0 16-16v-480a16 16 0 0 0 -16-16zm-128 96h-48a16 16 0 0 0 -16 16v384a16 16 0 0 0 16 16h48a16 16 0 0 0 16-16v-384a16 16 0 0 0 -16-16z"/></svg>