<svg viewBox="0 0 640 512"><path d="m512 364v-332a32 32 0 0 1 32-32h32a32 32 0 0 1 32 32v406.14zm-64-49.47v-154.53a32 32 0 0 0 -32-32h-32a32 32 0 0 0 -32 32v80.28zm-352 69.47h-32a32 32 0 0 0 -32 32v64a32 32 0 0 0 32 32h32a32 32 0 0 0 32-32v-64a32 32 0 0 0 -32-32zm96-96v192a32 32 0 0 0 32 32h32a32 32 0 0 0 32-32v-127.4l-94.33-72.9c-.74 2.71-1.67 5.36-1.67 8.3zm160 192a32 32 0 0 0 32 32h32a32 32 0 0 0 32-32v-3.73l-96-74.2z" opacity=".4"/><path d="m636.64 480.55-19.64 25.27a16 16 0 0 1 -22.46 2.81l-588.36-454.73a16 16 0 0 1 -2.81-22.45l19.63-25.27a16 16 0 0 1 22.47-2.81l588.35 454.73a16 16 0 0 1 2.82 22.45z"/></svg>