<svg viewBox="0 0 512 512"><path d="m512 160v192a96 96 0 0 1 -96 96h-84a12 12 0 0 1 -12-12v-40a12 12 0 0 1 12-12h84a32 32 0 0 0 32-32v-192a32 32 0 0 0 -32-32h-84a12 12 0 0 1 -12-12v-40a12 12 0 0 1 12-12h84a96 96 0 0 1 96 96z" opacity=".4"/><path d="m215.6 295.9h-191.6a23.94 23.94 0 0 1 -24-24v-32a23.94 23.94 0 0 1 24-24h191.5l-77.6-71.1a23.84 23.84 0 0 1 -.7-34.5l21.9-21.9a24.08 24.08 0 0 1 33.9-.1l151.9 150.7a24 24 0 0 1 0 34.1l-151.9 150.6a24 24 0 0 1 -33.9-.1l-21.9-21.9a24 24 0 0 1 .8-34.7z"/></svg>