<svg viewBox="0 0 640 512"><path d="m224.21 134.94a8 8 0 0 1 9-6.87l15.86 2.13a8 8 0 0 1 6.87 9l-24.12 180.8h264.18l-25-199.94a64 64 0 0 0 -63.5-56.06h-175a64 64 0 0 0 -63.5 56.06l-25 199.94h55.54z" opacity=".4"/><path d="m528 352h-416a16 16 0 0 0 -16 16v64a16 16 0 0 0 16 16h416a16 16 0 0 0 16-16v-64a16 16 0 0 0 -16-16zm-416-160a24 24 0 0 0 -24-24h-64a24 24 0 0 0 0 48h64a24 24 0 0 0 24-24zm504-24h-64a24 24 0 0 0 0 48h64a24 24 0 0 0 0-48zm-525.31-92a24 24 0 1 0 26.62-39.92l-48-32a24 24 0 1 0 -26.62 39.92zm445.31 4a23.87 23.87 0 0 0 13.29-4l48-32a24 24 0 1 0 -26.6-39.94l-48 32a24 24 0 0 0 13.31 43.94z"/></svg>