<svg viewBox="0 0 512 512"><path d="m224 224h-208a16 16 0 0 1 -16-16v-32a16 16 0 0 1 16-16h208zm-144-96h144v-64h-144a16 16 0 0 0 -16 16v32a16 16 0 0 0 16 16zm208 0h144a16 16 0 0 0 16-16v-32a16 16 0 0 0 -16-16h-144zm160 176v-32a16 16 0 0 0 -16-16h-144v64h144a16 16 0 0 0 16-16zm32 128a80 80 0 1 1 -158.39-16h-131.22a80 80 0 1 1 -78.39-64h288a80 80 0 0 1 80 80zm-336 0a32 32 0 1 0 -32 32 32 32 0 0 0 32-32zm288 0a32 32 0 1 0 -32 32 32 32 0 0 0 32-32zm-368-160v32a16 16 0 0 0 16 16h144v-64h-144a16 16 0 0 0 -16 16zm432-112h-208v64h208a16 16 0 0 0 16-16v-32a16 16 0 0 0 -16-16z" opacity=".4"/><path d="m224 16a16 16 0 0 1 16-16h32a16 16 0 0 1 16 16v336h-64z"/></svg>