<svg viewBox="0 0 512 512"><path d="m488 288a24.07 24.07 0 0 0 -24 24 33.54 33.54 0 0 1 -21.8 31.3l-330.55 122.2a24 24 0 1 0 16.6 45l330.5-122.1a81.87 81.87 0 0 0 53.25-76.4 24 24 0 0 0 -24-24zm-376-160a48 48 0 1 0 -48-48 48 48 0 0 0 48 48zm79.6 253.4a24 24 0 1 0 -15.2-45.6l-18.4 6.2a40 40 0 0 1 -48.7-20.7l-63.6-133a24 24 0 1 0 -43.35 20.7l63.65 133a88.31 88.31 0 0 0 79.5 50c12.55 0 16.95-.9 46.05-10.6zm64.4-381.4h-32v184l32-8z" opacity=".4"/><path d="m307.65 222.8a31.61 31.61 0 0 0 -27.5-5.8l-68.3 17-24.1-53.7a48 48 0 1 0 -87.6 39.4l27.85 68.1c7.9 19.1 22.7 27.6 39.8 23.3l88.2-22.1v123.2l64-23.7v-140.5a31.69 31.69 0 0 0 -12.35-25.2z"/></svg>