<svg viewBox="0 0 576 512"><path d="m336 96a48 48 0 1 0 -48-48 48 48 0 0 0 48 48zm216 320a24 24 0 0 0 -24 24 24.07 24.07 0 0 1 -24 24h-69.5l25.5-178.33a31.85 31.85 0 0 1 -12 2.33h-20.7l-25.2 176h-302.6l52.21-260.94a32 32 0 0 1 -30.88-9l-53.93 269.94h-42.9a24 24 0 0 0 0 48h480a72.08 72.08 0 0 0 72-72 24.07 24.07 0 0 0 -24-24z" opacity=".4"/><path d="m186.2 332.2-62.5 131.8h70.9l43.1-91-22-13a95.84 95.84 0 0 1 -29.5-27.8zm261.8-108.2h-43.9l-26.1-53.2c-12.5-25.5-35.5-44.2-61.8-50.9l-71.2-21.2a95.74 95.74 0 0 0 -80.8 17.1l-39.7 30.4a32.17 32.17 0 1 0 42.21 48.35l36.49-28c7.7-5.9 17.4-8 25.3-6.1l14.7 4.4-37.5 87.4a64.18 64.18 0 0 0 26.3 80.35l85 50.2-25.5 81.2h67l23.6-75.5a48.25 48.25 0 0 0 -21.6-54.4l-61.2-36.1 31.3-78.3 20.3 41.4a48.35 48.35 0 0 0 43.1 26.9h54a32 32 0 0 0 32-32 32 32 0 0 0 -32-32z"/></svg>