<svg viewBox="0 0 512 512"><path d="m256 0c-141.4 0-256 100.3-256 224 0 70.1 36.9 132.6 94.5 173.7 9.6 6.9 15.2 18.1 13.5 29.9l-9.4 66.2a15.87 15.87 0 0 0 13.37 18 16.49 16.49 0 0 0 2.33.17h77.7v-55.97a8 8 0 0 1 8-8h16a8 8 0 0 1 8 8v56h64v-56a8 8 0 0 1 8-8h16a8 8 0 0 1 8 8v56h77.7a15.87 15.87 0 0 0 15.87-15.87 16.49 16.49 0 0 0 -.17-2.33l-9.4-66.2c-1.7-11.7 3.8-23 13.5-29.9 57.6-41.1 94.5-103.6 94.5-173.7 0-123.7-114.6-224-256-224zm-96 320a64 64 0 1 1 64-64 64 64 0 0 1 -64 64zm192 0a64 64 0 1 1 64-64 64 64 0 0 1 -64 64z" opacity=".4"/><path d="m160 192a64 64 0 1 0 64 64 64 64 0 0 0 -64-64zm192 0a64 64 0 1 0 64 64 64 64 0 0 0 -64-64z"/></svg>