<svg viewBox="0 0 448 512"><path d="m368 128c0-70.69-64.49-128-144-128s-144 57.31-144 128c0 46.53 28.21 86.87 70 109.28l-5.48 25.87c-2.68 12.62 5.41 24.85 16.48 24.85h126c11 0 19.12-12.22 16.45-24.84l-5.45-25.88c41.76-22.41 70-62.75 70-109.28zm-200 48a32 32 0 1 1 32-32 32 32 0 0 1 -32 32zm112 0a32 32 0 1 1 32-32 32 32 0 0 1 -32 32z" opacity=".4"/><path d="m280 176a32 32 0 1 0 -32-32 32 32 0 0 0 32 32zm159.15 277.05-142-69.05 142-69.06a16 16 0 0 0 7.15-21.46l-14.3-28.63a16 16 0 0 0 -21.46-7.15l-186.54 90.7-186.53-90.71a16 16 0 0 0 -21.47 7.16l-14.31 28.62a16 16 0 0 0 7.16 21.46l142 69.06-142 69.06a16 16 0 0 0 -7.15 21.47l14.3 28.63a16 16 0 0 0 21.47 7.13l186.53-90.7 186.51 90.72a16 16 0 0 0 21.49-7.15l14.33-28.63a16 16 0 0 0 -7.18-21.47zm-271.15-277.05a32 32 0 1 0 -32-32 32 32 0 0 0 32 32z"/></svg>