<svg viewBox="0 0 640 512"><path d="m60.07 113.24c-16.72-24.09-3.19-75.55 2.93-91.66a16 16 0 0 0 -26.21-17c-23.74 23.24-36.79 55.59-36.79 91.09 0 70.45 57.43 128.33 128 128.33h32v-64a63.33 63.33 0 0 1 8.88-32h-72.88c-17.39 0-29.13-5-35.93-14.76zm543.19-108.67a16 16 0 0 0 -26.21 17c6.07 16.11 19.6 67.57 2.88 91.66-6.8 9.77-18.54 14.77-35.93 14.77h-72.88a63.32 63.32 0 0 1 8.88 32v64h32c70.59 0 128-57.88 128-128.33 0-35.5-13-67.85-36.74-91.1z" opacity=".4"/><path d="m416 96h-192a64 64 0 0 0 -64 64v128a64 64 0 0 0 64 64l26.8 134.27a32 32 0 0 0 31.39 25.73h75.53a32 32 0 0 0 31.38-25.72l26.9-134.28a64 64 0 0 0 64-64v-128a64 64 0 0 0 -64-64zm-176 192a32 32 0 1 1 32-32 32 32 0 0 1 -32 32zm160 0a32 32 0 1 1 32-32 32 32 0 0 1 -32 32z"/></svg>