<svg viewBox="0 0 512 512"><path d="m400 128a48 48 0 1 0 -48-48 48 48 0 0 0 48 48zm105 292.1a23.9 23.9 0 0 0 -33.9 0c-12.1 12.1-30.5 15.4-45.1 8.7l-391-202.2a24 24 0 0 0 -22 42.7l391.9 202.6a88.06 88.06 0 0 0 37.1 8.1 89 89 0 0 0 63-26 24.08 24.08 0 0 0 0-33.9z" opacity=".4"/><path d="m384.1 288v96c0 7.5-3 14-7.2 19.4l-56.9-29.4v-54h-104.53l-54.77-28.3a31.93 31.93 0 0 1 1.8-15.9 30.52 30.52 0 0 1 6.9-10.4l73.4-73.4h-82.8a32 32 0 0 1 0-64h153.5a48 48 0 0 1 33.9 81.9l-46.1 46.1h50.8a32 32 0 0 1 32 32z"/></svg>