<svg viewBox="0 0 640 512"><path d="m639.9 411.7c-2.2 39-36.9 68.3-75.9 68.3h-516a16 16 0 0 1 -16-16v-16a16 16 0 0 1 16-16h519.3a24.61 24.61 0 0 0 15.4-43.8l-9.3-7.4a16 16 0 0 1 -2.5-22.5l10-12.5a16 16 0 0 1 22.5-2.5l9.3 7.4a72.06 72.06 0 0 1 27.2 61z" opacity=".4"/><path d="m0 64a32 32 0 0 1 32-32h20.7a173.75 173.75 0 0 1 155.3 96 173.64 173.64 0 0 0 155.3 96h20.7a64.06 64.06 0 0 0 64-64v-64h96a32 32 0 0 1 0 64v96a96 96 0 0 1 -96 96v48h-64v-48h-192v48h-64v-52.5c-55.1-14.3-96-63.9-96-123.5v-128a32 32 0 0 1 -32-32z"/></svg>