<svg viewBox="0 0 448 512"><path d="m400 32h-352a48 48 0 0 0 -48 48v352a48 48 0 0 0 48 48h352a48 48 0 0 0 48-48v-352a48 48 0 0 0 -48-48zm-16 324a12 12 0 0 1 -12 12h-52v24a23.94 23.94 0 0 1 -24 24h-16a23.94 23.94 0 0 1 -24-24v-24h-180a12 12 0 0 1 -12-12v-40a12 12 0 0 1 12-12h180v-24a23.94 23.94 0 0 1 24-24h16a23.94 23.94 0 0 1 24 24v24h52a12 12 0 0 1 12 12zm0-160a12 12 0 0 1 -12 12h-180v24a23.94 23.94 0 0 1 -24 24h-16a23.94 23.94 0 0 1 -24-24v-24h-52a12 12 0 0 1 -12-12v-40a12 12 0 0 1 12-12h52v-24a23.94 23.94 0 0 1 24-24h16a23.94 23.94 0 0 1 24 24v24h180a12 12 0 0 1 12 12z" opacity=".4"/><path d="m168 256a23.94 23.94 0 0 0 24-24v-112a23.94 23.94 0 0 0 -24-24h-16a23.94 23.94 0 0 0 -24 24v112a23.94 23.94 0 0 0 24 24zm112 160h16a23.94 23.94 0 0 0 24-24v-112a23.94 23.94 0 0 0 -24-24h-16a23.94 23.94 0 0 0 -24 24v112a23.94 23.94 0 0 0 24 24z"/></svg>