<svg viewBox="0 0 448 512"><path d="m400 32h-352a48 48 0 0 0 -48 48v352a48 48 0 0 0 48 48h352a48 48 0 0 0 48-48v-352a48 48 0 0 0 -48-48zm-200 192h-24v180a12 12 0 0 1 -12 12h-40a12 12 0 0 1 -12-12v-180h-24a23.94 23.94 0 0 1 -24-24v-16a23.94 23.94 0 0 1 24-24h24v-52a12 12 0 0 1 12-12h40a12 12 0 0 1 12 12v52h24a23.94 23.94 0 0 1 24 24v16a23.94 23.94 0 0 1 -24 24zm184 104a23.94 23.94 0 0 1 -24 24h-24v52a12 12 0 0 1 -12 12h-40a12 12 0 0 1 -12-12v-52h-24a23.94 23.94 0 0 1 -24-24v-16a23.94 23.94 0 0 1 24-24h24v-180a12 12 0 0 1 12-12h40a12 12 0 0 1 12 12v180h24a23.94 23.94 0 0 1 24 24z" opacity=".4"/><path d="m224 184a23.94 23.94 0 0 0 -24-24h-112a23.94 23.94 0 0 0 -24 24v16a23.94 23.94 0 0 0 24 24h112a23.94 23.94 0 0 0 24-24zm136 104h-112a23.94 23.94 0 0 0 -24 24v16a23.94 23.94 0 0 0 24 24h112a23.94 23.94 0 0 0 24-24v-16a23.94 23.94 0 0 0 -24-24z"/></svg>