<svg viewBox="0 0 512 512"><path d="m496 64h-208v64h208a16 16 0 0 0 16-16v-32a16 16 0 0 0 -16-16zm-480 64h176v-64h-176a16 16 0 0 0 -16 16v32a16 16 0 0 0 16 16zm0 160h304v-64h-304a16 16 0 0 0 -16 16v32a16 16 0 0 0 16 16zm480-64h-80v64h80a16 16 0 0 0 16-16v-32a16 16 0 0 0 -16-16zm0 160h-336v64h336a16 16 0 0 0 16-16v-32a16 16 0 0 0 -16-16zm-496 16v32a16 16 0 0 0 16 16h48v-64h-48a16 16 0 0 0 -16 16z" opacity=".4"/><path d="m272 32h-32a16 16 0 0 0 -16 16v96a16 16 0 0 0 16 16h32a16 16 0 0 0 16-16v-96a16 16 0 0 0 -16-16zm128 160h-32a16 16 0 0 0 -16 16v96a16 16 0 0 0 16 16h32a16 16 0 0 0 16-16v-96a16 16 0 0 0 -16-16zm-256 160h-32a16 16 0 0 0 -16 16v96a16 16 0 0 0 16 16h32a16 16 0 0 0 16-16v-96a16 16 0 0 0 -16-16z"/></svg>