<svg viewBox="0 0 448 512"><path d="m80 0h-32a16 16 0 0 0 -16 16v80h64v-80a16 16 0 0 0 -16-16zm112 496a16 16 0 0 0 16 16h32a16 16 0 0 0 16-16v-48h-64zm-160 0a16 16 0 0 0 16 16h32a16 16 0 0 0 16-16v-304h-64zm208-496h-32a16 16 0 0 0 -16 16v336h64v-336a16 16 0 0 0 -16-16zm112 496a16 16 0 0 0 16 16h32a16 16 0 0 0 16-16v-176h-64zm48-496h-32a16 16 0 0 0 -16 16v208h64v-208a16 16 0 0 0 -16-16z" opacity=".4"/><path d="m112 96h-96a16 16 0 0 0 -16 16v32a16 16 0 0 0 16 16h96a16 16 0 0 0 16-16v-32a16 16 0 0 0 -16-16zm320 128h-96a16 16 0 0 0 -16 16v32a16 16 0 0 0 16 16h96a16 16 0 0 0 16-16v-32a16 16 0 0 0 -16-16zm-160 128h-96a16 16 0 0 0 -16 16v32a16 16 0 0 0 16 16h96a16 16 0 0 0 16-16v-32a16 16 0 0 0 -16-16z"/></svg>