<svg viewBox="0 0 496 512"><path d="m248 8c-137 0-248 111-248 248s111 248 248 248 248-111 248-248-111-248-248-248zm-80 168a32 32 0 1 1 -32 32 32 32 0 0 1 32-32zm194.8 170.3a149.48 149.48 0 0 1 -229.6-.1c-13.5-16.3 11.2-36.7 24.6-20.4a117.5 117.5 0 0 0 180.4 0c13.6-16.2 38.1 4.2 24.6 20.5zm5.4-113.3-9.7-8.5c-14.8-13.2-46.2-13.2-61 0l-9.5 8.5c-8.3 7.4-21.6.4-19.8-10.8 4-25.2 34.2-42.1 59.9-42.1s55.9 16.9 59.9 42.1c1.7 11.1-11.4 18.3-19.8 10.8z" opacity=".4"/><path d="m388 222.2c-4-25.2-34.2-42.1-59.9-42.1s-55.9 16.9-59.9 42.1c-1.8 11.2 11.5 18.2 19.8 10.8l9.5-8.5c14.8-13.2 46.2-13.2 61 0l9.7 8.5c8.4 7.5 21.5.3 19.8-10.8zm-220-46.2a32 32 0 1 0 32 32 32 32 0 0 0 -32-32z"/></svg>