<svg viewBox="0 0 496 512"><path d="m245.47 8c-136.97 1.43-246.83 113.56-245.47 250.53s113.56 246.83 250.53 245.47 246.83-113.56 245.47-250.53-113.56-246.83-250.53-245.47zm-133.47 215.4c3.3-42.1 32.2-71.38 56-71.38s52.7 29.28 56 71.38c.7 8.6-10.8 11.9-14.9 4.5l-9.5-17c-7.7-13.7-19.2-21.6-31.5-21.6s-23.78 7.9-31.48 21.6l-9.5 17c-4.3 7.4-15.8 4-15.12-4.5zm251.69 121.6a149.34 149.34 0 0 1 -229.54 2.35c-13.67-16.17 10.62-36.81 24.37-20.75a117.57 117.57 0 0 0 180.39-1.84c13.41-16.32 38.08 3.93 24.78 20.24zm5.31-117.1-9.5-17c-7.7-13.7-19.18-21.6-31.48-21.6s-23.8 7.9-31.5 21.6l-9.5 17c-4.1 7.3-15.6 4-14.9-4.5 3.3-42.1 32.2-71.38 56-71.38s52.68 29.28 56 71.38c.58 8.6-11 11.9-15.11 4.5z" opacity=".4"/><path d="m168 152c-23.78 0-52.68 29.28-56 71.38-.7 8.5 10.8 11.9 15.1 4.5l9.5-17c7.7-13.7 19.18-21.6 31.48-21.6s23.8 7.9 31.5 21.6l9.5 17c4.1 7.4 15.6 4.1 14.9-4.5-3.28-42.08-32.18-71.38-55.98-71.38zm216.08 71.4c-3.3-42.1-32.2-71.38-56-71.38s-52.7 29.28-56 71.38c-.7 8.5 10.8 11.8 14.9 4.5l9.5-17c7.7-13.7 19.2-21.6 31.5-21.6s23.78 7.9 31.48 21.6l9.5 17c4.11 7.4 15.71 4.1 15.11-4.5z"/></svg>