<svg viewBox="0 0 640 512"><path d="m624 368h-544a16 16 0 0 0 -16 16v16a16 16 0 0 0 16 16h544a16 16 0 0 0 16-16v-16a16 16 0 0 0 -16-16zm-480 96h-128a16 16 0 0 0 -16 16v16a16 16 0 0 0 16 16h128a16 16 0 0 0 16-16v-16a16 16 0 0 0 -16-16zm416 0h-336a16 16 0 0 0 -16 16v16a16 16 0 0 0 16 16h336a16 16 0 0 0 16-16v-16a16 16 0 0 0 -16-16z" opacity=".4"/><path d="m0 144a143.73 143.73 0 0 1 248-99.2 143.18 143.18 0 0 1 104-44.8c54.8 0 102 31 126.3 76.1a110.53 110.53 0 0 1 49.7-12.1 112 112 0 0 1 0 224h-60.1c-22.6 19.7-51.6 32-83.9 32s-61.4-12.3-83.9-32h-156.1a144 144 0 0 1 -144-144z"/></svg>