<svg viewBox="0 0 512 512"><path d="m96 240a16 16 0 0 1 16-16h21.5l96 96h-117.5a16 16 0 0 1 -16-16zm224.6-80a32 32 0 0 1 31.4 25.9 7.74 7.74 0 0 0 7.7 6.1h16.2a8.17 8.17 0 0 0 8-9.4 64.07 64.07 0 0 0 -63.3-54.6 32 32 0 0 1 -31.4-25.9 7.74 7.74 0 0 0 -7.7-6.1h-16.2a8.17 8.17 0 0 0 -8 9.4 64.07 64.07 0 0 0 63.3 54.6zm95.4 80a16 16 0 0 0 -16-16h-130.8l32 32h82.8v32h-50.8l32 32h34.8a16 16 0 0 0 16-16z" opacity=".4"/><path d="m256 0c-141.4 0-256 114.6-256 256s114.6 256 256 256 256-114.6 256-256-114.6-256-256-256zm0 448c-105.9 0-192-86.1-192-192a190.67 190.67 0 0 1 35.7-111.1l267.4 267.4a190.67 190.67 0 0 1 -111.1 35.7zm156.3-80.9-267.4-267.4a190.67 190.67 0 0 1 111.1-35.7c105.9 0 192 86.1 192 192a190.67 190.67 0 0 1 -35.7 111.1z"/></svg>