<svg viewBox="0 0 640 512"><path d="m553.3 87.1a20.29 20.29 0 0 1 -9.3-16.8v-62.3a8 8 0 0 0 -8-8h-48a8 8 0 0 0 -8 8v62.3c0 22 10.2 43.4 28.6 55.4a147.29 147.29 0 0 1 67.4 124v30.3a8 8 0 0 0 8 8h48a8 8 0 0 0 8-8v-30.3a195.28 195.28 0 0 0 -86.7-162.6zm-65.6 54.5c-23.9-16.6-39.7-42.3-39.7-71.3v-62.3a8 8 0 0 0 -8-8h-48a8 8 0 0 0 -8 8v66.4c0 43.7 24.6 81.6 60.3 106.7a83.62 83.62 0 0 1 35.7 68.6v30.3a8 8 0 0 0 8 8h48a8 8 0 0 0 8-8v-30.3a131.59 131.59 0 0 0 -56.3-108.1z" opacity=".4"/><path d="m536 352h-48a8 8 0 0 0 -8 8v144a8 8 0 0 0 8 8h48a8 8 0 0 0 8-8v-144a8 8 0 0 0 -8-8zm96 0h-48a8 8 0 0 0 -8 8v144a8 8 0 0 0 8 8h48a8 8 0 0 0 8-8v-144a8 8 0 0 0 -8-8zm-200 0h-384a48 48 0 0 0 -48 48v64a48 48 0 0 0 48 48h384a16 16 0 0 0 16-16v-128a16 16 0 0 0 -16-16z"/></svg>