<svg viewBox="0 0 640 512"><path d="m512 96c-46.8 0-87.3 25.3-109.6 62.8-22.3-18.9-50.8-30.8-82.4-30.8-51.7 0-95.9 30.8-116.1 74.8a174.6 174.6 0 0 1 44.1 23.4 174.7 174.7 0 0 1 243 34.9 136.5 136.5 0 0 1 37-5.1c35.5 0 67.6 13.4 92.7 34.8a127.39 127.39 0 0 0 -108.7-194.8zm-192 0a157.94 157.94 0 0 1 75.1 19.2c9.3-10.2 20.2-18.4 31.6-25.8a127.93 127.93 0 0 0 -106.7-57.4c-31.6 0-60.1 11.9-82.4 30.8-22.3-37.5-62.8-62.8-109.6-62.8a128 128 0 0 0 -128 128c0 38.2 17.1 72.1 43.7 95.6a174 174 0 0 1 129.4-29.1c24.1-57.7 80.6-98.5 146.9-98.5z" opacity=".4"/><path d="m640 400a111.94 111.94 0 0 1 -112 112h-384a144 144 0 1 1 104-243.2 143.18 143.18 0 0 1 104-44.8c54.8 0 102 31 126.3 76.1a110.53 110.53 0 0 1 49.7-12.1 111.94 111.94 0 0 1 112 112z"/></svg>