<svg viewBox="0 0 512 512"><path d="m256 32c-141.4 0-256 93.1-256 208 0 49.6 21.4 95 57 130.7-12.5 50.4-54.3 95.3-54.8 95.8a8 8 0 0 0 -1.5 8.7 7.83 7.83 0 0 0 7.3 4.8c66.3 0 116-31.8 140.6-51.4a305 305 0 0 0 107.4 19.4c141.4 0 256-93.1 256-208s-114.6-208-256-208zm-127.8 272h-12.2a8 8 0 0 1 -8-8v-16a8 8 0 0 1 8-8h12.3c6 0 10.4-3.5 10.4-6.6a5.29 5.29 0 0 0 -2.1-3.8l-21.9-18.8a37 37 0 0 1 -13.3-28.1c0-21.3 19-38.6 42.4-38.6h12.2a8 8 0 0 1 8 8v16a8 8 0 0 1 -8 8h-12.3c-6 0-10.4 3.5-10.4 6.6a5.29 5.29 0 0 0 2.1 3.8l21.9 18.8a37 37 0 0 1 13.3 28.1c.1 21.3-19 38.6-42.4 38.6zm191.8-8a8 8 0 0 1 -8 8h-16a8 8 0 0 1 -8-8v-68.2l-24.8 55.8a8 8 0 0 1 -14.3 0l-24.9-55.8v68.2a8 8 0 0 1 -8 8h-16a8 8 0 0 1 -8-8v-104a16 16 0 0 1 16-16h16a15.92 15.92 0 0 1 14.3 8.8l17.7 35.4 17.7-35.4a16 16 0 0 1 14.3-8.8h16a16 16 0 0 1 16 16zm48.3 8h-12.3a8 8 0 0 1 -8-8v-16a8 8 0 0 1 8-8h12.3c6 0 10.4-3.5 10.4-6.6a5.29 5.29 0 0 0 -2.1-3.8l-21.9-18.8a37 37 0 0 1 -13.3-28.1c0-21.3 19-38.6 42.4-38.6h12.2a8 8 0 0 1 8 8v16a8 8 0 0 1 -8 8h-12.3c-6 0-10.4 3.5-10.4 6.6a5.29 5.29 0 0 0 2.1 3.8l21.9 18.8a37 37 0 0 1 13.3 28.1c.1 21.3-18.9 38.6-42.3 38.6z" opacity=".4"/><path d="m397.3 237.3-21.9-18.8a5.29 5.29 0 0 1 -2.1-3.8c0-3.1 4.4-6.6 10.4-6.6h12.3a8 8 0 0 0 8-8v-16a8 8 0 0 0 -8-8h-12.2c-23.4 0-42.4 17.3-42.4 38.6a37 37 0 0 0 13.3 28.1l21.9 18.8a5.29 5.29 0 0 1 2.1 3.8c0 3.1-4.4 6.6-10.4 6.6h-12.3a8 8 0 0 0 -8 8v16a8 8 0 0 0 8 8h12.3c23.4 0 42.4-17.3 42.3-38.6a37 37 0 0 0 -13.3-28.1zm-93.3-61.3h-16a16 16 0 0 0 -14.3 8.8l-17.7 35.4-17.7-35.4a15.92 15.92 0 0 0 -14.3-8.8h-16a16 16 0 0 0 -16 16v104a8 8 0 0 0 8 8h16a8 8 0 0 0 8-8v-68.2l24.9 55.8a8 8 0 0 0 14.3 0l24.8-55.8v68.2a8 8 0 0 0 8 8h16a8 8 0 0 0 8-8v-104a16 16 0 0 0 -16-16zm-146.7 61.3-21.9-18.8a5.29 5.29 0 0 1 -2.1-3.8c0-3.1 4.4-6.6 10.4-6.6h12.3a8 8 0 0 0 8-8v-16a8 8 0 0 0 -8-8h-12.2c-23.4 0-42.4 17.3-42.4 38.6a37 37 0 0 0 13.3 28.1l21.9 18.8a5.29 5.29 0 0 1 2.1 3.8c0 3.1-4.4 6.6-10.4 6.6h-12.3a8 8 0 0 0 -8 8v16a8 8 0 0 0 8 8h12.2c23.4 0 42.5-17.3 42.4-38.6a37 37 0 0 0 -13.3-28.1z"/></svg>