<svg viewBox="0 0 448 512"><path d="m304 176v-32a16 16 0 0 0 -16-16h-34.75l57.37-57.38a32 32 0 0 0 9.38-22.62v-16a32 32 0 0 0 -32-32h-104a16 16 0 0 0 -16 16v32a16 16 0 0 0 16 16h42.75l-57.37 57.38a32 32 0 0 0 -9.38 22.62v16a32 32 0 0 0 32 32h96a16 16 0 0 0 16-16zm144 96v-16a32 32 0 0 0 -32-32h-96a16 16 0 0 0 -16 16v32a16 16 0 0 0 16 16h34.75l-57.37 57.38a32 32 0 0 0 -9.38 22.62v16a32 32 0 0 0 32 32h104a16 16 0 0 0 16-16v-32a16 16 0 0 0 -16-16h-42.75l57.37-57.38a32 32 0 0 0 9.38-22.62z" opacity=".4"/><path d="m192 224h-152a24 24 0 0 0 -24 24v48a24 24 0 0 0 24 24h50.44l-82.36 92.66a32 32 0 0 0 -8.08 21.26v46.08a32 32 0 0 0 32 32h152a24 24 0 0 0 24-24v-48a24 24 0 0 0 -24-24h-50.44l82.36-92.66a32 32 0 0 0 8.08-21.26v-46.08a32 32 0 0 0 -32-32z"/></svg>