<svg viewBox="0 0 640 512"><path d="m540.3 320h-178.58a32.4 32.4 0 0 0 -17.81 5.4l-44 29.3c-13.2 8.8-7 29.3 8.91 29.3h233.38c15.9 0 30.81 10.9 33.41 26.6a32.06 32.06 0 0 1 -62 15.5c-2.11-6.3-8.61-10.1-15.21-10.1h-32.84a16.06 16.06 0 0 0 -15.7 19.1 96.06 96.06 0 0 0 188.28-38.2c-8.71-45.6-51.42-76.9-97.84-76.9zm-140.3-32h144a96.2 96.2 0 0 0 93.81-116.72c-7.6-36.21-36.91-65.52-73.11-73.12a96.23 96.23 0 0 0 -114.91 75.52c-1.9 9.6 6.1 18.3 15.8 18.3h32.8c6.7 0 13.1-3.8 15.2-10.1a32.05 32.05 0 0 1 62 15.5c-2.59 15.71-17.37 26.62-33.37 26.62h-142.22a16 16 0 0 0 -16 16v32a16 16 0 0 0 16 16z" opacity=".4"/><path d="m291.93 324.1-11.71 3.1a12.16 12.16 0 0 1 -14.9-8.6l-14.9-55.6-50.42-29.1v56.9l40.4 40.2a12 12 0 0 1 0 17l-8.5 8.5a12 12 0 0 1 -17 0l-14.8-14.8v30.3a12 12 0 0 1 -12 12h-24a12 12 0 0 1 -12-12v-30.3l-14.8 14.8a12 12 0 0 1 -17 0l-8.5-8.5a12 12 0 0 1 0-17l40.2-40.2v-56.9l-50.42 29.1-14.9 55.6a12.21 12.21 0 0 1 -14.9 8.6l-11.71-3.1a12.21 12.21 0 0 1 -8.6-14.9l5.53-20.4-26.6 15.3a12.13 12.13 0 0 1 -16.61-4.4l-12.1-21a12.12 12.12 0 0 1 4.4-16.6l26.51-15.4-20.41-5.5a12.21 12.21 0 0 1 -8.6-14.9l3.1-11.7a12.21 12.21 0 0 1 14.9-8.6l55.72 15 50.21-29-50.24-29-55.62 14.9a12.16 12.16 0 0 1 -14.9-8.6l-3.1-11.7a12.16 12.16 0 0 1 8.6-14.9l20.41-5.5-26.61-15.3a12.12 12.12 0 0 1 -4.4-16.6l12.1-21a12.13 12.13 0 0 1 16.61-4.4l26.5 15.3-5.5-20.4a12.16 12.16 0 0 1 8.63-14.9l11.71-3.2a12.16 12.16 0 0 1 14.9 8.6l15 55.7 50.39 29.1v-56.9l-40.31-40.2a12 12 0 0 1 0-17l8.5-8.5a12 12 0 0 1 17 0l14.81 14.8v-30.3a12 12 0 0 1 12-12h24a12 12 0 0 1 12 12v30.3l14.7-14.8a12 12 0 0 1 17 0l8.5 8.5a12 12 0 0 1 0 17l-40.2 40.2v56.9l50.42-29.1 14.9-55.6a12.21 12.21 0 0 1 14.9-8.6l11.71 3.1a12.21 12.21 0 0 1 8.6 14.9l-5.53 20.4 26.6-15.3a12.13 12.13 0 0 1 16.61 4.4l12.1 21a12.12 12.12 0 0 1 -4.4 16.6l-26.61 15.3 20.41 5.5a12.21 12.21 0 0 1 8.6 14.9l-3.1 11.7a12.21 12.21 0 0 1 -14.9 8.6l-55.59-14.9-50.21 29 50.21 29 55.62-14.9a12.16 12.16 0 0 1 14.9 8.6l3.1 11.7a12.16 12.16 0 0 1 -8.6 14.9l-20.41 5.5 26.61 15.3a12.12 12.12 0 0 1 4.4 16.6l-12.1 21a12.13 12.13 0 0 1 -16.61 4.4l-26.63-15.3 5.5 20.4a12.09 12.09 0 0 1 -8.57 14.9z"/></svg>