<svg viewBox="0 0 640 512"><path d="m368 352a48 48 0 0 1 0 96h-256a48 48 0 0 1 0-96zm0-64h-256a112 112 0 0 0 0 224h256a112 112 0 0 0 0-224z" opacity=".4"/><path d="m120 376a23.94 23.94 0 1 0 .12 0zm80 0a23.94 23.94 0 1 0 .12 0zm160 0a23.94 23.94 0 1 0 .12 0zm-80 0a23.94 23.94 0 1 0 .12 0zm318.6 49.4a77.16 77.16 0 0 1 -22.6-54.6v-101.6a77.16 77.16 0 0 1 22.6-54.6l36.7-36.7a16.06 16.06 0 0 0 0-22.6l-22.6-22.6a16.06 16.06 0 0 0 -22.6 0l-36.7 36.7a141.23 141.23 0 0 0 -41.4 99.9v18.7h-64v-50.9a64.23 64.23 0 0 0 -5.2-25.2l-78.3-182.8a48 48 0 0 0 -44.2-29.1h-144.3a48 48 0 0 0 -48 48v112h-16a48 48 0 0 0 -48 48v90.78a111.63 111.63 0 0 1 48-10.78h256a112 112 0 0 1 101.22 64h42.78v18.7a141.23 141.23 0 0 0 41.4 99.9l36.7 36.7a16.06 16.06 0 0 0 22.6 0l22.6-22.6a16.06 16.06 0 0 0 0-22.6zm-342.6-201.4-64-64v-96h117.8l68.6 160z"/></svg>