<svg viewBox="0 0 448 512"><path d="m138.08 441.66a15.87 15.87 0 0 0 .16 22.44l11.3 11.3a16.06 16.06 0 0 0 22.6 0l19.7-19.7.06-67.86-53.66 53.66zm-46.71-357.76-14.9 4a15.46 15.46 0 0 0 -10.9 18.9l7 26 56.67 32.74-19-70.74a15.47 15.47 0 0 0 -18.87-10.9zm-25.92 321.4a15.46 15.46 0 0 0 10.9 18.9l14.9 4a15.47 15.47 0 0 0 18.89-10.9l19-70.73-56.69 32.73zm355-167.2a15.48 15.48 0 0 0 18.9-10.9l4-14.9a15.47 15.47 0 0 0 -10.9-18.9l-26-7-56.7 32.73zm-411.78-10.9a15.47 15.47 0 0 0 18.9 10.9l70.77-19-56.72-32.8-25.95 7a15.51 15.51 0 0 0 -11 19zm18.87 46.7a15.47 15.47 0 0 0 -18.9 10.9l-4 14.9a15.46 15.46 0 0 0 10.9 18.9l26 7 56.76-32.71zm122.2-237.2-11.4 11.3a1.21 1.21 0 0 0 -.16.16 15.87 15.87 0 0 0 .16 22.44l53.66 53.7v-67.9l-19.7-19.7a16.06 16.06 0 0 0 -22.56 0zm293.7 263.1-4-14.9a15.48 15.48 0 0 0 -18.9-10.9l-70.67 19 56.69 32.73 26-7a15.47 15.47 0 0 0 10.88-18.93zm-60.9-193a15.47 15.47 0 0 0 -10.9-18.9l-14.9-4a15.45 15.45 0 0 0 -18.9 10.9l-19 70.74 56.69-32.74zm-7 272.4-56.67-32.73 19 70.73a15.46 15.46 0 0 0 18.89 10.9l14.9-4a15.47 15.47 0 0 0 10.9-18.9zm-119.54 8.5-.16 67.94 19.66 19.66a16.06 16.06 0 0 0 22.6 0l11.3-11.3a16.07 16.07 0 0 0 0-22.6zm42.4-351a16.06 16.06 0 0 0 -22.6 0l-19.8 19.7v67.9l53.71-53.7a16.07 16.07 0 0 0 0-22.6z" opacity=".4"/><path d="m446 366.05-.09.15-15.47 26.8a15.42 15.42 0 0 1 -21.06 5.72l-153.38-88.52-.2 185.8a16 16 0 0 1 -16 16h-32a16 16 0 0 1 -16-16l.1-185.7-153.25 88.5a15.51 15.51 0 0 1 -21.1-5.7l-15.55-26.8a15.51 15.51 0 0 1 5.7-21.1l154.46-89.2-154.29-89.2a15.43 15.43 0 0 1 -5.73-21.06l15.53-26.74a15.41 15.41 0 0 1 21-5.72h.05l153.28 88.52v-185.8a16 16 0 0 1 16-16h32a16 16 0 0 1 16 16v185.8l153.3-88.5a15.51 15.51 0 0 1 21.1 5.7l15.5 26.8a15.51 15.51 0 0 1 -5.7 21.1l-154.35 89.1 154.49 89.2a15.29 15.29 0 0 1 5.66 20.85z"/></svg>