<svg viewBox="0 0 512 512"><path d="m160 0a32 32 0 0 0 -32 32v32h160v-32a63.12 63.12 0 0 1 8-30.38c-2.61-.7-5.16-1.62-8-1.62zm-32 272-86.65 64.6c-39.35 29.55-53.87 84.4-29.22 127.05a96.77 96.77 0 0 0 83.94 48.35 95.62 95.62 0 0 0 57.52-19.2l21.86-16.39c-29.85-55.41-13.54-125.86 39.2-165.41l73.35-55v-96h-160zm0-144h160v-32h-160zm192-64v32h192v-32zm0 96h192v-32h-192z" opacity=".4"/><path d="m288 64h-160v32h160zm0 64h-160v32h160zm32 144-86.13 64.6c-39.41 29.55-53.87 84.4-29.22 127.05a96 96 0 0 0 131 35.67 98 98 0 0 0 9.95-6.54l115.2-86.4a128 128 0 0 0 51.2-102.38v-144h-192zm0-144h192v-32h-192zm160-128h-128a32 32 0 0 0 -32 32v32h192v-32a32 32 0 0 0 -32-32z"/></svg>