<svg viewBox="0 0 640 512"><path d="m585.2 26.74a32.42 32.42 0 0 0 -32.14-26.74h-466.13a32.42 32.42 0 0 0 -32.14 26.74c-58.11 342.42-54.79 321.34-54.79 325.26 0 17.32 14.29 32 32.6 32h574.77c18.23 0 32.51-14.56 32.59-31.79.04-4.08 3.35 16.95-54.76-325.47zm-325.37 37.26h120.33l9.77 96h-139.87zm-75.17 256h-113.57l19-112h106zm16.34-160h-102.76l16.29-96h96.19zm32.82 160 11.4-112h149.6l11.4 112zm195.45-256h96.19l16.29 96h-102.75zm26.06 256-11.4-112h106l19 112z" opacity=".4"/><path d="m432 448-48 .05v-32.05h-128v32.21l-48 .05a16 16 0 0 0 -16 16v31.74a16 16 0 0 0 16 16l224-.26a16 16 0 0 0 16-16v-31.74a16 16 0 0 0 -16-16zm-51.84-384h-120.33l-9.77 96h139.87zm161.59 96-16.29-96h-96.19l9.73 96zm-146.93 48h-149.65l-11.4 112h172.45zm-304.72 0-19 112h113.56l11.41-112zm120.62-144h-96.19l-16.29 96h102.76zm339.18 144h-106l11.4 112h113.61z"/></svg>