<svg viewBox="0 0 512 512"><path d="m391.78027 188.11719c-10.58325 10.584-24.79565 14.51953-38.61352 13.15039 23.99463 42.67187 18.31445 97.65625-17.96289 133.92773a112.44054 112.44054 0 1 1 -24.47144-176.39062c-1.35559-13.80469 2.58618-27.99805 13.15772-38.57031 2.1018-2.10352 4.7583-3.09961 7.12573-4.73047-23.46338-12.51758-49.09509-19.50391-75.01587-19.50391a160 160 0 1 0 113.14893 273.13672c51.0249-51.01758 59.65869-127.627 27.3623-188.14258-1.62915 2.36328-2.62923 5.01953-4.73096 7.12305zm45.25867-113.13672a255.16746 255.16746 0 0 0 -289.45694-50.63086c2.18775 1.80273 4.53565 3.32812 6.58276 5.375a86.82531 86.82531 0 0 1 20.92814 34.59766 208.24935 208.24935 0 0 1 228.0011 44.59961c69.57764 69.56835 79.28186 176.47851 29.48755 256.68945a54.0343 54.0343 0 0 1 37.80078 30.34375c64.96801-99.2832 53.88476-233.75586-33.34339-320.97461zm-100.13184 372.69726a208.24935 208.24935 0 0 1 -228.0011-44.59961c-69.57764-69.57031-79.28186-176.48046-29.48755-256.6914h.0039a54.03613 54.03613 0 0 1 -37.80468-30.3418c-64.968 99.2832-53.88477 233.75586 33.34338 320.97461a255.1736 255.1736 0 0 0 289.46082 50.63086c-2.19166-1.80273-4.53565-3.32812-6.58667-5.377a86.863 86.863 0 0 1 -20.9281-34.59566z" opacity=".4"/><path d="m256 192a64 64 0 1 0 64.00684 64 64.00408 64.00408 0 0 0 -64.00684-64zm-203.67029-139.64648a56.00252 56.00252 0 1 0 79.20374 0 55.999 55.999 0 0 0 -79.20374 0zm339.45056 67.88086a48.003 48.003 0 1 0 0 67.88281 48.00959 48.00959 0 0 0 0-67.88281zm67.89 260.21484a56.00321 56.00321 0 1 0 0 79.19726 56.01156 56.01156 0 0 0 .00002-79.19726z"/></svg>