<svg viewBox="0 0 512 512"><path d="m350.88 26.94c-126.51-52.4-271.54 7.67-323.94 134.18s7.67 271.54 134.18 323.94 271.54-7.67 323.94-134.18-7.67-271.54-134.18-323.94zm9.39 292.47-91.27 91.18a18.31 18.31 0 0 1 -26 0l-91.18-91.18c-11.56-11.56-3.38-31.41 13-31.41h182.43c16.4 0 24.58 19.85 13.02 31.41zm-13-95.41h-182.38c-16.41 0-24.59-19.85-13-31.41l91.11-91.18a18.31 18.31 0 0 1 26 0l91.25 91.18c11.58 11.56 3.4 31.41-13 31.41z" opacity=".4"/><path d="m360.27 319.41-91.27 91.18a18.31 18.31 0 0 1 -26 0l-91.18-91.18c-11.56-11.56-3.38-31.41 13-31.41h182.42c16.41 0 24.59 19.85 13.03 31.41z"/></svg>