<svg viewBox="0 0 512 512"><path d="m350.88 26.94c-126.5-52.4-271.54 7.67-323.94 134.18s7.67 271.54 134.18 323.94 271.54-7.67 323.94-134.18-7.67-271.54-134.18-323.94zm-199.15 165.65 91.27-91.18a18.31 18.31 0 0 1 26 0l91.18 91.18c11.56 11.56 3.38 31.41-13 31.41h-182.43c-16.4 0-24.58-19.85-13.02-31.41zm208.41 126.82-91.14 91.18a18.31 18.31 0 0 1 -26 0l-91.25-91.18c-11.56-11.56-3.38-31.41 13-31.41h182.36c16.41 0 24.59 19.85 13.03 31.41z" opacity=".4"/><path d="m151.73 192.59 91.27-91.18a18.31 18.31 0 0 1 26 0l91.18 91.18c11.56 11.56 3.38 31.41-13 31.41h-182.42c-16.41 0-24.59-19.85-13.03-31.41z"/></svg>