<svg viewBox="0 0 512 512"><path d="m350.88 26.94c-126.5-52.4-271.54 7.67-323.94 134.18s7.67 271.54 134.18 323.94 271.54-7.67 323.94-134.18-7.67-271.54-134.18-323.94zm9.26 292-91.14 91.15a18.31 18.31 0 0 1 -26 0l-91.25-91.18c-11.56-11.56-3.38-31.41 13-31.41h182.36c16.41 0 24.59 19.85 13.03 31.41zm-13-95.41h-182.39c-16.4 0-24.58-19.85-13-31.42l91.25-91.2a18.31 18.31 0 0 1 26 0l91.18 91.17c11.52 11.57 3.34 31.42-13.07 31.42z" opacity=".4"/><path d="m164.75 224h182.36c16.41 0 24.59-19.85 13-31.42l-91.11-91.17a18.31 18.31 0 0 0 -26 0l-91.25 91.17c-11.59 11.57-3.4 31.42 13 31.42zm182.36 64h-182.36c-16.4 0-24.59 19.85-13 31.41l91.25 91.18a18.31 18.31 0 0 0 26 0l91.18-91.18c11.52-11.56 3.34-31.41-13.07-31.41z"/></svg>