<svg viewBox="0 0 512 512"><path d="m203.31 67.3a94.84 94.84 0 0 1 -26.4-53.5 16.12 16.12 0 0 0 -16.1-13.8h-16.4a16.32 16.32 0 0 0 -16.41 16.23 17.48 17.48 0 0 0 .09 1.77 145.37 145.37 0 0 0 40.6 84.4 81.21 81.21 0 0 1 22.4 44.1 16.23 16.23 0 0 0 16 13.5h16.5c9.8 0 17.6-8.5 16.3-18a130.71 130.71 0 0 0 -36.58-74.7zm148.6 74.7a130.71 130.71 0 0 0 -36.6-74.7 94.84 94.84 0 0 1 -26.4-53.5 16.12 16.12 0 0 0 -16.15-13.8h-16.4c-9.8 0-17.5 8.5-16.3 18a145.37 145.37 0 0 0 40.6 84.4 81.21 81.21 0 0 1 22.4 44.1h.05a16.23 16.23 0 0 0 16 13.5h16.5c9.8 0 17.6-8.5 16.3-18z" opacity=".4"/><path d="m32 192h448a32 32 0 0 1 32 32c0 94.7-51.56 177.16-128 221.45v34.55a32 32 0 0 1 -32 32h-192a32 32 0 0 1 -32-32v-34.55c-76.44-44.29-128-126.75-128-221.45a32 32 0 0 1 32-32z"/></svg>