<svg viewBox="0 0 576 512"><path d="m392.33 206.91a298.84 298.84 0 0 0 -60.26 45.17 275.45 275.45 0 0 0 -44.07 50.52 282.66 282.66 0 0 0 -45-51.45 294 294 0 0 0 -59.22-44.39c16.47-70.45 51.75-132.94 96.74-172.07a12 12 0 0 1 15.14 0c44.95 39.16 80.23 101.72 96.67 172.22z" opacity=".4"/><path d="m576 199.82c-.23 27.92-7.13 126.14-88.77 199.3-84.04 81.88-167.23 80.88-199.23 80.88s-115.21 1-199.23-80.88c-81.63-73.12-88.54-171.38-88.77-199.3a7.6 7.6 0 0 1 7.75-7.82c29 .13 135 6.16 213.84 83 33.12 29.64 53.41 63.3 66.41 94.86 13.05-31.56 33.29-65.22 66.41-94.85 78.83-76.84 184.8-82.87 213.84-83a7.6 7.6 0 0 1 7.75 7.81z"/></svg>