<svg viewBox="0 0 512 512"><path d="m16.71094 320.26367c28.34765 105.75586 124.58594 183.73633 239.28906 183.73633s210.94141-77.98047 239.28906-183.73633c-70.57812 20.27539-151.94531 31.73633-239.28906 31.73633s-168.71094-11.46094-239.28906-31.73633zm239.28906-312.26367c-136.96875 0-248 111.0332-248 248a250.017 250.017 0 0 0 1.72656 28.26562c71.46875 22.50391 155.75 35.73438 246.27344 35.73438s174.80469-13.23047 246.27344-35.73438a250.017 250.017 0 0 0 1.72656-28.26562c0-136.9668-111.03125-248-248-248zm-64 232a80 80 0 1 1 80-80 80.00021 80.00021 0 0 1 -80 80z" opacity=".4"/><path d="m256 320c-90.52344 0-174.80469-13.23047-246.27344-35.73438a246.11376 246.11376 0 0 0 6.98438 35.998c70.57812 20.27544 151.94531 31.73638 239.28906 31.73638s168.71094-11.46094 239.28906-31.73633a246.11376 246.11376 0 0 0 6.98438-35.998c-71.46875 22.50386-155.75 35.73433-246.27344 35.73433zm-64-80a80 80 0 1 0 -80-80 80.00021 80.00021 0 0 0 80 80zm0-104a24 24 0 1 1 -24 24 23.99993 23.99993 0 0 1 24-24z"/></svg>