<svg viewBox="0 0 640 512"><path d="m32 416c0 35.35 21.49 64 48 64h16v-128h-64zm154.54-232h280.13l-90.67-16c-133-27.41-153.55-116.78-248-133.35v125.35h18.34a45.62 45.62 0 0 1 40.2 24zm-154.54-88v64h64v-128h-16c-26.51 0-48 28.65-48 64zm114.34 256h-18.34v125.35c94.45-16.57 115-105.94 248-133.35l90.67-16h-280.13a45.62 45.62 0 0 1 -40.2 24z" opacity=".4"/><path d="m592.6 208.24c-32.87-15.4-76.82-24.24-120.6-24.24h-285.46a45.62 45.62 0 0 0 -40.2-24h-114.34c-23.2 0-32 10-32 24v144c0 14 8.82 24 32 24h114.34a45.62 45.62 0 0 0 40.2-24h285.46c43.78 0 87.73-8.84 120.6-24.24 29.68-13.92 47.4-31.76 47.4-47.76s-17.72-33.84-47.4-47.76zm-104.6 87.76a8 8 0 0 1 -8-8v-64a8 8 0 0 1 8-8c31.91 0 31.94 80 0 80z"/></svg>