<svg viewBox="0 0 512 512"><path d="m501.70312 224h-53.70312v-64h-80v-64h48v-29.32617a246.86934 246.86934 0 0 0 -160-58.67383c-136.96875 0-248 111.0332-248 248a250.017 250.017 0 0 0 1.72656 28.26562c71.46875 22.50391 155.75 35.73438 246.27344 35.73438s174.80469-13.23047 246.27344-35.73438a250.017 250.017 0 0 0 1.72656-28.26562 248.44936 248.44936 0 0 0 -2.29688-32zm-309.70312 16a80 80 0 1 1 80-80 80.00021 80.00021 0 0 1 -80 80zm192 103.13867a940.33806 940.33806 0 0 1 -128 8.86133c-87.34375 0-168.71094-11.46094-239.28906-31.73633 28.34765 105.75586 124.58594 183.73633 239.28906 183.73633a247.45808 247.45808 0 0 0 192-91.0918v-28.9082h-64z" opacity=".4"/><path d="m256 320c-90.52344 0-174.80469-13.23047-246.27344-35.73438a246.11376 246.11376 0 0 0 6.98438 35.998c70.57812 20.27544 151.94531 31.73638 239.28906 31.73638s168.71094-11.46094 239.28906-31.73633a246.11376 246.11376 0 0 0 6.98438-35.998c-71.46875 22.50386-155.75 35.73433-246.27344 35.73433zm-64-80a80 80 0 1 0 -80-80 80.00021 80.00021 0 0 0 80 80zm0-104a24 24 0 1 1 -24 24 23.99993 23.99993 0 0 1 24-24z"/></svg>