<svg viewBox="0 0 512 512"><path d="m462.3 387.76c-50.48 39.95-123.38 36-173.87-2.43-.21-3.22-.41-6.44-.43-10v-103.19a16 16 0 0 0 -16-16h-32a16 16 0 0 0 -16 16v103.15c0 3.57-.2 6.78-.4 10-50.54 38.53-123.41 42.46-173.93 2.49-62.77-49.78-66.08-139.2-9.77-193.17l193.5-185.61a33 33 0 0 1 45.28 0l193.5 185.62c56.21 53.96 52.9 143.38-9.88 193.14z" opacity=".4"/><path d="m367.31 486.6a32 32 0 0 1 -31.31 25.4h-160a32 32 0 0 1 -13-61.29c52.19-23.21 60.91-38.91 61-75.61v-103.1a16 16 0 0 1 16-16h32a16 16 0 0 1 16 16v103.1c.19 37.5 9.41 52.61 61 75.61a32.08 32.08 0 0 1 18.31 35.89z"/></svg>