<svg viewBox="0 0 512 512"><path d="m423.16 186.58 24.84-59.58 59.58-24.84a8 8 0 0 0 0-14.32l-59.58-24.84-24.84-59.58a8 8 0 0 0 -14.32 0l-24.84 59.58-59.58 24.84a8 8 0 0 0 0 14.32l59.58 24.84 24.84 59.58a8 8 0 0 0 14.32 0zm-14.32 136.84-24.84 59.58-59.58 24.84a8 8 0 0 0 0 14.32l59.58 24.84 24.84 59.58a8 8 0 0 0 14.32 0l24.84-59.58 59.58-24.84a8 8 0 0 0 0-14.32l-59.58-24.84-24.84-59.58a8 8 0 0 0 -14.32 0z" opacity=".4"/><path d="m384 254.64a16.06 16.06 0 0 0 -8.84-14.33l-112.57-56.39-56.28-112.77c-5.44-10.87-23.19-10.87-28.62 0l-56.28 112.77-112.57 56.39a16 16 0 0 0 0 28.67l112.57 56.39 56.28 112.77a16 16 0 0 0 28.62 0l56.28-112.77 112.57-56.37a16.07 16.07 0 0 0 8.84-14.36z"/></svg>