<svg viewBox="0 0 640 512"><path d="m176 224a111.51 111.51 0 0 1 80 33.78v-209.78a79.24 79.24 0 0 1 16.41-48h-224.41a48 48 0 0 0 -48 48v416a48 48 0 0 0 48 48h224.41a79.24 79.24 0 0 1 -16.41-48v-49.78a112 112 0 1 1 -80-190.22zm0-160a48 48 0 1 1 -48 48 48 48 0 0 1 48-48zm416-64h-256a48 48 0 0 0 -48 48v416a48 48 0 0 0 48 48h256a48 48 0 0 0 48-48v-416a48 48 0 0 0 -48-48zm-128 64a48 48 0 1 1 -48 48 48 48 0 0 1 48-48zm0 384a112 112 0 1 1 112-112 112 112 0 0 1 -112 112z" opacity=".4"/><path d="m64 336a111.89 111.89 0 0 0 192 78.22v-156.44a111.89 111.89 0 0 0 -192 78.22zm176 0a64 64 0 1 1 -64-64 64 64 0 0 1 64 64zm224-112a112 112 0 1 0 112 112 112 112 0 0 0 -112-112zm0 176a64 64 0 1 1 64-64 64 64 0 0 1 -64 64zm0-240a48 48 0 1 0 -48-48 48 48 0 0 0 48 48zm-288 0a48 48 0 1 0 -48-48 48 48 0 0 0 48 48z"/></svg>