<svg viewBox="0 0 576 512"><path d="m544 280.13h-214.64l107.48 188.18-41.68 23.82-107.16-187.62-107.16 187.62-41.68-23.82 107.48-188.18h-214.64v-48h214.64l-107.48-188.2 41.68-23.83 107.16 187.62 107.16-187.62 41.68 23.83-107.48 188.18h214.64z" opacity=".4"/><path d="m566.63 233.48-2.79-2.79a444.29 444.29 0 0 1 -116.77-206.32v-.12a32 32 0 0 0 -38.83-23.25 497.38 497.38 0 0 1 -240.48 0 32 32 0 0 0 -38.76 23.25v.12a444.29 444.29 0 0 1 -116.84 206.32l-2.79 2.79a32 32 0 0 0 0 45.28l2.87 2.87a444.25 444.25 0 0 1 116.76 206.13 32 32 0 0 0 38.76 23.24 497.14 497.14 0 0 1 240.48 0 32 32 0 0 0 38.76-23.24 444.25 444.25 0 0 1 116.76-206.13l2.87-2.87a32 32 0 0 0 0-45.28zm-173.18 208.75a562.64 562.64 0 0 0 -210.9 0 508.29 508.29 0 0 0 -106.33-186.12 508.49 508.49 0 0 0 106.36-186.35 562 562 0 0 0 210.84 0 508.49 508.49 0 0 0 106.36 186.35 508.29 508.29 0 0 0 -106.33 186.12zm-23.31-328.86a24 24 0 0 0 -18.21-2.72 264.41 264.41 0 0 1 -127.86 0 24.05 24.05 0 0 0 -29.07 17.53 235.55 235.55 0 0 1 -62 109.39l-1.52 1.52a24 24 0 0 0 0 34l1.56 1.57a235.49 235.49 0 0 1 61.96 109.23 24 24 0 0 0 29.1 17.46 264.41 264.41 0 0 1 127.86 0 24 24 0 0 0 29.04-17.46 235.49 235.49 0 0 1 61.88-109.28l1.56-1.57a24 24 0 0 0 0-34l-1.44-1.48a235.47 235.47 0 0 1 -61.94-109.36 24.06 24.06 0 0 0 -10.92-14.83zm-29.14 236.63a313.11 313.11 0 0 0 -106 0 283.59 283.59 0 0 0 -53.66-93.94 283.53 283.53 0 0 0 53.66-94.06 313.27 313.27 0 0 0 106 0 283.51 283.51 0 0 0 53.68 94.07 283.59 283.59 0 0 0 -53.68 93.93z"/></svg>