<svg viewBox="0 0 576 512"><path d="m453.71 88.63-25.89-77.63a16 16 0 0 0 -20.24-10.17l-15.17 5.06a16 16 0 0 0 -10.12 20.24l23.8 71.39-20.29 40.58a99.35 99.35 0 0 1 3.2 11.79l5.23 26.11h4.67l25.93-8.65 27.17-54.29a32 32 0 0 0 1.71-24.43zm-270.12-82.74-15.17-5.06a16 16 0 0 0 -20.24 10.17l-25.89 77.63a32 32 0 0 0 1.71 24.43l27.15 54.3 25.95 8.64h4.67l5.23-26.11a99.35 99.35 0 0 1 3.21-11.79l-20.3-40.58 23.8-71.39a16 16 0 0 0 -10.12-20.24z" opacity=".4"/><path d="m573.31 349.39a16 16 0 0 1 -4.44 22.18l-13.31 8.88a16 16 0 0 1 -22.19-4.45l-48-72h-47.06l60.83 97.33a32.05 32.05 0 0 1 4.86 17v77.67a16 16 0 0 1 -16 16h-16a16 16 0 0 1 -16-16v-73.1l-74.08-118.53c1 14.05 2.08 28.11 2.08 42.21 0 53.07-40.76 101.42-96 101.42s-96-48.36-96-101.43c0-14.1 1.07-28.16 2.08-42.21l-74.08 118.54v73.1a16 16 0 0 1 -16 16h-16a16 16 0 0 1 -16-16v-77.7a32 32 0 0 1 4.86-17l60.83-97.3h-47.06l-48 72a16 16 0 0 1 -22.19 4.44l-13.31-8.86a16 16 0 0 1 -4.44-22.19l52.74-79.13a32 32 0 0 1 26.63-14.26h77.94l-69-24.34a32 32 0 0 1 -16.5-12.61l-53.6-80.41a16 16 0 0 1 4.44-22.19l13.31-8.88a16 16 0 0 1 22.19 4.43l50.57 75.83 60.49 20.17h36.1l10.37-51.85c2.19-10.96 17.37-60.15 69.63-60.15s67.44 49.18 69.63 60.15l10.37 51.85h36.1l60.5-20.17 50.56-75.83a16 16 0 0 1 22.19-4.44l13.31 8.88a16 16 0 0 1 4.44 22.19l-53.6 80.41a32 32 0 0 1 -16.5 12.62l-69 24.34h77.94a32 32 0 0 1 26.62 14.25z"/></svg>