<svg viewBox="0 0 576 512"><path d="m320 272h-64a8 8 0 0 0 -6.4 12.8l26.4 35.2-26.4 35.2a8 8 0 0 0 6.4 12.8h64a8 8 0 0 0 6.4-12.8l-26.4-35.2 26.4-35.2a8 8 0 0 0 -6.4-12.8zm-136.41-266.11-15.17-5.06a16 16 0 0 0 -20.24 10.17l-25.89 77.63a32 32 0 0 0 1.71 24.43l27.15 54.3 25.95 8.64h4.67l5.23-26.11a99.35 99.35 0 0 1 3.21-11.79l-20.3-40.58 23.8-71.39a16 16 0 0 0 -10.12-20.24zm270.12 82.75-25.89-77.64a16 16 0 0 0 -20.24-10.16l-15.17 5.06a16 16 0 0 0 -10.12 20.24l23.8 71.38-20.29 40.58a97.47 97.47 0 0 1 3.2 11.79l5.23 26.11h4.67l25.93-8.64 27.17-54.29a32 32 0 0 0 1.71-24.43z" opacity=".4"/><path d="m573.31 349.38-52.75-79.12a32 32 0 0 0 -26.62-14.26h-77.94l69-24.35a32 32 0 0 0 16.51-12.61l53.6-80.41a16 16 0 0 0 -4.44-22.19l-13.31-8.88a16 16 0 0 0 -22.2 4.44l-50.57 75.83-60.49 20.17h-36.1l-10.37-51.85c-2.19-10.96-17.37-60.15-69.63-60.15s-67.44 49.18-69.63 60.15l-10.37 51.85h-36.1l-60.5-20.18-50.56-75.82a16 16 0 0 0 -22.19-4.44l-13.31 8.88a16 16 0 0 0 -4.44 22.19l53.6 80.37a32 32 0 0 0 16.5 12.65l69 24.35h-77.93a32 32 0 0 0 -26.63 14.25l-52.75 79.13a16 16 0 0 0 4.44 22.19l13.31 8.88a16 16 0 0 0 22.19-4.45l48-72h47.06l-60.83 97.34a32.05 32.05 0 0 0 -4.86 17v77.66a16 16 0 0 0 16 16h16a16 16 0 0 0 16-16v-73.1l74.08-118.53c-1 14.05-2.08 28.11-2.08 42.21 0 53.07 40.76 101.42 96 101.42s96-48.36 96-101.43c0-14.1-1.07-28.16-2.08-42.21l74.08 118.54v73.1a16 16 0 0 0 16 16h16a16 16 0 0 0 16-16v-77.7a32.05 32.05 0 0 0 -4.86-17l-60.83-97.3h47.06l48 72a16 16 0 0 0 22.19 4.44l13.31-8.88a16 16 0 0 0 4.44-22.18zm-246.91 5.83a8 8 0 0 1 -6.4 12.79h-64a8 8 0 0 1 -6.4-12.8l26.4-35.2-26.4-35.2a8 8 0 0 1 6.4-12.8h64a8 8 0 0 1 6.4 12.8l-26.4 35.2z"/></svg>