<svg viewBox="0 0 512 512"><path d="m288 32a32 32 0 1 0 32 32 32 32 0 0 0 -32-32zm96 96a32 32 0 1 0 32 32 32 32 0 0 0 -32-32zm96 96a32 32 0 1 0 32 32 32 32 0 0 0 -32-32zm-96-192a32 32 0 1 0 32 32 32 32 0 0 0 -32-32zm96 96a32 32 0 1 0 32 32 32 32 0 0 0 -32-32zm0-32a32 32 0 1 0 -32-32 32 32 0 0 0 32 32zm-320 160a80 80 0 1 0 80 80 80 80 0 0 0 -80-80z" opacity=".4"/><path d="m224 160h-128a96 96 0 0 0 -96 96v224a32 32 0 0 0 32 32h256a32 32 0 0 0 32-32v-224a96 96 0 0 0 -96-96zm-64 256a80 80 0 1 1 80-80 80 80 0 0 1 -80 80zm64-384a32 32 0 0 0 -32-32h-64a32 32 0 0 0 -32 32v96h128z"/></svg>