<svg viewBox="0 0 512 512"><path d="m152 104a24 24 0 1 0 24 24 24 24 0 0 0 -24-24zm-64-56a24 24 0 1 0 24 24 24 24 0 0 0 -24-24zm0 96a24 24 0 1 0 24 24 24 24 0 0 0 -24-24zm-64-40a24 24 0 1 0 24 24 24 24 0 0 0 -24-24zm0-104a24 24 0 1 0 24 24 24 24 0 0 0 -24-24zm0 208a24 24 0 1 0 24 24 24 24 0 0 0 -24-24zm336-104a24 24 0 1 0 24 24 24 24 0 0 0 -24-24zm64 56a24 24 0 1 0 24 24 24 24 0 0 0 -24-24zm0-96a24 24 0 1 0 24 24 24 24 0 0 0 -24-24zm64 40a24 24 0 1 0 24 24 24 24 0 0 0 -24-24zm0 104a24 24 0 1 0 24 24 24 24 0 0 0 -24-24zm0-160a24 24 0 1 0 -24-24 24 24 0 0 0 24 24z" opacity=".4"/><path d="m412.41 284.44-67.52 78.23-24.89 24.89v124.44h-128v-124.44l-24.89-24.89-67.52-78.23a17.77 17.77 0 0 1 14.22-28.44h110.19v-176a16 16 0 0 1 16-16h32a16 16 0 0 1 16 16v176h110.19a17.77 17.77 0 0 1 14.22 28.44z"/></svg>