<svg viewBox="0 0 576 512"><path d="m576 72a24 24 0 0 1 -24 24h-195l-97.78 374.52c-9.84 32.48-37.01 41.48-54.28 41.48-18.64 0-35.95-8.5-48.44-28.27l-88.88-163.73h-43.62a24 24 0 0 1 -24-24v-48a24 24 0 0 1 24-24h81.47a32 32 0 0 1 28 16.57l58.41 106.1 84.82-322.8a32 32 0 0 1 30.95-23.87h244.35a24 24 0 0 1 24 24z" opacity=".4"/><path d="m571.31 366.06a16 16 0 0 1 0 22.63l-22.62 22.62a16 16 0 0 1 -22.63 0l-46.06-46.06-46.06 46.06a16 16 0 0 1 -22.63 0l-22.62-22.62a16 16 0 0 1 0-22.63l46.06-46.06-46.06-46.06a16 16 0 0 1 0-22.63l22.62-22.62a16 16 0 0 1 22.63 0l46.06 46.06 46.06-46.06a16 16 0 0 1 22.63 0l22.62 22.62a16 16 0 0 1 0 22.63l-46.06 46.06z"/></svg>