<svg viewBox="0 0 512 512"><path d="m263.48 512c-88.09-.42-165.55-68.38-167.48-156.54-.82-37.58 11.81-71.87 32.74-99.54-.27 0-.52.08-.79.08a128 128 0 0 1 .05-256c86.2 0 184.54 112.89 137.33 254.86l-34.57 103.85a8 8 0 0 0 5.07 10.12l15.17 5.05a8 8 0 0 0 9.57-3.83l-31.22 93.7c-7.8 23.5 9.43 47.98 34.13 48.25z" opacity=".4"/><path d="m479.84 448h-30.92c18.19-18.4 30.93-42.12 30.93-64 0-26.55-22.08-52.81-47.85-61.09v-98.91h47.85a32.2 32.2 0 0 0 31.43-38.87c-10.44-48.71-44.56-89.13-95.41-89.13v-32c-48 0-74.22 62.73-89.4 108.29l-97.1 291.47c-7.85 23.58 9.54 48.17 34.4 48.24h232.08a16 16 0 0 0 16-16v-16a32 32 0 0 0 -32.01-32zm-64-288a16 16 0 1 1 16 16 16 16 0 0 1 -15.97-16z"/></svg>