<svg viewBox="0 0 512 512"><path d="m369.9 284.81 32.25 18.62a16 16 0 0 0 21.85-5.86l19.54-33.79zm-273.9 19.19v44.1l60.13-60.1h-44.13a16 16 0 0 0 -16 16z" opacity=".4"/><path d="m512 80v103.86a80 80 0 0 1 -58 76.92l-168.92 48.27a80.11 80.11 0 0 0 -34.62 20.37l-175.55 175.58a24 24 0 0 1 -33.91 0l-34-34a24 24 0 0 1 0-33.9l149.13-149.1 26.48-26.48a176.06 176.06 0 0 1 76.11-44.78l157.28-44.94v-75.8h-50.32l-11.58 23.15a16 16 0 0 1 -21.46 7.16l-57.26-28.63a16 16 0 0 1 -7.15-21.46l16-32a80 80 0 0 1 71.55-44.22h76.22a80 80 0 0 1 80 80z"/></svg>