<svg viewBox="0 0 512 512"><path d="m415.99814 80.0021a7.297 7.297 0 0 0 -3.68757-5.96246l-49.64157-20.70164-20.70355-49.641a6.65746 6.65746 0 0 0 -11.926 0l-20.70354 49.641-49.64549 20.70164a6.66417 6.66417 0 0 0 0 11.92493l49.64549 20.69969 20.70353 49.643a6.65746 6.65746 0 0 0 11.926 0l20.70356-49.643 49.64159-20.69969a7.31629 7.31629 0 0 0 3.68755-5.96247zm93.05649 139.2264-39.71563-16.55741-16.5589-39.71009a5.32533 5.32533 0 0 0 -9.53925 0l-16.56285 39.71009-39.7117 16.55741a5.33544 5.33544 0 0 0 0 9.54033l39.7117 16.55937 16.56282 39.7081a5.32376 5.32376 0 0 0 9.53925 0l16.55893-39.7081 39.71561-16.55937a5.33544 5.33544 0 0 0 0-9.54033z" opacity=".4"/><path d="m364.294 267.29343-104.7989-15.29579-46.90716-95.19633c-8.39078-16.99879-32.68813-17.2019-41.18829 0l-46.90716 95.19633-104.79891 15.29579c-18.79724 2.70293-26.40676 25.9044-12.70337 39.20033l75.90772 73.99472-18.00035 104.58628c-3.20319 18.9049 16.68782 33.107 33.29752 24.2014l93.7987-49.3871 93.79869 49.3871a22.95361 22.95361 0 0 0 33.29751-24.2014l-17.891-104.58628 75.89209-73.99472c13.60968-13.29593 6.00016-36.4974-12.79709-39.20033z"/></svg>