<svg viewBox="0 0 576 512"><path d="m528.53 171.5-146.36-21.3-65.43-132.39c-11.71-23.59-45.68-23.89-57.48 0l-65.43 132.39-146.36 21.3c-26.27 3.79-36.79 36.08-17.75 54.58l105.91 103-25 145.49c-4.52 26.3 23.22 46 46.48 33.69l130.89-68.7 130.93 68.69c23.26 12.21 51-7.39 46.48-33.69l-25-145.49 105.91-103c19-18.49 8.48-50.78-17.79-54.57zm-90.89 71-66.05 64.23 15.63 90.86a12 12 0 0 1 -17.4 12.66l-81.82-42.98-81.82 42.94a12 12 0 0 1 -17.4-12.66l15.63-90.86-66-64.23a12 12 0 0 1 6.59-20.46l91.34-13.28 40.9-82.81a12 12 0 0 1 21.52 0l40.9 82.81 91.34 13.28a12 12 0 0 1 6.64 20.46z" opacity=".4"/><path d="m437.64 242.46-66.05 64.23 15.63 90.86a12 12 0 0 1 -17.4 12.66l-81.82-42.94-81.82 42.94a12 12 0 0 1 -17.4-12.66l15.63-90.86-66-64.23a12 12 0 0 1 6.59-20.46l91.34-13.28 40.9-82.81a12 12 0 0 1 21.52 0l40.9 82.81 91.34 13.28a12 12 0 0 1 6.64 20.46z"/></svg>