<svg viewBox="0 0 512 512"><path d="m509 230.85-55.27 53.87 13.05 76.07a9.93 9.93 0 0 1 -14.45 10.49l-68.33-35.91-68.33 35.91a9.86 9.86 0 0 1 -4.64 1.17 10 10 0 0 1 -9.81-11.66l13-76.07-55.22-53.87a10 10 0 0 1 5.52-17l76.38-11.1 34.16-69.21a10 10 0 0 1 17.86 0l34.16 69.21 76.38 11.1a10 10 0 0 1 5.54 17z" opacity=".4"/><path d="m0 256c0-141.16 114.84-256 256-256a254.82 254.82 0 0 1 89.75 16.48 15.06 15.06 0 0 1 -5.28 29.16c-1.48 0-6.86-.46-9.18-.46-116.29 0-210.82 94.57-210.82 210.82s94.53 210.82 210.82 210.82c2.29 0 7.73-.46 9.18-.46a15 15 0 0 1 4.85 29.32 254.9 254.9 0 0 1 -89.32 16.32c-141.16 0-256-114.84-256-256z"/></svg>