<svg viewBox="0 0 480 512"><path d="m2.14 155.72 32-55.43a16 16 0 0 1 21.86-5.86l184 106.43 184-106.44a16 16 0 0 1 21.86 5.84l32 55.43a16 16 0 0 1 -5.86 21.87l-184 106.63v211.81a16 16 0 0 1 -16 16h-64a16 16 0 0 1 -16-16v-211.82l-184-106.61a16 16 0 0 1 -5.86-21.85z" opacity=".4"/><path d="m477.87 356.55-32 55.43a16 16 0 0 1 -21.87 5.86l-184-106.43-184 106.44a16 16 0 0 1 -21.85-5.85l-32-55.43a16 16 0 0 1 5.85-21.87l184-106.62v-211.81a16 16 0 0 1 16-16h64a16 16 0 0 1 16 16v211.82l184 106.61a16 16 0 0 1 5.87 21.85z"/></svg>