<svg viewBox="0 0 512 512"><path d="m507.31241 15.99591-11.30881-11.31007a16.00342 16.00342 0 0 0 -22.62935 0l-164.69069 164.68257a15.99752 15.99752 0 0 0 0 22.628l11.30881 11.30812a15.99989 15.99989 0 0 0 22.62935 0l164.69069-164.68261a15.99517 15.99517 0 0 0 0-22.62601zm-192.00372 0-11.30882-11.31007a16.00341 16.00341 0 0 0 -22.62934 0l-52.68853 52.68725a15.99752 15.99752 0 0 0 0 22.628l11.30881 11.30812a15.99987 15.99987 0 0 0 22.62934 0l52.68853-52.68725a15.99517 15.99517 0 0 0 .00001-22.62605zm180.69491 180.68191a16.00342 16.00342 0 0 0 -22.62935 0l-52.68852 52.68725a15.99752 15.99752 0 0 0 0 22.628l11.30881 11.30812a15.99989 15.99989 0 0 0 22.62935 0l52.68852-52.68725a15.99517 15.99517 0 0 0 0-22.626z" opacity=".4"/><path d="m82.89793 380.48459-18.00035 104.58941c-3.20319 18.90546 16.68782 33.108 33.29752 24.20211l93.7987-49.38856 93.79869 49.38856a22.95375 22.95375 0 0 0 33.29751-24.20211l-17.891-104.58941 75.89209-73.99691c13.60964-13.29632 6.00012-36.49847-12.79712-39.20149l-104.79887-15.29619-46.90716-95.19915c-8.39078-16.99929-32.68813-17.20241-41.18829 0l-46.90716 95.19915-104.79891 15.29619c-18.79724 2.703-26.40676 25.90517-12.70337 39.20149z"/></svg>