<svg viewBox="0 0 464 512"><path d="m176 344h-.07l-44-73.93-60.93-102.07h39.72l33.33-56h-106.94c-28.6 0-46.42 30.38-32 54.59l56.6 95.08 29.29 48.88-.09.14 19.81 33.31zm160.17-80.7-48.05 80.7h-.07l-33.4 56h.13l-22.78 38.25-22.78-38.25h-65.17l55.95 94a37.44 37.44 0 0 0 64 0l56-94h-.19l33.19-56h.3l19.85-33.33-32.63-54.67zm90.72-151.3h-217.54l-33.35 56h217l-19.88 33.33 32.56 54.67 53.21-89.4c14.41-24.19-3.41-54.58-32-54.58z" opacity=".4"/><path d="m91 310.55-32.68-54.55-53.21 89.41c-14.41 24.21 3.41 54.59 32 54.59h217.46l33.28-56h-216.85zm36.86-61.83 48-80.7h.14l33.39-56h-.13l22.74-38.24 22.78 38.22h65.16l-55.94-94a37.44 37.44 0 0 0 -64 0l-109.12 183.32 32.62 54.68zm331.06 96.69-105.64-177.41h-65.21l44 73.93 60.93 102.07h-40l-33.22 56h107.11c28.6 0 46.42-30.36 32-54.57z"/></svg>