<svg viewBox="0 0 512 512"><path d="m359.15 334.15-19.9 5-5 19.9 68.8 55.1c7.5 6 17.2-3.7 11.2-11.2zm-206.2 0-54.95 68.85c-6 7.5 3.7 17.2 11.2 11.2l68.8-55.1-5-19.9zm206.2-156.15 55.1-68.8c6-7.5-3.7-17.2-11.2-11.2l-68.8 55 5 19.9zm-206.15 0 19.9-5 5-19.9-68.85-55.1c-7.5-6-17.2 3.7-11.2 11.2z" opacity=".4"/><path d="m505.25 264.65-192.6 48.1-48.1 192.5c-2.2 9-15 9-17.2 0l-48.1-192.5-192.5-48.1c-9-2.2-9-15 0-17.2l192.6-48.1 48.1-192.6c2.2-9 15-9 17.2 0l48.2 192.6 192.5 48.1c8.9 2.2 8.9 15-.1 17.2z"/></svg>