<svg viewBox="0 0 576 512"><path d="m235.07422 291.957-22.62891 22.627a94.938 94.938 0 0 1 -19.23437-46.584h32a63.61375 63.61375 0 0 0 9.86328 23.957zm-171.07422-75.957v80l75.51953 18.87891a156.23144 156.23144 0 0 1 0-117.75782zm282.58594-35.55273a94.926 94.926 0 0 0 -46.58594-19.23633v32a63.56908 63.56908 0 0 1 23.957 9.86328zm-117.17188 151.10546a94.926 94.926 0 0 0 46.58594 19.23633v-32a63.56908 63.56908 0 0 1 -23.957-9.86328zm5.66016-111.50973-22.62891-22.627a94.938 94.938 0 0 0 -19.23437 46.584h32a63.61375 63.61375 0 0 1 9.86328-23.957zm276.92578 75.957v-80l-75.51953-18.87891a156.23144 156.23144 0 0 1 0 117.75782zm-171.07422-4.043 22.62891 22.627a94.938 94.938 0 0 0 19.23437-46.584h-32a63.61375 63.61375 0 0 1 -9.86328 23.957zm0-71.91406a63.61375 63.61375 0 0 1 9.86328 23.95706h32a94.938 94.938 0 0 0 -19.23437-46.584zm-40.92578 98.74612v32a94.926 94.926 0 0 0 46.58594-19.23633l-22.62891-22.627a63.56908 63.56908 0 0 1 -23.95703 9.86333zm-47.957-115.71484a63.56908 63.56908 0 0 1 23.957-9.86328v-32a94.926 94.926 0 0 0 -46.58594 19.23633z" opacity=".4"/><path d="m288 96a160 160 0 1 0 160 160 159.99917 159.99917 0 0 0 -160-160zm12 65.21094a94.926 94.926 0 0 1 46.58594 19.23633l-22.62894 22.62695a63.56908 63.56908 0 0 0 -23.957-9.86328zm-24 0v32a63.56908 63.56908 0 0 0 -23.957 9.86328l-22.62891-22.62695a94.926 94.926 0 0 1 46.58591-19.23633zm-63.55469 36.20506 22.62891 22.627a63.61375 63.61375 0 0 0 -9.86328 23.957h-32a94.938 94.938 0 0 1 19.23437-46.584zm-19.23437 70.584h32a63.61375 63.61375 0 0 0 9.86328 23.957l-22.62891 22.627a94.938 94.938 0 0 1 -19.23437-46.584zm82.78906 82.78906a94.926 94.926 0 0 1 -46.58594-19.23633l22.62891-22.627a63.56908 63.56908 0 0 0 23.95703 9.86333zm-20-94.78906a32 32 0 1 1 32 32 32.00033 32.00033 0 0 1 -32-32zm44 94.78906v-32a63.56908 63.56908 0 0 0 23.957-9.86328l22.62891 22.627a94.926 94.926 0 0 1 -46.58591 19.23628zm63.55469-36.20506-22.62891-22.627a63.61375 63.61375 0 0 0 9.86328-23.957h32a94.938 94.938 0 0 1 -19.23437 46.584zm-12.76563-70.584a63.61375 63.61375 0 0 0 -9.86328-23.957l22.62891-22.627a94.938 94.938 0 0 1 19.23437 46.584zm-302.78906-212h-32a15.99954 15.99954 0 0 0 -16 16v416a16.00079 16.00079 0 0 0 16 16h32a16.00079 16.00079 0 0 0 16-16v-416a15.99954 15.99954 0 0 0 -16-16zm512 0h-32a15.99954 15.99954 0 0 0 -16 16v416a16.00079 16.00079 0 0 0 16 16h32a16.00079 16.00079 0 0 0 16-16v-416a15.99954 15.99954 0 0 0 -16-16z"/></svg>