<svg viewBox="0 0 640 512"><path d="m208 96h-184a23.99993 23.99993 0 0 0 -24 24v16a24.00118 24.00118 0 0 0 24 24h184a32 32 0 0 0 0-64zm0 256h-184a23.99993 23.99993 0 0 0 -24 24v16a24.00118 24.00118 0 0 0 24 24h184a32 32 0 0 0 0-64zm240-288c-106.03906 0-192 85.96094-192 192s85.96094 192 192 192 192-85.96094 192-192-85.96094-192-192-192zm0 256a64 64 0 1 1 64-64 64.07333 64.07333 0 0 1 -64 64z" opacity=".4"/><path d="m208.25 210.88672-48.25-50.88672h-73.76172l55.32422 56.94922-10.79688.98047a38.22631 38.22631 0 0 0 0 76.13867l10.79688.98242-77.5625 56.94922h73.76172l70.48828-50.88672 54.40234 4.28516a186.73576 186.73576 0 0 1 0-98.79688zm239.75-18.88672a64 64 0 1 0 64 64 64.07333 64.07333 0 0 0 -64-64zm0 96a32 32 0 1 1 32-32 32.00158 32.00158 0 0 1 -32 32z"/></svg>