<svg viewBox="0 0 576 512"><path d="m560.0004 223.65443a16.00059 16.00059 0 0 0 15.9996-16v-52.455a15.99809 15.99809 0 0 0 -10.52318-15.0332l-254.15-92.60347c-55.74858-20.05667-117.71582-21.97268-172.10507 1.58785-143.31675 62.07224-139.2075 206.84951-139.2075 206.84951s-4.35536 144.66594 139.2075 206.8495c54.38927 23.55858 116.35649 21.64452 172.10511 1.58593l16.32772-5.94921-100.47407-122.80658c-1.0781.043-2.08589.32031-3.1718.32031a81.12292 81.12292 0 1 1 77.49418-61.0859l89.25169 109.08588h41.249a47.888 47.888 0 0 1 40.16307 21.832l93.31019-33.998a15.99809 15.99809 0 0 0 10.52316-15.03321v-52.455a16.00059 16.00059 0 0 0 -15.9996-16h-143.9964v-64.69141zm-479.98813 48.34568a16 16 0 1 1 15.99961-16 16.00059 16.00059 0 0 1 -15.99961 16zm31.99921 96a16 16 0 1 1 15.99961-16 16.00059 16.00059 0 0 1 -15.99961 15.99995zm0-191.9999a16 16 0 1 1 15.99961-16 16.00059 16.00059 0 0 1 -15.99961 15.99995z" opacity=".4"/><path d="m128.01109 352.00007a15.99961 15.99961 0 1 1 -15.99961-16 16.00059 16.00059 0 0 1 15.99961 16zm-15.99961-207.9999a16 16 0 1 0 15.99961 16 15.99934 15.99934 0 0 0 -15.99961-16zm-31.99921 96a16 16 0 1 0 15.99961 16 15.99934 15.99934 0 0 0 -15.99961-16.00005zm399.99011 191.99983a48.00177 48.00177 0 0 1 -47.99882 48h-63.99841a48.01994 48.01994 0 0 1 -37.15533-17.60937l-103.66931-126.71087c-1.0781.043-2.08589.32031-3.1718.32031a81.12292 81.12292 0 1 1 77.49418-61.0859l89.25169 109.08588h41.249a48.00177 48.00177 0 0 1 47.9988 47.99995zm-223.99446-175.99988a31.99921 31.99921 0 1 0 -31.99921 32 31.99993 31.99993 0 0 0 31.99921-32z"/></svg>