<svg viewBox="0 0 640 512"><path d="m208 448h-64a16 16 0 0 1 -16-16v-128a16 16 0 0 1 16-16h64a16 16 0 0 1 16 16v128a16 16 0 0 1 -16 16zm96-128h32a16.00079 16.00079 0 0 0 16-16v-48a32 32 0 0 0 -64 0v48a16.00079 16.00079 0 0 0 16 16zm328-192h-8v-15.14453c0-7.96875-5.44531-15.35547-13.3125-16.63672a16.00991 16.00991 0 0 0 -18.6875 15.78125v16h-8a8.00039 8.00039 0 0 0 -8 8v16a8.00039 8.00039 0 0 0 8 8h8v271.14258c0 7.96875 5.44531 15.35742 13.3125 16.63867a16.01193 16.01193 0 0 0 18.6875-15.78125v-272h8a8.00039 8.00039 0 0 0 8-8v-16a8.00039 8.00039 0 0 0 -8-8zm-136 160h-64a16 16 0 0 0 -16 16v128a16 16 0 0 0 16 16h64a16 16 0 0 0 16-16v-128a16 16 0 0 0 -16-16zm-440-160h-8v-15.14453c0-7.96875-5.44531-15.35547-13.3125-16.63672a16.00991 16.00991 0 0 0 -18.6875 15.78125v16h-8a8.00039 8.00039 0 0 0 -8 8v16a8.00039 8.00039 0 0 0 8 8h8v271.14258c0 7.96875 5.44531 15.35742 13.3125 16.63867a16.01193 16.01193 0 0 0 18.6875-15.78125v-272h8a8.00039 8.00039 0 0 0 8-8v-16a8.00039 8.00039 0 0 0 -8-8z" opacity=".4"/><path d="m512 352v80a16 16 0 0 1 -16 16h-64a16 16 0 0 1 -16-16v-80h-32v-96l-30.25-241.98438a16.00035 16.00035 0 0 0 -15.87678-14.01562h-35.74822a15.99834 15.99834 0 0 0 -15.87478 14.01386l-30.25022 241.98614v96h-32v80a16 16 0 0 1 -16 16h-64a16 16 0 0 1 -16-16v-80h-80v76.79883l128 51.20117v16a16.00079 16.00079 0 0 0 16 16h16a16.00079 16.00079 0 0 0 16-16v-16h192v16a16.00079 16.00079 0 0 0 16 16h16a16.00079 16.00079 0 0 0 16-16v-16l128-51.20117v-76.79883zm-160-48a16.00079 16.00079 0 0 1 -16 16h-32a16.00079 16.00079 0 0 1 -16-16v-48a32 32 0 0 1 64 0z"/></svg>