<svg viewBox="0 0 576 512"><path d="m528.55 171.5-146.37-21.3-65.43-132.39c-11.72-23.7-45.68-23.8-57.5 0l-65.43 132.39-146.37 21.2c-26.25 3.8-36.77 36.1-17.73 54.6l105.9 103-25.05 145.46c-4.51 26.1 23 46 46.49 33.7l130.94-68.59 130.94 68.69c23.35 12.3 51-7.5 46.49-33.7l-25.05-145.48 105.9-103c19-18.48 8.52-50.78-17.73-54.58zm-240.55 220.5a40 40 0 1 1 40.07-40 40 40 0 0 1 -40.07 40zm40.17-223.38-8 112a8 8 0 0 1 -8 7.4h-48.11a8 8 0 0 1 -8-7.4l-8-112a8 8 0 0 1 7.39-8.58h64.74a8 8 0 0 1 8 8v.63z" opacity=".4"/><path d="m288 312a40 40 0 1 0 40.07 40 40 40 0 0 0 -40.07-40zm32.16-152h-64.16a8 8 0 0 0 -8 8v.62l8 112a8 8 0 0 0 8 7.4h48.09a8 8 0 0 0 8-7.4l8-112a8 8 0 0 0 -7.39-8.58z"/></svg>