<svg viewBox="0 0 576 512"><path d="m514.93 76.66c-47-53.55-98.64-76.66-146.07-76.66-70.58 0-131.86 51.17-154.75 129.39-49.11 139.94-212.72 82.95-214.11 222.27-1.19 121.62 139.26 164.62 256 160 87.78-3.4 187.32-37.09 270.49-131.85 70.29-80.04 65.11-215.81-11.56-303.15zm-36.53 261c-76.15 86.75-164.32 107.76-224.82 110.1-37.65 1.38-131.52-6.52-171.23-46.62-2.49-2.51-59.44-61.76 38-104.18 71.64-31.19 132.3-71.24 155.23-149.61 14.77-50.64 51.42-83.35 93.28-83.35 32.58 0 66.45 19 98 54.89 55.14 62.84 60.45 163 11.54 218.78z" opacity=".4"/><path d="m466.86 118.89c-31.55-35.89-65.42-54.89-98-54.89-41.86 0-78.51 32.71-93.29 83.37-22.93 78.37-83.57 118.42-155.23 149.63-97.43 42.42-40.48 101.67-38 104.18 39.71 40.1 133.58 48 171.23 46.62 60.5-2.34 148.67-23.35 224.82-110.1 48.91-55.77 43.61-155.97-11.53-218.81zm-82.86 137.03a32 32 0 1 1 32-32 32 32 0 0 1 -32 32z"/></svg>