<svg viewBox="0 0 512 512"><path d="m480 231.42v112.58c0 92.6-79 168-176 168-95.39 0-173.28-72.78-175.9-163.17h64.1c2.7 55.1 51.9 99.2 111.9 99.2 61.8 0 112-46.7 112-104v-112.56c-.1.53 63.9.53 63.9-.05z" opacity=".4"/><path d="m448 112a64 64 0 1 0 64 64 64 64 0 0 0 -64-64zm0 80a16 16 0 1 1 16-16 16 16 0 0 1 -16 16zm-147.3-178.93-62.9-12.6a23.94 23.94 0 0 0 -28.2 18.8l-3.2 15.73a23.94 23.94 0 0 0 18.8 28.2l30.7 6.1.1 122.7a96 96 0 0 1 -192 0l-.1-72v-50.63l30.7-6.1a23.94 23.94 0 0 0 18.8-28.2l-3.1-15.7a23.94 23.94 0 0 0 -28.2-18.8l-62.8 12.43a24.09 24.09 0 0 0 -19.3 23.57v155.43c0 88.22 71.78 160 160 160s160-71.78 160-160v-155.43a24 24 0 0 0 -19.3-23.5z"/></svg>