<svg viewBox="0 0 448 512"><path d="m224 96c-114.88 0-208 93.12-208 208s93.12 208 208 208 208-93.12 208-208-93.12-208-208-208zm32 240a16 16 0 0 1 -16 16h-32a16 16 0 0 1 -16-16v-127.5a16 16 0 0 1 16-16h32a16 16 0 0 1 16 16z" opacity=".4"/><path d="m240 192.5h-32a16 16 0 0 0 -16 16v127.5a16 16 0 0 0 16 16h32a16 16 0 0 0 16-16v-127.5a16 16 0 0 0 -16-16zm188.53-48.57-28.3-28.3a12 12 0 0 0 -17 0l-27.45 27.45a209.14 209.14 0 0 1 42.8 47.8l.55-.55 29.4-29.4a12 12 0 0 0 0-17zm-148.53-143.93h-112a16 16 0 0 0 -16 16v32a16 16 0 0 0 16 16h24v34.45a210 210 0 0 1 64 0v-34.45h24a16 16 0 0 0 16-16v-32a16 16 0 0 0 -16-16z"/></svg>