<svg viewBox="0 0 448 512"><path d="m287.87 221.73c-9.41 0-13.23 7.5-13.23 20v115.95c0 13.11 3.59 20.59 13.23 20.59s13-8 13-21.27v-115.94c.02-11.27-3-19.33-13-19.33zm110.63-30.82.59-.61 26.59-26.58a16 16 0 0 0 0-22.63l-22.68-22.68a16 16 0 0 0 -22.63 0l-24.68 24.68a206.68 206.68 0 0 0 -99.69-44.59v-34.5h32a16 16 0 0 0 16-16v-32a16 16 0 0 0 -16-16h-128a16 16 0 0 0 -16 16v32a16 16 0 0 0 16 16h32v34.5a207.92 207.92 0 0 0 -175.91 199.07c-3.45 113.93 90.67 212.65 204.63 214.43 116.41 1.77 211.28-92 211.28-208a206 206 0 0 0 -33.5-113.09zm-194.13 186.64a8.2 8.2 0 0 1 8.32 8.07v22.31a8.2 8.2 0 0 1 -8.32 8.07h-82.85a16.46 16.46 0 0 1 -16.61-17.62c2.78-35.22 14.67-57.41 38.45-91.37 20.42-29.19 27.1-37.32 27.1-62.34 0-16.92-1.79-24.27-12.21-24.27-9.39 0-12.69 7.4-12.69 22.68v5.23a8.2 8.2 0 0 1 -8.33 8.07h-24.9a8.2 8.2 0 0 1 -8.33-8.07v-4.07c0-27.3 8.48-60.24 56.43-60.24 43 0 55.57 25.85 55.57 61 0 35.58-12.44 51.21-34.35 81.31-11.56 15-24.61 35.57-26.41 51.2zm139.63-25.23c0 35.16-12.3 63.68-57.23 63.68-43.58 0-54.77-29.52-54.77-63.45v-105.33c0-40.73 19.58-63.22 56.19-63.22 36.81 0 55.81 22.64 55.81 61.3z" opacity=".4"/><path d="m216 245c0-35.19-12.59-61-55.57-61-47.95 0-56.43 32.94-56.43 60.24v4.07a8.2 8.2 0 0 0 8.33 8.07h24.9a8.2 8.2 0 0 0 8.33-8.07v-5.23c0-15.28 3.3-22.68 12.69-22.68 10.42 0 12.21 7.35 12.21 24.27 0 25-6.68 33.15-27.1 62.34-23.78 34-35.67 56.15-38.45 91.37a16.46 16.46 0 0 0 16.61 17.62h82.85a8.2 8.2 0 0 0 8.32-8.07v-22.31a8.2 8.2 0 0 0 -8.32-8.07h-49.13c1.8-15.63 14.85-36.15 26.41-51.2 21.91-30.1 34.35-45.73 34.35-81.35zm72.19-61c-36.61 0-56.19 22.49-56.19 63.22v105.33c0 33.93 11.19 63.45 54.77 63.45 44.93 0 57.23-28.52 57.23-63.68v-107c0-38.68-19-61.32-55.81-61.32zm12.7 173c0 13.24-3.38 21.27-13 21.27s-13.23-7.48-13.23-20.59v-115.94c0-12.51 3.82-20 13.23-20 10 0 13 8.06 13 19.33z"/></svg>