<svg viewBox="0 0 640 512"><path d="m320 384h-192v-160h-64v256a32 32 0 0 0 32 32h256a32 32 0 0 0 32-32v-73.41l-64-49.47zm-302.11-260.38-12.38 18.58c-14.2 21.3 1 49.8 26.59 49.8h74.26zm366.11 141.38v-41h-53.08zm128 99 64 49.46v-189.46h-64zm122.6-221.8-85.29-128a32.18 32.18 0 0 0 -26.71-14.2h-405.18a31.87 31.87 0 0 0 -26.61 14.2l-10.66 16 209.37 161.8h318.48c25.51 0 40.71-28.5 26.6-49.8z" opacity=".4"/><path d="m6.18 53.91a16 16 0 0 1 -2.81-22.45l19.63-25.27a16 16 0 0 1 22.46-2.81l588.35 454.72a16 16 0 0 1 2.81 22.45l-19.62 25.26a16 16 0 0 1 -22.45 2.82z"/></svg>