<svg viewBox="0 0 616 512"><path d="m547.69 286.8a102.1 102.1 0 0 0 16.4-3.6v196.8a32 32 0 0 1 -32 32h-448.09a32 32 0 0 1 -32-32v-196.8a125.89 125.89 0 0 0 16.4 3.6 135.49 135.49 0 0 0 18 1.2 132.81 132.81 0 0 0 29.51-3.8v99.8h384.09v-99.8a127.12 127.12 0 0 0 29.51 3.8 138.38 138.38 0 0 0 18.18-1.2z" opacity=".4"/><path d="m602 118.6c33.6 53.6 3.8 128-59 136.4a102.9 102.9 0 0 1 -13.7.9 99.08 99.08 0 0 1 -73.81-33.1 98.83 98.83 0 0 1 -139.49 8.08 96.26 96.26 0 0 1 -8.08-8.08 98.9 98.9 0 0 1 -139.62 8 97.4 97.4 0 0 1 -8-8 98.75 98.75 0 0 1 -73.81 33.1 104.6 104.6 0 0 1 -13.7-.9c-62.67-8.5-92.37-82.9-58.79-136.4l64.83-103.6a32 32 0 0 1 27.17-15h404a32 32 0 0 1 27.07 15z"/></svg>