<svg viewBox="0 0 640 512"><path d="m127.9 384v-99.8a131.82 131.82 0 0 1 -29.5 3.8 136.73 136.73 0 0 1 -18-1.2 126.49 126.49 0 0 1 -16.4-3.6v196.8a32 32 0 0 0 32 32h436.37l-165.61-128zm-29.5-128.09c26.42 0 49.78-10.72 67.37-27.24l-140.54-108.62c-32.12 53.39-2.58 126.52 59.47 134.95a105.78 105.78 0 0 0 13.7.91zm515.5-137.32-64.9-103.59a32 32 0 0 0 -27.1-15h-404a32 32 0 0 0 -27.1 15l-9.89 15.78 285.94 221a97.23 97.23 0 0 0 26.75 4.14 98.72 98.72 0 0 0 73.8-33.11 99 99 0 0 0 73.8 33.11 104.5 104.5 0 0 0 13.7-.91c62.8-8.42 92.6-82.81 59-136.42zm-72.5 169.41a126.81 126.81 0 0 1 -29.5-3.8v79.68l64.1 49.53v-130.21a103.19 103.19 0 0 1 -16.4 3.6 141.06 141.06 0 0 1 -18.2 1.2z" opacity=".4"/><path d="m6.18 53.91a16 16 0 0 1 -2.81-22.45l19.63-25.27a16 16 0 0 1 22.46-2.81l588.36 454.72a16 16 0 0 1 2.81 22.45l-19.63 25.26a16 16 0 0 1 -22.45 2.82z"/></svg>