<svg viewBox="0 0 640 512"><path d="m515.78 394.93a62.25 62.25 0 0 0 -56.18-7.3l-43-37.63 107.4-94h-97.2l-58.8 51.48-58.83-51.48h-97.17l107.4 94-43 37.63a62.25 62.25 0 0 0 -56.18 7.3 64.11 64.11 0 1 0 98.53 40.69l49.25-43.1 49.25 43.1a64 64 0 1 0 98.53-40.69zm-259.78 69.07a16 16 0 1 1 16-16 16 16 0 0 1 -16 16zm224 0a16 16 0 1 1 16-16 16 16 0 0 1 -16 16z" opacity=".4"/><path d="m640 160v32a32 32 0 0 1 -32 32h-430.38a64 64 0 0 1 -47.84-21.48l-121.7-128a32 32 0 0 1 2.66-45.17l23.92-21.27a32 32 0 0 1 45.18 2.66l112.16 117.26h416a32 32 0 0 1 32 32z"/></svg>