<svg viewBox="0 0 512 512"><path d="m512 416c0 53-114.62 96-256 96s-256-43-256-96c0-37.95 58.87-70.66 144.1-86.24a63.94 63.94 0 0 0 15.9 13.65v22.94c-66.52 9.35-112 28.05-112 49.65 0 30.93 93.12 56 208 56s208-25.07 208-56c0-21.6-45.48-40.31-112-49.65v-22.94a63.94 63.94 0 0 0 15.9-13.65c85.23 15.58 144.1 48.29 144.1 86.24z" opacity=".4"/><path d="m256 128a64 64 0 1 0 -64-64 64 64 0 0 0 64 64zm48 16h-11.8a85.9 85.9 0 0 1 -72.4 0h-11.8a48 48 0 0 0 -48 48v96a32 32 0 0 0 32 32v96a32 32 0 0 0 32 32h64a32 32 0 0 0 32-32v-96a32 32 0 0 0 32-32v-96a48 48 0 0 0 -48-48z"/></svg>