<svg viewBox="0 0 512 512"><path d="m512 240v32a16 16 0 0 1 -16 16h-480a16 16 0 0 1 -16-16v-32a16 16 0 0 1 16-16h480a16 16 0 0 1 16 16z" opacity=".4"/><path d="m410.15 320a114.16 114.16 0 0 1 5.27 24.35 123.69 123.69 0 0 1 -122.97 135.65h-68a128 128 0 0 1 -114.45-70.76l-.52-1a16 16 0 0 1 7.15-21.47l42.94-21.47a16 16 0 0 1 21.47 7.16 49.87 49.87 0 0 0 44.62 27.54h66.79a43.59 43.59 0 0 0 43.55-43.55 43 43 0 0 0 -20.24-36.45zm-116.25-96-87.17-26.83a43.55 43.55 0 0 1 12.82-85.17h66.79a49.86 49.86 0 0 1 44.66 27.57 16 16 0 0 0 21.47 7.16l42.94-21.47a16 16 0 0 0 7.15-21.46l-.52-1a128 128 0 0 0 -114.53-70.8h-68a123.68 123.68 0 0 0 -123 135.64c2 20.89 10.1 39.83 21.78 56.36z"/></svg>