<svg viewBox="0 0 512 512"><path d="m188.12 210.74-45.26 45.26 45.25 45.25 45.26-45.25zm22.63 113.14 45.25 45.26 45.26-45.26-45.26-45.25zm90.5-135.76-45.25-45.26-45.25 45.25 45.25 45.26zm-45.25-188.12c-141.38 0-256 114.62-256 256s114.62 256 256 256 256-114.62 256-256-114.62-256-256-256zm186.68 295.6-11.31 11.31a8 8 0 0 1 -11.31 0l-28.29-28.29-45.25 45.25 33.94 33.94 17-17a8 8 0 0 1 11.31 0l11.31 11.31a8 8 0 0 1 0 11.31l-17 17 17 17a8 8 0 0 1 0 11.31l-11.34 11.26a8 8 0 0 1 -11.31 0l-17-17-17 17a8 8 0 0 1 -11.31 0l-11.31-11.31a8 8 0 0 1 0-11.31l17-17-33.91-33.89-45.26 45.26 28.29 28.25a8 8 0 0 1 0 11.31l-11.31 11.31a8 8 0 0 1 -11.31 0l-28.31-28.23-28.29 28.29a8 8 0 0 1 -11.31 0l-11.31-11.31a8 8 0 0 1 0-11.31l28.29-28.29-45.25-45.26-33.94 33.94 17 17a8 8 0 0 1 0 11.31l-11.34 11.24a8 8 0 0 1 -11.31 0l-17-17-17 17a8 8 0 0 1 -11.31 0l-11.23-11.27a8 8 0 0 1 0-11.31l17-17-17-17a8 8 0 0 1 0-11.31l11.31-11.31a8 8 0 0 1 11.31 0l17 17 33.94-33.94-45.25-45.25-28.31 28.32a8 8 0 0 1 -11.31 0l-11.37-11.33a8 8 0 0 1 0-11.31l28.29-28.29-28.29-28.29a8 8 0 0 1 0-11.31l11.31-11.31a8 8 0 0 1 11.31 0l28.29 28.29 45.25-45.26-33.94-33.94-17 17a8 8 0 0 1 -11.31 0l-11.23-11.34a8 8 0 0 1 0-11.31l17-17-17-17a8 8 0 0 1 0-11.31l11.26-11.22a8 8 0 0 1 11.31 0l17 17 17-17a8 8 0 0 1 11.31 0l11.31 11.31a8 8 0 0 1 0 11.31l-17 17 33.91 33.88 45.26-45.25-28.29-28.25a8 8 0 0 1 0-11.31l11.31-11.31a8 8 0 0 1 11.31 0l28.31 28.23 28.29-28.29a8 8 0 0 1 11.31 0l11.31 11.31a8 8 0 0 1 0 11.31l-28.29 28.29 45.26 45.25 33.94-33.94-17-17a8 8 0 0 1 0-11.31l11.34-11.23a8 8 0 0 1 11.31 0l17 17 17-17a8 8 0 0 1 11.31 0l11.22 11.26a8 8 0 0 1 0 11.31l-17 17 17 17a8 8 0 0 1 0 11.31l-11.31 11.31a8 8 0 0 1 -11.31 0l-17-17-33.88 33.91 45.25 45.26 28.25-28.29a8 8 0 0 1 11.31 0l11.31 11.31a8 8 0 0 1 0 11.31l-28.23 28.31 28.29 28.28a8 8 0 0 1 0 11.32zm-164-39.6 45.26 45.25 45.2-45.25-45.25-45.26z" opacity=".4"/><path d="m442.68 284.28-28.29-28.28 28.27-28.31a8 8 0 0 0 0-11.31l-11.31-11.31a8 8 0 0 0 -11.31 0l-28.29 28.29-45.25-45.26 33.94-33.94 17 17a8 8 0 0 0 11.31 0l11.25-11.34a8 8 0 0 0 0-11.31l-17-17 17-17a8 8 0 0 0 0-11.31l-11.28-11.2a8 8 0 0 0 -11.31 0l-17 17-17-17a8 8 0 0 0 -11.31 0l-11.31 11.31a8 8 0 0 0 0 11.31l17 17-33.94 33.94-45.26-45.25 28.29-28.29a8 8 0 0 0 0-11.31l-11.28-11.39a8 8 0 0 0 -11.31 0l-28.29 28.29-28.31-28.27a8 8 0 0 0 -11.31 0l-11.31 11.31a8 8 0 0 0 0 11.31l28.29 28.29-45.26 45.25-33.94-33.94 17-17a8 8 0 0 0 0-11.31l-11.34-11.25a8 8 0 0 0 -11.31 0l-17 17-17-17a8 8 0 0 0 -11.31 0l-11.2 11.28a8 8 0 0 0 0 11.31l17 17-17 17a8 8 0 0 0 0 11.31l11.31 11.31a8 8 0 0 0 11.31 0l17-17 33.94 33.94-45.25 45.26-28.37-28.32a8 8 0 0 0 -11.31 0l-11.31 11.31a8 8 0 0 0 0 11.31l28.29 28.29-28.29 28.29a8 8 0 0 0 0 11.31l11.34 11.33a8 8 0 0 0 11.31 0l28.29-28.29 45.25 45.25-33.94 33.94-17-17a8 8 0 0 0 -11.31 0l-11.26 11.34a8 8 0 0 0 0 11.31l17 17-17 17a8 8 0 0 0 0 11.31l11.29 11.21a8 8 0 0 0 11.31 0l17-17 17 17a8 8 0 0 0 11.31 0l11.31-11.31a8 8 0 0 0 0-11.31l-17-17 33.94-33.94 45.25 45.26-28.29 28.29a8 8 0 0 0 0 11.31l11.31 11.31a8 8 0 0 0 11.31 0l28.26-28.22 28.31 28.27a8 8 0 0 0 11.31 0l11.31-11.31a8 8 0 0 0 0-11.31l-28.29-28.29 45.26-45.26 33.94 33.94-17 17a8 8 0 0 0 0 11.31l11.34 11.26a8 8 0 0 0 11.31 0l17-17 17 17a8 8 0 0 0 11.31 0l11.31-11.31a8 8 0 0 0 0-11.31l-17-17 17-17a8 8 0 0 0 0-11.31l-11.31-11.31a8 8 0 0 0 -11.31 0l-17 17-33.94-33.94 45.25-45.25 28.29 28.29a8 8 0 0 0 11.31 0l11.31-11.31a8 8 0 0 0 -.03-11.27zm-186.68-141.42 45.25 45.26-45.25 45.25-45.25-45.26zm-67.89 158.39-45.25-45.25 45.26-45.26 45.25 45.26zm67.89 67.89-45.25-45.26 45.25-45.25 45.26 45.25zm67.89-67.89-45.26-45.25 45.26-45.26 45.25 45.26z"/></svg>