<svg viewBox="0 0 448 512"><path d="m176 256a24 24 0 0 0 24-24v-112a24 24 0 0 0 -24-24h-104a24 24 0 0 0 -24 24v112a24 24 0 0 0 24 24zm200-160h-104a24 24 0 0 0 -24 24v112a24 24 0 0 0 24 24h104a24 24 0 0 0 24-24v-112a24 24 0 0 0 -24-24zm5 401.72-63-49.72h-188l-63 49.72a8 8 0 0 0 5 14.28h304a8 8 0 0 0 5-14.28z" opacity=".4"/><path d="m130 448h188c68.4 0 130-44.19 130-96v-256c0-53-63-96-128-96h-192c-64 0-128 43-128 96v256c0 52 61.82 96 130 96zm222-64a48 48 0 1 1 48-48 48 48 0 0 1 -48 48zm-104-264a24 24 0 0 1 24-24h104a24 24 0 0 1 24 24v112a24 24 0 0 1 -24 24h-104a24 24 0 0 1 -24-24zm-200 0a24 24 0 0 1 24-24h104a24 24 0 0 1 24 24v112a24 24 0 0 1 -24 24h-104a24 24 0 0 1 -24-24zm48 168a48 48 0 1 1 -48 48 48 48 0 0 1 48-48z"/></svg>