<svg viewBox="0 0 384 512"><path d="m144 48h96v112h48v-112a48 48 0 0 0 -48-48h-96a48 48 0 0 0 -48 48v112h48zm-80 448a16 16 0 0 0 16 16h32a16 16 0 0 0 16-16v-16h-64zm192 0a16 16 0 0 0 16 16h32a16 16 0 0 0 16-16v-16h-64zm56-240h-240a8 8 0 0 0 -8 8v16a8 8 0 0 0 8 8h240a8 8 0 0 0 8-8v-16a8 8 0 0 0 -8-8zm0 96h-240a8 8 0 0 0 -8 8v16a8 8 0 0 0 8 8h240a8 8 0 0 0 8-8v-16a8 8 0 0 0 -8-8z" opacity=".4"/><path d="m336 160h-288a48 48 0 0 0 -48 48v224a48 48 0 0 0 48 48h288a48 48 0 0 0 48-48v-224a48 48 0 0 0 -48-48zm-16 216a8 8 0 0 1 -8 8h-240a8 8 0 0 1 -8-8v-16a8 8 0 0 1 8-8h240a8 8 0 0 1 8 8zm0-96a8 8 0 0 1 -8 8h-240a8 8 0 0 1 -8-8v-16a8 8 0 0 1 8-8h240a8 8 0 0 1 8 8z"/></svg>