<svg viewBox="0 0 576 512"><path d="m574.09 280.38-45.34-181.72a87.94 87.94 0 0 0 -113.19-62.14l-15.25 5.08a16 16 0 0 0 -10.12 20.25l5.06 15.15a16 16 0 0 0 20.22 10.13l13.19-4.39c10.87-3.63 23-3.57 33.15 1.73a39.59 39.59 0 0 1 20.38 25.81l38.47 153.83a276.7 276.7 0 0 0 -81.22-12.47c-34.75 0-74 7-114.85 26.75h-73.18c-40.85-19.75-80.07-26.75-114.85-26.75a276.75 276.75 0 0 0 -81.22 12.45l38.47-153.8a39.61 39.61 0 0 1 20.38-25.82c10.15-5.29 22.28-5.34 33.15-1.73l13.16 4.39a16 16 0 0 0 20.25-10.13l5.06-15.19a16 16 0 0 0 -10.12-20.21l-15.25-5.08a87.95 87.95 0 0 0 -113.19 62.13l-45.34 181.73a75.35 75.35 0 0 0 -1.91 15.48v70.25c0 62.89 51.59 113.89 115.19 113.89h37.12c60.28 0 110.38-45.94 114.88-105.37l2.93-38.63h35.76l2.93 38.63c4.5 59.43 54.6 105.37 114.88 105.37h37.12c63.6 0 115.19-51 115.19-113.87v-70.25a62.67 62.67 0 0 0 -1.91-15.5zm-370.71 89.42c-2 25.9-24.41 46.2-51.07 46.2h-37.12c-28.19 0-51.19-22.37-51.19-49.89v-37.55a217.35 217.35 0 0 1 72.59-12.9 196.51 196.51 0 0 1 69.91 12.9zm308.62-3.67c0 27.5-23 49.87-51.19 49.87h-37.12c-26.69 0-49.1-20.3-51.07-46.2l-3.12-41.24a196.55 196.55 0 0 1 69.94-12.9 217.41 217.41 0 0 1 72.56 12.92z" opacity=".4"/><path d="m64.19 367.9c0-.61-.19-1.18-.19-1.8 0 27.53 23 49.9 51.19 49.9h37.12c26.66 0 49.1-20.3 51.07-46.2l3.12-41.24c-14-5.29-28.31-8.38-42.78-10.42zm404-50-95.83 47.91.3 4c2 25.9 24.38 46.2 51.07 46.2h37.12c28.15-.01 51.15-22.38 51.15-49.88v-37.55a227.76 227.76 0 0 0 -43.85-10.66z"/></svg>