<svg viewBox="0 0 576 512"><path d="m250.9 374.45c-20.6 8.55-36.3 23.55-46.6 41.55h167.2c-23.8-41.65-75.1-60.35-120.6-41.55zm260.8-20.1-106.5-7.6-7.6-106.5a17.5 17.5 0 0 0 -28.9-12l-80.7 70-80.7-70a17.5 17.5 0 0 0 -28.9 12l-7.6 106.5-106.5 7.6a17.5 17.5 0 0 0 -12 28.9l28.4 32.75h87.6c.2-.5.2-1 .4-1.4 27.3-65.8 102.9-97.2 168.7-69.9a128.68 128.68 0 0 1 70.3 71.3h87.6l28.4-32.7a17.5 17.5 0 0 0 -12-28.95z" opacity=".4"/><path d="m560 464h-544a16 16 0 0 0 -16 16v16a16 16 0 0 0 16 16h544a16 16 0 0 0 16-16v-16a16 16 0 0 0 -16-16zm-369.2-336h65.2v80a16 16 0 0 0 16 16h32a16 16 0 0 0 16-16v-80h65.2c14.3 0 21.4-17.3 11.2-27.4l-96.4-95.6a17 17 0 0 0 -24 0l-96.4 95.7c-10.2 9.95-3 27.3 11.2 27.3z"/></svg>