<svg viewBox="0 0 640 512"><path d="m189.61 374.57a86.6 86.6 0 0 0 -29.61-18.07v-228.5a96 96 0 0 1 192 0v16a16 16 0 0 1 -16 16h-32a16 16 0 0 1 -16-16v-16a32 32 0 0 0 -64 0v96h192v-96a96 96 0 0 1 192 0v16a16 16 0 0 1 -16 16h-32a16 16 0 0 1 -16-16v-16a32 32 0 0 0 -64 0v228.51a86.44 86.44 0 0 0 -29.61 18.07c-3.53 3.26-15.27 9.42-34.39 9.42v-96h-192v96c-19.12 0-30.86-6.16-34.39-9.43z" opacity=".4"/><path d="m0 464v-32a16 16 0 0 1 16-16h16c26 0 45.8-8.42 56.07-17.9 8.9-8.21 19.66-14.1 31.77-14.1h16.3c12.11 0 22.87 5.89 31.77 14.1 10.29 9.48 30.09 17.9 56.09 17.9s45.8-8.42 56.07-17.9c8.9-8.21 19.66-14.1 31.77-14.1h16.3c12.11 0 22.87 5.89 31.77 14.1 10.29 9.48 30.09 17.9 56.09 17.9s45.8-8.42 56.07-17.9c8.9-8.21 19.66-14.1 31.77-14.1h16.3c12.11 0 22.87 5.89 31.77 14.1 10.29 9.48 30.09 17.9 56.09 17.9h16a16 16 0 0 1 16 16v32a16 16 0 0 1 -16 16h-16c-38.62 0-72.72-12.18-96-31.84-23.28 19.65-57.38 31.84-96 31.84s-72.72-12.18-96-31.84c-23.28 19.65-57.38 31.84-96 31.84s-72.72-12.18-96-31.84c-23.28 19.65-57.38 31.84-96 31.84h-16a16 16 0 0 1 -16-16z"/></svg>