<svg viewBox="0 0 640 512"><path d="m538 120-100.32-21.53a112.22 112.22 0 0 0 -88.56 18.38l-80.02 57.15a111.54 111.54 0 0 0 -26.72 27l-68.63 98a92 92 0 0 1 15.86 11.58c3.54 3.26 15.27 9.42 34.39 9.42s30.86-6.16 34.39-9.42c16-14.77 34.5-22.58 53.46-22.58h16.3c19 0 37.45 7.81 53.46 22.58 3.54 3.26 15.27 9.42 34.39 9.42s30.86-6.16 34.39-9.42c14.86-13.71 31.88-21.12 49.39-22.16l-112.84-80.6 18-12.86a16.22 16.22 0 0 1 12.62-2.61l100.35 21.53a48 48 0 0 0 20.09-93.88zm-426-24a80 80 0 1 0 80 80 80 80 0 0 0 -80-80z" opacity=".4"/><path d="m640 368v32a16 16 0 0 1 -16 16h-16c-38.62 0-72.72-12.18-96-31.84-23.28 19.65-57.38 31.84-96 31.84s-72.72-12.18-96-31.84c-23.28 19.65-57.38 31.84-96 31.84s-72.72-12.18-96-31.84c-23.28 19.65-57.38 31.84-96 31.84h-16a16 16 0 0 1 -16-16v-32a16 16 0 0 1 16-16h16c26 0 45.8-8.42 56.07-17.9 8.9-8.21 19.66-14.1 31.77-14.1h16.3c12.11 0 22.87 5.89 31.77 14.1 10.29 9.48 30.09 17.9 56.09 17.9s45.8-8.42 56.07-17.9c8.9-8.21 19.66-14.1 31.77-14.1h16.3c12.11 0 22.87 5.89 31.77 14.1 10.29 9.48 30.09 17.9 56.09 17.9s45.8-8.42 56.07-17.9c8.9-8.21 19.66-14.1 31.77-14.1h16.3c12.11 0 22.87 5.89 31.77 14.1 10.29 9.48 30.09 17.9 56.09 17.9h16a16 16 0 0 1 16 16z"/></svg>