<svg viewBox="0 0 512 512"><path d="m504.96733 7.02964a24.00768 24.00768 0 0 0 -33.2818-.64077l-245.70633 225.66702h103.52213l176.10679-191.739a24.00667 24.00667 0 0 0 -.64079-33.28725z" opacity=".4"/><path d="m94.22341 327.25434-84.85341 84.86982a31.99685 31.99685 0 0 0 -.01172 45.23539l.00782.0039 107.48409-107.48458zm33.946 33.94168-107.49575 107.48849 22.62287 22.64406 107.5036-107.50021zm180.8658-105.13441h-136.99927a16.00024 16.00024 0 0 0 -11.31925 4.68861l-55.17794 55.187 90.53058 90.52938 124.22656-123.03129c10.1549-10.05903 3.03201-27.3737-11.26065-27.3737zm-254.42336 246.59v.00195a32.08545 32.08545 0 0 0 45.26138.01173l84.88077-84.88158-22.63851-22.6382z"/></svg>