<svg viewBox="0 0 512 512"><path d="m153.37 278.63-53.37 53.37-24.69-24.69a16 16 0 0 0 -22.62 0l-17.54 17.53a16 16 0 0 0 -2.79 18.87l31.64 59-59.31 59.35a16 16 0 0 0 0 22.63l22.62 22.62a16 16 0 0 0 22.63 0l59.31-59.31 59 31.64a16 16 0 0 0 18.87-2.79l17.53-17.54a16 16 0 0 0 0-22.62l-24.65-24.69 53.37-53.37zm343.42-278.49-78.11 13.2-140 140 80 80 140-140 13.2-78.11a13.33 13.33 0 0 0 -15.09-15.09z" opacity=".4"/><path d="m389.37 309.38-296-296-78.15-13.24a13.32 13.32 0 0 0 -15.08 15.08l13.2 78.11 296 296.05zm117.94 152.68-59.31-59.31 31.64-59a16 16 0 0 0 -2.79-18.87l-17.54-17.53a16 16 0 0 0 -22.63 0l-129.37 129.34a16 16 0 0 0 0 22.62l17.53 17.54a16 16 0 0 0 18.87 2.79l59-31.64 59.31 59.31a16 16 0 0 0 22.63 0l22.62-22.62a16 16 0 0 0 .04-22.63z"/></svg>