<svg viewBox="0 0 640 512"><path d="m255.99976 313.1994 42.69531-46.67959-42.69531-46.48818zm-120.96876-306.16927a24.01075 24.01075 0 0 0 -.64063 33.287l225.66406 245.7026v-103.52318l-191.73436-176.10704a24.0151 24.0151 0 0 0 -33.28907.64062zm369.9375-.00195a24.00147 24.00147 0 0 0 -33.27344-.64062l-128.03906 117.59744 37.8125 34.72844a47.92694 47.92694 0 0 1 18.71093-3.78124c.1836 0 .35547.05078.53907.05273l104.89063-114.67753a24.00108 24.00108 0 0 0 -.64062-33.27922z" opacity=".4"/><path d="m196.60132 224.62928-28.76563 29.11321a32.00691 32.00691 0 0 0 -45.27734 45.25186l-113.22266 113.15992a32.06984 32.06984 0 0 0 .01172 45.2499l45.30859 45.23818a32.01846 32.01846 0 0 0 45.25-.00976l119.35938-118.37475a15.98659 15.98659 0 0 0 4.73438-11.3574v-137.029c0-14.30466-17.34376-21.41988-27.39844-11.24216zm-28.0625 135.81806a16 16 0 1 1 16.00781-16 16.00493 16.00493 0 0 1 -16.00781 16zm377.24218-33.20305-22.63282 22.63862 107.50392 107.50759.00391-.002a32.0876 32.0876 0 0 0 .00781-45.26162zm-134.34374-135.53877c-10.0625-10.15623-27.375-3.0332-27.375 11.26169v136.99579a16.01218 16.01218 0 0 0 4.6875 11.31834l55.1875 55.17762 90.53125-90.53106zm43.8164 226.06983 84.8711 84.85333a31.9925 31.9925 0 0 0 45.23437.00977l.00391-.00586-107.48438-107.48219zm33.94141-33.94329 107.48828 107.49194 22.64453-22.623-107.5-107.50172z"/></svg>