<svg viewBox="0 0 512 512"><path d="m504.9689 7.02779a24.00309 24.00309 0 0 0 -33.27442-.64061l-246.10877 226.02754 53.986 53.985 226.03783-246.09346a23.99965 23.99965 0 0 0 -.64064-33.27847z" opacity=".4"/><path d="m139.43866 293.34679 79.20154 79.19332 22.62566-22.62638-79.19763-79.19333zm-33.9424 33.94055 79.19763 79.19333 22.62957-22.62639-79.19763-79.19328zm169.712-11.31417-79.19763-79.19332a8.00233 8.00233 0 0 0 -11.31674 0l-11.31283 11.31415a7.99658 7.99658 0 0 0 0 11.31222l79.19763 79.19333a7.99763 7.99763 0 0 0 11.31283 0l11.31674-11.31222a8.006 8.006 0 0 0 0-11.31416zm-265.83982 96.16165a32.00519 32.00519 0 0 0 -.01562 45.23518l45.23179 45.27425a32.0792 32.0792 0 0 0 45.263.02344l79.20545-79.20309-90.51437-90.5075z"/></svg>