<svg viewBox="0 0 640 512"><path d="m70 196.51-63.33 71.78a26.66 26.66 0 0 0 -6.67 17.64v226.07h128v-272.42l-38-43.07a13.35 13.35 0 0 0 -20 0zm563.33 71.78-63.33-71.78a13.33 13.33 0 0 0 -20 0l-38 43.07v272.42h128v-226.07a26.64 26.64 0 0 0 -6.67-17.64z" opacity=".4"/><path d="m468 109.41-128-102.41a32 32 0 0 0 -40 0l-128 102.41a32 32 0 0 0 -12 25v377.59h96v-92.57c0-31.88 21.78-61.43 53.25-66.55a64 64 0 0 1 74.75 63.12v96h96v-377.6a32 32 0 0 0 -12-24.99zm-75.94 113.15a4.73 4.73 0 0 1 -4 7.24h-38.94l-25.12 40a4.72 4.72 0 0 1 -8 0l-25.12-40h-38.94a4.72 4.72 0 0 1 -4-7.24l19.2-30.56-19.2-30.56a4.73 4.73 0 0 1 4-7.24h38.94l25.12-40a4.72 4.72 0 0 1 8 0l25.12 40h38.95a4.73 4.73 0 0 1 4 7.24l-19.2 30.56z"/></svg>