<svg viewBox="0 0 512 512"><path d="m0 500v-200.33a12 12 0 0 1 12-12h200.33a12 12 0 0 1 12 12v47.41a12 12 0 0 1 -12.57 12l-101.87-4.88a176.07 176.07 0 0 0 317.25-56.94 12 12 0 0 1 11.67-9.26h49.09a12 12 0 0 1 11.8 14.18c-21.63 114.9-122.51 201.82-243.7 201.82a247.43 247.43 0 0 1 -188.76-87.17l4.13 82.57a12 12 0 0 1 -12 12.6h-47.37a12 12 0 0 1 -12-12z" opacity=".4"/><path d="m12.3 209.82c21.63-114.9 122.51-201.82 243.7-201.82a247.4 247.4 0 0 1 188.9 87.34l-4-82.77a12 12 0 0 1 12.02-12.57h47.41a12 12 0 0 1 12 12v200.33a12 12 0 0 1 -12 12h-200.33a12 12 0 0 1 -12-12v-47.41a12 12 0 0 1 12.57-12l101.53 4.88a176.07 176.07 0 0 0 -317.24 56.94 12 12 0 0 1 -11.67 9.26h-49.09a12 12 0 0 1 -11.8-14.18z"/></svg>