<svg viewBox="0 0 512 512"><path d="m8 454.06v-134.06a24 24 0 0 1 24-24h134.06c21.38 0 32.09 25.85 17 41l-41.75 41.75a166.82 166.82 0 0 0 114.85 45.25c77.41-.07 144.31-53.14 162.78-126.85a12 12 0 0 1 11.65-9.15h57.31a12 12 0 0 1 11.81 14.18c-21.64 114.9-122.52 201.82-243.71 201.82a247.14 247.14 0 0 1 -171.31-68.69l-35.69 35.69c-15.15 15.15-41 4.44-41-16.94z" opacity=".4"/><path d="m12.3 209.82c21.63-114.9 122.51-201.82 243.7-201.82a247.14 247.14 0 0 1 171.31 68.69l35.69-35.69c15.12-15.12 41-4.41 41 17v134a24 24 0 0 1 -24 24h-134.06c-21.38 0-32.09-25.85-17-41l41.75-41.75a166.8 166.8 0 0 0 -114.84-45.25c-77.46.07-144.33 53.18-162.79 126.85a12 12 0 0 1 -11.65 9.15h-57.31a12 12 0 0 1 -11.8-14.18z"/></svg>