<svg viewBox="0 0 640 512"><path d="m363 65.71c-3.5-3.5-9.5-3.2-12.3.8-45.4 62.7-40.5 150.4 15.9 206.9s144.2 61.4 206.9 15.9a8.15 8.15 0 0 0 .8-12.3zm230.4-19.1c-56.5-56.5-144.2-61.4-206.9-16a8.15 8.15 0 0 0 -.8 12.3l211.3 211.4c3.5 3.5 9.5 3.2 12.3-.8 45.5-62.7 40.6-150.4-15.9-206.9z" opacity=".4"/><path d="m311.6 368h-303.2c-5 0-9.1 4.5-8.3 9.3 12.4 76.21 78.8 134.7 159.9 134.7s147.5-58.5 159.9-134.7c.8-4.79-3.3-9.3-8.3-9.3zm-303.2-32h303.3c5 0 9.1-4.5 8.3-9.3-12.5-76.19-78.9-134.7-160-134.7s-147.5 58.51-159.9 134.71c-.8 4.8 3.3 9.29 8.3 9.29z"/></svg>