<svg viewBox="0 0 448 512"><path d="m439.2 164.4a15.92 15.92 0 0 0 8.8-14.3v-76.2a15.92 15.92 0 0 0 -8.8-14.3l-23.2-11.6a48 48 0 0 0 -48-48h-288a48 48 0 0 0 -48 48l-23.2 11.6a15.92 15.92 0 0 0 -8.8 14.3v76.2a15.92 15.92 0 0 0 8.8 14.3l23.2 11.6v16l-23.2 11.6a15.92 15.92 0 0 0 -8.8 14.3v76.2a15.92 15.92 0 0 0 8.8 14.3l23.2 11.6v16l-23.2 11.6a15.92 15.92 0 0 0 -8.8 14.3v76.2a15.92 15.92 0 0 0 8.8 14.3l23.2 11.6a48 48 0 0 0 48 48h288a48 48 0 0 0 48-48l23.2-11.6a15.92 15.92 0 0 0 8.8-14.3v-76.2a15.92 15.92 0 0 0 -8.8-14.3l-23.2-11.6v-16l23.2-11.6a15.92 15.92 0 0 0 8.8-14.3v-76.2a15.92 15.92 0 0 0 -8.8-14.3l-23.2-11.6v-16zm-87.2 267.6a16 16 0 0 1 -16 16h-224a16 16 0 0 1 -16-16v-352a16 16 0 0 1 16-16h224a16 16 0 0 1 16 16z" opacity=".4"/><path d="m352 432a16 16 0 0 1 -16 16h-224a16 16 0 0 1 -16-16v-352a16 16 0 0 1 16-16h224a16 16 0 0 1 16 16z"/></svg>