<svg viewBox="0 0 576 512"><path d="m288 32c-159.06 0-288 128.94-288 288a286.44 286.44 0 0 0 39.06 144.8c5.61 9.62 16.3 15.2 27.44 15.2h443c11.14 0 21.83-5.58 27.44-15.2a286.44 286.44 0 0 0 39.06-144.8c0-159.06-128.94-288-288-288zm-192 352a32 32 0 1 1 32-32 32 32 0 0 1 -32 32zm48-160a32 32 0 1 1 32-32 32 32 0 0 1 -32 32zm203.54 183a63 63 0 0 1 -4.42 9h-110.24a63.36 63.36 0 0 1 22.12-86.83 62.44 62.44 0 0 1 9-4.42v-196.75a24 24 0 0 1 48 0v196.75a63.36 63.36 0 0 1 35.54 82.25zm52.46-215a32 32 0 1 1 32 32 32 32 0 0 1 -32-32zm80 192a32 32 0 1 1 32-32 32 32 0 0 1 -32 32z" opacity=".4"/><path d="m343.12 416h-110.24a63.36 63.36 0 0 1 22.12-86.83 62.44 62.44 0 0 1 9-4.42v-196.75a24 24 0 0 1 48 0v196.75a63.35 63.35 0 0 1 31.12 91.25z"/></svg>