<svg viewBox="0 0 576 512"><path d="m288 32c-159.06 0-288 128.94-288 288a286.5 286.5 0 0 0 39.06 144.8c5.61 9.62 16.3 15.2 27.44 15.2h443c11.14 0 21.83-5.58 27.44-15.2a286.5 286.5 0 0 0 39.06-144.8c0-159.06-128.94-288-288-288zm55.12 384h-110.24a65.78 65.78 0 0 1 -6.9-18l-133.93-22.33a24 24 0 0 1 7.9-47.34l133.68 22.28a63.77 63.77 0 0 1 109.49 65.39z" opacity=".4"/><path d="m343.12 416h-110.24a65.78 65.78 0 0 1 -6.9-18l-133.93-22.33a24 24 0 0 1 7.9-47.34l133.68 22.28a63.77 63.77 0 0 1 109.49 65.39z"/></svg>