<svg viewBox="0 0 576 512"><path d="m288 32c-159.06 0-288 128.94-288 288a286.5 286.5 0 0 0 39.06 144.8c5.61 9.62 16.3 15.2 27.44 15.2h443c11.14 0 21.83-5.58 27.44-15.2a286.5 286.5 0 0 0 39.06-144.8c0-159.06-128.94-288-288-288zm196 343.67-134 22.33a66 66 0 0 1 -6.9 18h-110.22a63.33 63.33 0 0 1 -8.88-32 63.85 63.85 0 0 1 118.37-33.39l133.68-22.28a24 24 0 0 1 7.9 47.34z" opacity=".4"/><path d="m484 375.67-134 22.33a66 66 0 0 1 -6.9 18h-110.22a63.33 63.33 0 0 1 -8.88-32 63.85 63.85 0 0 1 118.37-33.39l133.68-22.28a24 24 0 0 1 7.9 47.34z"/></svg>