<svg viewBox="0 0 576 512"><path d="m288 32c-159.06 0-288 128.94-288 288a286.5 286.5 0 0 0 39.06 144.8c5.61 9.62 16.3 15.2 27.44 15.2h443c11.14 0 21.83-5.58 27.44-15.2a286.5 286.5 0 0 0 39.06-144.8c0-159.06-128.94-288-288-288zm102.77 119.59-61.33 184a62.8 62.8 0 0 1 13.68 80.41h-110.24a63.34 63.34 0 0 1 51-95.59l61.34-184a24 24 0 0 1 45.53 15.19z" opacity=".4"/><path d="m283.9 320.41 61.34-184a24 24 0 0 1 45.53 15.19l-61.33 184a62.8 62.8 0 0 1 13.68 80.4h-110.24a63.34 63.34 0 0 1 51-95.59z"/></svg>