<svg viewBox="0 0 576 512"><path d="m288 32c-159.06 0-288 128.94-288 288a286.5 286.5 0 0 0 39.06 144.8c5.61 9.62 16.3 15.2 27.44 15.2h443c11.14 0 21.83-5.58 27.44-15.2a286.5 286.5 0 0 0 39.06-144.8c0-159.06-128.94-288-288-288zm0 64a32 32 0 1 1 -32 32 32 32 0 0 1 32-32zm-144 64a32 32 0 1 1 -32 32 32 32 0 0 1 32-32zm199.12 256h-110.24a65.78 65.78 0 0 1 -6.9-18l-133.93-22.33a24 24 0 0 1 7.9-47.34l133.68 22.28a63.77 63.77 0 0 1 109.49 65.39zm56.88-224a32 32 0 1 1 32 32 32 32 0 0 1 -32-32zm80 192a32 32 0 1 1 32-32 32 32 0 0 1 -32 32z" opacity=".4"/><path d="m72.33 348.05a24 24 0 0 1 27.67-19.72l133.68 22.28a63.77 63.77 0 0 1 109.44 65.39h-110.24a65.78 65.78 0 0 1 -6.9-18l-133.93-22.33a24 24 0 0 1 -19.72-27.62z"/></svg>