<svg viewBox="0 0 576 512"><path d="m288 32c-159.06 0-288 128.94-288 288a286.5 286.5 0 0 0 39.06 144.8c5.61 9.62 16.3 15.2 27.44 15.2h443c11.14 0 21.83-5.58 27.44-15.2a286.5 286.5 0 0 0 39.06-144.8c0-159.06-128.94-288-288-288zm55.12 384h-110.24a62.26 62.26 0 0 1 .47-64.86l-108.55-144.73a24 24 0 0 1 38.41-28.81l108.56 144.74a63.5 63.5 0 0 1 71.35 93.66z" opacity=".4"/><path d="m343.12 416h-110.24a62.26 62.26 0 0 1 .47-64.86l-108.55-144.73a24 24 0 0 1 38.41-28.81l108.56 144.74a63.5 63.5 0 0 1 71.35 93.66z"/></svg>