<svg viewBox="0 0 576 512"><path d="m288 32c-159.06 0-288 128.94-288 288a286.5 286.5 0 0 0 39.06 144.8c5.61 9.62 16.3 15.2 27.44 15.2h443c11.14 0 21.83-5.58 27.44-15.2a286.5 286.5 0 0 0 39.06-144.8c0-159.06-128.94-288-288-288zm0 64c14.71 0 26.58 10.13 30.32 23.65-1.11 2.26-2.64 4.23-3.45 6.67l-9.22 27.68c-5.13 3.49-11 6-17.64 6a32 32 0 0 1 0-64zm-192 288a32 32 0 1 1 32-32 32 32 0 0 1 -32 32zm48-160a32 32 0 1 1 32-32 32 32 0 0 1 -32 32zm246.77-72.41-61.33 184a62.8 62.8 0 0 1 13.68 80.41h-110.24a63.34 63.34 0 0 1 51-95.59l61.34-184a24 24 0 0 1 45.53 15.19zm14.66 57.2 15.57-46.55a31.54 31.54 0 0 1 11-2.24 32 32 0 0 1 0 64c-11.38 0-20.89-6.27-26.57-15.21zm74.57 175.21a32 32 0 1 1 32-32 32 32 0 0 1 -32 32z" opacity=".4"/><path d="m283.9 320.41 61.34-184a24 24 0 0 1 45.53 15.19l-61.33 184a62.8 62.8 0 0 1 13.68 80.4h-110.24a63.34 63.34 0 0 1 51-95.59z"/></svg>