<svg viewBox="0 0 512 512"><path d="m256 192c-130.18 0-237.86 107.4-255.68 247.08-2.75 21.58 12.68 40.92 32.24 40.92h446.88c19.56 0 35-19.34 32.24-40.92-17.82-139.68-125.5-247.08-255.68-247.08zm-144 224a16 16 0 1 1 16-16 16 16 0 0 1 -16 16zm64-64a16 16 0 1 1 16-16 16 16 0 0 1 -16 16z" opacity=".4"/><path d="m112 384a16 16 0 1 0 16 16 16 16 0 0 0 -16-16zm64-64a16 16 0 1 0 16 16 16 16 0 0 0 -16-16zm332.91-95.71c-7.15-19.06-24.76-29.36-40.31-38.46-9.49-5.54-19.32-11.29-23.71-17.53-4.74-6.69-7.33-18.51-9.83-30-3.95-18.08-8.44-38.58-23.64-50.64-15.69-12.45-36-11-54-9.81-10.79.76-22 1.5-29.18-1.1-6.93-2.51-15.12-10.14-23-17.51-29.05-27.07-50.66-44.51-98.38-.05-7.92 7.37-16.11 15-23 17.51-7.22 2.6-18.39 1.86-29.18 1.1-18-1.24-38.32-2.64-54 9.81-15.2 12.06-19.68 32.56-23.68 50.64-2.5 11.46-5.09 23.28-9.83 30-4.39 6.24-14.22 12-23.71 17.53-15.46 9.1-33.12 19.39-40.27 38.46-6.81 18.08-1 37.7 4.16 55a.21.21 0 0 0 0 .24 129.48 129.48 0 0 1 4.53 28.14c52.12-89.11 143.03-147.62 244.12-147.62s192 58.52 244.14 147.64a127.84 127.84 0 0 1 4.53-28.09.79.79 0 0 1 .08-.26c5.14-17.29 11-36.94 4.16-55z"/></svg>