<svg viewBox="0 0 640 512"><path d="m224 253.44v-205.44a16 16 0 0 1 16-16h32a16 16 0 0 1 16 16v184.73zm-64 20.71v-226.15a16 16 0 0 0 -16-16h-32a16 16 0 0 0 -16 16v246.86zm256-82.85v-143.3a16 16 0 0 0 -16-16h-32a16 16 0 0 0 -16 16v164zm128-41.42v-101.88a16 16 0 0 0 -16-16h-32a16 16 0 0 0 -16 16v122.59zm-320 170.82v143.3a16 16 0 0 0 16 16h32a16 16 0 0 0 16-16v-164zm256-82.85v226.15a16 16 0 0 0 16 16h32a16 16 0 0 0 16-16v-246.86zm-384 124.27v101.88a16 16 0 0 0 16 16h32a16 16 0 0 0 16-16v-122.59zm256-82.85v184.73a16 16 0 0 0 16 16h32a16 16 0 0 0 16-16v-205.44z" opacity=".4"/><path d="m639.21 169.49a16 16 0 0 1 -10.27 20.16l-598.1 193.56a16 16 0 0 1 -20.16-10.27l-9.89-30.43a16 16 0 0 1 10.27-20.16l598.1-193.56a16 16 0 0 1 20.16 10.27z"/></svg>