<svg viewBox="0 0 448 512"><path d="m32.14 448c2.29-15.62 2.46-47.76.53-64h319.33c16 0 32 12.8 32 32s-12.8 32-32 32z" opacity=".4"/><path d="m224 87.38-16.78 28.06h33.58zm-59.11 52.06h-34.89l17.47 29.17zm153.11 0h-34.9l17.48 29.19zm-188 105.12h34.9l-17.48-29.19zm222-244.56h-320a32 32 0 0 0 -32 32v328a24 24 0 0 0 24 24h328c16 0 32 12.8 32 32s-12.8 32-32 32h-328a24 24 0 0 0 -24 24v16a24 24 0 0 0 24 24h328a96 96 0 0 0 96-96v-320a96 96 0 0 0 -96-96zm-9.41 258.43a20.12 20.12 0 0 1 -17.5 10.15h-56.3l-27.59 46.12a20 20 0 0 1 -17.2 9.82 19.66 19.66 0 0 1 -17-9.68l-27.7-46.28h-56.39a20 20 0 0 1 -17.14-30.29l27.66-46.27-27.79-46.43a19.6 19.6 0 0 1 -.23-20 20.12 20.12 0 0 1 17.5-10.15h56.3l27.59-46.12a20 20 0 0 1 17.25-9.82 19.67 19.67 0 0 1 17 9.68l27.7 46.28h56.36a20 20 0 0 1 17.14 30.29l-27.68 46.27 27.79 46.43a19.59 19.59 0 0 1 .23 20zm-118.54 38.2 16.78-28.07h-33.58zm59.09-52.07h34.91l-17.47-29.17zm-28-105.14h-62.3l-31.43 52.58 31.47 52.56h62.3l31.41-52.56z"/></svg>