<svg viewBox="0 0 512 512"><path d="m488.12 352h-464.18a23.94 23.94 0 0 0 -23.94 23.88v80.12a23.94 23.94 0 0 0 23.88 24h464.18a23.94 23.94 0 0 0 23.94-23.88v-80.12a23.94 23.94 0 0 0 -23.88-24zm-24.12 80h-416v-32h416zm24.12-240h-464.18a23.94 23.94 0 0 0 -23.94 23.88v80.12a23.94 23.94 0 0 0 23.88 24h464.18a23.94 23.94 0 0 0 23.94-23.88v-80.12a23.94 23.94 0 0 0 -23.88-24zm-24.12 80h-416v-32h416zm24.12-240h-464.18a23.94 23.94 0 0 0 -23.94 23.88v80.12a23.94 23.94 0 0 0 23.88 24h464.18a23.94 23.94 0 0 0 23.94-23.88v-80.12a23.94 23.94 0 0 0 -23.88-24zm-24.12 80h-416v-32h416z" opacity=".4"/><path d="m48 80v32h304v-32zm112 160h-112v32h112zm-112 192h240v-32h-240z"/></svg>