<svg viewBox="0 0 512 512"><path d="m352 64a32 32 0 0 0 -32-32h-128a32 32 0 0 0 -32 32v32h192zm-256 304h-32a32 32 0 0 0 -32 32v48a32 32 0 0 0 32 32h32a32 32 0 0 0 32-32v-48a32 32 0 0 0 -32-32zm352 0h-32a32 32 0 0 0 -32 32v48a32 32 0 0 0 32 32h32a32 32 0 0 0 32-32v-48a32 32 0 0 0 -32-32zm-69.94-195.14c-2-7.38-9.38-12.86-14.85-12.86h-214.4c-5.47 0-12.83 5.48-15.06 13.64l-17.2 66.36h278.9z" opacity=".4"/><path d="m462 241.55-22-84.75c-9.6-35.2-41.6-60.8-76.8-60.8h-214.4c-35.2 0-67.2 25.6-76.8 60.8l-22 84.75a64 64 0 0 0 -50 62.45v48a64 64 0 0 0 64 64h384a64 64 0 0 0 64-64v-48a64 64 0 0 0 -50-62.45zm-328.25-67.91c2.25-8.16 9.59-13.64 15.06-13.64h214.4c5.47 0 12.83 5.48 14.85 12.86l17.39 67.14h-278.9zm-37.75 178.36a32 32 0 1 1 32-32 32 32 0 0 1 -32 32zm320 0a32 32 0 1 1 32-32 32 32 0 0 1 -32 32z"/></svg>