<svg viewBox="0 0 640 512"><path d="m112 96a48 48 0 0 0 -48 48v32a16 16 0 0 0 16 16h64a16 16 0 0 0 16-16v-32a48 48 0 0 0 -48-48zm136-32a56 56 0 0 0 -56 56v56a16 16 0 0 0 16 16h80a16 16 0 0 0 16-16v-56a56 56 0 0 0 -56-56zm144 0a56 56 0 0 0 -56 56v56a16 16 0 0 0 16 16h80a16 16 0 0 0 16-16v-56a56 56 0 0 0 -56-56zm136 32a48 48 0 0 0 -48 48v32a16 16 0 0 0 16 16h64a16 16 0 0 0 16-16v-32a48 48 0 0 0 -48-48zm-384 256h-64a16 16 0 0 0 -16 16v32a48 48 0 0 0 96 0v-32a16 16 0 0 0 -16-16zm144 0h-80a16 16 0 0 0 -16 16v24a56 56 0 0 0 112 0v-24a16 16 0 0 0 -16-16zm144 0h-80a16 16 0 0 0 -16 16v24a56 56 0 0 0 112 0v-24a16 16 0 0 0 -16-16zm128 0h-64a16 16 0 0 0 -16 16v32a48 48 0 0 0 96 0v-32a16 16 0 0 0 -16-16z" opacity=".4"/><path d="m576 320h-512a64 64 0 0 0 -64 64v32a96 96 0 0 0 96 96h448a96 96 0 0 0 96-96v-32a64 64 0 0 0 -64-64zm-416 80a48 48 0 0 1 -96 0v-32a16 16 0 0 1 16-16h64a16 16 0 0 1 16 16zm144-8a56 56 0 0 1 -112 0v-24a16 16 0 0 1 16-16h80a16 16 0 0 1 16 16zm144 0a56 56 0 0 1 -112 0v-24a16 16 0 0 1 16-16h80a16 16 0 0 1 16 16zm128 8a48 48 0 0 1 -96 0v-32a16 16 0 0 1 16-16h64a16 16 0 0 1 16 16zm-32-400h-448a96 96 0 0 0 -96 96v64a64 64 0 0 0 64 64h512a64 64 0 0 0 64-64v-64a96 96 0 0 0 -96-96zm-384 176a16 16 0 0 1 -16 16h-64a16 16 0 0 1 -16-16v-32a48 48 0 0 1 96 0zm144 0a16 16 0 0 1 -16 16h-80a16 16 0 0 1 -16-16v-56a56 56 0 0 1 112 0zm144 0a16 16 0 0 1 -16 16h-80a16 16 0 0 1 -16-16v-56a56 56 0 0 1 112 0zm128 0a16 16 0 0 1 -16 16h-64a16 16 0 0 1 -16-16v-32a48 48 0 0 1 96 0z"/></svg>