<svg viewBox="0 0 640 512"><path d="m263.3594 347.79914-127.0586 43.64249c-8.7539 3.00781-18.05078-.69335-21.26953-8.46678l-8.74219-21.10738-64.10937 26.55464a15.99837 15.99837 0 0 1 -20.90234-8.66011l-20.0586-48.42182a16.00653 16.00653 0 0 1 8.66406-20.90425l64.10157-26.55464-8.74219-21.10929c-3.21875-7.77342.73828-16.96481 9.05469-21.02925l306.125-149.60915 78.125 188.62074-66.60157 22.87691a71.98089 71.98089 0 0 0 -143.96093.36914 71.08619 71.08619 0 0 0 15.375 43.79875z" opacity=".4"/><path d="m638.77737 216.83064-85.71485-206.94883a15.99836 15.99836 0 0 0 -20.90234-8.66014l-117.31641 48.59756a15.99639 15.99639 0 0 0 -8.65625 20.90426l85.71094 206.94883a16.00274 16.00274 0 0 0 20.90625 8.66014l117.3125-48.59757a15.99819 15.99819 0 0 0 8.66016-20.90425zm-262.64454 131.67748a71.27481 71.27481 0 0 0 15.85157-44.50773 72 72 0 0 0 -144 0 71.27859 71.27859 0 0 0 15.87109 44.53507l-47.46484 142.404a16.00061 16.00061 0 0 0 15.17968 21.06054h16.85938a16.00416 16.00416 0 0 0 15.17969-10.94139l42.16406-126.49585a71.05048 71.05048 0 0 0 28.44922-.002l42.168 126.4978a16.00046 16.00046 0 0 0 15.17965 10.94144h16.85938a16.00062 16.00062 0 0 0 15.17969-21.06051zm-56.14843-20.50777a24 24 0 1 1 24-24 24.03627 24.03627 0 0 1 -24 24z"/></svg>