<svg viewBox="0 0 512 512"><path d="m256 278.5v-166.5a112 112 0 0 0 -224 0v166.5c-19.7 24.69-32 55.5-32 89.5a144 144 0 0 0 288 0c0-34-12.3-64.91-32-89.5zm-112 169.5a79.87 79.87 0 0 1 -48-143.81v-192.19a48 48 0 0 1 96 0v192.19a79.87 79.87 0 0 1 -48 143.81z" opacity=".4"/><path d="m160 322.91v-210.91a16 16 0 0 0 -32 0v210.91a48 48 0 1 0 32 0zm347.3-190.22-80-96a16 16 0 0 0 -22.63 0l-80 96c-10.01 10.06-2.89 27.31 11.33 27.31h48v304a16 16 0 0 0 16 16h32a16 16 0 0 0 16-16v-304h48c14.19 0 21.36-17.25 11.3-27.31z"/></svg>