<svg viewBox="0 0 512 512"><path d="m256 278.5v-166.5a112 112 0 0 0 -224 0v166.5c-19.7 24.69-32 55.5-32 89.5a144 144 0 0 0 288 0c0-34-12.3-64.91-32-89.5zm-112 169.5a79.87 79.87 0 0 1 -48-143.81v-192.19a48 48 0 0 1 96 0v192.19a79.87 79.87 0 0 1 -48 143.81z" opacity=".4"/><path d="m160 322.91v-18.91a16 16 0 0 0 -32 0v18.91a48 48 0 1 0 32 0zm336 29.09h-48v-304a16 16 0 0 0 -16-16h-32a16 16 0 0 0 -16 16v304h-48c-14.2 0-21.39 17.25-11.31 27.31l80 96a16 16 0 0 0 22.62 0l80-96c10.03-10.06 2.91-27.31-11.31-27.31z"/></svg>