<svg viewBox="0 0 496 512"><path d="m267 77.5c-.59-19.26 3-63.59 52.93-58.89a247.88 247.88 0 0 0 -71.93-10.61c-3.61 0-7.19.09-10.76.25-12.69 18.67-19.14 43.07-18.24 70.85 2.2 71.2-69 149.7-147.9 147.8-27.88-1.19-52.18 5.45-70.85 18.24-.15 3.6-.25 7.22-.25 10.86a248.12 248.12 0 0 0 10.72 72.31c-5.02-50.31 39.5-53.8 58.88-53.31 47.4 1.8 101.6-21.5 138.7-58.8 37.1-37.1 60.2-91.6 58.7-138.7zm218.26 106.13c5 50.23-39.65 53.67-58.86 53.27-46.8-1.9-101.5 21.6-138.7 58.8s-60.2 91.6-58.7 138.7c.59 19.39-3.13 63.72-53.34 58.87a248 248 0 0 0 72.34 10.73c3.57 0 7.12-.09 10.66-.24 12.79-18.67 19.24-43.08 18.34-70.86-2.4-77.5 76.4-150.5 147.9-147.9 27.83.9 52.27-5.57 70.86-18.31.15-3.54.24-7.11.24-10.69a247.87 247.87 0 0 0 -10.74-72.37z" opacity=".4"/><path d="m424.9 285c-71.5-2.6-150.3 70.4-147.9 147.9.9 27.9-5.6 52.4-18.5 71.1 121-5.1 231.6-100.1 237.4-237.4-18.6 12.8-43.1 19.3-71 18.4zm-353.8-58.1c78.9 1.9 150.1-76.6 147.9-147.8-.9-27.9 5.6-52.4 18.4-71.1-123.6 5.2-231.6 102.6-237.4 237.3 18.7-12.9 43.1-19.6 71.1-18.4zm216.6 68.8c37.2-37.2 91.9-60.7 138.7-58.8 19.4.4 64.8-3.1 58.7-54.8a248.21 248.21 0 0 0 -163.3-163.3c-51.7-6-55.4 39.2-54.8 58.7 1.5 47.1-21.6 101.6-58.7 138.7-37.1 37.3-91.3 60.6-138.7 58.8-19.6-.5-64.9 3.1-58.7 55a247.64 247.64 0 0 0 163.1 163.1c51.8 6 55.6-39.1 55-58.7-1.5-47.1 21.6-101.6 58.7-138.7z"/></svg>