<svg viewBox="0 0 576 512"><path d="m320 48v96a16 16 0 0 1 -16 16h-32a16 16 0 0 1 -16-16v-32h-56v304h40a16 16 0 0 1 16 16v32a16 16 0 0 1 -16 16h-160a16 16 0 0 1 -16-16v-32a16 16 0 0 1 16-16h40v-304h-56v32a16 16 0 0 1 -16 16h-32a16 16 0 0 1 -16-16v-96a16 16 0 0 1 16-16h288a16 16 0 0 1 16 16z" opacity=".4"/><path d="m571.31 395.31-80 80a16 16 0 0 1 -22.62 0l-80-80c-10-10-3-27.31 11.31-27.31h48v-224h-48c-15.64 0-20.64-18-11.31-27.31l80-80a16 16 0 0 1 22.62 0l80 80c10 10 3 27.31-11.31 27.31h-48v224h48c15.64 0 20.64 18 11.31 27.31z"/></svg>