<svg viewBox="0 0 640 512"><path d="m320 240v64a16 16 0 0 1 -16 16h-32a16 16 0 0 1 -16-16v-16h-56v128h24a16 16 0 0 1 16 16v32a16 16 0 0 1 -16 16h-128a16 16 0 0 1 -16-16v-32a16 16 0 0 1 16-16h24v-128h-56v16a16 16 0 0 1 -16 16h-32a16 16 0 0 1 -16-16v-64a16 16 0 0 1 16-16h288a16 16 0 0 1 16 16z" opacity=".4"/><path d="m640 48v96a16 16 0 0 1 -16 16h-32a16 16 0 0 1 -16-16v-32h-88v304h40a16 16 0 0 1 16 16v32a16 16 0 0 1 -16 16h-160a16 16 0 0 1 -16-16v-32a16 16 0 0 1 16-16h40v-304h-88v32a16 16 0 0 1 -16 16h-32a16 16 0 0 1 -16-16v-96a16 16 0 0 1 16-16h352a16 16 0 0 1 16 16z"/></svg>