<svg viewBox="0 0 448 512"><path d="m448 48v80a16 16 0 0 1 -16 16h-32a16 16 0 0 1 -16-16v-16h-120v112h24a16 16 0 0 1 16 16v32a16 16 0 0 1 -16 16h-128a16 16 0 0 1 -16-16v-32a16 16 0 0 1 16-16h24v-112h-120v16a16 16 0 0 1 -16 16h-32a16 16 0 0 1 -16-16v-80a16 16 0 0 1 16-16h416a16 16 0 0 1 16 16z" opacity=".4"/><path d="m443.31 372.69a16 16 0 0 1 0 22.62l-80 80c-10 10-27.31 3-27.31-11.31v-48h-224v48c0 15.64-18 20.64-27.31 11.31l-80-80a16 16 0 0 1 0-22.62l80-80c10-10 27.31-3 27.31 11.31v48h224v-48c0-15.64 18-20.64 27.31-11.31z"/></svg>