<svg viewBox="0 0 512 512"><path d="m488 352h-282.67a24 24 0 0 0 -24 24v80a24 24 0 0 0 24 24h282.67a24 24 0 0 0 24-24v-80a24 24 0 0 0 -24-24zm0-320h-282.67a24 24 0 0 0 -24 24v80a24 24 0 0 0 24 24h282.67a24 24 0 0 0 24-24v-80a24 24 0 0 0 -24-24zm0 160h-282.67a24 24 0 0 0 -24 24v80a24 24 0 0 0 24 24h282.67a24 24 0 0 0 24-24v-80a24 24 0 0 0 -24-24z" opacity=".4"/><path d="m125.33 192h-101.33a24 24 0 0 0 -24 24v80a24 24 0 0 0 24 24h101.33a24 24 0 0 0 24-24v-80a24 24 0 0 0 -24-24zm0-160h-101.33a24 24 0 0 0 -24 24v80a24 24 0 0 0 24 24h101.33a24 24 0 0 0 24-24v-80a24 24 0 0 0 -24-24zm0 320h-101.33a24 24 0 0 0 -24 24v80a24 24 0 0 0 24 24h101.33a24 24 0 0 0 24-24v-80a24 24 0 0 0 -24-24z"/></svg>