<svg viewBox="0 0 512 512"><path d="m306.67 352h-101.34a24 24 0 0 0 -24 24v80a24 24 0 0 0 24 24h101.34a24 24 0 0 0 24-24v-80a24 24 0 0 0 -24-24zm181.33-160h-101.33a24 24 0 0 0 -24 24v80a24 24 0 0 0 24 24h101.33a24 24 0 0 0 24-24v-80a24 24 0 0 0 -24-24zm-181.33-160h-101.34a24 24 0 0 0 -24 24v80a24 24 0 0 0 24 24h101.34a24 24 0 0 0 24-24v-80a24 24 0 0 0 -24-24zm-181.34 160h-101.33a24 24 0 0 0 -24 24v80a24 24 0 0 0 24 24h101.33a24 24 0 0 0 24-24v-80a24 24 0 0 0 -24-24z" opacity=".4"/><path d="m488 352h-101.33a24 24 0 0 0 -24 24v80a24 24 0 0 0 24 24h101.33a24 24 0 0 0 24-24v-80a24 24 0 0 0 -24-24zm-181.33-160h-101.34a24 24 0 0 0 -24 24v80a24 24 0 0 0 24 24h101.34a24 24 0 0 0 24-24v-80a24 24 0 0 0 -24-24zm181.33-160h-101.33a24 24 0 0 0 -24 24v80a24 24 0 0 0 24 24h101.33a24 24 0 0 0 24-24v-80a24 24 0 0 0 -24-24zm-362.67 0h-101.33a24 24 0 0 0 -24 24v80a24 24 0 0 0 24 24h101.33a24 24 0 0 0 24-24v-80a24 24 0 0 0 -24-24zm0 320h-101.33a24 24 0 0 0 -24 24v80a24 24 0 0 0 24 24h101.33a24 24 0 0 0 24-24v-80a24 24 0 0 0 -24-24z"/></svg>