<svg viewBox="0 0 512 512"><path d="m484.05 162.6-254.2 253.3h-99.85l-89 89a24 24 0 0 1 -33.95-33.9l89-89v-100.9l45.34-45.64 50.06 50.14a8 8 0 0 0 11.3 0l11.3-11.3a8 8 0 0 0 0-11.3l-50.13-50.21 45.13-45.42 50.3 50.23a8 8 0 0 0 11.3 0l11.35-11.3a8 8 0 0 0 0-11.3l-50.3-50.37 45.1-45.4 50.4 50.47a8 8 0 0 0 11.3 0l11.3-11.3a8 8 0 0 0 0-11.3l-50.5-50.51 45.7-46c36.4-36.5 94.4-40.9 131.9-10.2 49.35 40.71 42.1 107.31 7.15 142.21z" opacity=".4"/><path d="m214.05 263a8 8 0 0 1 0 11.3l-11.3 11.3a8 8 0 0 1 -11.3 0l-50.06-50.14 22.53-22.67zm62.7-163.77 50.4 50.47a8 8 0 0 0 11.3 0l11.3-11.3a8 8 0 0 0 0-11.3l-50.5-50.51zm-6.1 118.37 11.35-11.3a8 8 0 0 0 0-11.3l-50.3-50.37-22.6 22.74 50.3 50.23a8 8 0 0 0 11.25 0z"/></svg>