<svg viewBox="0 0 384 512"><path d="m288 256a229.75 229.75 0 0 1 -4.92 48h-182.16a236.61 236.61 0 0 1 0-96h182.16a229.75 229.75 0 0 1 4.92 48z" opacity=".4"/><path d="m192 104c27.82 0 48.24 18.83 60.46 34.62 10.67 13.78 19.18 30.4 25.3 49.4a221.26 221.26 0 0 1 10.24 67.98 221.26 221.26 0 0 1 -10.24 68c-6.12 19-14.63 35.62-25.3 49.4-12.22 15.77-32.64 34.6-60.46 34.6s-48.24-18.83-60.46-34.62c-10.67-13.78-19.18-30.4-25.3-49.4a221.26 221.26 0 0 1 -10.24-67.98 221.26 221.26 0 0 1 10.24-68c6.12-19 14.63-35.62 25.3-49.4 12.22-15.77 32.64-34.6 60.46-34.6m0-96c-107.66 0-192 108.94-192 248s84.34 248 192 248 192-108.94 192-248-84.34-248-192-248z"/></svg>