<svg viewBox="0 0 512 512"><path d="m512 277.9c-.16 30.35-26.16 58.1-59.55 58.1h-101.73c7.28 28.34 33.28 52.13 33.28 94.55 0 73.45-48 81.45-72 81.45-20.18 0-29.48-39.29-33.93-57.79-5.21-21.67-10.59-44.07-25.39-58.91-32.47-32.52-49.51-74-89.12-113.11a12 12 0 0 1 -3.56-8.52v-213.77a12 12 0 0 1 11.78-12c15.83-.29 36.7-9.08 52.66-16.17 31.75-14.13 71.27-31.73 119.56-31.73h2.85c42.78 0 93.36.41 113.77 29.74 8.39 12.05 10.45 27 6.15 44.63 16.31 17 25.06 48.86 16.38 74.76 17.55 23.43 19.15 56.13 9.31 79.46l.11.12c11.88 11.94 19.51 31.29 19.43 49.19z" opacity=".4"/><path d="m104 32h-80a24 24 0 0 0 -24 24v240a24 24 0 0 0 24 24h80a24 24 0 0 0 24-24v-240a24 24 0 0 0 -24-24zm-40 248a24 24 0 1 1 24-24 24 24 0 0 1 -24 24z"/></svg>