<svg viewBox="0 0 512 512"><path d="m350 310.5-98 194a15 15 0 0 1 -27.6-11l31.6-141.5h-81a15 15 0 0 1 -14.9-17l16-130a15.08 15.08 0 0 1 14.9-13h82a15 15 0 0 1 14.5 18.9l-22.58 77.1h72.08a15 15 0 0 1 13 22.5z" opacity=".4"/><path d="m512 224a96 96 0 0 1 -96 96h-30a46.78 46.78 0 0 0 -45-60h-30.5l10.9-40.9a47 47 0 0 0 -45.4-59.1h-85a47.1 47.1 0 0 0 -46.6 40.8l-15.9 119.2h-32.5a96 96 0 0 1 -96-96c0-42.5 27.8-78.2 66.1-90.8a113.72 113.72 0 0 1 -2.1-21.2 111.94 111.94 0 0 1 112-112c43.3 0 80.4 24.8 99 60.8 14.7-17.5 36.4-28.8 61-28.8a80 80 0 0 1 80 80 78.09 78.09 0 0 1 -1.6 16.2c.5 0 1-.2 1.6-.2a96 96 0 0 1 96 96z"/></svg>