<svg viewBox="0 0 576 512"><path d="m567.94 223.8c-70.4 13.3-135-40.3-135-110.8a112.62 112.62 0 0 1 57.5-98.1 6.74 6.74 0 0 0 -2.1-12.5 146.75 146.75 0 0 0 -26.5-2.4c-77.91 0-141.11 61.2-144.41 137.9a111.46 111.46 0 0 1 58.9 61.7 111.82 111.82 0 0 1 70.21 86.8c5.1.5 10 1.5 15.2 1.5a145 145 0 0 0 112.6-53.3c4.2-4.8-.2-12-6.4-10.8zm-291.94 112.2h-57.68l17.3-64.9a12 12 0 0 0 -11.62-15.1h-68a12.06 12.06 0 0 0 -11.9 10.4l-16 120a12 12 0 0 0 11.9 13.6h59.3l-23 97.2a12 12 0 0 0 22.1 8.8l88-152a12 12 0 0 0 -10.4-18z" opacity=".4"/><path d="m350.58 225.5a79.91 79.91 0 0 1 -14.58 158.5h-30l8.11-14a44 44 0 0 0 -38.11-66h-16l6.6-24.7a44 44 0 0 0 -42.55-55.3h-68.05a44.26 44.26 0 0 0 -43.71 38.2l-16 120a10.82 10.82 0 0 1 0 1.8h-16.29a80 80 0 0 1 -15.8-158.4c0-.5-.2-1.1-.2-1.6a95.85 95.85 0 0 1 173.74-56 79 79 0 0 1 34.31-8 80 80 0 0 1 78.51 65.5z"/></svg>