<svg viewBox="0 0 576 512"><path d="m576 208v-96a48 48 0 0 0 -48-48h-480a48 48 0 0 0 -48 48v96a48 48 0 0 1 0 96v96a48 48 0 0 0 48 48h480a48 48 0 0 0 48-48v-96a48 48 0 0 1 0-96zm-176 192a16 16 0 1 1 16-16 16 16 0 0 1 -16 16zm0-64a16 16 0 1 1 16-16 16 16 0 0 1 -16 16zm0-64a16 16 0 1 1 16-16 16 16 0 0 1 -16 16zm0-64a16 16 0 1 1 16-16 16 16 0 0 1 -16 16zm0-64a16 16 0 1 1 16-16 16 16 0 0 1 -16 16z" opacity=".4"/><path d="m400 304a16 16 0 1 0 16 16 16 16 0 0 0 -16-16zm0 64a16 16 0 1 0 16 16 16 16 0 0 0 -16-16zm0-224a16 16 0 1 0 -16-16 16 16 0 0 0 16 16zm0 96a16 16 0 1 0 16 16 16 16 0 0 0 -16-16zm0-64a16 16 0 1 0 16 16 16 16 0 0 0 -16-16z"/></svg>