<svg viewBox="0 0 576 512"><path d="m553.49 231.8-112-192a48.14 48.14 0 0 0 -41.49-23.8h-224a48.07 48.07 0 0 0 -41.49 23.8l-112 192a48.09 48.09 0 0 0 0 48.4l112 192a48.07 48.07 0 0 0 41.49 23.8h224a48.13 48.13 0 0 0 41.5-23.8l112-192a48.14 48.14 0 0 0 0-48.4zm-143.89 89.2a12 12 0 0 1 0 17l-39.38 39.8a12 12 0 0 1 -17 0l-65.1-65.1-65.12 65.1a12 12 0 0 1 -17 0l-39.6-39.6a12 12 0 0 1 0-17l65.09-65.1-65.05-65.1a12 12 0 0 1 0-17l39.5-39.7a12 12 0 0 1 17 0l65.06 65.1 65-65a12 12 0 0 1 17 0l39.69 39.5a12 12 0 0 1 0 17l-65.08 65.1z" opacity=".4"/><path d="m409.6 321a12 12 0 0 1 0 17l-39.38 39.8a12 12 0 0 1 -17 0l-65.1-65.1-65.12 65.1a12 12 0 0 1 -17 0l-39.6-39.6a12 12 0 0 1 0-17l65.09-65.1-65.05-65.1a12 12 0 0 1 0-17l39.5-39.7a12 12 0 0 1 17 0l65.06 65.1 65-65a12 12 0 0 1 17 0l39.69 39.5a12 12 0 0 1 0 17l-65.08 65.1z"/></svg>