<svg viewBox="0 0 512 512"><path d="m497.9 150.5-136.5-136.4a48 48 0 0 0 -33.9-14.1h-143.1a48 48 0 0 0 -33.9 14.1l-136.4 136.5a48 48 0 0 0 -14.1 33.9v143.1a48 48 0 0 0 14.1 33.9l136.5 136.4a48 48 0 0 0 33.9 14.1h143.1a48 48 0 0 0 33.9-14.1l136.4-136.5a48 48 0 0 0 14.1-33.9v-143.1a48 48 0 0 0 -14.1-33.9zm-120.3 170.5a12 12 0 0 1 0 17l-39.4 39.8a12 12 0 0 1 -17 0l-65.1-65.1-65.1 65.1a12 12 0 0 1 -17 0l-39.6-39.6a12 12 0 0 1 0-17l65.1-65.1-65.1-65.1a12 12 0 0 1 0-17l39.5-39.7a12 12 0 0 1 17 0l65.1 65.1 65-65a12 12 0 0 1 17 0l39.7 39.5a12 12 0 0 1 0 17l-65.1 65.1z" opacity=".4"/><path d="m134.4 191a12 12 0 0 1 0-17l39.5-39.7a12 12 0 0 1 17 0l65.1 65.1 65-65a12 12 0 0 1 17 0l39.7 39.5a12 12 0 0 1 0 17l-65.1 65.1 65 65a12 12 0 0 1 0 17l-39.4 39.8a12 12 0 0 1 -17 0l-65.1-65.1-65.1 65.1a12 12 0 0 1 -17 0l-39.6-39.6a12 12 0 0 1 0-17l65.1-65.1z"/></svg>