<svg viewBox="0 0 512 512"><path d="m256 8c-137 0-248 111-248 248s111 248 248 248 248-111 248-248-111-248-248-248zm121.6 313.1a12 12 0 0 1 0 17l-39.6 39.5a12 12 0 0 1 -17 0l-65-65.6-65.1 65.6a12 12 0 0 1 -17 0l-39.5-39.6a12 12 0 0 1 0-17l65.6-65-65.6-65.1a12 12 0 0 1 0-17l39.6-39.6a12 12 0 0 1 17 0l65 65.7 65.1-65.6a12 12 0 0 1 17 0l39.6 39.6a12 12 0 0 1 0 17l-65.7 65z" opacity=".4"/><path d="m377.6 321.1a12 12 0 0 1 0 17l-39.6 39.5a12 12 0 0 1 -17 0l-65-65.6-65.1 65.6a12 12 0 0 1 -17 0l-39.5-39.6a12 12 0 0 1 0-17l65.6-65-65.6-65.1a12 12 0 0 1 0-17l39.6-39.6a12 12 0 0 1 17 0l65 65.7 65.1-65.6a12 12 0 0 1 17 0l39.6 39.6a12 12 0 0 1 0 17l-65.7 65z"/></svg>