<svg viewBox="0 0 448 512"><path d="m400 32h-352a48 48 0 0 0 -48 48v352a48 48 0 0 0 48 48h352a48 48 0 0 0 48-48v-352a48 48 0 0 0 -48-48zm-54.4 289.1a12 12 0 0 1 0 17l-39.6 39.5a12 12 0 0 1 -17 0l-65-65.6-65.1 65.6a12 12 0 0 1 -17 0l-39.5-39.6a12 12 0 0 1 0-17l65.6-65-65.6-65.1a12 12 0 0 1 0-17l39.6-39.6a12 12 0 0 1 17 0l65 65.7 65.1-65.6a12 12 0 0 1 17 0l39.6 39.6a12 12 0 0 1 0 17l-65.7 65z" opacity=".4"/><path d="m102.4 190.9a12 12 0 0 1 0-17l39.6-39.6a12 12 0 0 1 17 0l65 65.7 65.1-65.6a12 12 0 0 1 17 0l39.6 39.6a12 12 0 0 1 0 17l-65.7 65 65.6 65.1a12 12 0 0 1 0 17l-39.6 39.5a12 12 0 0 1 -17 0l-65-65.6-65.1 65.6a12 12 0 0 1 -17 0l-39.5-39.6a12 12 0 0 1 0-17l65.6-65z"/></svg>