<svg viewBox="0 0 512 512"><path d="m256 64c-106 0-192 86-192 192s86 192 192 192 192-86 192-192-86-192-192-192zm0 48a143.36 143.36 0 0 1 64.08 15l-38.86 53.51a73.73 73.73 0 0 0 -50.44 0l-38.86-53.51a143.36 143.36 0 0 1 64.08-15zm-142.48 165a145.25 145.25 0 0 1 -1.52-21 143 143 0 0 1 41.13-100.75l38.75 53.34a79.28 79.28 0 0 0 -15.88 47.41c0 .25.07.48.07.72zm118.48 121a144.57 144.57 0 0 1 -103.68-75.29l62.68-20.35a79.77 79.77 0 0 0 41 29.57zm24-110a32 32 0 1 1 32-32 32 32 0 0 1 -32 32zm101.82 69.82a142.84 142.84 0 0 1 -77.82 40.18v-66.07a79.77 79.77 0 0 0 41-29.57l62.68 20.36a144.24 144.24 0 0 1 -25.86 35.1zm-21.89-101.09c0-.25.07-.48.07-.73a79.28 79.28 0 0 0 -15.88-47.41l38.75-53.34a143 143 0 0 1 41.13 100.75 146.93 146.93 0 0 1 -1.52 21.05z" opacity=".4"/><path d="m256 224a32 32 0 1 0 32 32 32 32 0 0 0 -32-32zm0-224c-141.38 0-256 114.62-256 256s114.62 256 256 256 256-114.62 256-256-114.62-256-256-256zm0 448c-105.87 0-192-86.13-192-192s86.13-192 192-192 192 86.13 192 192-86.13 192-192 192z"/></svg>