<svg viewBox="0 0 512 512"><path d="m512 284.08c0 76.81-32.54 146.14-80 195.92v16a16 16 0 0 1 -16 16h-32a16 16 0 0 1 -16-16v-16h-32v16a16 16 0 0 1 -16 16h-32a16 16 0 0 1 -16-16v-16h-32v16a16 16 0 0 1 -16 16h-32a16 16 0 0 1 -16-16v-16h-32v16a16 16 0 0 1 -16 16h-32a16 16 0 0 1 -16-16v-16c-47.46-49.78-80-119.11-80-195.92a286.45 286.45 0 0 1 37.5-142.53c16.17-28.29 26.5-60.93 26.5-95.46v-28.95c0-9.47 7.16-17.14 16-17.14h32a16 16 0 0 1 16 16v48c0 32-15.23 74.85-34.93 109.31a223.34 223.34 0 0 0 -29.07 110.77c0 41.12 12.75 82.49 35.8 118.12 5.72 8.84 16 13.79 26.48 13.79h259.44c10.53 0 20.76-4.94 26.48-13.79 23.05-35.63 35.8-77 35.8-118.12a223.37 223.37 0 0 0 -29.06-110.77c-19.71-34.46-34.94-77.31-34.94-109.31v-48a16 16 0 0 1 16-16h32c8.84 0 16 7.67 16 17.14v29c0 34.52 10.33 67.17 26.5 95.45a286.51 286.51 0 0 1 37.5 142.49z" opacity=".4"/><path d="m278.32 96h-44.64a16 16 0 0 0 -15.92 17.59l12.8 128a16 16 0 0 0 15.92 14.41h19a16 16 0 0 0 15.92-14.41l12.8-128a16 16 0 0 0 -15.88-17.59zm-22.32 192a32 32 0 1 0 32 32 32 32 0 0 0 -32-32z"/></svg>