<svg viewBox="0 0 512 512"><path d="m189.89 416a145.47 145.47 0 0 1 -61.57-61.28l62.68-20.36a79.77 79.77 0 0 0 41 29.57v52.07h48v-52.07a79.77 79.77 0 0 0 41-29.57l62.68 20.36a145.47 145.47 0 0 1 -61.57 61.28h77a191.26 191.26 0 0 0 48.89-128c0-106-86-192-192-192s-192 86-192 192a191.26 191.26 0 0 0 48.91 128zm66.11-96a32 32 0 1 1 32-32 32 32 0 0 1 -32 32zm102.87-132.75a143 143 0 0 1 41.13 100.75 146.93 146.93 0 0 1 -1.52 21.05l-62.55-20.32c0-.25.07-.48.07-.73a79.28 79.28 0 0 0 -15.88-47.41zm-102.87-43.25a143.36 143.36 0 0 1 64.08 15l-38.86 53.51a73.73 73.73 0 0 0 -50.44 0l-38.86-53.51a143.36 143.36 0 0 1 64.08-15zm-102.87 43.25 38.75 53.34a79.28 79.28 0 0 0 -15.88 47.41c0 .25.07.48.07.72l-62.55 20.28a145.25 145.25 0 0 1 -1.52-21 143 143 0 0 1 41.13-100.75z" opacity=".4"/><path d="m480 416h-2.61a253.53 253.53 0 0 0 34.61-128c0-141.38-114.62-256-256-256s-256 114.62-256 256a253.53 253.53 0 0 0 34.61 128h-2.61a32 32 0 0 0 0 64h448a32 32 0 0 0 0-64zm-81.3 0h-285.4a191 191 0 0 1 -49.3-128c0-105.87 86.13-192 192-192s192 86.13 192 192a191 191 0 0 1 -49.3 128zm-142.7-160a32 32 0 1 0 32 32 32 32 0 0 0 -32-32z"/></svg>