<svg viewBox="0 0 512 512"><path d="m256 128a128 128 0 1 0 128 128 128 128 0 0 0 -128-128zm-72 152a24 24 0 1 1 24-24 24 24 0 0 1 -24 24zm72 72a24 24 0 1 1 24-24 24 24 0 0 1 -24 24zm0-144a24 24 0 1 1 24-24 24 24 0 0 1 -24 24zm72 72a24 24 0 1 1 24-24 24 24 0 0 1 -24 24z" opacity=".4"/><path d="m480 192h-9.4a222.73 222.73 0 0 0 -17.53-42.56l6.58-6.58a32 32 0 0 0 0-45.25l-45.25-45.26a32 32 0 0 0 -45.25 0l-6.58 6.58a221.82 221.82 0 0 0 -42.57-17.53v-9.4a32 32 0 0 0 -32-32h-64a32 32 0 0 0 -32 32v9.4a222.73 222.73 0 0 0 -42.56 17.53l-6.58-6.58a32 32 0 0 0 -45.25 0l-45.26 45.26a32 32 0 0 0 0 45.25l6.58 6.58a222.64 222.64 0 0 0 -17.53 42.56h-9.4a32 32 0 0 0 -32 32v64a32 32 0 0 0 32 32h9.4a222.73 222.73 0 0 0 17.53 42.56l-6.58 6.58a32 32 0 0 0 0 45.25l45.25 45.27a32 32 0 0 0 45.25 0l6.58-6.58a221.82 221.82 0 0 0 42.57 17.53v9.39a32 32 0 0 0 32 32h64a32 32 0 0 0 32-32v-9.4a222.73 222.73 0 0 0 42.56-17.53l6.58 6.58a32 32 0 0 0 45.25 0l45.25-45.26a32 32 0 0 0 0-45.25l-6.58-6.58a221.82 221.82 0 0 0 17.54-42.56h9.4a32 32 0 0 0 32-32v-64a32 32 0 0 0 -32-32zm-224 192a128 128 0 1 1 128-128 128 128 0 0 1 -128 128z"/></svg>