<svg viewBox="0 0 576 512"><path d="m128 0c-53 0-96 86-96 192v172.07c0 41.12-9.8 62.77-31.17 126.87a16 16 0 0 0 15.17 21.06h312.92a32 32 0 0 0 30.36-21.88c12.83-38.48 24.71-72.4 24.71-126v-172.12c.01-106 43.01-192 96.01-192zm-16 224a16 16 0 1 1 16-16 16 16 0 0 1 -16 16zm64 0a16 16 0 1 1 16-16 16 16 0 0 1 -16 16zm64 0a16 16 0 1 1 16-16 16 16 0 0 1 -16 16zm64 0a16 16 0 1 1 16-16 16 16 0 0 1 -16 16z" opacity=".4"/><path d="m480 0c-53 0-96 86-96 192s43 192 96 192 96-86 96-192-43-192-96-192zm0 256c-17.67 0-32-28.65-32-64s14.33-64 32-64 32 28.65 32 64-14.33 64-32 64zm-368-64a16 16 0 1 0 16 16 16 16 0 0 0 -16-16zm64 0a16 16 0 1 0 16 16 16 16 0 0 0 -16-16zm64 0a16 16 0 1 0 16 16 16 16 0 0 0 -16-16zm64 0a16 16 0 1 0 16 16 16 16 0 0 0 -16-16z"/></svg>