<svg viewBox="0 0 384 512"><path d="m368 0h-352a16 16 0 0 0 -16 16v16a16 16 0 0 0 16 16h352a16 16 0 0 0 16-16v-16a16 16 0 0 0 -16-16zm-232 64h-48a8 8 0 0 0 -8 8v16a8 8 0 0 0 8 8h48a8 8 0 0 0 8-8v-16a8 8 0 0 0 -8-8z" opacity=".4"/><path d="m352 204.7v-156.7h-320v156.7c-20.2 10.1-32 22.2-32 35.3a191.76 191.76 0 0 0 86.8 160.5l-21.4 70.2a32 32 0 0 0 30.6 41.3h192a32 32 0 0 0 30.6-41.3l-21.4-70.2a191.76 191.76 0 0 0 86.8-160.5c0-13.1-11.8-25.2-32-35.3zm-272-132.7a8 8 0 0 1 8-8h48a8 8 0 0 1 8 8v16a8 8 0 0 1 -8 8h-48a8 8 0 0 1 -8-8zm112 200c-77.1 0-139.6-14.3-139.6-32s62.5-32 139.6-32 139.6 14.3 139.6 32-62.5 32-139.6 32z"/></svg>