<svg viewBox="0 0 640 512"><path d="m160 0c-23.33 0-44.63 16.83-61.26 44.53l285.26 220.47v-73c0-83.62 23.63-153.5 60.5-192zm-96 192v172.12c0 41.13-9.75 62.76-31.12 126.88a16 16 0 0 0 15.12 21h280.87a31.87 31.87 0 0 0 30.38-21.88c9.31-27.83 18-53.34 22.18-85.54l-316.03-244.25c-.86 10.33-1.4 20.86-1.4 31.67zm448-192c-53 0-96 86-96 192 0 42 7 80.4 18.43 112l97.42 75.29c43.44-18.38 76.15-94.97 76.15-187.29 0-106-43-192-96-192zm0 256c-17.63 0-32-28.62-32-64s14.37-64 32-64 32 28.62 32 64-14.37 64-32 64z" opacity=".4"/><path d="m6.18 53.91a16 16 0 0 1 -2.81-22.45l19.63-25.27a16 16 0 0 1 22.46-2.81l588.36 454.72a16 16 0 0 1 2.81 22.45l-19.63 25.27a16 16 0 0 1 -22.45 2.81z"/></svg>