<svg viewBox="0 0 512 512"><path d="m448 192c0-106-86-192-192-192s-192 86-192 192v224h384zm-96-8a16 16 0 0 1 -16 16h-56v128a16 16 0 0 1 -16 16h-16a16 16 0 0 1 -16-16v-128h-56a16 16 0 0 1 -16-16v-16a16 16 0 0 1 16-16h56v-48a16 16 0 0 1 16-16h16a16 16 0 0 1 16 16v48h56a16 16 0 0 1 16 16z" opacity=".4"/><path d="m496 448h-480a16 16 0 0 0 -16 16v32a16 16 0 0 0 16 16h480a16 16 0 0 0 16-16v-32a16 16 0 0 0 -16-16zm-320-248h56v128a16 16 0 0 0 16 16h16a16 16 0 0 0 16-16v-128h56a16 16 0 0 0 16-16v-16a16 16 0 0 0 -16-16h-56v-48a16 16 0 0 0 -16-16h-16a16 16 0 0 0 -16 16v48h-56a16 16 0 0 0 -16 16v16a16 16 0 0 0 16 16z"/></svg>