<svg viewBox="0 0 512 512"><path d="m384 368a16 16 0 0 1 -16 16h-32a16 16 0 0 1 -16-16v-16h-128v16a16 16 0 0 1 -16 16h-32a16 16 0 0 1 -16-16v-16h-128v96a32 32 0 0 0 32 32h448a32 32 0 0 0 32-32v-96h-128zm118.63-153.37-45.25-45.25a32 32 0 0 0 -22.63-9.38h-357.5a32 32 0 0 0 -22.63 9.37l-45.25 45.26a32 32 0 0 0 -9.37 22.63v82.74h128v-16a16 16 0 0 1 16-16h32a16 16 0 0 1 16 16v16h128v-16a16 16 0 0 1 16-16h32a16 16 0 0 1 16 16v16h128v-82.75a32 32 0 0 0 -9.37-22.62z" opacity=".4"/><path d="m336 32h-160a48 48 0 0 0 -48 48v80h64v-64h128v64h64v-80a48 48 0 0 0 -48-48zm-160 256h-32a16 16 0 0 0 -16 16v64a16 16 0 0 0 16 16h32a16 16 0 0 0 16-16v-64a16 16 0 0 0 -16-16zm192 0h-32a16 16 0 0 0 -16 16v64a16 16 0 0 0 16 16h32a16 16 0 0 0 16-16v-64a16 16 0 0 0 -16-16z"/></svg>