<svg viewBox="0 0 448 512"><path d="m444 96.25c10.13 41.63.42 80.82-21.53 110.43-23.37 31.57-32.69 68.65-36.3 107.32-4.41 47.16-10.33 94.17-20.94 140.32l-7.8 33.95a30.42 30.42 0 0 1 -59.21.54l-34.47-138.39a40.95 40.95 0 0 0 -79.52 0l-34.47 138.42a30.42 30.42 0 0 1 -59.21-.54l-7.8-33.95c-10.61-46.16-16.54-93.16-20.94-140.35-3.61-38.69-12.93-75.78-36.29-107.35-21.92-29.59-31.63-68.78-21.52-110.4 11-45.25 47.13-82.05 92-93.72 23.43-6.09 46.11-.54 66.81 10.31l100.54 64.62a16 16 0 0 0 17.31-26.91l-28.32-18.21c3.54-1.75 7.25-3.09 10.5-5.48 26.16-19.23 56.95-32.69 89.16-24.33 44.88 11.66 81 48.47 92 93.72z" opacity=".4"/></svg>