<svg viewBox="0 0 640 512"><path d="m528 336a88 88 0 1 0 88 88 88 88 0 0 0 -88-88zm0 112a24 24 0 1 1 24-24 24 24 0 0 1 -24 24zm-198-156h-7.14a152.15 152.15 0 0 0 -11.86-28.72l5.06-5.06a22 22 0 0 0 0-31.11l-31.16-31.11a22 22 0 0 0 -31.11 0l-5.06 5.06a152.15 152.15 0 0 0 -28.73-11.91v-7.15a22 22 0 0 0 -22-22h-44a22 22 0 0 0 -22 22v7.14a152.43 152.43 0 0 0 -28.73 11.91l-5-5.05a22 22 0 0 0 -31.11 0l-31.16 31.1a22 22 0 0 0 0 31.11l5.06 5.06a152.15 152.15 0 0 0 -11.91 28.73h-7.15a22 22 0 0 0 -22 22v44a22 22 0 0 0 22 22h7.14a152.43 152.43 0 0 0 11.91 28.73l-5 5a22 22 0 0 0 0 31.11l31.05 31.16a22 22 0 0 0 31.11 0l5.06-5.06a152.15 152.15 0 0 0 28.73 11.91v7.15a22 22 0 0 0 22 22h44a22 22 0 0 0 22-22v-7.14a152.15 152.15 0 0 0 28.72-11.86l5.06 5.06a22 22 0 0 0 31.11 0l31.11-31.16a22 22 0 0 0 0-31.11l-5.06-5.06a152.15 152.15 0 0 0 11.91-28.73h7.15a22 22 0 0 0 22-22v-44a22 22 0 0 0 -22-22zm-154 124a80 80 0 1 1 80-80 80 80 0 0 1 -80 80z" opacity=".4"/><path d="m640 192v50.76a32 32 0 0 1 -9.37 22.63l-50.82 50.81a118.61 118.61 0 0 0 -51.81-12.2c-39.14 0-73.55 19-95.46 48h-80.54v-38a22 22 0 0 0 -22-22h-7.14a152.24 152.24 0 0 0 -11.86-28.73l5.06-5.06a22 22 0 0 0 0-31.11l-31.16-31.1a22 22 0 0 0 -31.11 0l-5.06 5.06a151.54 151.54 0 0 0 -28.73-11.92v-7.14a22 22 0 0 0 -22-22h110l-41.11-96h-106.89v96h-6a22 22 0 0 0 -22 22v7.14a152.15 152.15 0 0 0 -28.72 11.86l-5.06-5a22.57 22.57 0 0 0 -2.22-1.93v-146.07a48.05 48.05 0 0 1 48-48h133.45a47.91 47.91 0 0 1 44.13 29.14l56.09 130.86h102.33v-40.2a128.16 128.16 0 0 1 29.5-81.72 16.28 16.28 0 0 1 24.7-.78l21.63 24.17c4.87 5.43 5.74 13.69 1.32 19.49a64.07 64.07 0 0 0 -13.15 38.84v40.2h64a32 32 0 0 1 32 32z"/></svg>