<svg viewBox="0 0 384 512"><path d="m240 368a48 48 0 1 1 -48-48 48 48 0 0 1 48 48z" opacity=".4"/><path d="m384 192h-64v-37.88c37.2-13.22 64-48.38 64-90.12h-64v-32a32 32 0 0 0 -32-32h-192a32 32 0 0 0 -32 32v32h-64c0 41.74 26.8 76.9 64 90.12v37.88h-64c0 41.74 26.8 76.9 64 90.12v37.88h-64c0 42.79 28.19 78.61 66.86 91v-.15a128 128 0 0 0 250.34 0v.15c38.61-12.4 66.8-48.22 66.8-91h-64v-37.88c37.2-13.22 64-48.38 64-90.12zm-192 224a48 48 0 1 1 48-48 48 48 0 0 1 -48 48zm0-128a48 48 0 1 1 48-48 48 48 0 0 1 -48 48zm0-128a48 48 0 1 1 48-48 48 48 0 0 1 -48 48z"/></svg>