<svg viewBox="0 0 640 512"><path d="m176 320a80 80 0 1 0 80 80 80 80 0 0 0 -80-80zm-80-184a8 8 0 0 0 -8-8h-16a8 8 0 0 0 -8 8v128.39a176.29 176.29 0 0 1 32-20.71zm96 89.14v-89.14a8 8 0 0 0 -8-8h-16a8 8 0 0 0 -8 8v89.14c5.31-.49 10.57-1.14 16-1.14s10.69.65 16 1.14zm88-97.14h-16a8 8 0 0 0 -8 8v107.68a176.29 176.29 0 0 1 32 20.71v-128.39a8 8 0 0 0 -8-8zm192 0h-16a8 8 0 0 0 -8 8v184h32v-184a8 8 0 0 0 -8-8zm-96 0h-16a8 8 0 0 0 -8 8v184h32v-184a8 8 0 0 0 -8-8z" opacity=".4"/><path d="m624 320h-80v-240a16 16 0 0 0 -16-16h-512a16 16 0 0 0 -16 16v288a16 16 0 0 0 16 16h49.61c7.83-54.21 54-96 110.39-96s102.56 41.79 110.39 96h337.61a16 16 0 0 0 16-16v-32a16 16 0 0 0 -16-16zm-528-76.32a176.29 176.29 0 0 0 -32 20.71v-128.39a8 8 0 0 1 8-8h16a8 8 0 0 1 8 8zm96-18.54c-5.31-.49-10.57-1.14-16-1.14s-10.69.65-16 1.14v-89.14a8 8 0 0 1 8-8h16a8 8 0 0 1 8 8zm96 39.25a176.29 176.29 0 0 0 -32-20.71v-107.68a8 8 0 0 1 8-8h16a8 8 0 0 1 8 8zm96 55.61h-32v-184a8 8 0 0 1 8-8h16a8 8 0 0 1 8 8zm96 0h-32v-184a8 8 0 0 1 8-8h16a8 8 0 0 1 8 8z"/></svg>