<svg viewBox="0 0 512 512"><path d="m511.45 51.9a15.91 15.91 0 0 0 -19.6-11.3l-480 128a16 16 0 0 0 4.15 31.4 18.41 18.41 0 0 0 4.1-.5l480-128a16.1 16.1 0 0 0 11.35-19.6zm-431.45 332.1h96v-96h-96zm256 0h96v-96h-96zm-128 0h96v-96h-96z" opacity=".4"/><path d="m192 96a32 32 0 1 0 -32-32 32 32 0 0 0 32 32zm96-32a32 32 0 1 0 -32-32 32 32 0 0 0 32 32zm160 160h-176v-91.7l-32 8.5v83.2h-176a32 32 0 0 0 -32 32v224a32 32 0 0 0 32 32h384a32 32 0 0 0 32-32v-224a32 32 0 0 0 -32-32zm-272 160h-96v-96h96zm128 0h-96v-96h96zm128 0h-96v-96h96z"/></svg>