<svg viewBox="0 0 512 512"><path d="m509.7929 44.43164-29.78606-12.41992-12.42226-29.78516a3.99158 3.99158 0 0 0 -7.15256 0l-12.41835 29.78516-29.79 12.41992a3.99921 3.99921 0 0 0 0 7.1543l29.79 12.41992 12.41833 29.78514a3.99315 3.99315 0 0 0 7.15256 0l12.42226-29.78516 29.78608-12.4199a4.00238 4.00238 0 0 0 0-7.1543zm-445.79876 307.57227-12.42225-29.78321a3.99473 3.99473 0 0 0 -7.15647 0l-12.41835 29.78321-29.78607 12.41992a4.00079 4.00079 0 0 0 0 7.15625l29.78607 12.41992 12.41835 29.7832a3.99473 3.99473 0 0 0 7.15647 0l12.42225-29.7832 29.78216-12.41992a4.00079 4.00079 0 0 0 0-7.15625zm308.32972-160.00391h-232.63986l-26.66878 32h285.97352zm-12.89886 84.48438a31.98516 31.98516 0 0 0 45.06388 4.09374 31.46786 31.46786 0 0 0 11.0863-24.57812h-73.221zm-21.235-125.45313a63.84341 63.84341 0 0 0 -49.17337-23.03125h-66.03326a63.788 63.788 0 0 0 -49.15775 23.03125l-7.47679 8.96875h179.31406zm-82.19-151.03125-.01953.002-.01953-.002a47.9455 47.9455 0 0 0 -45.04825 32h90.13556a47.9455 47.9455 0 0 0 -45.04825-32zm-72.0022 288h144.0044v-32h-144.0044zm71.96314-192 .01953-.00195.01953.00195a47.8755 47.8755 0 0 0 45.06-32h-90.159a47.87549 47.87549 0 0 0 45.05994 32zm8.0393 320h64.002v-32h-64.002zm0-64h64.002v-32h-64.002zm-80.00244 64h64.002v-32h-64.002zm0-64h64.002v-32h-64.002zm-76.48671-71.42188a32.00632 32.00632 0 0 0 45.06388-4.09374l17.07083-20.48438h-73.221a31.46786 31.46786 0 0 0 11.08629 24.57812z" opacity=".4"/><path d="m416.00488 480a32.00082 32.00082 0 0 0 -32.001-32h-256.00779a32.00082 32.00082 0 0 0 -32.001 32v32h320.00979z"/></svg>