<svg viewBox="0 0 480 512"><path d="m319 239a80 80 0 1 1 -80-80 80 80 0 0 1 80 80z" opacity=".4"/><path d="m467-1h-79a12 12 0 0 0 -8.5 20.5l16.9 16.9-80.7 80.7a144.13 144.13 0 0 0 -153.4 0l-16.5-16.5 19.8-19.8a12 12 0 0 0 0-17l-28.3-28.3a12 12 0 0 0 -17 0l-19.8 19.8-19-19 16.9-16.9c7.7-7.5 2.3-20.4-8.4-20.4h-79a12 12 0 0 0 -12 12v79a12 12 0 0 0 20.5 8.5l16.9-16.9 19 19-19.8 19.8a12 12 0 0 0 0 17l28.3 28.3a12 12 0 0 0 17 0l19.8-19.8 16.5 16.5a142 142 0 0 0 -22.2 76.6 144 144 0 0 0 112 140.4v27.6h-36a12 12 0 0 0 -12 12v40a12 12 0 0 0 12 12h36v28a12 12 0 0 0 12 12h40a12 12 0 0 0 12-12v-28h36a12 12 0 0 0 12-12v-40a12 12 0 0 0 -12-12h-36v-27.6a144 144 0 0 0 89.9-217.1l80.7-80.7 16.9 16.9a12 12 0 0 0 20.5-8.5v-79a12 12 0 0 0 -12-12zm-228 320a80 80 0 1 1 80-80 80 80 0 0 1 -80 80z"/></svg>