<svg viewBox="0 0 512 512"><path d="m359.425 276.48438a31.98517 31.98517 0 0 0 45.06388 4.09375 31.46789 31.46789 0 0 0 11.0863-24.57813h-73.221zm-175.4272 11.51562h144.0044v-32h-144.0044zm80.00244 128h64.002v-32h-64.002zm-156.48915-135.42187a32.00633 32.00633 0 0 0 45.06388-4.09375l17.07083-20.48438h-73.221a31.46789 31.46789 0 0 0 11.08629 24.57813zm156.48915 71.42187h64.002v-32h-64.002zm-80.00244 0h64.002v-32h-64.002zm325.7951-211.584-29.78606-12.41993-12.42226-29.7832a3.99158 3.99158 0 0 0 -7.15256 0l-12.41835 29.7832-29.79 12.41993a4.00079 4.00079 0 0 0 0 7.15625l29.79 12.41992 12.41835 29.7832a3.99158 3.99158 0 0 0 7.15256 0l12.42226-29.7832 29.78606-12.41992a4.004 4.004 0 0 0 0-7.15625zm-325.7951 275.584h64.002v-32h-64.002zm-120.00366-383.998-12.42225-29.78325a3.99473 3.99473 0 0 0 -7.15647 0l-12.41835 29.78325-29.78607 12.41988a3.99921 3.99921 0 0 0 0 7.15429l29.78607 12.41992 12.41835 29.78516a3.99473 3.99473 0 0 0 7.15647 0l12.42225-29.78516 29.78216-12.41992a3.99921 3.99921 0 0 0 0-7.15429z" opacity=".4"/><path d="m384.00391 448h-256.00782a32.00082 32.00082 0 0 0 -32.001 32v32h320.00979v-32a32.00082 32.00082 0 0 0 -32.00097-32zm-128.04297-352 .01953-.00195.01953.00195a48 48 0 1 0 0-96l-.01953.002-.01953-.002a48 48 0 1 0 0 96zm82.22906 55.03125a63.84344 63.84344 0 0 0 -49.17337-23.03125h-66.03326a63.78806 63.78806 0 0 0 -49.15775 23.03125l-60.81045 72.96875h285.97357z"/></svg>