<svg viewBox="0 0 512 512"><path d="m509.789 44.43164-29.78216-12.41992-12.42226-29.78516a3.99473 3.99473 0 0 0 -7.15647 0l-12.42225 29.78516-29.78216 12.41992a3.99921 3.99921 0 0 0 0 7.1543l29.78216 12.41992 12.42225 29.78514a3.9963 3.9963 0 0 0 7.15647 0l12.42226-29.78516 29.78216-12.4199a3.99921 3.99921 0 0 0 0-7.1543zm-445.79877 51.56836-12.41834-29.78516a3.99473 3.99473 0 0 0 -7.15647 0l-12.42226 29.78516-29.78216 12.41992a3.99921 3.99921 0 0 0 0 7.1543l29.78216 12.41992 12.42226 29.78516a3.9963 3.9963 0 0 0 7.15647 0l12.41834-29.78516 29.78607-12.41992a3.99921 3.99921 0 0 0 0-7.1543z" opacity=".4"/><path d="m255.957 96 .01953-.00195.01956.00195a48 48 0 1 0 0-96l-.01953.002-.01956-.002a48 48 0 1 0 0 96zm128.043 352h-56.00171v-209.2207l31.42283 37.70508a31.9958 31.9958 0 0 0 49.15776-40.96875l-70.39278-84.48438a63.84343 63.84343 0 0 0 -49.17337-23.03125h-66.03327a63.78806 63.78806 0 0 0 -49.15775 23.03125l-70.4084 84.48438a31.99579 31.99579 0 0 0 49.15775 40.96875l31.42284-37.70508v209.2207h-56.00171a31.99832 31.99832 0 0 0 -32.001 32v32h320.00981v-32a31.99832 31.99832 0 0 0 -32.001-32zm-120.00366 0h-16.00049v-128h16.00049z"/></svg>