<svg viewBox="0 0 512 512"><path d="m183.9964 416h64.00146v-32h-64.00146zm-120.00275-287.998-12.42216-29.78325a3.99153 3.99153 0 0 0 -7.1525 0l-12.41826 29.78325-29.78973 12.41988a4.00079 4.00079 0 0 0 0 7.15624l29.78974 12.41993 12.41826 29.7832a3.99153 3.99153 0 0 0 7.1525 0l12.42216-29.7832 29.78584-12.41993a4.004 4.004 0 0 0 0-7.15624zm200.00458 287.998h64.00146v-32h-64.00146zm245.79077-51.58008-29.78583-12.41992-12.41825-29.78516a3.99468 3.99468 0 0 0 -7.15641 0l-12.41826 29.78516-29.78583 12.41992a3.99922 3.99922 0 0 0 0 7.1543l29.78583 12.41992 12.41826 29.78516a3.99625 3.99625 0 0 0 7.15641 0l12.41825-29.78516 29.78583-12.41992a3.99922 3.99922 0 0 0 0-7.1543z" opacity=".4"/><path d="m255.959 96 .01954-.00195.01951.00195a48 48 0 1 0 0-96l-.01953.002-.01952-.002a48 48 0 1 0 0 96zm-103.3852 180.48438 31.4226-37.70508v113.2207h64.00146v-32h16.00037v32h64.00146v-113.2207l31.4226 37.70508a31.99565 31.99565 0 0 0 49.15737-40.96876l-70.39223-84.48437a63.84273 63.84273 0 0 0 -49.173-23.03125h-66.03276a63.78737 63.78737 0 0 0 -49.15738 23.03125l-70.40786 84.48437a31.99565 31.99565 0 0 0 49.15737 40.96876zm231.4272 171.51562h-256.00588a32.0007 32.0007 0 0 0 -32.00074 32v32h320.00733v-32a32.0007 32.0007 0 0 0 -32.00071-32z"/></svg>