<svg viewBox="0 0 512 512"><path d="m509.7929 268.419-29.78606-12.42-12.42226-29.78527a3.99158 3.99158 0 0 0 -7.15256 0l-12.41835 29.78527-29.79 12.42a3.99924 3.99924 0 0 0 0 7.15433l29.79 12.42 12.41833 29.78523a3.99314 3.99314 0 0 0 7.15256 0l12.42226-29.78527 29.78606-12.42a4.0024 4.0024 0 0 0 0-7.15433zm-445.79876-236.41692-12.42225-29.78332a3.99472 3.99472 0 0 0 -7.15647 0l-12.41835 29.78332-29.78607 12.41992a4.00082 4.00082 0 0 0 0 7.15628l29.78607 12.42 12.41835 29.78333a3.99472 3.99472 0 0 0 7.15647 0l12.42225-29.78332 29.78216-12.42a4.00082 4.00082 0 0 0 0-7.15628z" opacity=".4"/><path d="m416.00488 479.99988v32.00012h-320.00976v-32.00012a32.00088 32.00088 0 0 1 32.001-32.00012h256.00779a32.00088 32.00088 0 0 1 32.00097 32.00012z"/></svg>