<svg viewBox="0 0 448 512"><path d="m53.2 467a48 48 0 0 0 47.9 45h245.8a48 48 0 0 0 47.9-45l21.2-371h-384zm47.18-221.47 84-81.59c8.84-8.59 23.61-2.24 23.61 10.47v41.67c82.47.8 144 18.36 144 103.92 0 34.29-20.14 68.26-42.41 86-6.95 5.54-16.85-1.41-14.29-10.4 23.08-80.93-6.55-101.74-87.3-102.72v44.69c0 12.69-14.76 19.07-23.61 10.47l-84-81.59a14.69 14.69 0 0 1 -.13-20.79z" opacity=".4"/><path d="m432 32h-120l-9.4-18.7a24 24 0 0 0 -21.5-13.3h-114.3a23.72 23.72 0 0 0 -21.4 13.3l-9.4 18.7h-120a16 16 0 0 0 -16 16v32a16 16 0 0 0 16 16h416a16 16 0 0 0 16-16v-32a16 16 0 0 0 -16-16zm-224 184.08v-41.67c0-12.71-14.77-19.06-23.61-10.47l-84 81.59a14.7 14.7 0 0 0 -.15 20.79l.15.15 84 81.59c8.85 8.6 23.61 2.22 23.61-10.47v-44.69c80.75 1 110.38 21.79 87.3 102.72-2.56 9 7.34 15.94 14.29 10.4 22.27-17.76 42.41-51.73 42.41-86.02 0-85.56-61.53-103.12-144-103.92z"/></svg>