<svg viewBox="0 0 448 512"><path d="m32 96 21.2 371a48 48 0 0 0 47.9 45h245.8a48 48 0 0 0 47.9-45l21.2-371zm281.37 192h-57.37v112a16 16 0 0 1 -16 16h-32a16 16 0 0 1 -16-16v-112h-57.37c-14.26 0-21.4-18.18-11.32-28.8l89.38-94.26a15.41 15.41 0 0 1 21.78-.84q.43.41.84.84l89.38 94.26c10.08 10.62 2.94 28.8-11.32 28.8z" opacity=".4"/><path d="m432 32h-120l-9.4-18.7a24 24 0 0 0 -21.5-13.3h-114.3a23.72 23.72 0 0 0 -21.4 13.3l-9.4 18.7h-120a16 16 0 0 0 -16 16v32a16 16 0 0 0 16 16h416a16 16 0 0 0 16-16v-32a16 16 0 0 0 -16-16zm-196.69 132.94q-.41-.44-.84-.84a15.41 15.41 0 0 0 -21.78.84l-89.38 94.26c-10.08 10.62-2.94 28.8 11.32 28.8h57.37v112a16 16 0 0 0 16 16h32a16 16 0 0 0 16-16v-112h57.37c14.26 0 21.4-18.18 11.32-28.8z"/></svg>