<svg viewBox="0 0 448 512"><path d="m32 464a48 48 0 0 0 48 48h288a48 48 0 0 0 48-48v-368h-384zm272-288a16 16 0 0 1 32 0v224a16 16 0 0 1 -32 0zm-96 0a16 16 0 0 1 32 0v224a16 16 0 0 1 -32 0zm-96 0a16 16 0 0 1 32 0v224a16 16 0 0 1 -32 0z" opacity=".4"/><path d="m432 32h-120l-9.4-18.7a24 24 0 0 0 -21.5-13.3h-114.3a23.72 23.72 0 0 0 -21.4 13.3l-9.4 18.7h-120a16 16 0 0 0 -16 16v32a16 16 0 0 0 16 16h416a16 16 0 0 0 16-16v-32a16 16 0 0 0 -16-16zm-304 128a16 16 0 0 0 -16 16v224a16 16 0 0 0 32 0v-224a16 16 0 0 0 -16-16zm96 0a16 16 0 0 0 -16 16v224a16 16 0 0 0 32 0v-224a16 16 0 0 0 -16-16zm96 0a16 16 0 0 0 -16 16v224a16 16 0 0 0 32 0v-224a16 16 0 0 0 -16-16z"/></svg>