<svg viewBox="0 0 576 512"><path d="m0 128v128h96v-224a96 96 0 0 0 -96 96zm0 320a32 32 0 0 0 32 32h64v-192h-96zm352-112a16 16 0 0 1 -16 16h-96a16 16 0 0 1 -16-16v-48h-64v192h256v-192h-64zm128-304v224h96v-128a96 96 0 0 0 -96-96zm0 448h64a32 32 0 0 0 32-32v-160h-96zm-320-224h64v-48a16 16 0 0 1 16-16h96a16 16 0 0 1 16 16v48h64v-224h-256z" opacity=".4"/><path d="m96 256h64v-224h-64zm0 224h64v-192h-64zm320 0h64v-192h-64zm0-448v224h64v-224zm-80 160h-96a16 16 0 0 0 -16 16v128a16 16 0 0 0 16 16h96a16 16 0 0 0 16-16v-128a16 16 0 0 0 -16-16zm-32 112a16 16 0 0 1 -32 0v-64a16 16 0 0 1 32 0z"/></svg>