<svg viewBox="0 0 384 512"><path d="m224 416v24.45l30.29 48.4a16 16 0 0 1 -14.29 23.15h-96a16 16 0 0 1 -14.31-23.16l30.31-48.38v-24.46z" opacity=".4"/><path d="m23.14 416a23.19 23.19 0 0 1 -21-13.25 22.11 22.11 0 0 1 3.55-24.25l79.89-90.5h-30.58a22.72 22.72 0 0 1 -20.83-13 22.08 22.08 0 0 1 3.27-24l78.14-91h-28.89a22.67 22.67 0 0 1 -20.87-13.6 22.27 22.27 0 0 1 4.24-24.08l110.28-117.48c6-6.45 17.29-6.45 23.32 0l110.27 117.48a22.25 22.25 0 0 1 4.24 24.08 22.66 22.66 0 0 1 -20.86 13.6h-28.89l78.13 90.89a22 22 0 0 1 3.28 24 22.72 22.72 0 0 1 -20.78 13.11h-30.63l79.89 90.49a22.11 22.11 0 0 1 3.56 24.26 23.19 23.19 0 0 1 -21 13.25z"/></svg>