<svg viewBox="0 0 512 512"><path d="m318.29 488.85a16 16 0 0 1 -14.29 23.15h-96a16 16 0 0 1 -14.31-23.16l30.31-48.39v-56.45h64v56.45z" opacity=".4"/><path d="m28 356q-28-28-28-68a93.5 93.5 0 0 1 16-53 92.4 92.4 0 0 1 43-35q-14-24-10.5-49.5a79.43 79.43 0 0 1 20.5-44 81.51 81.51 0 0 1 41.5-24.5q24.5-6 49.5 5 4-37 31.5-62t64.5-25q37 0 64.5 25t31.5 62q25-11 49.5-5a81.51 81.51 0 0 1 41.5 24.5 79.43 79.43 0 0 1 20.5 44q3.5 25.5-9.5 49.5h-1a92.4 92.4 0 0 1 43 35 93.5 93.5 0 0 1 16 53q0 40-28 68t-68 28h-320q-40 0-68-28z"/></svg>