<svg viewBox="0 0 448 512"><path d="m160 312a24 24 0 1 1 24-24 23.94 23.94 0 0 1 -24 24z" opacity=".4"/><path d="m439.63 455.57-89.8-103.57h36c25.6 0 39.5-29.2 23.2-48.5l-94.9-111.5h44.8c21.3 0 32.9-22.5 19.3-37.29l-134.9-146.53c-10-10.9-28.6-10.9-38.6 0l-134.8 146.5c-13.6 14.79-2 37.29 19.3 37.29h44.77l-95 111.5c-16.3 19.3-2.4 48.5 23.2 48.5h36l-89.77 103.6c-19 21.9-3.8 56.4 24.7 56.4h381.7c28.6.03 43.7-34.59 24.8-56.4zm-279.63-143.57a24 24 0 1 1 24-24 23.94 23.94 0 0 1 -24 24zm72-152a24 24 0 1 1 24 24 23.95 23.95 0 0 1 -24-24zm56 280a24 24 0 1 1 24-24 23.94 23.94 0 0 1 -24 24z"/></svg>