<svg viewBox="0 0 640 512"><path d="m379.65 485c-2 15.63-16 27-31.71 27h-55.13a31.91 31.91 0 0 1 -32-31.82 31.46 31.46 0 0 1 .94-7.79c14.42-57.12 36.55-167.3 25.86-272l8.39-8.39h57.25c14.83 56.66 41.18 179.53 26.4 293z" opacity=".4"/><path d="m607.74 172.86c-11.61-61.62-78.36-108.86-158.98-108.86-39.43 0-75.05 11.74-103 30.5-18.61-54.33-80.38-94.5-154.51-94.5-80.62 0-147.36 47.24-159 108.86-1.84 9.93 6.52 19.14 17.75 19.14h54l24-48 33.46 66.92c-3.46 3.08-7.26 5.69-10.64 9.08-57 57-70.82 137.6-35.44 189.38 5.7 8.34 18.12 8.94 26.07 1l154.55-154.38h192l24-48 24 48h54c11.25 0 19.61-9.21 17.74-19.14z"/></svg>