<svg viewBox="0 0 640 512"><path d="m224 440.46v-24.46h-64v24.45l-30.29 48.4a16 16 0 0 0 14.29 23.15h96a16 16 0 0 0 14.31-23.16zm410.31-62-79.89-90.46h30.63a22.73 22.73 0 0 0 20.78-13 22 22 0 0 0 -3.28-24l-78.13-91h28.89a22.69 22.69 0 0 0 20.86-13.61 22.27 22.27 0 0 0 -4.24-24.08l-110.27-117.47c-6-6.45-17.28-6.45-23.32 0l-95.06 101.26c11.09 15.37 14 35.3 6.34 53a54.48 54.48 0 0 1 -18.26 22.68l41.54 48.32a54.56 54.56 0 0 1 -6.07 76.9q-2 1.68-4.1 3.18l41.62 47.15c8.65 9.78 13.34 14.13 13.65 26.67v56.45l-30.29 48.4a16 16 0 0 0 14.29 23.15h96a16 16 0 0 0 14.31-23.16l-30.31-48.38v-24.46h136.87a23.19 23.19 0 0 0 21-13.25 22.15 22.15 0 0 0 -3.56-24.25z" opacity=".4"/><path d="m381.86 402.76a23.19 23.19 0 0 1 -21 13.25h-337.73a23.17 23.17 0 0 1 -21-13.25 22.09 22.09 0 0 1 3.56-24.26l79.89-90.5h-30.58a22.72 22.72 0 0 1 -20.83-13.08 22.06 22.06 0 0 1 3.27-24l78.14-90.92h-28.89a22.67 22.67 0 0 1 -20.87-13.6 22.25 22.25 0 0 1 4.24-24.08l110.28-117.48c6-6.45 17.32-6.45 23.32 0l110.27 117.47a22.27 22.27 0 0 1 4.24 24.08 22.69 22.69 0 0 1 -20.86 13.61h-28.89l78.13 91a22 22 0 0 1 3.28 24 22.73 22.73 0 0 1 -20.78 13h-30.63l79.88 90.5a22.12 22.12 0 0 1 3.56 24.26z"/></svg>