<svg viewBox="0 0 512 512"><path d="m274.64 267.42a56.8 56.8 0 1 0 33.92 33.94l198.69-198.74a16 16 0 0 0 0-22.62l-11.31-11.31a16 16 0 0 0 -22.62 0z" opacity=".4"/><path d="m500 462.92a96.17 96.17 0 0 1 -84.13 49.08h-319.74a96.17 96.17 0 0 1 -84.13-49.08 92.48 92.48 0 0 1 2.16-94.83l159.86-258.7c11.72-19 29.55-32.22 50-39.34v-54.05a16 16 0 0 1 15.98-16h32a16 16 0 0 1 16 16v54.05c20.41 7.12 38.24 20.37 50 39.34l36.16 58.53-46.48 46.5-44.11-71.37c-8.4-13.58-22-15.05-27.52-15.05s-19.12 1.47-27.52 15.05l-159.92 258.7a29 29 0 0 0 -.69 30 31.73 31.73 0 0 0 28.21 16.25h319.74a31.73 31.73 0 0 0 28.21-16.23 29 29 0 0 0 -.69-30l-89.84-145.41 46.45-46.49 97.77 158.22a92.48 92.48 0 0 1 2.23 94.83z"/></svg>