<svg viewBox="0 0 640 512"><path d="m40.58 384a64 64 0 1 0 110.84 0zm144 0a64 64 0 1 0 110.84 0zm343.42-16a56 56 0 1 0 56 56 56 56 0 0 0 -56-56zm-224-112h32v-176h-32zm-48-176h-32v176h32zm-80 0h-32v176h32zm-80 0h-32v176h32z" opacity=".4"/><path d="m621.3 237.3-58.5-58.5a64 64 0 0 0 -45.3-18.7h-53.5a32 32 0 0 0 -32 32v144h-416a16 16 0 0 0 -16 16v15.9a16 16 0 0 0 16 16h392v.2h41.53a88 88 0 0 1 157 .14 2 2 0 0 0 0-.24h17.47a16 16 0 0 0 16-16v-85.5a63.85 63.85 0 0 0 -18.7-45.3zm-141.3 18.7v-48h37.5a16.06 16.06 0 0 1 11.3 4.7l43.3 43.3zm-448 48h336a32 32 0 0 0 32-32v-208a32 32 0 0 0 -32-32h-336a32 32 0 0 0 -32 32v208a32 32 0 0 0 32 32zm272-224h32v176h-32zm-80 0h32v176h-32zm-80 0h32v176h-32zm-80 0h32v176h-32z"/></svg>