<svg viewBox="0 0 640 512"><path d="m247.8 123.8a16 16 0 0 0 -19.6-11.3l-77.2 20.8 24.8 92.7-61.8 16.5-24.8-92.7-77.3 20.7a16 16 0 0 0 -11.3 19.6l49.6 185.5a16 16 0 0 0 19.6 11.3l216.4-58a16 16 0 0 0 11.3-19.6zm296.2 196.2a96 96 0 1 0 96 96 96 96 0 0 0 -96-96z" opacity=".4"/><path d="m384 0a32 32 0 0 0 -32 32v323.6l-346.1 94.4a8 8 0 0 0 -5.6 9.8l12.6 46.3a8 8 0 0 0 9.8 5.6l393.7-107.4c0 .33 0 .66.05 1 5.46-65.6 60.55-117.3 127.55-117.3a127.71 127.71 0 0 1 96 43.44v-331.44zm-208.2 226-24.8-92.7-61.8 16.5 24.8 92.7z"/></svg>