<svg viewBox="0 0 640 512"><path d="m224 352a64 64 0 1 0 64 64 64 64 0 0 0 -64-64zm-160 0a64 64 0 1 0 64 64 64 64 0 0 0 -64-64zm464 0a64 64 0 1 0 64 64 64 64 0 0 0 -64-64z" opacity=".4"/><path d="m621.3 237.3-58.5-58.5a64 64 0 0 0 -45.3-18.7h-37.5v-96.1a32 32 0 0 0 -32-32h-416a32 32 0 0 0 -32 32v280.51a95.88 95.88 0 0 1 144 18.49 96 96 0 0 1 170.51 21h123a96 96 0 0 1 181 0h5.49a16 16 0 0 0 16-16v-85.5a63.79 63.79 0 0 0 -18.7-45.2zm-141.3 18.7v-48h37.5a15.88 15.88 0 0 1 11.3 4.7l43.3 43.3z"/></svg>