<svg viewBox="0 0 640 512"><path d="m21.4 235.1c39.6-10.6 73.7 13.4 85.5 43.4l125.1-33.5c-5.4-35.7 16.5-70.7 52.2-80.2 2.6-.7 5.3-.7 8-1.1-9.9-36.9-45.9-55.1-78.7-46.3l-154.6 41.4c-32.8 8.8-54.8 42.6-45.1 79.1a69.24 69.24 0 0 1 7.6-2.8zm271-39.5a40.07 40.07 0 0 0 -28.3 49l6.2 23.2-185.4 49.7-6.2-23.2a40 40 0 1 0 -77.3 20.7l22.7 85 295.9-79.3v-122a40.16 40.16 0 0 0 -27.6-3.1zm251.6 124.4a96 96 0 1 0 96 96 96 96 0 0 0 -96-96z" opacity=".4"/><path d="m384 0a32 32 0 0 0 -32 32v323.6l-346.1 94.4a8 8 0 0 0 -5.6 9.8l12.6 46.3a8 8 0 0 0 9.8 5.6l393.7-107.4c0 .33 0 .66.05 1 5.46-65.6 60.55-117.3 127.55-117.3a127.71 127.71 0 0 1 96 43.44v-331.44z"/></svg>