<svg viewBox="0 0 640 512"><path d="m8.86 96.5a16.11 16.11 0 0 0 -7.2 21.5l57.23 114.5a16.11 16.11 0 0 0 21.5 7.2l17.32-8.48-71.62-143.22zm459-80.95a187.31 187.31 0 0 1 -13.32 13.26c-36.09 32.49-83.87 50.39-134.54 50.39s-98.41-17.9-134.51-50.39a187.31 187.31 0 0 1 -13.32-13.26l-117.41 58.2 71.69 143.4 10.55-5.15a16 16 0 0 1 23 14.4v253.6a32 32 0 0 0 32 32h256a32 32 0 0 0 32-32v-253.7a16 16 0 0 1 23-14.4l10.57 5.18 71.62-143.38zm163.31 81-17.32-8.59-71.6 143.19 17.24 8.45h.06a16 16 0 0 0 21.45-7.2l57.28-114.4a16 16 0 0 0 -7.1-21.5z" opacity=".4"/><path d="m320 47.2c-51.89 0-96.39-19.4-116.49-47.2l-31.34 15.55a187.31 187.31 0 0 0 13.32 13.26c36.1 32.49 83.88 50.39 134.51 50.39s98.43-17.9 134.53-50.39a187.31 187.31 0 0 0 13.32-13.26l-31.34-15.55c-20.1 27.8-64.6 47.2-116.51 47.2zm-293.91 40.8 71.62 143.22 28.74-14.07-71.69-143.4zm559.1-14.3-71.68 143.38 28.74 14.07 71.61-143.24z"/></svg>