<svg viewBox="0 0 512 512"><path d="m468 256h-40a12 12 0 0 0 -12 12v40a12 12 0 0 0 12 12h40a12 12 0 0 0 12-12v-40a12 12 0 0 0 -12-12zm-384 192h-40a12 12 0 0 0 -12 12v40a12 12 0 0 0 12 12h40a12 12 0 0 0 12-12v-40a12 12 0 0 0 -12-12zm288 0h-232a12 12 0 0 0 -12 12v40a12 12 0 0 0 12 12h232a12 12 0 0 0 12-12v-40a12 12 0 0 0 -12-12zm96 0h-40a12 12 0 0 0 -12 12v40a12 12 0 0 0 12 12h40a12 12 0 0 0 12-12v-40a12 12 0 0 0 -12-12zm-328-128h40a12 12 0 0 0 12-12v-40a12 12 0 0 0 -12-12h-40a12 12 0 0 0 -12 12v40a12 12 0 0 0 12 12zm-96 0h40a12 12 0 0 0 12-12v-40a12 12 0 0 0 -12-12h-40a12 12 0 0 0 -12 12v40a12 12 0 0 0 12 12zm324 44v40a12 12 0 0 0 12 12h40a12 12 0 0 0 12-12v-40a12 12 0 0 0 -12-12h-40a12 12 0 0 0 -12 12zm-276-12a12 12 0 0 0 -12 12v40a12 12 0 0 0 12 12h40a12 12 0 0 0 12-12v-40a12 12 0 0 0 -12-12zm192 0a12 12 0 0 0 -12 12v40a12 12 0 0 0 12 12h40a12 12 0 0 0 12-12v-40a12 12 0 0 0 -12-12zm48-32h40a12 12 0 0 0 12-12v-40a12 12 0 0 0 -12-12h-40a12 12 0 0 0 -12 12v40a12 12 0 0 0 12 12zm-144 32a12 12 0 0 0 -12 12v40a12 12 0 0 0 12 12h40a12 12 0 0 0 12-12v-40a12 12 0 0 0 -12-12zm48-32h40a12 12 0 0 0 12-12v-40a12 12 0 0 0 -12-12h-40a12 12 0 0 0 -12 12v40a12 12 0 0 0 12 12z" opacity=".4"/><path d="m509.22 126.5-43.22 69.14a18.33 18.33 0 0 1 -22.35 7.36l-86.43-34.57a18.35 18.35 0 0 1 -11.43-18.85l5.95-59.58a283.34 283.34 0 0 0 -191.48 0l6 59.53a18.35 18.35 0 0 1 -11.43 18.85l-86.48 34.62a18.34 18.34 0 0 1 -22.35-7.36l-43.21-69.14a18.32 18.32 0 0 1 2.58-22.68c138.53-138.53 362.94-138.32 501.26 0a18.34 18.34 0 0 1 2.59 22.68z"/></svg>