<svg viewBox="0 0 576 512"><path d="m512 32h-448a64 64 0 0 0 -64 64v320a64 64 0 0 0 64 64h448a64 64 0 0 0 64-64v-320a64 64 0 0 0 -64-64zm-288 384a160 160 0 1 1 160-160 160 160 0 0 1 -160 160zm288-148.18a64 64 0 0 1 -6.76 28.63l-18.93 37.86a16 16 0 0 1 7.16 21.46l-25.69 51.38a16 16 0 0 1 -21.47 7.16l-28.62-14.31a16 16 0 0 1 -7.16-21.46l25.69-51.38a16 16 0 0 1 21.47-7.16l18.93-37.87a32 32 0 0 0 3.38-14.32v-163.81a8 8 0 0 1 8-8h16a8 8 0 0 1 8 8z" opacity=".4"/><path d="m504 96h-16a8 8 0 0 0 -8 8v163.81a32 32 0 0 1 -3.38 14.31l-18.93 37.88a16 16 0 0 0 -21.47 7.16l-25.69 51.38a16 16 0 0 0 7.16 21.46l28.62 14.32a16 16 0 0 0 21.47-7.16l25.69-51.38a16 16 0 0 0 -7.16-21.46l18.93-37.86a64 64 0 0 0 6.76-28.64v-163.82a8 8 0 0 0 -8-8zm-280 0a160 160 0 1 0 160 160 160 160 0 0 0 -160-160zm0 192a32 32 0 1 1 32-32 32 32 0 0 1 -32 32z"/></svg>