<svg viewBox="0 0 576 512"><path d="m552.28 137.25-48.65-34.75c-35.17-17.42-80.49 1.57-86.81 40.31a63.4 63.4 0 0 0 -.82 10.19v71.22a62.79 62.79 0 0 1 -13.27 38.44 64.75 64.75 0 0 1 -51.68 25.34h-332.45a18.6 18.6 0 0 0 -5.89 36.24l98.29 22.1-44.83 77.66a16 16 0 0 0 13.83 24h37a16 16 0 0 0 13.86-8l40.3-69.8c26 8.52 45.55 13.8 84.87 13.8s58.89-5.28 84.87-13.8l40.3 69.8a16 16 0 0 0 13.8 8h37a16 16 0 0 0 13.86-24l-47.21-81.76c21.25-8.42 40.36-21.78 54.81-40.53a126.33 126.33 0 0 0 25.28-61.71h40.62a56.65 56.65 0 0 0 32.92-102.76zm-72.28 38.75a16 16 0 1 1 16-16 16 16 0 0 1 -16 16z" opacity=".4"/><path d="m68.25 256c-23.54 0-41-19.8-35.1-40 20-69 90.53-152 174.44-152h.82c83.92 0 154.43 83 174.45 152 5.87 20.24-11.56 40-35.1 40z"/></svg>