<svg viewBox="0 0 640 512"><path d="m64 64v288h512v-288zm352 192c0 17.67-21.5 32-48 32s-48-14.33-48-32 21.5-32 48-32a69.82 69.82 0 0 1 16 2v-60.36l-96 37.52v84.84c0 17.67-21.5 32-48 32s-48-14.33-48-32 21.5-32 48-32a69.82 69.82 0 0 1 16 2v-98.7a16 16 0 0 1 11.19-15.3l128-47.25a16 16 0 0 1 20.81 15.25z" opacity=".4"/><path d="m512 448h-384a32 32 0 0 0 0 64h384a32 32 0 0 0 0-64zm80-448h-544a48 48 0 0 0 -48 48v320a48 48 0 0 0 48 48h544a48 48 0 0 0 48-48v-320a48 48 0 0 0 -48-48zm-16 352h-512v-288h512zm-336-32c26.5 0 48-14.33 48-32v-84.84l96-37.52v60.36a69.82 69.82 0 0 0 -16-2c-26.5 0-48 14.33-48 32s21.5 32 48 32 48-14.33 48-32v-144a16 16 0 0 0 -20.81-15.25l-128 47.25a16 16 0 0 0 -11.19 15.25v98.75a69.82 69.82 0 0 0 -16-2c-26.5 0-48 14.33-48 32s21.5 32 48 32z"/></svg>