<svg viewBox="0 0 512 512"><path d="m368 96a16 16 0 0 1 -16-16v-80h-264a23.94 23.94 0 0 0 -24 23.88v168.12h82.75a32 32 0 0 1 22.62 9.37l13.26 13.26a32 32 0 0 0 22.62 9.37h101.5a32 32 0 0 0 22.62-9.37l13.26-13.26a32 32 0 0 1 22.62-9.37h82.75v-96z" opacity=".4"/><path d="m368 96h80v-4.58a17.92 17.92 0 0 0 -5.25-12.67l-73.43-73.5a18 18 0 0 0 -12.75-5.25h-4.57v80a16 16 0 0 0 16 16zm112 96h-114.75a32 32 0 0 0 -22.62 9.37l-13.26 13.26a32 32 0 0 1 -22.62 9.37h-101.5a32 32 0 0 1 -22.62-9.37l-13.26-13.26a32 32 0 0 0 -22.62-9.37h-114.75a32 32 0 0 0 -32 32v32a32 32 0 0 0 32 32v160a64 64 0 0 0 64 64h320a64 64 0 0 0 64-64v-160a32 32 0 0 0 32-32v-32a32 32 0 0 0 -32-32zm-144 104a8 8 0 0 1 8-8h16a8 8 0 0 1 8 8v16a8 8 0 0 1 -8 8h-16a8 8 0 0 1 -8-8zm-24 56h16a8 8 0 0 1 8 8v16a8 8 0 0 1 -8 8h-16a8 8 0 0 1 -8-8v-16a8 8 0 0 1 8-8zm-40-56a8 8 0 0 1 8-8h16a8 8 0 0 1 8 8v16a8 8 0 0 1 -8 8h-16a8 8 0 0 1 -8-8zm-24 56h16a8 8 0 0 1 8 8v16a8 8 0 0 1 -8 8h-16a8 8 0 0 1 -8-8v-16a8 8 0 0 1 8-8zm-40-56a8 8 0 0 1 8-8h16a8 8 0 0 1 8 8v16a8 8 0 0 1 -8 8h-16a8 8 0 0 1 -8-8zm-24 56h16a8 8 0 0 1 8 8v16a8 8 0 0 1 -8 8h-16a8 8 0 0 1 -8-8v-16a8 8 0 0 1 8-8zm-40-56a8 8 0 0 1 8-8h16a8 8 0 0 1 8 8v16a8 8 0 0 1 -8 8h-16a8 8 0 0 1 -8-8zm-40 24h-16a8 8 0 0 1 -8-8v-16a8 8 0 0 1 8-8h16a8 8 0 0 1 8 8v16a8 8 0 0 1 -8 8zm32 64h-16a8 8 0 0 1 -8-8v-16a8 8 0 0 1 8-8h16a8 8 0 0 1 8 8v16a8 8 0 0 1 -8 8zm232 56a8 8 0 0 1 -8 8h-208a8 8 0 0 1 -8-8v-16a8 8 0 0 1 8-8h208a8 8 0 0 1 8 8zm32-64a8 8 0 0 1 -8 8h-16a8 8 0 0 1 -8-8v-16a8 8 0 0 1 8-8h16a8 8 0 0 1 8 8zm32-64a8 8 0 0 1 -8 8h-16a8 8 0 0 1 -8-8v-16a8 8 0 0 1 8-8h16a8 8 0 0 1 8 8z"/></svg>