<svg viewBox="0 0 640 512"><path d="m33.69349 481.68406a15.99575 15.99575 0 0 0 7.15608 21.46486l14.31606 7.15821a15.99982 15.99982 0 0 0 21.46437-7.1543l81.6855-163.37907a15.72566 15.72566 0 0 0 1.57027-5.79492 454.09335 454.09335 0 0 1 -45.60046-13.47658zm572.61124 0-80.584-161.17789a454.76672 454.76672 0 0 1 -45.60828 13.47462 16.02422 16.02422 0 0 0 1.57027 5.793l81.68554 163.37907a16.00317 16.00317 0 0 0 21.46823 7.1543l14.31607-7.15821a15.99761 15.99761 0 0 0 7.15217-21.46489zm-286.29781-481.68406a150.8559 150.8559 0 0 0 -150.85574 150.85757c0 2.69531.26561 5.32617.40624 7.99024 45.92858 20.86135 96.62267 33.15237 150.4495 33.15237s104.52093-12.291 150.44951-33.15237c.14062-2.66407.40624-5.29493.40624-7.99024a150.8559 150.8559 0 0 0 -150.85575-150.85757z" opacity=".4"/><path d="m464.96438 111.33409c3.453 12.67384 5.89829 25.75393 5.89829 39.52348 0 2.69531-.26562 5.32617-.40624 7.99024-45.92858 20.86135-96.62268 33.15237-150.44951 33.15237s-104.52092-12.291-150.4495-33.15237c-.14063-2.66407-.40624-5.29493-.40624-7.99024 0-13.76955 2.44525-26.84964 5.89829-39.52348-85.45888 19.4258-143.03562 55.39068-143.03562 96.66611 0 61.85553 128.9383 112.00011 287.99307 112.00011s287.99308-50.14458 287.99308-112.00011c0-41.27543-57.57674-77.24031-143.03562-96.66611zm-336.95284 120.66613a24 24 0 1 1 23.99942-24 24.0009 24.0009 0 0 1 -23.99942 24zm191.99538 48a24 24 0 1 1 23.99943-24 24.00091 24.00091 0 0 1 -23.99943 24.00005zm191.99539-48a24 24 0 1 1 23.99942-24 24.00091 24.00091 0 0 1 -23.99942 24z"/></svg>