<svg viewBox="0 0 640 512"><path d="m253 448 72.9-200.37 60.1 21.87-64.94 178.5z" opacity=".4"/><path d="m247.63 185.06 238.47 86.83c35.76-121.38 18.7-231.66-42.62-254a66.94 66.94 0 0 0 -23.09-4c-58.02.04-128.27 69.19-172.76 171.17zm-132.25-48.16 102.11 37.18c35.19-81.54 86.21-144.28 139-173.69a299.21 299.21 0 0 0 -248.49 111.79c-6.73 8.4-2.7 21.05 7.38 24.72zm406.09-76.4a226.81 226.81 0 0 1 13.2 55.19c5.74 49.89-1.42 108.23-18.95 167l102.62 37.31c10.09 3.67 21.31-3.43 21.57-14.17a299.4 299.4 0 0 0 -118.44-245.33zm38.53 387.5h-544a16 16 0 0 0 -16 16v32a16 16 0 0 0 16 16h544a16 16 0 0 0 16-16v-32a16 16 0 0 0 -16-16z"/></svg>