<svg viewBox="0 0 512 512"><path d="m129 383a12 12 0 0 1 16.37-.56 166.77 166.77 0 0 0 110.63 41.56c93.82 0 167.24-76 168-166.55.79-95.45-77.09-170.24-169.49-169.45a166.73 166.73 0 0 0 -113.2 45.25l-56.62-56.56a247.12 247.12 0 0 1 170.85-68.69c136.81-.24 248.46 111.19 248.46 248 0 137-111 248-248 248a247.11 247.11 0 0 1 -166.18-63.91l-.49-.46a12 12 0 0 1 0-17z" opacity=".4"/><path d="m49 41 134.06 134c15.09 15.15 4.38 41-17 41h-134.06a24 24 0 0 1 -24-24v-134.06c0-21.38 25.85-32.09 41-16.94z"/></svg>