<svg viewBox="0 0 640 512"><path d="m65.43 215a39.94 39.94 0 0 0 -17.36 33v56a16 16 0 0 1 -16 16h-16a16 16 0 0 1 -16-16v-56a88 88 0 0 1 88-88h1.39a95.59 95.59 0 0 0 -24.03 55zm573.26-179.45a8 8 0 0 0 -6.62-3.55h-100.13a52.6 52.6 0 0 1 -10.28 8.3c5.11 5.38 9.91 10.5 13.69 14.5a31.75 31.75 0 0 1 8.59 21.8v6.76l92.54-36.71a8 8 0 0 0 2.21-11.1z" opacity=".4"/><path d="m535.35 54.8c-3.78-4-8.58-9.12-13.69-14.5 11.06-6.84 19.5-17.49 22.18-30.66a8.08 8.08 0 0 0 -6.39-9.49 8 8 0 0 0 -1.54-.15h-120a128 128 0 0 0 -128 128h-126.91a96 96 0 0 0 -65.56 166.12l-25.62 68.36a64 64 0 0 0 -2.16 38l24.85 99.41a16 16 0 0 0 15.49 12.11h66a16 16 0 0 0 15.52-19.88l-26.33-105.26 23.81-63.59 101 22.31v150.42a16 16 0 0 0 16 16h64a16 16 0 0 0 16-16v-177.78a111.49 111.49 0 0 0 32-78.22c0-.22-.07-.42-.08-.64v-15.36l.08-32a1.15 1.15 0 0 1 -.08.41v-55.52h.08l15.93 7.11 18.9 37.7a32 32 0 0 0 40.49 15.37l32.55-13a32 32 0 0 0 20.13-29.76l-.06-77.71a31.75 31.75 0 0 0 -8.59-21.8zm-55.42 41.2a16 16 0 1 1 16-16 16 16 0 0 1 -16 16z"/></svg>