<svg viewBox="0 0 512 512"><path d="m264.49 366.31a12 12 0 0 0 -17 0l-44.65 44.69a72 72 0 0 1 -101.84-101.84l44.67-44.67a12 12 0 0 0 0-17l-39.6-39.6a12 12 0 0 0 -17 0l-44.62 44.7c-59.27 59.27-59.27 155.7 0 215s155.7 59.26 215 0l44.67-44.67a12 12 0 0 0 0-17zm203.06-321.86c-59.26-59.27-155.69-59.27-215 0l-44.63 44.67a12 12 0 0 0 0 17l39.6 39.6a12 12 0 0 0 17 0l44.64-44.72a72 72 0 1 1 101.84 101.84l-44.67 44.67a12 12 0 0 0 0 17l39.6 39.59a12 12 0 0 0 17 0l44.67-44.67c59.22-59.29 59.22-155.72-.05-214.98z" opacity=".4"/><path d="m63.6 7 441.4 441.4a24 24 0 0 1 0 33.94l-22.66 22.66a24 24 0 0 1 -33.94 0l-441.4-441.4a24 24 0 0 1 0-33.94l22.66-22.66a24 24 0 0 1 33.94 0z"/></svg>