<svg viewBox="0 0 512 512"><path d="m488 351.92h-136v8a56 56 0 0 1 -56 56h-80a56 56 0 0 1 -56-56v-8h-136a23.94 23.94 0 0 0 -24 24v112a23.94 23.94 0 0 0 24 24h464a23.94 23.94 0 0 0 24-24v-112a23.94 23.94 0 0 0 -24-24zm-120 132a20 20 0 1 1 20-20 20.06 20.06 0 0 1 -20 20zm64 0a20 20 0 1 1 20-20 20.06 20.06 0 0 1 -20 20z" opacity=".4"/><path d="m192 359.93v-168h-87.7c-17.8 0-26.7-21.5-14.1-34.11l152.1-152.2a19.37 19.37 0 0 1 27.3 0l152.2 152.2c12.6 12.61 3.7 34.11-14.1 34.11h-87.7v168a23.94 23.94 0 0 1 -24 24h-80a23.94 23.94 0 0 1 -24-24z"/></svg>