<svg viewBox="0 0 640 512"><path d="m622.3 271.1-115.2-45a31 31 0 0 0 -22.2 0l-115.2 45c-10.7 4.2-17.7 14-17.7 24.9 0 111.6 68.7 188.8 132.9 213.9a31 31 0 0 0 22.2 0c51.3-20 132.9-89.4 132.9-213.9 0-10.9-7-20.7-17.7-24.9zm-126.3 191.3v-189.1l95.5 37.3c-5.6 87.1-60.9 135.4-95.5 151.8z" opacity=".4"/><path d="m224 256a128 128 0 1 0 -128-128 128 128 0 0 0 128 128zm96 40c0-2.5.8-4.8 1.1-7.2-2.5-.1-4.9-.8-7.5-.8h-16.7a174.08 174.08 0 0 1 -145.8 0h-16.7a134.43 134.43 0 0 0 -134.4 134.4v41.6a48 48 0 0 0 48 48h352a49.22 49.22 0 0 0 19.2-4c-54-42.9-99.2-116.7-99.2-212z"/></svg>