<svg viewBox="0 0 640 512"><path d="m608 288h-144v-79.33c0-17.44 13.67-32.18 31.1-32.66a32 32 0 0 1 32.9 31.99 16 16 0 0 0 16 16h17a15 15 0 0 0 15-15c0-43.28-34-79.51-77.26-80.95a80 80 0 0 0 -82.74 79.95v80h-32a32 32 0 0 0 -32 32v160a32 32 0 0 0 32 32h224a32 32 0 0 0 32-32v-160a32 32 0 0 0 -32-32zm-112 144a32 32 0 1 1 32-32 32 32 0 0 1 -32 32z" opacity=".4"/><path d="m224 256a128 128 0 1 0 -128-128 128 128 0 0 0 128 128zm96 64a63.07 63.07 0 0 1 8.1-30.5c-4.8-.5-9.5-1.5-14.5-1.5h-16.7a174.1 174.1 0 0 1 -145.8 0h-16.7a134.43 134.43 0 0 0 -134.4 134.4v41.6a48 48 0 0 0 48 48h280.9a63.58 63.58 0 0 1 -8.9-32z"/></svg>