<svg viewBox="0 0 448 512"><path d="m306 30.48-66 49.52h102.51a127.7 127.7 0 0 0 -36.51-49.52zm-226 269.22v212.3h128.26l-98.45-221.52a132.86 132.86 0 0 0 -29.81 9.22zm197.37-287.7a127.05 127.05 0 0 0 -171.88 68h81.19z" opacity=".4"/><path d="m256 416h-55.38l42.67 96h12.71a48 48 0 0 0 0-96zm96-288c0-5.48-.95-10.7-1.61-16h-252.78c-.67 5.3-1.61 10.52-1.61 16a128 128 0 0 0 256 0zm-38.4 160h-16.71a174 174 0 0 1 -145.78 0h-7.37l42.67 96h69.59a80.09 80.09 0 0 1 80 80 79.24 79.24 0 0 1 -16.41 48h80.41a48 48 0 0 0 48-48v-41.6a134.4 134.4 0 0 0 -134.4-134.4zm-313.6 134.4v41.6a48 48 0 0 0 48 48v-191.76c-29.12 24.65-48 61.02-48 102.16z"/></svg>