<svg viewBox="0 0 448 512"><path d="m176 240h-32v32h32zm0 208a15.99954 15.99954 0 0 0 -16 16v48h32v-48a15.99954 15.99954 0 0 0 -16-16zm-176-302v92a17.97968 17.97968 0 0 0 18 18h30v-128h-30a17.97843 17.97843 0 0 0 -18 18zm430-18h-30v128h30a17.97718 17.97718 0 0 0 18-18v-92a17.97594 17.97594 0 0 0 -18-18zm-222 144h32v-32h-32zm64 0h32v-32h-32zm0 176a16 16 0 1 0 16 16 15.99954 15.99954 0 0 0 -16-16zm-48-448a15.99954 15.99954 0 0 0 -16 16v48h32v-48a15.99954 15.99954 0 0 0 -16-16z" opacity=".4"/><path d="m116 320h216a36.0356 36.0356 0 0 0 36-36v-175a44.98286 44.98286 0 0 0 -45-45h-198a44.98536 44.98536 0 0 0 -45 45v175a36.03811 36.03811 0 0 0 36 36zm188-48h-32v-32h32zm-16-144a32 32 0 1 1 -32 32 31.99658 31.99658 0 0 1 32-32zm-80 112h32v32h-32zm-32 32h-32v-32h32zm-16-144a32 32 0 1 1 -32 32 31.99658 31.99658 0 0 1 32-32zm192 224h-256a95.99975 95.99975 0 0 0 -96 96v32a32.00158 32.00158 0 0 0 32 32h96v-64a32.00033 32.00033 0 0 1 32-32h128a32.00033 32.00033 0 0 1 32 32v64h96a32.00158 32.00158 0 0 0 32-32v-32a95.99975 95.99975 0 0 0 -96-96z"/></svg>