<svg viewBox="0 0 448 512"><path d="m296 96h-144c-26.5 0-48 17.9-48 40v24a96 96 0 0 0 96 96h48a96 96 0 0 0 96-96v-24c0-22.1-21.5-40-48-40zm-108 76-12 36-12-36-36-12 36-12 12-36 12 36 36 12zm-12 276a16 16 0 0 0 -16 16v48h32v-48a16 16 0 0 0 -16-16zm96 0a16 16 0 1 0 16 16 16 16 0 0 0 -16-16z" opacity=".4"/><path d="m327.6 321.4a190.68 190.68 0 0 1 -207.2 0c-67.5 7.1-120.4 63.6-120.4 133v9.6a48 48 0 0 0 48 48h80v-64a32 32 0 0 1 32-32h128a32 32 0 0 1 32 32v64h80a48 48 0 0 0 48-48v-9.6c0-69.4-52.9-125.9-120.4-133zm-263.6-97.4h13.5a159.78 159.78 0 0 0 293 0h13.5a16 16 0 0 0 16-16v-96a16 16 0 0 0 -16-16h-13.5a159.78 159.78 0 0 0 -293 0h-13.5a16 16 0 0 0 -16 16v96a16 16 0 0 0 16 16zm40-88c0-22.1 21.5-40 48-40h144c26.5 0 48 17.9 48 40v24a96 96 0 0 1 -96 96h-48a96 96 0 0 1 -96-96z"/></svg>