<svg viewBox="0 0 640 512"><path d="m636.3 388.2-25.8-14.9a117.31 117.31 0 0 0 0-42.6l25.8-14.9a7.24 7.24 0 0 0 3.3-8.5 150.07 150.07 0 0 0 -33.2-57.4 7.29 7.29 0 0 0 -9-1.4l-25.8 14.9a117.4 117.4 0 0 0 -36.9-21.3v-29.8a7.28 7.28 0 0 0 -5.7-7.1 150.88 150.88 0 0 0 -66.2 0 7.28 7.28 0 0 0 -5.7 7.1v29.8a117.4 117.4 0 0 0 -36.9 21.3l-25.8-14.9a7.31 7.31 0 0 0 -9 1.4 150.07 150.07 0 0 0 -33.2 57.4 7.37 7.37 0 0 0 3.3 8.5l25.8 14.9a117.31 117.31 0 0 0 0 42.6l-25.8 14.9a7.24 7.24 0 0 0 -3.3 8.5 150.82 150.82 0 0 0 33.2 57.4 7.29 7.29 0 0 0 9 1.4l25.8-14.9a117.4 117.4 0 0 0 36.9 21.3v29.8a7.28 7.28 0 0 0 5.7 7.1 150.88 150.88 0 0 0 66.2 0 7.28 7.28 0 0 0 5.7-7.1v-29.8a117.4 117.4 0 0 0 36.9-21.3l25.8 14.9a7.31 7.31 0 0 0 9-1.4 150.07 150.07 0 0 0 33.2-57.4 7.37 7.37 0 0 0 -3.3-8.5zm-140.3 12.3a48.5 48.5 0 1 1 48.5-48.5 48.55 48.55 0 0 1 -48.5 48.5z" opacity=".4"/><path d="m425.2 491.7v-9.2c-2.3-1.2-4.6-2.6-6.8-3.9l-7.9 4.6a39.23 39.23 0 0 1 -48.5-7.3 182.34 182.34 0 0 1 -40.2-69.6 39.11 39.11 0 0 1 17.9-45.7l7.9-4.6q-.15-3.9 0-7.8l-7.9-4.6a39.07 39.07 0 0 1 -17.9-45.7c.9-2.9 2.2-5.8 3.2-8.7-3.8-.3-7.5-1.2-11.4-1.2h-16.7a174.08 174.08 0 0 1 -145.8 0h-16.7a134.43 134.43 0 0 0 -134.4 134.4v41.6a48 48 0 0 0 48 48h352a47.94 47.94 0 0 0 27.2-8.5 39 39 0 0 1 -2-11.8zm-201.2-235.7a128 128 0 1 0 -128-128 128 128 0 0 0 128 128z"/></svg>