<svg viewBox="0 0 640 512"><path d="m592 0h-384c-26.47 0-48 22.25-48 49.59v46.41c23.42 0 45.1 6.78 64 17.8v-49.8h352v288h-268.24a127.45 127.45 0 0 1 39.69 64h244.55c26.47 0 48-22.25 48-49.59v-316.82c0-27.34-21.53-49.59-48-49.59zm-280 217.94 55 55a24 24 0 0 0 34 .06l72-72 24.3 24.3c11.34 11.34 30.73 3.31 30.73-12.73v-88.57a12 12 0 0 0 -12-12h-88.57c-16 0-24.07 19.39-12.73 30.73l24.27 24.27-55 55-55-55a24 24 0 0 0 -34 0l-14.75 14.75c4.75 13.32 7.75 27.38 7.75 42.25a126.17 126.17 0 0 1 -2 19.95z" opacity=".4"/><path d="m160 320a96 96 0 1 0 -96-96 96 96 0 0 0 96 96zm48 32h-3.81c-13.93 4.83-28.64 8-44.19 8s-30.26-3.17-44.19-8h-3.81a112 112 0 0 0 -112 112 48 48 0 0 0 48 48h224a48 48 0 0 0 48-48 112 112 0 0 0 -112-112z"/></svg>