<svg viewBox="0 0 640 512"><path d="m608 217a95.26 95.26 0 0 0 -64-25v-128h-448v128a95.28 95.28 0 0 0 -64 25v-167.41c0-27.34 21.53-49.59 48-49.59h480c26.47 0 48 22.25 48 49.59z" opacity=".4"/><path d="m576 384h-64a64 64 0 0 0 -64 64v32a32 32 0 0 0 32 32h128a32 32 0 0 0 32-32v-32a64 64 0 0 0 -64-64zm-32-32a64 64 0 1 0 -64-64 64 64 0 0 0 64 64zm-192 32h-64a64 64 0 0 0 -64 64v32a32 32 0 0 0 32 32h128a32 32 0 0 0 32-32v-32a64 64 0 0 0 -64-64zm-224 0h-64a64 64 0 0 0 -64 64v32a32 32 0 0 0 32 32h128a32 32 0 0 0 32-32v-32a64 64 0 0 0 -64-64zm192-32a64 64 0 1 0 -64-64 64 64 0 0 0 64 64zm-224 0a64 64 0 1 0 -64-64 64 64 0 0 0 64 64z"/></svg>