<svg viewBox="0 0 448 512"><path d="m342.94531 174.59766c-2.30468.52734-4.48437 1.40234-6.94531 1.40234h-224c-2.46094 0-4.64062-.875-6.94531-1.40234 18.66406 47.58593 64.74219 81.40234 118.94531 81.40234s100.28125-33.81641 118.94531-81.40234zm-118.94531-174.59766c-40.25 0-75.71875 18.95312-99.17969 48h198.35938c-23.46094-29.04688-58.92969-48-99.17969-48zm101.92188 353.5625a3.97907 3.97907 0 0 0 -3.0625-1.5625 4.30688 4.30688 0 0 0 -3.14063 1.39062c-19.82813 23-31.82813 53.10938-35.70313 89.5a4.03446 4.03446 0 0 0 2.04688 3.92188 4.11332 4.11332 0 0 0 4.39063-.34375c24.85937-19.32813 33.75-23.8125 37.04687-24.8125a5.72785 5.72785 0 0 1 1.375-.375c2.23438 1.98437 7.67188 7.84375 19.85938 25.03125a4.01561 4.01561 0 0 0 3.26562 1.6875 4.06431 4.06431 0 0 0 1.28125-.20312 3.992 3.992 0 0 0 2.71875-3.92188c-1.15625-35.34375-11.26562-65.71875-30.07812-90.3125z" opacity=".4"/><path d="m313.59375 288h-16.6875a174.10379 174.10379 0 0 1 -145.8125 0h-16.6875a134.44134 134.44134 0 0 0 -134.40625 134.40625v41.59375a48.01238 48.01238 0 0 0 48 48h352a48.01238 48.01238 0 0 0 48-48v-41.59375a134.44134 134.44134 0 0 0 -134.40625-134.40625zm39.6875 159.79688a4.06431 4.06431 0 0 1 -1.28125.20312 4.01561 4.01561 0 0 1 -3.26562-1.6875c-12.1875-17.1875-17.625-23.04688-19.85938-25.03125a5.72785 5.72785 0 0 0 -1.375.375c-3.29688 1-12.1875 5.48437-37.04687 24.8125a4.11332 4.11332 0 0 1 -4.39063.34375 4.03446 4.03446 0 0 1 -2.04688-3.92188c3.875-36.39062 15.875-66.5 35.70313-89.5a4.30688 4.30688 0 0 1 3.14063-1.39062 3.97907 3.97907 0 0 1 3.0625 1.5625c18.8125 24.59375 28.92187 54.96875 30.07812 90.3125a3.992 3.992 0 0 1 -2.71875 3.92188zm-241.28125-271.79688h224a32.00158 32.00158 0 0 0 32-32v-64a32.00033 32.00033 0 0 0 -32-32h-224a32.00034 32.00034 0 0 0 -32 32v64a32.00158 32.00158 0 0 0 32 32zm16-80h192v32h-192z"/></svg>