<svg viewBox="0 0 448 512"><path d="m255.38 421.22-31.38 58.78-31.38-58.78 15.38-69.22-17.79-35.58a161.25 161.25 0 0 0 67.58 0l-17.79 35.58zm-31.38-133.22a128 128 0 0 0 128-127.21c-7.49 1.54-15.51 3-24 4.2v6.59c-.11.11-6.07 3.47-6.93 6.28-4.23 12.9-7.59 26.65-17.88 36.19-10.94 10.07-52 24.26-69.33-27.09-3-9.1-16.69-9.1-19.83 0-18.41 54.39-60.66 35.1-69.33 27.09-10.29-9.54-13.76-23.29-17.88-36.19-.86-2.7-6.82-6.17-6.82-6.28v-6.58c-8.48-1.25-16.5-2.66-24-4.2a128 128 0 0 0 128 127.2z" opacity=".4"/><path d="m120 165v6.59c0 .11 6 3.58 6.82 6.28 4.12 12.9 7.59 26.65 17.88 36.19 8.67 8 50.92 27.3 69.33-27.09 3.14-9.1 16.79-9.1 19.83 0 17.33 51.35 58.39 37.16 69.33 27.09 10.29-9.54 13.65-23.29 17.88-36.19.86-2.81 6.82-6.17 6.93-6.28v-6.59c52.95-7.83 88-21.47 88-37 0-13.75-27.51-26-70.6-34.09-9.35-32.11-26.69-64.08-40-80.72a32.1 32.1 0 0 0 -39.5-8.8l-27.6 13.8a32 32 0 0 1 -28.6 0l-27.6-13.8a32.1 32.1 0 0 0 -39.5 8.8c-13.22 16.64-30.6 48.61-40 80.72-43.09 8.09-70.6 20.34-70.6 34.09 0 15.52 35.05 29.16 88 37zm263.9 143.27 23.9-62.58a16 16 0 0 0 -15-21.7h-32.12l-136.68 256.01-136.68-256h-31a16 16 0 0 0 -14.7 22.3l25.74 60.06a133.56 133.56 0 0 0 -67.36 116.04v41.6a48 48 0 0 0 48 48h352a48 48 0 0 0 48-48v-41.6a133.5 133.5 0 0 0 -64.1-114.13z"/></svg>