<svg viewBox="0 0 640 512"><path d="m635.2 194.4-45.6 45.6 45.6 45.6a16.11 16.11 0 0 1 0 22.8l-22.8 22.8a16.11 16.11 0 0 1 -22.8 0l-45.6-45.6-45.6 45.6a16.11 16.11 0 0 1 -22.8 0l-22.8-22.8a16.11 16.11 0 0 1 0-22.8l45.6-45.6-45.6-45.6a16.11 16.11 0 0 1 0-22.8l22.8-22.8a16.11 16.11 0 0 1 22.8 0l45.6 45.6 45.6-45.6a16.11 16.11 0 0 1 22.8 0l22.8 22.8a16.11 16.11 0 0 1 0 22.8z" opacity=".4"/><path d="m313.6 288h-16.7a174.08 174.08 0 0 1 -145.8 0h-16.7a134.43 134.43 0 0 0 -134.4 134.4v41.6a48 48 0 0 0 48 48h352a48 48 0 0 0 48-48v-41.6a134.43 134.43 0 0 0 -134.4-134.4zm-89.6-32a128 128 0 1 0 -128-128 128 128 0 0 0 128 128z"/></svg>