<svg viewBox="0 0 448 512"><path d="m352 224.28v.22a128 128 0 0 1 -256 0v-.23c32.26 18.65 74.19 32.23 128 32.23s95.71-13.57 128-32.22z" opacity=".4"/><path d="m313.59 384h-16.68a174.12 174.12 0 0 1 -145.82 0h-16.68a133.82 133.82 0 0 0 -124.86 85.8c-7.89 20.39 8.53 42.2 30.45 42.2h368.1c21.87 0 38.29-21.81 30.4-42.2a133.82 133.82 0 0 0 -124.91-85.8zm28.91-270.44c-11.06-49.56-31.63-113.56-64.4-113.56-10.33 0-19.55 4.45-27.3 10.47a42.41 42.41 0 0 1 -52.07 0c-7.73-6.02-16.97-10.47-27.3-10.47-32.88 0-53.49 64.49-64.51 114.09 26.08 9.91 63.83 18.48 117.08 18.48 54.18 0 92.36-8.84 118.5-19.01zm96-15.76a18.2 18.2 0 0 0 -21.95 5.2c-.43.57-44.81 61.59-192.55 61.59-146.88-.02-191.6-60.38-192.54-61.59a18 18 0 0 0 -21.79-5.37c-7.76 3.53-11.51 11.84-8.79 19.44.52 1.39 51.87 138.93 223.12 138.93s222.61-137.54 223.13-138.93c2.69-7.54-1.03-15.69-8.66-19.27z"/></svg>