<svg viewBox="0 0 448 512"><path d="m97.61 208h252.78c-7.95 63.06-61.17 112-126.39 112s-118.44-48.94-126.39-112z" opacity=".4"/><path d="m313.6 352h-16.7a174.1 174.1 0 0 1 -145.8 0h-16.7a134.4 134.4 0 0 0 -134.4 134.4 25.6 25.6 0 0 0 25.6 25.6h396.8a25.6 25.6 0 0 0 25.6-25.6 134.4 134.4 0 0 0 -134.4-134.4zm-225.6-176h272a8 8 0 0 0 8-8v-32a8 8 0 0 0 -8-8h-8a112 112 0 0 0 -68.4-103.2l-27.6 55.2v-64a16 16 0 0 0 -16-16h-32a16 16 0 0 0 -16 16v64l-27.6-55.2a112 112 0 0 0 -68.4 103.2h-8a8 8 0 0 0 -8 8v32a8 8 0 0 0 8 8z"/></svg>