<svg viewBox="0 0 448 512"><path d="m351.75 168a128 128 0 0 1 -255.5 0z" opacity=".4"/><path d="m13.6 79.83 6.4 1.5v58.4c-7 4.19-12 11.5-12 20.27 0 8.4 4.6 15.4 11.1 19.71l-15.6 62.29c-1.7 6.9 2.1 14 7.6 14h41.8c5.5 0 9.3-7.1 7.6-14l-15.6-62.27c6.5-4.31 11.1-11.31 11.1-19.73 0-8.79-5-16.1-12-20.29v-52.59l52 12.53v36.35h256v-36.35l82.3-19.82c18.2-4.41 18.2-27.1 0-31.5l-190.4-46a85.9 85.9 0 0 0 -39.7 0l-190.6 45.9c-18.1 4.39-18.1 27.19 0 31.6zm305.8 240.79-95.4 95.38-95.4-95.4c-71.5 3.13-128.6 61.63-128.6 133.82v9.58a48 48 0 0 0 48 48h352a48 48 0 0 0 48-48v-9.6c0-72.17-57.1-130.67-128.6-133.78z"/></svg>