<svg viewBox="0 0 448 512"><path d="m352 384h-34.38281c-19.65235 17.98828-39.02344 33.541-55.49219 45.84766a63.66049 63.66049 0 0 1 -76.25.00195c-16.46875-12.30661-35.83984-27.86133-55.49219-45.84961h-34.38281a95.99975 95.99975 0 0 0 -96 96 32.00158 32.00158 0 0 0 32 32h384a32.00158 32.00158 0 0 0 32-32 95.99975 95.99975 0 0 0 -96-96zm-146.96875 20.21484a31.65827 31.65827 0 0 0 37.9375 0c45.49219-33.99218 157.03125-126.70312 157.03125-218.53125 0-115.36523-78.82031-185.68359-176-185.68359-97.21094 0-176 70.31836-176 185.68359 0 91.82813 111.53906 184.53907 157.03125 218.53125zm34.96875-152.21484a60.00047 60.00047 0 0 1 60-60h24a12.00185 12.00185 0 0 1 12 12v8a60.00047 60.00047 0 0 1 -60 60h-24a12.00185 12.00185 0 0 1 -12-12zm-128-40v-8a12.00185 12.00185 0 0 1 12-12h24a60.00047 60.00047 0 0 1 60 60v8a12.00185 12.00185 0 0 1 -12 12h-24a60.00047 60.00047 0 0 1 -60-60z" opacity=".4"/><path d="m324 192h-24a60.00047 60.00047 0 0 0 -60 60v8a12.00185 12.00185 0 0 0 12 12h24a60.00047 60.00047 0 0 0 60-60v-8a12.00185 12.00185 0 0 0 -12-12zm-176 0h-24a12.00185 12.00185 0 0 0 -12 12v8a60.00047 60.00047 0 0 0 60 60h24a12.00185 12.00185 0 0 0 12-12v-8a60.00047 60.00047 0 0 0 -60-60z"/></svg>