<svg viewBox="0 0 640 512"><path d="m512 224a128 128 0 1 0 128 128 128 128 0 0 0 -128-128zm64 144a5.33 5.33 0 0 1 -5.33 5.33h-37.34v37.34a5.33 5.33 0 0 1 -5.33 5.33h-32a5.33 5.33 0 0 1 -5.33-5.33v-37.34h-37.34a5.33 5.33 0 0 1 -5.33-5.33v-32a5.33 5.33 0 0 1 5.33-5.33h37.34v-37.34a5.33 5.33 0 0 1 5.33-5.33h32a5.33 5.33 0 0 1 5.33 5.33v37.34h37.34a5.33 5.33 0 0 1 5.33 5.33z" opacity=".4"/><path d="m352 352c0-19.1 3.92-37.17 10.09-54.17a152.59 152.59 0 0 1 -42.09 6.17c-24.6 0-47.6-6-68.5-16h-8.3a115.23 115.23 0 0 0 -115.2 115.2v28.8a48 48 0 0 0 48 48h241c-39.22-29.19-65-75.47-65-128zm-256-128a64 64 0 1 0 -64-64 64 64 0 0 0 64 64zm77.1 50.6a63.81 63.81 0 0 0 -45.1-18.6h-64a64.06 64.06 0 0 0 -64 64v32a32 32 0 0 0 32 32h65.9a146.64 146.64 0 0 1 75.2-109.4zm146.78-18.6h.12a111.94 111.94 0 1 0 -.12 0z"/></svg>