<svg viewBox="0 0 640 512"><path d="m358.9 433.3-6.8 61a15.92 15.92 0 0 0 17.6 17.6l60.9-6.8 137.9-137.9-71.7-71.7zm274.1-164.4-37.9-37.9a24 24 0 0 0 -33.8 0l-37.8 37.8-4.1 4.1 71.8 71.7 41.8-41.8a24.08 24.08 0 0 0 0-33.9z" opacity=".4"/><path d="m313.6 288h-16.7a174.08 174.08 0 0 1 -145.8 0h-16.7a134.43 134.43 0 0 0 -134.4 134.4v41.6a48 48 0 0 0 48 48h274.9a48 48 0 0 1 -2.6-21.3l6.8-60.9 1.2-11.1 85.2-85.2c-24.5-27.7-60-45.5-99.9-45.5zm-89.6-32a128 128 0 1 0 -128-128 128 128 0 0 0 128 128z"/></svg>