<svg viewBox="0 0 640 512"><path d="m96 224a64 64 0 1 0 -64-64 64 64 0 0 0 64 64zm448 0a64 64 0 1 0 -64-64 64 64 0 0 0 64 64zm32 32h-64a63.78 63.78 0 0 0 -45.07 18.59 146.54 146.54 0 0 1 75.13 109.41h65.94a32 32 0 0 0 32-32v-32a64 64 0 0 0 -64-64zm-512 0a64 64 0 0 0 -64 64v32a32 32 0 0 0 32 32h65.94a146.54 146.54 0 0 1 75.13-109.41 63.78 63.78 0 0 0 -45.07-18.59zm256-224-48 24-48-24v80h192v-80l-48 24z" opacity=".4"/><path d="m320 256a96 96 0 0 0 96-96v-16h-192v16a96 96 0 0 0 96 96zm76.8 32h-8.31c-20.84 10-43.89 16-68.49 16s-47.64-6-68.49-16h-8.31a115.2 115.2 0 0 0 -115.2 115.2v28.8a48 48 0 0 0 48 48h288a48 48 0 0 0 48-48v-28.8a115.2 115.2 0 0 0 -115.2-115.2z"/></svg>