<svg viewBox="0 0 448 512"><path d="m304 128h-160a32 32 0 0 1 32-32h96a32 32 0 0 1 32 32z" opacity=".4"/><path d="m325.4 289.2-101.4 101.4-101.4-101.4c-68.6 6.1-122.6 63-122.6 133.2v41.6a48 48 0 0 0 48 48h352a48 48 0 0 0 48-48v-41.6c0-70.2-54-127.1-122.6-133.2zm-293.4-97.2a95.47 95.47 0 0 0 69.2-29.7c15.1 53.9 64 93.7 122.8 93.7a128 128 0 0 0 0-256c-50.4 0-93.6 29.4-114.5 71.8a95.53 95.53 0 0 0 -77.5-39.8 95.74 95.74 0 0 0 43.1 80 95.74 95.74 0 0 0 -43.1 80zm144-96h96a32 32 0 0 1 32 32h-160a32 32 0 0 1 32-32z"/></svg>