<svg viewBox="0 0 448 512"><path d="m416 192v16a112.15 112.15 0 0 1 -112 112h-96a32 32 0 0 1 0-64h32a32 32 0 0 1 32 32h32a80.09 80.09 0 0 0 80-80v-16c0-88.22-71.78-160-160-160s-160 71.78-160 160v16a16 16 0 0 1 -32 0v-16c0-105.87 86.13-192 192-192s192 86.13 192 192z" opacity=".4"/><path d="m320 352h-23.1a174.1 174.1 0 0 1 -145.8 0h-23.1a128 128 0 0 0 -128 128 32 32 0 0 0 32 32h384a32 32 0 0 0 32-32 128 128 0 0 0 -128-128zm-175.65-60.53c-.06-1.17-.35-2.28-.35-3.47a64.07 64.07 0 0 1 64-64h32a64 64 0 0 1 55.41 32h8.59a48.05 48.05 0 0 0 48-48v-16a128 128 0 0 0 -256 0c0 40.42 19.1 76 48.35 99.47z"/></svg>