<svg viewBox="0 0 640 512"><path d="m224 256a128 128 0 1 0 -128-128 128 128 0 0 0 128 128zm64 176c0-54.9 48.34-99.39 114.45-109.72-23.73-21.08-54.63-34.28-88.86-34.28h-16.68a174.12 174.12 0 0 1 -145.82 0h-16.68a134.43 134.43 0 0 0 -134.41 134.41v41.59a48 48 0 0 0 48 48h282.42c-26.29-20.19-42.42-48.34-42.42-80z" opacity=".4"/><path d="m598.94 97.33-96.53 28.51a32 32 0 0 0 -22.41 30.5v203.66a148.76 148.76 0 0 0 -48-8c-61.86 0-112 35.82-112 80s50.14 80 112 80 112-35.82 112-80v-187.85l73-21.39a32 32 0 0 0 23-30.71v-64.05a32 32 0 0 0 -41.06-30.67z"/></svg>