<svg viewBox="0 0 640 512"><path d="m173.09 274.59a63.78 63.78 0 0 0 -45.09-18.59h-64a64.06 64.06 0 0 0 -64 64v32a32 32 0 0 0 32 32h65.91a146.64 146.64 0 0 1 75.18-109.41zm258.91-130.59a111.93 111.93 0 0 0 -112-112c-57.13 0-103.68 42.83-110.6 98.07l151.6 117.15c41.44-16.29 71-55.92 71-103.22zm112 80a64 64 0 1 0 -64-64 64.06 64.06 0 0 0 64 64zm-448 0a63.5 63.5 0 0 0 36.65-11.68l-96.44-74.54a63.4 63.4 0 0 0 -4.21 22.22 64.06 64.06 0 0 0 64 64zm32 179.2v28.8a48 48 0 0 0 48 48h288a47.45 47.45 0 0 0 12.57-1.87l-244.57-189c-58.26 5.69-104 54.29-104 114.07zm448-147.2h-64a63.78 63.78 0 0 0 -45.09 18.59 146.3 146.3 0 0 1 75.09 109.41h66a32 32 0 0 0 32-32v-32a64.06 64.06 0 0 0 -64-64z" opacity=".4"/><path d="m6.19 53.91a16 16 0 0 1 -2.81-22.45l19.62-25.27a16 16 0 0 1 22.47-2.81l588.35 454.72a16 16 0 0 1 2.81 22.45l-19.63 25.27a16 16 0 0 1 -22.45 2.81z"/></svg>