<svg viewBox="0 0 512 512"><path d="m279.36 301.8-69.21-69.2c-20.9-45-13.1-97.3 28.69-139.1 27.62-27.5 111.79-87.2 116.16-90.3 18.8-13.71 52.89 19.9 37.5 39.3l-113.14 113.2c-1.7 3.79 9.5 14.69 12.89 12.89 21.4-19.19 117.75-105.29 120.07-107.29 19.3-14.1 52.49 19.1 38.4 38.4-2 2.2-88.09 98.6-107.28 120.1-1.8 3.4 9.09 14.6 12.89 12.9l113.18-113.2c19.4-15.3 53 18.7 39.29 37.4-3.1 4.39-62.78 88.6-90.38 116.2-41.89 42-94.08 49.6-139.06 28.7z" opacity=".4"/><path d="m98.84 503a27.24 27.24 0 0 1 -38.47 2c-.34-.31-.68-.62-1-.95l-51.37-51.3a27.18 27.18 0 0 1 -.12-38.44c.36-.36.74-.72 1.12-1.06l201.11-180.69 69.21 69.2h.06z"/></svg>