<svg viewBox="0 0 576 512"><path d="m74.8 424a32 32 0 0 0 -1.4 46.6l32 32a32 32 0 0 0 46.6-1.4l117.5-132.7-56.6-66.8zm471.7-329.18-93.8 81.18c-1.5 1.4-5.9-3-4.6-4.6l78.8-96.9c12.4-15.3-10.4-37.8-25.5-25.5l-96.9 78.8c-1.7 1.4-6-3.1-4.7-4.6l81.2-93.78c12.8-14.7-8.7-38-24.8-26.2-3.9 2.8-76.9 54.5-98.7 76.2-33.3 33.3-37.5 72.1-16.1 108.4-30.4 26.9-19.6 17.4-48.4 42.9l54 50.1c26.5-30 14.4-16.2 41-46.3 35 20.7 74.3 18.1 108.5-16.2 21.7-21.7 73.4-94.6 76.2-98.6 11.8-16.2-11.5-37.6-26.2-24.9z" opacity=".4"/><path d="m501.7 424.42a32 32 0 0 1 .8 46.1l-32 32a32.09 32.09 0 0 1 -46-.7c-19.1-22.6-200.6-236.5-208.5-245.82-160 0-216-90.08-216-223.88 0-27.9 33.3-42.5 53.8-23.5z"/></svg>