<svg viewBox="0 0 512 512"><path d="m131.55 312.57a16 16 0 0 0 -22.63 22.63l67.88 67.88a16 16 0 0 0 22.63-22.63zm22.63-67.88a16 16 0 0 0 -22.63 22.62l113.14 113.14a16 16 0 0 0 22.62-22.63zm135.76 45.25-67.88-67.88a16 16 0 0 0 -22.63 22.63l67.88 67.88a16 16 0 0 0 22.63-22.63z" opacity=".4"/><path d="m431.36 80.64c-96.85-96.85-253.87-96.85-350.72 0s-96.85 253.87 0 350.72 253.87 96.85 350.72 0 96.85-253.87 0-350.72zm-231.93 322.44a16 16 0 0 1 -22.63 0l-67.88-67.88a16 16 0 0 1 22.63-22.63l67.88 67.88a16 16 0 0 1 0 22.63zm67.88-22.63a16 16 0 0 1 -22.62 0l-113.14-113.14a16 16 0 0 1 22.63-22.62l113.13 113.13a16 16 0 0 1 0 22.63zm22.63-67.88a16 16 0 0 1 -22.63 0l-67.88-67.88a16 16 0 0 1 22.63-22.63l67.88 67.88a16 16 0 0 1 0 22.63zm90.51 67.88a16 16 0 0 1 -22.62-22.62c56.14-56.16 56.14-147.5 0-203.66s-147.5-56.15-203.66 0a16 16 0 0 1 -22.62-22.62c68.62-68.63 180.28-68.63 248.9 0s68.63 180.28 0 248.9z"/></svg>