<svg viewBox="0 0 640 512"><path d="m576 320v128a64 64 0 0 1 -64 64h-65.78a110.73 110.73 0 0 0 -94.22-190.39v-161.61a32 32 0 0 1 32-32c106 0 192 86 192 192z" opacity=".4"/><path d="m368 352a80 80 0 1 0 80 80 80 80 0 0 0 -80-80zm0 96a16 16 0 1 1 16-16 16 16 0 0 1 -16 16zm272-320a128.14 128.14 0 0 0 -128-128h-210.39c-59.97 0-112.61 42.56-125.17 101.19l-74.32 346.81h-54.12a48 48 0 0 0 -48 48 16 16 0 0 0 16 16h160a16 16 0 0 0 16-16v-32a16 16 0 0 0 -16-16h-8.41l71.41-333.41a64.33 64.33 0 0 1 62.61-50.59h210.39a64 64 0 0 1 13.47 126.51 191.73 191.73 0 0 1 35.9 56c-.15-.37-.26-.77-.41-1.14 46.2-19.26 79.04-64.24 79.04-117.37z"/></svg>