<svg viewBox="0 0 512 512"><path d="m48 32h-32a16 16 0 0 0 -16 16v416a16 16 0 0 0 16 16h32a16 16 0 0 0 16-16v-416a16 16 0 0 0 -16-16zm448 0h-32a16 16 0 0 0 -16 16v416a16 16 0 0 0 16 16h32a16 16 0 0 0 16-16v-416a16 16 0 0 0 -16-16z" opacity=".4"/><path d="m377.3 183.22-72.78 72.78 72.78 72.78a22.88 22.88 0 0 1 0 32.35l-16.17 16.17a22.88 22.88 0 0 1 -32.35 0l-72.78-72.78-72.78 72.78a22.88 22.88 0 0 1 -32.35 0l-16.17-16.17a22.88 22.88 0 0 1 0-32.35l72.78-72.78-72.78-72.78a22.88 22.88 0 0 1 0-32.35l16.17-16.17a22.88 22.88 0 0 1 32.35 0l72.78 72.78 72.78-72.78a22.88 22.88 0 0 1 32.35 0l16.17 16.17a22.88 22.88 0 0 1 0 32.35z"/></svg>