<svg viewBox="0 0 512 512"><path d="m160 480h192v-64h-192zm-128-128h64v-192h-64zm128-256h192v-64h-192zm256 64v192h64v-192z" opacity=".4"/><path d="m128 352h-96a32 32 0 0 0 -32 32v96a32 32 0 0 0 32 32h96a32 32 0 0 0 32-32v-96a32 32 0 0 0 -32-32zm-32 96h-32v-32h32zm384-96h-96a32 32 0 0 0 -32 32v96a32 32 0 0 0 32 32h96a32 32 0 0 0 32-32v-96a32 32 0 0 0 -32-32zm-32 96h-32v-32h32zm32-448h-96a32 32 0 0 0 -32 32v96a32 32 0 0 0 32 32h96a32 32 0 0 0 32-32v-96a32 32 0 0 0 -32-32zm-32 96h-32v-32h32zm-320-96h-96a32 32 0 0 0 -32 32v96a32 32 0 0 0 32 32h96a32 32 0 0 0 32-32v-96a32 32 0 0 0 -32-32zm-32 96h-32v-32h32z"/></svg>