<svg viewBox="0 0 576 512"><path d="m576 12v79a12 12 0 0 1 -12.1 12 11.73 11.73 0 0 1 -8.4-3.5l-16.9-16.9-48.7 48.7a144 144 0 0 1 -211.1 189.8 174.74 174.74 0 0 0 32.1-57.1 80 80 0 1 0 0-112 176.57 176.57 0 0 0 -32.1-57.1 144.17 144.17 0 0 1 165.9-8.8l48.7-48.7-16.9-16.9a12 12 0 0 1 8.5-20.5h79a12 12 0 0 1 12 12z" opacity=".4"/><path d="m288 208a144 144 0 1 0 -176 140.4v51.6h-36a12 12 0 0 0 -12 12v40a12 12 0 0 0 12 12h36v36a12 12 0 0 0 12 12h40a12 12 0 0 0 12-12v-36h36a12 12 0 0 0 12-12v-40a12 12 0 0 0 -12-12h-36v-51.6a144.12 144.12 0 0 0 112-140.4zm-144 80a80 80 0 1 1 80-80 80.11 80.11 0 0 1 -80 80z"/></svg>