<svg viewBox="0 0 448 512"><path d="m108.688 348.688-48 48a16 16 0 1 0 22.624 22.624l48-48a16 16 0 0 0 -22.624-22.624zm278.624 48-48-48a16 16 0 0 0 -22.624 22.624l48 48a16 16 0 0 0 22.624-22.624zm-80.624-392.657-25 16.672a103.794 103.794 0 0 1 -115.376 0l-25-16.672a24.021 24.021 0 0 0 -13.312-4.031l22.188 66.564a151.518 151.518 0 0 0 73.812 19.67 151.55 151.55 0 0 0 73.812-19.672l22.188-66.562a24.021 24.021 0 0 0 -13.312 4.031z" opacity=".4"/><path d="m437.252 239.877-53.252-79.877v-128a32 32 0 0 0 -32-32h-32l-96 288v224h192a32 32 0 0 0 32-32v-204.623a64 64 0 0 0 -10.748-35.5zm-49.94 179.435a15.992 15.992 0 0 1 -22.624 0l-48-48a16 16 0 0 1 22.624-22.624l48 48a15.993 15.993 0 0 1 0 22.624zm-291.312-419.312a32 32 0 0 0 -32 32v128l-53.252 79.877a64 64 0 0 0 -10.748 35.5v204.623a32 32 0 0 0 32 32h160v-224a31.987 31.987 0 0 1 1.643-10.119l13.492-40.481-79.135-237.4zm35.312 371.312-48 48a16 16 0 0 1 -22.624-22.624l48-48a16 16 0 0 1 22.624 22.624z"/></svg>