<svg viewBox="0 0 448 512"><path d="m306.688 4.031-25 16.672c-34.916 23.344-80.46 23.344-115.376 0l-25-16.672c-3.943-2.627-8.574-4.03-13.312-4.031l22.188 66.564c22.52 12.753 47.932 19.525 73.812 19.67 25.88-.147 51.291-6.92 73.812-19.672l22.188-66.562c-4.738.001-9.369 1.404-13.312 4.031zm51.812 282.51-5.051.037.037-5.057c.073-12.8-9.267-24.257-22.056-25.419-13.745-1.231-25.885 8.913-27.117 22.658-.058.653-.091 1.308-.098 1.963l-.215 48.577c-.016 3.684 2.958 6.684 6.642 6.7h.058l48.53-.215c13.778-.099 24.867-11.348 24.768-25.126-.005-.682-.038-1.363-.098-2.042-1.164-12.801-12.574-22.111-25.4-22.076zm-262.5 89.459c-22.091 0-40 17.909-40 40s17.909 40 40 40 40-17.909 40-40-17.909-40-40-40z" opacity=".4"/><path d="m437.252 239.877-53.252-79.877v-128c0-17.673-14.327-32-32-32h-32l-96 288v224h192c17.673 0 32-14.327 32-32v-204.623c0-12.635-3.74-24.987-10.748-35.5zm-75.978 95.809c-.681.061-1.363.094-2.047.099l-48.527.215c-3.684.016-6.684-2.958-6.7-6.642 0-.019 0-.039 0-.058l.215-48.574c.144-13.799 11.448-24.869 25.247-24.724.657.007 1.314.04 1.968.098 12.789 1.162 22.129 12.619 22.056 25.419l-.037 5.057 5.051-.037c12.826-.035 24.236 9.275 25.4 22.076 1.228 13.724-8.903 25.844-22.626 27.071zm-265.274-335.686c-17.673 0-32 14.327-32 32v128l-53.252 79.877c-7.008 10.513-10.748 22.865-10.748 35.5v204.623c0 17.673 14.327 32 32 32h160v-224c0-3.439.555-6.856 1.643-10.119l13.492-40.481-79.135-237.4zm0 456c-22.091 0-40-17.909-40-40s17.909-40 40-40 40 17.909 40 40-17.909 40-40 40zm32.5-183.516-15.516 15.516 15.516 15.516c4.643 4.737 4.566 12.341-.171 16.984-4.676 4.583-12.162 4.576-16.829-.016l-15.5-15.5-15.5 15.5c-4.728 4.652-12.332 4.59-16.984-.139-4.592-4.668-4.599-12.153-.016-16.829l15.516-15.516-15.516-15.516c-4.643-4.737-4.567-12.341.17-16.984 4.676-4.584 12.162-4.577 16.83.016l15.5 15.5 15.5-15.5c4.728-4.652 12.332-4.59 16.984.139 4.592 4.667 4.599 12.153.016 16.829z"/></svg>