<svg viewBox="0 0 512 512"><path d="m0 160v240a48 48 0 0 0 48 48h416a48 48 0 0 0 48-48v-240zm128 224h-48.86c-19.14-21.26-31.14-49.12-31.14-80s12-58.73 31.14-80h48.86zm192 0h-128v-160h128zm112.86 0h-48.86v-160h48.86c19.14 21.26 31.14 49.12 31.14 80s-12 58.73-31.14 80z" opacity=".4"/><path d="m496 64h-480a16 16 0 0 0 -16 16v80h512v-80a16 16 0 0 0 -16-16zm-112 160v34.94a47.73 47.73 0 0 1 0 90.12v34.94h48.86c19.14-21.27 31.14-49.13 31.14-80s-12-58.74-31.14-80zm-336 80c0 30.88 12 58.74 31.14 80h48.86v-34.94a47.73 47.73 0 0 1 0-90.12v-34.94h-48.86c-19.14 21.27-31.14 49.13-31.14 80z"/></svg>