<svg viewBox="0 0 480 512"><path d="m318 256-179.39 179.44a55.46 55.46 0 0 1 -78.39.06 55.46 55.46 0 0 1 -.09-78.44l100.87-101.06z" opacity=".4"/><path d="m477.65 186.12-168.2-167.79a8 8 0 0 0 -11.3 0l-34 33.9a8 8 0 0 0 0 11.29l11.2 11.1-242.35 241.91c-38.8 38.69-45.1 102-9.4 143.5a102.44 102.44 0 0 0 78 35.9h.4a102.75 102.75 0 0 0 72.9-30.09l246.3-245.71 11.2 11.1a8 8 0 0 0 11.3 0l34-33.89a7.92 7.92 0 0 0 -.05-11.22zm-336.65 245.72a54.65 54.65 0 0 1 -38.95 16h-.36a54.09 54.09 0 0 1 -41.69-19.08c-8.67-10.08-12.85-23.53-11.76-37.86a64.77 64.77 0 0 1 18.61-40.4l242.4-241.9 78 77.54z"/></svg>