<svg viewBox="0 0 640 512"><path d="m128 304a48 48 0 0 0 96 0v-144h-96zm288-144v144a48 48 0 0 0 96 0v-144z" opacity=".4"/><path d="m360 64h24v240a80 80 0 0 0 160 0v-240h24a8 8 0 0 0 8-8v-48a8 8 0 0 0 -8-8h-208a8 8 0 0 0 -8 8v48a8 8 0 0 0 8 8zm72 0h64v240a32 32 0 0 1 -64 0zm192 384h-608a16 16 0 0 0 -16 16v32a16 16 0 0 0 16 16h608a16 16 0 0 0 16-16v-32a16 16 0 0 0 -16-16zm-552-384h24v240a80 80 0 0 0 160 0v-240h24a8 8 0 0 0 8-8v-48a8 8 0 0 0 -8-8h-208a8 8 0 0 0 -8 8v48a8 8 0 0 0 8 8zm72 0h64v240a32 32 0 0 1 -64 0z"/></svg>