<svg viewBox="0 0 576 512"><path d="m525.6 101.8-109.6 75.5v157.4l109.6 75.5c21.3 14.6 50.4-.3 50.4-25.8v-256.9c0-25.4-29.1-40.4-50.4-25.7zm-237.6 130.2h-72v-72a16 16 0 0 0 -16-16h-16a16 16 0 0 0 -16 16v72h-72a16 16 0 0 0 -16 16v16a16 16 0 0 0 16 16h72v72a16 16 0 0 0 16 16h16a16 16 0 0 0 16-16v-72h72a16 16 0 0 0 16-16v-16a16 16 0 0 0 -16-16z" opacity=".4"/><path d="m336.2 64h-288.4a47.8 47.8 0 0 0 -47.8 47.8v288.4a47.8 47.8 0 0 0 47.8 47.8h288.4a47.8 47.8 0 0 0 47.8-47.8v-288.4a47.8 47.8 0 0 0 -47.8-47.8zm-32.2 200a16 16 0 0 1 -16 16h-72v72a16 16 0 0 1 -16 16h-16a16 16 0 0 1 -16-16v-72h-72a16 16 0 0 1 -16-16v-16a16 16 0 0 1 16-16h72v-72a16 16 0 0 1 16-16h16a16 16 0 0 1 16 16v72h72a16 16 0 0 1 16 16z"/></svg>