<svg viewBox="0 0 640 512"><path d="m160 192h64v-64h-64zm-64 160h64v-64h-64zm-32 144a16 16 0 0 0 16 16h32a16 16 0 0 0 16-16v-48h-64zm480-208h-64v64h64zm-32 160v48a16 16 0 0 0 16 16h32a16 16 0 0 0 16-16v-48zm-224 48a16 16 0 0 0 16 16h32a16 16 0 0 0 16-16v-48h-64zm192-368h-64v64h64z" opacity=".4"/><path d="m160 128h320l27.31-16.3a16 16 0 0 0 -4.16-25.62l-183.15-86.08-183.15 86.07a16 16 0 0 0 -4.16 25.62zm472.88 272.71-88.88-48.71h-448l-88.88 48.71a16 16 0 0 0 1.72 27.62l55.16 19.67h512l55.15-19.67a16 16 0 0 0 1.73-27.62zm-592-130.4 55.12 17.69h448l55.16-17.69a16 16 0 0 0 0-28.62l-119.16-49.69h-320l-119.16 49.69a16 16 0 0 0 0 28.62z"/></svg>