<svg viewBox="0 0 640 512"><path d="m457.77 227.48-39.83 39.83a16 16 0 0 1 -22.63 0l-22.62-22.62a16 16 0 0 1 0-22.63l39.83-39.83c-12.17-8.77-25.53-15.76-40.15-19.16-32.87-7.65-65.69-.93-88.56 21.05a79.09 79.09 0 0 1 4.19 24.28 79.78 79.78 0 0 1 -123.28 67.08 89.85 89.85 0 0 0 -7.16 6c-38.07 38-38.17 101.14-5.1 153.3l51.54-34.39a16 16 0 0 1 20.19 2l13.45 13.45a16 16 0 0 1 2 20.19l-34.35 51.53c52.16 33 115.31 32.85 153.26-5.12a89.77 89.77 0 0 0 6.23-7.48 79.27 79.27 0 0 1 91.09-118.96c21.92-22.84 28.6-55.6 21-88.4-3.36-14.6-10.34-27.95-19.1-40.12zm14.23-179.48a24 24 0 1 0 24 24 24 24 0 0 0 -24-24zm96 96a24 24 0 1 0 24 24 24 24 0 0 0 -24-24zm-48-144a24 24 0 1 0 24 24 24 24 0 0 0 -24-24zm96 96a24 24 0 1 0 24 24 24 24 0 0 0 -24-24z" opacity=".4"/><path d="m224.16 402.39a16 16 0 0 0 -20.19-2l-68.84 45.9a16 16 0 0 0 -2.44 24.62l36.4 36.4a16 16 0 0 0 24.62-2.44l45.9-68.87a16 16 0 0 0 -2-20.19zm111.84-397.7a16 16 0 0 0 -22.62 0l-308.69 308.69a16 16 0 0 0 0 22.62l11.31 11.31a16 16 0 0 0 22.62 0l308.69-308.69a16 16 0 0 0 0-22.62zm299.31 22.62-22.62-22.62a16 16 0 0 0 -22.63 0l-217.37 217.37a16 16 0 0 0 0 22.63l22.62 22.62a16 16 0 0 0 22.63 0l217.37-217.37a16 16 0 0 0 0-22.63z"/></svg>