<svg viewBox="0 0 640 512"><path d="m114 227.55h-21.57a28.45 28.45 0 0 0 0 56.89h21.57c50.68 0 76.07 61.28 40.23 97.12l-15.23 15.24a28.44 28.44 0 1 0 40.18 40.2l15.25-15.25c35.84-35.84 97.12-10.45 97.12 40.23v21.54a28.45 28.45 0 1 0 56.89 0v-21.52c0-26.61 17-45.91 38.22-53.37l-244.5-189a55.57 55.57 0 0 1 -28.16 7.92zm433.57 0h-21.57c-50.68 0-76.06-61.27-40.22-97.11l15.22-15.25a28.44 28.44 0 0 0 -40.2-40.19l-15.25 15.22c-35.83 35.83-97.11 10.45-97.11-40.23v-21.55a28.45 28.45 0 0 0 -56.89 0v21.56c0 50.68-61.28 76.06-97.12 40.23l-15.25-15.23a28.43 28.43 0 0 0 -40.18 0c-.13.14-.15.32-.28.45l133.84 103.44 62.87 48.59 135.18 104.52c4.17-25.4 24.91-47.52 55.39-47.52h21.55a28.45 28.45 0 1 0 0-56.89z" opacity=".4"/><path d="m636.63 480.55-19.63 25.26a16 16 0 0 1 -22.45 2.82l-588.37-454.72a16 16 0 0 1 -2.81-22.45l19.63-25.27a16 16 0 0 1 22.46-2.81l588.36 454.72a16 16 0 0 1 2.81 22.45z"/></svg>