<svg viewBox="0 0 512 512"><path d="m304.4 224h-96.8a32 32 0 0 0 -25.2 12.31l-55.6 71 13.2 16.49c9.8 12.2 30.3 12.2 40.1 0a57.37 57.37 0 0 1 44.1-21.6c17.2-1.5 33.6 7 44.8 20.1l31.6 36.8c9.8 11.4 29.2 11.4 39 0l45.1-52.6-55-70.2a32.2 32.2 0 0 0 -25.3-12.3zm47.6-208a63.3 63.3 0 0 0 -41.18 15.43 63.57 63.57 0 0 0 -109.62 0 63.38 63.38 0 0 0 -41.2-15.43 64 64 0 1 0 34.8 117.6l29.2 58.4h64l29.2-58.4a64 64 0 1 0 34.8-117.6z" opacity=".4"/><path d="m480 512h-447.9c-26.4 0-41.5-30.1-25.6-51.2l120.5-153.8-.24.31 13.24 16.49c9.8 12.2 30.3 12.2 40.1 0a57.37 57.37 0 0 1 44.1-21.6c17.2-1.5 33.6 7 44.8 20.1l31.6 36.8c9.8 11.4 29.2 11.4 39 0l45.1-52.6 120.8 154.3c15.9 21.13.8 51.2-25.5 51.2z"/></svg>