<svg viewBox="0 0 512 512"><path d="m0 328v-144a24 24 0 0 1 24-24h102.06l89-88.95c15-15 41-4.49 41 17v335.95c0 21.44-25.94 32-41 17l-89-88.95h-102.06a24 24 0 0 1 -24-24.05z" opacity=".4"/><path d="m324.72 210.36a16.14 16.14 0 0 1 0-22.82l22.82-22.82a16.14 16.14 0 0 1 22.82 0l45.64 45.64 45.64-45.64a16.14 16.14 0 0 1 22.82 0l22.82 22.82a16.14 16.14 0 0 1 0 22.82l-45.64 45.64 45.64 45.64a16.14 16.14 0 0 1 0 22.82l-22.82 22.82a16.14 16.14 0 0 1 -22.82 0l-45.64-45.64-45.63 45.63a16.14 16.14 0 0 1 -22.82 0l-22.82-22.82a16.14 16.14 0 0 1 0-22.82l45.63-45.63z"/></svg>