<svg viewBox="0 0 640 512"><path d="m393.11 107.22a23.9 23.9 0 0 1 33.12-7.46 185.33 185.33 0 0 1 62.51 246.24l-38.65-29.9a136.7 136.7 0 0 0 -49.57-175.52 24.29 24.29 0 0 1 -7.41-33.36zm60.68-46.79a233.7 233.7 0 0 1 73 315l38.52 29.78a282.1 282.1 0 0 0 -84.96-385.21 24.2 24.2 0 1 0 -26.56 40.46zm-106.72 160.76a40 40 0 0 1 20.75 31.32l42.92 33.18a86.79 86.79 0 0 0 5.26-29.69 87.89 87.89 0 0 0 -45.78-76.86 24 24 0 1 0 -23.16 42.06zm-59.07-30.37v-102.82c0-21.46-26-32-41-17l-49.7 49.69zm-256-6.82v144a24 24 0 0 0 24 24h102.06l88.94 89c15 15 41 4.47 41-17v-71.4l-244.24-188.76c-6.9 4.21-11.76 11.48-11.76 20.16z" opacity=".4"/><path d="m594.54 508.63-588.36-454.73a16 16 0 0 1 -2.81-22.45l19.63-25.27a16 16 0 0 1 22.47-2.81l588.35 454.73a16 16 0 0 1 2.82 22.45l-19.64 25.27a16 16 0 0 1 -22.46 2.81z"/></svg>