<svg viewBox="0 0 576 512"><path d="m0 328v-144a24 24 0 0 1 24-24h102.06l89-88.95c15-15 41-4.49 41 17v335.95c0 21.44-25.94 32-41 17l-89-88.95h-102.06a24 24 0 0 1 -24-24.05z" opacity=".4"/><path d="m338.23 179.13a24 24 0 1 0 -23.16 42.06 39.42 39.42 0 0 1 0 69.62 24 24 0 1 0 23.16 42.06 87.43 87.43 0 0 0 0-153.74zm141.77 76.87a184.64 184.64 0 0 0 -85.77-156.24 23.9 23.9 0 0 0 -33.12 7.46 24.29 24.29 0 0 0 7.41 33.36 136.67 136.67 0 0 1 0 230.84 24.28 24.28 0 0 0 -7.41 33.36 23.94 23.94 0 0 0 33.12 7.46 184.62 184.62 0 0 0 85.77-156.24zm-31.65-236a24.2 24.2 0 1 0 -26.56 40.46 233.65 233.65 0 0 1 0 391.16 24.2 24.2 0 1 0 26.56 40.38 282 282 0 0 0 0-472.07z"/></svg>