<svg viewBox="0 0 640 512"><path d="m512 64.3a32.29 32.29 0 0 0 -32.3-32.3h-319.3a32.37 32.37 0 0 0 -32.4 32.3v319.7h384zm-107.2 217.2-11.3 11.3a16.06 16.06 0 0 1 -22.6 0l-50.9-50.9-50.9 50.9a16.06 16.06 0 0 1 -22.6 0l-11.3-11.3a16.06 16.06 0 0 1 0-22.6l50.9-50.9-51-50.9a16.06 16.06 0 0 1 0-22.6l11.3-11.3a16.06 16.06 0 0 1 22.6 0l50.9 50.9 50.9-50.9a16.06 16.06 0 0 1 22.6 0l11.3 11.3a16.06 16.06 0 0 1 0 22.6l-50.8 50.9 50.9 50.9a16.06 16.06 0 0 1 0 22.6z" opacity=".4"/><path d="m286.1 208-50.9 50.9a16.06 16.06 0 0 0 0 22.6l11.3 11.3a16.06 16.06 0 0 0 22.6 0l50.9-50.9 50.9 50.9a16.06 16.06 0 0 0 22.6 0l11.3-11.3a16.06 16.06 0 0 0 0-22.6l-50.9-50.9 50.8-50.9a16.06 16.06 0 0 0 0-22.6l-11.3-11.3a16.06 16.06 0 0 0 -22.6 0l-50.9 50.9-50.9-50.9a16.06 16.06 0 0 0 -22.6 0l-11.3 11.3a16.06 16.06 0 0 0 0 22.6zm321.9 112h-64v64h22.4c5.3 0 9.6 3.6 9.6 8v16c0 4.4-4.3 8-9.6 8h-492.8c-5.3 0-9.6-3.6-9.6-8v-16c0-4.4 4.3-8 9.6-8h22.4v-64h-64a32 32 0 0 0 -32 32v96a32 32 0 0 0 32 32h576a32 32 0 0 0 32-32v-96a32 32 0 0 0 -32-32z"/></svg>