<svg viewBox="0 0 640 512"><path d="m224 224v-160c0-36.88-25.33-39.27-59.43-44.49l-125.02-19.12c-26-4-46.53 23.34-37.3 49.69l68.53 173.92zm160-168a40 40 0 0 0 -40-40h-48a40 40 0 0 0 -40 40v168h128zm216.45-55.61-125 19.12c-34.12 5.22-59.45 7.61-59.45 44.49v160h153.22l68.53-173.92c9.25-26.35-11.27-53.67-37.3-49.69zm-424.45 287.61a112 112 0 1 0 79.2 32.8 111.7 111.7 0 0 0 -79.2-32.8zm-16 173.74a62.48 62.48 0 0 1 -45.74-45.74h45.74zm0-77.74h-45.74a62.44 62.44 0 0 1 45.74-45.74zm61.25 61.25a63.43 63.43 0 0 1 -29.25 16.49v-45.74h45.74a63.43 63.43 0 0 1 -16.49 29.25zm-29.25-61.25v-45.74a62.44 62.44 0 0 1 45.74 45.74zm272-96a112 112 0 1 0 79.2 32.8 111.7 111.7 0 0 0 -79.2-32.8zm-16 173.74a62.48 62.48 0 0 1 -45.74-45.74h45.74zm0-77.74h-45.74a62.44 62.44 0 0 1 45.74-45.74zm61.25 61.25a63.43 63.43 0 0 1 -29.25 16.49v-45.74h45.74a63.34 63.34 0 0 1 -16.49 29.25zm-29.25-61.25v-45.74a62.44 62.44 0 0 1 45.74 45.74z" opacity=".4"/><path d="m560 256h-480a16 16 0 0 0 -16 16v32a16 16 0 0 0 16 16h17.79a111.8 111.8 0 0 1 157.41.8c25.95 26 36.12 61.46 31.27 95.2h67.06c-4.85-33.74 5.32-69.24 31.27-95.2a111.8 111.8 0 0 1 157.41-.8h17.79a16 16 0 0 0 16-16v-32a16 16 0 0 0 -16-16zm-144-216a8 8 0 0 0 -8-8h-16a8 8 0 0 0 -8 8v184h32zm-160 0a8 8 0 0 0 -8-8h-16a8 8 0 0 0 -8 8v184h32z"/></svg>