<svg viewBox="0 0 384 512"><path d="m352 96h-32v-16a16 16 0 0 0 -16-16h-32a16 16 0 0 0 -16 16v16h-32v-16a16 16 0 0 0 -16-16h-32a16 16 0 0 0 -16 16v16h-128a32.09 32.09 0 0 0 -32 32v178.74a32 32 0 0 0 9.38 22.63l22.62 22.63v112a48 48 0 0 0 48 48h224a48 48 0 0 0 48-48v-112l22.63-22.63a32 32 0 0 0 9.37-22.63v-178.74a32.09 32.09 0 0 0 -32-32zm-64 216a8 8 0 0 1 -8 8h-176a8 8 0 0 1 -8-8v-16a8 8 0 0 1 8-8h176a8 8 0 0 1 8 8zm0-64a8 8 0 0 1 -8 8h-176a8 8 0 0 1 -8-8v-16a8 8 0 0 1 8-8h176a8 8 0 0 1 8 8zm0-64a8 8 0 0 1 -8 8h-176a8 8 0 0 1 -8-8v-16a8 8 0 0 1 8-8h176a8 8 0 0 1 8 8z" opacity=".4"/><path d="m112 16a16 16 0 0 0 -16-16h-16a16 16 0 0 0 -16 16v80h48zm168 272h-176a8 8 0 0 0 -8 8v16a8 8 0 0 0 8 8h176a8 8 0 0 0 8-8v-16a8 8 0 0 0 -8-8zm0-64h-176a8 8 0 0 0 -8 8v16a8 8 0 0 0 8 8h176a8 8 0 0 0 8-8v-16a8 8 0 0 0 -8-8zm0-64h-176a8 8 0 0 0 -8 8v16a8 8 0 0 0 8 8h176a8 8 0 0 0 8-8v-16a8 8 0 0 0 -8-8z"/></svg>