<svg viewBox="0 0 512 512"><path d="m416 176v-28l-39.65 44h23.65a16 16 0 0 0 16-16zm-288 96v36.87l58.6-52.87h-42.6a16 16 0 0 0 -16 16zm-21.34-218.67-26.66-53.33-26.66 53.34-53.34 26.66 53.34 26.67 26.66 53.33 26.66-53.33 53.34-26.67zm352 288-26.66-53.33-26.66 53.33-53.34 26.67 53.34 26.67 26.66 53.33 26.66-53.33 53.34-26.67zm-234.66-341.33-16 32-32 16 32 16 16 32 16-32 32-16-32-16z" opacity=".4"/><path d="m507.87 46.18-410.71 455.26a32 32 0 0 1 -45.16 2.27q-.6-.54-1.17-1.11l-41.46-41.43a32 32 0 0 1 0-45.25c.38-.38.77-.75 1.16-1.11l455.26-410.7a16 16 0 0 1 22 .55l19.48 19.47a16 16 0 0 1 .6 22.05z"/></svg>