<svg viewBox="0 0 640 512"><path d="m504 448h-367.9a8 8 0 0 0 -8 8l-.1 48a8 8 0 0 0 8 8h368a8 8 0 0 0 8-8v-48a8 8 0 0 0 -8-8zm0-192h-367.4a8 8 0 0 0 -8 8l-.1 48a8 8 0 0 0 8 8h367.5a8 8 0 0 0 8-8v-48a8 8 0 0 0 -8-8zm0 96h-367.6a8 8 0 0 0 -8 8l-.1 48a8 8 0 0 0 8 8h367.7a8 8 0 0 0 8-8v-48a8 8 0 0 0 -8-8z" opacity=".4"/><path d="m640 161.28v342.72a8 8 0 0 1 -8 8h-80a8 8 0 0 1 -8-8v-248c0-17.6-14.6-32-32.6-32h-382.8c-18 0-32.6 14.4-32.6 32v248a8 8 0 0 1 -8 8h-80a8 8 0 0 1 -8-8v-342.72a48.11 48.11 0 0 1 29.5-44.28l272-113.3a48.06 48.06 0 0 1 36.9 0l272.1 113.3a48.11 48.11 0 0 1 29.5 44.28z"/></svg>