<svg viewBox="0 0 640 512"><path d="m304 416h-160a16 16 0 0 0 -16 16v64a16 16 0 0 0 16 16h160a16 16 0 0 0 16-16v-64a16 16 0 0 0 -16-16zm0-128h-160a16 16 0 0 0 -16 16v64a16 16 0 0 0 16 16h160a16 16 0 0 0 16-16v-64a16 16 0 0 0 -16-16zm192 128h-128a16 16 0 0 0 -16 16v64a16 16 0 0 0 16 16h128a16 16 0 0 0 16-16v-64a16 16 0 0 0 -16-16z" opacity=".4"/><path d="m640 161.28v342.72a8 8 0 0 1 -8 8h-48a8 8 0 0 1 -8-8v-296a16 16 0 0 0 -16-16h-480a16 16 0 0 0 -16 16v296a8 8 0 0 1 -8 8h-48a8 8 0 0 1 -8-8v-342.72a48.11 48.11 0 0 1 29.5-44.28l272-113.3a48.06 48.06 0 0 1 36.9 0l272.1 113.3a48.11 48.11 0 0 1 29.5 44.28z"/></svg>