<svg viewBox="0 0 446 512"><path d="m298 300a51.75 51.75 0 0 0 36.11-14.69 110.76 110.76 0 0 1 1.89 18.69 112 112 0 0 1 -224 0 110.76 110.76 0 0 1 1.89-18.69 51.79 51.79 0 0 0 73.24-1 51.23 51.23 0 0 0 73.74 0 51.81 51.81 0 0 0 37.13 15.69z" opacity=".4"/><path d="m384 0h-320a64 64 0 0 0 -64 64v416a32 32 0 0 0 32 32h384a32 32 0 0 0 32-32v-416a64 64 0 0 0 -64-64zm-200 64a24 24 0 1 1 -24 24 24 24 0 0 1 24-24zm-120 24a24 24 0 1 1 24 24 24 24 0 0 1 -24-24zm160 360a144 144 0 1 1 144-144 144 144 0 0 1 -144 144z"/></svg>