<svg viewBox="0 0 384 512"><path d="m320 80h-256a64 64 0 0 0 -64 64v224a64 64 0 0 0 64 64h256a64 64 0 0 0 64-64v-224a64 64 0 0 0 -64-64zm-200 288a8 8 0 0 1 -8 8h-32a8 8 0 0 1 -8-8v-32a8 8 0 0 1 8-8h32a8 8 0 0 1 8 8zm0-96a8 8 0 0 1 -8 8h-32a8 8 0 0 1 -8-8v-32a8 8 0 0 1 8-8h32a8 8 0 0 1 8 8zm96 96a8 8 0 0 1 -8 8h-32a8 8 0 0 1 -8-8v-32a8 8 0 0 1 8-8h32a8 8 0 0 1 8 8zm0-96a8 8 0 0 1 -8 8h-32a8 8 0 0 1 -8-8v-32a8 8 0 0 1 8-8h32a8 8 0 0 1 8 8zm96 96a8 8 0 0 1 -8 8h-32a8 8 0 0 1 -8-8v-32a8 8 0 0 1 8-8h32a8 8 0 0 1 8 8zm0-96a8 8 0 0 1 -8 8h-32a8 8 0 0 1 -8-8v-32a8 8 0 0 1 8-8h32a8 8 0 0 1 8 8zm0-96a8 8 0 0 1 -8 8h-224a8 8 0 0 1 -8-8v-32a8 8 0 0 1 8-8h224a8 8 0 0 1 8 8z" opacity=".4"/><path d="m64 480a32 32 0 0 0 32 32h192a32 32 0 0 0 32-32v-48h-256zm224-480h-192a32 32 0 0 0 -32 32v48h256v-48a32 32 0 0 0 -32-32zm-216 368a8 8 0 0 0 8 8h32a8 8 0 0 0 8-8v-32a8 8 0 0 0 -8-8h-32a8 8 0 0 0 -8 8zm8-88h32a8 8 0 0 0 8-8v-32a8 8 0 0 0 -8-8h-32a8 8 0 0 0 -8 8v32a8 8 0 0 0 8 8zm88 88a8 8 0 0 0 8 8h32a8 8 0 0 0 8-8v-32a8 8 0 0 0 -8-8h-32a8 8 0 0 0 -8 8zm8-88h32a8 8 0 0 0 8-8v-32a8 8 0 0 0 -8-8h-32a8 8 0 0 0 -8 8v32a8 8 0 0 0 8 8zm88 88a8 8 0 0 0 8 8h32a8 8 0 0 0 8-8v-32a8 8 0 0 0 -8-8h-32a8 8 0 0 0 -8 8zm8-88h32a8 8 0 0 0 8-8v-32a8 8 0 0 0 -8-8h-32a8 8 0 0 0 -8 8v32a8 8 0 0 0 8 8z"/></svg>