<svg viewBox="0 0 384 512"><path d="m320 80h-256a64 64 0 0 0 -64 64v224a64 64 0 0 0 64 64h256a64 64 0 0 0 64-64v-224a64 64 0 0 0 -64-64zm-33.43 182.21-84.67 85.64a13.89 13.89 0 0 1 -19.64.16l-.16-.16-84.67-85.64a60.64 60.64 0 0 1 .67-85.76q1.75-1.72 3.66-3.32c24-20 59.65-16.42 81.62 5.81l8.62 8.72 8.62-8.72c22-22.23 57.66-25.82 81.62-5.81a60.64 60.64 0 0 1 7.65 85.42q-1.58 1.89-3.32 3.66z" opacity=".4"/><path d="m182.26 348a13.89 13.89 0 0 0 19.64-.16l84.67-85.64q1.74-1.77 3.32-3.66a60.64 60.64 0 0 0 -7.65-85.42c-24-20-59.62-16.42-81.62 5.81l-8.62 8.73-8.62-8.72c-22-22.23-57.62-25.81-81.62-5.81q-1.91 1.59-3.66 3.32a60.64 60.64 0 0 0 -.67 85.76l84.67 85.64zm-118.26 132a32 32 0 0 0 32 32h192a32 32 0 0 0 32-32v-48h-256zm224-480h-192a32 32 0 0 0 -32 32v48h256v-48a32 32 0 0 0 -32-32z"/></svg>