<svg viewBox="0 0 384 512"><path d="m192 80a176 176 0 1 0 176 176 176 176 0 0 0 -176-176zm71.8 219.8-18.8 25.9a11.91 11.91 0 0 1 -16.62 2.73l-.18-.13-59.3-43.2a12 12 0 0 1 -4.9-9.7v-115.4a12 12 0 0 1 12-12h32a12 12 0 0 1 12 12v93l41.2 30a12.07 12.07 0 0 1 2.6 16.8z" opacity=".4"/><path d="m208 148h-32a12 12 0 0 0 -12 12v115.4a12 12 0 0 0 4.9 9.7l59.3 43.2.18.13a11.91 11.91 0 0 0 16.62-2.73l18.8-25.9a12.07 12.07 0 0 0 -2.6-16.8l-41.2-30v-93a12 12 0 0 0 -12-12zm-16 284a175.5 175.5 0 0 1 -128-55.21v111.21a23.94 23.94 0 0 0 23.88 24h208.12a23.94 23.94 0 0 0 24-23.88v-111.33a175.5 175.5 0 0 1 -128 55.21zm104.12-432h-208.12a23.94 23.94 0 0 0 -24 23.88v111.33a176 176 0 0 1 256 0v-111.21a23.94 23.94 0 0 0 -23.88-24z"/></svg>