<svg viewBox="0 0 640 512"><path d="m140 192h-24a16 16 0 0 0 -16 16v96a16 16 0 0 0 16 16h24a16 16 0 0 0 16-16v-96a16 16 0 0 0 -16-16zm384-128h-24a16 16 0 0 0 -16 16v352a16 16 0 0 0 16 16h24a16 16 0 0 0 16-16v-352a16 16 0 0 0 -16-16zm-192-64h-24a16 16 0 0 0 -16 16v480a16 16 0 0 0 16 16h24a16 16 0 0 0 16-16v-480a16 16 0 0 0 -16-16z" opacity=".4"/><path d="m44 224h-24a16 16 0 0 0 -16 16v32a16 16 0 0 0 16 16h24a16 16 0 0 0 16-16v-32a16 16 0 0 0 -16-16zm192-128h-24a16 16 0 0 0 -16 16v288a16 16 0 0 0 16 16h24a16 16 0 0 0 16-16v-288a16 16 0 0 0 -16-16zm384 128h-24a16 16 0 0 0 -16 16v32a16 16 0 0 0 16 16h24a16 16 0 0 0 16-16v-32a16 16 0 0 0 -16-16zm-192-96h-24a16 16 0 0 0 -16 16v224a16 16 0 0 0 16 16h24a16 16 0 0 0 16-16v-224a16 16 0 0 0 -16-16z"/></svg>