<svg viewBox="0 0 640 512"><path d="m146.93 81.8a223.54 223.54 0 0 1 173.07-81.8c123.71 0 224 100.29 224 224a222.55 222.55 0 0 1 -42.83 131.58l-50.63-39.13a160 160 0 0 0 -252.95-195.45zm173.07 14.2a127.67 127.67 0 0 0 -97 44.54l38 29.46a79.87 79.87 0 0 1 59-26 16 16 0 0 1 0 32 47.85 47.85 0 0 0 -33.48 13.65l138.68 107.22a128 128 0 0 0 -105.2-200.87zm-156.54 160.92-66.53-51.41c-.5 6.11-.93 12.25-.93 18.49 0 76.19 38.12 143.39 96.23 183.85l-49.23 30.75a32 32 0 0 0 -15 27.14v14.26a32 32 0 0 0 32 32h320a31.44 31.44 0 0 0 10.7-2.16l-163.7-126.54c-83.42 3.7-148.41-54.1-163.54-126.38z" opacity=".4"/><path d="m636.64 480.55-19.64 25.27a16 16 0 0 1 -22.45 2.8l-588.37-454.72a16 16 0 0 1 -2.81-22.45l19.63-25.27a16 16 0 0 1 22.45-2.8l588.37 454.72a16 16 0 0 1 2.82 22.45z"/></svg>