<svg viewBox="0 0 448 512"><path d="m224 96a128 128 0 1 0 128 128 128 128 0 0 0 -128-128zm0 80a48.05 48.05 0 0 0 -48 48 16 16 0 0 1 -32 0 80.09 80.09 0 0 1 80-80 16 16 0 1 1 0 32z" opacity=".4"/><path d="m401 438.6-49.19-30.75c58.07-40.46 96.19-107.66 96.19-183.85 0-123.71-100.29-224-224-224s-224 100.29-224 224c0 76.19 38.12 143.39 96.23 183.85l-49.23 30.75a32 32 0 0 0 -15 27.14v14.26a32 32 0 0 0 32 32h320a32 32 0 0 0 32-32v-14.26a32 32 0 0 0 -15-27.14zm-177-54.6a160 160 0 1 1 160-160 160 160 0 0 1 -160 160z"/></svg>