<svg viewBox="0 0 512 512"><path d="m256 320a160 160 0 1 0 -160-160 160 160 0 0 0 160 160zm-.28-152 33.56-78.3a16 16 0 0 1 29.44 12.59l-33.58 78.33a40 40 0 1 1 -29.42-12.62z" opacity=".4"/><path d="m512 128v320a64.07 64.07 0 0 1 -64 64h-384a64.07 64.07 0 0 1 -64-64v-320a64.07 64.07 0 0 1 64-64h26a190.6 190.6 0 0 0 -26 96c0 105.87 86.13 192 192 192s192-86.13 192-192a190.6 190.6 0 0 0 -26-96h26a64.07 64.07 0 0 1 64 64zm-256 120a40 40 0 0 0 29.14-67.38l33.58-78.33a16 16 0 0 0 -29.44-12.59l-33.56 78.3a40 40 0 0 0 .28 80z"/></svg>