<svg viewBox="0 0 512 512"><path d="m350.39 359.82a176 176 0 1 1 -208.54-196.5c2.53 17.67 5.52 38.63 9.08 63.48a112 112 0 1 0 137.07 109.2 114.79 114.79 0 0 0 -1.13-16h44.81z" opacity=".4"/><path d="m503.12 435.78-65.46 32.88a32 32 0 0 1 -42.89-14.43l-.3-.62-62.79-133.61h-139.68a32 32 0 0 1 -31.68-27.48c-33.89-237.21-31.94-222.52-32.32-228.52a64 64 0 1 1 73.37 63.31l4.63 32.69h130a16 16 0 0 1 16 16v32a16 16 0 0 1 -16 16h-120.82l4.57 32h132.25a32 32 0 0 1 29 18.39l57.48 122.41 36.18-18.35a16 16 0 0 1 21.44 7.22l14.23 28.66a16 16 0 0 1 -7.21 21.45z"/></svg>