<svg viewBox="0 0 640 512"><path d="m634 326.36-150-120a16.16 16.16 0 0 0 -18.2-1.2l-27.4 16.21a8 8 0 0 1 -9.1-.6l-25.2-20.21a8 8 0 0 1 -2.6-8.9l10.2-29.51a16 16 0 0 0 -5.1-17.7l-86.6-63.65c-62.6-40.1-141.7-42.9-207-9.3-12.1-14.6-29.8-23.5-49-23.5a64.06 64.06 0 0 0 -64 64 63.27 63.27 0 0 0 23 49c-40.1 78.24-27.5 176.56 38 242 89.8 89.82 251.11 81.42 326.51-32l150.41 86a15.93 15.93 0 0 0 20.7-4.3l78.2-104.33a16 16 0 0 0 -2.82-22.01zm-593.6-193.14a31.86 31.86 0 0 1 45.1-44.92c-17.8 13.01-29.9 24.32-45.1 44.92zm167.6 218.78a96 96 0 1 1 96-96 96 96 0 0 1 -96 96z" opacity=".4"/><path d="m208 160a96 96 0 1 0 96 96 96 96 0 0 0 -96-96zm0 144a48 48 0 1 1 48-48 48 48 0 0 1 -48 48z"/></svg>