<svg viewBox="0 0 514 512"><path d="m350.1 480h-48.32l-5-76.66-75.78-89.34-10.78 166h-48.32a36.94 36.94 0 0 0 -33 20.42 8 8 0 0 0 7.1 11.58h240a8 8 0 0 0 7.15-11.58 36.93 36.93 0 0 0 -33.05-20.42z" opacity=".4"/><path d="m398.69 425.79-88.35-182.32a55.77 55.77 0 0 1 -.73-42.79l73.28-179.07a15.8 15.8 0 0 0 -27.5-15.07l-114.12 156.67a55.74 55.74 0 0 1 -36.47 22.4l-191.48 30.33a15.81 15.81 0 0 0 -13.32 15.95v.23a15.8 15.8 0 0 0 14.1 15.35l189.74 20.53a55.77 55.77 0 0 1 37.53 20.58l130.31 153.5a15.81 15.81 0 0 0 20.53 3.63l.2-.12a15.8 15.8 0 0 0 6.28-19.8zm-142.69-177.79a24 24 0 1 1 24-24 24 24 0 0 1 -24 24z"/></svg>