<svg viewBox="0 0 512 512"><path d="m464 32h-416a48 48 0 0 0 -48 48v352a48 48 0 0 0 48 48h416a48 48 0 0 0 48-48v-352a48 48 0 0 0 -48-48zm-83.6 290.5a12.31 12.31 0 0 1 0 17.4l-40.5 40.5a12.31 12.31 0 0 1 -17.4 0l-66.5-67.1-66.5 67.1a12.31 12.31 0 0 1 -17.4 0l-40.5-40.5a12.31 12.31 0 0 1 0-17.4l67.1-66.5-67.1-66.5a12.31 12.31 0 0 1 0-17.4l40.5-40.5a12.31 12.31 0 0 1 17.4 0l66.5 67.1 66.5-67.1a12.31 12.31 0 0 1 17.4 0l40.5 40.5a12.31 12.31 0 0 1 0 17.4l-67.1 66.5z" opacity=".4"/><path d="m380.4 322.5a12.31 12.31 0 0 1 0 17.4l-40.5 40.5a12.31 12.31 0 0 1 -17.4 0l-66.5-67.1-66.5 67.1a12.31 12.31 0 0 1 -17.4 0l-40.5-40.5a12.31 12.31 0 0 1 0-17.4l67.1-66.5-67.1-66.5a12.31 12.31 0 0 1 0-17.4l40.5-40.5a12.31 12.31 0 0 1 17.4 0l66.5 67.1 66.5-67.1a12.31 12.31 0 0 1 17.4 0l40.5 40.5a12.31 12.31 0 0 1 0 17.4l-67.1 66.5z"/></svg>