<svg viewBox="0 0 288 512"><path d="m64.38 198.37 6.31-70.37h146.67l6.3 70.36a79.63 79.63 0 0 1 -15.28 55.26 81 81 0 0 1 -46.83 30.85 77.47 77.47 0 0 1 -35 0 81 81 0 0 1 -46.83-30.85 79.76 79.76 0 0 1 -15.35-55.25z" opacity=".4"/><path d="m211.63 64 12 134.36a79.63 79.63 0 0 1 -15.28 55.26 81 81 0 0 1 -46.83 30.85 77.47 77.47 0 0 1 -35 0 81 81 0 0 1 -46.82-30.85 79.76 79.76 0 0 1 -15.29-55.26l12.01-134.36zm44.11-64h-223.43a15.85 15.85 0 0 0 -15.7 14.55l-16 178.11a144.67 144.67 0 0 0 111.39 154.16v117.18h-40a40 40 0 0 0 -40 40 8 8 0 0 0 8 8h208a8 8 0 0 0 8-8 40 40 0 0 0 -40-40h-40v-117.19a144.67 144.67 0 0 0 111.39-154.16l-16-178.1a15.85 15.85 0 0 0 -15.65-14.55z"/></svg>