<svg viewBox="0 0 576 512"><path d="m158.2 288h38.72l14.91-64h-66.67zm-19.57-96h80.65l14.91-64h-108.6zm-122.63 0h58.83l-.1-.45-14.2-63.55h-44.53a16 16 0 0 0 -16 16v32a16 16 0 0 0 16 16zm285.18 32h-26.36l-14.82 63.7-.07.3h56.14l-.07-.3zm-219.18 0h-66a16 16 0 0 0 -16 16v32a16 16 0 0 0 16 16h80.43l-.07-.3zm478-96h-44.53l-14.2 63.55-.1.45h58.83a16 16 0 0 0 16-16v-32a16 16 0 0 0 -16-16zm0 96h-66l-14.33 63.7-.07.3h80.4a16 16 0 0 0 16-16v-32a16 16 0 0 0 -16-16zm-203.28-32h80.65l13-64h-108.56zm22.36 96h38.72l13-64h-66.63z" opacity=".4"/><path d="m534 44a11.89 11.89 0 0 1 -.29 2.59l-18.12 80.83-14.32 64.1-7.21 32-14.42 64.1-41 182.88a12 12 0 0 1 -11.64 9.5h-56.92a12.11 12.11 0 0 1 -11.72-9.31l-42.36-182.99-16.92-72.7c-1.9-8-3.5-16-4.81-23.44h-12.54c-1.31 7.44-2.91 15.44-4.81 23.44l-16.92 72.7-42.36 183a12.11 12.11 0 0 1 -11.72 9.3h-56.92a12 12 0 0 1 -11.72-9.42l-41-182.88-14.34-64.1-7.21-32-14.32-64.1-18.12-80.88a11.89 11.89 0 0 1 -.29-2.62 12 12 0 0 1 12-12h42.16a12 12 0 0 1 11.84 9.62l61.19 300.16a438.29 438.29 0 0 1 6.81 47.28h1.1c.5 0 1.1-21.44 7.31-47.28l70-300.47a12 12 0 0 1 11.69-9.31h43.8a12 12 0 0 1 11.71 9.31l70 300.47c6.21 25.84 6.81 47.28 7.31 47.28h1.08a438.29 438.29 0 0 1 6.81-47.28l61.19-300.16a12 12 0 0 1 11.84-9.62h42.16a12 12 0 0 1 12 12z"/></svg>