<svg viewBox="0 0 448 512"><path d="m320 400v96a16 16 0 0 1 -21.1 15.2l-74.9-31.2-74.9 31.2a16.06 16.06 0 0 1 -21.1-15.2v-96a16 16 0 0 1 21.1-15.2l74.9 31.2 74.9-31.2a16.06 16.06 0 0 1 21.1 15.2z" opacity=".4"/><path d="m448 224a47.8 47.8 0 0 0 -21.9-40.2 47.88 47.88 0 0 0 -31.6-74.4c3.3-15.4-.2-31.9-12.1-43.8s-28.5-15.4-43.8-12.1a47.78 47.78 0 0 0 -74.3-31.6 47.94 47.94 0 0 0 -80.5 0 47.78 47.78 0 0 0 -74.3 31.6c-15.4-3.3-31.9.2-43.8 12.1s-15.4 28.4-12.1 43.8a47.78 47.78 0 0 0 -31.6 74.3 47.88 47.88 0 0 0 -.1 80.5 47.65 47.65 0 0 0 -4.8 45.5c6.6 15.8 20.7 25.8 36.5 28.5-3.4 15.5 0 32.2 12.1 44.2 8.6 8.6 19.6 12.7 30.8 13.5a47.52 47.52 0 0 1 47.5-43.9 46.15 46.15 0 0 1 15.2 2.5l1.1.4 1.1.4 62.7 26.1 62.7-26.1 1.1-.4 1.1-.4a48.91 48.91 0 0 1 15.2-2.5 48 48 0 0 1 47.6 43.8 47.07 47.07 0 0 0 30.8-13.5c12-12 15.5-28.7 12.1-44.2 15.8-2.7 29.9-12.6 36.5-28.5a47.91 47.91 0 0 0 -4.8-45.5 47.94 47.94 0 0 0 21.6-40.1zm-146.5 26.2c-2.8 8.9-1.1 20.2-6.3 27.6s-16.1 9.3-23.3 14.8-12.1 15.6-20.7 18.5c-8.2 2.8-18.1-2.3-27.2-2.3s-19 5.1-27.2 2.3c-8.5-2.9-13.6-13.1-20.7-18.5s-18.1-7.3-23.3-14.8-3.5-18.7-6.3-27.6c-2.7-8.6-10.5-16.7-10.5-26.2s7.8-17.6 10.5-26.2c2.8-8.9 1.1-20.2 6.3-27.6s16.1-9.3 23.3-14.8 12.1-15.6 20.7-18.5c8.2-2.8 18.1 2.3 27.2 2.3s19-5.1 27.2-2.3c8.5 2.9 13.6 13.1 20.7 18.5s18.1 7.3 23.3 14.8 3.5 18.7 6.3 27.6c2.7 8.6 10.5 16.7 10.5 26.2s-7.8 17.6-10.5 26.2z"/></svg>