<svg viewBox="0 0 512 512"><path d="m322 280.47-.26.26a144.62 144.62 0 0 1 -90.3-90.64l-213.35 213.32a64 64 0 0 0 90.5 90.5l213.41-213.42zm-258.65 192.18a24 24 0 1 1 24-24 24 24 0 0 1 -24 24z" opacity=".4"/><path d="m469.69 246.2c-40 40-97.48 51-147.72 34.27l-.26.26a144.64 144.64 0 0 1 -90.41-90.94l.13-.13c-16.54-50.17-5.6-107.71 34.13-147.4a144.38 144.38 0 0 1 136.91-38 12 12 0 0 1 5.67 20.19l-74.53 74.48 11.33 68 68.06 11.35 74.53-74.52a12 12 0 0 1 20.17 5.52 144 144 0 0 1 -38.01 136.92z"/></svg>