<svg viewBox="0 0 640 512"><path d="m624 448h-608a16 16 0 0 0 -16 16v32a16 16 0 0 0 16 16h608a16 16 0 0 0 16-16v-32a16 16 0 0 0 -16-16zm0-448h-608a16 16 0 0 0 -16 16v32a16 16 0 0 0 16 16h608a16 16 0 0 0 16-16v-32a16 16 0 0 0 -16-16zm-456 192a8 8 0 0 0 -8 8v16a8 8 0 0 0 8 8h136v32h-104a8 8 0 0 0 -8 8v16a8 8 0 0 0 8 8h104v32h-64a48 48 0 1 0 48 48v-16h64v16a48 48 0 1 0 48-48h-64v-32h104a8 8 0 0 0 8-8v-16a8 8 0 0 0 -8-8h-104v-32h136a8 8 0 0 0 8-8v-16a8 8 0 0 0 -8-8h-136v-32h104a8 8 0 0 0 8-8v-16a8 8 0 0 0 -8-8h-104v-24a8 8 0 0 0 -8-8h-16a8 8 0 0 0 -8 8v24h-104a8 8 0 0 0 -8 8v16a8 8 0 0 0 8 8h104v32zm72 192a16 16 0 1 1 16-16 16 16 0 0 1 -16 16zm160-32a16 16 0 1 1 -16 16 16 16 0 0 1 16-16z" opacity=".4"/><path d="m240 352a16 16 0 1 0 16 16 16 16 0 0 0 -16-16zm160 32a16 16 0 1 0 -16-16 16 16 0 0 0 16 16zm-336-320v384h512v-384zm416 152a8 8 0 0 1 -8 8h-136v32h104a8 8 0 0 1 8 8v16a8 8 0 0 1 -8 8h-104v32h64a48 48 0 1 1 -48 48v-16h-64v16a48 48 0 1 1 -48-48h64v-32h-104a8 8 0 0 1 -8-8v-16a8 8 0 0 1 8-8h104v-32h-136a8 8 0 0 1 -8-8v-16a8 8 0 0 1 8-8h136v-32h-104a8 8 0 0 1 -8-8v-16a8 8 0 0 1 8-8h104v-24a8 8 0 0 1 8-8h16a8 8 0 0 1 8 8v24h104a8 8 0 0 1 8 8v16a8 8 0 0 1 -8 8h-104v32h136a8 8 0 0 1 8 8z"/></svg>