<svg viewBox="0 0 384 512"><path d="m32.18 332v32a12 12 0 0 0 12 12h108v-56h-108a12 12 0 0 0 -12 12zm308-12h-108v56h108a12 12 0 0 0 12-12v-32a12 12 0 0 0 -12-12zm-296-64h88.17l-29.83-56h-58.33a12 12 0 0 0 -12 12v32a12 12 0 0 0 12 12zm296-56h-58.37l-29.81 56h88.19a12 12 0 0 0 12-12v-32a12 12 0 0 0 -12-12z" opacity=".4"/><path d="m362 49.6-129.82 243.6v174.8a12 12 0 0 1 -12 12h-56a12 12 0 0 1 -12-12v-174.8l-129.79-243.6a12 12 0 0 1 10.61-17.6h65.2a12 12 0 0 1 10.8 6.7l55.4 113.2c14.5 34.7 27.1 71.9 27.1 71.9h1.3s12.6-37.2 27.1-71.9l55.4-113.2a12 12 0 0 1 10.8-6.7h65.3a12 12 0 0 1 10.6 17.6z"/></svg>