<svg viewbox="0 0 103 40">
    <path class="text-neutral-700 dark:text-neutral-400"
          d="m16.1 16.8c0-.4.1-.7 0-1.1-.3-1.9-2.2-3.2-4.1-2.9-2 .4-3.3 2.2-2.9 4.1.1.4.2.7.4 1 .7-.8 1.8-1.4 3.2-1.6 1.2-.2 2.4 0 3.4.5zm3.7 14.8c-1-1.5-1.6-3.2-1.8-5.2-3.1.2-5.9-.5-7.9-1.7 1.2 4.3 5.2 7.1 9.7 6.9zm14-26.2c-.4-2.5-2.4-4.5-4.8-4.9-2.1-.3-4.3-.5-6.4-.5-6.8 0-13.6 1.7-19.6 5.1-2.2 1.2-3.3 3.7-2.9 6.2l2.8 16c1.3 7.2 12.2 12.7 18.3 12.7.5 0 1 0 1.4-.1 1.9-.3 4.2-1.6 6.4-3.4-1.4-.1-2.7-.4-3.9-.9-1.2.7-2.2 1.2-3 1.4-.2 0-.5.1-.9.1-5.1 0-14.4-4.9-15.3-10.2l-2.9-16.1c-.2-1.3.4-2.5 1.4-3.1 5.6-3.1 11.9-4.7 18.2-4.7 2 0 4 .2 5.9.5 1.2.2 2.1 1.2 2.3 2.4l.3 1.8c1.1 0 2.1.2 3.1.4z"/>
    <path
        d="m30.8 16.2c-1.7 0-2.5.7-2.5 1.6 0 1 .8 1.5 2.7 2l1.7.4c4.5 1 6.3 3.1 6.4 6.2 0 4-3.1 6.2-8.3 6.2-5.3 0-8.8-2.3-8.8-7.4h5.3c.1 1.9 1.3 2.9 3.5 2.9 1.8 0 2.7-.7 2.7-1.7 0-.9-.8-1.5-3.1-2l-2-.4c-3.6-.8-5.8-2.5-5.8-5.7 0-3.9 3.4-6.5 8.2-6.5 4.9 0 8 2.6 8 6.6h-5.3c-.1-1.4-1-2.2-2.7-2.2z"/>
    <path
        d="m50.4 21h-2.6v6.4c0 .6.3 1 1 1 .3 0 .9-.1 1.1-.2l.8 3.9c-.5.1-1.4.4-2.7.5-3.8.2-5.8-1.4-5.7-4.6v-7h-2v-4h2v-3.7h5.5v3.7h2.6z"/>
    <path
        d="m51.9 28.1c0-3.4 2.5-4.6 5.6-4.9 2.5-.2 3.5-.4 3.5-1.3 0-.8-.7-1.2-1.6-1.2-1 0-1.7.4-1.9 1.4h-5.1c.2-2.8 2.4-5.2 7-5.2 4.4 0 7 2.2 7 5v10.5h-5.1v-2.1h-.1c-.9 1.7-2.4 2.4-4.4 2.4-2.9-.2-4.9-1.6-4.9-4.6zm9.2-1.2v-1.3c-.6.2-1.3.4-2.2.6-1.3.2-1.9.8-1.9 1.6 0 .9.7 1.3 1.6 1.3 1.3 0 2.5-.8 2.5-2.2z"/>
    <path
        d="m69 33.3h5.3c.2 1 1.1 1.4 2.3 1.4 1.4 0 2.5-.6 2.5-2.4v-2.6h-.1c-.6 1.6-2.2 2.4-4.3 2.4-3.3 0-6-2.1-6-7.4 0-5.5 2.9-7.8 6-7.8 2.3 0 3.7 1.3 4.3 2.9v-2.8h5.5v15.2c0 3.9-3.2 6.1-8 6.1-4.6.1-7.3-2.1-7.5-5zm10.1-8.6c0-2.3-.9-3.6-2.4-3.6s-2.4 1.4-2.4 3.6.9 3.5 2.4 3.5 2.4-1.3 2.4-3.5z"/>
    <path
        d="m86.8 24.7c0-4.7 3-7.9 7.8-7.9 4.6 0 7.6 3 7.6 7.8v1.3h-9.9v.2c0 1.5 1 2.5 2.6 2.5 1.1 0 2-.5 2.3-1.4h5c-.5 3.2-3.2 5.2-7.5 5.2-5 .2-7.9-2.8-7.9-7.7zm10.3-1.8c0-1.3-1.1-2.2-2.4-2.2s-2.4.9-2.5 2.2z"/>
</svg>
