<svg fill="none" height="72" viewBox="0 0 72 72" width="72" xmlns="http://www.w3.org/2000/svg"><path clip-rule="evenodd" d="m0 10c0-5.52285 4.47715-10 10-10h52c5.5228 0 10 4.47715 10 10v52c0 5.5228-4.4772 10-10 10h-52c-5.52285 0-10-4.4772-10-10z" fill="#111827" fill-rule="evenodd"/><g fill="#f3f4f6"><path d="m6.98979 48.0904v-2.9649l4.16791-.5083v-16.7056h-4.21874v-2.8295l9.14914-1.6603v21.1954l4.1679.5083v2.9649z"/><path d="m22.3399 48.0904v-2.9649l4.168-.5083v-16.7056h-4.2188v-2.8295l9.1491-1.6603v21.1954l4.1679.5083v2.9649z"/><path d="m45.5176 48.4462c-1.3667 0-2.643-.1299-3.829-.3896-1.1747-.2598-2.3042-.6326-3.3886-1.1183l-.0508-5.1845h3.4394l.6608 2.6431c.384.192.8019.3445 1.2537.4575.4631.1129.9883.1694 1.5757.1694 1.1069 0 1.8863-.1807 2.3381-.5422.4518-.3614.6777-.8132.6777-1.3554 0-.5083-.2428-.9544-.7285-1.3385-.4857-.3953-1.4402-.7398-2.8634-1.0335-2.1799-.4518-3.7838-1.1521-4.8117-2.1009-1.0166-.9488-1.5249-2.163-1.5249-3.6427 0-1.0053.2542-1.9315.7625-2.7786.5195-.8471 1.3046-1.5192 2.355-2.0162 1.0618-.5083 2.4172-.7624 4.0663-.7624 1.378 0 2.6374.1355 3.7782.4066 1.1521.2598 2.1179.6043 2.8972 1.0335l.0509 5.0151h-3.4225l-.5252-2.4059c-.6551-.4518-1.4797-.6777-2.4737-.6777-.8584 0-1.5248.1807-1.9992.5422-.4631.3501-.6947.7963-.6947 1.3384 0 .4744.2034.9037.61 1.2877.4179.3727 1.3272.7172 2.7278 1.0335 2.2703.5196 3.925 1.2142 4.9642 2.084 1.0392.8584 1.5587 2.067 1.5587 3.6257 0 1.7056-.6212 3.0836-1.8637 4.1341-1.2311 1.0504-3.0779 1.5756-5.5403 1.5756z"/><path d="m62.3757 48.4462c-1.7056 0-3.0215-.4687-3.9477-1.4062-.9149-.9375-1.3723-2.4228-1.3723-4.456v-9.3524h-2.5245v-3.4732h2.5245v-4.4899h4.9303v4.4899h3.3716v3.4732h-3.3716v9.3355c0 .7116.1469 1.2199.4405 1.5248.305.305.7173.4575 1.2369.4575.271 0 .5647-.0169.881-.0508.3162-.0452.5873-.0904.8132-.1356l.4236 3.575c-.497.1468-1.0448.2654-1.6434.3558-.5987.1016-1.186.1524-1.7621.1524z"/></g></svg>