<svg fill="none" height="32" viewBox="0 0 146 32" width="146"><rect fill="#15847d" height="32" rx="6" width="146"/><g fill="#fff"><path d="m31.0117 21v-9.9531h2.9395c.8795 0 1.6588.1959 2.3379.5879.6836.3919 1.2122.9479 1.5859 1.6679.3737.7201.5605 1.545.5605 2.4746v.4991c0 .9433-.1891 1.7728-.5673 2.4882-.3737.7155-.9092 1.267-1.6065 1.6543-.6927.3874-1.4879.5811-2.3857.5811zm1.7295-8.5586v7.1777h1.1279c.9069 0 1.6019-.2825 2.085-.8476.4876-.5697.736-1.3854.7451-2.4473v-.5537c0-1.0801-.2347-1.9049-.7041-2.4746s-1.1507-.8545-2.0439-.8545z"/><path d="m43.4549 21.1367c-1.0528 0-1.9072-.3304-2.5635-.9912-.6517-.6654-.9775-1.5495-.9775-2.6523v-.2051c0-.7383.1412-1.3968.4238-1.9756.2871-.5833.6881-1.0368 1.2031-1.3604.515-.3235 1.0892-.4853 1.7227-.4853 1.0071 0 1.7842.3213 2.331.9639.5515.6425.8272 1.5517.8272 2.7275v.6699h-4.833c.0501.6107.2529 1.0938.6084 1.4492.36.3555.8112.5332 1.3535.5332.7611 0 1.3808-.3076 1.8594-.9228l.8955.8545c-.2963.442-.6927.7861-1.1895 1.0322-.4922.2416-1.0459.3623-1.6611.3623zm-.1983-6.3369c-.4557 0-.8248.1595-1.1074.4785-.278.319-.4557.7634-.5332 1.333h3.1651v-.123c-.0365-.556-.1846-.9753-.4444-1.2578-.2597-.2871-.6198-.4307-1.0801-.4307z"/><path d="m54.3941 17.377c0 1.1438-.2597 2.0576-.7793 2.7412-.5195.679-1.2168 1.0185-2.0918 1.0185-.8112 0-1.4606-.2666-1.9482-.7998v3.5069h-1.6611v-10.2403h1.5312l.0684.752c.4876-.5925 1.1507-.8887 1.9892-.8887.9024 0 1.6088.3372 2.1192 1.0117.515.6699.7724 1.6019.7724 2.7959zm-1.6543-.1436c0-.7383-.1481-1.3239-.4443-1.7568-.2917-.433-.7109-.6495-1.2578-.6495-.679 0-1.1667.2803-1.4629.8409v3.2812c.3008.5742.793.8613 1.4766.8613.5286 0 .941-.2119 1.2373-.6357.3008-.4284.4511-1.0755.4511-1.9414z"/><path d="m57.7729 21h-1.6612v-10.5h1.6612z"/><path d="m59.4768 17.2334c0-.7246.1435-1.3763.4306-1.9551.2871-.5833.6905-1.0299 1.21-1.3398.5195-.3145 1.1165-.4717 1.791-.4717.998 0 1.807.3213 2.4268.9639.6243.6425.9615 1.4948 1.0117 2.5566l.0068.3897c0 .7291-.1413 1.3808-.4238 1.955-.278.5742-.6791 1.0186-1.2031 1.333-.5196.3145-1.1211.4717-1.8047.4717-1.0437 0-1.8799-.3463-2.5088-1.039-.6244-.6973-.9365-1.6247-.9365-2.7823zm1.6611.1436c0 .761.1572 1.358.4717 1.791.3144.4284.7519.6425 1.3125.6425.5605 0 .9957-.2187 1.3056-.6562.3145-.4375.4717-1.0778.4717-1.9209 0-.7474-.1618-1.3398-.4853-1.7773-.319-.4375-.7543-.6563-1.3057-.6563-.5423 0-.973.2165-1.292.6494-.319.4284-.4785 1.071-.4785 1.9278z"/><path d="m70.4365 18.6211 1.5039-5.0176h1.7705l-2.9394 8.5176c-.4512 1.2441-1.2168 1.8662-2.2969 1.8662-.2415 0-.5081-.041-.7998-.123v-1.2852l.3145.0205c.4192 0 .7337-.0775.9433-.2324.2142-.1504.3828-.4056.5059-.7656l.2392-.6358-2.5976-7.3623h1.791z"/><path d="m80.6393 11.8057v1.7978h1.3056v1.2305h-1.3056v4.1289c0 .2825.0546.4876.164.6152.114.1231.3145.1846.6016.1846.1914 0 .3851-.0228.581-.0684v1.2852c-.3782.1048-.7428.1572-1.0937.1572-1.2761 0-1.9141-.7041-1.9141-2.1123v-4.1904h-1.2168v-1.2305h1.2168v-1.7978z"/><path d="m82.9037 17.2334c0-.7246.1436-1.3763.4307-1.9551.2871-.5833.6904-1.0299 1.2099-1.3398.5196-.3145 1.1166-.4717 1.7911-.4717.998 0 1.8069.3213 2.4267.9639.6244.6425.9616 1.4948 1.0117 2.5566l.0069.3897c0 .7291-.1413 1.3808-.4239 1.955-.278.5742-.679 1.0186-1.2031 1.333-.5195.3145-1.1211.4717-1.8047.4717-1.0436 0-1.8799-.3463-2.5088-1.039-.6243-.6973-.9365-1.6247-.9365-2.7823zm1.6611.1436c0 .761.1573 1.358.4717 1.791.3145.4284.752.6425 1.3125.6425.5606 0 .9958-.2187 1.3057-.6562.3144-.4375.4717-1.0778.4717-1.9209 0-.7474-.1618-1.3398-.4854-1.7773-.319-.4375-.7542-.6563-1.3056-.6563-.5424 0-.973.2165-1.292.6494-.3191.4284-.4786 1.071-.4786 1.9278z"/><path d="m103.128 21h-1.73l-4.4361-7.0615v7.0615h-1.7295v-9.9531h1.7295l4.4501 7.0888v-7.0888h1.716z"/><path d="m108.523 21.1367c-1.084 0-1.969-.3327-2.652-.998-.679-.6654-1.019-1.5518-1.019-2.6592v-.1914c0-.7429.144-1.4059.431-1.9893.287-.5879.693-1.039 1.217-1.3535.528-.319 1.13-.4785 1.804-.4785 1.012 0 1.807.319 2.386.957.584.638.875 1.5427.875 2.7139v.8066h-4.71c.064.4831.255.8705.574 1.1621.324.2917.732.4375 1.224.4375.761 0 1.356-.2757 1.784-.8271l.971 1.0869c-.296.4193-.697.7474-1.203.9844-.506.2324-1.067.3486-1.682.3486zm-.225-6.0703c-.392 0-.711.1322-.957.3965-.242.2643-.397.6426-.465 1.1348h2.748v-.1573c-.009-.4375-.128-.7747-.356-1.0117-.228-.2415-.551-.3623-.97-.3623z"/><path d="m115.258 11.7852v1.8183h1.265v1.4492h-1.265v3.6914c0 .2735.053.4694.158.5879.104.1185.305.1778.601.1778.219 0 .413-.016.581-.0479v1.4971c-.387.1185-.786.1777-1.196.1777-1.385 0-2.092-.6995-2.119-2.0986v-3.9854h-1.08v-1.4492h1.08v-1.8183z"/><path d="m119.909 21h-1.983v-10.5h1.983z"/><path d="m123.827 21h-1.982v-7.3965h1.982zm-2.098-9.3105c0-.2963.098-.5401.294-.7315.2-.1914.471-.2871.813-.2871.337 0 .606.0957.807.2871.2.1914.301.4352.301.7315 0 .3007-.103.5468-.308.7382-.201.1914-.467.2871-.8.2871s-.601-.0957-.807-.2871c-.2-.1914-.3-.4375-.3-.7382z"/><path d="m126.201 21v-5.9473h-1.1v-1.4492h1.1v-.6289c0-.8294.237-1.472.711-1.9277.479-.4603 1.146-.6905 2.003-.6905.273 0 .608.0456 1.005.1368l-.021 1.5312c-.164-.041-.364-.0615-.601-.0615-.743 0-1.114.3486-1.114 1.0459v.5947h1.469v1.4492h-1.469v5.9473z"/><path d="m133.64 18.2041 1.368-4.6006h2.119l-2.974 8.5449-.164.3897c-.442.9661-1.171 1.4492-2.187 1.4492-.288 0-.579-.0433-.875-.1299v-1.497l.3.0068c.374 0 .652-.057.834-.1709.187-.1139.333-.3031.438-.5674l.232-.6084-2.591-7.417h2.126z"/><path d="m12.7635 11.2365c.2404.1016 1.9204.812 2.1364.9057.0138.006.0298.0126.0405.002.1447-.1158.3308-.184.5169-.184.0838 0 .1675.0119.2512.0357.0117.0034.0259.0066.0359-.0003.0072-.005.0116-.0117.0163-.0191l1.6541-2.56177-.5041-.50398c-.3221-.32215-.4832-.48323-.6695-.54215-.1569-.04964-.3255-.04964-.4824 0-.1863.05892-.3474.22-.6695.54215z"/><path d="m12.5276 16.2008-1.9233-2.8051 1.7965-1.7965c.1678.0734.7758.3304 1.3225.5614l.0102.0043c.4164.176.7954.3362.9143.3875.012.0052.0229.0099.0282.0218.0032.0072.0016.0166 0 .0243-.0121.0575-.0182.115-.0182.1725 0 .2112.0828.4088.2275.5586.0119.0118-.0001.029-.0106.0441l-.0056.0083-1.8237 2.8253c-.005.0076-.0096.0147-.0172.0197-.0097.0063-.0232.0035-.0344.0006-.0711-.018-.1473-.0296-.2175-.0296-.0653 0-.1367.0122-.2085.025-.0078.0014-.0157.0029-.0221-.0018-.007-.0051-.0131-.0132-.0181-.0204z"/><path d="m19.634 13.8066c-.0533-.0593-.1195-.1122-.1985-.1526-.0019-.001-.0037-.0016-.0055-.0023-.0032-.0013-.0064-.0025-.0092-.0052-.0094-.0088-.013-.0246-.011-.0373l.3089-1.8905 1.4503 1.4503-1.508.6416c-.0042.0018-.0087.0028-.0132.0028-.003 0-.0047 0-.0062-.0006-.002-.0007-.0039-.0026-.0076-.0062z"/><path d="m19.9467 14.2124 1.5921-.6736 1.5505 1.5504c.322.3221.4832.4833.5421.6696.0087.0275.0159.0553.0215.0834l-3.7053-1.5689-.0058-.0024c-.015-.006-.0322-.013-.0322-.0283 0-.015.0176-.0222.0322-.0283z"/><path d="m23.5896 16.34-3.8604-1.6327c-.0128-.0054-.0284-.0116-.041-.0057-.0043.0021-.0069.0055-.0096.0092l-.0013.0017c-.1102.1461-.2736.2391-.4637.2659-.0185 0-.0218.0234-.0246.0434l-.0012.0086-.4255 2.6104-.001.0055c-.0024.0133-.005.0278.0043.037.1516.1158.2412.2861.2619.4769 0 .0183.0216.0219.0414.0251l.0016.0003.006.001.0043.0008 2.2609.4709 1.7476-1.7475c.2642-.2643.4203-.4204.5003-.5708z"/><path d="m18.9152 18.6449 2.0243.4156-2.8744 2.8744.4924-3.0242.0006-.0042c.0005-.0037.001-.0077.0024-.0112.0038-.0097.0143-.0139.0243-.0178l.0048-.0019c.1092-.0455.2019-.1176.278-.2068.0097-.0113.0213-.0218.036-.0244.0033-.0005.0083-.0002.0116.0005z"/><path d="m17.4568 22.5432c.1151-.706.5442-3.3209.5941-3.6251.001-.0057.0034-.0119.0058-.0179.0052-.0133.0102-.0259-.001-.0314-.202-.0799-.3514-.2573-.4096-.4623-.0008-.0027-.0013-.0054-.0017-.0079-.0012-.0063-.0023-.0119-.0074-.017-.0072-.0071-.0206-.0112-.0305-.0133l-3.9684-.8184c-.0094-.0019-.0208-.0038-.0292.0007-.0098.0052-.015.0142-.0206.0236l-.0008.0014-.0081.0139c-.0102.0175-.0195.0335-.0305.0492l-.0039.0051c-.0041.0052-.0082.0105-.0088.017-.0008.0089.0049.0166.0106.024l.0041.0056 3.5818 5.1769z"/><path d="m13.1806 17.9965 3.5994 5.2231c-.2387.2364-.3795.3614-.5388.4118-.1569.0496-.3254.0496-.4824 0-.1863-.0589-.3474-.22-.6695-.5422l-3.5971-3.597.9394-1.4574c.0046-.0072.0088-.0138.0158-.0187.0102-.0073.0247-.0038.0367-.0001.0966.0299.1879.042.2853.042.1256 0 .2449-.0251.3699-.0752.0106-.0043.0216-.0068.0301.0007.004.0036.0081.0086.0112.013z"/><path d="m11.1453 19.1453.9005-1.397c.0044-.0069.0078-.0135.0032-.0203l-.003-.0037-.0021-.0026c-.0156-.0205-.0311-.0411-.0467-.0647-.0018-.0028-.0036-.0058-.0054-.009-.0074-.0125-.0153-.0261-.0288-.0261-.0045 0-.009.0009-.0132.0027l-1.63.6952z"/><path d="m11.6896 17.2199-1.73473.7349-1.04411-1.044c-.17747-.1775-.30625-.3063-.39577-.4172l3.17411.6582.0119.0022c.0198.0032.0414.0067.0414.025 0 .0199-.0235.0292-.0435.0372z"/><path d="m8.33255 15.9568 3.57945.7502c.006.0012.0124.0026.0177-.0007.0087-.0054.0149-.0157.0198-.0247.0412-.0764.0997-.1468.1582-.2111.0121-.0119.0002-.028-.0106-.0427l-.0054-.0073c-.1697-.2432-1.6243-2.3445-1.8445-2.6677l-1.33644 1.3364c-.32214.3222-.48323.4833-.54214.6696-.02043.0646-.03245.1311-.03607.198z"/><path d="m16.1396 12.2872 1.6262-2.52138 1.5276 1.52758-.3678 2.2788-.0007.0062c-.0006.0052-.0012.011-.0031.0151-.0036.008-.0115.0098-.0199.0117-.0028.0007-.0057.0014-.0086.0023-.0773.0253-.1491.0609-.2107.1069-.0029.0021-.0053.0046-.0076.0071-.0047.0049-.009.0095-.0162.0099-.0047.0003-.0127-.0008-.017-.0026l-2.3273-.9889-.0047-.0019c-.0147-.0061-.0323-.0134-.0323-.0284-.0126-.1244-.0539-.2488-.1187-.3576l-.005-.0083c-.0114-.0183-.0236-.0379-.0142-.0565z"/><path d="m16.1933 13.2084c-.0127-.0054-.0285-.0098-.0394-.0013-.0057.0045-.0094.0098-.0134.0158-.1523.2261-.4042.3589-.6763.3589-.0361 0-.0722-.0052-.1129-.0111l-.018-.0026c-.0192 0-.0311.0187-.0417.0355l-.0031.0048-1.793 2.7757-.0056.0082c-.0105.0151-.0225.0324-.0106.0441.0069.0068.0138.0068.0206.0068.0067 0 4.5133-1.9217 4.8588-2.069l.0047-.002c.0143-.0059.03-.0124.03-.0274v-.0613c0-.0367.0055-.0734.0117-.1052.0013-.0071.0026-.0158-.0001-.0225-.005-.0126-.0178-.018-.0303-.0233z"/><path d="m13.729 16.9908c-.0157-.0533-.0319-.1083-.0341-.1086l4.9121-2.0946s.007.0001.0138.0069c.027.0265.0496.0449.0714.0613.0033.0025.0071.0047.0109.0069.0101.0059.0203.0118.021.0225.0002.0037-.0002.0065-.0008.0101l-.421 2.5847-.0015.0102c-.0027.0204-.0057.0431-.0246.0431-.2283.0133-.4304.143-.549.3387l-.0019.0031c-.0055.0093-.0108.0181-.0204.0229-.0081.0041-.019.0023-.0278.0005l-3.917-.8081c-.0018-.0004-.0163-.0493-.0311-.0996z"/></g></svg>